<?xml version="1.0" encoding="UTF-8"?><svg id="Layer_2" xmlns="http://www.w3.org/2000/svg" viewBox="0 0 1976.09544 1084.4911"><defs><style>.cls-1{fill:#053e43;}.cls-1,.cls-2,.cls-3,.cls-4,.cls-5,.cls-6,.cls-7,.cls-8,.cls-9{stroke-width:0px;}.cls-2{fill:#4bad4c;opacity:.3;}.cls-3{fill:#37b6b9;}.cls-4{fill:#1890a9;}.cls-5{fill:#109bbb;}.cls-6{fill:#0798bc;}.cls-7{fill:#05334c;}.cls-8{fill:#fce796;opacity:.9;}.cls-9{fill:#e95344;}</style></defs><g id="Layer_1-2"><g id="LogoN"><path class="cls-7" d="m1845.58515,631.90065c7.40547-1.999,17.51075-3.82182,25.55282-3.82182,24.67765,0,47.86097,10.02079,64.01146,26.19377,16.17482,16.15196,25.42702,38.56595,25.42702,63.22223v96.00472h-12.20467l.76785-96.00472c0-19.86539-8.99021-42.16274-21.82018-55.39152-12.30723-12.68979-30.17873-22.98918-56.18148-22.58729-6.66528.10302-12.55744,1.68904-15.3051,2.01932"/><path class="cls-7" d="m1565.15663,753.31524l-12.38028.09491s11.66923,30.25933,28.41298,43.4585c20.19127,15.91685,41.5041,14.30408,58.41953,13.17669,16.37349-1.09127,36.471-9.92737,51.15752-27.89488,14.2945-17.48792,22.44485-57.95165,27.03729-83.85649,5.5455-31.28078,28.79646-56.19366,65.64165-55.36559,38.63763-1.08926,61.05754,30.52994,63.61448,49.60406,3.75364,28.00118,2.55291,45.16784,2.54486,62.85969s-.39923,56.7714-.39923,56.7714l13.03363-.05029s.97615-100.01512-2.30354-121.3647c-3.62146-23.57435-28.22133-61.1727-76.5429-61.1727-48.05614,0-69.83254,30.93811-77.01634,58.90794-4.63566,18.04878-4.06292,59.62426-26.91221,88.87107-17.99915,23.03868-51.48961,28.23233-78.43032,19.39308-24.40296-8.00661-35.87712-43.43268-35.87712-43.43268Z"/><path class="cls-7" d="m1572.52586,662.71463c3.82074-4.07017,10.30067-9.63991,15.93817-12.65715,5.61811-3.00687,14.34941-6.29212,26.47857-6.69928,10.48008-.3518,19.8988.70099,29.72111,6.22079,7.66626,4.30817,15.55816,10.06705,21.88157,20.29185,7.53935,12.19095,10.49463,21.10393,11.61033,35.1471.09625,1.21151-.07372,9.37003-.13344,10.60858h-94.89601v10.6686h105.94104l1.07451-7.55255c.23491-2.98133-.19898-9.23528-.54928-13.72463-.69854-8.95223-2.33361-20.26083-7.71407-30.74803-7.42465-14.47158-14.71517-22.76692-26.20588-30.25615-12.58877-8.20491-27.29544-11.32846-39.96203-11.32417-8.49129.00288-21.33462,2.63616-26.00712,4.39799-9.63921,3.63461-16.56718,7.1675-24.34438,14.92814-8.96909,8.94999-14.70722,17.57834-21.48125,29.75442-3.37909,6.08988-6.35381,12.04891-8.99826,17.48008-2.64186,5.42785-4.96045,10.3378-6.96424,14.24807-6.73238,13.17908-18.75291,33.53475-33.99882,49.31147-7.61226,7.89794-21.3872,19.43904-30.15949,24.28301-8.79294,4.85503-17.84759,7.62775-27.21004,7.62996-18.55312.01585-37.22383-5.53549-51.70154-15.78298l-10.14032-7.69299v16.67965c17.82667,12.56276,39.84883,18.9855,61.84186,19.00136,12.90373.00258,24.94637-3.86308,35.7173-9.8258,16.17519-8.97393,29.77302-22.58613,40.84989-36.52604,11.05992-13.95797,19.55575-28.29819,25.07318-39.06358,3.35034-6.54807,7.03059-14.63401,11.40126-23.15712,6.52338-12.76992,13.33589-25.4123,22.93738-35.6406Z"/><path class="cls-7" d="m1390.56076,717.58592v12.40287h115.38993v-12.31434s-.66355-10.30105-3.01004-20.67522c-5.85826-25.90011-35.01609-68.94324-89.15083-68.91673-49.83311.02441-80.86011,40.23475-87.98463,69.73827-4.64957,19.25445-3.64695,31.1618-2.65462,52.36954.67958,14.52373,1.20571,46.31257,4.91852,46.18552,5.62146-.19237,6.05891-10.91675,7.15109-36.11437.85312-19.68216-1.75265-37.43891,6.69194-63.77175,9.31493-29.04679,38.20124-54.12737,72.17085-54.1832,32.69667-.05375,64.31408,24.19443,72.55844,54.18312,3.33054,12.11476,1.84457,21.09629,1.84457,21.09629h-97.92521Z"/><path class="cls-7" d="m1189.52804,789.47458s-.2237,5.83701,6.32427,5.83701c6.57835,0,6.57835-5.59852,6.57835-5.59852v-97.50192c0-40.06814-32.59867-72.66697-72.66705-72.66697s-72.66737,32.59883-72.66737,72.66697c0,.04063.01108.07789.0114.11812-.06343,46.00313-37.49936,101.34144-83.50908,101.34144-.06263,0-.12109.01718-.18388.01863h-169.89824c-3.67359,0-6.64892,2.97757-6.64892,6.64892s2.97533,6.64908,6.64892,6.64908h170.08598c.09796,0,.18966-.02473.28682-.02891,53.24673-.22339,96.51976-61.48424,96.51976-114.74727,0-.03348-.00996-.06464-.00996-.09804.05364-32.69085,26.66167-59.27109,59.36456-59.27109,32.7363,0,59.36922,26.63268,59.36922,59.36914"/><path class="cls-7" d="m1202.46485,735.62018c-.30028,46.4974,29.33528,62.3775,56.54824,62.18098,25.80792-.18637,39.86477-10.46561,44.64719-22.16695,3.5723-8.74049,13.85469-3.30778,12.41592,1.69648-4.41592,15.35917-23.81145,34.01828-57.39117,33.92854-30.01983-.08023-69.01623-21.71931-68.87781-72.19279.08586-31.30586-.13843-47.9193-.13843-47.9193,0-40.06814,32.59867-72.66697,72.66705-72.66697s72.66737,32.59883,72.66737,72.66697c0,.04063-.01108.07789-.0114.11812,0,0-.42581,60.58095-.3678,78.67062s-.5407,122.27925-1.99515,135.9512c-5.16928,48.59193-31.61439,66.09141-63.81465,68.45647-26.40751,1.93959-46.25233-12.02895-54.81207-22.43516-5.3086-6.45375-13.82127-18.12839-15.62078-34.96204-.89953-8.41476,10.88809-10.4504,12.0742-3.03959,6.06516,37.89509,34.69263,50.62859,57.05937,48.97943,33.43424-2.46519,53.48675-28.22468,53.86966-75.81091-.02308-21.95829.30584-195.92815.30584-195.92815,0-.03348.00996-.06464.00996-.09804-.05364-32.69085-26.66167-59.27109-59.36456-59.27109-32.7363,0-59.36922,26.63268-59.36922,59.36914"/><g id="eLetter"><path class="cls-6" d="m802.77338,632.84547h140.84298c.00646,0,.01254-.0019.01985-.0019,37.65122.01824,68.67068,28.91915,72.03885,65.68976h-144.11017c1.714-18.69458,10.61895-36.01453,25.01488-48.2828,2.79788-2.38185,3.13185-6.5779.74962-9.37236-2.38185-2.7994-6.58246-3.13147-9.37236-.74924-19.0635,16.24206-29.99438,39.95337-29.99438,65.05336,0,.42743.04825.84271.12538,1.24772-1.17022,31.17219,12.66759,61.03663,37.28619,80.14497,1.21277.94035,2.64932,1.39666,4.0741,1.39666,1.98101,0,3.94378-.88298,5.25723-2.57144,2.24849-2.90122,1.72531-7.07753-1.17582-9.32943-19.93859-15.47686-31.67941-39.13916-32.20534-64.23953h151.30358c3.67336,0,6.64905-2.97721,6.64905-6.64895,0-47.22163-38.43561-85.63814-85.67585-85.63814-.01254,0-.02432.00342-.03685.00342h-140.79093c-3.67335,0-6.64895,2.97759-6.64895,6.64895s2.9756,6.64895,6.64895,6.64895Z"/><path class="cls-6" d="m743.5255,632.84205h31.18844c3.67288,0,6.64895-2.97759,6.64895-6.64895s-2.97607-6.64895-6.64895-6.64895h-31.18844c-3.67335,0-6.64895,2.97759-6.64895,6.64895s2.9756,6.64895,6.64895,6.64895Z"/><path class="cls-6" d="m813.3721,705.18228c0-3.67136-2.97569-6.64895-6.64895-6.64895h-94.50708c-3.67326,0-6.64895,2.97759-6.64895,6.64895,0,3.67174,2.97569,6.64895,6.64895,6.64895h94.50708c3.67326,0,6.64895-2.97721,6.64895-6.64895Z"/></g><g id="Slogan"><path class="cls-1" d="m1361.89915,933.48426c-3.20801,0-6.1543-.82568-8.83789-2.47852-2.68555-1.65234-4.80273-3.96729-6.35449-6.9458-1.55078-2.97705-2.32715-6.37305-2.32715-10.18652,0-3.81299.77637-7.2085,2.32715-10.18652,1.55176-2.97705,3.66895-5.29248,6.35449-6.94531,2.68359-1.65186,5.62988-2.47852,8.83789-2.47852,2.43945,0,4.74902.49023,6.92871,1.4707,2.17871.98047,4.0791,2.37891,5.7002,4.19434,1.62109,1.81641,2.81445,3.92236,3.58203,6.31934h-4.44531c-1.0459-2.43262-2.64062-4.35791-4.78418-5.77441-2.14453-1.4165-4.47168-2.12451-6.98145-2.12451-2.44141,0-4.68066.65381-6.71973,1.96094-2.04004,1.30762-3.65332,3.1416-4.83789,5.50195-1.18555,2.36133-1.77832,5.04834-1.77832,8.06201,0,3.01514.59277,5.70215,1.77832,8.06201,1.18457,2.36133,2.79785,4.19482,4.83789,5.50195,2.03906,1.30762,4.27832,1.96094,6.71973,1.96094,2.12598,0,4.13867-.55322,6.04004-1.66113,1.89941-1.10742,3.41602-2.56885,4.54883-4.38525,1.13281-1.81543,1.7002-3.7041,1.7002-5.66504v-2.01562l1.41211,1.4707h-12.39453v-3.81299h15.16602v19.61035h-3.39941l-.52246-5.44727h-.26172c-.69824.94482-1.65625,1.87061-2.87598,2.77783-1.2207.9082-2.65039,1.6709-4.28809,2.28809-1.63965.61719-3.34766.92627-5.125.92627Z"/><path class="cls-1" d="m1396.67454,933.48426c-2.33594,0-4.46289-.59961-6.37988-1.79785-1.91797-1.19824-3.42578-2.86816-4.52344-5.01172-1.09863-2.14209-1.64746-4.59326-1.64746-7.354,0-2.75928.54883-5.21045,1.64746-7.35352,1.09766-2.14258,2.60547-3.81348,4.52344-5.01172,1.91699-1.19824,4.04395-1.79785,6.37988-1.79785,2.23047,0,4.27051.56348,6.11816,1.68896,1.84766,1.12598,3.29492,2.67871,4.34082,4.65723,1.0459,1.97998,1.56836,4.22168,1.56836,6.72754,0,.72705-.02539,1.36182-.07812,1.90674-.05176.54492-.11328.9082-.18262,1.08936h-20.39551c.17383,1.6709.66211,3.15088,1.46484,4.43945.80078,1.28955,1.83008,2.27979,3.08496,2.96924,1.25488.68994,2.61523,1.03467,4.0791,1.03467,1.56836,0,2.97168-.38135,4.20996-1.14404,1.23633-.76221,2.1875-1.83301,2.84961-3.21387h4.18359c-.62695,1.74316-1.47266,3.22363-2.53613,4.43994-1.06348,1.2168-2.32715,2.14307-3.79102,2.77783-1.46484.63525-3.10352.95361-4.91602.95361Zm8.10547-16.06982c-.07031-1.59766-.4707-3.04102-1.20215-4.33057-.73242-1.28857-1.7002-2.29639-2.90332-3.02344-1.20215-.72607-2.53613-1.08936-4-1.08936-1.53418,0-2.92871.36328-4.18359,1.08936-1.25488.72705-2.2666,1.7251-3.0332,2.99609-.76758,1.27148-1.23828,2.72363-1.41211,4.35791h16.73438Z"/><path class="cls-1" d="m1420.46751,932.93934c-1.42969,0-2.57129-.42627-3.4248-1.28027-.85547-.85254-1.28125-1.96924-1.28125-3.3501v-18.79346h-4.18359v-3.81299h4.18359v-7.62646h3.92188v7.62646h6.01367v3.81299h-6.01367v17.97656c0,.54443.13086.95312.39258,1.22559.26074.27246.65332.40869,1.17578.40869h4.44531v3.81299h-5.22949Z"/><path class="cls-1" d="m1443.21653,932.93934v-38.13135h4.18359v38.13135h-4.18359Z"/><path class="cls-1" d="m1455.2429,932.93934v-27.23682h3.39941l.52344,2.99609h.26074c.69727-.90723,1.74316-1.72461,3.1377-2.45117,1.39453-.72607,2.96289-1.08984,4.70703-1.08984,1.9873,0,3.77344.48193,5.36035,1.44385,1.58594.9624,2.83203,2.31494,3.73926,4.05811.90625,1.74316,1.35938,3.72314,1.35938,5.9375v16.34229h-3.92188v-16.34229c0-1.41602-.31445-2.70459-.94141-3.86768-.62793-1.16162-1.48242-2.07812-2.5625-2.75049-1.08105-.67188-2.2666-1.00781-3.55664-1.00781-1.35938,0-2.62305.354-3.79102,1.06201s-2.0918,1.64355-2.77148,2.80566c-.67969,1.1626-1.01953,2.41553-1.01953,3.7583v16.34229h-3.92285Z"/><path class="cls-1" d="m1493.4177,933.48426c-2.0918,0-3.93066-.39062-5.5166-1.17139-1.58691-.78027-2.80664-1.81543-3.66113-3.10498-.85449-1.28857-1.28125-2.67773-1.28125-4.16699h3.92285c0,.83545.26074,1.60693.78418,2.31494.52246.70801,1.27246,1.27148,2.24902,1.68848.97559.41797,2.14355.62646,3.50293.62646,1.9873,0,3.53027-.38965,4.62891-1.1709,1.09766-.78076,1.64648-1.75195,1.64648-2.91455,0-1.08936-.35742-1.96973-1.07129-2.64209-.71484-.67139-1.83984-1.15234-3.37305-1.44336l-4.44531-.81689c-2.44043-.43604-4.27148-1.28027-5.49121-2.5332-1.2207-1.25293-1.83008-2.9502-1.83008-5.09326,0-1.48877.35742-2.83252,1.07227-4.03125.71387-1.19824,1.80371-2.14209,3.26855-2.83252,1.46387-.68945,3.24219-1.03516,5.33398-1.03516,2.02148,0,3.80859.39062,5.36035,1.17139,1.55078.78125,2.74512,1.82471,3.58203,3.13232.83691,1.30713,1.25488,2.68799,1.25488,4.13965h-3.92188c0-.83496-.25391-1.60693-.75879-2.31494-.50586-.70801-1.2373-1.27051-2.19629-1.68848-.95898-.41699-2.06543-.62646-3.32031-.62646-1.84863,0-3.26855.39062-4.2627,1.1709-.99316.78174-1.49023,1.75244-1.49023,2.91455,0,1.01709.32227,1.83398.96777,2.45117.64453.61816,1.7168,1.07178,3.21582,1.36182l4.44531.81738c2.61426.47217,4.53125,1.36182,5.75195,2.66895,1.2207,1.30762,1.83105,3.05078,1.83105,5.22949,0,1.48975-.38477,2.83252-1.15039,4.03125-.76758,1.19824-1.91797,2.14307-3.45215,2.83252s-3.39844,1.03516-5.5957,1.03516Z"/><path class="cls-1" d="m1509.1052,943.83387v-38.13135h3.39941l.52344,3.81299h.26074c1.08105-1.41602,2.30176-2.49609,3.66113-3.24121,1.35938-.74365,2.92871-1.1167,4.70605-1.1167,2.2666,0,4.31445.59961,6.14551,1.79785,1.83008,1.19824,3.26758,2.86914,4.31348,5.01172,1.0459,2.14307,1.56934,4.59424,1.56934,7.35352,0,2.76074-.52344,5.21191-1.56934,7.354-1.0459,2.14355-2.4834,3.81348-4.31348,5.01172-1.83105,1.19824-3.87891,1.79785-6.14551,1.79785-1.77734,0-3.34668-.37305-4.70605-1.1167-1.35938-.74414-2.58008-1.8252-3.66113-3.24121h-.26074v14.70752h-3.92285Zm12.29004-14.16309c1.49805,0,2.88379-.43555,4.15723-1.30713,1.27246-.87158,2.29199-2.08789,3.05957-3.6499.76562-1.56104,1.15039-3.3584,1.15039-5.39307,0-2.0332-.38477-3.83057-1.15039-5.39258-.76758-1.56104-1.78711-2.77832-3.05957-3.6499-1.27344-.87158-2.65918-1.30713-4.15723-1.30713-1.5,0-2.88574.43555-4.1582,1.30713s-2.29199,2.08887-3.05859,3.6499c-.76758,1.56201-1.15039,3.35938-1.15039,5.39258,0,2.03467.38281,3.83203,1.15039,5.39307.7666,1.56201,1.78613,2.77832,3.05859,3.6499s2.6582,1.30713,4.1582,1.30713Z"/><path class="cls-1" d="m1539.22727,899.98279v-4.63037h4.44531v4.63037h-4.44531Zm.20898,32.95654v-27.23682h3.92285v27.23682h-3.92285Z"/><path class="cls-1" d="m1550.67942,932.93934v-27.23682h3.39941l.52344,2.72363h.26074c.59277-.94385,1.2373-1.63428,1.93555-2.06982.69727-.43604,1.70801-.65381,3.0332-.65381h4.44434v3.81299h-3.92188c-1.8125,0-3.22461.51758-4.23535,1.55273-1.01172,1.03516-1.5166,2.51514-1.5166,4.43945v17.43164h-3.92285Z"/><path class="cls-1" d="m1578.91868,933.48426c-2.33594,0-4.46289-.59961-6.37988-1.79785-1.91797-1.19824-3.42578-2.86816-4.52344-5.01172-1.09863-2.14209-1.64746-4.59326-1.64746-7.354,0-2.75928.54883-5.21045,1.64746-7.35352,1.09766-2.14258,2.60547-3.81348,4.52344-5.01172,1.91699-1.19824,4.04395-1.79785,6.37988-1.79785,2.23047,0,4.27051.56348,6.11816,1.68896,1.84766,1.12598,3.29492,2.67871,4.34082,4.65723,1.0459,1.97998,1.56836,4.22168,1.56836,6.72754,0,.72705-.02539,1.36182-.07812,1.90674-.05176.54492-.11328.9082-.18262,1.08936h-20.39551c.17383,1.6709.66211,3.15088,1.46484,4.43945.80078,1.28955,1.83008,2.27979,3.08496,2.96924,1.25488.68994,2.61523,1.03467,4.0791,1.03467,1.56836,0,2.97168-.38135,4.20996-1.14404,1.23633-.76221,2.1875-1.83301,2.84961-3.21387h4.18359c-.62695,1.74316-1.47266,3.22363-2.53613,4.43994-1.06348,1.2168-2.32715,2.14307-3.79102,2.77783-1.46484.63525-3.10352.95361-4.91602.95361Zm8.10547-16.06982c-.07031-1.59766-.4707-3.04102-1.20215-4.33057-.73242-1.28857-1.7002-2.29639-2.90332-3.02344-1.20215-.72607-2.53613-1.08936-4-1.08936-1.53418,0-2.92871.36328-4.18359,1.08936-1.25488.72705-2.2666,1.7251-3.0332,2.99609-.76758,1.27148-1.23828,2.72363-1.41211,4.35791h16.73438Z"/><path class="cls-1" d="m1607.15696,933.48426c-2.2666,0-4.31348-.59961-6.14453-1.79785-1.83008-1.19824-3.26855-2.86816-4.31445-5.01172-1.0459-2.14209-1.56836-4.59326-1.56836-7.354,0-2.75928.52246-5.21045,1.56836-7.35352,1.0459-2.14258,2.48438-3.81348,4.31445-5.01172,1.83105-1.19824,3.87793-1.79785,6.14453-1.79785,1.77832,0,3.34766.37305,4.70703,1.1167,1.35938.74512,2.5791,1.8252,3.66016,3.24121h.26172v-14.70752h3.92188v38.13135h-3.39844l-.52344-3.81299h-.26172c-1.08105,1.41602-2.30078,2.49707-3.66016,3.24121-1.35938.74365-2.92871,1.1167-4.70703,1.1167Zm.26172-3.81348c1.49902,0,2.88477-.43555,4.15723-1.30713s2.29199-2.08789,3.05957-3.6499c.7666-1.56104,1.15039-3.3584,1.15039-5.39307,0-2.0332-.38379-3.83057-1.15039-5.39258-.76758-1.56104-1.78711-2.77832-3.05957-3.6499s-2.6582-1.30713-4.15723-1.30713-2.88477.43555-4.15723,1.30713c-1.27344.87158-2.29297,2.08887-3.05957,3.6499-.7666,1.56201-1.15039,3.35938-1.15039,5.39258,0,2.03467.38379,3.83203,1.15039,5.39307.7666,1.56201,1.78613,2.77832,3.05957,3.6499,1.27246.87158,2.6582,1.30713,4.15723,1.30713Z"/><path class="cls-1" d="m1640.10325,932.93934v-23.42383h-4.18359v-3.81299h4.18359v-5.1748c0-1.37988.42578-2.49658,1.28125-3.3501.85352-.85303,1.99512-1.28027,3.4248-1.28027h4.70703v3.81299h-3.92285c-.52246,0-.91504.13623-1.17578.40869-.26172.27246-.39258.68066-.39258,1.22559v4.35791h5.49121v3.81299h-5.49121v23.42383h-3.92188Z"/><path class="cls-1" d="m1664.42063,933.48426c-2.33594,0-4.46289-.59961-6.37988-1.79785-1.91797-1.19824-3.42578-2.86816-4.52344-5.01172-1.09863-2.14209-1.64746-4.59326-1.64746-7.354,0-2.75928.54883-5.21045,1.64746-7.35352,1.09766-2.14258,2.60547-3.81348,4.52344-5.01172,1.91699-1.19824,4.04395-1.79785,6.37988-1.79785,2.33496,0,4.46191.59961,6.37988,1.79785,1.91699,1.19824,3.42578,2.86914,4.52344,5.01172,1.09863,2.14307,1.64746,4.59424,1.64746,7.35352,0,2.76074-.54883,5.21191-1.64746,7.354-1.09766,2.14355-2.60645,3.81348-4.52344,5.01172-1.91797,1.19824-4.04492,1.79785-6.37988,1.79785Zm0-3.81348c1.56836,0,3.01465-.42627,4.34082-1.27979,1.32422-.85303,2.37012-2.07031,3.1377-3.6499.76562-1.57959,1.15039-3.38574,1.15039-5.42041,0-2.0332-.38477-3.84033-1.15039-5.41992-.76758-1.57959-1.81348-2.7959-3.1377-3.6499-1.32617-.85254-2.77246-1.27979-4.34082-1.27979-1.56934,0-3.01562.42725-4.34082,1.27979-1.3252.854-2.37109,2.07031-3.1377,3.6499s-1.15039,3.38672-1.15039,5.41992c0,2.03467.38379,3.84082,1.15039,5.42041s1.8125,2.79688,3.1377,3.6499c1.3252.85352,2.77148,1.27979,4.34082,1.27979Z"/><path class="cls-1" d="m1682.72239,932.93934v-27.23682h3.39941l.52344,2.72363h.26074c.59277-.94385,1.2373-1.63428,1.93555-2.06982.69727-.43604,1.70801-.65381,3.0332-.65381h4.44434v3.81299h-3.92188c-1.8125,0-3.22461.51758-4.23535,1.55273-1.01172,1.03516-1.5166,2.51514-1.5166,4.43945v17.43164h-3.92285Z"/><path class="cls-1" d="m1706.78001,932.93934l13.8584-38.13135h6.27539l13.85742,38.13135h-4.44434l-12.02832-33.50146h-1.0459l-12.02734,33.50146h-4.44531Zm7.32129-9.80518v-4.08545h19.61035v4.08545h-19.61035Z"/><path class="cls-1" d="m1754.89036,933.48426c-1.98633,0-3.77344-.48193-5.35938-1.44385-1.58691-.96191-2.83301-2.31494-3.73926-4.05811-.90723-1.74316-1.36035-3.72217-1.36035-5.9375v-16.34229h3.92285v16.34229c0,1.41602.31348,2.70557.94141,3.86719.62695,1.16309,1.48145,2.07959,2.5625,2.75098,1.08008.67236,2.26562,1.00781,3.55566,1.00781,1.35938,0,2.62305-.354,3.79102-1.06201s2.0918-1.64258,2.77148-2.80566c.68066-1.16162,1.02051-2.41455,1.02051-3.7583v-16.34229h3.92188v27.23682h-3.39941l-.52246-2.99609h-.26172c-.73242.94482-1.78711,1.77051-3.16406,2.47852-1.37793.70801-2.9375,1.0625-4.68066,1.0625Z"/><path class="cls-1" d="m1780.77512,932.93934c-1.42969,0-2.57129-.42627-3.4248-1.28027-.85547-.85254-1.28125-1.96924-1.28125-3.3501v-18.79346h-4.18359v-3.81299h4.18359v-7.62646h3.92188v7.62646h6.01367v3.81299h-6.01367v17.97656c0,.54443.13086.95312.39258,1.22559.26074.27246.65332.40869,1.17578.40869h4.44531v3.81299h-5.22949Z"/><path class="cls-1" d="m1801.95579,933.48426c-2.33594,0-4.46289-.59961-6.37988-1.79785-1.91797-1.19824-3.42578-2.86816-4.52344-5.01172-1.09863-2.14209-1.64746-4.59326-1.64746-7.354,0-2.75928.54883-5.21045,1.64746-7.35352,1.09766-2.14258,2.60547-3.81348,4.52344-5.01172,1.91699-1.19824,4.04395-1.79785,6.37988-1.79785,2.33496,0,4.46191.59961,6.37988,1.79785,1.91699,1.19824,3.42578,2.86914,4.52344,5.01172,1.09863,2.14307,1.64746,4.59424,1.64746,7.35352,0,2.76074-.54883,5.21191-1.64746,7.354-1.09766,2.14355-2.60645,3.81348-4.52344,5.01172-1.91797,1.19824-4.04492,1.79785-6.37988,1.79785Zm0-3.81348c1.56836,0,3.01465-.42627,4.34082-1.27979,1.32422-.85303,2.37012-2.07031,3.1377-3.6499.76562-1.57959,1.15039-3.38574,1.15039-5.42041,0-2.0332-.38477-3.84033-1.15039-5.41992-.76758-1.57959-1.81348-2.7959-3.1377-3.6499-1.32617-.85254-2.77246-1.27979-4.34082-1.27979-1.56934,0-3.01562.42725-4.34082,1.27979-1.3252.854-2.37109,2.07031-3.1377,3.6499s-1.15039,3.38672-1.15039,5.41992c0,2.03467.38379,3.84082,1.15039,5.42041s1.8125,2.79688,3.1377,3.6499c1.3252.85352,2.77148,1.27979,4.34082,1.27979Z"/><path class="cls-1" d="m1820.25852,932.93934v-27.23682h3.39941l.52344,2.99609h.26074c.69727-.90723,1.65625-1.72461,2.87695-2.45117,1.21973-.72607,2.52734-1.08984,3.92188-1.08984,1.84766,0,3.44238.47266,4.78516,1.4165,1.3418.94482,2.27441,2.01562,2.79785,3.21387h.26074c.73242-1.19824,1.87402-2.26904,3.42578-3.21387,1.55078-.94385,3.28516-1.4165,5.20312-1.4165,1.8125,0,3.43359.45459,4.86328,1.36182,1.42969.9082,2.54492,2.16113,3.34668,3.75879.80176,1.59863,1.20312,3.43213,1.20312,5.50195v17.15918h-3.92188v-17.15918c0-1.34326-.24414-2.5332-.73242-3.56787-.48828-1.03516-1.18555-1.8335-2.0918-2.39697-.90723-.5625-1.96973-.84424-3.18945-.84424-1.11621,0-2.17969.29932-3.19043.89844-1.01172.59961-1.82227,1.42578-2.43164,2.479-.61035,1.05371-.91504,2.19727-.91504,3.43164v17.15918h-3.92188v-17.15918c0-1.34326-.24512-2.5332-.73242-3.56787-.48828-1.03516-1.18555-1.8335-2.0918-2.39697-.90723-.5625-1.96973-.84424-3.19043-.84424-1.11621,0-2.17871.29932-3.18945.89844-1.01172.59961-1.82227,1.42578-2.43164,2.479-.61035,1.05371-.91504,2.19727-.91504,3.43164v17.15918h-3.92285Z"/><path class="cls-1" d="m1872.55247,933.48426c-1.81348,0-3.4082-.36377-4.78516-1.08984-1.37793-.72607-2.4502-1.72412-3.21582-2.99609-.76758-1.27051-1.15137-2.72363-1.15137-4.35742,0-1.7793.375-3.31396,1.125-4.60303.74902-1.28906,1.89941-2.29688,3.45117-3.02344,1.55078-.72607,3.51172-1.08936,5.88281-1.08936h7.06055v-.81738c0-2.0332-.55859-3.63086-1.67383-4.79346-1.11621-1.16211-2.64941-1.74316-4.60156-1.74316-1.25586,0-2.3623.20947-3.32129.62646-.95898.41797-1.70801.98047-2.24805,1.68848-.54102.70801-.86328,1.47998-.96777,2.31494h-3.92188c.10449-1.48828.5752-2.87744,1.41211-4.16699.83594-1.28857,2.03027-2.32373,3.58203-3.10498,1.55078-.78076,3.37305-1.17139,5.46484-1.17139s3.9043.40869,5.43848,1.22607c1.5332.81689,2.70996,2.00684,3.5293,3.56787.81934,1.56201,1.22949,3.41406,1.22949,5.55615v17.43164h-3.39941l-.52246-3.26855h-.26172c-.59375.98047-1.61328,1.86182-3.05957,2.64209-1.44727.78076-3.12891,1.17139-5.0459,1.17139Zm0-3.81348c1.70703,0,3.19824-.34473,4.4707-1.03467,1.27246-.68945,2.24023-1.66992,2.90234-2.94189.66211-1.27051.99414-2.75928.99414-4.4668v-1.08936h-7.06055c-2.23145,0-3.87793.45459-4.94141,1.36182-1.06348.9082-1.59473,2.08887-1.59473,3.54102,0,1.38037.45215,2.49707,1.35938,3.3501.90625.85352,2.19629,1.27979,3.87012,1.27979Z"/><path class="cls-1" d="m1898.17649,932.93934c-1.42969,0-2.57129-.42627-3.4248-1.28027-.85547-.85254-1.28125-1.96924-1.28125-3.3501v-18.79346h-4.18359v-3.81299h4.18359v-7.62646h3.92188v7.62646h6.01367v3.81299h-6.01367v17.97656c0,.54443.13086.95312.39258,1.22559.26074.27246.65332.40869,1.17578.40869h4.44531v3.81299h-5.22949Z"/><path class="cls-1" d="m1909.21067,899.98279v-4.63037h4.44531v4.63037h-4.44531Zm.20898,32.95654v-27.23682h3.92285v27.23682h-3.92285Z"/><path class="cls-1" d="m1931.64524,933.48426c-2.33594,0-4.46289-.59961-6.37988-1.79785-1.91797-1.19824-3.42578-2.86816-4.52344-5.01172-1.09863-2.14209-1.64746-4.59326-1.64746-7.354,0-2.75928.54883-5.21045,1.64746-7.35352,1.09766-2.14258,2.60547-3.81348,4.52344-5.01172,1.91699-1.19824,4.04395-1.79785,6.37988-1.79785,2.33496,0,4.46191.59961,6.37988,1.79785,1.91699,1.19824,3.42578,2.86914,4.52344,5.01172,1.09863,2.14307,1.64746,4.59424,1.64746,7.35352,0,2.76074-.54883,5.21191-1.64746,7.354-1.09766,2.14355-2.60645,3.81348-4.52344,5.01172-1.91797,1.19824-4.04492,1.79785-6.37988,1.79785Zm0-3.81348c1.56836,0,3.01465-.42627,4.34082-1.27979,1.32422-.85303,2.37012-2.07031,3.1377-3.6499.76562-1.57959,1.15039-3.38574,1.15039-5.42041,0-2.0332-.38477-3.84033-1.15039-5.41992-.76758-1.57959-1.81348-2.7959-3.1377-3.6499-1.32617-.85254-2.77246-1.27979-4.34082-1.27979-1.56934,0-3.01562.42725-4.34082,1.27979-1.3252.854-2.37109,2.07031-3.1377,3.6499s-1.15039,3.38672-1.15039,5.41992c0,2.03467.38379,3.84082,1.15039,5.42041s1.8125,2.79688,3.1377,3.6499c1.3252.85352,2.77148,1.27979,4.34082,1.27979Z"/><path class="cls-1" d="m1949.94798,932.93934v-27.23682h3.39941l.52344,2.99609h.26074c.69727-.90723,1.74316-1.72461,3.1377-2.45117,1.39453-.72607,2.96289-1.08984,4.70703-1.08984,1.9873,0,3.77344.48193,5.36035,1.44385,1.58594.9624,2.83203,2.31494,3.73926,4.05811.90625,1.74316,1.35938,3.72314,1.35938,5.9375v16.34229h-3.92188v-16.34229c0-1.41602-.31445-2.70459-.94141-3.86768-.62793-1.16162-1.48242-2.07812-2.5625-2.75049-1.08105-.67188-2.2666-1.00781-3.55664-1.00781-1.35938,0-2.62305.354-3.79102,1.06201s-2.0918,1.64355-2.77148,2.80566c-.67969,1.1626-1.01953,2.41553-1.01953,3.7583v16.34229h-3.92285Z"/><path class="cls-4" d="m1544.03707,881.97386c-12.20964,0-22.14171-9.93207-22.14171-22.14033,0-12.20964,9.93207-22.14171,22.14171-22.14171s22.14171,9.93207,22.14171,22.14171c0,12.20826-9.93207,22.14033-22.14171,22.14033Zm0-37.2104c-8.30919,0-15.07007,6.76088-15.07007,15.07007s6.76088,15.06869,15.07007,15.06869,15.07007-6.7595,15.07007-15.06869-6.76088-15.07007-15.07007-15.07007Z"/><path class="cls-2" d="m1528.23263,859.9462c.04209,8.42922,7.04838,15.22765,15.64902,15.18471,5.07947-.02536,9.57779-2.43233,12.40205-6.13454-2.32228,2.1764-5.46309,3.52233-8.92946,3.53964-7.19062.0359-13.04832-5.648-13.0835-12.69532-.03519-7.04734,5.76546-12.78944,12.95608-12.82534,3.2617-.01628,6.24668,1.14706,8.54082,3.07795-2.87326-3.37376-7.20385-5.51144-12.03839-5.4873-8.60063.04294-15.5387,6.91099-15.49661,15.34021Z"/><path class="cls-3" d="m1561.54903,872.25916c-4.31178,5.39187-11.15595,8.87931-18.8659,8.87931-13.04709,0-23.62384-9.98029-23.62384-22.29164s10.57675-22.29162,23.62384-22.29162c5.29626,0,10.18539,1.64468,14.12527,4.42219.00551-.02187.01068-.04373.01568-.06559-4.39627-3.55069-10.08936-5.69409-16.30988-5.69409-13.92121,0-25.20657,10.72882-25.20657,23.96349s11.28536,23.96351,25.20657,23.96351c8.82934,0,16.59503-4.31797,21.097-10.85162-.02074-.01145-.04145-.0228-.06217-.03394Z"/><path class="cls-9" d="m1543.86568,878.59941c-11.42505,0-20.68687-9.26184-20.68687-20.68689s9.26183-20.68686,20.68687-20.68686c7.23363,0,13.5989,3.71361,17.29659,9.33743-3.95644-6.96544-11.44117-11.6647-20.02432-11.6647-12.71036,0-23.01415,10.30378-23.01415,23.01414s10.30379,23.01416,23.01415,23.01416c8.58312,0,16.06784-4.69924,20.02427-11.66466-3.69768,5.62379-10.06293,9.33738-17.29655,9.33738Z"/><path class="cls-8" d="m1546.46391,875.56101c-10.00902,0-18.12294-8.11392-18.12294-18.12292s8.11392-18.12295,18.12294-18.12295c7.64984,0,14.19228,4.7399,16.85164,11.44288-2.91161-7.89762-10.50435-13.52974-19.41295-13.52974-11.42359,0-20.68426,9.26065-20.68426,20.68425s9.26067,20.68428,20.68426,20.68428,20.68426-9.26068,20.68426-20.68428c0-.07929-.00213-.15805-.00301-.23714-.12723,9.89948-8.19026,17.88563-18.11994,17.88563Z"/></g></g><path class="cls-5" d="m626.16681,0c-9.81296,0-17.76056,7.95369-17.76056,17.76056s7.9476,17.76056,17.76056,17.76056c87.44387,0,158.58659,71.14069,158.58659,158.58557v297.65787c0,9.80789,7.9476,17.76056,17.76056,17.76056,9.80992,0,17.76056-7.95267,17.76056-17.76056V194.1067C820.27452,87.07749,733.195,0,626.16681,0Z"/><path class="cls-5" d="m826.38822,0c-9.81296,0-17.76056,7.95369-17.76056,17.76056s7.9476,17.76056,17.76056,17.76056c87.44488,0,158.58659,71.14069,158.58659,158.58557v297.65787c0,9.80789,7.94963,17.76056,17.76056,17.76056,9.81296,0,17.76056-7.95267,17.76056-17.76056V194.1067C1020.49593,87.07749,933.4164,0,826.38822,0Z"/><path class="cls-7" d="m653.1871,330.4662v423.58814c0,182.155-146.52054,330.43677-326.50988,330.43677-118.0006,0-227.12127-64.63564-285.01158-168.67484-8.02609-14.5171-2.90135-33.00911,11.43974-41.13177,14.34621-8.29548,32.62008-3.11081,40.64617,11.40629,47.3027,85.20153,136.6143,137.91242,232.92567,137.91242,147.03284,0,266.74112-121.14863,266.74112-269.94887v-423.58814c0-148.80024-119.70828-269.94887-266.74112-269.94887S60.11029,181.32032,59.76875,330.12055v.34565c0,16.76379-13.3216,30.24395-29.88438,30.24395-16.39542,0-29.54284-13.13452-29.88438-29.72548v-.51847C0,148.3112,146.51712.02943,326.67723.02943,506.66656.02943,653.1871,148.3112,653.1871,330.4662Z"/></g></svg>