<?xml version="1.0" encoding="UTF-8"?><svg id="a" xmlns="http://www.w3.org/2000/svg" viewBox="0 0 937.53 990"><defs><style>.b{fill:#00cc13;opacity:.15;}.c{fill:#1ac2c2;}.d{fill:#fd601d;}.e{fill:#ffb935;}.f{fill:#022e35;}</style></defs><g><path class="c" d="M656.64,740.54c-.74-.66-74.09-65.8-119.88-96.97-2.51-1.71-5.92-1.06-7.62,1.45-1.71,2.51-1.06,5.92,1.45,7.62,45.2,30.77,118.03,95.45,118.76,96.1,1.05,.93,2.35,1.39,3.65,1.39,1.51,0,3.02-.62,4.1-1.84,2.02-2.27,1.81-5.73-.45-7.75Z"/><path class="c" d="M697.09,742.31c-1.37,0-2.73-.51-3.8-1.53-2.55-2.44-62.27-60.42-55.91-113.15,.36-3.01,3.12-5.15,6.1-4.79,3.01,.36,5.16,3.1,4.79,6.1-5.7,47.35,52.03,103.36,52.62,103.92,2.19,2.1,2.26,5.57,.16,7.76-1.08,1.12-2.52,1.69-3.96,1.69Z"/><path class="c" d="M775.38,653.61c-42.88,0-92.36-22.46-95.37-23.85-2.75-1.27-3.96-4.52-2.69-7.28,1.27-2.75,4.52-3.96,7.28-2.69,1.01,.46,100.85,45.79,132.52,7.87,32.08-38.41,28.05-86.65,19.03-120.37-6.61-24.7-20.35-76.05-119.29-55.14-6.39,2.57-64.56,24.75-106.12-2.03-2.55-1.64-3.28-5.04-1.64-7.58,1.64-2.55,5.04-3.28,7.58-1.64,38.29,24.67,95.86,1.16,96.44,.92l.47-.19,.5-.11c97.12-20.68,121.91,22.77,132.66,62.94,13.9,51.94,6.56,96.98-21.21,130.24-11.74,14.06-30.24,18.91-50.16,18.91Z"/><path class="c" d="M838.09,500.14c-.42,0-.84-.05-1.26-.15-2.95-.69-4.78-3.65-4.09-6.6,5.69-24.21,2.95-43.17-8.12-56.37-20.36-24.27-62.47-22.18-62.89-22.16-3.05,.15-5.62-2.15-5.79-5.17-.17-3.03,2.14-5.62,5.17-5.79,1.95-.12,48.06-2.37,71.92,26.06,13.42,16,16.92,38.18,10.4,65.94-.59,2.53-2.85,4.23-5.34,4.23Z"/><path class="c" d="M797.12,419.48c-2.35,0-4.52-1.52-5.24-3.87-13.39-43.53-37-74.15-70.18-91-59.15-30.06-129.74-6.31-130.45-6.07-2.87,.99-5.99-.53-6.98-3.4-.99-2.86,.53-5.99,3.39-6.98,3.06-1.06,75.57-25.53,138.93,6.62,35.96,18.25,61.46,51.08,75.77,97.6,.89,2.9-.73,5.97-3.63,6.86-.54,.17-1.08,.24-1.62,.24Z"/><path class="c" d="M630.63,309.33c-1.82,0-3.6-.9-4.64-2.56-16.22-25.67-35.74-40.5-58.03-44.1-35.56-5.74-69.14,18.03-81.93,28.52-2.35,1.92-5.8,1.58-7.72-.76-1.92-2.34-1.58-5.8,.76-7.72,13.94-11.43,50.67-37.33,90.64-30.87,25.53,4.12,47.58,20.64,65.56,49.08,1.62,2.56,.85,5.95-1.71,7.57-.91,.58-1.92,.85-2.93,.85Z"/><path class="c" d="M332.46,364.4c-.47,0-.95-.06-1.42-.19-2.93-.78-4.66-3.79-3.88-6.71,.8-3,20.37-73.65,86.42-88.38,67.53-15.06,87.57,39.1,87.77,39.65,1.01,2.86-.48,5.99-3.34,7.01-2.86,1.01-6-.48-7.01-3.34-.67-1.85-17.19-45.51-75.03-32.6-59.47,13.26-78.03,79.83-78.21,80.5-.66,2.45-2.88,4.07-5.3,4.07Z"/><path class="c" d="M665.84,463c-2.58,0-4.87-1.82-5.38-4.44-.3-1.56-7.1-38.41,19.23-66.21,2.08-2.2,5.56-2.3,7.76-.21,2.2,2.08,2.29,5.56,.21,7.76-22.49,23.74-16.49,56.24-16.43,56.57,.58,2.97-1.36,5.86-4.34,6.43-.35,.07-.71,.1-1.05,.1Z"/><path class="c" d="M334.5,610.45c-41.88,0-75.35-10.84-98.83-32.36-32.46-29.76-44.5-78.54-33.92-137.36,10.36-57.56,47.94-84.34,77.63-96.67,31.85-13.22,60.89-12.97,62.11-12.96,3.03,.04,5.45,2.53,5.41,5.56-.04,3.03-2.53,5.51-5.56,5.41-.5-.01-28.42-.15-58.09,12.26-39.32,16.44-63.11,46.16-70.7,88.34-9.9,54.99,.95,100.21,30.53,127.33,35.81,32.83,98.16,38.4,180.31,16.11,2.92-.79,5.94,.93,6.73,3.86,.79,2.93-.93,5.94-3.86,6.73-33.84,9.18-64.58,13.75-91.77,13.75Z"/><path class="c" d="M411.58,438.65c-.29,0-.59-.02-.88-.07-17.93-2.89-30.15-10.43-36.34-22.39-11.02-21.33,2-48.33,2.56-49.47,1.34-2.72,4.62-3.84,7.35-2.5,2.72,1.34,3.84,4.62,2.51,7.34h0c-.11,.23-11.15,23.24-2.65,39.63,4.51,8.69,14.03,14.26,28.32,16.56,2.99,.48,5.03,3.3,4.54,6.29-.43,2.7-2.77,4.61-5.41,4.61Z"/><path class="c" d="M292.51,495.81c-16.07,0-28.65-4.43-37.49-13.25-16.16-16.11-13.2-40.55-13.07-41.58,.39-3.01,3.15-5.13,6.15-4.74,3,.39,5.12,3.13,4.74,6.13-.03,.28-2.33,20.25,9.98,32.46,8.67,8.6,22.78,11.67,41.93,9.13,3-.38,5.76,1.71,6.16,4.72,.4,3-1.71,5.76-4.72,6.16-4.81,.64-9.38,.96-13.69,.96Z"/><path class="c" d="M311.88,547.49c-2.46,0-4.69-1.66-5.32-4.15-14.29-56.92,4.83-93.25,23.39-113.7,20.04-22.09,43.26-30.58,44.23-30.93,2.85-1.03,5.99,.46,7.02,3.32,1.02,2.85-.46,5.99-3.31,7.02-.34,.12-21.98,8.15-40.11,28.3-24.13,26.82-31.05,61.58-20.57,103.32,.74,2.94-1.05,5.92-3.99,6.66-.45,.11-.9,.17-1.34,.17Z"/><path class="c" d="M525,652.5c-3.77,0-7.58-.21-11.42-.64-27.12-3.01-55.88-17.11-83.19-40.77l-.51-.51c-21.39-24.11-30.3-49.46-26.51-75.36,7.58-51.69,62.88-86.45,65.23-87.9l1.4-.87,74.82,2.27c3.03,.09,5.41,2.62,5.32,5.65-.09,3.03-2.64,5.41-5.65,5.32l-71.45-2.16c-8.31,5.54-52.62,36.91-58.81,79.34-3.27,22.43,4.68,44.7,23.63,66.17,33.43,28.87,98.3,67.5,159.09,4.22,31.18-32.45,57.82-50.42,83.84-56.55,29.21-6.88,58.05,1.27,88.14,24.94,2.38,1.87,2.79,5.33,.92,7.71-1.88,2.38-5.33,2.79-7.71,.92-27.3-21.47-53.09-28.96-78.84-22.89-23.87,5.63-48.8,22.62-78.45,53.47-24.03,25.01-50.85,37.64-79.86,37.64Z"/><path class="c" d="M471.48,457.47c-2.89,0-5.31-2.26-5.47-5.18l-2.74-48.11c-.17-3.03,2.14-5.62,5.17-5.79,3.01-.15,5.62,2.14,5.79,5.17l2.74,48.11c.17,3.03-2.14,5.62-5.17,5.79-.11,0-.21,0-.32,0Z"/><path class="c" d="M482,582.25c-.56,0-1.12-.09-1.68-.26-2.89-.93-4.47-4.02-3.55-6.9,.51-1.6,12.94-39.43,42.59-54.01,30.05-14.78,57.77-.54,58.94,.07l.72,.45c1.18,.87,29.5,21.25,58.32,3.4,2.58-1.6,5.96-.8,7.55,1.77,1.6,2.58,.8,5.96-1.77,7.55-33.53,20.78-65.93-.58-70.21-3.61-2.78-1.33-25.25-11.32-48.7,.21-25.51,12.55-36.87,47.17-36.98,47.51-.75,2.33-2.9,3.81-5.22,3.81Z"/><path class="c" d="M548.76,525.39c-2.93,0-5.37-2.32-5.48-5.28-.99-25.82,23.64-54.16,24.68-55.35,2-2.28,5.46-2.5,7.74-.5,2.28,2,2.5,5.46,.51,7.74-.23,.26-22.78,26.26-21.96,47.7,.12,3.03-2.25,5.58-5.27,5.69-.07,0-.14,0-.21,0Z"/><path class="c" d="M558.98,417.31c-2.2,0-4.27-1.33-5.11-3.5-10.57-27.14-25.85-45.19-45.41-53.64-23.55-10.17-46.46-3.15-51.12-1.51l-27.25,25.18c-2.23,2.06-5.7,1.92-7.75-.31-2.06-2.23-1.92-5.7,.31-7.75l28.77-26.59,.92-.38c1.2-.49,29.77-11.89,60.32,1.22,22.43,9.63,39.74,29.75,51.45,59.8,1.1,2.82-.3,6.01-3.12,7.11-.65,.25-1.33,.38-1.99,.38Z"/><path class="c" d="M538.35,381.51c-1.45,0-2.9-.57-3.98-1.71-2.08-2.2-1.99-5.67,.21-7.76,1.3-1.23,32.31-30.01,80.03-22.03,2.99,.5,5.01,3.33,4.51,6.32-.5,2.99-3.32,5.01-6.32,4.51-42.4-7.1-70.4,18.91-70.67,19.17-1.06,1.01-2.42,1.5-3.77,1.5Z"/><path class="c" d="M447.91,365.4c-1.65,0-3.29-.74-4.36-2.16-19.75-25.85-17.87-53.13-17.78-54.28,.24-3.02,2.88-5.28,5.9-5.04,3.02,.24,5.27,2.87,5.04,5.88-.02,.26-1.55,24.4,15.55,46.78,1.84,2.41,1.38,5.85-1.03,7.69-.99,.76-2.17,1.13-3.33,1.13Z"/></g><g><path class="f" d="M609.87,733.48v141.04c0,26.32-21.41,47.73-47.73,47.73H195.46c-26.32,0-47.73-21.41-47.73-47.73V126.41c0-26.32,21.41-47.73,47.73-47.73h366.68c26.32,0,47.73,21.41,47.73,47.73v131.09c-.98-2.6-13.02-8.19-13.02-8.19V126.41c0-19.14-15.57-34.72-34.71-34.72H195.46c-19.14,0-34.71,15.57-34.71,34.72V874.52c0,19.14,15.57,34.72,34.71,34.72h366.68c19.14,0,34.71-15.57,34.71-34.72v-153.74l13.02,9.93v2.77Z"/><rect class="f" x="154.23" y="174.15" width="449.12" height="13.02"/><rect class="f" x="154.48" y="755.62" width="449.12" height="13.02"/></g><g><path class="c" d="M379.04,882.3c-22.48,0-40.76-18.28-40.76-40.76s18.28-40.76,40.76-40.76,40.76,18.28,40.76,40.76-18.28,40.76-40.76,40.76Zm0-68.5c-15.3,0-27.74,12.45-27.74,27.74s12.45,27.74,27.74,27.74,27.74-12.44,27.74-27.74-12.45-27.74-27.74-27.74Z"/><path class="b" d="M352.07,843.14c.06,12.45,10.21,22.5,22.66,22.44,7.35-.04,13.87-3.59,17.96-9.06-3.36,3.22-7.91,5.2-12.93,5.23-10.41,.05-18.89-8.35-18.95-18.76-.05-10.41,8.35-18.89,18.76-18.95,4.72-.02,9.05,1.7,12.37,4.55-4.16-4.98-10.43-8.14-17.43-8.11-12.45,.06-22.5,10.21-22.44,22.66Z"/><path class="c" d="M412.28,868.21c-8.03,10.56-20.78,17.4-35.14,17.4-24.3,0-44-19.55-44-43.67s19.7-43.67,44-43.67c9.86,0,18.97,3.22,26.31,8.66,.01-.04,.02-.09,.03-.13-8.19-6.96-18.79-11.16-30.38-11.16-25.93,0-46.95,21.02-46.95,46.95s21.02,46.95,46.95,46.95c16.44,0,30.91-8.46,39.29-21.26-.04-.02-.08-.04-.12-.07Z"/><path class="e" d="M378.73,876.09c-21.03,0-38.08-17.05-38.08-38.08s17.05-38.08,38.08-38.08c13.32,0,25.03,6.84,31.84,17.19-7.28-12.82-21.06-21.47-36.86-21.47-23.4,0-42.37,18.97-42.37,42.37s18.97,42.37,42.37,42.37c15.8,0,29.58-8.65,36.86-21.47-6.81,10.35-18.52,17.19-31.84,17.19Z"/><path class="d" d="M383.51,870.5c-18.43,0-33.36-14.94-33.36-33.36s14.94-33.36,33.36-33.36c14.08,0,26.13,8.73,31.02,21.07-5.36-14.54-19.34-24.91-35.74-24.91-21.03,0-38.08,17.05-38.08,38.08s17.05,38.08,38.08,38.08,38.08-17.05,38.08-38.08c0-.15,0-.29,0-.44-.23,18.22-15.08,32.93-33.36,32.93Z"/></g></svg>