<?xml version="1.0" encoding="UTF-8"?><svg id="a" xmlns="http://www.w3.org/2000/svg" viewBox="0 0 1893.45 500.4"><defs><style>.b{fill:#00cc13;opacity:.15;}.c{fill:#1ac2c2;}.d{fill:#043e44;}.e{fill:#003c49;}.f{fill:#043f42;}.g{fill:#fd601d;}.h{fill:#ffb935;}</style></defs><g><g><path class="d" d="M449.12,325.29h130.68c1.71,0,3.25,.68,4.6,2.02,1.35,1.35,2.02,3.01,2.02,4.97v11.78c0,1.72-.68,3.26-2.02,4.6-1.35,1.35-2.89,2.03-4.6,2.03h-152.4c-1.72,0-3.25-.67-4.6-2.03-1.35-1.34-2.02-2.88-2.02-4.6V167.73c0-1.96,.67-3.62,2.02-4.97,1.35-1.35,2.88-2.02,4.6-2.02h150.56c1.96,0,3.62,.68,4.97,2.02,1.35,1.35,2.02,3.01,2.02,4.97v11.78c0,1.72-.68,3.25-2.02,4.6-1.35,1.35-3.01,2.03-4.97,2.03h-128.84v139.15Zm20.25-79.51c0-1.96,.61-3.56,1.84-4.79,1.23-1.23,2.82-1.84,4.79-1.84h92.4c1.71,0,3.25,.62,4.6,1.84,1.35,1.23,2.02,2.82,2.02,4.79v11.41c0,1.97-.68,3.56-2.02,4.79-1.35,1.23-2.89,1.84-4.6,1.84h-92.4c-1.97,0-3.56-.61-4.79-1.84-1.23-1.23-1.84-2.82-1.84-4.79v-11.41Z"/><path class="d" d="M809.5,167.73c0-1.96,.69-3.62,2.05-4.97,1.37-1.35,3.05-2.02,5.04-2.02h12.32c1.99,0,3.67,.68,5.04,2.02,1.37,1.35,2.05,3.01,2.05,4.97v176.33c0,1.97-.68,3.56-2.03,4.79-1.35,1.23-3.01,1.84-4.98,1.84h-13.65c-1.73,0-3.75-.55-6.09-1.66-2.34-1.1-4.25-2.51-5.72-4.23l-154.91-178.17c-1.23-1.23-1.84-2.58-1.84-4.05,0-1.23,.86-1.84,2.58-1.84h22.46c1.71,0,3.55,.98,5.52,2.94l132.15,152.77V167.73Zm-136.57,176.33c0,1.97-.61,3.56-1.84,4.79s-2.82,1.84-4.79,1.84h-12.52c-1.97,0-3.56-.61-4.79-1.84-1.23-1.23-1.84-2.82-1.84-4.79V199.39c0-1.47,.49-2.21,1.47-2.21s2.45,1.1,4.42,3.31l17.3,20.25c1.71,2.21,2.58,4.17,2.58,5.89v117.43Z"/><path class="d" d="M1085.55,160.74c5.65,0,10.51,2.02,14.57,6.07,4.06,4.05,6.09,8.9,6.09,14.54v25.77c0,1.97-.69,3.62-2.05,4.97-1.37,1.35-3.04,2.02-5.03,2.02h-15.28c-4.48,0-6.71-2.33-6.71-6.99v-20.98h-133.63v157.55c0,1.97-.62,3.62-1.84,4.97-1.23,1.35-2.82,2.03-4.79,2.03h-15.09c-1.97,0-3.62-.67-4.97-2.03-1.35-1.34-2.02-3-2.02-4.97V167.73c0-1.96,.67-3.62,2.02-4.97,1.35-1.35,3.01-2.02,4.98-2.02h163.76Zm13.57,83.93c1.99,0,3.66,.61,5.03,1.84,1.37,1.23,2.05,2.82,2.05,4.79v78.78c0,5.65-1.99,10.49-5.97,14.54-3.98,4.05-8.82,6.07-14.54,6.07h-114.59c-1.72,0-3.25-.67-4.6-2.03-1.35-1.34-2.02-3-2.02-4.97v-11.41c0-1.96,.67-3.62,2.02-4.97,1.35-1.35,2.88-2.02,4.6-2.02h106.75v-57.43h-69.21c-1.97,0-3.62-.67-4.97-2.02-1.35-1.35-2.02-3-2.02-4.97v-9.57c0-1.96,.67-3.55,2.02-4.79,1.35-1.23,3-1.84,4.97-1.84h90.46Z"/><path class="d" d="M1208.9,325.29h130.68c1.71,0,3.25,.68,4.6,2.02,1.34,1.35,2.02,3.01,2.02,4.97v11.78c0,1.72-.68,3.26-2.02,4.6s-2.89,2.03-4.6,2.03h-152.4c-1.72,0-3.25-.67-4.6-2.03-1.35-1.34-2.02-2.88-2.02-4.6V167.73c0-1.96,.67-3.62,2.02-4.97s2.88-2.02,4.6-2.02h150.56c1.96,0,3.62,.68,4.97,2.02,1.35,1.35,2.03,3.01,2.03,4.97v11.78c0,1.72-.68,3.25-2.03,4.6-1.35,1.35-3.01,2.03-4.97,2.03h-128.84v139.15Zm20.25-79.51c0-1.96,.61-3.56,1.84-4.79,1.23-1.23,2.82-1.84,4.79-1.84h92.4c1.71,0,3.25,.62,4.6,1.84,1.35,1.23,2.02,2.82,2.02,4.79v11.41c0,1.97-.68,3.56-2.02,4.79-1.35,1.23-2.89,1.84-4.6,1.84h-92.4c-1.97,0-3.56-.61-4.79-1.84-1.23-1.23-1.84-2.82-1.84-4.79v-11.41Z"/><path class="d" d="M1435.29,325.29h130.68c1.71,0,3.25,.68,4.6,2.02,1.34,1.35,2.02,3.01,2.02,4.97v11.78c0,1.72-.68,3.26-2.02,4.6s-2.89,2.03-4.6,2.03h-152.4c-1.72,0-3.25-.67-4.6-2.03-1.35-1.34-2.02-2.88-2.02-4.6V167.73c0-1.96,.67-3.62,2.02-4.97s2.88-2.02,4.6-2.02h150.56c1.96,0,3.62,.68,4.97,2.02,1.35,1.35,2.03,3.01,2.03,4.97v11.78c0,1.72-.68,3.25-2.03,4.6-1.35,1.35-3.01,2.03-4.97,2.03h-128.84v139.15Zm20.25-79.51c0-1.96,.61-3.56,1.84-4.79,1.23-1.23,2.82-1.84,4.79-1.84h92.4c1.71,0,3.25,.62,4.6,1.84,1.35,1.23,2.02,2.82,2.02,4.79v11.41c0,1.97-.68,3.56-2.02,4.79-1.35,1.23-2.89,1.84-4.6,1.84h-92.4c-1.97,0-3.56-.61-4.79-1.84-1.23-1.23-1.84-2.82-1.84-4.79v-11.41Z"/><path class="d" d="M1633.33,167.73c0-1.96,.62-3.62,1.87-4.97,1.24-1.35,2.86-2.02,4.86-2.02h11.21c2.74,0,5.1,.98,7.1,2.94l79.7,93.87,77.86-93.87c1.74-1.96,3.61-2.94,5.6-2.94h19.8c1.71,0,2.58,.74,2.58,2.21,0,.74-.62,1.97-1.84,3.68l-97.92,117.06c-.25,.49-.74,.98-1.47,1.47-1.47,.98-2.95,1.47-4.42,1.47-1.72,0-3.31-.49-4.79-1.47-.74-.49-1.23-.98-1.47-1.47l-74.36-86.14v146.51c0,1.97-.69,3.56-2.06,4.79-1.37,1.23-3.05,1.84-5.04,1.84h-10.46c-2,0-3.62-.61-4.86-1.84-1.25-1.23-1.87-2.82-1.87-4.79V167.73Zm183.69,59.63c0-1.71,.86-3.68,2.58-5.89l17.96-20.98c1.75-2.21,3.24-3.31,4.49-3.31,.98,0,1.47,.74,1.47,2.21v144.67c0,1.97-.69,3.56-2.05,4.79-1.37,1.23-3.05,1.84-5.04,1.84h-12.7c-1.99,0-3.61-.61-4.85-1.84-1.24-1.23-1.86-2.82-1.86-4.79v-116.69Z"/></g><g><path class="c" d="M285.18,349.87c-.34-.3-34.25-30.42-55.42-44.83-1.16-.79-2.74-.49-3.53,.67-.79,1.16-.49,2.74,.67,3.52,20.9,14.23,54.57,44.13,54.9,44.43,.48,.43,1.09,.64,1.69,.64,.7,0,1.39-.29,1.9-.85,.93-1.05,.84-2.65-.21-3.58Z"/><path class="c" d="M303.88,350.69c-.63,0-1.26-.23-1.76-.71-1.18-1.13-28.79-27.93-25.85-52.31,.17-1.39,1.44-2.38,2.82-2.22,1.39,.17,2.38,1.43,2.22,2.82-2.64,21.89,24.06,47.78,24.33,48.04,1.01,.97,1.04,2.58,.07,3.59-.5,.52-1.16,.78-1.83,.78Z"/><path class="c" d="M340.07,309.68c-19.82,0-42.7-10.38-44.09-11.02-1.27-.59-1.83-2.09-1.24-3.36,.59-1.27,2.09-1.83,3.36-1.24,.46,.21,46.63,21.17,61.26,3.64,14.83-17.76,12.97-40.06,8.8-55.65-3.05-11.42-9.41-35.16-55.15-25.49-2.95,1.19-29.85,11.44-49.06-.94-1.18-.76-1.52-2.33-.76-3.51,.76-1.18,2.33-1.52,3.51-.76,17.7,11.41,44.32,.54,44.58,.42l.22-.09,.23-.05c44.9-9.56,56.36,10.53,61.33,29.1,6.43,24.01,3.04,44.83-9.81,60.21-5.43,6.5-13.98,8.74-23.19,8.74Z"/><path class="c" d="M369.07,238.73c-.19,0-.39-.02-.58-.07-1.36-.32-2.21-1.69-1.89-3.05,2.63-11.19,1.37-19.96-3.76-26.06-9.41-11.22-28.88-10.26-29.08-10.25-1.41,.07-2.6-.99-2.68-2.39-.08-1.4,.99-2.6,2.39-2.68,.9-.06,22.22-1.1,33.25,12.05,6.21,7.4,7.82,17.65,4.81,30.48-.28,1.17-1.32,1.96-2.47,1.96Z"/><path class="c" d="M350.13,201.44c-1.08,0-2.09-.7-2.42-1.79-6.19-20.12-17.11-34.28-32.44-42.07-27.35-13.9-59.98-2.92-60.31-2.81-1.33,.46-2.77-.25-3.23-1.57-.46-1.32,.24-2.77,1.57-3.23,1.41-.49,34.94-11.8,64.23,3.06,16.63,8.44,28.41,23.62,35.03,45.12,.41,1.34-.34,2.76-1.68,3.17-.25,.08-.5,.11-.75,.11Z"/><path class="c" d="M273.15,150.52c-.84,0-1.66-.42-2.15-1.18-7.5-11.87-16.52-18.73-26.83-20.39-16.44-2.66-31.96,8.34-37.87,13.19-1.08,.89-2.68,.73-3.57-.35-.89-1.08-.73-2.68,.35-3.57,6.44-5.29,23.42-17.26,41.9-14.27,11.8,1.91,22,9.54,30.31,22.69,.75,1.18,.4,2.75-.79,3.5-.42,.27-.89,.39-1.35,.39Z"/><path class="c" d="M135.31,175.98c-.22,0-.44-.03-.66-.09-1.35-.36-2.16-1.75-1.79-3.1,.37-1.39,9.42-34.05,39.95-40.86,31.22-6.96,40.49,18.08,40.58,18.33,.47,1.32-.22,2.77-1.54,3.24-1.32,.47-2.77-.22-3.24-1.54-.31-.85-7.95-21.04-34.69-15.07-27.5,6.13-36.07,36.91-36.16,37.22-.3,1.13-1.33,1.88-2.45,1.88Z"/><path class="c" d="M289.43,221.56c-1.19,0-2.25-.84-2.49-2.05-.14-.72-3.28-17.76,8.89-30.61,.96-1.02,2.57-1.06,3.59-.1,1.02,.96,1.06,2.57,.1,3.59-10.4,10.98-7.62,26-7.59,26.15,.27,1.38-.63,2.71-2.01,2.97-.16,.03-.33,.05-.49,.05Z"/><path class="c" d="M136.25,289.72c-19.36,0-34.83-5.01-45.69-14.96-15.01-13.76-20.57-36.31-15.68-63.5,4.79-26.61,22.16-38.99,35.89-44.69,14.72-6.11,28.15-5.99,28.71-5.99,1.4,.02,2.52,1.17,2.5,2.57-.02,1.4-1.17,2.55-2.57,2.5-.23,0-13.14-.07-26.85,5.67-18.18,7.6-29.18,21.34-32.69,40.84-4.58,25.42,.44,46.33,14.12,58.87,16.56,15.18,45.38,17.75,83.36,7.45,1.35-.37,2.75,.43,3.11,1.78,.37,1.35-.43,2.75-1.78,3.11-15.65,4.25-29.86,6.36-42.43,6.36Z"/><path class="c" d="M171.89,210.3c-.13,0-.27,0-.41-.03-8.29-1.34-13.94-4.82-16.8-10.35-5.1-9.86,.93-22.34,1.18-22.87,.62-1.26,2.14-1.78,3.4-1.16,1.26,.62,1.77,2.14,1.16,3.39h0c-.05,.11-5.15,10.75-1.22,18.32,2.08,4.02,6.49,6.59,13.09,7.66,1.38,.22,2.32,1.53,2.1,2.91-.2,1.25-1.28,2.13-2.5,2.13Z"/><path class="c" d="M116.84,236.73c-7.43,0-13.24-2.05-17.33-6.12-7.47-7.45-6.1-18.75-6.04-19.22,.18-1.39,1.46-2.37,2.84-2.19,1.39,.18,2.37,1.45,2.19,2.84-.02,.13-1.08,9.36,4.62,15.01,4.01,3.98,10.53,5.4,19.38,4.22,1.39-.18,2.66,.79,2.85,2.18,.18,1.39-.79,2.67-2.18,2.85-2.22,.3-4.33,.44-6.33,.44Z"/><path class="c" d="M125.79,260.62c-1.14,0-2.17-.77-2.46-1.92-6.61-26.32,2.23-43.11,10.81-52.57,9.27-10.21,20-14.14,20.45-14.3,1.32-.47,2.77,.21,3.24,1.53,.47,1.32-.21,2.77-1.53,3.24-.16,.06-10.16,3.77-18.54,13.09-11.16,12.4-14.35,28.47-9.51,47.77,.34,1.36-.48,2.74-1.84,3.08-.21,.05-.41,.08-.62,.08Z"/><path class="c" d="M224.32,309.17c-1.74,0-3.5-.1-5.28-.3-12.54-1.39-25.84-7.91-38.46-18.85l-.24-.23c-9.89-11.15-14.01-22.87-12.26-34.84,3.5-23.9,29.07-39.97,30.15-40.64l.65-.4,34.59,1.05c1.4,.04,2.5,1.21,2.46,2.61s-1.22,2.5-2.61,2.46l-33.03-1c-3.84,2.56-24.33,17.06-27.19,36.68-1.51,10.37,2.16,20.66,10.92,30.59,15.46,13.35,45.44,31.2,73.55,1.95,14.42-15,26.73-23.31,38.76-26.14,13.51-3.18,26.84,.59,40.75,11.53,1.1,.87,1.29,2.46,.43,3.56-.87,1.1-2.46,1.29-3.56,.43-12.62-9.93-24.54-13.39-36.45-10.58-11.04,2.6-22.56,10.46-36.27,24.72-11.11,11.56-23.51,17.4-36.92,17.4Z"/><path class="c" d="M199.58,219c-1.33,0-2.45-1.04-2.53-2.39l-1.27-22.24c-.08-1.4,.99-2.6,2.39-2.68,1.39-.07,2.6,.99,2.68,2.39l1.27,22.24c.08,1.4-.99,2.6-2.39,2.68-.05,0-.1,0-.15,0Z"/><path class="c" d="M204.44,276.69c-.26,0-.52-.04-.78-.12-1.33-.43-2.07-1.86-1.64-3.19,.24-.74,5.98-18.23,19.69-24.97,13.89-6.83,26.71-.25,27.25,.03l.33,.21c.55,.4,13.64,9.83,26.96,1.57,1.19-.74,2.76-.37,3.49,.82,.74,1.19,.37,2.76-.82,3.49-15.5,9.61-30.48-.27-32.46-1.67-1.28-.61-11.67-5.23-22.51,.1-11.79,5.8-17.05,21.81-17.1,21.97-.35,1.08-1.34,1.76-2.42,1.76Z"/><path class="c" d="M235.31,250.4c-1.36,0-2.48-1.07-2.53-2.44-.46-11.94,10.93-25.04,11.41-25.59,.92-1.05,2.53-1.16,3.58-.23,1.05,.92,1.16,2.53,.23,3.58-.11,.12-10.53,12.14-10.15,22.05,.05,1.4-1.04,2.58-2.44,2.63-.03,0-.07,0-.1,0Z"/><path class="c" d="M240.03,200.44c-1.02,0-1.97-.61-2.36-1.62-4.89-12.55-11.95-20.89-20.99-24.8-10.89-4.7-21.48-1.46-23.63-.7l-12.6,11.64c-1.03,.95-2.63,.89-3.59-.14-.95-1.03-.89-2.63,.14-3.59l13.3-12.29,.42-.17c.55-.23,13.76-5.5,27.89,.56,10.37,4.45,18.37,13.75,23.78,27.64,.51,1.31-.14,2.78-1.44,3.29-.3,.12-.61,.17-.92,.17Z"/><path class="c" d="M230.49,183.89c-.67,0-1.34-.27-1.84-.79-.96-1.02-.92-2.62,.1-3.59,.6-.57,14.94-13.87,37-10.19,1.38,.23,2.32,1.54,2.08,2.92-.23,1.38-1.54,2.32-2.92,2.08-19.6-3.28-32.54,8.74-32.67,8.86-.49,.46-1.12,.7-1.75,.7Z"/><path class="c" d="M188.68,176.44c-.76,0-1.52-.34-2.02-1-9.13-11.95-8.26-24.56-8.22-25.09,.11-1.4,1.33-2.44,2.73-2.33,1.39,.11,2.44,1.33,2.33,2.72,0,.12-.71,11.28,7.19,21.63,.85,1.11,.64,2.71-.48,3.56-.46,.35-1,.52-1.54,.52Z"/></g><g><path class="e" d="M263.56,346.6v65.21c0,12.17-9.9,22.07-22.07,22.07H71.97c-12.17,0-22.07-9.9-22.07-22.07V65.95c0-12.17,9.9-22.07,22.07-22.07H241.49c12.17,0,22.07,9.9,22.07,22.07v60.6c-.45-1.2-6.02-3.79-6.02-3.79v-56.82c0-8.85-7.2-16.05-16.05-16.05H71.97c-8.85,0-16.05,7.2-16.05,16.05V411.81c0,8.85,7.2,16.05,16.05,16.05H241.49c8.85,0,16.05-7.2,16.05-16.05v-71.07l6.02,4.59v1.28Z"/><rect class="e" x="52.91" y="88.02" width="207.64" height="6.02"/><rect class="e" x="53.03" y="356.84" width="207.64" height="6.02"/></g><path class="c" d="M156.84,415.41c-10.39,0-18.84-8.45-18.84-18.84s8.45-18.84,18.84-18.84,18.84,8.45,18.84,18.84-8.45,18.84-18.84,18.84Zm0-31.67c-7.07,0-12.83,5.75-12.83,12.83s5.75,12.82,12.83,12.82,12.83-5.75,12.83-12.82-5.75-12.83-12.83-12.83Z"/><g><path class="f" d="M455.08,428.07c0,2.28-.48,4.29-1.44,6.05-.96,1.76-2.27,3.23-3.92,4.42-1.65,1.19-3.58,2.09-5.77,2.71-2.2,.62-4.53,.93-6.99,.93-1.04,0-2.2-.07-3.48-.22-1.28-.15-2.6-.36-3.96-.63-1.36-.27-2.71-.59-4.07-.96-1.36-.37-2.65-.78-3.89-1.22l1.78-3.55,2.37,.52c.59,.15,1.28,.32,2.07,.52,.79,.2,1.63,.37,2.52,.52,.89,.15,1.78,.28,2.66,.41,.89,.12,1.7,.19,2.44,.19h3.03c1.63,0,3.18-.22,4.66-.67,1.48-.44,2.79-1.1,3.92-1.96,1.13-.86,2.04-1.92,2.7-3.18s1-2.7,1-4.33c0-.69-.17-1.45-.52-2.29-.35-.84-.72-1.53-1.11-2.07v.07c-.69-.94-1.47-1.69-2.33-2.26-.86-.57-1.75-1-2.66-1.29-.91-.3-1.88-.51-2.89-.63-1.01-.12-2.01-.23-3-.33-1.68-.1-3.38-.26-5.11-.48-1.73-.22-3.38-.83-4.96-1.81v.07c-1.78-.99-3.24-2.42-4.4-4.29-1.16-1.87-1.74-4-1.74-6.36,0-3.26,1.2-6.04,3.59-8.36,2.39-2.32,5.59-3.9,9.58-4.74h-.07c.59-.1,1.47-.21,2.63-.33,1.16-.12,2.45-.19,3.89-.19,.79,0,1.7,.09,2.74,.25,1.04,.17,2.11,.38,3.22,.62,1.11,.24,2.21,.53,3.29,.87,1.08,.34,2.07,.68,2.96,1.02l-1.7,3.97c-1.28-.44-2.45-.83-3.52-1.15-1.06-.32-2.07-.57-3.03-.74-.96-.17-1.9-.31-2.81-.41-.91-.1-1.86-.15-2.85-.15-1.53,0-3.1,.19-4.7,.55-1.6,.37-3.07,.93-4.4,1.67-1.33,.74-2.43,1.7-3.29,2.89-.86,1.18-1.29,2.59-1.29,4.22,0,.54,.1,1.12,.3,1.74,.2,.62,.47,1.22,.82,1.81,.35,.59,.74,1.16,1.19,1.7,.44,.54,.91,.99,1.41,1.33,1.29,.79,2.63,1.29,4.04,1.52,1.41,.22,2.83,.38,4.27,.48,1.68,.1,3.5,.35,5.45,.74s3.77,1.11,5.45,2.15c.89,.59,1.69,1.3,2.41,2.11,.72,.82,1.34,1.69,1.85,2.63,.52,.94,.93,1.92,1.22,2.93,.3,1.01,.45,2.02,.45,3Z"/><path class="f" d="M479.79,441.65v-38.92h22.94v4.14h-18.72v9.92h12.58v4.14h-12.58v16.43h19.98v4.29h-24.2Z"/><path class="f" d="M554.24,402.8v40.4l-26.05-31.01v29.45h-3.63v-39.81l25.97,31.01v-30.04h3.7Z"/><path class="f" d="M601.89,430.7c0,1.83-.38,3.44-1.15,4.85-.77,1.41-1.8,2.59-3.11,3.55-1.31,.96-2.85,1.69-4.62,2.18s-3.65,.74-5.62,.74c-.84,0-1.76-.08-2.77-.23-1.01-.15-2.07-.34-3.18-.57-1.11-.23-2.21-.48-3.29-.75-1.09-.27-2.1-.56-3.03-.87l1.11-3.66c1.73,.4,3.52,.79,5.36,1.18,1.85,.4,3.39,.59,4.62,.59h2.37c1.23,0,2.41-.16,3.52-.48,1.11-.32,2.1-.79,2.96-1.4,.86-.62,1.54-1.39,2.04-2.33,.49-.94,.74-2.02,.74-3.25,0-.59-.12-1.19-.37-1.81-.25-.62-.52-1.12-.81-1.51-.44-.59-.99-1.07-1.63-1.44-.64-.37-1.34-.69-2.11-.96-.77-.27-1.54-.47-2.33-.59-.79-.12-1.53-.21-2.22-.26-1.38-.05-2.76-.2-4.14-.44-1.38-.25-2.71-.71-4-1.4-1.38-.89-2.57-2.09-3.55-3.62-.99-1.53-1.48-3.2-1.48-5.02,0-2.66,.99-4.92,2.96-6.79,1.97-1.87,4.59-3.15,7.84-3.84,.54-.1,1.31-.21,2.29-.33,.99-.12,1.92-.19,2.81-.19,.59,0,1.29,.07,2.11,.22s1.68,.33,2.59,.56c.91,.22,1.81,.48,2.7,.78s1.68,.57,2.37,.81l-.59,1.92c-.1,.2-.17,.41-.22,.63-.05,.22-.12,.6-.22,1.15-2.07-.69-3.87-1.18-5.4-1.48-1.53-.3-3.08-.44-4.66-.44-1.18,0-2.39,.14-3.63,.41-1.23,.27-2.37,.7-3.4,1.29-1.04,.59-1.89,1.33-2.55,2.22-.67,.89-1,1.95-1,3.18,0,.74,.27,1.59,.81,2.55,.54,.96,1.23,1.74,2.07,2.33,.84,.54,1.7,.89,2.59,1.04,.89,.15,1.8,.27,2.74,.37l-.07-.07h.52s.09,.01,.11,.04c.02,.03,.06,.04,.11,.04h.07c1.43,.1,2.93,.33,4.51,.7,1.58,.37,3.08,1,4.51,1.89,1.38,.94,2.52,2.2,3.4,3.77,.89,1.58,1.33,3.16,1.33,4.74Z"/><path class="f" d="M629.86,402.73v38.92h-4.22v-38.92h4.22Z"/><path class="f" d="M684.18,402.8v40.4l-26.05-31.01v29.45h-3.63v-39.81l25.97,31.01v-30.04h3.7Z"/><path class="f" d="M746.26,417.09c0,.25,.01,.63,.04,1.15,.02,.52,.04,.97,.04,1.37v1.7c0,1.53-.11,3.08-.33,4.66-.22,1.58-.58,2.94-1.07,4.07-.84,1.78-1.91,3.39-3.22,4.85-1.31,1.46-2.76,2.71-4.37,3.77-1.6,1.06-3.29,1.89-5.07,2.48-1.78,.59-3.58,.89-5.4,.89-2.66,0-5.19-.53-7.58-1.59-2.39-1.06-4.49-2.5-6.28-4.33-1.79-1.82-3.2-3.93-4.22-6.33-1.02-2.39-1.53-4.92-1.53-7.58s.52-5.29,1.56-7.73c1.04-2.44,2.47-4.56,4.29-6.36,1.82-1.8,3.91-3.23,6.28-4.29,2.37-1.06,4.86-1.59,7.47-1.59,1.28,0,2.65,.19,4.11,.55,1.45,.37,3.07,.9,4.85,1.59l-.96,4.44c-1.68-.89-3.17-1.49-4.48-1.81-1.31-.32-2.45-.48-3.44-.48-2.17,0-4.19,.44-6.07,1.33-1.88,.89-3.52,2.06-4.92,3.51-1.41,1.46-2.5,3.12-3.29,5-.79,1.88-1.18,3.82-1.18,5.85,0,2.22,.42,4.27,1.26,6.14,.84,1.88,1.97,3.51,3.4,4.92,1.43,1.41,3.07,2.5,4.92,3.29,1.85,.79,3.79,1.18,5.81,1.18,2.91,0,5.65-.85,8.21-2.55,2.56-1.7,4.54-3.96,5.92-6.77v.07c.34-.99,.64-2.08,.89-3.29,.25-1.21,.37-2.48,.37-3.81h-13.76v-4.29h17.76Z"/><path class="f" d="M829.74,392.89c1.82,0,3.5,.36,5.03,1.07,1.53,.72,2.86,1.67,4,2.85,1.13,1.18,2.02,2.55,2.66,4.11,.64,1.55,.96,3.15,.96,4.77,0,2.12-.47,4.1-1.41,5.92-.94,1.83-2.22,3.33-3.85,4.51,1.97,1.23,3.58,2.92,4.81,5.07,1.23,2.15,1.85,4.4,1.85,6.77,0,1.88-.36,3.65-1.07,5.33-.72,1.68-1.68,3.13-2.89,4.37-1.21,1.23-2.64,2.21-4.29,2.92-1.65,.72-3.39,1.07-5.22,1.07h-19.24v-48.77h18.65Zm8.44,12.73c0-1.18-.22-2.28-.67-3.29-.45-1.01-1.05-1.9-1.82-2.66-.77-.76-1.66-1.37-2.67-1.81-1.02-.44-2.12-.67-3.3-.67h-14.4v17.02h14.4c1.19,0,2.29-.22,3.3-.67,1.02-.44,1.91-1.05,2.67-1.81,.77-.76,1.37-1.68,1.82-2.74,.44-1.06,.67-2.18,.67-3.37Zm-7.87,31.75c1.29,0,2.5-.23,3.64-.7,1.14-.47,2.13-1.13,2.97-2,.84-.86,1.5-1.86,1.97-3,.47-1.13,.71-2.37,.71-3.7s-.24-2.49-.71-3.63c-.47-1.13-1.13-2.13-1.97-3-.84-.86-1.83-1.55-2.97-2.07-1.14-.52-2.35-.78-3.64-.78h-14.99v18.87h14.99Z"/><path class="f" d="M869.4,441.65v-38.92h22.94v4.14h-18.72v9.92h12.58v4.14h-12.58v16.43h19.98v4.29h-24.2Z"/><path class="f" d="M926.38,425.97l-12.65-22.2,3.77-1.85,11.06,19.46c1.85-3.26,3.71-6.51,5.59-9.77,1.87-3.26,3.72-6.49,5.55-9.69l3.77,1.85-12.88,22.35v15.54h-4.22v-15.69Z"/><path class="f" d="M983.91,402.36c2.72,0,5.29,.52,7.71,1.55,2.42,1.04,4.52,2.47,6.3,4.29,1.78,1.83,3.19,3.95,4.23,6.36,1.04,2.42,1.56,4.98,1.56,7.7s-.52,5.34-1.56,7.73c-1.04,2.39-2.45,4.49-4.23,6.29-1.78,1.8-3.88,3.22-6.3,4.26-2.42,1.04-4.99,1.55-7.71,1.55s-5.35-.52-7.75-1.55c-2.4-1.04-4.51-2.45-6.34-4.26-1.83-1.8-3.26-3.9-4.3-6.29-1.04-2.39-1.56-4.97-1.56-7.73s.52-5.28,1.56-7.7c1.04-2.42,2.47-4.54,4.3-6.36,1.83-1.82,3.94-3.26,6.34-4.29,2.4-1.04,4.98-1.55,7.75-1.55Zm15.58,19.91c0-2.17-.41-4.21-1.22-6.1-.81-1.9-1.94-3.55-3.37-4.96-1.43-1.41-3.1-2.52-4.99-3.33-1.9-.81-3.91-1.22-6.03-1.22s-4.22,.41-6.14,1.22c-1.92,.81-3.59,1.92-4.99,3.33s-2.52,3.06-3.33,4.96c-.81,1.9-1.22,3.94-1.22,6.1s.41,4.19,1.22,6.07c.81,1.88,1.92,3.51,3.33,4.92s3.07,2.52,4.99,3.33c1.92,.81,3.97,1.22,6.14,1.22s4.13-.41,6.03-1.22c1.9-.81,3.56-1.92,4.99-3.33,1.43-1.41,2.55-3.05,3.37-4.92,.81-1.87,1.22-3.9,1.22-6.07Z"/><path class="f" d="M1057.21,402.8v40.4l-26.05-31.01v29.45h-3.63v-39.81l25.97,31.01v-30.04h3.7Z"/><path class="f" d="M1092.36,402.73c2.66,0,5.18,.52,7.55,1.55,2.37,1.04,4.43,2.44,6.18,4.22,1.75,1.78,3.13,3.85,4.14,6.22,1.01,2.37,1.52,4.88,1.52,7.55s-.51,5.18-1.52,7.55c-1.01,2.37-2.39,4.43-4.14,6.18-1.75,1.75-3.81,3.13-6.18,4.14-2.37,1.01-4.88,1.52-7.55,1.52h-12.21v-38.92h12.21Zm15.32,19.5c0-2.12-.41-4.1-1.22-5.94s-1.91-3.47-3.28-4.87c-1.38-1.4-2.99-2.51-4.83-3.32-1.84-.81-3.82-1.22-5.94-1.22h-8.04v30.49h8.04c2.11,0,4.09-.39,5.94-1.18,1.84-.79,3.46-1.86,4.83-3.21,1.38-1.35,2.47-2.95,3.28-4.8,.81-1.85,1.22-3.83,1.22-5.94Z"/><path class="f" d="M1222.89,392.89v4.29h-18.8v44.47h-4.22v-44.47h-18.94v-4.29h41.96Z"/><path class="f" d="M1265.89,421.53h-22.05v20.13h-4.22v-38.92h4.22v14.5h22.05v-14.5h4.22v38.92h-4.22v-20.13Z"/><path class="f" d="M1295.93,441.65v-38.92h22.94v4.14h-18.72v9.92h12.58v4.14h-12.58v16.43h19.98v4.29h-24.2Z"/><path class="f" d="M1381.92,441.65v-48.77h28.27v4.29h-24.05v13.69h16.21v4.29h-16.21v22.2h25.68v4.29h-29.9Z"/><path class="f" d="M1466.65,404.88l-14.73,17.24c1.28,1.53,2.59,3.08,3.92,4.66,1.33,1.58,2.69,3.18,4.07,4.81,1.08,1.28,2.22,2.64,3.4,4.07,1.18,1.43,2.27,2.74,3.26,3.92l-2.89,2.96-14.43-16.95c-1.04,1.28-2.11,2.55-3.22,3.81-1.11,1.26-2.23,2.58-3.37,3.96-1.28,1.53-2.6,3.11-3.96,4.74-1.36,1.63-2.6,3.13-3.74,4.51l-3.03-3.03,14.58-17.46c-1.09-1.28-2.2-2.58-3.33-3.88-1.14-1.31-2.29-2.65-3.48-4.03l-7.77-9.25,2.96-2.96,14.28,17.02,14.43-16.95,3.03,2.81Z"/><path class="f" d="M1492.48,441.65v-38.92h12.99c1.63,0,3.17,.32,4.6,.96,1.44,.64,2.7,1.52,3.79,2.63,1.09,1.11,1.94,2.42,2.56,3.92,.62,1.51,.93,3.1,.93,4.77s-.31,3.26-.92,4.74c-.62,1.48-1.46,2.76-2.52,3.85-1.06,1.09-2.31,1.94-3.74,2.55-1.43,.62-2.96,.92-4.59,.92h-8.88v14.58h-4.22Zm4.22-34.78v15.91h8.84c1.03,0,2.01-.21,2.95-.63s1.74-.97,2.43-1.66c.69-.69,1.23-1.51,1.62-2.47s.59-1.98,.59-3.06-.2-2.18-.59-3.17c-.39-.98-.93-1.84-1.62-2.58-.69-.74-1.5-1.31-2.43-1.73s-1.94-.63-3.02-.63h-8.77Z"/><path class="f" d="M1540.06,441.65v-38.92h22.94v4.14h-18.72v9.92h12.58v4.14h-12.58v16.43h19.98v4.29h-24.2Z"/><path class="f" d="M1589.93,427.15v14.5h-4.07v-38.92h11.32c1.73,0,3.33,.35,4.81,1.03,1.48,.69,2.75,1.6,3.81,2.74,1.06,1.13,1.9,2.43,2.52,3.88,.62,1.45,.92,2.97,.92,4.55,0,2.42-.55,4.6-1.67,6.54-1.11,1.95-2.77,3.39-5,4.32l3.48,4.45c.59,.74,1.27,1.62,2.04,2.63,.76,1.01,1.55,2.05,2.37,3.11,.81,1.06,1.59,2.09,2.33,3.08,.74,.99,1.38,1.85,1.92,2.59h-5.33l-11.25-14.5h-8.21Zm0-20.28v15.98h7.25c1.08,0,2.12-.21,3.11-.63,.99-.42,1.84-.98,2.55-1.69,.71-.71,1.28-1.55,1.7-2.5,.42-.96,.63-1.98,.63-3.06s-.21-2.19-.63-3.17c-.42-.98-.99-1.84-1.7-2.58-.72-.74-1.57-1.31-2.55-1.73-.99-.42-2.02-.63-3.11-.63h-7.25Z"/><path class="f" d="M1639.51,402.73v38.92h-4.22v-38.92h4.22Z"/><path class="f" d="M1666.67,441.65v-38.92h22.94v4.14h-18.72v9.92h12.58v4.14h-12.58v16.43h19.98v4.29h-24.2Z"/><path class="f" d="M1741.11,402.8v40.4l-26.05-31.01v29.45h-3.63v-39.81l25.97,31.01v-30.04h3.7Z"/><path class="f" d="M1797.43,436.25c-2.22,1.83-4.51,3.24-6.88,4.25-2.37,1.01-4.79,1.52-7.25,1.52-2.76,0-5.35-.52-7.77-1.55s-4.53-2.45-6.34-4.25c-1.81-1.8-3.24-3.9-4.29-6.29-1.05-2.39-1.58-4.97-1.58-7.73s.53-5.29,1.58-7.73c1.05-2.44,2.48-4.56,4.29-6.36,1.81-1.8,3.92-3.23,6.34-4.29,2.42-1.06,5.01-1.59,7.77-1.59,1.97,0,4.07,.43,6.29,1.29,2.22,.86,4.51,2.08,6.88,3.66l-3.4,2.59c-3.21-2.17-6.46-3.26-9.77-3.26-2.17,0-4.21,.41-6.11,1.22-1.9,.81-3.56,1.94-5,3.37-1.43,1.43-2.57,3.1-3.4,5-.84,1.9-1.26,3.93-1.26,6.1s.42,4.19,1.26,6.07c.84,1.88,1.97,3.52,3.4,4.92,1.43,1.41,3.1,2.52,5,3.33,1.9,.81,3.93,1.22,6.11,1.22,1.87,0,3.77-.39,5.7-1.18,1.92-.79,3.75-1.9,5.48-3.33l2.96,3.03Z"/><path class="f" d="M1820.74,441.65v-38.92h22.94v4.14h-18.72v9.92h12.58v4.14h-12.58v16.43h19.98v4.29h-24.2Z"/></g></g><g><path class="c" d="M159.35,415.74c-11.7,0-21.22-9.52-21.22-21.22s9.52-21.22,21.22-21.22,21.22,9.52,21.22,21.22-9.52,21.22-21.22,21.22Zm0-35.67c-7.96,0-14.45,6.48-14.45,14.45s6.48,14.44,14.45,14.44,14.45-6.48,14.45-14.44-6.48-14.45-14.45-14.45Z"/><path class="b" d="M145.31,395.35c.03,6.48,5.32,11.71,11.8,11.68,3.83-.02,7.22-1.87,9.35-4.72-1.75,1.67-4.12,2.71-6.73,2.72-5.42,.03-9.84-4.35-9.87-9.77-.03-5.42,4.35-9.84,9.77-9.87,2.46-.01,4.71,.88,6.44,2.37-2.17-2.6-5.43-4.24-9.08-4.22-6.48,.03-11.71,5.32-11.68,11.8Z"/><path class="c" d="M176.66,408.4c-4.18,5.5-10.82,9.06-18.3,9.06-12.65,0-22.91-10.18-22.91-22.74s10.26-22.74,22.91-22.74c5.14,0,9.88,1.68,13.7,4.51l.02-.07c-4.26-3.62-9.78-5.81-15.82-5.81-13.5,0-24.45,10.94-24.45,24.45s10.94,24.45,24.45,24.45c8.56,0,16.09-4.4,20.46-11.07l-.06-.03Z"/><path class="h" d="M159.19,412.5c-10.95,0-19.83-8.88-19.83-19.83s8.88-19.83,19.83-19.83c6.93,0,13.04,3.56,16.58,8.95-3.79-6.68-10.97-11.18-19.19-11.18-12.18,0-22.06,9.88-22.06,22.06s9.88,22.06,22.06,22.06c8.23,0,15.4-4.5,19.19-11.18-3.54,5.39-9.65,8.95-16.58,8.95Z"/><path class="g" d="M161.68,409.59c-9.59,0-17.37-7.78-17.37-17.37s7.78-17.37,17.37-17.37c7.33,0,13.6,4.54,16.15,10.97-2.79-7.57-10.07-12.97-18.61-12.97-10.95,0-19.83,8.88-19.83,19.83s8.88,19.83,19.83,19.83,19.83-8.88,19.83-19.83c0-.08,0-.15,0-.23-.12,9.49-7.85,17.14-17.37,17.14Z"/></g></svg>