<svg xmlns="http://www.w3.org/2000/svg" width="88.695" height="80.877" viewBox="0 0 88.695 80.877">
  <g id="Delivery-MonitoringPlatform" transform="translate(-886.47 -16.632)">
    <g id="Layer_2" data-name="Layer 2" transform="translate(886.47 16.632)">
      <g id="Delivery-ManagementPlatform" transform="translate(0 0)">
        <path id="Path_8263" data-name="Path 8263" d="M889.354,81.632v25.785c-.157,6.133,6.855,9.019,11.277,9.207H961.35c5.652-.129,10.855-4.155,10.929-8.859V60.975c.044-5.483-5.166-8.465-11.277-8.511l-22.15.163-.041-2.928H961.7c7.427,0,13.468,4.747,13.468,10.581v48.529c0,5.833-6.04,10.579-13.468,10.579H899.936c-7.426,0-13.466-4.746-13.466-10.579V81.6l2.885.034Z" transform="translate(-886.47 -38.511)" fill="#1492ab"/>
        <g id="_5GTowerMain" data-name="5GTowerMain" transform="translate(5.291)">
          <g id="Group_823" data-name="Group 823" transform="translate(14.799)">
            <path id="Path_8264" data-name="Path 8264" d="M978.893,33.125,979.23,43.7l2.406-.274a.946.946,0,0,0,.828-1.015l-.642-8.711a.938.938,0,0,0-1.074-.868Z" transform="translate(-967.711 -27.345)" fill="#1492ab"/>
            <path id="Path_8265" data-name="Path 8265" d="M982.683,75.606a.331.331,0,0,1-.328-.32L980.308,25.52a.328.328,0,1,1,.656-.028l2.047,49.767a.332.332,0,0,1-.314.347h-.014Z" transform="translate(-968.648 -22.283)" fill="#1492ab"/>
            <path id="Path_8266" data-name="Path 8266" d="M959.394,75.607h-.014a.331.331,0,0,1-.314-.347l2.047-49.767a.328.328,0,1,1,.656.028l-2.047,49.767a.331.331,0,0,1-.328.32Z" transform="translate(-954.592 -22.283)" fill="#1492ab"/>
            <path id="Path_8267" data-name="Path 8267" d="M964.611,39.521a.2.2,0,0,1-.176-.1.207.207,0,0,1,.076-.28L969.939,36l-5.064-2.974a.207.207,0,0,1-.074-.28.2.2,0,0,1,.276-.075l5.369,3.153a.207.207,0,0,1,0,.357l-5.734,3.313a.2.2,0,0,1-.1.027Z" transform="translate(-958.128 -27.227)" fill="#1492ab"/>
            <path id="Path_8268" data-name="Path 8268" d="M964.611,58.632a.2.2,0,0,1-.176-.1.207.207,0,0,1,.076-.28l5.428-3.136-5.064-2.974a.207.207,0,0,1-.074-.28.2.2,0,0,1,.276-.075l5.369,3.153a.207.207,0,0,1,0,.357l-5.734,3.313a.2.2,0,0,1-.1.027Z" transform="translate(-958.128 -39.871)" fill="#1492ab"/>
            <path id="Path_8269" data-name="Path 8269" d="M963.341,77.743a.2.2,0,0,1-.182-.116.207.207,0,0,1,.093-.275l6.328-3.13-5.9-2.968a.207.207,0,0,1-.092-.275.2.2,0,0,1,.271-.093l6.273,3.153a.207.207,0,0,1,0,.369l-6.7,3.313a.2.2,0,0,1-.088.021Z" transform="translate(-957.288 -52.515)" fill="#1492ab"/>
            <path id="Path_8270" data-name="Path 8270" d="M962.664,96.7a.2.2,0,0,1-.186-.124.207.207,0,0,1,.105-.27l6.763-2.974-6.629-2.964a.207.207,0,0,1-.1-.271.2.2,0,0,1,.266-.105l7.053,3.153a.207.207,0,0,1,0,.377l-7.188,3.162a.2.2,0,0,1-.08.017Z" transform="translate(-956.84 -65.16)" fill="#1492ab"/>
            <path id="Path_8271" data-name="Path 8271" d="M961.495,116.011a.2.2,0,0,1-.188-.131.206.206,0,0,1,.115-.266l7.371-2.9-7.057-2.825a.206.206,0,0,1-.114-.266.2.2,0,0,1,.262-.116l7.538,3.017a.207.207,0,0,1,0,.383L961.567,116a.2.2,0,0,1-.073.014Z" transform="translate(-956.066 -78.071)" fill="#1492ab"/>
            <path id="Path_8272" data-name="Path 8272" d="M961.068,134.978a.2.2,0,0,1-.189-.132.206.206,0,0,1,.116-.265l7.777-3.025-7.487-2.961a.207.207,0,0,1-.115-.266.2.2,0,0,1,.262-.117l7.975,3.153a.206.206,0,0,1,0,.383l-8.266,3.215a.2.2,0,0,1-.072.014Z" transform="translate(-955.784 -90.449)" fill="#1492ab"/>
            <path id="Path_8273" data-name="Path 8273" d="M960.536,154.037a.2.2,0,0,1-.19-.136.206.206,0,0,1,.122-.263l8.179-2.97-8.057-2.959a.206.206,0,0,1-.122-.263.2.2,0,0,1,.259-.123l8.586,3.153a.207.207,0,0,1,0,.387l-8.709,3.163a.2.2,0,0,1-.068.012Z" transform="translate(-955.432 -103.094)" fill="#1492ab"/>
            <g id="Group_818" data-name="Group 818" transform="translate(4.015)">
              <path id="Path_8274" data-name="Path 8274" d="M958.5,16.632h3.292V35.966H958.5a.786.786,0,0,1-.785-.785V17.417a.786.786,0,0,1,.785-.785Z" transform="translate(-957.712 -16.632)" fill="#1492ab"/>
              <rect id="Rectangle_2006" data-name="Rectangle 2006" width="2.038" height="19.334" transform="translate(2.039 0)" fill="#1492ab"/>
            </g>
            <g id="Group_820" data-name="Group 820" transform="translate(11.989 11.576)">
              <path id="Path_8275" data-name="Path 8275" d="M981.278,68.55v1.175a.372.372,0,0,0,.337.373l3.977.35v-.856l-3.82-1.395A.369.369,0,0,0,981.278,68.55Z" transform="translate(-981.278 -62.311)" fill="#1492ab"/>
              <g id="Group_819" data-name="Group 819" transform="translate(1.25)">
                <ellipse id="Ellipse_64" data-name="Ellipse 64" cx="2.276" cy="4.809" rx="2.276" ry="4.809" transform="translate(0 1.125) rotate(-14.302)" fill="#1492ab"/>
                <path id="Path_8276" data-name="Path 8276" d="M995.049,56.521c-.644-2.5-2.1-4.3-3.3-4.094a4.286,4.286,0,0,1,1.1,1.942c.411,1.575.209,2.5.647,3.629a17.464,17.464,0,0,1,.533,3.769l.019,0c1.215-.323,1.663-2.67,1-5.242Z" transform="translate(-989.457 -51.881)" fill="#1492ab"/>
              </g>
            </g>
            <g id="Group_822" data-name="Group 822" transform="translate(0 20.78)">
              <path id="Path_8277" data-name="Path 8277" d="M958.9,93.129v1a.317.317,0,0,1-.287.318l-3.389.3v-.729l3.255-1.189A.315.315,0,0,1,958.9,93.129Z" transform="translate(-952.049 -87.814)" fill="#1492ab"/>
              <g id="Group_821" data-name="Group 821">
                <ellipse id="Ellipse_65" data-name="Ellipse 65" cx="4.098" cy="1.939" rx="4.098" ry="1.939" transform="translate(0 7.942) rotate(-75.698)" fill="#1492ab"/>
                <path id="Path_8278" data-name="Path 8278" d="M954.432,83.928c-.549,2.133-1.791,3.661-2.811,3.489a3.648,3.648,0,0,0,.937-1.656c.35-1.342.178-2.13.551-3.093a14.9,14.9,0,0,0,.454-3.212l.017,0C954.614,79.736,955,81.736,954.432,83.928Z" transform="translate(-949.667 -78.98)" fill="#1492ab"/>
              </g>
            </g>
          </g>
          <g id="Group_829" data-name="Group 829" transform="translate(12.034 36.314)">
            <path id="Path_8279" data-name="Path 8279" d="M949.73,129.976l.123,3.861.878-.1a.345.345,0,0,0,.3-.371l-.234-3.179a.342.342,0,0,0-.392-.317l-.677.106Z" transform="translate(-945.65 -127.866)" fill="#1492ab"/>
            <path id="Path_8280" data-name="Path 8280" d="M951.113,145.481a.121.121,0,0,1-.12-.117l-.747-18.163a.12.12,0,1,1,.24-.01l.747,18.163a.121.121,0,0,1-.115.127Z" transform="translate(-945.992 -126.019)" fill="#1492ab"/>
            <path id="Path_8281" data-name="Path 8281" d="M942.614,145.481h-.005a.121.121,0,0,1-.115-.127l.747-18.163a.12.12,0,1,1,.24.01l-.747,18.163A.121.121,0,0,1,942.614,145.481Z" transform="translate(-940.862 -126.019)" fill="#1492ab"/>
            <path id="Path_8282" data-name="Path 8282" d="M944.517,132.311a.073.073,0,0,1-.064-.038.075.075,0,0,1,.028-.1l1.981-1.144-1.848-1.085a.076.076,0,0,1-.027-.1.073.073,0,0,1,.1-.027l1.96,1.151a.076.076,0,0,1,0,.13l-2.093,1.209a.072.072,0,0,1-.037.01Z" transform="translate(-942.152 -127.824)" fill="#1492ab"/>
            <path id="Path_8283" data-name="Path 8283" d="M944.517,139.286a.073.073,0,0,1-.064-.038.075.075,0,0,1,.028-.1L946.461,138l-1.848-1.085a.076.076,0,0,1-.027-.1.073.073,0,0,1,.1-.027l1.96,1.151a.076.076,0,0,1,0,.13l-2.093,1.209a.072.072,0,0,1-.037.01Z" transform="translate(-942.152 -132.439)" fill="#1492ab"/>
            <path id="Path_8284" data-name="Path 8284" d="M944.055,146.26a.074.074,0,0,1-.066-.042.075.075,0,0,1,.034-.1l2.31-1.142-2.155-1.083a.076.076,0,0,1-.034-.1.073.073,0,0,1,.1-.034l2.289,1.151a.074.074,0,0,1,.041.067.075.075,0,0,1-.042.067l-2.445,1.209a.073.073,0,0,1-.032.007Z" transform="translate(-941.846 -137.052)" fill="#1492ab"/>
            <path id="Path_8285" data-name="Path 8285" d="M943.808,153.18a.073.073,0,0,1-.068-.045.075.075,0,0,1,.038-.1l2.468-1.085-2.419-1.082a.076.076,0,0,1-.038-.1.073.073,0,0,1,.1-.039l2.574,1.151a.076.076,0,0,1,0,.137l-2.623,1.154a.075.075,0,0,1-.029.006Z" transform="translate(-941.683 -141.668)" fill="#1492ab"/>
            <path id="Path_8286" data-name="Path 8286" d="M943.381,160.227a.074.074,0,0,1-.069-.048.075.075,0,0,1,.042-.1l2.69-1.059-2.576-1.031a.075.075,0,0,1-.042-.1.073.073,0,0,1,.1-.042l2.751,1.1a.076.076,0,0,1,0,.14l-2.867,1.129a.074.074,0,0,1-.027.005Z" transform="translate(-941.401 -146.379)" fill="#1492ab"/>
            <path id="Path_8287" data-name="Path 8287" d="M943.224,167.15a.074.074,0,0,1-.069-.048.075.075,0,0,1,.043-.1l2.838-1.1-2.733-1.08a.075.075,0,0,1-.042-.1.073.073,0,0,1,.1-.043l2.911,1.151a.075.075,0,0,1,0,.14l-3.017,1.173a.073.073,0,0,1-.026.005Z" transform="translate(-941.297 -150.898)" fill="#1492ab"/>
            <path id="Path_8288" data-name="Path 8288" d="M943.031,174.1a.073.073,0,0,1-.069-.05.075.075,0,0,1,.045-.1l2.985-1.084-2.941-1.08a.076.076,0,0,1-.044-.1.073.073,0,0,1,.094-.045l3.134,1.151a.075.075,0,0,1,0,.141l-3.178,1.154a.07.07,0,0,1-.025,0Z" transform="translate(-941.169 -155.512)" fill="#1492ab"/>
            <g id="Group_824" data-name="Group 824" transform="translate(1.464)">
              <path id="Path_8289" data-name="Path 8289" d="M942.785,123.956h.7v7.056h-.7a.786.786,0,0,1-.785-.785v-5.486a.786.786,0,0,1,.785-.785Z" transform="translate(-942 -123.956)" fill="#1492ab"/>
              <rect id="Rectangle_2007" data-name="Rectangle 2007" width="0.744" height="7.056" transform="translate(0.744 0)" fill="#1492ab"/>
            </g>
            <g id="Group_826" data-name="Group 826" transform="translate(4.374 4.227)">
              <path id="Path_8290" data-name="Path 8290" d="M950.6,142.9v.429a.136.136,0,0,0,.123.136l1.451.128v-.312l-1.394-.509a.135.135,0,0,0-.18.129Z" transform="translate(-950.6 -140.63)" fill="#1492ab"/>
              <g id="Group_825" data-name="Group 825" transform="translate(0.457)">
                <ellipse id="Ellipse_66" data-name="Ellipse 66" cx="0.831" cy="1.755" rx="0.831" ry="1.755" transform="translate(0 0.41) rotate(-14.301)" fill="#1492ab"/>
                <path id="Path_8291" data-name="Path 8291" d="M955.627,138.515c-.235-.913-.767-1.568-1.2-1.494a1.564,1.564,0,0,1,.4.709c.15.575.076.912.236,1.324a6.376,6.376,0,0,1,.194,1.376l.007,0c.443-.118.607-.974.365-1.913Z" transform="translate(-953.586 -136.824)" fill="#1492ab"/>
              </g>
            </g>
            <g id="Group_828" data-name="Group 828" transform="translate(0 7.584)">
              <path id="Path_8292" data-name="Path 8292" d="M942.432,151.876v.366a.115.115,0,0,1-.1.116l-1.237.109V152.2l1.188-.434a.115.115,0,0,1,.153.11Z" transform="translate(-939.934 -149.936)" fill="#1492ab"/>
              <g id="Group_827" data-name="Group 827">
                <ellipse id="Ellipse_67" data-name="Ellipse 67" cx="1.496" cy="0.708" rx="1.496" ry="0.708" transform="translate(0 2.899) rotate(-75.698)" fill="#1492ab"/>
                <path id="Path_8293" data-name="Path 8293" d="M940.8,148.517c-.2.778-.654,1.336-1.026,1.273a1.333,1.333,0,0,0,.342-.6c.128-.49.065-.777.2-1.129a5.446,5.446,0,0,0,.166-1.172h.006c.378.1.517.83.311,1.631Z" transform="translate(-939.065 -146.711)" fill="#1492ab"/>
              </g>
            </g>
          </g>
          <g id="Group_831" data-name="Group 831" transform="translate(0 20.456)">
            <path id="Path_8294" data-name="Path 8294" d="M998.281,118.382a.119.119,0,0,1-.118-.119v-.335a.118.118,0,1,1,.236,0v.335A.119.119,0,0,1,998.281,118.382Zm0-1a.119.119,0,0,1-.118-.119v-.335a.118.118,0,1,1,.236,0v.335A.119.119,0,0,1,998.281,117.378Zm0-1a.119.119,0,0,1-.118-.119v-.335a.118.118,0,1,1,.236,0v.335A.119.119,0,0,1,998.281,116.374Zm0-1a.119.119,0,0,1-.118-.119v-.335a.118.118,0,1,1,.236,0v.335A.119.119,0,0,1,998.281,115.37Zm0-1a.119.119,0,0,1-.118-.119v-.335a.118.118,0,1,1,.236,0v.335A.119.119,0,0,1,998.281,114.366Zm0-1a.119.119,0,0,1-.118-.119v-.335a.118.118,0,1,1,.236,0v.335A.119.119,0,0,1,998.281,113.361Zm0-1a.119.119,0,0,1-.118-.119V111.9a.118.118,0,1,1,.236,0v.335A.119.119,0,0,1,998.281,112.357Zm0-1a.119.119,0,0,1-.118-.119V110.9a.118.118,0,1,1,.236,0v.335A.119.119,0,0,1,998.281,111.353Zm0-1a.119.119,0,0,1-.118-.119v-.335a.118.118,0,1,1,.236,0v.335A.119.119,0,0,1,998.281,110.349Zm0-1a.119.119,0,0,1-.118-.119v-.335a.118.118,0,1,1,.236,0v.335A.119.119,0,0,1,998.281,109.344Zm0-1a.119.119,0,0,1-.118-.119v-.335a.118.118,0,1,1,.236,0v.335A.119.119,0,0,1,998.281,108.34Zm0-1a.119.119,0,0,1-.118-.119v-.335a.118.118,0,1,1,.236,0v.335A.119.119,0,0,1,998.281,107.336Zm0-1a.119.119,0,0,1-.118-.119v-.335a.118.118,0,1,1,.236,0v.335A.119.119,0,0,1,998.281,106.332Zm0-1a.119.119,0,0,1-.118-.119v-.335a.118.118,0,1,1,.236,0v.335A.119.119,0,0,1,998.281,105.327Zm0-1a.119.119,0,0,1-.118-.119v-.335a.118.118,0,1,1,.236,0v.335A.119.119,0,0,1,998.281,104.323Zm0-1a.119.119,0,0,1-.118-.119v-.335a.118.118,0,1,1,.236,0v.335A.119.119,0,0,1,998.281,103.319Zm0-1a.119.119,0,0,1-.118-.119v-.335a.118.118,0,1,1,.236,0v.335A.119.119,0,0,1,998.281,102.314Zm0-1a.119.119,0,0,1-.118-.119v-.335a.118.118,0,1,1,.236,0v.335A.119.119,0,0,1,998.281,101.31Zm0-1a.119.119,0,0,1-.118-.119v-.335a.118.118,0,1,1,.236,0v.335A.119.119,0,0,1,998.281,100.306Zm-.5-.5h-.33a.119.119,0,0,1,0-.239h.33a.119.119,0,0,1,0,.239Zm-.988,0h-.33a.119.119,0,0,1,0-.239h.33a.119.119,0,0,1,0,.239Zm-.988,0h-.33a.119.119,0,0,1,0-.239h.33a.119.119,0,0,1,0,.239Zm-.988,0h-.33a.119.119,0,0,1,0-.239h.33a.119.119,0,0,1,0,.239Zm-.988,0h-.33a.119.119,0,0,1,0-.239h.33a.119.119,0,0,1,0,.239Zm-.988,0h-.33a.119.119,0,0,1,0-.239h.33a.119.119,0,0,1,0,.239Zm-.988,0h-.33a.119.119,0,0,1,0-.239h.33a.119.119,0,0,1,0,.239Z" transform="translate(-961.19 -91.964)" fill="#1492ab"/>
            <ellipse id="Ellipse_68" data-name="Ellipse 68" cx="0.769" cy="0.782" rx="0.769" ry="0.782" transform="translate(29.563 6.942)" fill="#1492ab"/>
            <ellipse id="Ellipse_69" data-name="Ellipse 69" cx="0.769" cy="0.782" rx="0.769" ry="0.782" transform="translate(12.508 4.538)" fill="#1492ab"/>
            <path id="Path_8295" data-name="Path 8295" d="M932.028,121.144a.119.119,0,0,1-.118-.119v-.335a.118.118,0,1,1,.235,0v.335A.119.119,0,0,1,932.028,121.144Zm0-1a.119.119,0,0,1-.118-.119v-.335a.118.118,0,1,1,.235,0v.335A.119.119,0,0,1,932.028,120.14Zm0-1a.119.119,0,0,1-.118-.119v-.335a.118.118,0,1,1,.235,0v.335A.119.119,0,0,1,932.028,119.136Zm0-1a.119.119,0,0,1-.118-.119v-.335a.118.118,0,1,1,.235,0v.335A.119.119,0,0,1,932.028,118.132Zm0-1a.119.119,0,0,1-.118-.119v-.335a.118.118,0,1,1,.235,0v.335A.119.119,0,0,1,932.028,117.128Zm0-1a.119.119,0,0,1-.118-.119v-.335a.118.118,0,1,1,.235,0V116A.119.119,0,0,1,932.028,116.123Zm0-1a.119.119,0,0,1-.118-.119v-.335a.118.118,0,1,1,.235,0V115A.119.119,0,0,1,932.028,115.119Zm0-1a.119.119,0,0,1-.118-.119v-.335a.118.118,0,1,1,.235,0V114A.119.119,0,0,1,932.028,114.115Zm0-1a.119.119,0,0,1-.118-.119v-.335a.118.118,0,1,1,.235,0v.335A.119.119,0,0,1,932.028,113.111Zm0-1a.119.119,0,0,1-.118-.119v-.335a.118.118,0,1,1,.235,0v.335A.119.119,0,0,1,932.028,112.106Zm0-1a.119.119,0,0,1-.118-.119v-.335a.118.118,0,1,1,.235,0v.335A.119.119,0,0,1,932.028,111.1Zm0-1a.119.119,0,0,1-.118-.119v-.335a.118.118,0,1,1,.235,0v.335A.119.119,0,0,1,932.028,110.1Zm0-1a.119.119,0,0,1-.118-.119v-.335a.118.118,0,1,1,.235,0v.335A.119.119,0,0,1,932.028,109.094Zm0-1a.119.119,0,0,1-.118-.119v-.335a.118.118,0,1,1,.235,0v.335A.119.119,0,0,1,932.028,108.089Zm0-1a.119.119,0,0,1-.118-.119v-.335a.118.118,0,1,1,.235,0v.335A.119.119,0,0,1,932.028,107.085Zm0-1a.119.119,0,0,1-.118-.119v-.335a.118.118,0,1,1,.235,0v.335A.119.119,0,0,1,932.028,106.081Zm0-1a.119.119,0,0,1-.118-.119v-.335a.118.118,0,1,1,.235,0v.335A.119.119,0,0,1,932.028,105.077Zm0-1a.119.119,0,0,1-.118-.119v-.335a.118.118,0,1,1,.235,0v.335A.119.119,0,0,1,932.028,104.072Zm0-1a.119.119,0,0,1-.118-.119v-.335a.118.118,0,1,1,.235,0v.335A.119.119,0,0,1,932.028,103.068Zm0-1a.119.119,0,0,1-.118-.119v-.335a.118.118,0,1,1,.235,0v.335A.119.119,0,0,1,932.028,102.064Zm0-1a.119.119,0,0,1-.118-.119v-.335a.118.118,0,1,1,.235,0v.335A.119.119,0,0,1,932.028,101.06Zm0-1a.119.119,0,0,1-.118-.119V99.6a.118.118,0,1,1,.235,0v.335A.119.119,0,0,1,932.028,100.055Zm0-1a.119.119,0,0,1-.118-.119V98.6a.118.118,0,1,1,.235,0v.335A.119.119,0,0,1,932.028,99.051Zm0-1a.119.119,0,0,1-.118-.119v-.335a.118.118,0,1,1,.235,0v.335A.119.119,0,0,1,932.028,98.047Zm0-1a.119.119,0,0,1-.118-.119v-.335a.118.118,0,1,1,.235,0v.335A.119.119,0,0,1,932.028,97.043Zm0-1a.119.119,0,0,1-.118-.119v-.335a.118.118,0,1,1,.235,0v.335A.119.119,0,0,1,932.028,96.039Zm0-1a.119.119,0,0,1-.118-.119V94.58a.118.118,0,1,1,.235,0v.335A.119.119,0,0,1,932.028,95.034Zm0-1a.119.119,0,0,1-.118-.119v-.335a.118.118,0,1,1,.235,0v.335A.119.119,0,0,1,932.028,94.03Zm0-1a.119.119,0,0,1-.118-.119V92.59a.119.119,0,0,1,.118-.119h.019a.119.119,0,0,1,.118.119.12.12,0,0,1-.019.065v.251A.119.119,0,0,1,932.028,93.026Zm2.984-.316h-.33a.119.119,0,0,1,0-.239h.33a.119.119,0,0,1,0,.239Zm-.988,0h-.33a.119.119,0,0,1,0-.239h.33a.119.119,0,0,1,0,.239Zm-.988,0h-.33a.119.119,0,0,1,0-.239h.33a.119.119,0,0,1,0,.239Z" transform="translate(-921.826 -87.266)" fill="#1492ab"/>
            <ellipse id="Ellipse_70" data-name="Ellipse 70" cx="0.769" cy="0.782" rx="0.769" ry="0.782" transform="translate(13.894)" fill="#1492ab"/>
            <path id="Path_8296" data-name="Path 8296" d="M902.225,102.6a.119.119,0,0,1-.118-.119v-.335a.118.118,0,1,1,.236,0v.335A.119.119,0,0,1,902.225,102.6Zm0-1a.119.119,0,0,1-.118-.119v-.335a.118.118,0,1,1,.236,0v.335A.119.119,0,0,1,902.225,101.593Zm0-1a.119.119,0,0,1-.118-.119v-.335a.118.118,0,1,1,.236,0v.335A.119.119,0,0,1,902.225,100.589Zm0-1a.119.119,0,0,1-.118-.119v-.335a.118.118,0,1,1,.236,0v.335A.119.119,0,0,1,902.225,99.585Zm0-1a.119.119,0,0,1-.118-.119v-.335a.118.118,0,1,1,.236,0v.335A.119.119,0,0,1,902.225,98.58Zm0-1a.119.119,0,0,1-.118-.119v-.335a.118.118,0,1,1,.236,0v.335A.119.119,0,0,1,902.225,97.576Zm0-1a.119.119,0,0,1-.118-.119v-.335a.118.118,0,1,1,.236,0v.335A.119.119,0,0,1,902.225,96.572Zm0-1a.119.119,0,0,1-.118-.119v-.335a.118.118,0,1,1,.236,0v.335A.119.119,0,0,1,902.225,95.568Zm0-1a.119.119,0,0,1-.118-.119v-.335a.118.118,0,1,1,.236,0v.335A.119.119,0,0,1,902.225,94.563Zm0-1a.119.119,0,0,1-.118-.119v-.335a.118.118,0,1,1,.236,0v.335A.119.119,0,0,1,902.225,93.559Zm0-1a.119.119,0,0,1-.118-.119V92.1a.118.118,0,1,1,.236,0v.335A.119.119,0,0,1,902.225,92.555Zm0-1a.119.119,0,0,1-.118-.119V91.1a.118.118,0,1,1,.236,0v.335A.119.119,0,0,1,902.225,91.551Zm0-1a.119.119,0,0,1-.118-.119v-.335a.118.118,0,1,1,.236,0v.335A.119.119,0,0,1,902.225,90.546Zm0-1a.119.119,0,0,1-.118-.119v-.335a.118.118,0,1,1,.236,0v.335A.119.119,0,0,1,902.225,89.542Zm0-1a.119.119,0,0,1-.118-.119v-.335a.118.118,0,1,1,.236,0v.335A.119.119,0,0,1,902.225,88.538Zm0-1a.119.119,0,0,1-.118-.119V87.08a.118.118,0,1,1,.236,0v.335A.119.119,0,0,1,902.225,87.534Zm0-1a.119.119,0,0,1-.118-.119v-.335a.118.118,0,1,1,.236,0v.335A.119.119,0,0,1,902.225,86.53Zm0-1a.119.119,0,0,1-.118-.119v-.335a.118.118,0,1,1,.236,0v.335A.119.119,0,0,1,902.225,85.525Zm0-1a.119.119,0,0,1-.118-.119v-.335a.118.118,0,1,1,.236,0V84.4A.119.119,0,0,1,902.225,84.521Zm0-1a.119.119,0,0,1-.118-.119v-.335a.118.118,0,1,1,.236,0V83.4A.119.119,0,0,1,902.225,83.517Zm0-1a.119.119,0,0,1-.118-.119v-.335a.118.118,0,1,1,.236,0v.335A.119.119,0,0,1,902.225,82.513Zm0-1a.119.119,0,0,1-.118-.119v-.335a.118.118,0,1,1,.236,0v.335A.119.119,0,0,1,902.225,81.508Zm0-1a.119.119,0,0,1-.118-.119V80.05a.118.118,0,1,1,.236,0v.335A.119.119,0,0,1,902.225,80.5Zm0-1a.119.119,0,0,1-.118-.119v-.2a.119.119,0,0,1,.118-.119h.128a.119.119,0,0,1,0,.239h-.01v.085A.119.119,0,0,1,902.225,79.5Zm13.965-.2h-.33a.119.119,0,0,1,0-.239h.33a.119.119,0,0,1,0,.239Zm-.988,0h-.33a.119.119,0,0,1,0-.239h.33a.119.119,0,0,1,0,.239Zm-.988,0h-.33a.119.119,0,0,1,0-.239h.33a.119.119,0,0,1,0,.239Zm-.988,0h-.33a.119.119,0,0,1,0-.239h.33a.119.119,0,0,1,0,.239Zm-.988,0h-.33a.119.119,0,0,1,0-.239h.33a.119.119,0,0,1,0,.239Zm-.988,0h-.33a.119.119,0,0,1,0-.239h.33a.119.119,0,0,1,0,.239Zm-.988,0h-.33a.119.119,0,0,1,0-.239h.33a.119.119,0,0,1,0,.239Zm-.988,0h-.33a.119.119,0,0,1,0-.239h.33a.119.119,0,0,1,0,.239Zm-.988,0h-.33a.119.119,0,0,1,0-.239h.33a.119.119,0,0,1,0,.239Zm-.988,0h-.33a.119.119,0,0,1,0-.239h.33a.119.119,0,0,1,0,.239Zm-.988,0h-.33a.119.119,0,0,1,0-.239h.33a.119.119,0,0,1,0,.239Zm-.988,0h-.33a.119.119,0,0,1,0-.239h.33a.119.119,0,0,1,0,.239Zm-.988,0H904a.119.119,0,0,1,0-.239h.33a.119.119,0,0,1,0,.239Zm-.988,0h-.33a.119.119,0,0,1,0-.239h.33a.119.119,0,0,1,0,.239Z" transform="translate(-902.107 -78.39)" fill="#1492ab"/>
            <g id="Group_830" data-name="Group 830" transform="translate(34.485 2.139)">
              <ellipse id="Ellipse_71" data-name="Ellipse 71" cx="0.769" cy="0.782" rx="0.769" ry="0.782" fill="#1492ab"/>
              <path id="Path_8297" data-name="Path 8297" d="M1027.32,108.089a.119.119,0,0,1-.118-.119v-.335a.118.118,0,1,1,.236,0v.335A.119.119,0,0,1,1027.32,108.089Zm0-1a.119.119,0,0,1-.118-.119v-.335a.118.118,0,1,1,.236,0v.335A.119.119,0,0,1,1027.32,107.084Zm0-1a.119.119,0,0,1-.118-.119v-.335a.118.118,0,1,1,.236,0v.335A.119.119,0,0,1,1027.32,106.08Zm0-1a.119.119,0,0,1-.118-.119v-.335a.118.118,0,1,1,.236,0v.335A.119.119,0,0,1,1027.32,105.076Zm0-1a.119.119,0,0,1-.118-.119v-.335a.118.118,0,1,1,.236,0v.335A.119.119,0,0,1,1027.32,104.072Zm0-1a.119.119,0,0,1-.118-.119v-.335a.118.118,0,1,1,.236,0v.335A.119.119,0,0,1,1027.32,103.067Zm0-1a.119.119,0,0,1-.118-.119v-.335a.118.118,0,1,1,.236,0v.335A.119.119,0,0,1,1027.32,102.063Zm0-1a.119.119,0,0,1-.118-.119V100.6a.118.118,0,1,1,.236,0v.335A.119.119,0,0,1,1027.32,101.059Zm0-1a.119.119,0,0,1-.118-.119V99.6a.118.118,0,1,1,.236,0v.335A.119.119,0,0,1,1027.32,100.055Zm0-1a.119.119,0,0,1-.118-.119V98.6a.118.118,0,1,1,.236,0v.335A.119.119,0,0,1,1027.32,99.051Zm0-1a.119.119,0,0,1-.118-.119v-.335a.118.118,0,1,1,.236,0v.335A.119.119,0,0,1,1027.32,98.046Zm0-1a.119.119,0,0,1-.118-.119v-.335a.118.118,0,1,1,.236,0v.335A.119.119,0,0,1,1027.32,97.042Zm0-1a.119.119,0,0,1-.118-.119v-.335a.118.118,0,1,1,.236,0v.335A.119.119,0,0,1,1027.32,96.038Zm0-1a.119.119,0,0,1-.118-.119v-.335a.118.118,0,1,1,.236,0v.335A.119.119,0,0,1,1027.32,95.034Zm0-1a.119.119,0,0,1-.118-.119v-.335a.118.118,0,1,1,.236,0v.335A.119.119,0,0,1,1027.32,94.029Zm0-1a.119.119,0,0,1-.118-.119v-.335a.118.118,0,1,1,.236,0v.335A.119.119,0,0,1,1027.32,93.025Zm0-1a.119.119,0,0,1-.118-.119v-.335a.118.118,0,1,1,.236,0V91.9A.119.119,0,0,1,1027.32,92.021Zm0-1a.119.119,0,0,1-.118-.119v-.335a.118.118,0,1,1,.236,0V90.9A.119.119,0,0,1,1027.32,91.017Zm0-1a.119.119,0,0,1-.118-.119v-.335a.118.118,0,1,1,.236,0v.335A.119.119,0,0,1,1027.32,90.012Zm0-1a.119.119,0,0,1-.118-.119v-.335a.118.118,0,1,1,.236,0v.335A.119.119,0,0,1,1027.32,89.008Zm0-1a.119.119,0,0,1-.118-.119V87.55a.118.118,0,1,1,.236,0v.335A.119.119,0,0,1,1027.32,88Zm0-1a.119.119,0,0,1-.118-.119v-.335a.118.118,0,1,1,.236,0v.335A.119.119,0,0,1,1027.32,87Zm0-1a.119.119,0,0,1-.118-.119v-.335a.118.118,0,1,1,.236,0v.335A.119.119,0,0,1,1027.32,86Zm-.616-.379h-.329a.119.119,0,0,1,0-.239h.329a.119.119,0,0,1,0,.239Zm-.988,0h-.33a.119.119,0,0,1,0-.239h.33a.119.119,0,0,1,0,.239Zm-.988,0h-.33a.119.119,0,0,1,0-.239h.33a.119.119,0,0,1,0,.239Zm-.988,0h-.33a.119.119,0,0,1,0-.239h.33a.119.119,0,0,1,0,.239Zm-.988,0h-.33a.119.119,0,0,1,0-.239h.33a.119.119,0,0,1,0,.239Zm-.988,0h-.33a.119.119,0,0,1,0-.239h.33a.119.119,0,0,1,0,.239Zm-.988,0h-.33a.119.119,0,0,1,0-.239h.33a.119.119,0,0,1,0,.239Zm-.988,0h-.33a.119.119,0,0,1,0-.239h.33a.119.119,0,0,1,0,.239Zm-.988,0h-.33a.119.119,0,0,1,0-.239h.33a.119.119,0,0,1,0,.239Zm-.988,0h-.33a.119.119,0,0,1,0-.239h.33a.119.119,0,0,1,0,.239Zm-.988,0h-.33a.119.119,0,0,1,0-.239h.33a.119.119,0,0,1,0,.239Zm-.988,0h-.33a.119.119,0,0,1,0-.239h.33a.119.119,0,0,1,0,.239Zm-.988,0h-.33a.119.119,0,0,1,0-.239h.33a.119.119,0,0,1,0,.239Zm-.988,0h-.33a.119.119,0,0,1,0-.239h.33a.119.119,0,0,1,0,.239Zm-.988,0h-.33a.119.119,0,0,1,0-.239h.33a.119.119,0,0,1,0,.239Zm-.988,0h-.33a.119.119,0,0,1,0-.239h.33a.119.119,0,0,1,0,.239Zm-.988,0h-.33a.119.119,0,0,1,0-.239h.33a.119.119,0,0,1,0,.239Zm-.988,0h-.33a.119.119,0,0,1,0-.239h.33a.119.119,0,0,1,0,.239Zm-.988,0h-.33a.119.119,0,0,1,0-.239h.33a.119.119,0,0,1,0,.239Zm-.988,0h-.33a.119.119,0,0,1,0-.239h.33a.119.119,0,0,1,0,.239Z" transform="translate(-1006.311 -84.712)" fill="#1492ab"/>
            </g>
          </g>
          <g id="Group_832" data-name="Group 832" transform="translate(35.255 10.97)">
            <path id="Path_8298" data-name="Path 8298" d="M1006.4,63.367a.407.407,0,0,1,.144-.321,3,3,0,0,0-.088-4.326.409.409,0,0,1-.076-.567.4.4,0,0,1,.558-.078,3.816,3.816,0,0,1,.114,5.6.394.394,0,0,1-.561-.054.406.406,0,0,1-.091-.249Z" transform="translate(-1006.301 -54.968)" fill="#1492ab"/>
            <path id="Path_8299" data-name="Path 8299" d="M1012.4,61.6a.406.406,0,0,1,.131-.309,5.738,5.738,0,0,0-.158-7.789.409.409,0,0,1-.052-.57.394.394,0,0,1,.561-.052,6.543,6.543,0,0,1,.183,9.013.394.394,0,0,1-.563-.029.407.407,0,0,1-.1-.263Z" transform="translate(-1010.221 -51.521)" fill="#1492ab"/>
            <path id="Path_8300" data-name="Path 8300" d="M1020.07,60.282a.408.408,0,0,1,.1-.278,7.8,7.8,0,0,0,1.512-5.165,7.789,7.789,0,0,0-1.721-5.1.409.409,0,0,1,.008-.572.394.394,0,0,1,.563.008,8.606,8.606,0,0,1,1.945,5.645,8.614,8.614,0,0,1-1.714,5.722.394.394,0,0,1-.562.032.406.406,0,0,1-.133-.294Z" transform="translate(-1015.266 -49.054)" fill="#1492ab"/>
          </g>
          <g id="Group_833" data-name="Group 833" transform="translate(7.522 3.038)">
            <path id="Path_8301" data-name="Path 8301" d="M944.32,44.455a.474.474,0,0,0-.112-.393,3.224,3.224,0,0,1-.636-2.657,3.188,3.188,0,0,1,1.467-2.292.474.474,0,0,0,.183-.638.459.459,0,0,0-.627-.186,4.128,4.128,0,0,0-1.934,2.958,4.176,4.176,0,0,0,.86,3.443.457.457,0,0,0,.653.036.47.47,0,0,0,.147-.27Z" transform="translate(-936.417 -33.961)" fill="#1492ab"/>
            <path id="Path_8302" data-name="Path 8302" d="M935.665,41.378a.474.474,0,0,0-.1-.377,6.066,6.066,0,0,1-1-4.758,6,6,0,0,1,2.492-4.153.474.474,0,0,0,.155-.645.458.458,0,0,0-.635-.158,6.946,6.946,0,0,0-2.924,4.8,7.02,7.02,0,0,0,1.193,5.512.457.457,0,0,0,.651.065.47.47,0,0,0,.162-.284Z" transform="translate(-930.427 -29.321)" fill="#1492ab"/>
            <path id="Path_8303" data-name="Path 8303" d="M926.365,38.532a.473.473,0,0,0-.069-.337A9.074,9.074,0,0,1,925.431,32a8.994,8.994,0,0,1,2.834-5.55.475.475,0,0,0,.087-.658.457.457,0,0,0-.648-.088,9.934,9.934,0,0,0-3.185,6.139,10.028,10.028,0,0,0,1,6.865.458.458,0,0,0,.64.135.47.47,0,0,0,.2-.314Z" transform="translate(-924.337 -25.612)" fill="#1492ab"/>
          </g>
        </g>
        <g id="Group_834" data-name="Group 834" transform="translate(40.307 41.163)">
          <path id="Path_8304" data-name="Path 8304" d="M1041.568,148.724l-.812,1.276-8.155,12.811a1.3,1.3,0,0,1-1.009.6,1.283,1.283,0,0,1-1.083-.454l-6.727-7.845-9.4,14.091-.109.162a1.292,1.292,0,0,1-.59.485,1.561,1.561,0,0,0-1.476-1.07,1.942,1.942,0,0,0-.319.03,1.3,1.3,0,0,1,.21-.9l.022-.03,10.44-15.664a1.313,1.313,0,0,1,2.084-.131l6.7,7.814,7.164-11.256.786-1.232a2.242,2.242,0,0,0,2.044,1.319,2.038,2.038,0,0,0,.231-.013Z" transform="translate(-1009.754 -144.329)" fill="#1492ab"/>
          <circle id="Oval" cx="1.308" cy="1.308" r="1.308" transform="translate(12.59 25.615)" fill="#1492ab"/>
          <circle id="Ellipse_72" data-name="Ellipse 72" cx="1.308" cy="1.308" r="1.308" transform="translate(12.59 20.384)" fill="#1492ab"/>
          <circle id="Ellipse_73" data-name="Ellipse 73" cx="1.308" cy="1.308" r="1.308" transform="translate(12.59 15.153)" fill="#1492ab"/>
          <circle id="Ellipse_74" data-name="Ellipse 74" cx="1.308" cy="1.308" r="1.308" transform="translate(29.592 25.615)" fill="#1492ab"/>
          <circle id="Ellipse_75" data-name="Ellipse 75" cx="1.308" cy="1.308" r="1.308" transform="translate(29.592 20.384)" fill="#1492ab"/>
          <circle id="Ellipse_76" data-name="Ellipse 76" cx="1.308" cy="1.308" r="1.308" transform="translate(29.592 15.153)" fill="#1492ab"/>
          <circle id="Ellipse_77" data-name="Ellipse 77" cx="1.308" cy="1.308" r="1.308" transform="translate(29.592 9.922)" fill="#1492ab"/>
          <path id="Path_8305" data-name="Path 8305" d="M1093.5,138.289a2.455,2.455,0,0,0-.4,4.876,2.513,2.513,0,0,0,.4.033,2.455,2.455,0,1,0,0-4.909Zm.159,4a1.4,1.4,0,0,1-.159.009,1.543,1.543,0,0,1-1.407-.908,1.5,1.5,0,0,1-.144-.643,1.553,1.553,0,1,1,1.711,1.542Z" transform="translate(-1062.136 -138.289)" fill="#1492ab"/>
          <path id="Path_8306" data-name="Path 8306" d="M1010.226,209.222a2.445,2.445,0,0,0-2.175-1.324.552.552,0,0,0-.087,0,2.453,2.453,0,1,0,2.542,2.45,2.425,2.425,0,0,0-.279-1.131Zm-2.018,2.673a.943.943,0,0,1-.157.009,1.54,1.54,0,0,1-1.406-.908,1.442,1.442,0,0,1-.144-.642,1.559,1.559,0,0,1,1.232-1.524,1.914,1.914,0,0,1,.319-.03,1.56,1.56,0,0,1,1.476,1.07,1.482,1.482,0,0,1,.078.485,1.554,1.554,0,0,1-1.4,1.542Z" transform="translate(-1005.596 -184.345)" fill="#1492ab"/>
        </g>
      </g>
    </g>
  </g>
</svg>
