<svg xmlns="http://www.w3.org/2000/svg" width="105.412" height="74.061" viewBox="0 0 105.412 74.061">
  <g id="Delivery-OperatingSystem" transform="translate(-884.938 -48.653)">
    <g id="Group_817" data-name="Group 817" transform="translate(966.274 81.832)">
      <rect id="Rectangle_2001" data-name="Rectangle 2001" width="1.975" height="2.152" transform="translate(0 17.142)" fill="#0f91ab"/>
      <rect id="Rectangle_2002" data-name="Rectangle 2002" width="1.975" height="2.152" transform="translate(2.241 0)" fill="#0f91ab"/>
      <rect id="Rectangle_2003" data-name="Rectangle 2003" width="1.975" height="2.152" transform="translate(8.788 9.077)" fill="#0f91ab"/>
    </g>
    <rect id="Rectangle_2004" data-name="Rectangle 2004" width="1.975" height="2.152" transform="translate(906.603 94.879)" fill="#0f91ab"/>
    <rect id="Rectangle_2005" data-name="Rectangle 2005" width="1.975" height="2.152" transform="translate(897.815 86.813)" fill="#0f91ab"/>
    <path id="Path_8262" data-name="Path 8262" d="M990.349,92.158a18.543,18.543,0,0,1-18.548,18.58H951.189l.024-.012c.318-.157.612-.318.929-.5l.094-.055c.227-.137.451-.282.718-.467l.055-.039a.856.856,0,0,0,.1-.067c.173-.126.345-.259.541-.427l.043-.035c.047-.043.1-.082.141-.126.126-.113.243-.231.388-.384.063-.07.129-.141.188-.211.082-.1.161-.208.255-.341.055-.078.106-.157.153-.235a3.24,3.24,0,0,0,.157-.31c.035-.082.067-.161.094-.243a.748.748,0,0,0,.023-.078H971.8a15.035,15.035,0,0,0,0-30.069,10.21,10.21,0,0,0-1.231.047l-1.729.231-.255-1.722a27.494,27.494,0,0,0-50.908-9.933l-.721,1.243-1.365-.455A16.492,16.492,0,0,0,913.426,66l-.043-.008a19.336,19.336,0,0,0-4.094-.439,20.827,20.827,0,0,0,0,41.653h10.9c.008.024.016.051.024.074.028.078.059.161.094.243.047.1.1.2.157.31.047.078.1.157.153.235.09.133.168.239.255.345.055.063.114.125.169.184a5.684,5.684,0,0,0,.4.408c.039.035.082.071.125.106l.067.059c.192.165.365.3.533.419a.726.726,0,0,0,.094.067l.067.047c.247.173.478.321.71.459l.106.063c.3.176.6.333.894.482.02.008.035.02.055.028H909.29a24.356,24.356,0,0,1,0-48.712,22.821,22.821,0,0,1,4.823.514c.435.086.843.172,1.235.27a31.292,31.292,0,0,1,9.733-9.517,30.953,30.953,0,0,1,37.524,3.784,31.212,31.212,0,0,1,9.2,16.533,18.543,18.543,0,0,1,18.544,18.548Z" transform="translate(0)" fill="#0f91ab"/>
    <path id="Icon_awesome-user-lock" data-name="Icon awesome-user-lock" d="M964.914,150.1a10.58,10.58,0,1,0-10.58-10.58A10.58,10.58,0,0,0,964.914,150.1Zm7.935,5.29a5.215,5.215,0,0,1,.67-2.522,11.288,11.288,0,0,0-1.2-.123h-1.38a14.389,14.389,0,0,1-12.052,0h-1.38A11.112,11.112,0,0,0,946.4,163.858V167.3a3.968,3.968,0,0,0,3.968,3.965h23.219a5.254,5.254,0,0,1-.736-2.645V155.394Zm23.806-2.645h-2.645v-6.613a6.613,6.613,0,0,0-13.226,0v6.613h-2.645a2.645,2.645,0,0,0-2.645,2.645v13.225a2.645,2.645,0,0,0,2.645,2.645h18.516a2.645,2.645,0,0,0,2.645-2.645V155.393A2.645,2.645,0,0,0,996.654,152.748Zm-9.258,11.9a2.645,2.645,0,1,1,2.645-2.645A2.645,2.645,0,0,1,987.4,164.651Zm2.645-11.9h-5.29v-6.613a2.645,2.645,0,1,1,5.29,0Z" transform="translate(-37.164 -48.55)" fill="#0f91ab"/>
  </g>
</svg>
