<svg width="175" height="194" viewBox="0 0 175 194" fill="none" xmlns="http://www.w3.org/2000/svg">
  <path fill-rule="evenodd" clip-rule="evenodd" d="M69.1809 187.542L68.539 185.309L67.3841 181.295L67.3585 181.209L67.3392 181.121C66.2587 176.252 69.061 168.834 69.3841 168.005L69.4563 167.816L61.1461 142.212L59.9768 138.605L60.9295 138.581C59.5296 131.341 58.6642 122.271 58.0047 113.939C57.4553 113.475 56.9493 112.962 56.493 112.405L51.6318 113.11C50.2345 113.988 48.6213 114.456 46.9739 114.462H46.945C45.8888 114.463 44.841 114.273 43.8517 113.901C42.5806 113.417 41.4313 112.658 40.4856 111.676C38.6971 109.814 37.7052 107.321 37.7228 104.732C37.7208 103.465 37.9554 102.21 38.4144 101.031L29.7148 86.42L29.6865 86.3727C28.8135 86.0232 28.01 85.5189 27.3142 84.8837C26.3051 83.9639 25.5364 82.8085 25.0756 81.5193C23.7531 82.0121 22.3548 82.2672 20.9446 82.2729C14.3851 82.2729 9.9053 76.6562 7.81972 73.308L7.84166 73.343C7.34695 72.6122 6.91975 71.8374 6.56539 71.0283L6 69.6287L6.80771 68.369L8.50065 65.7281L8.79752 65.2646L9.2415 64.9583L13.5384 61.9831L15.6603 60.5152L17.1409 62.6905L19.4068 66.0188L19.3666 65.9704C21.0184 68.2851 22.1593 69.2298 23.3051 69.2298C23.6119 69.2248 23.916 69.1723 24.207 69.0742C24.5744 67.8124 24.001 65.9817 23.7009 65.1699L23.6608 65.0622L23.6191 64.9616C23.308 64.2328 22.9543 63.5231 22.56 62.8363L21.7207 61.3388L22.6252 59.8853L22.6472 59.8498L23.7346 58.1106L23.3447 57.2067L25.3495 55.9073L29.7132 53.1081L31.6602 51.8592L33.1195 53.7034C34.0237 54.9839 34.8136 56.3423 35.48 57.7628L36.6076 60.1114L36.3439 60.2729C37.6175 64.2349 37.6041 67.9659 36.324 71.1935C36.8137 71.4771 37.2719 71.8126 37.6907 72.1942C38.5877 73.0252 39.2967 74.0406 39.7696 75.1714C40.2424 76.3023 40.4682 77.5223 40.4315 78.7486L40.7086 79.2331L50.0052 95.5556C50.0587 95.5761 50.1175 95.5971 50.1715 95.6186L54.8904 95.041C55.2439 94.3489 55.6555 93.6885 56.1207 93.067C56.5622 92.4747 57.0567 91.9244 57.5981 91.4231C57.8049 90.6473 58.0604 89.8855 58.363 89.1423L57.5436 89.0217L57.0413 87.3373C56.2461 84.6787 55.5903 81.9799 55.0766 79.252C51.7086 78.8367 48.5826 77.2764 46.216 74.8292C43.8046 72.2222 42.6321 68.8137 42.7273 64.6983C42.9151 56.6986 48.7995 52.9902 54.93 52.0261C55.9822 45.1584 61.5997 41.6836 64.3823 39.9632C64.8471 39.6757 65.3675 39.3888 65.9367 39.1073C65.5311 38.3641 65.2791 37.5459 65.1958 36.7021C65.1221 35.7322 65.2482 34.7574 65.5661 33.8387C65.884 32.92 66.3869 32.0773 67.0434 31.3632C67.0305 31.3046 67.0188 31.2475 67.0076 31.1904L67.0145 31.2222C65.2114 22.5043 65.7543 16.1028 68.6288 12.192C69.2872 11.2384 70.1355 10.4331 71.1198 9.82718C72.1042 9.22128 73.2029 8.82809 74.3464 8.67258C74.865 8.58624 75.3896 8.54232 75.9152 8.54123C84.8754 8.54123 87.0685 20.8302 88.004 26.0787C88.126 26.7656 88.2533 27.4783 88.3282 27.7474C88.4352 28.135 88.5216 28.5168 88.5876 28.8929C89.3938 29.4475 90.0734 30.1685 90.5812 31.0079C91.089 31.8473 91.4134 32.786 91.5327 33.7614C91.5901 34.338 91.5678 34.9199 91.4664 35.4904C96.1776 36.584 100.417 39.1662 103.565 42.8593L103.878 43.2603C104.065 43.4649 104.246 43.6775 104.419 43.8982C105.601 43.6924 106.797 43.5872 107.996 43.5838C114.573 43.5838 119.065 46.8535 120.648 52.7889C121.772 56.9984 121.282 60.9453 119.236 64.2009C117.111 67.4301 113.883 69.7631 110.164 70.758C110.436 73.8598 110.624 76.5475 110.735 78.2679L114.125 76.0458L114.154 76.0275L114.181 76.0114C114.22 75.9866 114.259 75.9629 114.298 75.9403C114.895 75.2102 115.599 74.575 116.384 74.0562L122.62 69.9409L121.99 71.9412L133.437 59.5963L133.811 59.1898C134.04 57.9951 134.526 56.8651 135.235 55.8794C135.944 54.8937 136.858 54.076 137.915 53.4838C138.407 53.2144 138.927 52.9998 139.466 52.8438C138.927 49.3905 139.733 45.7543 141.843 42.2095L141.622 41.9867L143.231 39.982C144.19 38.7637 145.256 37.6349 146.416 36.6096L148.24 35.1696L149.86 36.8599L153.492 40.6463L155.198 42.4227L154.594 43.2119L155.256 45.1282L155.265 45.1665L155.837 46.8088L154.686 48.0695C154.147 48.6463 153.644 49.2561 153.181 49.8955L153.127 49.9978L153.065 50.0645C152.596 50.7804 151.637 52.4223 151.717 53.739C152.119 54.0087 152.589 54.1596 153.072 54.1745C154.343 54.1745 155.895 52.96 157.106 51.9012L157.057 51.9383L159.99 49.2517L161.908 47.4968L163.651 49.4433L167.178 53.3853L167.544 53.7923L167.731 54.3155L168.801 57.2972L169.312 58.7226L168.453 59.9467C167.931 60.6426 167.347 61.289 166.709 61.8782L166.74 61.8496C164.538 64.0389 160.054 67.7139 154.758 67.7139C152.395 67.7097 150.088 66.9859 148.142 65.6377C147.413 66.7766 146.411 67.713 145.229 68.361C144.41 68.8091 143.517 69.1044 142.593 69.2325L142.556 69.2718L130.431 81.8407C130.565 83.6172 130.216 85.3969 129.419 86.9882C128.623 88.5794 127.41 89.9218 125.912 90.8708L125.105 91.373L124.73 91.3148C124.606 91.3687 124.478 91.4225 124.35 91.4688L123.334 92.1148L116.897 96.2086C119.184 104.064 121.831 126.556 122.904 136.259L124.087 136.405L123.563 139.346L119.685 161.113C123.014 162.81 126.295 165.375 126.561 168.948C126.797 172.14 126.372 174.019 125.808 175.124L125.219 178.125L124.929 179.6L123.6 180.154C123.16 180.337 121.379 180.937 116.973 180.937C112.866 180.878 108.769 180.529 104.711 179.895C99.8488 182.048 90.2025 184.968 71.3788 187.273L69.1857 187.542H69.1809ZM92.556 148.192L95.1316 155.17L96.7897 147.424L92.556 148.192Z" fill="#73A540"/>
  <path fill-rule="evenodd" clip-rule="evenodd" d="M69.1809 187.542L68.539 185.309L67.3841 181.295L67.3585 181.209L67.3392 181.121C66.2587 176.252 69.061 168.834 69.3841 168.005L69.4563 167.816L61.1461 142.212L59.9768 138.605L60.9295 138.581C59.5296 131.341 58.6642 122.271 58.0047 113.939C57.4553 113.475 56.9493 112.962 56.493 112.405L51.6318 113.11C50.2345 113.988 48.6213 114.456 46.9739 114.462H46.945C45.8888 114.463 44.841 114.273 43.8517 113.901C42.5806 113.417 41.4313 112.658 40.4856 111.676C38.6971 109.814 37.7052 107.321 37.7228 104.732C37.7208 103.465 37.9554 102.21 38.4144 101.031L29.7148 86.42L29.6865 86.3727C28.8135 86.0232 28.01 85.5189 27.3142 84.8837C26.3051 83.9639 25.5364 82.8085 25.0756 81.5193C23.7531 82.0121 22.3548 82.2672 20.9446 82.2729C14.3851 82.2729 9.9053 76.6563 7.81972 73.308L7.84166 73.343C7.34695 72.6122 6.91975 71.8374 6.56539 71.0283L6 69.6287L6.80771 68.369L8.50065 65.7281L8.79752 65.2646L9.2415 64.9583L13.5384 61.9831L15.6603 60.5152L17.1409 62.6905L19.4068 66.0188L19.3666 65.9704C21.0184 68.2851 22.1593 69.2298 23.3051 69.2298C23.6119 69.2248 23.9161 69.1723 24.207 69.0742C24.5744 67.8124 24.001 65.9817 23.7009 65.1699L23.6608 65.0622L23.6191 64.9616C23.308 64.2328 22.9543 63.5231 22.56 62.8363L21.7207 61.3388L22.6252 59.8853L22.6472 59.8498L23.7346 58.1106L23.3447 57.2067L25.3495 55.9073L29.7132 53.1081L31.6602 51.8592L33.1195 53.7034C34.0237 54.9839 34.8136 56.3423 35.48 57.7628L36.6076 60.1114L36.3439 60.2729C37.6175 64.2349 37.6041 67.9659 36.324 71.1935C36.8137 71.4771 37.2719 71.8126 37.6907 72.1942C38.5877 73.0252 39.2967 74.0406 39.7696 75.1714C40.2424 76.3023 40.4682 77.5223 40.4315 78.7486L40.7086 79.2331L50.0052 95.5556C50.0587 95.5761 50.1175 95.5971 50.1715 95.6186L54.8905 95.041C55.2439 94.3489 55.6555 93.6885 56.1207 93.067C56.5622 92.4747 57.0567 91.9244 57.5981 91.4231C57.8049 90.6473 58.0604 89.8855 58.363 89.1423L57.5436 89.0217L57.0413 87.3373C56.2461 84.6787 55.5903 81.9799 55.0766 79.252C51.7086 78.8367 48.5826 77.2764 46.216 74.8292C43.8046 72.2222 42.6321 68.8137 42.7273 64.6983C42.9151 56.6986 48.7995 52.9902 54.93 52.0261C55.9822 45.1584 61.5997 41.6836 64.3823 39.9632C64.8471 39.6757 65.3675 39.3888 65.9367 39.1073C65.5311 38.3641 65.2791 37.5459 65.1958 36.7021C65.1221 35.7322 65.2482 34.7574 65.5661 33.8387C65.884 32.92 66.3869 32.0773 67.0434 31.3632C67.0305 31.3046 67.0188 31.2475 67.0076 31.1904L67.0145 31.2222C65.2114 22.5043 65.7543 16.1028 68.6288 12.192C69.2872 11.2384 70.1355 10.4331 71.1198 9.82718C72.1042 9.22128 73.2029 8.82809 74.3464 8.67258C74.865 8.58624 75.3896 8.54232 75.9152 8.54123C84.8754 8.54123 87.0685 20.8302 88.004 26.0787C88.126 26.7656 88.2533 27.4783 88.3282 27.7474C88.4352 28.135 88.5216 28.5168 88.5876 28.8929C89.3938 29.4475 90.0734 30.1685 90.5812 31.0079C91.089 31.8473 91.4134 32.786 91.5327 33.7614C91.5901 34.338 91.5678 34.9199 91.4664 35.4904C96.1776 36.584 100.417 39.1662 103.565 42.8593L103.878 43.2603C104.065 43.4649 104.246 43.6775 104.419 43.8982C105.601 43.6924 106.797 43.5872 107.996 43.5838C114.573 43.5838 119.065 46.8535 120.648 52.7889C121.772 56.9984 121.282 60.9453 119.236 64.2009C117.111 67.4301 113.883 69.7631 110.164 70.758C110.436 73.8598 110.624 76.5475 110.735 78.2679L114.125 76.0458L114.154 76.0275L114.181 76.0114C114.22 75.9866 114.259 75.9629 114.298 75.9403C114.895 75.2102 115.599 74.575 116.384 74.0562L122.62 69.9409L121.99 71.9412L133.437 59.5963L133.811 59.1899C134.04 57.9951 134.526 56.8651 135.235 55.8794C135.944 54.8937 136.858 54.076 137.915 53.4838C138.407 53.2144 138.927 52.9998 139.466 52.8438C138.927 49.3905 139.733 45.7543 141.843 42.2095L141.622 41.9867L143.231 39.982C144.19 38.7637 145.256 37.6349 146.416 36.6096L148.24 35.1696L149.86 36.8599L153.492 40.6463L155.198 42.4227L154.594 43.2119L155.256 45.1282L155.265 45.1665L155.837 46.8088L154.686 48.0695C154.147 48.6463 153.644 49.2561 153.181 49.8955L153.127 49.9978L153.065 50.0645C152.596 50.7804 151.637 52.4223 151.717 53.739C152.119 54.0087 152.589 54.1596 153.072 54.1745C154.343 54.1745 155.895 52.96 157.106 51.9012L157.057 51.9383L159.99 49.2517L161.908 47.4968L163.651 49.4433L167.178 53.3853L167.544 53.7923L167.731 54.3155L168.801 57.2972L169.312 58.7226L168.453 59.9467C167.931 60.6426 167.347 61.289 166.709 61.8782L166.74 61.8496C164.538 64.0389 160.054 67.7139 154.758 67.7139C152.395 67.7097 150.088 66.9859 148.142 65.6377C147.413 66.7766 146.411 67.713 145.229 68.361C144.41 68.8091 143.517 69.1044 142.593 69.2325L142.556 69.2718L130.431 81.8407C130.565 83.6172 130.216 85.3969 129.419 86.9882C128.623 88.5794 127.41 89.9218 125.912 90.8708L125.105 91.373L124.73 91.3149C124.606 91.3687 124.478 91.4225 124.35 91.4688L123.334 92.1148L116.897 96.2086C119.184 104.064 121.831 126.556 122.904 136.259L124.087 136.405L123.563 139.346L119.685 161.113C123.014 162.81 126.295 165.375 126.561 168.948C126.797 172.14 126.372 174.019 125.808 175.124L125.219 178.125L124.929 179.6L123.6 180.154C123.16 180.337 121.379 180.937 116.973 180.937C112.866 180.878 108.769 180.529 104.711 179.895C99.8488 182.048 90.2025 184.968 71.3788 187.273L69.1857 187.542H69.1809ZM92.556 148.192L95.1316 155.17L96.7897 147.424L92.556 148.192Z" stroke="#73A540" stroke-width="11.103" stroke-linecap="round" stroke-linejoin="round"/>
  <path fill-rule="evenodd" clip-rule="evenodd" d="M69.0654 78.8989C69.1723 78.8483 69.2825 78.7982 69.3911 78.7497L69.4655 78.7169C69.2939 77.5786 69.1408 76.4232 69.006 75.2508C68.9953 76.5368 69.0188 77.762 69.0654 78.8989Z" stroke="white" stroke-width="11.797" stroke-linecap="round" stroke-linejoin="round"/>
  <path fill-rule="evenodd" clip-rule="evenodd" d="M94.6378 160.24C94.6683 160.201 94.6859 160.181 94.6859 160.181L96.3778 160.318L99.8509 144.09L89.3787 145.992L94.6378 160.24Z" stroke="white" stroke-width="11.797" stroke-linecap="round" stroke-linejoin="round"/>
  <path fill-rule="evenodd" clip-rule="evenodd" d="M166.215 57.0873L165.145 54.1056L161.617 50.1631L158.682 52.8497L158.686 52.8535C155.739 55.4304 152.758 57.1745 149.298 54.2391C148.344 51.8345 149.552 49.1527 150.777 47.2799L150.786 47.2934C151.355 46.4596 151.986 45.6706 152.674 44.9329L152.659 44.8936L152.661 44.8898L151.481 41.4883C151.504 41.457 151.522 41.4344 151.522 41.4344L147.89 37.648C146.897 38.5512 145.978 39.5342 145.142 40.5871L145.21 40.656C142.882 43.7631 140.285 48.9072 142.986 54.3758C142.335 54.1677 141.648 54.0946 140.968 54.1611C140.288 54.2277 139.628 54.4324 139.028 54.7629C137.774 55.4838 136.84 56.6582 136.415 58.0475C135.991 59.4368 136.108 60.9367 136.743 62.2421L135.223 60.3505L122.151 74.4455C120.642 74.1909 119.093 74.4985 117.794 75.3105C117.741 75.3455 117.684 75.3821 117.629 75.4182C117.585 75.5609 117.548 75.711 117.511 75.8607C117.558 75.6454 117.613 75.43 117.677 75.2271C117.036 75.6502 116.473 76.181 116.012 76.7963C115.964 76.8593 115.919 76.9255 115.875 76.9901C115.714 77.052 115.56 77.1286 115.414 77.2188L107.953 82.1072C106.791 80.9125 105.48 79.8751 104.053 79.0211C105.394 79.0437 106.746 79.1083 108.103 79.2278C108.103 79.2278 107.809 73.6375 107.15 66.9324C107.83 66.9979 108.516 66.9822 109.193 66.8855C111.202 66.6164 120.751 62.6835 117.994 52.3475C115.305 42.2629 103.313 45.7651 103.313 45.7651C103.26 45.7866 103.206 45.8114 103.149 45.834C102.673 44.9099 102.028 44.0844 101.248 43.4009C101.302 43.4089 101.355 43.417 101.409 43.4262C99.6271 41.3735 97.4511 39.7048 95.0118 38.5206C92.5726 37.3365 89.9204 36.6613 87.2151 36.5359L87.1316 36.5332C88.2945 35.4226 88.9214 34.1469 88.7925 32.8565C88.6636 31.5759 87.8094 30.474 86.4684 29.6477C86.2661 30.3292 85.966 30.9773 85.5777 31.5716C86.0988 30.2119 86.1338 28.7121 85.6767 27.3292C84.9161 24.5661 83.6655 8.65001 74.5545 10.2488C74.5545 10.2488 65.5949 10.5922 69.4906 29.4281C69.4906 29.4281 70.914 36.7146 78.6765 35.4829C80.1155 35.288 81.5162 34.8715 82.8294 34.2481C81.4545 35.1072 79.9048 35.6435 78.2956 35.8172C74.3234 36.2613 70.7316 34.5398 69.1638 31.7465C68.1384 32.8054 67.5981 34.002 67.7195 35.21C67.8736 36.7345 69.0499 38.0092 70.8573 38.8624C69.0301 39.4374 67.2711 40.2126 65.612 41.1739C61.9694 43.4267 57.6998 46.4751 57.3211 52.306C57.2997 52.6468 57.2703 53.0058 57.2366 53.3827C54.591 53.514 45.473 54.6175 45.2644 63.569C45.013 74.3018 55.1863 75.6271 57.1959 75.3628C57.7229 78.7235 58.478 82.044 59.4559 85.3009L61.0071 85.5287C59.4965 87.8322 58.5449 90.4607 58.2288 93.2022C58.1448 93.305 58.0625 93.4094 57.9827 93.5155C57.4565 94.2241 57.0132 94.9914 56.6616 95.8022C56.6241 95.8291 56.5909 95.856 56.5615 95.876L48.9226 96.811C48.6471 96.7158 48.3655 96.6397 48.0796 96.5833L38.3316 79.4738L36.4375 80.9439C37.3401 79.8048 37.7815 78.3645 37.6733 76.9117C37.565 75.4588 36.9152 74.1009 35.8539 73.1099C35.3475 72.6424 34.7527 72.2823 34.105 72.0511C33.4573 71.8199 32.7699 71.7223 32.0839 71.7642C35.9128 67.103 34.5134 61.4642 32.9291 57.8759L33.0104 57.8264C32.4281 56.5973 31.7495 55.4168 30.981 54.2962L26.6172 57.0954L26.6456 57.1562L24.7526 60.1772V60.1809L24.7301 60.217C25.2371 61.1015 25.678 62.0227 26.0492 62.9731L26.0604 62.9618C26.8424 65.0838 27.4287 67.9874 25.9738 70.0944C21.9657 72.1055 19.448 69.682 17.1442 66.4554L17.149 66.4527L14.8831 63.1238L10.5863 66.098L8.89331 68.7357C9.18626 69.3762 9.531 69.9914 9.92407 70.5751C12.2455 74.3007 18.3536 81.9236 26.8745 76.2499C27.0072 76.1611 27.134 76.0723 27.2591 75.9807C27.1267 76.5419 27.077 77.1195 27.1115 77.6952C27.1929 79.1761 27.8479 80.5659 28.9361 81.5662C29.4409 82.0318 30.0335 82.3908 30.6786 82.6219C31.3238 82.8531 32.0084 82.9517 32.6921 82.9119C32.9454 82.8963 33.1972 82.8614 33.4453 82.8075L31.8496 83.7329L41.3559 99.7039C40.5426 101.006 40.1657 102.537 40.2806 104.071C40.3954 105.605 40.996 107.061 41.994 108.226C42.032 108.334 42.0689 108.438 42.1096 108.541L42.1203 108.567L42.1395 108.586C42.8166 109.292 43.6392 109.839 44.5492 110.189L44.5862 110.203H44.5888L45.0023 110.358L44.9831 110.333C45.5837 110.517 46.208 110.611 46.836 110.613H47.2355L47.2216 110.601C48.0971 110.55 48.9527 110.318 49.7357 109.92L57.7554 108.755C57.8324 108.866 57.9063 108.982 57.987 109.09C58.295 109.502 58.6348 109.888 59.0033 110.246C59.3874 115.286 59.8057 120.194 60.3096 124.764C60.5412 126.854 60.7878 128.872 61.0584 130.8L57.5281 132.2C57.1812 132.361 56.8564 132.567 56.5615 132.812C56.2661 133.029 56.0222 133.309 55.8474 133.633C55.6727 133.956 55.5715 134.315 55.5511 134.682C55.5515 134.927 55.5951 135.17 55.68 135.399C55.8719 136.008 56.1984 136.566 56.6348 137.03C56.9651 137.356 57.3928 137.565 57.8522 137.622C58.1645 137.842 58.5374 137.957 58.9183 137.952H58.9274C59.2602 137.946 59.59 137.886 59.9041 137.776C60.2748 137.651 61.067 137.332 62.0533 136.921C62.5454 139.686 63.2511 142.409 64.1641 145.064L64.4256 145.784L65.312 145.986L72.3138 167.568L71.6281 167.752L71.6035 167.817C71.6035 167.826 69.4965 173.216 69.4938 177.403C69.4892 178.001 69.543 178.598 69.6543 179.185L69.6415 179.187L69.6794 179.32L69.7078 179.45H69.7163L70.8685 183.457L70.9792 183.444C91.6296 180.914 100.782 177.646 104.473 175.864C118.653 177.973 122.517 176.363 122.517 176.363L123.209 172.85C123.209 172.85 124.107 171.935 123.812 167.972C123.579 164.83 118.627 162.441 116.585 161.585L120.368 140.372L121.873 140.098L121.75 138.922C121.75 138.916 120.822 130.017 119.54 120.061C118.898 115.081 118.17 109.839 117.42 105.301C116.667 100.753 115.915 96.952 115.159 94.696C114.778 93.5578 114.289 92.4594 113.697 91.4161L115.295 92.708L121.861 88.5324L121.825 88.4683C122.047 88.3136 122.248 88.1293 122.422 87.9203C123.059 87.7871 123.673 87.556 124.24 87.2351C124.313 87.2502 124.386 87.2647 124.459 87.2765C125.691 86.4831 126.647 85.3229 127.193 83.9573C127.74 82.5918 127.849 81.0887 127.508 79.6573L140.595 66.0872L139.231 64.7856C139.465 64.9025 139.707 65.0021 139.956 65.0833C140.606 65.2891 141.292 65.3603 141.971 65.2926C142.649 65.2248 143.308 65.0196 143.905 64.6892C144.539 64.3377 145.096 63.8633 145.546 63.2934C145.996 62.7236 146.329 62.0697 146.526 61.3695C146.688 60.8164 146.766 60.2421 146.758 59.6658C146.862 59.782 146.965 59.8999 147.074 60.0178C154.128 67.6225 161.748 61.6812 164.817 58.6252C165.325 58.1527 165.792 57.6383 166.215 57.0873ZM96.3779 160.318L94.686 160.181C94.686 160.181 94.6684 160.201 94.6379 160.24L89.3787 145.991L99.851 144.089L96.3779 160.317V160.318ZM69.466 78.7169L69.3911 78.7498C69.2841 78.7982 69.1739 78.8483 69.0654 78.8989C69.0188 77.7614 68.9953 76.5368 69.006 75.2508C69.1422 76.42 69.2956 77.5754 69.466 78.7169Z" fill="white"/>
  <path fill-rule="evenodd" clip-rule="evenodd" d="M166.215 57.0873L165.145 54.1056L161.617 50.1631L158.682 52.8497L158.686 52.8535C155.739 55.4304 152.758 57.1745 149.298 54.2391C148.344 51.8345 149.552 49.1527 150.777 47.2799L150.786 47.2934C151.355 46.4596 151.986 45.6706 152.674 44.9329L152.659 44.8936L152.661 44.8898L151.481 41.4883C151.504 41.457 151.522 41.4344 151.522 41.4344L147.89 37.648C146.897 38.5512 145.978 39.5342 145.142 40.5871L145.21 40.656C142.882 43.7631 140.285 48.9072 142.986 54.3758C142.335 54.1677 141.648 54.0946 140.968 54.1611C140.288 54.2277 139.628 54.4324 139.028 54.7629C137.774 55.4838 136.84 56.6582 136.415 58.0475C135.991 59.4368 136.108 60.9367 136.743 62.2421L135.223 60.3505L122.151 74.4455C120.642 74.1909 119.093 74.4985 117.794 75.3105C117.741 75.3455 117.684 75.3821 117.629 75.4182C117.585 75.5608 117.548 75.711 117.511 75.8607C117.558 75.6454 117.613 75.43 117.677 75.2271C117.036 75.6502 116.473 76.181 116.012 76.7963C115.964 76.8592 115.919 76.9255 115.875 76.9901C115.714 77.0521 115.56 77.1286 115.414 77.2188L107.953 82.1072C106.791 80.9125 105.48 79.8751 104.053 79.0211C105.394 79.0437 106.746 79.1083 108.103 79.2278C108.103 79.2278 107.809 73.6375 107.15 66.9324C107.83 66.9979 108.516 66.9822 109.193 66.8855C111.202 66.6164 120.751 62.6835 117.994 52.3475C115.305 42.2629 103.313 45.7651 103.313 45.7651C103.26 45.7866 103.206 45.8114 103.149 45.834C102.673 44.9099 102.028 44.0844 101.248 43.4009C101.302 43.4089 101.355 43.417 101.409 43.4262C99.627 41.3736 97.451 39.705 95.0118 38.5209C92.5725 37.3367 89.9204 36.6615 87.2151 36.5359L87.1316 36.5332C88.2945 35.4226 88.9214 34.1469 88.7925 32.8565C88.6636 31.5759 87.8094 30.474 86.4684 29.6477C86.2661 30.3292 85.966 30.9773 85.5777 31.5716C86.0988 30.2119 86.1338 28.7121 85.6767 27.3292C84.9161 24.5661 83.6655 8.65001 74.5545 10.2488C74.5545 10.2488 65.5949 10.5922 69.4906 29.4281C69.4906 29.4281 70.914 36.7146 78.6765 35.4829C80.1155 35.288 81.5162 34.8715 82.8294 34.2481C81.4544 35.1072 79.9048 35.6435 78.2956 35.8172C74.3234 36.2613 70.7316 34.5398 69.1638 31.7465C68.1384 32.8054 67.5981 34.002 67.7195 35.21C67.8736 36.7345 69.0499 38.0092 70.8573 38.8624C69.0301 39.4374 67.2711 40.2126 65.612 41.1739C61.9694 43.4267 57.6998 46.4751 57.3211 52.306C57.2997 52.6468 57.2703 53.0058 57.2366 53.3827C54.591 53.514 45.473 54.6175 45.2644 63.569C45.013 74.3018 55.1863 75.6271 57.1959 75.3628C57.7229 78.7235 58.478 82.044 59.4559 85.301L61.0071 85.5287C59.4965 87.8322 58.5449 90.4607 58.2288 93.2022C58.1448 93.305 58.0624 93.4094 57.9827 93.5155C57.4565 94.2241 57.0132 94.9914 56.6616 95.8022C56.6241 95.8291 56.5909 95.856 56.5615 95.876L48.9226 96.811C48.6471 96.7158 48.3655 96.6397 48.0796 96.5833L38.3316 79.4738L36.4375 80.9439C37.3401 79.8048 37.7815 78.3645 37.6733 76.9117C37.565 75.4588 36.9152 74.1009 35.8539 73.1099C35.3475 72.6424 34.7527 72.2823 34.105 72.0511C33.4573 71.8199 32.7699 71.7223 32.0839 71.7642C35.9128 67.103 34.5134 61.4642 32.9291 57.8759L33.0104 57.8264C32.4281 56.5973 31.7495 55.4168 30.981 54.2962L26.6172 57.0954L26.6456 57.1562L24.7526 60.1772V60.1809L24.7301 60.217C25.2371 61.1015 25.678 62.0227 26.0492 62.9731L26.0604 62.9618C26.8424 65.0838 27.4287 67.9874 25.9738 70.0944C21.9658 72.1055 19.448 69.682 17.1442 66.4554L17.149 66.4527L14.8831 63.1238L10.5863 66.098L8.89331 68.7357C9.18626 69.3762 9.531 69.9914 9.92407 70.5751C12.2455 74.3007 18.3536 81.9236 26.8745 76.2499C27.0072 76.1611 27.134 76.0722 27.2591 75.9807C27.1267 76.5419 27.077 77.1195 27.1115 77.6952C27.1929 79.1761 27.8479 80.5659 28.9361 81.5662C29.4409 82.0318 30.0335 82.3908 30.6786 82.6219C31.3238 82.8531 32.0084 82.9517 32.6921 82.9119C32.9454 82.8963 33.1972 82.8614 33.4453 82.8075L31.8496 83.7329L41.3559 99.7039C40.5426 101.006 40.1657 102.537 40.2806 104.071C40.3954 105.605 40.996 107.061 41.994 108.226C42.032 108.334 42.0689 108.438 42.1096 108.541L42.1203 108.567L42.1395 108.586C42.8166 109.292 43.6392 109.839 44.5492 110.189L44.5862 110.203H44.5888L45.0023 110.358L44.9831 110.333C45.5837 110.517 46.208 110.611 46.836 110.613H47.2355L47.2216 110.601C48.0971 110.55 48.9527 110.318 49.7357 109.92L57.7554 108.755C57.8324 108.866 57.9063 108.982 57.987 109.09C58.295 109.502 58.6348 109.888 59.0034 110.246C59.3874 115.286 59.8057 120.194 60.3096 124.764C60.5412 126.854 60.7878 128.872 61.0584 130.8L57.5281 132.2C57.1812 132.361 56.8564 132.567 56.5615 132.812C56.2649 133.028 56.0201 133.308 55.8452 133.632C55.6703 133.955 55.5699 134.314 55.5511 134.682C55.5518 134.927 55.5954 135.17 55.68 135.399C55.8719 136.008 56.1984 136.566 56.6348 137.03C56.9651 137.356 57.3928 137.565 57.8522 137.622C58.1645 137.842 58.5374 137.957 58.9183 137.952H58.9274C59.2602 137.946 59.59 137.886 59.9041 137.776C60.2748 137.651 61.067 137.332 62.0533 136.921C62.5454 139.686 63.2511 142.409 64.1641 145.064L64.4256 145.784L65.312 145.986L72.3138 167.568L71.6281 167.752L71.6035 167.817C71.6035 167.817 69.4938 173.216 69.4938 177.403C69.4892 178.001 69.543 178.598 69.6543 179.185L69.6415 179.187L69.6794 179.32L69.7078 179.45H69.7163L70.8685 183.457L70.9792 183.444C91.6296 180.914 100.782 177.646 104.473 175.864C118.653 177.973 122.517 176.363 122.517 176.363L123.209 172.85C123.209 172.85 124.107 171.935 123.812 167.972C123.579 164.83 118.627 162.441 116.585 161.585L120.368 140.372L121.873 140.098L121.75 138.922C121.75 138.922 120.822 130.017 119.54 120.061C118.898 115.081 118.17 109.839 117.42 105.301C116.667 100.753 115.915 96.952 115.159 94.696C114.778 93.5578 114.289 92.4593 113.697 91.4161L115.295 92.708L121.861 88.5324L121.825 88.4683C122.047 88.3136 122.248 88.1293 122.422 87.9203C123.059 87.7871 123.673 87.556 124.24 87.2351C124.313 87.2502 124.386 87.2647 124.459 87.2765C125.691 86.4831 126.647 85.3229 127.193 83.9573C127.74 82.5918 127.849 81.0887 127.508 79.6574L140.595 66.0872L139.231 64.7856C139.465 64.9026 139.707 65.0021 139.956 65.0833C140.606 65.2891 141.292 65.3603 141.971 65.2926C142.649 65.2248 143.308 65.0196 143.905 64.6892C144.539 64.3377 145.096 63.8633 145.546 63.2934C145.996 62.7236 146.329 62.0697 146.526 61.3695C146.684 60.8157 146.762 60.2419 146.758 59.6658C146.862 59.782 146.965 59.8999 147.074 60.0178C154.128 67.6225 161.748 61.6812 164.817 58.6252C165.325 58.1527 165.792 57.6383 166.215 57.0873ZM96.3779 160.318L94.686 160.181C94.686 160.181 94.6684 160.201 94.6379 160.24L89.3787 145.991L99.851 144.089L96.3779 160.317V160.318ZM69.466 78.7169L69.3911 78.7498C69.2841 78.7982 69.1739 78.8483 69.0654 78.8989C69.0188 77.7614 68.9953 76.5368 69.006 75.2508C69.1422 76.42 69.2955 77.5754 69.466 78.7169Z" stroke="white" stroke-width="11.797" stroke-linecap="round" stroke-linejoin="round"/>
  <path fill-rule="evenodd" clip-rule="evenodd" d="M121.121 137.864L116.209 165.41L105.75 163.269L111.11 136.614L121.121 137.864Z" fill="#68C8D2"/>
  <path fill-rule="evenodd" clip-rule="evenodd" d="M111.342 137.429L102.759 131.97L96.2869 162.209L105.75 163.27L111.342 137.429Z" fill="#1F66B0"/>
  <path fill-rule="evenodd" clip-rule="evenodd" d="M123.472 173.079L122.78 176.592C122.78 176.592 116.428 179.242 90.0977 173.292L90.211 169.532L123.589 172.775L123.472 173.079Z" fill="#634C99"/>
  <path fill-rule="evenodd" clip-rule="evenodd" d="M105.255 161.247L94.9502 160.415C94.9502 160.415 90.5571 165.738 90.2089 169.532C90.2089 169.532 107.195 172.116 109.025 172.455C110.855 172.794 114.086 162.557 105.255 161.247Z" fill="#CF3466"/>
  <path fill-rule="evenodd" clip-rule="evenodd" d="M115.979 161.47C115.979 161.47 123.783 164.238 124.076 168.199C124.369 172.16 123.472 173.078 123.472 173.078L109.025 172.453C109.025 172.453 110.722 168.725 110.11 167.269C109.499 165.813 105.255 161.246 105.255 161.246L115.979 161.47Z" fill="#F1813C"/>
  <path fill-rule="evenodd" clip-rule="evenodd" d="M116.195 162.488C116.195 162.488 121.999 165.258 122.556 166.363L123.113 167.469L112.154 167.279C112.154 167.279 119.601 166.547 120.05 166.186C120.051 166.186 119.472 164.402 116.195 162.488Z" fill="white"/>
  <path fill-rule="evenodd" clip-rule="evenodd" d="M85.2856 134.804L94.9524 160.994L83.3632 165.181L74.6171 139.487L85.2856 134.804Z" fill="#68C8D2"/>
  <path fill-rule="evenodd" clip-rule="evenodd" d="M75.2786 140.047L63.8071 140.341L73.3396 169.713L83.3626 165.182L75.2786 140.047Z" fill="#1F66B0"/>
  <path fill-rule="evenodd" clip-rule="evenodd" d="M106.411 170.713L106.871 174.683C106.871 174.683 101.059 179.88 71.2285 183.535L70.0731 179.52L106.431 170.347L106.411 170.713Z" fill="#634C99"/>
  <path fill-rule="evenodd" clip-rule="evenodd" d="M83.1573 165.091L71.9875 168.1C71.9875 168.1 69.1525 175.38 70.0715 179.52C70.0715 179.52 88.8904 175.841 90.9369 175.506C92.9834 175.171 92.9273 163.142 83.1573 165.091Z" fill="#CF3466"/>
  <path fill-rule="evenodd" clip-rule="evenodd" d="M94.5582 161.28C94.5582 161.28 103.74 161.257 105.394 165.332C107.048 169.407 106.411 170.716 106.411 170.716L90.9385 175.506C90.9385 175.506 91.4675 170.931 90.3282 169.622C89.1889 168.313 83.1605 165.092 83.1605 165.092L94.5582 161.28Z" fill="#F1813C"/>
  <path fill-rule="evenodd" clip-rule="evenodd" d="M95.13 162.272C95.13 162.272 102.199 163.008 103.163 163.965L104.125 164.922L92.4866 168.858C92.4866 168.858 100.104 165.274 100.457 164.722C100.458 164.723 99.2413 163.058 95.13 162.272Z" fill="white"/>
  <path fill-rule="evenodd" clip-rule="evenodd" d="M38.5952 79.7075L36.3551 81.9318L32.7712 84.4457L36.7161 82.3328L38.5952 79.7075Z" fill="#014E92"/>
  <path fill-rule="evenodd" clip-rule="evenodd" d="M38.5952 79.7075L36.0138 81.71L47.1558 100.257L48.746 97.5265L38.5952 79.7075Z" fill="#1F66B0"/>
  <path fill-rule="evenodd" clip-rule="evenodd" d="M47.1558 100.257L36.0138 81.7099L32.1149 83.9708L43.7014 103.436L47.1558 100.257Z" fill="#014E92"/>
  <path fill-rule="evenodd" clip-rule="evenodd" d="M32.9575 83.1477C32.2738 83.1876 31.5891 83.0891 30.944 82.8579C30.2988 82.6267 29.7063 82.2677 29.2015 81.8019C28.1134 80.8018 27.4585 79.4122 27.3774 77.9315C27.9651 79.1657 28.7872 80.2721 29.7973 81.1883C30.719 82.0355 31.7911 82.7003 32.9575 83.1477Z" fill="#CF3466"/>
  <path fill-rule="evenodd" clip-rule="evenodd" d="M36.1182 73.3452C37.1867 74.3426 37.8381 75.7118 37.9403 77.1748C38.0426 78.6379 37.5879 80.0853 36.6686 81.2233C36.6349 81.2653 36.5985 81.3057 36.5616 81.3461C36.2451 81.3912 35.9252 81.407 35.6058 81.3934C33.9651 81.2735 32.4159 80.5875 31.2196 79.4512C29.9554 78.3276 29.0901 76.8196 28.7548 75.1561C28.6805 74.7458 28.6495 74.3289 28.6622 73.9121C29.1018 73.3629 29.6486 72.9103 30.2688 72.5821C30.8891 72.254 31.5695 72.0573 32.2682 72.0041C32.967 71.951 33.6691 72.0426 34.3313 72.2733C34.9935 72.5039 35.6016 72.8688 36.1182 73.3452Z" fill="#CF3466"/>
  <path fill-rule="evenodd" clip-rule="evenodd" d="M30.508 80.3185C31.7863 81.519 33.4077 82.2842 35.1423 82.5056C34.4713 82.8828 33.7241 83.1024 32.9567 83.1478C31.7901 82.7005 30.7178 82.0357 29.796 81.1884C28.7859 80.2722 27.9637 79.1658 27.3761 77.9316C27.3257 77.1233 27.4434 76.3133 27.7216 75.5534C28.1296 77.397 29.1046 79.0643 30.508 80.3185Z" fill="#F1813C"/>
  <path fill-rule="evenodd" clip-rule="evenodd" d="M27.7228 75.5533C27.9391 74.9618 28.2529 74.4111 28.6509 73.9244L28.6621 73.9104C28.6493 74.3272 28.6803 74.7442 28.7546 75.1544C29.0899 76.8179 29.9553 78.3259 31.2194 79.4496C32.4157 80.5858 33.965 81.2718 35.6056 81.3918C35.925 81.4057 36.245 81.3899 36.5615 81.3444C36.1587 81.8118 35.6779 82.2049 35.1408 82.5061C33.4062 82.2847 31.7848 81.5195 30.5064 80.3189C29.1038 79.0644 28.1298 77.3968 27.7228 75.5533Z" fill="#F1813C"/>
  <path fill-rule="evenodd" clip-rule="evenodd" d="M36.653 76.2155C36.4778 76.0541 36.2716 75.9307 36.0472 75.8528C35.8227 75.7749 35.5847 75.7442 35.348 75.7626C35.1113 75.7811 34.8808 75.8482 34.6709 75.9599C34.461 76.0716 34.2761 76.2254 34.1277 76.4119C33.8167 76.7969 33.6629 77.2865 33.6976 77.7814C33.7322 78.2763 33.9528 78.7393 34.3144 79.0766C34.4894 79.2379 34.6955 79.3613 34.9199 79.4392C35.1443 79.517 35.3822 79.5477 35.6188 79.5293C35.8555 79.5109 36.0859 79.4437 36.2957 79.3321C36.5055 79.2204 36.6902 79.0665 36.8386 78.8801C37.1497 78.4953 37.3037 78.0057 37.2692 77.5108C37.2347 77.0159 37.0144 76.5528 36.653 76.2155Z" fill="white"/>
  <path fill-rule="evenodd" clip-rule="evenodd" d="M25.0162 60.4097C25.0162 60.4097 30.1015 68.7276 24.5033 71.8697C18.905 75.0118 14.2257 70.7549 11.0906 66.1793L9.15857 68.9699C9.15857 68.9699 16.1396 83.8072 27.1398 76.483C38.14 69.1588 27.2157 57.8603 26.9301 57.3554L25.0162 60.4097Z" fill="#638991"/>
  <path fill-rule="evenodd" clip-rule="evenodd" d="M31.2447 54.5282C31.5303 55.0336 40.2711 67.4087 29.2704 74.7335C18.2696 82.0582 10.8511 66.33 10.8511 66.33L15.1479 63.3553C18.2841 67.9309 21.0318 73.2601 26.6338 70.1202C32.2359 66.9803 26.8815 57.3274 26.8815 57.3274L31.2447 54.5282Z" fill="#9FCFD7"/>
  <path fill-rule="evenodd" clip-rule="evenodd" d="M13.1506 70.095C12.3928 70.7231 11.7331 71.4624 11.1939 72.2881C10.4264 71.24 9.74553 70.1304 9.15808 68.9705L10.851 66.3328C11.468 67.6734 12.2399 68.9362 13.1506 70.095Z" fill="#CF3466"/>
  <path fill-rule="evenodd" clip-rule="evenodd" d="M17.4138 66.6842L13.1511 70.0949C13.1511 70.0949 11.3148 67.637 10.8511 66.33L15.1479 63.3553L17.4138 66.6842Z" fill="#F1813C"/>
  <path fill-rule="evenodd" clip-rule="evenodd" d="M33.2745 58.0589C32.691 56.8297 32.0113 55.649 31.2419 54.5282L26.8782 57.3274C26.8782 57.3274 28.2978 60.4022 28.4358 61.0357L33.2745 58.0589Z" fill="#F1813C"/>
  <path fill-rule="evenodd" clip-rule="evenodd" d="M26.3145 63.2046L28.4386 61.0336C28.0682 59.7568 27.5625 58.5238 26.9302 57.3559L24.996 60.449C25.5029 61.3333 25.9436 62.2544 26.3145 63.2046Z" fill="#CF3466"/>
  <path fill-rule="evenodd" clip-rule="evenodd" d="M135.487 60.5847L137.179 63.2966L140.113 66.6164L136.737 63.5965L135.487 60.5847Z" fill="#014E92"/>
  <path fill-rule="evenodd" clip-rule="evenodd" d="M135.486 60.5847L137.558 63.1637L122.653 78.4892L121.705 75.4451L135.486 60.5847Z" fill="#1F66B0"/>
  <path fill-rule="evenodd" clip-rule="evenodd" d="M122.654 78.4892L137.559 63.1637L140.858 66.3133L125.319 82.4248L122.654 78.4892Z" fill="#014E92"/>
  <path fill-rule="evenodd" clip-rule="evenodd" d="M140.217 65.3094C140.868 65.5149 141.553 65.5859 142.232 65.5182C142.91 65.4505 143.568 65.2454 144.166 64.9153C144.799 64.5635 145.357 64.089 145.807 63.5192C146.257 62.9494 146.59 62.2957 146.788 61.5956C145.945 62.6516 144.902 63.5277 143.719 64.1725C142.634 64.7723 141.446 65.1582 140.217 65.3094Z" fill="#CF3466"/>
  <path fill-rule="evenodd" clip-rule="evenodd" d="M139.29 54.997C138.027 55.7231 137.089 56.9085 136.668 58.3095C136.248 59.7104 136.377 61.2203 137.029 62.5284C137.052 62.5774 137.078 62.6243 137.104 62.6727C137.401 62.7942 137.71 62.8879 138.025 62.9526C139.636 63.2388 141.296 62.949 142.718 62.1333C144.195 61.3478 145.37 60.0894 146.058 58.5568C146.22 58.1748 146.342 57.7766 146.421 57.3688C146.121 56.7293 145.695 56.1578 145.169 55.6892C144.643 55.2205 144.028 54.8644 143.361 54.6425C142.694 54.4207 141.989 54.3377 141.289 54.3986C140.589 54.4596 139.909 54.6632 139.29 54.997Z" fill="#CF3466"/>
  <path fill-rule="evenodd" clip-rule="evenodd" d="M143.22 63.1529C141.705 64.0106 139.957 64.3602 138.231 64.151C138.799 64.6802 139.477 65.076 140.216 65.3099C141.446 65.1593 142.635 64.7734 143.721 64.173C144.904 63.5282 145.947 62.6521 146.789 61.5962C147.015 60.8181 147.078 60.0013 146.974 59.1975C146.177 60.887 144.861 62.2737 143.22 63.1529Z" fill="#F1813C"/>
  <path fill-rule="evenodd" clip-rule="evenodd" d="M146.975 59.1969C146.893 58.5668 146.708 57.9545 146.429 57.3844L146.421 57.3688C146.342 57.7766 146.22 58.1748 146.058 58.5569C145.37 60.0894 144.195 61.3478 142.718 62.1334C141.297 62.9494 139.636 63.2392 138.025 62.9527C137.71 62.888 137.401 62.7943 137.104 62.6727C137.394 63.2259 137.775 63.7256 138.231 64.1504C139.957 64.3596 141.705 64.01 143.22 63.1524C144.861 62.2732 146.177 60.8865 146.975 59.1969Z" fill="#F1813C"/>
  <path fill-rule="evenodd" clip-rule="evenodd" d="M138.142 57.6622C138.352 57.5491 138.582 57.4803 138.819 57.4598C139.056 57.4394 139.295 57.4678 139.521 57.5434C139.747 57.619 139.955 57.7401 140.133 57.8993C140.311 58.0586 140.454 58.2527 140.555 58.4697C140.774 58.9122 140.817 59.4223 140.675 59.8955C140.533 60.3688 140.216 60.7694 139.79 61.0153C139.58 61.1286 139.349 61.1976 139.112 61.2181C138.875 61.2386 138.636 61.2102 138.41 61.1346C138.184 61.059 137.976 60.9379 137.798 60.7785C137.621 60.6192 137.477 60.425 137.376 60.2079C137.156 59.7655 137.113 59.2551 137.255 58.7816C137.398 58.3081 137.715 57.9075 138.142 57.6622Z" fill="white"/>
  <path fill-rule="evenodd" clip-rule="evenodd" d="M152.927 45.1235C152.927 45.1235 146.154 51.9761 150.915 56.3983C155.675 60.8205 161.157 57.82 165.211 54.1374L166.479 57.3231C166.479 57.3231 156.436 70.0557 147.337 60.2461C138.239 50.4366 151.346 42.1106 151.734 41.6891L152.927 45.1235Z" fill="#638991"/>
  <path fill-rule="evenodd" clip-rule="evenodd" d="M148.155 37.8821C147.767 38.3047 136.551 48.2117 145.648 58.0218C154.745 67.8319 165.411 54.3403 165.411 54.3403L161.88 50.3977C157.828 54.0835 153.985 58.5994 149.224 54.1761C144.463 49.7529 151.787 41.6691 151.787 41.6691L148.155 37.8821Z" fill="#9FCFD7"/>
  <path fill-rule="evenodd" clip-rule="evenodd" d="M162.348 57.4415C162.947 58.2366 163.426 59.1161 163.771 60.0518C164.748 59.2195 165.654 58.3062 166.479 57.3215L165.409 54.3403C164.516 55.4939 163.488 56.5351 162.348 57.4415Z" fill="#CF3466"/>
  <path fill-rule="evenodd" clip-rule="evenodd" d="M158.948 53.0844L162.348 57.442C162.348 57.442 164.673 55.4982 165.41 54.3408L161.88 50.3983L158.948 53.0844Z" fill="#F1813C"/>
  <path fill-rule="evenodd" clip-rule="evenodd" d="M145.406 40.8213C146.242 39.7688 147.161 38.786 148.155 37.8821L151.787 41.6691C151.787 41.6691 149.732 44.3149 149.46 44.899L145.406 40.8213Z" fill="#F1813C"/>
  <path fill-rule="evenodd" clip-rule="evenodd" d="M151.052 47.5265L149.46 44.8968C150.099 43.7463 150.862 42.6697 151.734 41.6864L152.938 45.1665C152.251 45.904 151.621 46.6929 151.052 47.5265Z" fill="#CF3466"/>
  <path fill-rule="evenodd" clip-rule="evenodd" d="M117.768 83.4922C116.656 81.5313 116.137 79.2861 116.276 77.0326C115.684 77.8266 115.264 78.7364 115.042 79.7036C115.293 81.2891 115.821 82.8173 116.603 84.2168C117.415 85.7011 118.511 87.0095 119.827 88.0673C120.752 88.3129 121.72 88.3434 122.658 88.1566C120.57 87.1745 118.854 85.538 117.768 83.4922Z" fill="#1F66B0"/>
  <path fill-rule="evenodd" clip-rule="evenodd" d="M122.658 88.1524C123.399 88.0031 124.108 87.7222 124.752 87.3228L124.77 87.311C124.283 87.2335 123.807 87.0996 123.35 86.9121C121.459 86.0688 119.904 84.6108 118.935 82.772C117.879 80.9302 117.436 78.7961 117.672 76.6827C117.728 76.2685 117.818 75.8597 117.942 75.4607C117.302 75.8839 116.738 76.4147 116.276 77.0299C116.137 79.2834 116.656 81.5287 117.768 83.4896C118.854 85.5349 120.57 87.1708 122.658 88.1524Z" fill="#1F66B0"/>
  <path fill-rule="evenodd" clip-rule="evenodd" d="M123.85 76.6886C124.149 77.2248 124.234 77.8556 124.086 78.4521C123.938 79.0487 123.569 79.5657 123.054 79.8975C122.802 80.0522 122.522 80.1534 122.229 80.1949C121.937 80.2364 121.639 80.2173 121.355 80.1388C121.07 80.0603 120.804 79.9241 120.574 79.7384C120.343 79.5528 120.153 79.3217 120.015 79.0593C119.715 78.5236 119.63 77.8928 119.778 77.2963C119.926 76.6998 120.295 76.1827 120.809 75.851C121.061 75.6964 121.342 75.5952 121.634 75.5537C121.927 75.5122 122.224 75.5312 122.509 75.6096C122.794 75.6881 123.06 75.8242 123.29 76.0098C123.521 76.1953 123.712 76.4263 123.85 76.6886Z" fill="white"/>
  <path fill-rule="evenodd" clip-rule="evenodd" d="M122.48 80.8545C120.743 77.7269 117.7 76.2046 115.678 77.4524L105.038 84.4245L115.56 92.9341L122.125 88.759L122.09 88.6949C123.994 87.3793 124.178 83.9169 122.48 80.8545Z" fill="#1F66B0" stroke="#9DCD63" stroke-width="2.775"/>
  <path fill-rule="evenodd" clip-rule="evenodd" d="M118.892 136.228C118.892 136.228 114.422 98.2316 111.017 89.2807C107.613 80.3298 97.6631 74.9575 80.6918 77.8918C80.6918 77.8918 58.3474 78.1905 59.7306 98.0341C61.0192 116.512 62.2837 135.433 65.6889 144.782L76.7078 147.296L118.892 136.228Z" fill="#014E92"/>
  <path fill-rule="evenodd" clip-rule="evenodd" d="M118.892 136.228C118.892 136.228 114.422 98.2316 111.017 89.2807C107.613 80.3298 97.6631 74.9575 80.6918 77.8918C80.6918 77.8918 58.3474 78.1905 59.7306 98.0341C61.0192 116.512 62.2837 135.433 65.6889 144.782L76.7078 147.296L118.892 136.228Z" stroke="#68C8D2" stroke-width="7.088"/>
  <path fill-rule="evenodd" clip-rule="evenodd" d="M89.1503 84.683C89.1503 84.683 70.6186 84.9629 71.766 103.537C72.8358 120.834 73.8837 138.545 76.7085 147.297L120.832 139.29C120.832 139.29 117.125 103.724 114.301 95.3447C111.476 86.9654 103.224 81.9371 89.1503 84.683Z" fill="#9FCFD7" stroke="#68C8D2" stroke-width="6.245"/>
  <path fill-rule="evenodd" clip-rule="evenodd" d="M103.956 126.928C104.018 125.804 103.948 124.677 103.749 123.569L105.715 123.461L105.67 122.756C105.541 120.945 104.472 118.202 104.465 118.163L104.224 117.529L101.767 118.508C101.081 117.436 100.248 116.467 99.2931 115.629L101.041 113.647L100.545 113.172C99.8051 112.531 98.9951 111.977 98.1308 111.521C97.3215 111.069 96.6614 110.757 96.6545 110.753L96.0618 110.472L94.885 113.11C94.0403 112.834 93.1686 112.649 92.2849 112.56C91.9228 112.523 91.5649 112.506 91.2086 112.502V110.191L90.5373 110.201C88.8182 110.243 86.164 111.224 86.1287 111.23L85.5136 111.451L86.1394 113.519C85.448 113.819 84.7846 114.181 84.1571 114.6L82.8225 112.315L82.256 112.692C81.4659 113.28 80.7444 113.956 80.1052 114.707C79.4772 115.407 79.0172 115.999 79.0108 116.005L78.5978 116.532L80.4946 118.255C79.9839 119.015 79.5497 119.825 79.1985 120.671L77.09 119.55L76.7957 120.186C76.4165 121.122 76.1384 122.097 75.9661 123.093C75.78 124.038 75.681 124.792 75.6794 124.802L75.5885 125.48L78.118 125.907C78.0988 126.962 78.1958 128.016 78.4074 129.05L75.8399 129.193L75.8843 129.9C76.0127 131.709 77.0819 134.454 77.0883 134.492L77.3296 135.127L80.4053 133.901C80.9265 134.697 81.5296 135.435 82.2047 136.103L80.1448 138.439L80.6417 138.915C81.3818 139.555 82.1916 140.109 83.0557 140.566C83.865 141.018 84.524 141.329 84.5326 141.333L85.1236 141.613L86.3539 138.863C87.432 139.306 88.5663 139.594 89.7238 139.72L89.275 142.492L89.9431 142.6C90.0404 142.615 90.1458 142.629 90.2549 142.64C91.6583 142.698 93.0639 142.608 94.4485 142.371L95.0904 142.263L94.6898 139.242C95.2998 139.053 95.8947 138.817 96.4694 138.537L97.0535 140.48L97.6916 140.256C99.3193 139.669 101.567 137.887 101.6 137.871L102.122 137.464L100.658 135.282C101.441 134.364 102.099 133.345 102.615 132.253L104.375 133.182L104.669 132.546C105.049 131.61 105.327 130.635 105.499 129.639C105.685 128.694 105.784 127.94 105.786 127.93L105.876 127.251L103.957 126.928L103.956 126.928ZM86.1827 116.261C86.4581 117.38 86.5742 118.532 86.5277 119.684C86.5404 120.116 86.3969 120.539 86.1239 120.873C86.0603 120.92 85.9873 120.953 85.9099 120.97C85.8325 120.987 85.7525 120.987 85.6751 120.97C84.9269 120.796 84.2314 120.443 83.6473 119.941C83.3114 119.683 83.0177 119.425 82.8145 119.235C82.8048 119.226 82.7968 119.22 82.7877 119.21C83.2436 118.605 83.7608 118.049 84.3309 117.551C84.9007 117.056 85.5215 116.622 86.1827 116.259V116.261ZM99.1862 119.06C100.367 120.577 101.146 122.371 101.449 124.274C101.443 124.276 101.436 124.277 101.429 124.278C100.251 124.493 99.0519 124.56 97.858 124.476C97.3702 124.439 96.8915 124.323 96.4405 124.133C96.1973 124.045 95.9949 123.87 95.8724 123.641C95.8015 123.46 95.7792 123.263 95.8077 123.07C95.8527 122.278 96.5684 120.896 97.3285 119.853C97.7029 119.323 98.0773 118.859 98.3539 118.533C98.4245 118.449 98.4886 118.376 98.5443 118.311C98.7693 118.552 98.9833 118.801 99.1862 119.06ZM83.1568 125.167C83.5592 125.372 83.9314 125.632 84.2625 125.94C84.3188 125.994 84.3692 126.054 84.4128 126.12C84.3876 126.156 84.3597 126.191 84.3293 126.224C83.6148 126.835 82.7831 127.291 81.8859 127.564C81.4125 127.737 80.968 127.872 80.6331 127.967C80.4836 127.012 80.4524 126.042 80.5401 125.079C80.5689 124.756 80.6139 124.443 80.6679 124.131C81.5252 124.405 82.3578 124.752 83.1568 125.167ZM84.1127 131.114C85.0182 130.541 86.071 130.169 86.4759 130.245C86.5533 130.247 86.6287 130.27 86.6946 130.311C86.6989 130.316 86.6946 130.311 86.6984 130.318C86.789 130.565 86.8106 130.833 86.761 131.091C86.6056 132.138 86.3058 133.157 85.8704 134.12C85.6671 134.604 85.4676 135.027 85.3205 135.326C85.2975 135.373 85.2777 135.412 85.2568 135.453C84.3655 134.834 83.5721 134.083 82.9033 133.226C82.6936 132.958 82.4962 132.68 82.3111 132.392C82.8829 131.926 83.4847 131.499 84.1127 131.113V131.114ZM90.0538 137.226C90.0538 137.206 90.0511 137.189 90.049 137.166C89.9979 136.374 90.006 135.58 90.0731 134.79C90.1209 134.044 90.2851 133.311 90.5598 132.617C90.6541 132.389 90.7884 132.18 90.9562 132C91.0695 131.881 91.2145 131.797 91.3739 131.758C91.4336 131.742 91.4955 131.738 91.5569 131.744C91.9172 131.841 92.2289 132.069 92.4314 132.384C93.0618 133.249 93.5546 134.207 93.8923 135.223C94.0715 135.715 94.2084 136.16 94.3009 136.477C94.3266 136.566 94.3475 136.642 94.3657 136.71C92.9832 137.196 91.5117 137.372 90.0544 137.226H90.0538ZM98.4592 134.062C97.8267 133.424 97.2459 132.736 96.7224 132.004C95.9864 130.997 95.5114 129.822 95.5991 129.299C95.6079 129.177 95.642 129.058 95.6992 128.95C95.7827 128.816 95.8935 128.702 96.0243 128.615C96.1551 128.527 96.3028 128.469 96.4576 128.443C97.0196 128.319 97.5988 128.294 98.1693 128.369C98.9304 128.456 99.6823 128.611 100.416 128.833C100.725 128.923 100.981 129.009 101.158 129.071C101.181 129.078 101.2 129.085 101.218 129.092C100.74 130.96 99.789 132.672 98.4587 134.062L98.4592 134.062ZM94.3651 115.574C94.0599 116.505 93.677 117.408 93.2204 118.274C92.9712 118.759 92.6535 119.205 92.2774 119.597C91.9714 119.883 91.8179 119.896 91.7719 119.888C91.755 119.886 91.7381 119.883 91.7216 119.878C91.5496 119.819 91.4061 119.697 91.3194 119.536C91.0587 119.029 90.9126 118.471 90.8915 117.901C90.8446 117.251 90.8527 116.599 90.9155 115.952C90.9369 115.718 90.9599 115.527 90.9776 115.398C90.9952 115.268 91.0059 115.212 91.0059 115.211L91.0396 115.009C91.3776 115.009 91.7154 115.025 92.0516 115.06C92.8399 115.14 93.6163 115.312 94.3651 115.573V115.574Z" fill="#00A8A8"/>
  <path fill-rule="evenodd" clip-rule="evenodd" d="M103.056 110.18C103.848 110.021 104.617 109.76 105.343 109.404L105.777 110.899L106.258 110.737C107.311 110.269 108.304 109.676 109.215 108.969L109.61 108.666L108.483 106.953C109.106 106.218 109.624 105.399 110.022 104.52L111.713 105.503L111.95 105.033C112.26 104.34 112.496 103.616 112.653 102.872C112.813 102.167 112.911 101.602 112.912 101.594L112.998 101.086L110.959 100.66C110.996 99.9574 110.963 99.253 110.863 98.5568C110.822 98.272 110.768 97.9932 110.706 97.7176L112.307 97.2928L112.176 96.7782C111.794 95.6542 111.284 94.5781 110.658 93.571L110.39 93.1404L109.075 94.0016C108.743 93.5272 108.371 93.0822 107.964 92.6715L109.302 91.2251L108.935 90.8585C108.39 90.3624 107.789 89.9307 107.146 89.5719C106.546 89.2161 106.055 88.969 106.049 88.9653L105.609 88.7429L104.763 90.5193C104.149 90.2661 103.509 90.0798 102.855 89.9638L103.245 88.1336L102.751 88.0227C102.037 87.9018 101.311 87.8657 100.589 87.915C99.8996 87.9446 99.3583 88.0065 99.3529 88.0065L98.8672 88.0604L99.0352 90.0871C98.2978 90.2663 97.5846 90.5345 96.9111 90.8859L96.3436 88.9356L95.8622 89.0971C94.8093 89.5637 93.8166 90.1571 92.9058 90.8644L92.5099 91.1664L93.9221 93.3115C93.4631 93.8643 93.0628 94.4638 92.7277 95.1003L90.7341 93.9408L90.4961 94.4124C90.1859 95.1055 89.9509 95.8303 89.7954 96.5742C89.6311 97.2799 89.5348 97.8441 89.5332 97.8527L89.4487 98.3598L91.5776 98.8044C91.4688 99.7188 91.4767 100.643 91.6012 101.556L89.6006 101.717L89.6493 102.251C89.6573 102.329 89.667 102.412 89.6782 102.498C89.8947 103.587 90.2142 104.652 90.6325 105.68L90.825 106.153L92.8427 105.292C93.084 105.725 93.3561 106.14 93.6568 106.533L92.4185 107.341L92.6907 107.791C93.3753 108.74 94.1693 109.604 95.0561 110.365L95.4337 110.693L96.6768 109.165C97.4464 109.597 98.2723 109.918 99.1304 110.119L98.8052 111.647L99.2989 111.754C100.013 111.876 100.74 111.912 101.463 111.862C102.152 111.832 102.693 111.771 102.698 111.771L103.184 111.717L103.057 110.18H103.056ZM107.183 94.5351C106.465 94.9503 105.687 95.2514 104.877 95.4276C104.578 95.5153 104.256 95.4817 103.981 95.3339C103.936 95.2921 103.9 95.2416 103.874 95.1854C103.848 95.1292 103.834 95.0685 103.832 95.0067C103.813 94.4045 103.93 93.8059 104.173 93.2555C104.288 92.9503 104.413 92.6769 104.507 92.4858C104.511 92.4773 104.516 92.469 104.521 92.461C105.027 92.7035 105.507 92.9998 105.951 93.3449C106.401 93.6973 106.814 94.0962 107.181 94.5351H107.183ZM107.63 105.064C106.82 106.231 105.718 107.162 104.435 107.761L104.429 107.747C104.063 106.876 103.799 105.965 103.639 105.033C103.574 104.651 103.566 104.262 103.616 103.878C103.63 103.679 103.714 103.492 103.851 103.349C103.963 103.263 104.096 103.209 104.236 103.195C105.106 103.178 105.966 103.378 106.74 103.778C107.176 103.969 107.565 104.172 107.841 104.325C107.912 104.365 107.976 104.401 108.03 104.433C107.906 104.648 107.772 104.86 107.631 105.065L107.63 105.064ZM100.468 93.8337C100.401 94.1785 100.289 94.513 100.136 94.8285C100.108 94.8811 100.076 94.9309 100.039 94.9771C100.008 94.9646 99.9789 94.9497 99.951 94.9324C99.3888 94.4841 98.9213 93.9274 98.5757 93.2948C98.3687 92.9611 98.1949 92.6435 98.0676 92.4034C98.6983 92.1139 99.3652 91.9118 100.05 91.8027C100.277 91.7671 100.504 91.7434 100.729 91.7278C100.697 92.4354 100.609 93.1399 100.468 93.8337ZM96.526 95.6596C97.0058 96.1168 97.3623 96.6892 97.5621 97.323C97.5734 97.3824 97.5707 97.4436 97.5541 97.5017C97.5541 97.5076 97.5541 97.5017 97.5541 97.5076C97.4005 97.6193 97.2189 97.6853 97.0299 97.6982C96.2744 97.7689 95.5126 97.7241 94.7704 97.5652C94.3992 97.4963 94.0692 97.422 93.8354 97.3623L93.7343 97.337C93.9955 96.5465 94.3696 95.7985 94.8448 95.1165C94.9921 94.9054 95.1484 94.7025 95.3139 94.5076C95.7432 94.8644 96.1484 95.2494 96.5271 95.6602L96.526 95.6596ZM93.3845 101.355C93.3979 101.351 93.4091 101.347 93.4246 101.341C93.9619 101.157 94.5133 101.018 95.0732 100.925C95.5995 100.826 96.1388 100.818 96.6677 100.902C96.8443 100.934 97.0132 100.999 97.1657 101.094C97.2711 101.162 97.3553 101.258 97.4086 101.372C97.4313 101.415 97.4465 101.462 97.4535 101.51C97.4538 101.8 97.3531 102.08 97.1689 102.302C96.6938 102.937 96.1215 103.492 95.4733 103.946C95.1647 104.173 94.8849 104.361 94.68 104.491C94.6223 104.528 94.5731 104.557 94.5297 104.584C93.9363 103.596 93.5466 102.497 93.384 101.354L93.3845 101.355ZM97.1133 107.251C97.4366 106.651 97.8064 106.078 98.2195 105.536C98.7811 104.783 99.5081 104.204 99.8857 104.177C99.9721 104.161 100.061 104.166 100.145 104.19C100.32 104.244 100.463 104.361 100.634 104.682C100.824 105.094 100.947 105.535 100.999 105.987C101.078 106.589 101.109 107.196 101.09 107.802C101.084 108.057 101.071 108.271 101.061 108.417L101.057 108.468C99.6563 108.434 98.2923 108.013 97.1133 107.251ZM109.159 100.713C108.456 100.647 107.76 100.517 107.081 100.325C106.696 100.219 106.329 100.056 105.993 99.8401C105.737 99.6571 105.701 99.5403 105.699 99.5047C105.696 99.491 105.695 99.4768 105.695 99.4627C105.704 99.3231 105.762 99.1912 105.859 99.0908C106.157 98.8012 106.518 98.5862 106.914 98.4631C107.353 98.3088 107.806 98.1958 108.266 98.1256C108.43 98.0987 108.567 98.0815 108.66 98.0718C108.753 98.0621 108.793 98.0588 108.793 98.0588L108.94 98.0481C109 98.3054 109.052 98.5681 109.09 98.8356C109.179 99.4573 109.202 100.087 109.159 100.713Z" fill="#1F66B0"/>
  <path fill-rule="evenodd" clip-rule="evenodd" d="M92.8261 127.037C92.8053 127.481 92.6552 127.91 92.3945 128.27C92.1338 128.629 91.7739 128.904 91.3595 129.06C90.9451 129.216 90.4944 129.245 90.0633 129.146C89.6322 129.046 89.2396 128.821 88.9343 128.499C88.629 128.177 88.4244 127.772 88.3458 127.334C88.2672 126.896 88.3181 126.444 88.4922 126.035C88.6663 125.626 88.9559 125.277 89.3252 125.032C89.6944 124.786 90.1271 124.656 90.5694 124.656C91.1823 124.671 91.7642 124.93 92.1873 125.376C92.6104 125.823 92.8402 126.42 92.8261 127.037Z" fill="#CF3466" stroke="#1F66B0" stroke-width="3.469"/>
  <path fill-rule="evenodd" clip-rule="evenodd" d="M103.609 99.6086C103.588 100.053 103.438 100.482 103.177 100.842C102.916 101.201 102.556 101.476 102.142 101.632C101.727 101.787 101.277 101.817 100.846 101.717C100.414 101.618 100.022 101.393 99.7166 101.071C99.4113 100.749 99.2067 100.343 99.1282 99.9051C99.0496 99.467 99.1006 99.0154 99.2748 98.6061C99.449 98.1969 99.7387 97.8482 100.108 97.6031C100.477 97.3581 100.91 97.2275 101.352 97.2277C101.965 97.2426 102.547 97.5018 102.97 97.9482C103.393 98.3947 103.623 98.9919 103.609 99.6086Z" fill="#CF3466" stroke="#C3D959" stroke-width="3.469"/>
  <path fill-rule="evenodd" clip-rule="evenodd" d="M82.9598 100.941C82.7746 101.044 82.5705 101.108 82.36 101.128C82.1495 101.148 81.9371 101.125 81.7358 101.06C81.5345 100.995 81.3486 100.889 81.1895 100.749C81.0304 100.608 80.9015 100.437 80.8106 100.245C80.6118 99.8537 80.5695 99.4008 80.6925 98.9792C80.8155 98.5576 81.0944 98.1995 81.4718 97.9786C81.6569 97.876 81.8609 97.8125 82.0714 97.7922C82.2818 97.7718 82.4941 97.7949 82.6953 97.8601C82.8965 97.9252 83.0824 98.0311 83.2415 98.1712C83.4006 98.3113 83.5295 98.4826 83.6204 98.6746C83.8194 99.0658 83.8619 99.5188 83.739 99.9405C83.6161 100.362 83.3372 100.72 82.9598 100.941Z" fill="#CF3466" stroke="#C3D959" stroke-width="2.444"/>
  <path fill-rule="evenodd" clip-rule="evenodd" d="M112.293 114.581C112.272 115.045 112.116 115.492 111.845 115.867C111.574 116.242 111.199 116.529 110.767 116.691C110.336 116.854 109.866 116.886 109.417 116.782C108.967 116.679 108.558 116.445 108.24 116.109C107.921 115.774 107.708 115.352 107.626 114.895C107.544 114.438 107.597 113.968 107.778 113.541C107.959 113.115 108.261 112.751 108.646 112.496C109.031 112.241 109.482 112.105 109.943 112.105C110.581 112.12 111.186 112.389 111.627 112.854C112.068 113.318 112.307 113.939 112.293 114.581Z" fill="#CF3466" stroke="#C3D959" stroke-width="2.518"/>
  <path fill-rule="evenodd" clip-rule="evenodd" d="M113.335 121.523C113.314 121.986 113.157 122.432 112.886 122.807C112.614 123.182 112.239 123.468 111.808 123.63C111.376 123.792 110.906 123.823 110.457 123.719C110.008 123.616 109.599 123.381 109.281 123.046C108.963 122.71 108.75 122.288 108.668 121.832C108.586 121.375 108.64 120.905 108.821 120.479C109.002 120.052 109.304 119.689 109.689 119.434C110.074 119.178 110.524 119.042 110.985 119.043C111.301 119.05 111.613 119.12 111.902 119.249C112.191 119.377 112.453 119.562 112.671 119.792C112.889 120.023 113.06 120.294 113.174 120.591C113.288 120.888 113.343 121.204 113.335 121.523Z" fill="#F1813C" stroke="#634C99" stroke-width="2.518"/>
  <path fill-rule="evenodd" clip-rule="evenodd" d="M114.381 128.023C114.359 128.486 114.203 128.933 113.932 129.308C113.66 129.683 113.285 129.969 112.854 130.131C112.422 130.294 111.952 130.325 111.503 130.221C111.054 130.117 110.645 129.883 110.327 129.547C110.009 129.212 109.796 128.79 109.714 128.333C109.632 127.877 109.685 127.406 109.867 126.98C110.048 126.553 110.35 126.19 110.735 125.935C111.12 125.68 111.571 125.544 112.032 125.544C112.67 125.559 113.276 125.829 113.716 126.294C114.157 126.759 114.396 127.381 114.381 128.023Z" stroke="#68C8D2" stroke-width="2.518"/>
  <path fill-rule="evenodd" clip-rule="evenodd" d="M115.531 134.854C115.51 135.318 115.354 135.765 115.083 136.14C114.812 136.515 114.437 136.802 114.005 136.964C113.574 137.127 113.104 137.159 112.655 137.055C112.205 136.952 111.796 136.718 111.478 136.383C111.159 136.047 110.946 135.625 110.864 135.168C110.781 134.712 110.834 134.241 111.016 133.815C111.197 133.388 111.499 133.025 111.884 132.769C112.268 132.514 112.719 132.378 113.18 132.378C113.818 132.393 114.424 132.662 114.865 133.126C115.305 133.591 115.545 134.212 115.531 134.854Z" fill="#00A8A8" stroke="#CF3466" stroke-width="2.518"/>
  <path fill-rule="evenodd" clip-rule="evenodd" d="M68.5865 107.464C69.7765 105.719 70.4135 103.652 70.4135 101.536C70.4135 99.4197 69.7765 97.3532 68.5865 95.6084C67.4728 94.1356 66.0511 93.3265 64.5293 93.326C63.3153 93.3492 62.1564 93.8399 61.291 94.6971C61.3568 94.6971 61.4199 94.6922 61.4852 94.6922C65.1166 94.6922 68.0596 97.7977 68.0596 101.628C68.0596 105.459 65.1279 108.551 61.5071 108.565C62.3424 109.308 63.4142 109.727 64.5293 109.745C66.0511 109.744 67.4734 108.935 68.5865 107.464Z" fill="#1F66B0"/>
  <path fill-rule="evenodd" clip-rule="evenodd" d="M57.0289 96.6474C58.0508 95.877 59.2457 95.3721 60.5078 95.1772C61.7698 94.9824 63.0601 95.1037 64.2645 95.5304C67.9858 96.8223 68.0596 101.628 68.0596 101.628C68.0901 102.874 67.7761 104.104 67.1528 105.181C66.5294 106.258 65.6212 107.139 64.5293 107.727C63.6914 108.202 62.7648 108.497 61.8079 108.593C60.851 108.689 59.8847 108.584 58.9701 108.286L49.3531 109.682L48.0356 97.7471L57.0289 96.6474Z" fill="#1F66B0" stroke="#9DCD63" stroke-width="2.775"/>
  <path fill-rule="evenodd" clip-rule="evenodd" d="M42.9097 103.677C42.8804 101.42 43.5094 99.2047 44.7188 97.3046C43.8264 97.6733 43.0258 98.2354 42.3737 98.9507C41.2436 102.115 41.2869 105.584 42.4957 108.719C43.1689 109.42 43.9882 109.962 44.8947 110.305C43.5683 108.355 42.8748 106.039 42.9097 103.677Z" fill="#1F66B0"/>
  <path fill-rule="evenodd" clip-rule="evenodd" d="M44.8952 110.305C45.6008 110.57 46.3479 110.706 47.1011 110.706H47.122C46.7382 110.378 46.3915 110.009 46.088 109.605C44.898 107.86 44.2611 105.793 44.2611 103.677C44.2611 101.561 44.898 99.4942 46.088 97.7493C46.3339 97.4224 46.6077 97.1178 46.9064 96.839C46.1551 96.861 45.4139 97.0187 44.7181 97.3047C43.5063 99.2607 42.8786 101.526 42.9099 103.831C42.9412 106.136 43.6307 108.383 44.8952 110.305Z" fill="#1F66B0"/>
  <path fill-rule="evenodd" clip-rule="evenodd" d="M51.5484 100.91C51.5279 101.348 51.38 101.77 51.1232 102.124C50.8665 102.478 50.512 102.749 50.1038 102.902C49.6957 103.056 49.2518 103.085 48.8272 102.987C48.4026 102.888 48.016 102.667 47.7153 102.35C47.4147 102.032 47.2131 101.633 47.1358 101.202C47.0585 100.77 47.1087 100.325 47.2802 99.9225C47.4518 99.5195 47.7371 99.176 48.1009 98.9347C48.4646 98.6933 48.8907 98.5648 49.3264 98.5649C49.9299 98.5797 50.5029 98.835 50.9195 99.2747C51.3361 99.7143 51.5623 100.302 51.5484 100.91Z" fill="white"/>
  <path fill-rule="evenodd" clip-rule="evenodd" d="M103.578 45.9987C103.578 45.9987 115.57 42.4997 118.259 52.5817C121.015 62.9171 111.465 66.8516 109.457 67.1186C106.443 67.5175 102.733 66.8494 100.131 59.0978C97.8178 52.1968 99.0786 47.7563 103.578 45.9987Z" fill="#F1813C" stroke="#C3D959" stroke-width="4.83"/>
  <path fill-rule="evenodd" clip-rule="evenodd" d="M109.713 50.1701C109.693 50.5945 109.55 51.0036 109.301 51.3469C109.053 51.6901 108.709 51.9524 108.314 52.101C107.918 52.2497 107.488 52.2783 107.077 52.1833C106.665 52.0882 106.291 51.8737 105.999 51.5664C105.708 51.2591 105.513 50.8724 105.437 50.4543C105.362 50.0363 105.411 49.6053 105.577 49.2147C105.743 48.8241 106.019 48.4912 106.372 48.2572C106.724 48.0232 107.137 47.8985 107.559 47.8985C108.144 47.9126 108.699 48.1597 109.103 48.5857C109.507 49.0116 109.726 49.5815 109.713 50.1701Z" fill="white"/>
  <path fill-rule="evenodd" clip-rule="evenodd" d="M101.908 50.9614C101.969 51.2445 102.085 51.5123 102.251 51.7492C102.416 51.986 102.627 52.1869 102.871 52.3399C103.116 52.4929 103.388 52.5949 103.672 52.6399C103.956 52.6849 104.246 52.6719 104.526 52.6017C105.091 52.4348 105.569 52.0532 105.86 51.5375C106.15 51.0219 106.23 50.4128 106.082 49.8391C106.021 49.5559 105.904 49.2879 105.738 49.051C105.572 48.8141 105.361 48.6132 105.116 48.4602C104.872 48.3072 104.599 48.2052 104.315 48.1603C104.03 48.1154 103.74 48.1285 103.461 48.1989C102.896 48.3665 102.419 48.7484 102.129 49.264C101.839 49.7795 101.76 50.3883 101.908 50.9614Z" fill="white"/>
  <path fill-rule="evenodd" clip-rule="evenodd" d="M112.31 51.1045C112.344 51.2639 112.41 51.4146 112.503 51.5479C112.596 51.6812 112.715 51.7943 112.853 51.8804C112.99 51.9666 113.144 52.024 113.304 52.0494C113.464 52.0748 113.627 52.0676 113.784 52.0283C114.102 51.934 114.371 51.7192 114.534 51.4291C114.697 51.139 114.742 50.7964 114.659 50.4737C114.625 50.3143 114.559 50.1636 114.466 50.0303C114.373 49.897 114.254 49.7839 114.116 49.6978C113.979 49.6116 113.826 49.5542 113.666 49.5288C113.506 49.5034 113.342 49.5106 113.185 49.5499C112.867 49.6442 112.598 49.859 112.435 50.1491C112.272 50.4392 112.227 50.7818 112.31 51.1045Z" fill="white"/>
  <path fill-rule="evenodd" clip-rule="evenodd" d="M101.674 43.6593C99.8929 41.6068 97.7171 39.9382 95.278 38.7541C92.839 37.5699 90.187 36.8947 87.4818 36.769C78.312 36.3707 69.5204 39.1542 65.8778 41.407C62.2351 43.6599 57.9644 46.7077 57.5868 52.5387C57.2092 58.3696 54.8235 69.1023 59.7216 85.5336L70.0879 87.057C70.0879 87.057 61.2332 36.9025 101.674 43.6593Z" fill="#014E92" stroke="#C3D959" stroke-width="4.83" stroke-linecap="round" stroke-linejoin="round"/>
  <path fill-rule="evenodd" clip-rule="evenodd" d="M108.368 79.462C108.368 79.462 107.05 54.4307 103.754 46.7793C100.458 39.1278 91.1 41.6341 85.828 42.7463C80.556 43.8584 68.2971 44.415 68.2971 55.123C68.2971 65.831 68.824 77.0972 71.1968 86.2758C71.1968 86.2758 89.2546 77.7932 108.368 79.462Z" fill="#00A8A8"/>
  <path fill-rule="evenodd" clip-rule="evenodd" d="M108.368 79.462C108.368 79.462 107.05 54.4307 103.754 46.7793C100.458 39.1278 91.1 41.6341 85.828 42.7463C80.556 43.8584 68.2971 44.415 68.2971 55.123C68.2971 65.831 68.824 77.0972 71.1968 86.2758C71.1968 86.2769 89.2546 77.7932 108.368 79.462Z" stroke="#C3D959" stroke-width="7.245"/>
  <path fill-rule="evenodd" clip-rule="evenodd" d="M84.1421 56.6378C84.1421 60.7316 80.9969 64.0498 77.1173 64.0498C73.2377 64.0498 70.0919 60.7322 70.0919 56.6378C70.0919 52.5435 73.2371 49.2259 77.1173 49.2259C80.9975 49.2259 84.1421 52.5445 84.1421 56.6378Z" fill="#68C8D2" stroke="#68C8D2" stroke-width="3.022" stroke-linecap="round" stroke-linejoin="round"/>
  <path fill-rule="evenodd" clip-rule="evenodd" d="M84.6796 56.4758C84.6796 60.5669 81.5338 63.8867 77.6542 63.8867C73.7746 63.8867 70.6288 60.5691 70.6288 56.4758C70.6288 52.3825 73.7746 49.0634 77.6542 49.0634C81.5338 49.0634 84.6796 52.382 84.6796 56.4758Z" fill="#68C8D2" stroke="#68C8D2" stroke-width="3.022" stroke-linecap="round" stroke-linejoin="round"/>
  <path fill-rule="evenodd" clip-rule="evenodd" d="M85.3697 56.2325C85.3697 60.3263 82.2239 63.6449 78.3438 63.6449C74.4636 63.6449 71.3184 60.3263 71.3184 56.2325C71.3184 52.1386 74.4641 48.8205 78.3438 48.8205C82.2234 48.8205 85.3697 52.1392 85.3697 56.2325Z" fill="#68C8D2" stroke="#68C8D2" stroke-width="3.022" stroke-linecap="round" stroke-linejoin="round"/>
  <path fill-rule="evenodd" clip-rule="evenodd" d="M102.156 53.3315C102.156 57.7305 98.7774 61.2957 94.6084 61.2957C90.4394 61.2957 87.0604 57.7311 87.0604 53.3315C87.0604 48.9319 90.4389 45.3678 94.6084 45.3678C98.778 45.3678 102.156 48.9325 102.156 53.3315Z" fill="#68C8D2"/>
  <path fill-rule="evenodd" clip-rule="evenodd" d="M102.156 53.3315C102.156 57.7305 98.7774 61.2957 94.6084 61.2957C90.4394 61.2957 87.0604 57.7311 87.0604 53.3315C87.0604 48.9319 90.4389 45.3678 94.6084 45.3678C98.778 45.3678 102.156 48.9325 102.156 53.3315Z" stroke="#68C8D2" stroke-width="3.247" stroke-linecap="round" stroke-linejoin="round"/>
  <path fill-rule="evenodd" clip-rule="evenodd" d="M102.734 53.1571C102.734 57.5556 99.3551 61.1208 95.185 61.1208C91.015 61.1208 87.6371 57.5561 87.6371 53.1571C87.6371 48.7581 91.0166 45.1929 95.185 45.1929C99.3535 45.1929 102.734 48.7592 102.734 53.1571Z" fill="#68C8D2" stroke="#68C8D2" stroke-width="3.247" stroke-linecap="round" stroke-linejoin="round"/>
  <path fill-rule="evenodd" clip-rule="evenodd" d="M103.476 52.8956C103.476 57.2946 100.097 60.8598 95.9274 60.8598C91.7573 60.8598 88.3794 57.2951 88.3794 52.8961C88.3794 48.4971 91.7589 44.9319 95.9274 44.9319C100.096 44.9319 103.476 48.4965 103.476 52.8956Z" fill="#68C8D2" stroke="#68C8D2" stroke-width="3.247" stroke-linecap="round" stroke-linejoin="round"/>
  <path fill-rule="evenodd" clip-rule="evenodd" d="M74.4673 68.9904C78.971 71.2759 84.0692 72.0968 89.0567 71.3395C94.0773 70.6521 98.6275 68.0044 101.724 63.9685L102.337 71.9893C102.337 71.9893 99.3418 77.9042 89.4386 79.0373C79.5355 80.1704 75.4654 76.5261 75.4654 76.5261L74.4673 68.9904Z" fill="white" stroke="white" stroke-width="4.025"/>
  <path fill-rule="evenodd" clip-rule="evenodd" d="M90.4372 73.2031C90.4286 73.3846 90.3673 73.5595 90.2608 73.7062C90.1544 73.853 90.0075 73.965 89.8383 74.0285C89.6692 74.092 89.4852 74.1041 89.3093 74.0634C89.1334 74.0227 88.9732 73.9309 88.8486 73.7994C88.7241 73.6679 88.6406 73.5025 88.6085 73.3237C88.5765 73.1449 88.5973 72.9606 88.6683 72.7936C88.7394 72.6266 88.8576 72.4843 89.0083 72.3843C89.159 72.2842 89.3355 72.2309 89.5161 72.2309C89.64 72.2339 89.7621 72.2613 89.8755 72.3118C89.9888 72.3622 90.0913 72.4347 90.1768 72.525C90.2623 72.6152 90.3293 72.7216 90.374 72.838C90.4187 72.9543 90.4402 73.0784 90.4372 73.2031Z" fill="#CF3466"/>
  <path fill-rule="evenodd" clip-rule="evenodd" d="M74.8513 69.2331C79.3544 71.5189 84.452 72.34 89.4391 71.5828C94.4603 70.8952 99.0111 68.2471 102.108 64.2107L102.723 72.2314C102.723 72.2314 99.7274 78.1442 89.8232 79.2789C79.919 80.4137 75.8473 76.7672 75.8473 76.7672L74.8513 69.2331Z" stroke="#1F66B0" stroke-width="7.245"/>
  <path fill-rule="evenodd" clip-rule="evenodd" d="M89.1332 73.4464L82.6074 77.1726L82.3774 77.5774L82.992 77.6587L89.3648 73.7705L89.1332 73.4464Z" fill="#CF3466" stroke="#CF3466" stroke-width="0.694"/>
  <path fill-rule="evenodd" clip-rule="evenodd" d="M92.3559 65.6689C92.3247 66.3346 92.1001 66.9763 91.7098 67.5146C91.3195 68.053 90.7809 68.4641 90.1605 68.6972C89.5402 68.9303 88.8656 68.975 88.2203 68.8258C87.5749 68.6766 86.9873 68.3401 86.5302 67.8579C86.0732 67.3758 85.7669 66.7692 85.6492 66.1135C85.5315 65.4577 85.6077 64.7816 85.8683 64.169C86.1289 63.5564 86.5624 63.0343 87.1151 62.6674C87.6678 62.3004 88.3154 62.1048 88.9775 62.1048C89.895 62.1271 90.7662 62.515 91.3996 63.1833C92.0331 63.8516 92.377 64.7456 92.3559 65.6689Z" fill="#CF3466"/>
  <path fill-rule="evenodd" clip-rule="evenodd" d="M92.3559 65.6689C92.3247 66.3346 92.1001 66.9763 91.7098 67.5146C91.3195 68.053 90.7809 68.4642 90.1605 68.6972C89.5402 68.9303 88.8656 68.975 88.2203 68.8258C87.5749 68.6766 86.9873 68.3401 86.5302 67.8579C86.0732 67.3758 85.7669 66.7692 85.6492 66.1135C85.5315 65.4577 85.6077 64.7816 85.8683 64.169C86.1289 63.5564 86.5624 63.0343 87.1151 62.6674C87.6678 62.3004 88.3154 62.1048 88.9775 62.1048C89.895 62.1271 90.7662 62.515 91.3996 63.1833C92.0331 63.8516 92.377 64.7456 92.3559 65.6689Z" stroke="#C3D959" stroke-width="3.22" stroke-linecap="round" stroke-linejoin="round"/>
  <path fill-rule="evenodd" clip-rule="evenodd" d="M104.335 52.831C104.335 57.1912 100.983 60.7284 96.8497 60.7284C92.716 60.7284 89.3611 57.1918 89.3611 52.831C89.3611 48.4702 92.7122 44.9319 96.8497 44.9319C100.987 44.9319 104.335 48.4685 104.335 52.831Z" fill="white"/>
  <path fill-rule="evenodd" clip-rule="evenodd" d="M104.335 52.831C104.335 57.1912 100.983 60.7284 96.8497 60.7284C92.716 60.7284 89.3611 57.1918 89.3611 52.831C89.3611 48.4702 92.7122 44.9319 96.8497 44.9319C100.987 44.9319 104.335 48.4685 104.335 52.831Z" stroke="#014E92" stroke-width="3.22" stroke-linecap="round" stroke-linejoin="round"/>
  <path fill-rule="evenodd" clip-rule="evenodd" d="M103.259 51.0071C103.213 51.9905 102.882 52.9388 102.305 53.7342C101.729 54.5296 100.933 55.1373 100.017 55.4818C99.1001 55.8263 98.1034 55.8924 97.1499 55.6721C96.1965 55.4517 95.3282 54.9545 94.653 54.2422C93.9777 53.5298 93.5251 52.6337 93.3512 51.6648C93.1774 50.696 93.29 49.6971 93.6751 48.7921C94.0601 47.8871 94.7008 47.1157 95.5174 46.5737C96.3341 46.0317 97.2909 45.7428 98.2692 45.743C99.6242 45.7762 100.911 46.3492 101.846 47.3361C102.782 48.3231 103.29 49.6434 103.259 51.0071Z" fill="#68C8D2" stroke="#1F66B0" stroke-width="2.772" stroke-linecap="round" stroke-linejoin="round"/>
  <path fill-rule="evenodd" clip-rule="evenodd" d="M100.55 50.9372C100.529 51.3734 100.382 51.7939 100.126 52.1467C99.8703 52.4994 99.5172 52.7689 99.1107 52.9216C98.7041 53.0743 98.262 53.1036 97.8391 53.0058C97.4162 52.908 97.0311 52.6874 96.7316 52.3714C96.4321 52.0555 96.2313 51.6579 96.1542 51.2282C96.0771 50.7985 96.127 50.3554 96.2977 49.9539C96.4685 49.5525 96.7525 49.2103 97.1147 48.9698C97.4769 48.7293 97.9013 48.601 98.3352 48.601C98.9366 48.6156 99.5076 48.8699 99.9228 49.308C100.338 49.746 100.563 50.332 100.55 50.9372Z" fill="#262A25" stroke="#262A25" stroke-width="2.444" stroke-linecap="round" stroke-linejoin="round"/>
  <path fill-rule="evenodd" clip-rule="evenodd" d="M85.4488 55.868C85.4488 59.7605 82.4576 62.9155 78.769 62.9155C75.0803 62.9155 72.0886 59.7605 72.0886 55.868C72.0886 51.9755 75.0792 48.8205 78.769 48.8205C82.4587 48.8205 85.4488 51.9766 85.4488 55.868Z" fill="white" stroke="#014E92" stroke-width="2.873" stroke-linecap="round" stroke-linejoin="round"/>
  <path fill-rule="evenodd" clip-rule="evenodd" d="M84.4875 54.2419C84.4463 55.1192 84.15 55.965 83.6356 56.6744C83.1211 57.3839 82.411 57.9257 81.5934 58.2328C80.7758 58.5399 79.8865 58.5987 79.036 58.402C78.1855 58.2052 77.411 57.7616 76.8087 57.126C76.2064 56.4904 75.8027 55.6909 75.6477 54.8266C75.4927 53.9623 75.5932 53.0712 75.9367 52.2638C76.2802 51.4565 76.8517 50.7683 77.5802 50.2848C78.3087 49.8012 79.1623 49.5435 80.035 49.5435C81.2443 49.5732 82.3924 50.0846 83.2273 50.9655C84.0621 51.8465 84.5154 53.0249 84.4875 54.2419Z" fill="#68C8D2" stroke="#1F66B0" stroke-width="2.474" stroke-linecap="round" stroke-linejoin="round"/>
  <path fill-rule="evenodd" clip-rule="evenodd" d="M82.0704 54.1794C82.0524 54.5688 81.9212 54.9444 81.693 55.2595C81.4649 55.5747 81.1499 55.8155 80.787 55.9522C80.4242 56.0888 80.0295 56.1153 79.6518 56.0283C79.2741 55.9413 78.9302 55.7447 78.6625 55.4628C78.3949 55.1809 78.2153 54.8262 78.1461 54.4425C78.0769 54.0589 78.1211 53.6633 78.2732 53.3047C78.4253 52.9461 78.6787 52.6404 79.0019 52.4253C79.325 52.2103 79.7038 52.0955 80.0912 52.095C80.6283 52.1075 81.1385 52.334 81.5096 52.7248C81.8807 53.1157 82.0824 53.6389 82.0704 54.1794Z" fill="#262A25" stroke="#262A25" stroke-width="2.18" stroke-linecap="round" stroke-linejoin="round"/>
  <path fill-rule="evenodd" clip-rule="evenodd" d="M101.11 48.7802C101.101 48.9697 101.038 49.1525 100.927 49.3058C100.816 49.4592 100.663 49.5764 100.486 49.6429C100.31 49.7094 100.118 49.7224 99.9338 49.6801C99.75 49.6378 99.5826 49.5422 99.4524 49.4051C99.3221 49.2679 99.2347 49.0954 99.2011 48.9087C99.1674 48.7221 99.1889 48.5296 99.2629 48.3551C99.3369 48.1807 99.4601 48.0319 99.6173 47.9273C99.7746 47.8227 99.9589 47.7668 100.147 47.7666C100.277 47.7692 100.404 47.7976 100.523 47.85C100.641 47.9024 100.749 47.9779 100.838 48.0721C100.927 48.1663 100.998 48.2773 101.044 48.3988C101.091 48.5203 101.113 48.65 101.11 48.7802Z" fill="white"/>
  <path fill-rule="evenodd" clip-rule="evenodd" d="M97.5786 53.1545C97.5725 53.2831 97.5289 53.407 97.4535 53.5109C97.378 53.6148 97.2739 53.6942 97.154 53.7391C97.0342 53.7841 96.9039 53.7927 96.7792 53.7638C96.6546 53.735 96.5411 53.6699 96.4528 53.5768C96.3645 53.4837 96.3053 53.3665 96.2825 53.2398C96.2598 53.1132 96.2744 52.9826 96.3247 52.8642C96.375 52.7459 96.4586 52.6449 96.5653 52.574C96.672 52.503 96.7971 52.4651 96.925 52.4649C97.1025 52.4693 97.271 52.5444 97.3935 52.6737C97.5161 52.8029 97.5827 52.9759 97.5786 53.1545Z" fill="white"/>
  <path fill-rule="evenodd" clip-rule="evenodd" d="M82.3 51.9357C82.2918 52.1098 82.233 52.2777 82.1309 52.4185C82.0288 52.5593 81.8879 52.6669 81.7256 52.7278C81.5634 52.7888 81.3869 52.8005 81.2181 52.7615C81.0493 52.7224 80.8956 52.6344 80.776 52.5082C80.6565 52.3821 80.5763 52.2234 80.5456 52.0519C80.5148 51.8803 80.5347 51.7035 80.6029 51.5433C80.6711 51.383 80.7845 51.2464 80.9291 51.1505C81.0737 51.0545 81.2431 51.0033 81.4163 51.0034C81.6563 51.0093 81.8841 51.1108 82.0498 51.2856C82.2154 51.4604 82.3054 51.6942 82.3 51.9357Z" fill="white"/>
  <path fill-rule="evenodd" clip-rule="evenodd" d="M79.0482 55.9644C79.0428 56.0829 79.0029 56.1971 78.9335 56.293C78.8641 56.3888 78.7684 56.4621 78.658 56.5036C78.5476 56.5452 78.4276 56.5532 78.3128 56.5267C78.1979 56.5003 78.0933 56.4404 78.0119 56.3547C77.9305 56.2689 77.876 56.161 77.855 56.0443C77.834 55.9277 77.8475 55.8073 77.8938 55.6983C77.9401 55.5893 78.0173 55.4963 78.1156 55.431C78.2139 55.3657 78.3292 55.3309 78.447 55.3308C78.6102 55.3347 78.7652 55.4035 78.878 55.5224C78.9907 55.6412 79.052 55.8002 79.0482 55.9644Z" fill="white"/>
  <path fill-rule="evenodd" clip-rule="evenodd" d="M57.5885 53.4667C57.5885 53.4667 59.2205 51.3463 61.7334 51.3463C64.2464 51.3463 68.892 55.0574 68.2651 64.2C67.6382 73.3426 64.6219 77.0542 61.8602 77.452C59.0985 77.8498 58.845 76.1267 58.5936 75.3316C58.3422 74.5365 63.6179 76.5245 64.6219 65.3934C65.6259 54.2623 58.8444 51.4793 57.5885 53.4667Z" fill="#1F66B0" stroke="#C3D959" stroke-width="4.83"/>
  <path fill-rule="evenodd" clip-rule="evenodd" d="M58.2144 53.5986C58.2144 53.5986 45.7737 53.3294 45.5298 63.8027C45.2773 74.5365 55.4511 75.8607 57.4607 75.5959C60.4754 75.1981 63.9138 73.5848 64.6193 65.3928C65.2505 58.1047 62.9889 54.1293 58.2144 53.5986Z" fill="#F1813C" stroke="#C3D959" stroke-width="4.83"/>
  <path fill-rule="evenodd" clip-rule="evenodd" d="M59.7521 59.5414C59.7271 60.0717 59.548 60.5829 59.2369 61.0117C58.9259 61.4405 58.4966 61.768 58.0024 61.9536C57.5082 62.1392 56.9707 62.1748 56.4566 62.0558C55.9424 61.9369 55.4743 61.6687 55.1102 61.2845C54.7461 60.9004 54.5021 60.4171 54.4084 59.8947C54.3146 59.3722 54.3753 58.8336 54.5829 58.3455C54.7905 57.8575 55.1359 57.4415 55.5762 57.1491C56.0165 56.8567 56.5324 56.7009 57.06 56.7008C57.7911 56.7186 58.4854 57.0277 58.9902 57.5604C59.495 58.093 59.7691 58.8056 59.7521 59.5414Z" fill="white"/>
  <path fill-rule="evenodd" clip-rule="evenodd" d="M50.9499 60.821C50.9386 61.0596 50.8579 61.2897 50.7179 61.4826C50.5779 61.6755 50.3847 61.8228 50.1623 61.9063C49.9399 61.9898 49.698 62.0057 49.4667 61.9521C49.2353 61.8986 49.0247 61.7778 48.8609 61.6049C48.6971 61.432 48.5874 61.2145 48.5452 60.9794C48.5031 60.7443 48.5305 60.5019 48.624 60.2823C48.7175 60.0627 48.8729 59.8756 49.0711 59.7441C49.2693 59.6126 49.5015 59.5425 49.7389 59.5425C49.9018 59.5465 50.0624 59.5826 50.2114 59.649C50.3605 59.7154 50.495 59.8106 50.6075 59.9294C50.72 60.0481 50.8081 60.1879 50.8668 60.3409C50.9256 60.4939 50.9538 60.657 50.9499 60.821Z" fill="white"/>
  <path fill-rule="evenodd" clip-rule="evenodd" d="M89.0583 33.0907C88.93 31.8096 88.0704 30.7109 86.7289 29.8846C85.8136 33.0391 82.6064 35.5998 78.562 36.0509C74.5893 36.4939 71.0044 34.7676 69.4371 31.9732C68.4075 33.0347 67.8634 34.2341 67.9854 35.4442C68.3112 38.6929 73.2927 40.7998 79.1114 40.1501C84.93 39.5003 89.3846 36.3405 89.0583 33.0907Z" fill="#F1813C" stroke="#68C8D2" stroke-width="4.83"/>
  <path fill-rule="evenodd" clip-rule="evenodd" d="M74.8213 10.4829C74.8213 10.4829 65.8617 10.8264 69.7568 29.6622C69.7568 29.6622 71.1807 36.9482 78.9437 35.716C86.7067 34.4838 86.7067 30.3238 85.9434 27.5623C85.1801 24.8008 83.9317 8.88147 74.8213 10.4829Z" fill="#CF3466"/>
  <path fill-rule="evenodd" clip-rule="evenodd" d="M74.8213 10.4829C74.8213 10.4829 65.8617 10.8264 69.7568 29.6622C69.7568 29.6622 71.1807 36.9482 78.9437 35.716C86.7067 34.4838 86.7067 30.3238 85.9434 27.5623C85.1801 24.8008 83.9317 8.88147 74.8213 10.4829Z" stroke="#68C8D2" stroke-width="4.83"/>
  <path fill-rule="evenodd" clip-rule="evenodd" d="M79.2685 15.4639C79.3525 16.1586 79.1614 16.8586 78.7366 17.4126C78.3118 17.9666 77.6874 18.3302 76.9984 18.4246C76.6573 18.4553 76.3135 18.4174 75.9871 18.3132C75.6607 18.209 75.358 18.0406 75.0968 17.8177C74.8356 17.5949 74.621 17.322 74.4654 17.0149C74.3099 16.7079 74.2165 16.3728 74.1907 16.0292C74.1069 15.3345 74.298 14.6346 74.7228 14.0806C75.1476 13.5266 75.7719 13.1631 76.4608 13.0685C76.8019 13.0378 77.1457 13.0756 77.4722 13.1797C77.7987 13.2839 78.1013 13.4523 78.3626 13.6752C78.6238 13.8981 78.8384 14.171 78.994 14.478C79.1495 14.7851 79.2428 15.1202 79.2685 15.4639Z" fill="white"/>
  <path fill-rule="evenodd" clip-rule="evenodd" d="M81.6286 20.7054C81.6768 21.1031 81.5675 21.504 81.3242 21.8212C81.081 22.1384 80.7234 22.3465 80.3288 22.4005C80.1338 22.4178 79.9373 22.3959 79.7507 22.3362C79.5641 22.2765 79.3912 22.1801 79.2419 22.0526C79.0926 21.9252 78.97 21.7691 78.8811 21.5935C78.7922 21.418 78.7389 21.2264 78.7241 21.03C78.6758 20.6324 78.7848 20.2317 79.0278 19.9145C79.2707 19.5972 79.628 19.389 80.0223 19.3348C80.2175 19.3174 80.4141 19.3391 80.6008 19.3987C80.7876 19.4584 80.9607 19.5547 81.1101 19.6822C81.2595 19.8097 81.3823 19.9658 81.4713 20.1414C81.5603 20.3171 81.6138 20.5088 81.6286 20.7054Z" fill="white"/>
  <path fill-rule="evenodd" clip-rule="evenodd" d="M80.9386 6.84941L82.2625 1.40283L85.3735 2.86918L82.592 7.33711L80.9386 6.84941Z" fill="white"/>
  <path fill-rule="evenodd" clip-rule="evenodd" d="M87.5049 10.4146L91.5423 5.73569L93.2636 8.45897L88.4303 11.5322L87.5049 10.4146Z" fill="white"/>
  <path fill-rule="evenodd" clip-rule="evenodd" d="M90.8138 16.7209L96.3073 15.8827L96.5057 19.2353L91.2102 19.0254L90.8138 16.7209Z" fill="white"/>
  <path fill-rule="evenodd" clip-rule="evenodd" d="M75.5472 6.07532C75.3483 6.07532 74.0907 0 74.0907 0L70.9139 1.2564L73.2306 6.70298L75.5472 6.07532Z" fill="white"/>
  <path fill-rule="evenodd" clip-rule="evenodd" d="M66.6619 10.4765L60.7705 5.93805L59.6472 8.73078L65.6044 12.0144L66.6619 10.4765Z" fill="white"/>
  <path fill-rule="evenodd" clip-rule="evenodd" d="M63.3269 18.5667L58.2988 17.5897L57.9683 20.453L63.1306 20.8712L63.3269 18.5667Z" fill="white"/>
  <path fill-rule="evenodd" clip-rule="evenodd" d="M64.0924 27.0923L58.699 28.8047L59.535 31.7513L64.5583 29.344L64.0924 27.0923Z" fill="white"/>
  <path fill-rule="evenodd" clip-rule="evenodd" d="M92.9519 24.2469L98.0758 24.2178L97.5526 26.9697L92.6909 26.3237L92.9519 24.2469Z" fill="white"/>
  <path fill-rule="evenodd" clip-rule="evenodd" d="M72.7738 90.4795C72.4041 91.5314 71.4825 92.1397 70.7138 91.8404C69.9452 91.5411 69.6227 90.444 69.9917 89.3932C70.3608 88.3425 71.283 87.732 72.0516 88.0335C72.8203 88.3349 73.1439 89.4288 72.7738 90.4795Z" fill="#638991" stroke="#638991" stroke-width="1.708"/>
  <path fill-rule="evenodd" clip-rule="evenodd" d="M72.3203 90.2119C71.9993 91.1324 71.2328 91.682 70.6118 91.4392C69.9908 91.1964 69.7501 90.2549 70.0726 89.3344C70.3951 88.4139 71.1611 87.8654 71.7843 88.1082C72.4074 88.3509 72.6428 89.2898 72.3203 90.2119Z" fill="#9FCFD7" stroke="#00A8A8" stroke-width="1.708"/>
  <path fill-rule="evenodd" clip-rule="evenodd" d="M109.024 145.654C108.764 146.742 107.907 147.45 107.113 147.238C106.32 147.027 105.887 145.972 106.151 144.885C106.414 143.799 107.267 143.09 108.061 143.302C108.854 143.514 109.286 144.568 109.024 145.654Z" fill="#638991" stroke="#638991" stroke-width="1.708"/>
  <path fill-rule="evenodd" clip-rule="evenodd" d="M108.546 145.44C108.318 146.391 107.613 147.023 106.972 146.852C106.33 146.681 105.994 145.771 106.223 144.819C106.451 143.868 107.156 143.236 107.797 143.407C108.439 143.579 108.775 144.489 108.546 145.44Z" fill="#9FCFD7" stroke="#00A8A8" stroke-width="1.708"/>
  <path fill-rule="evenodd" clip-rule="evenodd" d="M107.048 154.813C106.787 155.899 105.931 156.609 105.137 156.397C104.344 156.185 103.91 155.131 104.175 154.044C104.439 152.956 105.29 152.248 106.085 152.461C106.879 152.674 107.307 153.726 107.048 154.813Z" fill="#638991" stroke="#638991" stroke-width="1.708"/>
  <path fill-rule="evenodd" clip-rule="evenodd" d="M106.569 154.598C106.341 155.548 105.636 156.181 104.995 156.009C104.353 155.836 104.018 154.928 104.246 153.976C104.474 153.024 105.179 152.394 105.821 152.565C106.462 152.736 106.799 153.647 106.569 154.598Z" fill="#9FCFD7" stroke="#00A8A8" stroke-width="1.708"/>
  <path fill-rule="evenodd" clip-rule="evenodd" d="M78.8999 150.848C79.2069 151.922 78.8185 152.993 78.0349 153.243C77.2513 153.494 76.3665 152.823 76.059 151.75C75.7514 150.677 76.1403 149.605 76.925 149.356C77.7097 149.106 78.5939 149.774 78.8999 150.848Z" fill="#638991" stroke="#638991" stroke-width="1.708"/>
  <path fill-rule="evenodd" clip-rule="evenodd" d="M78.3859 150.922C78.6533 151.861 78.3576 152.787 77.7232 152.988C77.0888 153.189 76.3592 152.591 76.0917 151.651C75.8243 150.712 76.119 149.787 76.7529 149.586C77.3867 149.386 78.1168 149.983 78.3859 150.922Z" fill="#9FCFD7" stroke="#00A8A8" stroke-width="1.708"/>
  <path fill-rule="evenodd" clip-rule="evenodd" d="M81.6467 159.425C81.9538 160.499 81.5655 161.571 80.7808 161.821C79.9961 162.07 79.1118 161.401 78.8064 160.328C78.501 159.255 78.8867 158.181 79.6714 157.932C80.4561 157.684 81.3413 158.352 81.6467 159.425Z" fill="#638991" stroke="#638991" stroke-width="1.708"/>
  <path fill-rule="evenodd" clip-rule="evenodd" d="M81.1327 159.501C81.4001 160.44 81.1043 161.365 80.471 161.567C79.8377 161.768 79.107 161.17 78.839 160.23C78.571 159.29 78.8663 158.366 79.5001 158.164C80.134 157.961 80.8647 158.562 81.1327 159.501Z" fill="#9FCFD7" stroke="#00A8A8" stroke-width="1.708"/>
  <path fill-rule="evenodd" clip-rule="evenodd" d="M71.2129 135.254C71.3706 135.862 71.2955 136.507 71.0028 137.061C70.71 137.616 70.2208 138.04 69.6323 138.248C69.3253 138.323 69.0062 138.334 68.6951 138.279C68.3839 138.224 68.0873 138.105 67.8238 137.93C67.5603 137.755 67.3356 137.527 67.1636 137.26C66.9917 136.993 66.8762 136.694 66.8245 136.38C65.7252 131.603 65.1902 126.712 65.2306 121.808C65.2142 121.489 65.2622 121.169 65.3717 120.869C65.4813 120.569 65.65 120.294 65.8679 120.061C66.0858 119.828 66.3483 119.642 66.6396 119.513C66.9308 119.385 67.2448 119.318 67.5627 119.315C68.1799 119.376 68.7504 119.673 69.1567 120.145C69.563 120.616 69.7743 121.227 69.7472 121.85C69.6032 126.366 70.0967 130.878 71.2129 135.254Z" fill="#262A25" stroke="#68C8D2" stroke-width="1.354"/>
  <path fill-rule="evenodd" clip-rule="evenodd" d="M65.0547 117.059C65.091 117.319 65.0489 117.583 64.9338 117.818C64.8621 117.964 64.743 118.081 64.5963 118.149C64.5042 118.192 64.4057 118.218 64.3048 118.227C64.117 118.254 63.9262 118.208 63.7699 118.1C63.6372 118.003 63.531 117.873 63.4607 117.724C63.3735 117.543 63.3154 117.35 63.2885 117.151L63.7902 117.056C63.8122 117.241 63.8864 117.416 64.0042 117.561C64.0314 117.595 64.0669 117.621 64.1071 117.637C64.1474 117.654 64.1911 117.659 64.2342 117.654C64.2942 117.643 64.3502 117.616 64.3961 117.575C64.4419 117.535 64.4758 117.482 64.4941 117.424C64.5257 117.334 64.5349 117.238 64.5209 117.144C64.4968 116.957 64.4094 116.784 64.2732 116.655C64.1566 116.547 63.9839 116.391 63.7512 116.18C63.5871 116.035 63.4443 115.868 63.327 115.682C63.2296 115.508 63.1704 115.314 63.1531 115.114C63.1274 114.958 63.1358 114.797 63.1777 114.644C63.2196 114.491 63.2941 114.348 63.396 114.227C63.5217 114.094 63.6919 114.013 63.8736 114C64.0287 113.976 64.1871 114.002 64.3274 114.072C64.4677 114.142 64.5832 114.254 64.6584 114.393C64.7401 114.536 64.7945 114.694 64.8188 114.858L64.3208 115.02C64.3021 114.88 64.2467 114.748 64.1604 114.637C64.1302 114.604 64.0921 114.58 64.0498 114.567C64.0074 114.553 63.9623 114.551 63.919 114.561C63.8757 114.571 63.8357 114.592 63.8029 114.622C63.7702 114.652 63.7459 114.69 63.7324 114.733C63.6972 114.832 63.6858 114.938 63.6993 115.042C63.7258 115.25 63.8178 115.444 63.9619 115.596C64.041 115.684 64.1283 115.764 64.2224 115.835C64.3153 115.907 64.4046 115.983 64.4899 116.063C64.6237 116.188 64.7403 116.33 64.8365 116.486C64.8736 116.545 64.907 116.607 64.9365 116.671C64.996 116.793 65.0359 116.924 65.0547 117.059Z" fill="#CF3466" stroke="#CF3466" stroke-width="0.836"/>
  <path fill-rule="evenodd" clip-rule="evenodd" d="M65.7886 114.484L65.2243 114.543L65.1649 113.917L66.8231 113.742L66.8825 114.367L66.3208 114.427L66.6525 117.926L66.1219 117.98L65.7886 114.484Z" fill="#CF3466" stroke="#CF3466" stroke-width="0.836"/>
  <path fill-rule="evenodd" clip-rule="evenodd" d="M68.0623 113.558C68.1767 113.546 68.2926 113.559 68.401 113.599C68.5093 113.638 68.6074 113.702 68.6876 113.785C68.8701 113.963 68.9811 114.202 68.9994 114.457L69.2133 116.71C69.244 116.966 69.1794 117.225 69.032 117.436C68.9697 117.533 68.8863 117.616 68.7881 117.677C68.6898 117.737 68.5793 117.775 68.4645 117.787C68.3502 117.8 68.2345 117.786 68.1263 117.747C68.0181 117.707 67.9204 117.644 67.8408 117.56C67.6586 117.382 67.5481 117.143 67.5306 116.888L67.3166 114.635C67.2861 114.378 67.3505 114.12 67.4974 113.908C67.5598 113.811 67.6429 113.729 67.7408 113.669C67.8386 113.608 67.9481 113.57 68.0623 113.558ZM68.4442 114.503C68.438 114.411 68.398 114.324 68.3319 114.26C68.3032 114.23 68.2681 114.207 68.2292 114.193C68.1903 114.179 68.1487 114.175 68.1077 114.179C68.0661 114.184 68.0259 114.197 67.9903 114.219C67.9546 114.241 67.9244 114.271 67.9018 114.306C67.8483 114.382 67.8245 114.475 67.8349 114.568L68.0489 116.828C68.0558 116.921 68.0966 117.007 68.1634 117.071C68.1927 117.101 68.2283 117.124 68.2676 117.138C68.3068 117.152 68.3487 117.157 68.3901 117.152C68.4315 117.148 68.4714 117.134 68.5068 117.112C68.5421 117.09 68.5721 117.06 68.5945 117.024C68.6472 116.949 68.6701 116.856 68.6587 116.764L68.4442 114.503Z" fill="#CF3466" stroke="#CF3466" stroke-width="0.836"/>
  <path fill-rule="evenodd" clip-rule="evenodd" d="M70.254 113.381C70.3712 113.363 70.4909 113.374 70.6032 113.413C70.7154 113.451 70.817 113.516 70.8996 113.601C71.0679 113.787 71.167 114.026 71.1799 114.277L71.2366 114.876C71.267 115.131 71.2043 115.389 71.0601 115.601C70.9989 115.698 70.9166 115.781 70.8195 115.841C70.7223 115.902 70.6127 115.94 70.4989 115.953L70.1935 115.984L70.3412 117.539L69.8089 117.593L69.4174 113.466L70.2545 113.378L70.254 113.381ZM70.6669 114.341C70.6628 114.247 70.6248 114.157 70.5599 114.09C70.5298 114.06 70.4935 114.038 70.4536 114.025C70.4137 114.012 70.3714 114.008 70.3299 114.014L70.009 114.048L70.1331 115.369L70.454 115.335C70.4954 115.331 70.5352 115.317 70.5705 115.295C70.6058 115.273 70.6356 115.243 70.6578 115.208C70.7105 115.131 70.7335 115.037 70.7225 114.944L70.6669 114.341Z" fill="#CF3466" stroke="#CF3466" stroke-width="0.836"/>
  <path fill-rule="evenodd" clip-rule="evenodd" d="M69.3393 128.305L57.9298 132.823C57.9298 132.823 55.7143 133.813 56.3144 135.48C56.9146 137.148 57.8122 137.795 59.3447 137.282C60.8771 136.77 70.0106 132.78 70.0106 132.78C70.0106 132.78 69.8062 131.604 69.3393 128.305Z" fill="#014E92" stroke="#014E92" stroke-width="2.082"/>
  <path fill-rule="evenodd" clip-rule="evenodd" d="M69.8426 128.975L58.7134 133.414C58.7134 133.414 56.4968 134.401 57.0975 136.071C57.6982 137.74 58.5952 138.385 60.1277 137.872C61.6602 137.358 70.5492 133.45 70.5492 133.45C70.185 131.982 69.9486 130.484 69.8426 128.975Z" fill="#9FCFD7"/>
</svg>
