<?xml version="1.0" encoding="UTF-8"?><svg id="Layer_2" xmlns="http://www.w3.org/2000/svg" viewBox="0 0 1020.49593 1084.4911"><defs><style>.cls-1{fill:#109bbb;}.cls-1,.cls-2{stroke-width:0px;}.cls-2{fill:#05334c;}</style></defs><g id="Layer_1-2"><path class="cls-1" d="m626.16681,0c-9.81296,0-17.76056,7.95369-17.76056,17.76056s7.9476,17.76056,17.76056,17.76056c87.44387,0,158.58659,71.14069,158.58659,158.58557v297.65787c0,9.80789,7.9476,17.76056,17.76056,17.76056,9.80992,0,17.76056-7.95267,17.76056-17.76056V194.1067C820.27452,87.07749,733.195,0,626.16681,0Z"/><path class="cls-1" d="m826.38822,0c-9.81296,0-17.76056,7.95369-17.76056,17.76056s7.9476,17.76056,17.76056,17.76056c87.44488,0,158.58659,71.14069,158.58659,158.58557v297.65787c0,9.80789,7.94963,17.76056,17.76056,17.76056,9.81296,0,17.76056-7.95267,17.76056-17.76056V194.1067C1020.49593,87.07749,933.4164,0,826.38822,0Z"/><path class="cls-2" d="m653.1871,330.4662v423.58814c0,182.155-146.52054,330.43677-326.50988,330.43677-118.0006,0-227.12127-64.63564-285.01158-168.67484-8.02609-14.5171-2.90135-33.00911,11.43974-41.13177,14.34621-8.29548,32.62008-3.11081,40.64617,11.40629,47.3027,85.20153,136.6143,137.91242,232.92567,137.91242,147.03284,0,266.74112-121.14863,266.74112-269.94887v-423.58814c0-148.80024-119.70828-269.94887-266.74112-269.94887S60.11029,181.32032,59.76875,330.12055v.34565c0,16.76379-13.3216,30.24395-29.88438,30.24395-16.39542,0-29.54284-13.13452-29.88438-29.72548v-.51847C0,148.3112,146.51712.02943,326.67723.02943,506.66656.02943,653.1871,148.3112,653.1871,330.4662Z"/></g></svg>