<svg width="540" height="574" viewBox="0 0 540 574" fill="none" xmlns="http://www.w3.org/2000/svg">
  <g clip-path="url(#clip0_63_588)">
    <path d="M331.339 0C326.146 0 321.941 4.20973 321.941 9.40032C321.941 14.5909 326.146 18.8006 331.339 18.8006C377.61 18.8006 415.256 56.454 415.256 102.737V260.281C415.256 265.473 419.461 269.682 424.654 269.682C429.845 269.682 434.052 265.473 434.052 260.281V102.737C434.052 46.0884 387.973 0 331.339 0Z" fill="#109BBB"/>
    <path d="M437.287 0C432.094 0 427.889 4.20973 427.889 9.40032C427.889 14.5909 432.094 18.8006 437.287 18.8006C483.559 18.8006 521.204 56.454 521.204 102.737V260.281C521.204 265.473 525.41 269.682 530.602 269.682C535.794 269.682 540 265.473 540 260.281V102.737C540 46.0884 493.921 0 437.287 0Z" fill="#109BBB"/>
    <path d="M345.637 174.909V399.106C345.637 495.517 268.105 574 172.863 574C110.422 574 52.6805 539.79 22.0476 484.724C17.8005 477.04 20.5123 467.253 28.101 462.954C35.6923 458.563 45.362 461.307 49.6091 468.991C74.6395 514.086 121.899 541.985 172.863 541.985C250.666 541.985 314.01 477.863 314.01 399.106V174.909C314.01 96.1523 250.666 32.0307 172.863 32.0307C95.0596 32.0307 31.8076 95.9694 31.6269 174.726V174.909C31.6269 183.782 24.5777 190.917 15.8135 190.917C7.13774 190.917 0.180727 183.965 0 175.184V174.909C5.29154e-06 78.4983 77.5302 0.015625 172.863 0.015625C268.105 0.015625 345.637 78.4983 345.637 174.909Z" fill="#05334C"/>
  </g>
  <defs>
    <clipPath id="clip0_63_588">
      <rect width="540" height="574" fill="white"/>
    </clipPath>
  </defs>
</svg>
