<?xml version="1.0" encoding="UTF-8"?><svg id="Layer_2" xmlns="http://www.w3.org/2000/svg" viewBox="0 0 1987.37136 556.92798"><defs><style>.cls-1{fill:#053e43;}.cls-1,.cls-2,.cls-3,.cls-4,.cls-5,.cls-6,.cls-7,.cls-8{stroke-width:0px;}.cls-2{fill:#4bad4c;opacity:.3;}.cls-3{fill:#37b6b9;}.cls-4{fill:#1890a9;}.cls-5{fill:#0798bc;}.cls-6{fill:#05334c;}.cls-7{fill:#fce796;opacity:.9;}.cls-8{fill:#e95344;}</style></defs><g id="Layer_1-2"><g id="NGM-Logo03"><path class="cls-6" d="m1783.22176,20.99236c11.58367-3.12684,27.3904-5.97811,39.96984-5.97811,38.60091,0,74.86436,15.67457,100.12703,40.97242,25.30073,25.26498,39.77308,60.32505,39.77308,98.89252v150.17105h-19.0906l1.20107-150.17105c0-31.07354-14.06252-65.95116-34.13123-86.64368-19.25102-19.84943-47.20572-35.95979-87.87935-35.33114-10.42586.16114-19.64242,2.64201-23.94031,3.15863"/><path class="cls-6" d="m1344.5741,210.90966l-19.3653.14845s18.25307,47.3318,44.44373,67.97799c31.58328,24.89722,64.92092,22.37451,91.38012,20.61104,25.61149-1.70697,57.04811-15.52844,80.02084-43.63331,22.35953-27.35469,35.10835-90.64825,42.29187-131.16873,8.67429-48.92956,45.04357-87.8984,102.67699-86.60312,60.43717-1.70382,95.5065,47.75509,99.50607,77.59091,5.87146,43.79959,3.99328,70.65176,3.98069,98.32543-.01259,27.67367-.62447,88.8021-.62447,88.8021l20.38727-.07867s1.5269-156.44413-3.60322-189.83925c-5.66471-36.87511-44.14393-95.68664-119.72878-95.68664-75.16965,0-109.2324,48.39353-120.46933,92.14409-7.25113,28.23198-6.35524,93.26456-42.09622,139.01255-28.15436,36.03722-80.54029,44.16115-122.68109,30.33475-38.17123-12.52398-56.11917-67.9376-56.11917-67.9376Z"/><path class="cls-6" d="m1356.10109,69.19175c5.97642-6.36658,16.11236-15.07879,24.93056-19.79838,8.78788-4.70336,22.44542-9.84216,41.41792-10.47904,16.393-.55029,31.1258,1.0965,46.48991,9.73059,11.99161,6.73887,24.33615,15.74693,34.22726,31.74061,11.79308,19.06914,16.41575,33.01086,18.16094,54.97726.15056,1.89504-.11532,14.65665-.20873,16.59399h-148.43681v16.68788h165.7135l1.68076-11.81373c.36745-4.66341-.31125-14.44587-.85919-21.46814-1.09265-14.00312-3.65025-31.69209-12.06639-48.09621-11.61367-22.63652-23.01754-35.61212-40.99137-47.32682-19.69142-12.83416-42.69566-17.72003-62.5088-17.71332-13.28211.0045-33.37172,4.12349-40.68046,6.87936-15.0777,5.68527-25.91446,11.21143-38.0796,23.35067-14.0295,13.99962-23.0051,27.49612-33.60108,46.54201-5.28559,9.52583-9.93867,18.84697-14.07512,27.34243-4.13241,8.49027-7.75916,16.17044-10.8935,22.2869-10.53082,20.61479-29.33339,52.45523-53.18111,77.13324-11.90714,12.354-33.45396,30.40665-47.17562,37.9836-13.75396,7.59425-27.91729,11.93136-42.56207,11.93482-29.02088.02479-58.22569-8.65864-80.8718-24.68781l-15.86153-12.03341v26.0904c27.88457,19.65073,62.33173,29.69722,96.73334,29.72201,20.18408.00404,39.02124-6.04265,55.86917-15.36956,25.3013-14.03706,46.5711-35.32934,63.8976-57.13421,17.29998-21.83312,30.5892-44.26416,39.21959-61.10345,5.24062-10.24253,10.99728-22.89059,17.8339-36.22248,10.2039-19.97477,20.86007-39.75004,35.87876-55.74921Z"/><path class="cls-6" d="m1071.4704,155.02169v19.40063h180.49348v-19.26215s-1.03792-16.11296-4.70832-32.34028c-9.16351-40.51307-54.77233-107.84136-139.45016-107.79988-77.94919.03818-126.48178,62.93538-137.62599,109.08494-7.27288,30.11791-5.70457,48.74343-4.15237,81.91669,1.063,22.71809,1.88598,72.44235,7.69357,72.24361,8.79311-.3009,9.47737-17.07604,11.18577-56.49028,1.33445-30.78693-2.74151-58.56213,10.46757-99.75208,14.57045-45.43513,59.75457-84.66629,112.88999-84.75363,51.14429-.08407,100.6004,37.84504,113.49627,84.7535,5.20964,18.94996,2.88528,32.99892,2.88528,32.99892h-153.1751Z"/><path class="cls-6" d="m757.01404,267.47027s-.34991,9.13028,9.89245,9.13028c10.28988,0,10.28988-8.75723,10.28988-8.75723V115.33034c0-62.67478-50.991-113.66603-113.66615-113.66603s-113.66665,50.99125-113.66665,113.66603c0,.06355.01733.12183.01784.18476-.09922,71.95833-58.65668,158.51877-130.6253,158.51877-.09797,0-.18941.02688-.28763.02914H153.21282c-5.74625,0-10.40027,4.65754-10.40027,10.40027s4.65402,10.40052,10.40027,10.40052h266.04932c.15323,0,.29667-.03869.44865-.04522,83.28879-.34942,150.97668-96.17395,150.97668-179.48824,0-.05238-.01557-.10111-.01557-.15336.0839-51.13519,41.70431-92.71213,92.85833-92.71213,51.20628,0,92.86562,41.65897,92.86562,92.86549"/><path class="cls-6" d="m777.24986,183.23096c-.46971,72.73146,45.88639,97.57119,88.45303,97.26379,40.36888-.29153,62.35667-16.37036,69.83735-34.67366,5.5878-13.67192,21.67158-5.17405,19.42104,2.65365-6.9074,24.02489-37.24599,53.21156-89.77154,53.07118-46.95717-.12549-107.95553-33.97345-107.739-112.92431.1343-48.96878-.21653-74.95559-.21653-74.95559,0-62.67478,50.991-113.66603,113.66615-113.66603s113.66665,50.99125,113.66665,113.66603c0,.06355-.01733.12183-.01784.18476,0,0-.66605,94.76101-.57531,123.05697.09074,28.29596-.84577,191.26979-3.12082,212.65553-8.08582,76.00774-49.45138,103.38051-99.81918,107.07995-41.30676,3.03392-72.34812-18.81575-85.7373-35.09319-8.30374-10.09499-21.6193-28.35651-24.4341-54.68779-1.40706-13.16241,17.03121-16.34656,18.88652-4.75454,9.48715,59.27569,54.26638,79.19348,89.25254,76.61386,52.29799-3.85607,83.66423-44.14919,84.26318-118.58379-.0361-34.34727.4784-306.47176.4784-306.47176,0-.05238.01557-.10111.01557-.15336-.0839-51.13519-41.70431-92.71213-92.85833-92.71213-51.20628,0-92.86562,41.65897-92.86562,92.86549"/><g id="eLetter"><path class="cls-5" d="m152.05052,22.47025h220.30727c.0101,0,.01961-.00297.03105-.00297,58.89422.02853,107.415,45.23547,112.68351,102.75224h-225.41783c2.68105-29.24215,16.61021-56.3341,39.1284-75.52419,4.37646-3.72569,4.89885-10.28919,1.17256-14.6603-3.72569-4.37883-10.29632-4.89826-14.6603-1.17197-29.81922,25.40591-46.91735,62.49526-46.91735,101.75678,0,.66859.07548,1.31817.19612,1.9517-1.83046,48.7597,19.8147,95.4738,58.32324,125.36314,1.89702,1.4709,4.14408,2.18466,6.37272,2.18466,3.0987,0,6.16888-1.38116,8.22339-4.02225,3.51709-4.53811,2.69874-11.0707-1.83923-14.59314-31.18805-24.20899-49.55309-61.22166-50.37575-100.48378h236.6698c5.74588,0,10.40048-4.65697,10.40048-10.40033C506.34859,61.75555,446.22743,1.66425,372.33401,1.66425c-.01961,0-.03804.00535-.05765.00535h-220.22585c-5.74588,0-10.40033,4.65756-10.40033,10.40033s4.65445,10.40033,10.40033,10.40033Z"/><path class="cls-5" d="m59.3747,22.4649h48.78511c5.74514,0,10.40033-4.65756,10.40033-10.40033s-4.65519-10.40033-10.40033-10.40033h-48.78511c-5.74587,0-10.40033,4.65756-10.40033,10.40033s4.65445,10.40033,10.40033,10.40033Z"/><path class="cls-5" d="m168.62909,135.61985c0-5.74276-4.65459-10.40033-10.40033-10.40033H10.40033c-5.74573,0-10.40033,4.65756-10.40033,10.40033,0,5.74336,4.65459,10.40033,10.40033,10.40033h147.82844c5.74573,0,10.40033-4.65697,10.40033-10.40033Z"/></g><g id="Slogan"><path class="cls-1" d="m1026.64187,492.73108c-5.01855,0-9.62598-1.29199-13.82422-3.87695-4.2002-2.58496-7.5127-6.20605-9.93848-10.86426-2.42773-4.65723-3.64062-9.96973-3.64062-15.93457,0-5.96387,1.21289-11.27539,3.64062-15.93359,2.42578-4.65723,5.73828-8.27832,9.93848-10.86426,4.19824-2.58398,8.80566-3.87695,13.82422-3.87695,3.81641,0,7.42969.76758,10.83789,2.30078,3.4082,1.53418,6.38086,3.72168,8.91602,6.56152,2.53613,2.84082,4.40332,6.13477,5.60352,9.88379h-6.95312c-1.63574-3.80469-4.13086-6.81641-7.48438-9.03223-3.35352-2.21484-6.99414-3.32324-10.91992-3.32324-3.81836,0-7.32129,1.02246-10.51172,3.06738-3.19043,2.0459-5.71289,4.91504-7.56641,8.60645-1.85449,3.69336-2.78125,7.89648-2.78125,12.61035,0,4.71582.92676,8.91895,2.78125,12.61133,1.85352,3.69336,4.37598,6.56055,7.56641,8.60547,3.19043,2.0459,6.69336,3.06836,10.51172,3.06836,3.3252,0,6.47461-.86621,9.44727-2.59961,2.97168-1.73145,5.34375-4.01758,7.11719-6.85938,1.77148-2.83887,2.6582-5.79395,2.6582-8.86133v-3.15234l2.20898,2.30078h-19.38672v-5.96484h23.72168v30.6748h-5.31738l-.81738-8.52051h-.40918c-1.0918,1.47754-2.59082,2.92578-4.49902,4.3457-1.90918,1.41992-4.14453,2.61328-6.70801,3.57812-2.56348.96582-5.23438,1.44922-8.01562,1.44922Z"/><path class="cls-1" d="m1081.03738,492.73108c-3.6543,0-6.98145-.9375-9.97949-2.8125-3-1.87402-5.3584-4.48633-7.07617-7.83887-1.71777-3.35156-2.57617-7.18555-2.57617-11.50293,0-4.31641.8584-8.15137,2.57617-11.50293s4.07617-5.96484,7.07617-7.83984c2.99805-1.87402,6.3252-2.81152,9.97949-2.81152,3.48926,0,6.67871.88184,9.57031,2.6416,2.88965,1.76172,5.15332,4.18945,6.78906,7.28516,1.63574,3.09668,2.4541,6.60352,2.4541,10.52344,0,1.13672-.04102,2.12988-.12305,2.98242-.08105.85156-.17773,1.41992-.28613,1.7041h-31.90137c.27148,2.61328,1.03516,4.92871,2.29004,6.94434,1.25391,2.0166,2.86328,3.56543,4.82617,4.64355,1.96289,1.08008,4.08984,1.61914,6.38086,1.61914,2.45312,0,4.64844-.59668,6.58398-1.78906,1.93555-1.19336,3.42188-2.86816,4.45898-5.02734h6.54395c-.98242,2.72656-2.30469,5.04199-3.96777,6.94434-1.66406,1.90332-3.63965,3.35254-5.93066,4.3457-2.29004.99316-4.85449,1.49121-7.68848,1.49121Zm12.67871-25.13672c-.11035-2.49902-.73633-4.75684-1.88184-6.77441-1.14453-2.01562-2.6582-3.5918-4.54004-4.72852-1.88086-1.13574-3.9668-1.7041-6.25684-1.7041-2.40039,0-4.58105.56836-6.54395,1.7041-1.96387,1.13672-3.5459,2.69824-4.74512,4.68652-1.2002,1.98828-1.93652,4.25977-2.20801,6.81641h26.17578Z"/><path class="cls-1" d="m1118.25613,491.87854c-2.2373,0-4.02246-.66699-5.3584-2.00195-1.33691-1.33398-2.00391-3.08105-2.00391-5.24023v-29.39746h-6.54395v-5.96387h6.54395v-11.92969h6.13477v11.92969h9.40723v5.96387h-9.40723v28.11914c0,.85156.20508,1.49121.61426,1.91699.4082.42578,1.02246.63867,1.83984.63867h6.95312v5.96484h-8.17969Z"/><path class="cls-1" d="m1153.83914,491.87854v-59.64551h6.54395v59.64551h-6.54395Z"/><path class="cls-1" d="m1172.65164,491.87854v-42.60352h5.31738l.81836,4.68555h.4082c1.09082-1.41895,2.72656-2.69727,4.9082-3.83398,2.18066-1.13574,4.63477-1.7041,7.3623-1.7041,3.1084,0,5.90234.75391,8.38477,2.25781,2.48047,1.50586,4.42969,3.62109,5.84863,6.34863,1.41699,2.72656,2.12598,5.82324,2.12598,9.28711v25.5625h-6.13477v-25.5625c0-2.21484-.49023-4.23145-1.47266-6.0498-.98145-1.81738-2.31836-3.25098-4.00781-4.30273-1.69043-1.05078-3.5459-1.57617-5.5625-1.57617-2.12695,0-4.10352.55371-5.93066,1.66113s-3.27148,2.57129-4.33496,4.38867c-1.06348,1.81836-1.59473,3.77832-1.59473,5.87891v25.5625h-6.13574Z"/><path class="cls-1" d="m1232.36453,492.73108c-3.27148,0-6.14844-.61133-8.62988-1.83203-2.48145-1.22168-4.38965-2.83984-5.72559-4.85742-1.33691-2.01562-2.00391-4.18848-2.00391-6.51855h6.13477c0,1.30762.40918,2.51367,1.22754,3.62207.81738,1.10742,1.98926,1.98828,3.5166,2.64062,1.52637.6543,3.35449.98047,5.48047.98047,3.1084,0,5.52148-.61035,7.23926-1.83203,1.71777-1.2207,2.57715-2.74023,2.57715-4.55859,0-1.7041-.55957-3.08105-1.67676-4.13281-1.11816-1.05078-2.87695-1.80273-5.27637-2.25781l-6.95312-1.27832c-3.81738-.68164-6.68066-2.00195-8.58887-3.96191-1.90918-1.95996-2.8623-4.61426-2.8623-7.9668,0-2.3291.55762-4.43066,1.67676-6.30566,1.11719-1.875,2.82129-3.35156,5.1123-4.43066,2.29004-1.07812,5.07129-1.61914,8.34375-1.61914,3.16211,0,5.95703.61133,8.38379,1.83203,2.42578,1.22168,4.29492,2.85449,5.60352,4.89941s1.96289,4.2041,1.96289,6.47559h-6.13477c0-1.30566-.39648-2.51367-1.18555-3.62109-.79199-1.10742-1.93652-1.9873-3.43555-2.6416-1.50098-.65234-3.23145-.97949-5.19434-.97949-2.8916,0-5.11328.61035-6.66699,1.83203-1.55469,1.22168-2.33105,2.74121-2.33105,4.55859,0,1.59082.50293,2.86914,1.5127,3.83398,1.00879.9668,2.68555,1.67578,5.03125,2.12988l6.95312,1.27832c4.08984.73926,7.08789,2.13086,8.99707,4.17578s2.86328,4.77148,2.86328,8.17969c0,2.33008-.60059,4.43066-1.7998,6.30566-1.2002,1.87402-2.99902,3.35156-5.39844,4.43066-2.40039,1.07812-5.31738,1.61914-8.75293,1.61914Z"/><path class="cls-1" d="m1256.90359,508.92053v-59.64551h5.31738l.81836,5.96387h.4082c1.69043-2.21484,3.59961-3.9043,5.72656-5.06934,2.12695-1.16406,4.58105-1.74707,7.36133-1.74707,3.54492,0,6.74902.9375,9.6123,2.81152,2.8623,1.875,5.1123,4.48828,6.74805,7.83984s2.4541,7.18652,2.4541,11.50293c0,4.31738-.81836,8.15137-2.4541,11.50293-1.63574,3.35254-3.88574,5.96484-6.74805,7.83887-2.86328,1.875-6.06738,2.8125-9.6123,2.8125-2.78027,0-5.23438-.58398-7.36133-1.74707-2.12695-1.16406-4.03613-2.85449-5.72656-5.07031h-.4082v23.00684h-6.13574Zm19.22363-22.1543c2.34375,0,4.51172-.68164,6.50293-2.04492,1.99023-1.36328,3.58496-3.26562,4.78516-5.70898,1.19922-2.44238,1.7998-5.25391,1.7998-8.43555,0-3.18066-.60059-5.99316-1.7998-8.43555-1.2002-2.44238-2.79492-4.3457-4.78516-5.70898-1.99121-1.36328-4.15918-2.04492-6.50293-2.04492-2.3457,0-4.51367.68164-6.50293,2.04492-1.99219,1.36328-3.58691,3.2666-4.78613,5.70898-1.2002,2.44238-1.79883,5.25488-1.79883,8.43555,0,3.18164.59863,5.99316,1.79883,8.43555,1.19922,2.44336,2.79395,4.3457,4.78613,5.70898,1.98926,1.36328,4.15723,2.04492,6.50293,2.04492Z"/><path class="cls-1" d="m1304.01882,440.32776v-7.24316h6.95312v7.24316h-6.95312Zm.32715,51.55078v-42.60352h6.13574v42.60352h-6.13574Z"/><path class="cls-1" d="m1321.93289,491.87854v-42.60352h5.31738l.81836,4.25977h.4082c.92676-1.47656,1.93555-2.55566,3.02734-3.2373,1.08984-.68164,2.6709-1.02246,4.74414-1.02246h6.95312v5.96387h-6.13477c-2.83691,0-5.04492.80957-6.62598,2.42871-1.58301,1.61914-2.37207,3.93457-2.37207,6.94434v27.2666h-6.13574Z"/><path class="cls-1" d="m1366.10574,492.73108c-3.6543,0-6.98145-.9375-9.97949-2.8125-3-1.87402-5.3584-4.48633-7.07617-7.83887-1.71777-3.35156-2.57617-7.18555-2.57617-11.50293,0-4.31641.8584-8.15137,2.57617-11.50293s4.07617-5.96484,7.07617-7.83984c2.99805-1.87402,6.3252-2.81152,9.97949-2.81152,3.48926,0,6.67871.88184,9.57031,2.6416,2.88965,1.76172,5.15332,4.18945,6.78906,7.28516,1.63574,3.09668,2.4541,6.60352,2.4541,10.52344,0,1.13672-.04102,2.12988-.12305,2.98242-.08105.85156-.17773,1.41992-.28613,1.7041h-31.90137c.27148,2.61328,1.03516,4.92871,2.29004,6.94434,1.25391,2.0166,2.86328,3.56543,4.82617,4.64355,1.96289,1.08008,4.08984,1.61914,6.38086,1.61914,2.45312,0,4.64844-.59668,6.58398-1.78906,1.93555-1.19336,3.42188-2.86816,4.45898-5.02734h6.54395c-.98242,2.72656-2.30469,5.04199-3.96777,6.94434-1.66406,1.90332-3.63965,3.35254-5.93066,4.3457-2.29004.99316-4.85449,1.49121-7.68848,1.49121Zm12.67871-25.13672c-.11035-2.49902-.73633-4.75684-1.88184-6.77441-1.14453-2.01562-2.6582-3.5918-4.54004-4.72852-1.88086-1.13574-3.9668-1.7041-6.25684-1.7041-2.40039,0-4.58105.56836-6.54395,1.7041-1.96387,1.13672-3.5459,2.69824-4.74512,4.68652-1.2002,1.98828-1.93652,4.25977-2.20801,6.81641h26.17578Z"/><path class="cls-1" d="m1410.27664,492.73108c-3.5459,0-6.74805-.9375-9.61133-2.8125-2.86328-1.87402-5.1123-4.48633-6.74902-7.83887-1.63574-3.35156-2.45312-7.18555-2.45312-11.50293,0-4.31641.81738-8.15137,2.45312-11.50293,1.63672-3.35156,3.88574-5.96484,6.74902-7.83984,2.86328-1.87402,6.06543-2.81152,9.61133-2.81152,2.78125,0,5.23535.58301,7.3623,1.74707,2.12598,1.16504,4.03418,2.85449,5.72559,5.06934h.40918v-23.00586h6.13477v59.64551h-5.31738l-.81738-5.96484h-.40918c-1.69141,2.21582-3.59961,3.90625-5.72559,5.07031-2.12695,1.16309-4.58105,1.74707-7.3623,1.74707Zm.40918-5.96484c2.34375,0,4.51172-.68164,6.50293-2.04492,1.99023-1.36328,3.58496-3.26562,4.78516-5.70898,1.19922-2.44238,1.7998-5.25391,1.7998-8.43555,0-3.18066-.60059-5.99316-1.7998-8.43555-1.2002-2.44238-2.79492-4.3457-4.78516-5.70898-1.99121-1.36328-4.15918-2.04492-6.50293-2.04492-2.3457,0-4.51367.68164-6.50293,2.04492-1.99121,1.36328-3.58691,3.2666-4.78516,5.70898-1.2002,2.44238-1.7998,5.25488-1.7998,8.43555,0,3.18164.59961,5.99316,1.7998,8.43555,1.19824,2.44336,2.79395,4.3457,4.78516,5.70898,1.98926,1.36328,4.15723,2.04492,6.50293,2.04492Z"/><path class="cls-1" d="m1461.80984,491.87854v-36.63965h-6.54395v-5.96387h6.54395v-8.09473c0-2.1582.66699-3.90527,2.00391-5.24121,1.33594-1.33398,3.12109-2.00195,5.3584-2.00195h7.36133v5.96484h-6.13477c-.81738,0-1.43164.21289-1.83984.63867-.40918.42578-.61426,1.06543-.61426,1.91699v6.81738h8.58887v5.96387h-8.58887v36.63965h-6.13477Z"/><path class="cls-1" d="m1499.84793,492.73108c-3.6543,0-6.98145-.9375-9.97949-2.8125-3-1.87402-5.3584-4.48633-7.07617-7.83887-1.71777-3.35156-2.57617-7.18555-2.57617-11.50293,0-4.31641.8584-8.15137,2.57617-11.50293s4.07617-5.96484,7.07617-7.83984c2.99805-1.87402,6.3252-2.81152,9.97949-2.81152,3.65234,0,6.97949.9375,9.97949,2.81152,2.99805,1.875,5.35742,4.48828,7.0752,7.83984s2.57715,7.18652,2.57715,11.50293c0,4.31738-.85938,8.15137-2.57715,11.50293-1.71777,3.35254-4.07715,5.96484-7.0752,7.83887-3,1.875-6.32715,2.8125-9.97949,2.8125Zm0-5.96484c2.45312,0,4.71582-.66699,6.78906-2.00293,2.07129-1.33398,3.70801-3.2373,4.9082-5.70898,1.19824-2.4707,1.79883-5.2959,1.79883-8.47754,0-3.18066-.60059-6.00781-1.79883-8.47852-1.2002-2.4707-2.83691-4.37305-4.9082-5.70898-2.07324-1.33398-4.33594-2.00195-6.78906-2.00195-2.4541,0-4.71777.66797-6.79004,2.00195-2.07324,1.33594-3.70898,3.23828-4.90723,5.70898-1.2002,2.4707-1.7998,5.29785-1.7998,8.47852,0,3.18164.59961,6.00684,1.7998,8.47754,1.19824,2.47168,2.83398,4.375,4.90723,5.70898,2.07227,1.33594,4.33594,2.00293,6.79004,2.00293Z"/><path class="cls-1" d="m1528.47683,491.87854v-42.60352h5.31738l.81836,4.25977h.4082c.92676-1.47656,1.93555-2.55566,3.02734-3.2373,1.08984-.68164,2.6709-1.02246,4.74414-1.02246h6.95312v5.96387h-6.13477c-2.83691,0-5.04492.80957-6.62598,2.42871-1.58301,1.61914-2.37207,3.93457-2.37207,6.94434v27.2666h-6.13574Z"/><path class="cls-1" d="m1566.10574,491.87854l21.67676-59.64551h9.81641l21.67676,59.64551h-6.95312l-18.81348-52.40332h-1.63672l-18.81348,52.40332h-6.95312Zm11.45215-15.33789v-6.38965h30.6748v6.38965h-30.6748Z"/><path class="cls-1" d="m1641.3616,492.73108c-3.1084,0-5.90332-.75391-8.38477-2.25879-2.48145-1.50391-4.43066-3.62109-5.84863-6.34766-1.41895-2.72656-2.12695-5.82227-2.12695-9.28809v-25.56152h6.13574v25.56152c0,2.21582.49023,4.23242,1.47168,6.0498.98145,1.81934,2.31738,3.25293,4.00879,4.30371,1.68945,1.05176,3.54395,1.57617,5.5625,1.57617,2.12598,0,4.10254-.55371,5.92969-1.66211,1.82715-1.10742,3.27246-2.56934,4.33594-4.3877,1.06348-1.81738,1.59473-3.77734,1.59473-5.87988v-25.56152h6.13477v42.60352h-5.31641l-.81836-4.68652h-.40918c-1.14453,1.47754-2.79492,2.76953-4.94824,3.87695-2.15527,1.10742-4.59473,1.66211-7.32129,1.66211Z"/><path class="cls-1" d="m1681.85183,491.87854c-2.2373,0-4.02246-.66699-5.3584-2.00195-1.33691-1.33398-2.00391-3.08105-2.00391-5.24023v-29.39746h-6.54395v-5.96387h6.54395v-11.92969h6.13477v11.92969h9.40723v5.96387h-9.40723v28.11914c0,.85156.20508,1.49121.61426,1.91699.4082.42578,1.02246.63867,1.83984.63867h6.95312v5.96484h-8.17969Z"/><path class="cls-1" d="m1714.98172,492.73108c-3.6543,0-6.98145-.9375-9.97949-2.8125-3-1.87402-5.3584-4.48633-7.07617-7.83887-1.71777-3.35156-2.57617-7.18555-2.57617-11.50293,0-4.31641.8584-8.15137,2.57617-11.50293s4.07617-5.96484,7.07617-7.83984c2.99805-1.87402,6.3252-2.81152,9.97949-2.81152,3.65234,0,6.97949.9375,9.97949,2.81152,2.99805,1.875,5.35742,4.48828,7.0752,7.83984s2.57715,7.18652,2.57715,11.50293c0,4.31738-.85938,8.15137-2.57715,11.50293-1.71777,3.35254-4.07715,5.96484-7.0752,7.83887-3,1.875-6.32715,2.8125-9.97949,2.8125Zm0-5.96484c2.45312,0,4.71582-.66699,6.78906-2.00293,2.07129-1.33398,3.70801-3.2373,4.9082-5.70898,1.19824-2.4707,1.79883-5.2959,1.79883-8.47754,0-3.18066-.60059-6.00781-1.79883-8.47852-1.2002-2.4707-2.83691-4.37305-4.9082-5.70898-2.07324-1.33398-4.33594-2.00195-6.78906-2.00195-2.4541,0-4.71777.66797-6.79004,2.00195-2.07324,1.33594-3.70898,3.23828-4.90723,5.70898-1.2002,2.4707-1.7998,5.29785-1.7998,8.47852,0,3.18164.59961,6.00684,1.7998,8.47754,1.19824,2.47168,2.83398,4.375,4.90723,5.70898,2.07227,1.33594,4.33594,2.00293,6.79004,2.00293Z"/><path class="cls-1" d="m1743.60965,491.87854v-42.60352h5.31738l.81836,4.68555h.4082c1.09082-1.41895,2.58984-2.69727,4.49902-3.83398,1.9082-1.13574,3.95312-1.7041,6.13574-1.7041,2.88965,0,5.38477.73926,7.48438,2.21582,2.09863,1.47754,3.55859,3.15234,4.37598,5.02734h.40918c1.14551-1.875,2.93066-3.5498,5.35742-5.02734,2.42676-1.47656,5.13965-2.21582,8.13965-2.21582,2.83496,0,5.37012.71094,7.60742,2.12988,2.23535,1.4209,3.97949,3.38086,5.23535,5.87988,1.25391,2.5,1.88086,5.36816,1.88086,8.60547v26.84082h-6.13477v-26.84082c0-2.10059-.38184-3.96191-1.14551-5.58105s-1.85449-2.86719-3.27148-3.74902c-1.41895-.87988-3.08203-1.32031-4.99023-1.32031-1.74609,0-3.4082.46875-4.98926,1.40527-1.58301.9375-2.85059,2.23047-3.80371,3.87695-.95508,1.64844-1.43164,3.4375-1.43164,5.36816v26.84082h-6.13477v-26.84082c0-2.10059-.38281-3.96191-1.14551-5.58105-.76465-1.61914-1.85449-2.86719-3.27246-3.74902-1.41797-.87988-3.08105-1.32031-4.98926-1.32031-1.74609,0-3.40918.46875-4.99023,1.40527-1.58203.9375-2.84961,2.23047-3.80371,3.87695-.9541,1.64844-1.43066,3.4375-1.43066,5.36816v26.84082h-6.13574Z"/><path class="cls-1" d="m1825.40945,492.73108c-2.83691,0-5.33105-.56934-7.48535-1.70508-2.1543-1.13477-3.83105-2.69727-5.03027-4.68555-1.2002-1.98828-1.7998-4.26074-1.7998-6.81738,0-2.78223.58594-5.18262,1.75879-7.2002,1.17188-2.01562,2.97168-3.5918,5.39844-4.72852,2.42578-1.13574,5.49414-1.7041,9.20312-1.7041h11.04297v-1.27832c0-3.18066-.87305-5.67969-2.61816-7.49805-1.74609-1.81738-4.14453-2.72656-7.19824-2.72656-1.96289,0-3.69531.32715-5.19434.97949-1.5.6543-2.67188,1.53418-3.51758,2.6416s-1.34961,2.31543-1.5127,3.62109h-6.13477c.16309-2.32812.89941-4.50098,2.20801-6.51855,1.30859-2.01562,3.17676-3.63477,5.60352-4.85645,2.42578-1.2207,5.27637-1.83203,8.54785-1.83203,3.27246,0,6.10742.63867,8.50684,1.91699s4.24023,3.13965,5.52148,5.58105c1.28125,2.44336,1.92285,5.34082,1.92285,8.69141v27.2666h-5.31738l-.81738-5.1123h-.40918c-.92773,1.5332-2.52344,2.91113-4.78516,4.13281-2.26367,1.2207-4.89551,1.83203-7.89355,1.83203Zm0-5.96484c2.6709,0,5.00195-.53906,6.99316-1.61914,1.99023-1.07812,3.50391-2.6123,4.54004-4.60156,1.03516-1.9873,1.55469-4.31641,1.55469-6.98633v-1.7041h-11.04297c-3.49121,0-6.06738.71094-7.73047,2.12988-1.66406,1.4209-2.49512,3.2666-2.49512,5.53809,0,2.16016.70801,3.90625,2.12695,5.24023,1.41797,1.33594,3.43555,2.00293,6.05371,2.00293Z"/><path class="cls-1" d="m1865.49148,491.87854c-2.2373,0-4.02246-.66699-5.3584-2.00195-1.33691-1.33398-2.00391-3.08105-2.00391-5.24023v-29.39746h-6.54395v-5.96387h6.54395v-11.92969h6.13477v11.92969h9.40723v5.96387h-9.40723v28.11914c0,.85156.20508,1.49121.61426,1.91699.4082.42578,1.02246.63867,1.83984.63867h6.95312v5.96484h-8.17969Z"/><path class="cls-1" d="m1882.75027,440.32776v-7.24316h6.95312v7.24316h-6.95312Zm.32715,51.55078v-42.60352h6.13574v42.60352h-6.13574Z"/><path class="cls-1" d="m1917.84304,492.73108c-3.6543,0-6.98145-.9375-9.97949-2.8125-3-1.87402-5.3584-4.48633-7.07617-7.83887-1.71777-3.35156-2.57617-7.18555-2.57617-11.50293,0-4.31641.8584-8.15137,2.57617-11.50293s4.07617-5.96484,7.07617-7.83984c2.99805-1.87402,6.3252-2.81152,9.97949-2.81152,3.65234,0,6.97949.9375,9.97949,2.81152,2.99805,1.875,5.35742,4.48828,7.0752,7.83984s2.57715,7.18652,2.57715,11.50293c0,4.31738-.85938,8.15137-2.57715,11.50293-1.71777,3.35254-4.07715,5.96484-7.0752,7.83887-3,1.875-6.32715,2.8125-9.97949,2.8125Zm0-5.96484c2.45312,0,4.71582-.66699,6.78906-2.00293,2.07129-1.33398,3.70801-3.2373,4.9082-5.70898,1.19824-2.4707,1.79883-5.2959,1.79883-8.47754,0-3.18066-.60059-6.00781-1.79883-8.47852-1.2002-2.4707-2.83691-4.37305-4.9082-5.70898-2.07324-1.33398-4.33594-2.00195-6.78906-2.00195-2.4541,0-4.71777.66797-6.79004,2.00195-2.07324,1.33594-3.70898,3.23828-4.90723,5.70898-1.2002,2.4707-1.7998,5.29785-1.7998,8.47852,0,3.18164.59961,6.00684,1.7998,8.47754,1.19824,2.47168,2.83398,4.375,4.90723,5.70898,2.07227,1.33594,4.33594,2.00293,6.79004,2.00293Z"/><path class="cls-1" d="m1946.47195,491.87854v-42.60352h5.31738l.81836,4.68555h.4082c1.09082-1.41895,2.72656-2.69727,4.9082-3.83398,2.18066-1.13574,4.63477-1.7041,7.3623-1.7041,3.1084,0,5.90234.75391,8.38477,2.25781,2.48047,1.50586,4.42969,3.62109,5.84863,6.34863,1.41699,2.72656,2.12598,5.82324,2.12598,9.28711v25.5625h-6.13477v-25.5625c0-2.21484-.49023-4.23145-1.47266-6.0498-.98145-1.81738-2.31836-3.25098-4.00781-4.30273-1.69043-1.05078-3.5459-1.57617-5.5625-1.57617-2.12695,0-4.10352.55371-5.93066,1.66113s-3.27148,2.57129-4.33496,4.38867c-1.06348,1.81836-1.59473,3.77832-1.59473,5.87891v25.5625h-6.13574Z"/><path class="cls-4" d="m1311.53879,412.1581c-19.09838,0-34.63418-15.5358-34.63418-34.63201,0-19.09838,15.5358-34.63418,34.63418-34.63418s34.63418,15.5358,34.63418,34.63418c0,19.09622-15.5358,34.63201-34.63418,34.63201Zm0-58.20469c-12.99727,0-23.57267,10.5754-23.57267,23.57267s10.5754,23.57051,23.57267,23.57051,23.57267-10.57324,23.57267-23.57051-10.5754-23.57267-23.57267-23.57267Z"/><path class="cls-2" d="m1286.81741,377.70232c.06583,13.18503,11.02511,23.81916,24.47827,23.75199,7.94534-.03967,14.98162-3.80467,19.39934-9.59567-3.63252,3.40433-8.5454,5.50965-13.96751,5.53672-11.24761.05616-20.41024-8.83462-20.46528-19.85808-.05504-11.02348,9.01836-20.00531,20.26597-20.06147,5.10197-.02547,9.77108,1.79423,13.3596,4.81455-4.49436-5.27725-11.2683-8.62102-18.83051-8.58327-13.45315.06717-24.30571,10.8102-24.23988,23.99523Z"/><path class="cls-3" d="m1338.93109,396.96232c-6.7445,8.43399-17.45019,13.88906-29.51013,13.88906-20.40831,0-36.95252-15.61122-36.95252-34.86869s16.5442-34.86865,36.95252-34.86865c8.28444,0,15.93204,2.57261,22.09481,6.9172.00861-.03421.01671-.0684.02453-.1026-6.87667-5.554-15.78182-8.90672-25.512-8.90672-21.77563,0-39.42825,16.78207-39.42825,37.4838s17.65262,37.48384,39.42825,37.48384c13.81089,0,25.95803-6.75419,33.00003-16.97415-.03244-.01791-.06484-.03566-.09725-.05309Z"/><path class="cls-8" d="m1311.2707,406.87977c-17.87112,0-32.35851-14.48741-32.35851-32.35853s14.48739-32.35849,32.35851-32.35849c11.31488,0,21.27147,5.80885,27.05541,14.60565-6.18868-10.89537-17.89633-18.24599-31.32213-18.24599-19.88161,0-35.99884,16.11722-35.99884,35.99882s16.11724,35.99886,35.99884,35.99886c13.42576,0,25.13339-7.35058,31.32206-18.24591-5.78393,8.79676-15.74048,14.60558-27.05534,14.60558Z"/><path class="cls-7" d="m1315.33486,402.12709c-15.65616,0-28.34799-12.69184-28.34799-28.34796s12.69184-28.34801,28.34799-28.34801c11.96591,0,22.19964,7.41418,26.35941,17.899-4.55436-12.3535-16.43095-21.16328-30.36583-21.16328-17.86884,0-32.35442,14.48556-32.35442,32.3544s14.48558,32.35446,32.35442,32.35446,32.35442-14.4856,32.35442-32.35446c0-.12402-.00333-.24722-.0047-.37094-.19901,15.48482-12.81124,27.97679-28.34329,27.97679Z"/></g></g></g></svg>