<svg id="NGM_LOGO_SRC_WHITE-01-01" data-name="NGM LOGO SRC WHITE-01-01" xmlns="http://www.w3.org/2000/svg" width="53.75" height="64.237" viewBox="0 0 53.75 64.237">
  <g id="Group_776" data-name="Group 776" transform="translate(3.83 13.11)">
    <path id="Path_8077" data-name="Path 8077" d="M287.121,439.265c-.056-.049-5.641-5.01-9.128-7.384a.418.418,0,1,0-.471.69c3.442,2.344,8.988,7.268,9.042,7.318a.417.417,0,0,0,.278.105.422.422,0,0,0,.313-.14A.417.417,0,0,0,287.121,439.265Z" transform="translate(-252.198 -401.977)" fill="#a9fcfa"/>
    <path id="Path_8078" data-name="Path 8078" d="M332.185,431.744a.416.416,0,0,1-.29-.117c-.194-.186-4.742-4.6-4.258-8.616a.418.418,0,0,1,.83.1c-.435,3.605,3.963,7.87,4.007,7.913a.418.418,0,0,1-.29.72Z" transform="translate(-294.182 -394.321)" fill="#a9fcfa"/>
    <path id="Path_8079" data-name="Path 8079" d="M327.074,352.933a20.558,20.558,0,0,1-7.262-1.815.417.417,0,1,1,.349-.758c.076.035,7.68,3.487,10.09.6,2.443-2.925,2.136-6.6,1.449-9.166-.5-1.881-1.55-5.791-9.084-4.2-.486.2-4.917,1.884-8.081-.155a.418.418,0,1,1,.453-.7c2.915,1.879,7.3.089,7.343.069l.036-.015.038-.008c7.4-1.575,9.283,1.734,10.1,4.793,1.059,3.955.5,7.384-1.616,9.917a4.77,4.77,0,0,1-3.82,1.44Z" transform="translate(-283.109 -322.264)" fill="#a9fcfa"/>
    <path id="Path_8080" data-name="Path 8080" d="M388.884,328.734a.379.379,0,0,1-.1-.012.419.419,0,0,1-.311-.5c.433-1.843.226-3.288-.619-4.292-1.55-1.848-4.757-1.69-4.79-1.688a.418.418,0,0,1-.048-.835c.148-.01,3.66-.181,5.477,1.985,1.023,1.219,1.288,2.907.792,5.02a.42.42,0,0,1-.407.323Z" transform="translate(-340.144 -309.751)" fill="#a9fcfa"/>
    <path id="Path_8081" data-name="Path 8081" d="M319.369,281.832a.417.417,0,0,1-.4-.295,10.915,10.915,0,0,0-5.343-6.929c-4.5-2.289-9.879-.481-9.933-.463a.418.418,0,1,1-.273-.791c.232-.081,5.755-1.944,10.579.5a11.716,11.716,0,0,1,5.77,7.432.418.418,0,0,1-.277.522.4.4,0,0,1-.124.018Z" transform="translate(-273.749 -268.991)" fill="#a9fcfa"/>
    <path id="Path_8082" data-name="Path 8082" d="M265.407,255.142a.421.421,0,0,1-.354-.194,6.6,6.6,0,0,0-4.419-3.358c-2.708-.438-5.264,1.374-6.237,2.172a.418.418,0,0,1-.53-.646c1.061-.871,3.857-2.843,6.9-2.35a7.4,7.4,0,0,1,4.992,3.737.417.417,0,0,1-.13.576.409.409,0,0,1-.222.064Z" transform="translate(-232.465 -250.687)" fill="#a9fcfa"/>
    <path id="Path_8083" data-name="Path 8083" d="M184.739,265.375a.419.419,0,0,1-.4-.525c.061-.229,1.552-5.608,6.58-6.73,5.142-1.146,6.669,2.978,6.684,3.019a.418.418,0,0,1-.787.28c-.051-.14-1.309-3.465-5.714-2.482-4.529,1.01-5.941,6.079-5.956,6.13a.418.418,0,0,1-.4.31Z" transform="translate(-174.501 -256.727)" fill="#a9fcfa"/>
    <path id="Path_8084" data-name="Path 8084" d="M338.512,320.827a.419.419,0,0,1-.41-.338,6.11,6.11,0,0,1,1.464-5.042.418.418,0,1,1,.608.575,5.315,5.315,0,0,0-1.25,4.307.416.416,0,0,1-.331.489.446.446,0,0,1-.081.008Z" transform="translate(-302.89 -304.672)" fill="#a9fcfa"/>
    <path id="Path_8085" data-name="Path 8085" d="M135.094,309.07c-3.189,0-5.737-.825-7.525-2.464-2.472-2.266-3.388-5.98-2.583-10.459a9.456,9.456,0,0,1,5.911-7.361,13.134,13.134,0,0,1,4.729-.987.418.418,0,1,1-.012.835,12.469,12.469,0,0,0-4.422.934,8.537,8.537,0,0,0-5.384,6.727c-.754,4.187.072,7.631,2.326,9.7,2.728,2.5,7.474,2.924,13.73,1.227a.417.417,0,0,1,.219.805,26.981,26.981,0,0,1-6.988,1.048Z" transform="translate(-124.701 -281.687)" fill="#a9fcfa"/>
    <path id="Path_8086" data-name="Path 8086" d="M207.359,308.559a.318.318,0,0,1-.068,0,3.505,3.505,0,0,1-2.767-1.7,4.723,4.723,0,0,1,.194-3.767.418.418,0,0,1,.751.367h0a3.95,3.95,0,0,0-.2,3.017,2.731,2.731,0,0,0,2.156,1.262.418.418,0,0,1-.066.83Z" transform="translate(-191.096 -294.257)" fill="#a9fcfa"/>
    <path id="Path_8087" data-name="Path 8087" d="M148.756,340.927a3.881,3.881,0,0,1-2.854-1.008,4.089,4.089,0,0,1-.995-3.166.418.418,0,0,1,.828.107,3.281,3.281,0,0,0,.761,2.472,3.685,3.685,0,0,0,3.192.7.418.418,0,1,1,.11.828,7.781,7.781,0,0,1-1.043.073Z" transform="translate(-141.56 -322.273)" fill="#a9fcfa"/>
    <path id="Path_8088" data-name="Path 8088" d="M173.358,330.246a.418.418,0,0,1-.405-.316c-1.089-4.335.367-7.1,1.78-8.659a9.241,9.241,0,0,1,3.368-2.355.417.417,0,1,1,.282.786,8.545,8.545,0,0,0-3.054,2.156c-1.838,2.042-2.364,4.689-1.566,7.868a.418.418,0,0,1-.3.507A.434.434,0,0,1,173.358,330.246Z" transform="translate(-164.688 -307.658)" fill="#a9fcfa"/>
    <path id="Path_8089" data-name="Path 8089" d="M228.566,356.81a7.787,7.787,0,0,1-.87-.049,11.994,11.994,0,0,1-6.335-3.1l-.04-.038a6.98,6.98,0,0,1-2.019-5.738c.576-3.936,4.788-6.583,4.966-6.694l.107-.066,5.7.173a.418.418,0,1,1-.025.835l-5.44-.165c-.632.422-4.007,2.81-4.478,6.041a6.175,6.175,0,0,0,1.8,5.038c2.546,2.2,7.484,5.139,12.114.321,2.375-2.471,4.4-3.839,6.384-4.305,2.225-.524,4.421.1,6.712,1.9a.418.418,0,0,1-.516.657c-2.079-1.636-4.042-2.205-6-1.743-1.818.428-3.716,1.723-5.974,4.072a8.33,8.33,0,0,1-6.081,2.866Z" transform="translate(-203.667 -326.225)" fill="#a9fcfa"/>
    <path id="Path_8090" data-name="Path 8090" d="M247.952,323.405a.418.418,0,0,1-.417-.394l-.209-3.663a.418.418,0,1,1,.835-.048l.209,3.663a.418.418,0,0,1-.394.441Z" transform="translate(-227.129 -307.671)" fill="#a9fcfa"/>
    <path id="Path_8091" data-name="Path 8091" d="M253.866,377.7a.435.435,0,0,1-.128-.02.418.418,0,0,1-.27-.525c.04-.122.985-3,3.243-4.113a5.236,5.236,0,0,1,4.488,0l.054.035a4.132,4.132,0,0,0,4.441.259.418.418,0,0,1,.44.71,4.945,4.945,0,0,1-5.346-.275,4.457,4.457,0,0,0-3.708.016c-1.942.955-2.808,3.592-2.816,3.619a.418.418,0,0,1-.4.29Z" transform="translate(-232.242 -352.461)" fill="#a9fcfa"/>
    <path id="Path_8092" data-name="Path 8092" d="M284.735,353.486a.416.416,0,0,1-.417-.4c-.076-1.967,1.8-4.124,1.879-4.215a.418.418,0,0,1,.628.552c-.018.02-1.734,2-1.672,3.632a.418.418,0,0,1-.4.433Z" transform="translate(-258.027 -332.579)" fill="#a9fcfa"/>
    <path id="Path_8093" data-name="Path 8093" d="M238.251,299.239a.415.415,0,0,1-.389-.267,6.844,6.844,0,0,0-3.457-4.085,5.619,5.619,0,0,0-3.892-.115l-2.075,1.917a.418.418,0,0,1-.568-.614l2.191-2.024.069-.028a6.38,6.38,0,0,1,4.594.092,7.623,7.623,0,0,1,3.917,4.552.419.419,0,0,1-.237.542.4.4,0,0,1-.152.028Z" transform="translate(-210.765 -286.563)" fill="#a9fcfa"/>
    <path id="Path_8094" data-name="Path 8094" d="M279.934,298.393a.418.418,0,0,1-.287-.721,7.45,7.45,0,0,1,6.094-1.678.418.418,0,1,1-.138.824,6.679,6.679,0,0,0-5.381,1.459.422.422,0,0,1-.288.115Z" transform="translate(-254.017 -288.443)" fill="#a9fcfa"/>
    <path id="Path_8095" data-name="Path 8095" d="M231.644,279.9a.416.416,0,0,1-.333-.165,6.508,6.508,0,0,1-1.354-4.132.418.418,0,0,1,.833.064,5.785,5.785,0,0,0,1.184,3.563.418.418,0,0,1-.333.672Z" transform="translate(-212.615 -271.181)" fill="#a9fcfa"/>
  </g>
  <g id="Group_777" data-name="Group 777">
    <path id="Path_8096" data-name="Path 8096" d="M136.641,220.952v10.741a3.639,3.639,0,0,1-3.635,3.635H105.085a3.639,3.639,0,0,1-3.635-3.635V174.725a3.639,3.639,0,0,1,3.635-3.635h27.921a3.639,3.639,0,0,1,3.635,3.635v9.981c-.074-.2-.992-.624-.992-.624v-9.359a2.647,2.647,0,0,0-2.644-2.644H105.085a2.647,2.647,0,0,0-2.644,2.644v56.965a2.647,2.647,0,0,0,2.644,2.644h27.921a2.647,2.647,0,0,0,2.644-2.644V219.983l.992.756v.211Z" transform="translate(-101.45 -171.09)" fill="#fff"/>
    <rect id="Rectangle_1977" data-name="Rectangle 1977" width="34.2" height="0.992" transform="translate(0.496 7.27)" fill="#fff"/>
    <rect id="Rectangle_1978" data-name="Rectangle 1978" width="34.2" height="0.992" transform="translate(0.516 51.547)" fill="#fff"/>
  </g>
  <g id="Group_779" data-name="Group 779" transform="translate(13.335 53.245)">
    <path id="Path_8123" data-name="Path 8123" d="M201.25,507.31a1.613,1.613,0,0,0,2.905.957,1.348,1.348,0,1,1-.054-2,1.613,1.613,0,0,0-2.851,1.041Z" transform="translate(-198.147 -503.824)" fill="#00cc13" opacity="0.15"/>
    <path id="Path_8124" data-name="Path 8124" d="M189.125,499.858a3.465,3.465,0,0,1-2.739,1.318,3.311,3.311,0,1,1,0-6.618,3.488,3.488,0,0,1,2.051.657.021.021,0,0,1,0-.01,3.708,3.708,0,0,0-2.368-.845,3.559,3.559,0,1,0,0,7.115,3.684,3.684,0,0,0,3.064-1.611l-.008,0Z" transform="translate(-182.41 -494.36)" fill="#1ac2c2"/>
    <path id="Path_8125" data-name="Path 8125" d="M189.95,503.281a2.723,2.723,0,1,1,2.276-4.216,3.03,3.03,0,1,0,0,2.988,2.722,2.722,0,0,1-2.276,1.229Z" transform="translate(-185.876 -497.008)" fill="#ffb935"/>
    <path id="Path_8126" data-name="Path 8126" d="M193.7,504.427a2.387,2.387,0,1,1,2.219-3.266,2.727,2.727,0,1,0,.166.942v-.031A2.387,2.387,0,0,1,193.7,504.427Z" transform="translate(-189.284 -498.553)" fill="#fd601d"/>
    <path id="Path_8127" data-name="Path 8127" d="M198.433,506.7a2.283,2.283,0,1,1,2.283-2.283A2.286,2.286,0,0,1,198.433,506.7Zm0-3.836a1.553,1.553,0,1,0,1.553,1.553A1.555,1.555,0,0,0,198.433,502.86Z" transform="translate(-193.887 -500.85)" fill="#91e3e8"/>
  </g>
</svg>
