<svg xmlns="http://www.w3.org/2000/svg" width="188.21" height="188.209" viewBox="0 0 188.21 188.209">
  <g id="NGM-Circle2" transform="translate(-113.903 -7.362)">
    <path id="Tracé_5" data-name="Tracé 5" d="M116.644,123.89A94.1,94.1,0,1,0,256.826,21.031,94.1,94.1,0,0,0,116.644,123.89Zm37.849-54.865a62.618,62.618,0,1,1-7.278,47.374A62.154,62.154,0,0,1,154.493,69.025ZM187.17,135.9a40.243,40.243,0,1,0-13.54-55.27A39.953,39.953,0,0,0,187.17,135.9Zm-6.3-50.879a31.77,31.77,0,1,1,10.688,43.636A31.811,31.811,0,0,1,180.874,85.022Z" transform="translate(0 0)" fill="rgba(86,255,192,0.96)" opacity="0.38"/>
  </g>
</svg>
