<svg
  id="Circle_Button_"
  data-name="Circle Button "
  xmlns="http://www.w3.org/2000/svg"
  width="48"
  height="48"
  viewBox="0 0 48 48"
>
  <g
    id="Area_SIZE:MEDIUM_STATE:DEFAULT_STYLE:STYLE2_"
    data-name="Area [SIZE:MEDIUM][STATE:DEFAULT][STYLE:STYLE2]"
    fill="#fff"
    stroke="#3e3e3e"
    stroke-width="2"
  >
    <rect width="48" height="48" rx="24" stroke="none" />
    <rect x="1" y="1" width="46" height="46" rx="23" fill="none" />
  </g>
  <g id="Icon_" data-name="Icon " transform="translate(14 14)">
    <rect
      id="Area_ICON:feather_camera_SIZE:MEDIUM_STATE:DEFAULT_STYLE:STYLE2_"
      data-name="Area [ICON:feather/camera][SIZE:MEDIUM][STATE:DEFAULT][STYLE:STYLE2]"
      width="20"
      height="20"
      fill="rgba(253,73,198,0.35)"
      opacity="0"
    />
    <g id="Icon" transform="translate(0.833 2.5)">
      <path
        id="Path"
        d="M19.167,15.833A1.667,1.667,0,0,1,17.5,17.5H2.5A1.667,1.667,0,0,1,.833,15.833V6.667A1.667,1.667,0,0,1,2.5,5H5.833L7.5,2.5h5L14.167,5H17.5a1.667,1.667,0,0,1,1.667,1.667Z"
        transform="translate(-0.833 -2.5)"
        fill="none"
        stroke="#3e3e3e"
        stroke-linecap="round"
        stroke-linejoin="round"
        stroke-width="1.667"
      />
      <circle
        id="Path-2"
        data-name="Path"
        cx="3.333"
        cy="3.333"
        r="3.333"
        transform="translate(5.834 5)"
        fill="none"
        stroke="#3e3e3e"
        stroke-linecap="round"
        stroke-linejoin="round"
        stroke-width="1.667"
      />
    </g>
  </g>
</svg>
