<svg xmlns="http://www.w3.org/2000/svg" width="1259.906" height="649.449" viewBox="0 0 1259.906 649.449">
  <g id="Groupe_3965" data-name="Groupe 3965" transform="translate(-11322 -3917.043)">
    <g id="UX-Perception" transform="translate(11328.383 4139.75)">
      <text id="Core_Signaling_Performance" data-name="Core Signaling Performance" transform="translate(66.134 30.288)" font-size="24" font-family="SegoeUI, Segoe UI"><tspan x="0" y="0">Core Signaling Performance</tspan></text>
      <g id="Icon_ionic-ios-switch" data-name="Icon ionic-ios-switch">
        <path id="Tracé_7982" data-name="Tracé 7982" d="M16.476,27.574a4.652,4.652,0,1,1-4.652-4.652,4.652,4.652,0,0,1,4.652,4.652Z" transform="translate(-1.19 7.871)" fill="#046eab"/>
        <path id="Tracé_7983" data-name="Tracé 7983" d="M38.765,19.125h-24.7a10.634,10.634,0,1,0,0,21.267h24.7a10.634,10.634,0,1,0,0-21.267ZM14.009,36.848A7.089,7.089,0,1,1,21.1,29.759,7.1,7.1,0,0,1,14.009,36.848Z" transform="translate(-3.375 5.687)" fill="#046eab"/>
        <path id="Tracé_7984" data-name="Tracé 7984" d="M32.226,11.824a4.652,4.652,0,1,1-4.652-4.652,4.652,4.652,0,0,1,4.652,4.652Z" transform="translate(7.871 -1.19)" fill="#046eab"/>
        <path id="Tracé_7985" data-name="Tracé 7985" d="M14.064,24.642h24.7a10.634,10.634,0,1,0,0-21.267h-24.7a10.634,10.634,0,1,0,0,21.267ZM38.82,6.92a7.089,7.089,0,1,1-7.089,7.089A7.1,7.1,0,0,1,38.82,6.92Z" transform="translate(-3.375 -3.375)" fill="#046eab"/>
      </g>
    </g>
    <g id="UX-Perception-2" data-name="UX-Perception" transform="translate(11322 4025.686)">
      <path id="TopBackgroung" d="M0,0H484.406V76.8H0Z" fill="#e8e8e8"/>
      <text id="RAN_QoS_Monitoring" data-name="RAN QoS Monitoring" transform="translate(84.604 44.64)" font-size="24" font-family="SegoeUI, Segoe UI"><tspan x="0" y="0">RAN QoS Monitoring</tspan></text>
      <g id="_5GTowerMain" data-name="5GTowerMain" transform="translate(0.755 6.014)">
        <g id="Groupe_617" data-name="Groupe 617" transform="translate(17.041)">
          <path id="Tracé_4435" data-name="Tracé 4435" d="M214.4,159.642l.386,12,2.765-.3a1.083,1.083,0,0,0,.956-1.159l-.732-9.861a1.06,1.06,0,0,0-1.24-.976l-2.135.325Z" transform="translate(-201.513 -153.075)" fill="#046eab"/>
          <path id="Tracé_4436" data-name="Tracé 4436" d="M217.4,215.022a.4.4,0,0,1-.386-.366l-2.359-56.4a.376.376,0,1,1,.752-.02l2.359,56.4a.382.382,0,0,1-.366.386Z" transform="translate(-201.244 -154.576)" fill="#046eab"/>
          <path id="Tracé_4437" data-name="Tracé 4437" d="M210.976,215.022h0a.382.382,0,0,1-.366-.386l2.359-56.4a.376.376,0,1,1,.752.02l-2.359,56.4A.382.382,0,0,1,210.976,215.022Z" transform="translate(-205.428 -154.576)" fill="#046eab"/>
          <path id="Tracé_4438" data-name="Tracé 4438" d="M211.858,167.082s-.163-.041-.2-.122a.261.261,0,0,1,.081-.325l6.242-3.558-5.835-3.375a.237.237,0,1,1,.244-.407l6.181,3.578s.122.122.122.2a.224.224,0,0,1-.122.2l-6.608,3.761a.721.721,0,0,1-.122.02Z" transform="translate(-204.379 -153.134)" fill="#046eab"/>
          <path id="Tracé_4439" data-name="Tracé 4439" d="M211.858,170.692s-.163-.041-.2-.122a.261.261,0,0,1,.081-.325l6.242-3.558-5.835-3.375a.237.237,0,0,1,.244-.407l6.181,3.578s.122.122.122.2a.224.224,0,0,1-.122.2l-6.608,3.761a.72.72,0,0,1-.122.02Z" transform="translate(-204.379 -149.404)" fill="#046eab"/>
          <path id="Tracé_4440" data-name="Tracé 4440" d="M211.606,174.26s-.163-.041-.2-.122a.225.225,0,0,1,.1-.3l7.279-3.538-6.791-3.355a.227.227,0,0,1,.2-.407l7.218,3.578s.122.122.122.2a.27.27,0,0,1-.122.2l-7.706,3.761a.414.414,0,0,1-.1.02Z" transform="translate(-204.635 -145.654)" fill="#046eab"/>
          <path id="Tracé_4441" data-name="Tracé 4441" d="M211.486,177.712s-.183-.061-.224-.142a.217.217,0,0,1,.122-.3l7.787-3.375-7.624-3.355a.24.24,0,0,1-.122-.3.232.232,0,0,1,.3-.122l8.112,3.578s.142.122.142.224a.2.2,0,0,1-.142.2l-8.275,3.578h-.1Z" transform="translate(-204.779 -141.948)" fill="#046eab"/>
          <path id="Tracé_4442" data-name="Tracé 4442" d="M211.261,181.152s-.183-.061-.224-.142a.226.226,0,0,1,.142-.305l8.5-3.294-8.133-3.192a.232.232,0,0,1,.183-.427l8.682,3.416s.142.122.142.224a.25.25,0,0,1-.142.224l-9.048,3.5h-.081Z" transform="translate(-205.002 -138.151)" fill="#046eab"/>
          <path id="Tracé_4443" data-name="Tracé 4443" d="M211.181,184.992s-.183-.061-.224-.142a.226.226,0,0,1,.142-.3l8.946-3.436-8.621-3.355a.238.238,0,0,1,.163-.447l9.19,3.578s.142.122.142.224a.25.25,0,0,1-.142.224l-9.515,3.639h-.081Z" transform="translate(-205.085 -134.508)" fill="#046eab"/>
          <path id="Tracé_4444" data-name="Tracé 4444" d="M211.081,188.541s-.183-.061-.224-.163a.226.226,0,0,1,.142-.3l9.414-3.375-9.271-3.355a.238.238,0,0,1,.163-.447l9.881,3.578s.163.122.163.224a.238.238,0,0,1-.163.224L211.163,188.5h-.081Z" transform="translate(-205.188 -130.799)" fill="#046eab"/>
          <g id="Groupe_612" data-name="Groupe 612" transform="translate(4.633)">
            <path id="Tracé_4445" data-name="Tracé 4445" d="M215.037,156.27h0v21.9h0a4.7,4.7,0,0,1-4.7-4.7V160.947a4.7,4.7,0,0,1,4.7-4.7Z" transform="translate(-210.34 -156.25)" fill="#046eab"/>
            <rect id="Rectangle_1832" data-name="Rectangle 1832" width="2.338" height="21.897" transform="translate(2.338 0.02)" fill="#046eab"/>
          </g>
          <g id="Groupe_614" data-name="Groupe 614" transform="translate(13.822 13.085)">
            <path id="Tracé_4446" data-name="Tracé 4446" d="M214.86,166.41v1.342a.422.422,0,0,0,.386.427l4.575.386v-.976L215.429,166a.422.422,0,0,0-.569.407Z" transform="translate(-214.86 -159.285)" fill="#046eab"/>
            <g id="Groupe_613" data-name="Groupe 613" transform="translate(1.438 0)">
              <ellipse id="Ellipse_28" data-name="Ellipse 28" cx="2.623" cy="5.449" rx="2.623" ry="5.449" transform="matrix(0.967, -0.253, 0.253, 0.967, 0, 1.328)" fill="#046eab"/>
              <path id="Tracé_4447" data-name="Tracé 4447" d="M220.662,167.664c-.732-2.826-2.419-4.859-3.8-4.636a4.829,4.829,0,0,1,1.261,2.2c.468,1.789.244,2.826.752,4.107a20.356,20.356,0,0,1,.61,4.27h.02C220.906,173.235,221.414,170.572,220.662,167.664Z" transform="translate(-214.232 -162.349)" fill="#046eab"/>
            </g>
          </g>
          <g id="Groupe_616" data-name="Groupe 616" transform="translate(0 23.562)">
            <path id="Tracé_4448" data-name="Tracé 4448" d="M214.089,170.976v1.139a.372.372,0,0,1-.325.366l-3.9.346v-.834l3.741-1.342a.361.361,0,0,1,.488.346Z" transform="translate(-206.203 -164.955)" fill="#046eab"/>
            <g id="Groupe_615" data-name="Groupe 615" transform="translate(0 0)">
              <ellipse id="Ellipse_29" data-name="Ellipse 29" cx="4.656" cy="2.236" rx="4.656" ry="2.236" transform="matrix(0.253, -0.967, 0.967, 0.253, 0, 9.009)" fill="#046eab"/>
              <path id="Tracé_4449" data-name="Tracé 4449" d="M212.4,173.173c-.63,2.419-2.053,4.148-3.233,3.944a4.147,4.147,0,0,0,1.078-1.87c.407-1.525.2-2.419.63-3.5a17.394,17.394,0,0,0,.529-3.639h0c1.2.3,1.627,2.582.976,5.063Z" transform="translate(-206.916 -167.558)" fill="#046eab"/>
            </g>
          </g>
        </g>
        <g id="Groupe_623" data-name="Groupe 623" transform="translate(13.891 41.172)">
          <path id="Tracé_4450" data-name="Tracé 4450" d="M208.81,177.743l.142,4.371,1.017-.122a.39.39,0,0,0,.346-.427l-.264-3.6a.4.4,0,0,0-.447-.366l-.773.122Z" transform="translate(-204.138 -175.364)" fill="#046eab"/>
          <path id="Tracé_4451" data-name="Tracé 4451" d="M209.906,197.94s-.142-.061-.142-.142l-.854-20.576s.061-.142.122-.142a.136.136,0,0,1,.142.122l.854,20.576s-.061.142-.122.142h0Z" transform="translate(-204.034 -175.901)" fill="#046eab"/>
          <path id="Tracé_4452" data-name="Tracé 4452" d="M207.554,197.931h0a.114.114,0,0,1-.122-.142l.854-20.576s.061-.142.142-.122a.114.114,0,0,1,.122.142l-.854,20.576s-.061.142-.142.142Z" transform="translate(-205.565 -175.891)" fill="#046eab"/>
          <path id="Tracé_4453" data-name="Tracé 4453" d="M207.885,180.451s-.061,0-.081-.041a.1.1,0,0,1,.041-.122l2.277-1.3-2.135-1.22s-.061-.081-.041-.122a.1.1,0,0,1,.122-.041l2.257,1.3a.142.142,0,0,1,.041.081.081.081,0,0,1-.041.081l-2.419,1.362h-.041Z" transform="translate(-205.185 -175.368)" fill="#046eab"/>
          <path id="Tracé_4454" data-name="Tracé 4454" d="M207.885,181.76s-.061,0-.081-.041a.1.1,0,0,1,.041-.122l2.277-1.3-2.135-1.22s-.061-.081-.041-.122a.1.1,0,0,1,.122-.041l2.257,1.3a.142.142,0,0,1,.041.081.081.081,0,0,1-.041.081l-2.419,1.362h-.041Z" transform="translate(-205.185 -174.014)" fill="#046eab"/>
          <path id="Tracé_4455" data-name="Tracé 4455" d="M207.8,183.081s-.061,0-.081-.041a.1.1,0,0,1,.041-.122l2.663-1.3-2.48-1.22s-.061-.081-.041-.122a.1.1,0,0,1,.122-.041l2.643,1.3a.142.142,0,0,1,.041.081c0,.041,0,.061-.041.081l-2.806,1.362h-.041Z" transform="translate(-205.278 -172.65)" fill="#046eab"/>
          <path id="Tracé_4456" data-name="Tracé 4456" d="M207.741,184.33a.089.089,0,0,1-.081-.061c0-.041,0-.1.041-.1l2.846-1.24-2.785-1.22s-.061-.061-.041-.122c0-.041.061-.061.122-.041l2.968,1.3s.061.041.041.081c0,.041,0,.061-.061.081l-3.029,1.3h-.041Z" transform="translate(-205.326 -171.297)" fill="#046eab"/>
          <path id="Tracé_4457" data-name="Tracé 4457" d="M207.661,185.577a.158.158,0,0,1-.081-.061c0-.041,0-.1.041-.1l3.09-1.2-2.968-1.159s-.061-.061-.041-.1c0-.041.061-.061.1-.041l3.172,1.24s.061.041.061.081-.02.061-.061.081l-3.294,1.281h-.041Z" transform="translate(-205.409 -169.881)" fill="#046eab"/>
          <path id="Tracé_4458" data-name="Tracé 4458" d="M207.631,186.979a.158.158,0,0,1-.081-.061c0-.041,0-.1.041-.1l3.273-1.261-3.151-1.22s-.061-.061-.041-.1c0-.041.061-.061.1-.041l3.355,1.3s.061.041.061.081-.02.061-.061.081l-3.477,1.322h-.02Z" transform="translate(-205.44 -168.559)" fill="#046eab"/>
          <path id="Tracé_4459" data-name="Tracé 4459" d="M207.591,188.265a.159.159,0,0,1-.081-.061c0-.041,0-.1.061-.1l3.436-1.22-3.4-1.22s-.061-.061-.061-.1.061-.061.1-.061l3.6,1.3s.061.041.061.081-.02.061-.061.081l-3.66,1.3h-.02Z" transform="translate(-205.481 -167.201)" fill="#046eab"/>
          <g id="Groupe_618" data-name="Groupe 618" transform="translate(1.663)">
            <path id="Tracé_4460" data-name="Tracé 4460" d="M209.038,176.5h0v7.99h0a1.705,1.705,0,0,1-1.708-1.708v-4.575A1.705,1.705,0,0,1,209.038,176.5Z" transform="translate(-207.33 -176.5)" fill="#046eab"/>
            <rect id="Rectangle_1833" data-name="Rectangle 1833" width="0.854" height="7.99" transform="translate(0.854)" fill="#046eab"/>
          </g>
          <g id="Groupe_620" data-name="Groupe 620" transform="translate(5.018 4.744)">
            <path id="Tracé_4461" data-name="Tracé 4461" d="M208.98,180.182v.488s.061.142.142.163l1.667.142v-.346l-1.606-.569s-.2.041-.2.142Z" transform="translate(-208.98 -177.566)" fill="#046eab"/>
            <g id="Groupe_619" data-name="Groupe 619" transform="translate(0.54 0)">
              <ellipse id="Ellipse_30" data-name="Ellipse 30" cx="0.956" cy="1.993" rx="0.956" ry="1.993" transform="matrix(0.967, -0.253, 0.253, 0.967, 0, 0.484)" fill="#046eab"/>
              <path id="Tracé_4462" data-name="Tracé 4462" d="M211.093,180.661c-.264-1.037-.874-1.769-1.383-1.688a1.74,1.74,0,0,1,.468.813,14.966,14.966,0,0,0,.264,1.5,7.075,7.075,0,0,1,.224,1.566h0c.508-.142.691-1.1.427-2.176Z" transform="translate(-208.766 -178.695)" fill="#046eab"/>
            </g>
          </g>
          <g id="Groupe_622" data-name="Groupe 622" transform="translate(0 8.612)">
            <path id="Tracé_4463" data-name="Tracé 4463" d="M208.7,181.882v.407s-.061.122-.122.122l-1.423.122v-.3l1.362-.488s.183.041.183.122Z" transform="translate(-205.853 -179.698)" fill="#046eab"/>
            <g id="Groupe_621" data-name="Groupe 621" transform="translate(0 0)">
              <ellipse id="Ellipse_31" data-name="Ellipse 31" cx="1.688" cy="0.813" rx="1.688" ry="0.813" transform="matrix(0.253, -0.967, 0.967, 0.253, 0, 3.265)" fill="#046eab"/>
              <path id="Tracé_4464" data-name="Tracé 4464" d="M208.079,182.67c-.224.874-.752,1.5-1.179,1.444a1.434,1.434,0,0,0,.386-.691c.142-.549.081-.874.224-1.281a6.473,6.473,0,0,0,.183-1.322h0c.427.122.59.935.366,1.85Z" transform="translate(-206.111 -180.649)" fill="#046eab"/>
            </g>
          </g>
        </g>
        <g id="Groupe_625" data-name="Groupe 625" transform="translate(0 23.199)">
          <path id="Tracé_4465" data-name="Tracé 4465" d="M224.719,193.228s-.142-.061-.142-.142V192.7s.061-.142.142-.142a.139.139,0,0,1,.142.142v.386S224.8,193.228,224.719,193.228Zm0-1.139s-.142-.061-.142-.142v-.386s.061-.142.142-.142a.139.139,0,0,1,.142.142v.386S224.8,192.09,224.719,192.09Zm0-1.139s-.142-.061-.142-.142v-.386s.061-.142.142-.142a.139.139,0,0,1,.142.142v.386S224.8,190.951,224.719,190.951Zm0-1.139s-.142-.061-.142-.142v-.386s.061-.142.142-.142a.139.139,0,0,1,.142.142v.386S224.8,189.813,224.719,189.813Zm0-1.139s-.142-.061-.142-.142v-.386s.061-.142.142-.142a.139.139,0,0,1,.142.142v.386S224.8,188.674,224.719,188.674Zm0-1.139s-.142-.061-.142-.142v-.386s.061-.142.142-.142a.139.139,0,0,1,.142.142v.386S224.8,187.535,224.719,187.535Zm0-1.139s-.142-.061-.142-.142v-.386s.061-.142.142-.142a.139.139,0,0,1,.142.142v.386S224.8,186.4,224.719,186.4Zm0-1.139s-.142-.061-.142-.142v-.386s.061-.142.142-.142a.139.139,0,0,1,.142.142v.386S224.8,185.258,224.719,185.258Zm0-1.139s-.142-.061-.142-.142v-.386s.061-.142.142-.142a.139.139,0,0,1,.142.142v.386S224.8,184.12,224.719,184.12Zm0-1.139s-.142-.061-.142-.142v-.386s.061-.142.142-.142a.139.139,0,0,1,.142.142v.386S224.8,182.981,224.719,182.981Zm0-1.139s-.142-.061-.142-.142v-.386s.061-.142.142-.142a.139.139,0,0,1,.142.142v.386S224.8,181.843,224.719,181.843Zm0-1.139s-.142-.061-.142-.142v-.386s.061-.142.142-.142a.139.139,0,0,1,.142.142v.386S224.8,180.7,224.719,180.7Zm0-1.139s-.142-.061-.142-.142v-.386s.061-.142.142-.142a.139.139,0,0,1,.142.142v.386S224.8,179.565,224.719,179.565Zm0-1.139s-.142-.061-.142-.142V177.9s.061-.142.142-.142a.139.139,0,0,1,.142.142v.386S224.8,178.427,224.719,178.427Zm0-1.139s-.142-.061-.142-.142v-.386s.061-.142.142-.142a.139.139,0,0,1,.142.142v.386S224.8,177.288,224.719,177.288Zm0-1.139s-.142-.061-.142-.142v-.386s.061-.142.142-.142a.139.139,0,0,1,.142.142v.386S224.8,176.15,224.719,176.15Zm0-1.139s-.142-.061-.142-.142v-.386s.061-.142.142-.142a.139.139,0,0,1,.142.142v.386S224.8,175.011,224.719,175.011Zm0-1.139s-.142-.061-.142-.142v-.386s.061-.142.142-.142a.139.139,0,0,1,.142.142v.386S224.8,173.873,224.719,173.873Zm0-1.139s-.142-.061-.142-.142v-.386s.061-.142.142-.142a.139.139,0,0,1,.142.142v.386S224.8,172.734,224.719,172.734Zm-.569-.569h-.386s-.142-.061-.142-.142a.139.139,0,0,1,.142-.142h.386s.142.061.142.142A.139.139,0,0,1,224.15,172.165Zm-1.139,0h-.386s-.142-.061-.142-.142a.139.139,0,0,1,.142-.142h.386s.142.061.142.142A.139.139,0,0,1,223.011,172.165Zm-1.139,0h-.386s-.142-.061-.142-.142a.139.139,0,0,1,.142-.142h.386s.142.061.142.142A.139.139,0,0,1,221.873,172.165Zm-1.139,0h-.386s-.142-.061-.142-.142a.139.139,0,0,1,.142-.142h.386s.142.061.142.142A.139.139,0,0,1,220.734,172.165Zm-1.139,0h-.386s-.142-.061-.142-.142a.139.139,0,0,1,.142-.142h.386s.142.061.142.142A.139.139,0,0,1,219.6,172.165Zm-1.139,0h-.386s-.142-.061-.142-.142a.139.139,0,0,1,.142-.142h.386s.142.061.142.142A.139.139,0,0,1,218.457,172.165Zm-1.139,0h-.386s-.142-.061-.142-.142a.139.139,0,0,1,.142-.142h.386s.142.061.142.142A.139.139,0,0,1,217.319,172.165Z" transform="translate(-182.002 -163.3)" fill="#046eab"/>
          <ellipse id="Ellipse_32" data-name="Ellipse 32" cx="0.895" cy="0.895" rx="0.895" ry="0.895" transform="translate(34.035 7.868)" fill="#046eab"/>
          <ellipse id="Ellipse_33" data-name="Ellipse 33" cx="0.895" cy="0.895" rx="0.895" ry="0.895" transform="translate(14.395 5.144)" fill="#046eab"/>
          <path id="Tracé_4466" data-name="Tracé 4466" d="M205.532,203.071s-.142-.061-.142-.142v-.386s.061-.142.142-.142a.139.139,0,0,1,.142.142v.386S205.614,203.071,205.532,203.071Zm0-1.139s-.142-.061-.142-.142V201.4s.061-.142.142-.142a.139.139,0,0,1,.142.142v.386S205.614,201.932,205.532,201.932Zm0-1.139s-.142-.061-.142-.142v-.386s.061-.142.142-.142a.139.139,0,0,1,.142.142v.386S205.614,200.794,205.532,200.794Zm0-1.139s-.142-.061-.142-.142v-.386s.061-.142.142-.142a.139.139,0,0,1,.142.142v.386S205.614,199.655,205.532,199.655Zm0-1.139s-.142-.061-.142-.142v-.386s.061-.142.142-.142a.139.139,0,0,1,.142.142v.386S205.614,198.516,205.532,198.516Zm0-1.139s-.142-.061-.142-.142v-.386s.061-.142.142-.142a.139.139,0,0,1,.142.142v.386S205.614,197.378,205.532,197.378Zm0-1.139s-.142-.061-.142-.142v-.386s.061-.142.142-.142a.139.139,0,0,1,.142.142v.386S205.614,196.239,205.532,196.239Zm0-1.139s-.142-.061-.142-.142v-.386s.061-.142.142-.142a.139.139,0,0,1,.142.142v.386S205.614,195.1,205.532,195.1Zm0-1.139s-.142-.061-.142-.142v-.386s.061-.142.142-.142a.139.139,0,0,1,.142.142v.386S205.614,193.962,205.532,193.962Zm0-1.139s-.142-.061-.142-.142v-.386s.061-.142.142-.142a.139.139,0,0,1,.142.142v.386S205.614,192.824,205.532,192.824Zm0-1.139s-.142-.061-.142-.142v-.386s.061-.142.142-.142a.139.139,0,0,1,.142.142v.386S205.614,191.685,205.532,191.685Zm0-1.139s-.142-.061-.142-.142v-.386s.061-.142.142-.142a.139.139,0,0,1,.142.142v.386S205.614,190.546,205.532,190.546Zm0-1.139s-.142-.061-.142-.142v-.386s.061-.142.142-.142a.139.139,0,0,1,.142.142v.386S205.614,189.408,205.532,189.408Zm0-1.139s-.142-.061-.142-.142v-.386s.061-.142.142-.142a.139.139,0,0,1,.142.142v.386S205.614,188.269,205.532,188.269Zm0-1.139s-.142-.061-.142-.142V186.6s.061-.142.142-.142a.139.139,0,0,1,.142.142v.386S205.614,187.131,205.532,187.131Zm0-1.139s-.142-.061-.142-.142v-.386s.061-.142.142-.142a.139.139,0,0,1,.142.142v.386S205.614,185.992,205.532,185.992Zm0-1.139s-.142-.061-.142-.142v-.386s.061-.142.142-.142a.139.139,0,0,1,.142.142v.386S205.614,184.854,205.532,184.854Zm0-1.139s-.142-.061-.142-.142v-.386s.061-.142.142-.142a.139.139,0,0,1,.142.142v.386S205.614,183.715,205.532,183.715Zm0-1.139s-.142-.061-.142-.142v-.386s.061-.142.142-.142a.139.139,0,0,1,.142.142v.386S205.614,182.576,205.532,182.576Zm0-1.139s-.142-.061-.142-.142v-.386s.061-.142.142-.142a.139.139,0,0,1,.142.142v.386S205.614,181.438,205.532,181.438Zm0-1.139s-.142-.061-.142-.142v-.386s.061-.142.142-.142a.139.139,0,0,1,.142.142v.386S205.614,180.3,205.532,180.3Zm0-1.139s-.142-.061-.142-.142v-.386s.061-.142.142-.142a.139.139,0,0,1,.142.142v.386S205.614,179.161,205.532,179.161Zm0-1.139s-.142-.061-.142-.142v-.386s.061-.142.142-.142a.139.139,0,0,1,.142.142v.386S205.614,178.022,205.532,178.022Zm0-1.139s-.142-.061-.142-.142v-.386s.061-.142.142-.142a.139.139,0,0,1,.142.142v.386S205.614,176.884,205.532,176.884Zm0-1.139s-.142-.061-.142-.142v-.386s.061-.142.142-.142a.139.139,0,0,1,.142.142v.386S205.614,175.745,205.532,175.745Zm0-1.139s-.142-.061-.142-.142v-.386s.061-.142.142-.142a.139.139,0,0,1,.142.142v.386S205.614,174.606,205.532,174.606Zm0-1.139s-.142-.061-.142-.142v-.386s.061-.142.142-.142a.139.139,0,0,1,.142.142v.386S205.614,173.468,205.532,173.468Zm0-1.139s-.142-.061-.142-.142V171.8s.061-.142.142-.142a.139.139,0,0,1,.142.142v.386S205.614,172.329,205.532,172.329Zm0-1.139s-.142-.061-.142-.142v-.366s.061-.142.142-.142h.02s.142.061.142.142a.122.122,0,0,1-.02.081v.285S205.614,171.191,205.532,171.191Zm3.436-.366h-.386s-.142-.061-.142-.142a.139.139,0,0,1,.142-.142h.386s.142.061.142.142A.139.139,0,0,1,208.968,170.825Zm-1.139,0h-.386s-.142-.061-.142-.142a.139.139,0,0,1,.142-.142h.386s.142.061.142.142A.139.139,0,0,1,207.83,170.825Zm-1.139,0H206.3s-.142-.061-.142-.142a.139.139,0,0,1,.142-.142h.386s.142.061.142.142A.139.139,0,0,1,206.691,170.825Z" transform="translate(-193.781 -164.684)" fill="#046eab"/>
          <ellipse id="Ellipse_34" data-name="Ellipse 34" cx="0.895" cy="0.895" rx="0.895" ry="0.895" transform="translate(16.001)" fill="#046eab"/>
          <path id="Tracé_4467" data-name="Tracé 4467" d="M199.822,194.715s-.142-.061-.142-.142v-.386s.061-.142.142-.142a.139.139,0,0,1,.142.142v.386S199.9,194.715,199.822,194.715Zm0-1.139s-.142-.061-.142-.142v-.386s.061-.142.142-.142a.139.139,0,0,1,.142.142v.386S199.9,193.577,199.822,193.577Zm0-1.139s-.142-.061-.142-.142v-.386s.061-.142.142-.142a.139.139,0,0,1,.142.142v.386S199.9,192.438,199.822,192.438Zm0-1.139s-.142-.061-.142-.142v-.386s.061-.142.142-.142a.139.139,0,0,1,.142.142v.386S199.9,191.3,199.822,191.3Zm0-1.139s-.142-.061-.142-.142v-.386s.061-.142.142-.142a.139.139,0,0,1,.142.142v.386S199.9,190.161,199.822,190.161Zm0-1.139s-.142-.061-.142-.142v-.386s.061-.142.142-.142a.139.139,0,0,1,.142.142v.386S199.9,189.023,199.822,189.023Zm0-1.139s-.142-.061-.142-.142v-.386s.061-.142.142-.142a.139.139,0,0,1,.142.142v.386S199.9,187.884,199.822,187.884Zm0-1.139s-.142-.061-.142-.142v-.386s.061-.142.142-.142a.139.139,0,0,1,.142.142v.386S199.9,186.745,199.822,186.745Zm0-1.139s-.142-.061-.142-.142v-.386s.061-.142.142-.142a.139.139,0,0,1,.142.142v.386S199.9,185.607,199.822,185.607Zm0-1.139s-.142-.061-.142-.142v-.386s.061-.142.142-.142a.139.139,0,0,1,.142.142v.386S199.9,184.468,199.822,184.468Zm0-1.139s-.142-.061-.142-.142V182.8s.061-.142.142-.142a.139.139,0,0,1,.142.142v.386S199.9,183.33,199.822,183.33Zm0-1.139s-.142-.061-.142-.142v-.386s.061-.142.142-.142a.139.139,0,0,1,.142.142v.386S199.9,182.191,199.822,182.191Zm0-1.139s-.142-.061-.142-.142v-.386s.061-.142.142-.142a.139.139,0,0,1,.142.142v.386S199.9,181.053,199.822,181.053Zm0-1.139s-.142-.061-.142-.142v-.386s.061-.142.142-.142a.139.139,0,0,1,.142.142v.386S199.9,179.914,199.822,179.914Zm0-1.139s-.142-.061-.142-.142v-.386s.061-.142.142-.142a.139.139,0,0,1,.142.142v.386S199.9,178.776,199.822,178.776Zm0-1.139s-.142-.061-.142-.142v-.386s.061-.142.142-.142a.139.139,0,0,1,.142.142v.386S199.9,177.637,199.822,177.637Zm0-1.139s-.142-.061-.142-.142v-.386s.061-.142.142-.142a.139.139,0,0,1,.142.142v.386S199.9,176.5,199.822,176.5Zm0-1.139s-.142-.061-.142-.142v-.386s.061-.142.142-.142a.139.139,0,0,1,.142.142v.386S199.9,175.36,199.822,175.36Zm0-1.139s-.142-.061-.142-.142v-.386s.061-.142.142-.142a.139.139,0,0,1,.142.142v.386S199.9,174.221,199.822,174.221Zm0-1.139s-.142-.061-.142-.142v-.386s.061-.142.142-.142a.139.139,0,0,1,.142.142v.386S199.9,173.083,199.822,173.083Zm0-1.139s-.142-.061-.142-.142v-.386s.061-.142.142-.142a.139.139,0,0,1,.142.142v.386S199.9,171.944,199.822,171.944Zm0-1.139s-.142-.061-.142-.142v-.386s.061-.142.142-.142a.139.139,0,0,1,.142.142v.386S199.9,170.805,199.822,170.805Zm0-1.139s-.142-.061-.142-.142v-.386s.061-.142.142-.142a.139.139,0,0,1,.142.142v.386S199.9,169.667,199.822,169.667Zm0-1.139s-.142-.061-.142-.142v-.224s.061-.142.142-.142h.142s.142.061.142.142a.139.139,0,0,1-.142.142h0v.1s-.061.142-.142.142ZM215.9,168.3h-.386s-.142-.061-.142-.142a.139.139,0,0,1,.142-.142h.386s.142.061.142.142A.139.139,0,0,1,215.9,168.3Zm-1.139,0h-.386s-.142-.061-.142-.142a.139.139,0,0,1,.142-.142h.386s.142.061.142.142A.139.139,0,0,1,214.766,168.3Zm-1.139,0h-.386s-.142-.061-.142-.142a.139.139,0,0,1,.142-.142h.386s.142.061.142.142A.139.139,0,0,1,213.628,168.3Zm-1.139,0H212.1s-.142-.061-.142-.142a.139.139,0,0,1,.142-.142h.386s.142.061.142.142A.139.139,0,0,1,212.489,168.3Zm-1.139,0h-.386s-.142-.061-.142-.142a.139.139,0,0,1,.142-.142h.386s.142.061.142.142A.139.139,0,0,1,211.35,168.3Zm-1.139,0h-.386s-.142-.061-.142-.142a.139.139,0,0,1,.142-.142h.386s.142.061.142.142A.139.139,0,0,1,210.212,168.3Zm-1.139,0h-.386s-.142-.061-.142-.142a.139.139,0,0,1,.142-.142h.386s.142.061.142.142A.139.139,0,0,1,209.073,168.3Zm-1.139,0h-.386s-.142-.061-.142-.142a.139.139,0,0,1,.142-.142h.386s.142.061.142.142A.139.139,0,0,1,207.935,168.3Zm-1.139,0h-.386s-.142-.061-.142-.142a.139.139,0,0,1,.142-.142h.386s.142.061.142.142A.139.139,0,0,1,206.8,168.3Zm-1.139,0h-.386s-.142-.061-.142-.142a.139.139,0,0,1,.142-.142h.386s.142.061.142.142A.139.139,0,0,1,205.658,168.3Zm-1.139,0h-.386s-.142-.061-.142-.142a.139.139,0,0,1,.142-.142h.386s.142.061.142.142A.139.139,0,0,1,204.519,168.3Zm-1.139,0h-.386s-.142-.061-.142-.142a.139.139,0,0,1,.142-.142h.386s.142.061.142.142A.139.139,0,0,1,203.38,168.3Zm-1.139,0h-.386s-.142-.061-.142-.142a.139.139,0,0,1,.142-.142h.386s.142.061.142.142A.139.139,0,0,1,202.242,168.3Zm-1.139,0h-.386s-.142-.061-.142-.142a.139.139,0,0,1,.142-.142h.386s.142.061.142.142A.139.139,0,0,1,201.1,168.3Z" transform="translate(-199.68 -167.288)" fill="#046eab"/>
          <g id="Groupe_624" data-name="Groupe 624" transform="translate(39.708 2.419)">
            <ellipse id="Ellipse_35" data-name="Ellipse 35" cx="0.895" cy="0.895" rx="0.895" ry="0.895" fill="#046eab"/>
            <path id="Tracé_4468" data-name="Tracé 4468" d="M242.743,194.97s-.142-.061-.142-.142v-.386s.061-.142.142-.142a.139.139,0,0,1,.142.142v.386S242.824,194.97,242.743,194.97Zm0-1.139s-.142-.061-.142-.142V193.3s.061-.142.142-.142a.139.139,0,0,1,.142.142v.386S242.824,193.832,242.743,193.832Zm0-1.139s-.142-.061-.142-.142v-.386s.061-.142.142-.142a.139.139,0,0,1,.142.142v.386S242.824,192.693,242.743,192.693Zm0-1.139s-.142-.061-.142-.142v-.386s.061-.142.142-.142a.139.139,0,0,1,.142.142v.386S242.824,191.555,242.743,191.555Zm0-1.139s-.142-.061-.142-.142v-.386s.061-.142.142-.142a.139.139,0,0,1,.142.142v.386S242.824,190.416,242.743,190.416Zm0-1.139s-.142-.061-.142-.142v-.386s.061-.142.142-.142a.139.139,0,0,1,.142.142v.386S242.824,189.277,242.743,189.277Zm0-1.139s-.142-.061-.142-.142v-.386s.061-.142.142-.142a.139.139,0,0,1,.142.142V188S242.824,188.139,242.743,188.139Zm0-1.139s-.142-.061-.142-.142v-.386s.061-.142.142-.142a.139.139,0,0,1,.142.142v.386S242.824,187,242.743,187Zm0-1.139s-.142-.061-.142-.142v-.386s.061-.142.142-.142a.139.139,0,0,1,.142.142v.386S242.824,185.862,242.743,185.862Zm0-1.139s-.142-.061-.142-.142v-.386s.061-.142.142-.142a.139.139,0,0,1,.142.142v.386S242.824,184.723,242.743,184.723Zm0-1.139s-.142-.061-.142-.142v-.386s.061-.142.142-.142a.139.139,0,0,1,.142.142v.386S242.824,183.585,242.743,183.585Zm0-1.139s-.142-.061-.142-.142v-.386s.061-.142.142-.142a.139.139,0,0,1,.142.142v.386S242.824,182.446,242.743,182.446Zm0-1.139s-.142-.061-.142-.142v-.386s.061-.142.142-.142a.139.139,0,0,1,.142.142v.386S242.824,181.307,242.743,181.307Zm0-1.139s-.142-.061-.142-.142v-.386s.061-.142.142-.142a.139.139,0,0,1,.142.142v.386S242.824,180.169,242.743,180.169Zm0-1.139s-.142-.061-.142-.142V178.5s.061-.142.142-.142a.139.139,0,0,1,.142.142v.386S242.824,179.03,242.743,179.03Zm0-1.139s-.142-.061-.142-.142v-.386s.061-.142.142-.142a.139.139,0,0,1,.142.142v.386S242.824,177.892,242.743,177.892Zm0-1.139s-.142-.061-.142-.142v-.386s.061-.142.142-.142a.139.139,0,0,1,.142.142v.386S242.824,176.753,242.743,176.753Zm0-1.139s-.142-.061-.142-.142v-.386s.061-.142.142-.142a.139.139,0,0,1,.142.142v.386S242.824,175.615,242.743,175.615Zm0-1.139s-.142-.061-.142-.142v-.386s.061-.142.142-.142a.139.139,0,0,1,.142.142v.386S242.824,174.476,242.743,174.476Zm0-1.139s-.142-.061-.142-.142v-.386s.061-.142.142-.142a.139.139,0,0,1,.142.142v.386S242.824,173.337,242.743,173.337Zm0-1.139s-.142-.061-.142-.142v-.386s.061-.142.142-.142a.139.139,0,0,1,.142.142v.386S242.824,172.2,242.743,172.2Zm0-1.139s-.142-.061-.142-.142v-.386s.061-.142.142-.142a.139.139,0,0,1,.142.142v.386S242.824,171.06,242.743,171.06Zm0-1.139s-.142-.061-.142-.142v-.386s.061-.142.142-.142a.139.139,0,0,1,.142.142v.386S242.824,169.922,242.743,169.922Zm-.712-.427h-.386s-.142-.061-.142-.142a.139.139,0,0,1,.142-.142h.386s.142.061.142.142A.139.139,0,0,1,242.032,169.495Zm-1.139,0h-.386s-.142-.061-.142-.142a.139.139,0,0,1,.142-.142h.386s.142.061.142.142A.139.139,0,0,1,240.893,169.495Zm-1.139,0h-.386s-.142-.061-.142-.142a.139.139,0,0,1,.142-.142h.386s.142.061.142.142A.139.139,0,0,1,239.754,169.495Zm-1.139,0h-.386s-.142-.061-.142-.142a.139.139,0,0,1,.142-.142h.386s.142.061.142.142A.139.139,0,0,1,238.616,169.495Zm-1.139,0h-.386s-.142-.061-.142-.142a.139.139,0,0,1,.142-.142h.386s.142.061.142.142A.139.139,0,0,1,237.477,169.495Zm-1.139,0h-.386s-.142-.061-.142-.142a.139.139,0,0,1,.142-.142h.386s.142.061.142.142A.139.139,0,0,1,236.339,169.495Zm-1.139,0h-.386s-.142-.061-.142-.142a.139.139,0,0,1,.142-.142h.386s.142.061.142.142A.139.139,0,0,1,235.2,169.495Zm-1.139,0h-.386s-.142-.061-.142-.142a.139.139,0,0,1,.142-.142h.386s.142.061.142.142A.139.139,0,0,1,234.061,169.495Zm-1.139,0h-.386s-.142-.061-.142-.142a.139.139,0,0,1,.142-.142h.386s.142.061.142.142A.139.139,0,0,1,232.923,169.495Zm-1.139,0H231.4s-.142-.061-.142-.142a.139.139,0,0,1,.142-.142h.386s.142.061.142.142A.139.139,0,0,1,231.784,169.495Zm-1.139,0h-.386s-.142-.061-.142-.142a.139.139,0,0,1,.142-.142h.386s.142.061.142.142A.139.139,0,0,1,230.646,169.495Zm-1.139,0h-.386s-.142-.061-.142-.142a.139.139,0,0,1,.142-.142h.386s.142.061.142.142A.139.139,0,0,1,229.507,169.495Zm-1.139,0h-.386s-.142-.061-.142-.142a.139.139,0,0,1,.142-.142h.386s.142.061.142.142A.139.139,0,0,1,228.369,169.495Zm-1.139,0h-.386s-.142-.061-.142-.142a.139.139,0,0,1,.142-.142h.386s.142.061.142.142A.139.139,0,0,1,227.23,169.495Zm-1.139,0h-.386s-.142-.061-.142-.142a.139.139,0,0,1,.142-.142h.386s.142.061.142.142A.139.139,0,0,1,226.092,169.495Zm-1.139,0h-.386s-.142-.061-.142-.142a.139.139,0,0,1,.142-.142h.386s.142.061.142.142A.139.139,0,0,1,224.953,169.495Zm-1.139,0h-.386s-.142-.061-.142-.142a.139.139,0,0,1,.142-.142h.386s.142.061.142.142A.139.139,0,0,1,223.814,169.495Zm-1.139,0h-.386s-.142-.061-.142-.142a.139.139,0,0,1,.142-.142h.386s.142.061.142.142A.139.139,0,0,1,222.676,169.495Zm-1.139,0h-.386s-.142-.061-.142-.142a.139.139,0,0,1,.142-.142h.386s.142.061.142.142A.139.139,0,0,1,221.537,169.495Zm-1.139,0h-.386s-.142-.061-.142-.142a.139.139,0,0,1,.142-.142h.386s.142.061.142.142A.139.139,0,0,1,220.4,169.495Z" transform="translate(-218.528 -168.478)" fill="#046eab"/>
          </g>
        </g>
        <g id="Groupe_626" data-name="Groupe 626" transform="translate(40.604 12.456)">
          <path id="Tracé_4469" data-name="Tracé 4469" d="M219.771,170.149a.509.509,0,0,1,.163-.366,3.115,3.115,0,0,0,1.017-2.48,3.027,3.027,0,0,0-1.118-2.42.464.464,0,0,1,.569-.732,4.265,4.265,0,0,1,.122,6.323.456.456,0,0,1-.651-.061.486.486,0,0,1-.1-.285Z" transform="translate(-219.651 -160.646)" fill="#046eab"/>
          <path id="Tracé_4470" data-name="Tracé 4470" d="M220.987,173.066a.446.446,0,0,1,.142-.346,6.415,6.415,0,0,0-.183-8.824.462.462,0,1,1,.59-.712,7.317,7.317,0,0,1,.2,10.207.455.455,0,0,1-.651-.041.414.414,0,0,1-.122-.3Z" transform="translate(-218.487 -161.652)" fill="#046eab"/>
          <path id="Tracé_4471" data-name="Tracé 4471" d="M222.488,175.091a.414.414,0,0,1,.122-.3,10.019,10.019,0,0,0-.224-11.63.46.46,0,1,1,.651-.651,10.925,10.925,0,0,1,.264,12.89.474.474,0,0,1-.651.041.5.5,0,0,1-.163-.325Z" transform="translate(-216.959 -162.376)" fill="#046eab"/>
        </g>
        <g id="Groupe_627" data-name="Groupe 627" transform="translate(8.675 3.45)">
          <path id="Tracé_4472" data-name="Tracé 4472" d="M209.439,167.389a.512.512,0,0,0-.122-.447,3.6,3.6,0,0,1-.732-3.009,3.642,3.642,0,0,1,1.688-2.6.537.537,0,0,0-.529-.935,4.954,4.954,0,0,0-1.24,7.258.523.523,0,0,0,.752.041.455.455,0,0,0,.163-.3Z" transform="translate(-200.344 -155.489)" fill="#046eab"/>
          <path id="Tracé_4473" data-name="Tracé 4473" d="M208.157,170.512a.488.488,0,0,0-.122-.427A7.455,7.455,0,0,1,209.764,160a.534.534,0,1,0-.549-.915,7.875,7.875,0,0,0-3.375,5.429,7.777,7.777,0,0,0,1.383,6.242.544.544,0,0,0,.752.081A.528.528,0,0,0,208.157,170.512Z" transform="translate(-202.133 -156.843)" fill="#046eab"/>
          <path id="Tracé_4474" data-name="Tracé 4474" d="M206.271,172.592a.54.54,0,0,0-.081-.386,11.586,11.586,0,0,1,2.277-13.3.537.537,0,1,0-.651-.854,12.65,12.65,0,0,0-2.5,14.74.519.519,0,0,0,.956-.183Z" transform="translate(-203.947 -157.947)" fill="#046eab"/>
        </g>
      </g>
    </g>
    <g id="UX-Perception-3" data-name="UX-Perception" transform="translate(11327.59 4235.685)">
      <text id="Core_Data_IP_Performance" data-name="Core Data IP Performance" transform="translate(66.928 26)" font-size="25" font-family="SegoeUI, Segoe UI"><tspan x="0" y="0">Core Data IP Performance</tspan></text>
      <g id="Image_" data-name="Image " transform="translate(0 1.511)">
        <path id="Icon_awesome-grip-horizontal" data-name="Icon awesome-grip-horizontal" d="M11.045,19.684H3.682C1.649,19.684,0,20.65,0,21.84v4.311c0,1.19,1.649,2.156,3.682,2.156h7.363c2.033,0,3.682-.965,3.682-2.156V21.84C14.727,20.65,13.078,19.684,11.045,19.684Zm18.408,0H22.09c-2.033,0-3.682.965-3.682,2.156v4.311c0,1.19,1.649,2.156,3.682,2.156h7.363c2.033,0,3.682-.965,3.682-2.156V21.84C33.135,20.65,31.486,19.684,29.453,19.684Zm18.408,0H40.5c-2.033,0-3.682.965-3.682,2.156v4.311c0,1.19,1.649,2.156,3.682,2.156h7.363c2.033,0,3.682-.965,3.682-2.156V21.84C51.543,20.65,49.895,19.684,47.862,19.684ZM11.045,6.75H3.682C1.649,6.75,0,7.715,0,8.906v4.311c0,1.19,1.649,2.156,3.682,2.156h7.363c2.033,0,3.682-.965,3.682-2.156V8.906C14.727,7.715,13.078,6.75,11.045,6.75Zm18.408,0H22.09c-2.033,0-3.682.965-3.682,2.156v4.311c0,1.19,1.649,2.156,3.682,2.156h7.363c2.033,0,3.682-.965,3.682-2.156V8.906C33.135,7.715,31.486,6.75,29.453,6.75Zm18.408,0H40.5c-2.033,0-3.682.965-3.682,2.156v4.311c0,1.19,1.649,2.156,3.682,2.156h7.363c2.033,0,3.682-.965,3.682-2.156V8.906C51.543,7.715,49.895,6.75,47.862,6.75Z" transform="translate(0 5.874)" fill="#046eab"/>
        <path id="Icon_awesome-grip-horizontal-2" data-name="Icon awesome-grip-horizontal" d="M11.045,19.684H3.682C1.649,19.684,0,20.65,0,21.84v4.311c0,1.19,1.649,2.156,3.682,2.156h7.363c2.033,0,3.682-.965,3.682-2.156V21.84C14.727,20.65,13.078,19.684,11.045,19.684Zm18.408,0H22.09c-2.033,0-3.682.965-3.682,2.156v4.311c0,1.19,1.649,2.156,3.682,2.156h7.363c2.033,0,3.682-.965,3.682-2.156V21.84C33.135,20.65,31.486,19.684,29.453,19.684Zm18.408,0H40.5c-2.033,0-3.682.965-3.682,2.156v4.311c0,1.19,1.649,2.156,3.682,2.156h7.363c2.033,0,3.682-.965,3.682-2.156V21.84C51.543,20.65,49.895,19.684,47.862,19.684ZM11.045,6.75H3.682C1.649,6.75,0,7.715,0,8.906v4.311c0,1.19,1.649,2.156,3.682,2.156h7.363c2.033,0,3.682-.965,3.682-2.156V8.906C14.727,7.715,13.078,6.75,11.045,6.75Zm18.408,0H22.09c-2.033,0-3.682.965-3.682,2.156v4.311c0,1.19,1.649,2.156,3.682,2.156h7.363c2.033,0,3.682-.965,3.682-2.156V8.906C33.135,7.715,31.486,6.75,29.453,6.75Zm18.408,0H40.5c-2.033,0-3.682.965-3.682,2.156v4.311c0,1.19,1.649,2.156,3.682,2.156h7.363c2.033,0,3.682-.965,3.682-2.156V8.906C51.543,7.715,49.895,6.75,47.862,6.75Z" transform="translate(0 -6.75)" fill="#046eab"/>
      </g>
    </g>
    <g id="UX-Perception-4" data-name="UX-Perception" transform="translate(11329.623 4328.84)">
      <text id="RAN_Resource_Performance" data-name="RAN Resource Performance" transform="translate(64.894 30.045)" font-size="24" font-family="SegoeUI, Segoe UI"><tspan x="0" y="0">RAN Resource Performance</tspan></text>
      <path id="Icon_simple-matternet" data-name="Icon simple-matternet" d="M36.622,8.115l-7.893,4.517V3.545L22.575,0,16.429,3.553v9.08L8.572,8.1,2.41,11.648v7.113L10.275,23.3,2.4,27.844v7.1L8.549,38.5,16.4,33.959v9.087l6.156,3.545,6.162-3.555V33.959l7.866,4.517,6.16-3.551V27.848L34.894,23.3l7.878-4.535V11.648L36.63,8.115Zm.724,6.657V11.095l3.182,1.829v3.7l-3.176-1.85h-.006ZM40.526,32.8,28.733,26l3.2-1.835,8.588,4.958V32.8l0,0ZM27.273,25.13,24.07,23.3l12.525-7.233L39.781,17.9,27.267,25.13ZM5.377,17.9l3.186-1.833L21.09,23.3,17.908,25.13,5.377,17.9Zm11.046,8.1L4.629,32.8V29.12l8.61-4.96,3.186,1.835v0ZM4.629,16.625v-3.7l3.184-1.835v3.685L4.629,16.625Zm18.689,0V3.009L26.5,4.828v9.945l-3.186,1.85Zm-4.663-1.864V4.84l3.184-1.833V16.6Zm17.212-3.667v3.685L23.334,22.028v-3.7ZM21.835,18.324v3.683L9.3,14.771V11.095l12.541,7.224ZM17.17,30.968l-8.61,4.96L5.377,34.1l11.792-6.81v3.683Zm1.485-4.549,3.184-1.835V39.054l-3.184,1.862Zm7.1,15.754-3.182,1.852-3.184-1.846,3.184-1.836,3.182,1.836Zm.765-1.275-3.2-1.844V24.608l3.2,1.833V40.9Zm13.261-6.8-3.186,1.833L28,30.968V27.285L39.8,34.1h-.017Z" transform="translate(-2.404 0)" fill="#046eab"/>
    </g>
    <g id="UX-Perception-5" data-name="UX-Perception" transform="translate(11922.389 4125.397)">
      <text id="Network_Congestion_and_Resource_Availability" data-name="Network Congestion and Resource Availability" transform="translate(72.518 38.597)" font-size="24" font-family="SegoeUI, Segoe UI"><tspan x="0" y="0">Network Congestion and Resource Availability</tspan></text>
      <path id="Icon_material-signal-cellular-connected-no-internet-4-bar" data-name="Icon material-signal-cellular-connected-no-internet-4-bar" d="M33.972,30.42h3.552V16.21H33.972Zm0,7.1h3.552V33.972H33.972ZM2,37.524H30.42V12.657h7.1V2Z" transform="translate(2.111 8.073)" fill="#1e6eab"/>
    </g>
    <g id="UX-Perception-6" data-name="UX-Perception" transform="translate(11922.389 4217.555)">
      <text id="Network_Traffic_and_Availability" data-name="Network Traffic and Availability" transform="translate(72.518 38.597)" font-size="24" font-family="SegoeUI, Segoe UI"><tspan x="0" y="0">Network Traffic and Availability</tspan></text>
      <path id="Icon_fa-solid-traffic-light" data-name="Icon fa-solid-traffic-light" d="M5.51,0A5.515,5.515,0,0,0,0,5.51v24.8a13.775,13.775,0,0,0,27.55,0V5.51A5.515,5.515,0,0,0,22.04,0Zm8.265,35.815a4.133,4.133,0,1,1,4.133-4.133A4.133,4.133,0,0,1,13.775,35.815Zm4.133-15.153a4.133,4.133,0,1,1-4.133-4.133A4.133,4.133,0,0,1,17.908,20.663Zm-4.133-6.888a4.133,4.133,0,1,1,4.133-4.133A4.133,4.133,0,0,1,13.775,13.775Z" transform="translate(12.111 7.557)" fill="#1e6eab"/>
    </g>
    <g id="UX-Perception-7" data-name="UX-Perception" transform="translate(11922.389 4309.713)">
      <text id="Resource_Quality_and_Optimization" data-name="Resource Quality and Optimization" transform="translate(72.518 38.597)" font-size="24" font-family="SegoeUI, Segoe UI"><tspan x="0" y="0">Resource Quality and Optimization</tspan></text>
      <path id="Icon_material-equalizer" data-name="Icon material-equalizer" d="M18.81,43.492h9.873V4H18.81ZM4,43.492h9.873V23.746H4ZM33.619,16.341V43.492h9.873V16.341Z" transform="translate(0.344 5.851)" fill="#1e6eab"/>
    </g>
    <g id="UX-Perception-8" data-name="UX-Perception" transform="translate(11922.389 4033.24)">
      <text id="User_Connection_Resource_Performance" data-name="User Connection Resource Performance" transform="translate(72.518 38.597)" font-size="24" font-family="SegoeUI, Segoe UI"><tspan x="0" y="0">User Connection Resource Performance</tspan></text>
      <path id="Icon_material-connect-without-contact" data-name="Icon material-connect-without-contact" d="M20.337,26.449H16.262A18.337,18.337,0,0,1,34.6,8.112v4.075A14.252,14.252,0,0,0,20.337,26.449ZM34.6,20.337V16.262A10.191,10.191,0,0,0,24.412,26.449h4.075A6.1,6.1,0,0,1,34.6,20.337ZM12.187,6.075A4.075,4.075,0,1,0,8.112,10.15,4.061,4.061,0,0,0,12.187,6.075Zm9.067,1.019H17.179a6.092,6.092,0,0,1-6.01,5.094H5.056A3.052,3.052,0,0,0,2,15.243v5.094H14.225v-4.6a10.126,10.126,0,0,0,7.029-8.639ZM36.637,32.562a4.075,4.075,0,1,0-4.075-4.075A4.061,4.061,0,0,0,36.637,32.562ZM39.693,34.6H33.58A6.092,6.092,0,0,1,27.57,29.5H23.5a10.126,10.126,0,0,0,7.029,8.639v4.6H42.749V37.655A3.052,3.052,0,0,0,39.693,34.6Z" transform="translate(6.111 7.223)" fill="#1e6eab"/>
    </g>
    <g id="UX-Perception-9" data-name="UX-Perception" transform="translate(11327.288 4418.437)">
      <text id="Network_Mobility_Performance" data-name="Network Mobility Performance" transform="translate(67.23 33.362)" font-size="24" font-family="SegoeUI, Segoe UI"><tspan x="0" y="0">Network Mobility Performance</tspan></text>
      <g id="Groupe_806" data-name="Groupe 806" transform="translate(0 0)">
        <path id="Icon_awesome-mobile-alt" data-name="Icon awesome-mobile-alt" d="M16.388,0H2.892A2.893,2.893,0,0,0,0,2.892V27.956a2.893,2.893,0,0,0,2.892,2.892h13.5a2.893,2.893,0,0,0,2.892-2.892V2.892A2.893,2.893,0,0,0,16.388,0ZM9.64,28.92a1.928,1.928,0,1,1,1.928-1.928A1.926,1.926,0,0,1,9.64,28.92Zm6.748-6.507a.725.725,0,0,1-.723.723H3.615a.725.725,0,0,1-.723-.723V3.615a.725.725,0,0,1,.723-.723h12.05a.725.725,0,0,1,.723.723Z" transform="translate(30.925 0)" fill="#046eab"/>
        <g id="_5GTowerMain-2" data-name="5GTowerMain" transform="translate(0 10.527)">
          <g id="Groupe_617-2" data-name="Groupe 617" transform="translate(10.953)">
            <path id="Tracé_4435-2" data-name="Tracé 4435" d="M214.4,159.528l.248,7.71,1.777-.2a.7.7,0,0,0,.614-.745l-.47-6.338a.681.681,0,0,0-.8-.627l-1.372.209Z" transform="translate(-206.117 -155.307)" fill="#046eab"/>
            <path id="Tracé_4436-2" data-name="Tracé 4436" d="M216.424,194.6a.255.255,0,0,1-.248-.235l-1.516-36.251a.242.242,0,1,1,.484-.013l1.516,36.251a.246.246,0,0,1-.235.248Z" transform="translate(-206.037 -155.753)" fill="#046eab"/>
            <path id="Tracé_4437-2" data-name="Tracé 4437" d="M210.845,194.6h0a.246.246,0,0,1-.235-.248l1.516-36.251a.242.242,0,1,1,.483.013l-1.516,36.251A.246.246,0,0,1,210.845,194.6Z" transform="translate(-207.28 -155.753)" fill="#046eab"/>
            <path id="Tracé_4438-2" data-name="Tracé 4438" d="M211.775,164.289s-.1-.026-.131-.078A.168.168,0,0,1,211.7,164l4.012-2.287-3.751-2.169a.152.152,0,0,1,.157-.261l3.973,2.3s.078.078.078.131a.144.144,0,0,1-.078.131l-4.247,2.418a.463.463,0,0,1-.078.013Z" transform="translate(-206.968 -155.325)" fill="#046eab"/>
            <path id="Tracé_4439-2" data-name="Tracé 4439" d="M211.775,167.9s-.1-.026-.131-.078a.168.168,0,0,1,.052-.209l4.012-2.287-3.751-2.169a.152.152,0,0,1,.157-.261l3.973,2.3s.078.078.078.131a.144.144,0,0,1-.078.131l-4.247,2.418a.463.463,0,0,1-.078.013Z" transform="translate(-206.968 -154.217)" fill="#046eab"/>
            <path id="Tracé_4440-2" data-name="Tracé 4440" d="M211.524,171.49s-.1-.026-.131-.078a.144.144,0,0,1,.065-.2l4.678-2.274-4.365-2.156a.146.146,0,1,1,.131-.261l4.639,2.3s.078.078.078.131a.173.173,0,0,1-.078.131L211.59,171.5a.265.265,0,0,1-.065.013Z" transform="translate(-207.044 -153.103)" fill="#046eab"/>
            <path id="Tracé_4441-2" data-name="Tracé 4441" d="M211.4,174.99s-.118-.039-.144-.091a.14.14,0,0,1,.078-.2l5.005-2.169-4.9-2.156a.154.154,0,0,1-.078-.2.149.149,0,0,1,.2-.078l5.214,2.3s.091.078.091.144a.13.13,0,0,1-.091.131l-5.319,2.3h-.065Z" transform="translate(-207.087 -152.003)" fill="#046eab"/>
            <path id="Tracé_4442-2" data-name="Tracé 4442" d="M211.176,178.514s-.118-.039-.144-.091a.145.145,0,0,1,.091-.2l5.462-2.117-5.227-2.052a.149.149,0,0,1,.118-.274l5.58,2.2s.091.078.091.144a.161.161,0,0,1-.091.144l-5.815,2.248h-.052Z" transform="translate(-207.153 -150.875)" fill="#046eab"/>
            <path id="Tracé_4443-2" data-name="Tracé 4443" d="M211.1,182.242s-.118-.039-.144-.091a.145.145,0,0,1,.092-.2l5.75-2.209-5.541-2.156a.153.153,0,0,1,.1-.288l5.907,2.3s.091.078.091.144a.161.161,0,0,1-.091.144l-6.116,2.339H211.1Z" transform="translate(-207.178 -149.794)" fill="#046eab"/>
            <path id="Tracé_4444-2" data-name="Tracé 4444" d="M211,185.805s-.118-.039-.144-.1a.145.145,0,0,1,.091-.2l6.051-2.169-5.959-2.156a.153.153,0,0,1,.1-.288l6.351,2.3s.1.078.1.144a.153.153,0,0,1-.1.144l-6.443,2.3H211Z" transform="translate(-207.208 -148.692)" fill="#046eab"/>
            <g id="Groupe_612-2" data-name="Groupe 612" transform="translate(2.978)">
              <path id="Tracé_4445-2" data-name="Tracé 4445" d="M213.359,156.263h0v14.074h0a3.02,3.02,0,0,1-3.019-3.019v-8.05a3.02,3.02,0,0,1,3.019-3.019Z" transform="translate(-210.34 -156.25)" fill="#046eab"/>
              <rect id="Rectangle_1832-2" data-name="Rectangle 1832" width="1.503" height="14.074" transform="translate(1.503 0.013)" fill="#046eab"/>
            </g>
            <g id="Groupe_614-2" data-name="Groupe 614" transform="translate(8.884 8.41)">
              <path id="Tracé_4446-2" data-name="Tracé 4446" d="M214.86,166.255v.863a.271.271,0,0,0,.248.274l2.94.248v-.627l-2.823-1.019a.271.271,0,0,0-.366.261Z" transform="translate(-214.86 -161.676)" fill="#046eab"/>
              <g id="Groupe_613-2" data-name="Groupe 613" transform="translate(0.924 0)">
                <ellipse id="Ellipse_28-2" data-name="Ellipse 28" cx="1.686" cy="3.502" rx="1.686" ry="3.502" transform="matrix(0.967, -0.253, 0.253, 0.967, 0, 0.853)" fill="#046eab"/>
                <path id="Tracé_4447-2" data-name="Tracé 4447" d="M219.3,166c-.47-1.816-1.555-3.123-2.444-2.98a3.1,3.1,0,0,1,.81,1.411c.3,1.15.157,1.816.483,2.64a13.085,13.085,0,0,1,.392,2.744h.013C219.461,169.583,219.787,167.871,219.3,166Z" transform="translate(-215.171 -162.586)" fill="#046eab"/>
              </g>
            </g>
            <g id="Groupe_616-2" data-name="Groupe 616" transform="translate(0 15.144)">
              <path id="Tracé_4448-2" data-name="Tracé 4448" d="M212.578,170.852v.732a.239.239,0,0,1-.209.235l-2.509.222v-.536l2.4-.863a.232.232,0,0,1,.314.222Z" transform="translate(-207.51 -166.982)" fill="#046eab"/>
              <g id="Groupe_615-2" data-name="Groupe 615" transform="translate(0 0)">
                <ellipse id="Ellipse_29-2" data-name="Ellipse 29" cx="2.993" cy="1.437" rx="2.993" ry="1.437" transform="matrix(0.253, -0.967, 0.967, 0.253, 0, 5.79)" fill="#046eab"/>
                <path id="Tracé_4449-2" data-name="Tracé 4449" d="M211.248,171.364c-.405,1.555-1.32,2.666-2.078,2.535a2.666,2.666,0,0,0,.693-1.2c.261-.98.131-1.555.405-2.248a11.178,11.178,0,0,0,.34-2.339h0c.771.2,1.045,1.66.627,3.254Z" transform="translate(-207.721 -167.755)" fill="#046eab"/>
              </g>
            </g>
          </g>
          <g id="Groupe_623-2" data-name="Groupe 623" transform="translate(8.928 26.463)">
            <path id="Tracé_4450-2" data-name="Tracé 4450" d="M208.81,177.692l.091,2.81.653-.078a.251.251,0,0,0,.222-.274l-.17-2.313a.256.256,0,0,0-.287-.235l-.5.078Z" transform="translate(-205.807 -176.163)" fill="#046eab"/>
            <path id="Tracé_4451-2" data-name="Tracé 4451" d="M209.55,190.488s-.091-.039-.091-.092l-.549-13.225s.039-.091.078-.091a.087.087,0,0,1,.092.078l.549,13.225s-.039.092-.078.092h0Z" transform="translate(-205.776 -176.322)" fill="#046eab"/>
            <path id="Tracé_4452-2" data-name="Tracé 4452" d="M207.509,190.485h0a.074.074,0,0,1-.078-.091l.549-13.225s.039-.091.092-.078a.074.074,0,0,1,.078.091l-.549,13.225s-.039.091-.091.091Z" transform="translate(-206.231 -176.319)" fill="#046eab"/>
            <path id="Tracé_4453-2" data-name="Tracé 4453" d="M207.853,179.431s-.039,0-.052-.026a.063.063,0,0,1,.026-.078l1.464-.836-1.372-.784s-.039-.052-.026-.078a.063.063,0,0,1,.078-.026l1.451.836a.091.091,0,0,1,.026.052.052.052,0,0,1-.026.052l-1.555.876h-.026Z" transform="translate(-206.118 -176.164)" fill="#046eab"/>
            <path id="Tracé_4454-2" data-name="Tracé 4454" d="M207.853,180.741s-.039,0-.052-.026a.063.063,0,0,1,.026-.078l1.464-.836-1.372-.784s-.039-.052-.026-.078a.063.063,0,0,1,.078-.026l1.451.836a.091.091,0,0,1,.026.052.052.052,0,0,1-.026.052l-1.555.876h-.026Z" transform="translate(-206.118 -175.762)" fill="#046eab"/>
            <path id="Tracé_4455-2" data-name="Tracé 4455" d="M207.764,182.061s-.039,0-.052-.026a.063.063,0,0,1,.026-.078l1.712-.836-1.594-.784s-.039-.052-.026-.078a.063.063,0,0,1,.078-.026l1.7.836a.091.091,0,0,1,.026.052c0,.026,0,.039-.026.052l-1.8.876h-.026Z" transform="translate(-206.146 -175.357)" fill="#046eab"/>
            <path id="Tracé_4456-2" data-name="Tracé 4456" d="M207.712,183.332a.057.057,0,0,1-.052-.039c0-.026,0-.065.026-.065l1.83-.8-1.79-.784s-.039-.039-.026-.078.039-.039.078-.026l1.908.836s.039.026.026.052,0,.039-.039.052l-1.947.836H207.7Z" transform="translate(-206.16 -174.955)" fill="#046eab"/>
            <path id="Tracé_4457-2" data-name="Tracé 4457" d="M207.632,184.623a.1.1,0,0,1-.052-.039c0-.026,0-.065.026-.065l1.986-.771L207.685,183s-.039-.039-.026-.065.039-.039.065-.026l2.039.8s.039.026.039.052-.013.039-.039.052l-2.117.823h-.026Z" transform="translate(-206.184 -174.535)" fill="#046eab"/>
            <path id="Tracé_4458-2" data-name="Tracé 4458" d="M207.6,185.982a.1.1,0,0,1-.052-.039c0-.026,0-.065.026-.065l2.1-.81-2.026-.784s-.039-.039-.026-.065.039-.039.065-.026l2.156.836s.039.026.039.052-.013.039-.039.052l-2.235.849H207.6Z" transform="translate(-206.194 -174.142)" fill="#046eab"/>
            <path id="Tracé_4459-2" data-name="Tracé 4459" d="M207.562,187.277a.1.1,0,0,1-.052-.039c0-.026,0-.065.039-.065l2.208-.784-2.182-.784s-.039-.039-.039-.065.039-.039.065-.039l2.313.836s.039.026.039.052-.013.039-.039.052l-2.352.836h-.013Z" transform="translate(-206.206 -173.739)" fill="#046eab"/>
            <g id="Groupe_618-2" data-name="Groupe 618" transform="translate(1.069)">
              <path id="Tracé_4460-2" data-name="Tracé 4460" d="M208.428,176.5h0v5.136h0a1.1,1.1,0,0,1-1.1-1.1V177.6A1.1,1.1,0,0,1,208.428,176.5Z" transform="translate(-207.33 -176.5)" fill="#046eab"/>
              <rect id="Rectangle_1833-2" data-name="Rectangle 1833" width="0.549" height="5.136" transform="translate(0.549)" fill="#046eab"/>
            </g>
            <g id="Groupe_620-2" data-name="Groupe 620" transform="translate(3.225 3.049)">
              <path id="Tracé_4461-2" data-name="Tracé 4461" d="M208.98,180.138v.314s.039.091.092.1l1.072.091v-.222l-1.032-.366s-.131.026-.131.091Z" transform="translate(-208.98 -178.457)" fill="#046eab"/>
              <g id="Groupe_619-2" data-name="Groupe 619" transform="translate(0.347 0)">
                <ellipse id="Ellipse_30-2" data-name="Ellipse 30" cx="0.614" cy="1.281" rx="0.614" ry="1.281" transform="matrix(0.967, -0.253, 0.253, 0.967, 0, 0.311)" fill="#046eab"/>
                <path id="Tracé_4462-2" data-name="Tracé 4462" d="M210.6,180.056c-.17-.666-.562-1.137-.889-1.085a1.118,1.118,0,0,1,.3.523,9.621,9.621,0,0,0,.17.967,4.548,4.548,0,0,1,.144,1.006h0c.327-.091.444-.706.274-1.4Z" transform="translate(-209.103 -178.792)" fill="#046eab"/>
              </g>
            </g>
            <g id="Groupe_622-2" data-name="Groupe 622" transform="translate(0 5.535)">
              <path id="Tracé_4463-2" data-name="Tracé 4463" d="M208.143,181.831v.261s-.039.078-.078.078l-.915.078v-.2l.876-.314s.118.026.118.078Z" transform="translate(-206.316 -180.428)" fill="#046eab"/>
              <g id="Groupe_621-2" data-name="Groupe 621" transform="translate(0 0)">
                <ellipse id="Ellipse_31-2" data-name="Ellipse 31" cx="1.085" cy="0.523" rx="1.085" ry="0.523" transform="matrix(0.253, -0.967, 0.967, 0.253, 0, 2.099)" fill="#046eab"/>
                <path id="Tracé_4464-2" data-name="Tracé 4464" d="M207.658,182.009c-.144.562-.484.967-.758.928a.922.922,0,0,0,.248-.444c.091-.353.052-.562.144-.823a4.163,4.163,0,0,0,.118-.849h0c.274.078.379.6.235,1.189Z" transform="translate(-206.393 -180.71)" fill="#046eab"/>
              </g>
            </g>
          </g>
          <g id="Groupe_625-2" data-name="Groupe 625" transform="translate(0 14.911)">
            <path id="Tracé_4465-2" data-name="Tracé 4465" d="M221.887,185.6s-.092-.039-.092-.092v-.248s.039-.091.092-.091a.089.089,0,0,1,.091.091v.248S221.939,185.6,221.887,185.6Zm0-.732s-.092-.039-.092-.091v-.248s.039-.091.092-.091a.089.089,0,0,1,.091.091v.248S221.939,184.87,221.887,184.87Zm0-.732s-.092-.039-.092-.091V183.8s.039-.092.092-.092a.089.089,0,0,1,.091.092v.248S221.939,184.138,221.887,184.138Zm0-.732s-.092-.039-.092-.091v-.248s.039-.091.092-.091a.089.089,0,0,1,.091.091v.248S221.939,183.406,221.887,183.406Zm0-.732s-.092-.039-.092-.092v-.248s.039-.092.092-.092a.089.089,0,0,1,.091.092v.248S221.939,182.674,221.887,182.674Zm0-.732s-.092-.039-.092-.091V181.6s.039-.091.092-.091a.089.089,0,0,1,.091.091v.248S221.939,181.942,221.887,181.942Zm0-.732s-.092-.039-.092-.091v-.248s.039-.091.092-.091a.089.089,0,0,1,.091.091v.248S221.939,181.211,221.887,181.211Zm0-.732s-.092-.039-.092-.091v-.248s.039-.091.092-.091a.089.089,0,0,1,.091.091v.248S221.939,180.479,221.887,180.479Zm0-.732s-.092-.039-.092-.091v-.248s.039-.092.092-.092a.089.089,0,0,1,.091.092v.248S221.939,179.747,221.887,179.747Zm0-.732s-.092-.039-.092-.092v-.248s.039-.091.092-.091a.089.089,0,0,1,.091.091v.248S221.939,179.015,221.887,179.015Zm0-.732s-.092-.039-.092-.091v-.248s.039-.091.092-.091a.089.089,0,0,1,.091.091v.248S221.939,178.283,221.887,178.283Zm0-.732s-.092-.039-.092-.092v-.248s.039-.091.092-.091a.089.089,0,0,1,.091.091v.248S221.939,177.552,221.887,177.552Zm0-.732s-.092-.039-.092-.091v-.248s.039-.092.092-.092a.089.089,0,0,1,.091.092v.248S221.939,176.82,221.887,176.82Zm0-.732s-.092-.039-.092-.091v-.248s.039-.091.092-.091a.089.089,0,0,1,.091.091V176S221.939,176.088,221.887,176.088Zm0-.732s-.092-.039-.092-.091v-.248s.039-.091.092-.091a.089.089,0,0,1,.091.091v.248S221.939,175.356,221.887,175.356Zm0-.732s-.092-.039-.092-.092v-.248s.039-.091.092-.091a.089.089,0,0,1,.091.091v.248S221.939,174.624,221.887,174.624Zm0-.732s-.092-.039-.092-.091v-.248s.039-.091.092-.091a.089.089,0,0,1,.091.091v.248S221.939,173.893,221.887,173.893Zm0-.732s-.092-.039-.092-.091v-.248s.039-.091.092-.091a.089.089,0,0,1,.091.091v.248S221.939,173.161,221.887,173.161Zm0-.732s-.092-.039-.092-.091v-.248s.039-.091.092-.091a.089.089,0,0,1,.091.091v.248S221.939,172.429,221.887,172.429Zm-.366-.366h-.248s-.092-.039-.092-.092a.089.089,0,0,1,.092-.091h.248s.092.039.092.091A.089.089,0,0,1,221.521,172.063Zm-.732,0h-.248s-.091-.039-.091-.092a.089.089,0,0,1,.091-.091h.248s.091.039.091.091A.089.089,0,0,1,220.789,172.063Zm-.732,0h-.248s-.091-.039-.091-.092a.089.089,0,0,1,.091-.091h.248s.091.039.091.091A.089.089,0,0,1,220.057,172.063Zm-.732,0h-.248s-.091-.039-.091-.092a.089.089,0,0,1,.091-.091h.248s.092.039.092.091A.089.089,0,0,1,219.325,172.063Zm-.732,0h-.248s-.092-.039-.092-.092a.089.089,0,0,1,.092-.091h.248s.091.039.091.091A.089.089,0,0,1,218.593,172.063Zm-.732,0h-.248s-.092-.039-.092-.092a.089.089,0,0,1,.092-.091h.248s.091.039.091.091A.089.089,0,0,1,217.862,172.063Zm-.732,0h-.248s-.091-.039-.091-.092a.089.089,0,0,1,.091-.091h.248s.091.039.091.091A.089.089,0,0,1,217.13,172.063Z" transform="translate(-194.431 -166.365)" fill="#046eab"/>
            <circle id="Ellipse_32-2" data-name="Ellipse 32" cx="0.575" cy="0.575" r="0.575" transform="translate(21.876 5.057)" fill="#046eab"/>
            <circle id="Ellipse_33-2" data-name="Ellipse 33" cx="0.575" cy="0.575" r="0.575" transform="translate(9.252 3.306)" fill="#046eab"/>
            <path id="Tracé_4466-2" data-name="Tracé 4466" d="M205.481,191.449s-.091-.039-.091-.091v-.248s.039-.092.091-.092a.089.089,0,0,1,.091.092v.248S205.534,191.449,205.481,191.449Zm0-.732s-.091-.039-.091-.091v-.248s.039-.091.091-.091a.089.089,0,0,1,.091.091v.248S205.534,190.717,205.481,190.717Zm0-.732s-.091-.039-.091-.092v-.248s.039-.091.091-.091a.089.089,0,0,1,.091.091v.248S205.534,189.985,205.481,189.985Zm0-.732s-.091-.039-.091-.092v-.248s.039-.092.091-.092a.089.089,0,0,1,.091.092v.248S205.534,189.253,205.481,189.253Zm0-.732s-.091-.039-.091-.091v-.248s.039-.091.091-.091a.089.089,0,0,1,.091.091v.248S205.534,188.522,205.481,188.522Zm0-.732s-.091-.039-.091-.092v-.248s.039-.091.091-.091a.089.089,0,0,1,.091.091v.248S205.534,187.79,205.481,187.79Zm0-.732s-.091-.039-.091-.092v-.248s.039-.091.091-.091a.089.089,0,0,1,.091.091v.248S205.534,187.058,205.481,187.058Zm0-.732s-.091-.039-.091-.091v-.248s.039-.091.091-.091a.089.089,0,0,1,.091.091v.248S205.534,186.326,205.481,186.326Zm0-.732s-.091-.039-.091-.091v-.248s.039-.091.091-.091a.089.089,0,0,1,.091.091v.248S205.534,185.594,205.481,185.594Zm0-.732s-.091-.039-.091-.091v-.248s.039-.091.091-.091a.089.089,0,0,1,.091.091v.248S205.534,184.863,205.481,184.863Zm0-.732s-.091-.039-.091-.092v-.248s.039-.091.091-.091a.089.089,0,0,1,.091.091v.248S205.534,184.131,205.481,184.131Zm0-.732s-.091-.039-.091-.091v-.248s.039-.092.091-.092a.089.089,0,0,1,.091.092v.248S205.534,183.4,205.481,183.4Zm0-.732s-.091-.039-.091-.091v-.248s.039-.091.091-.091a.089.089,0,0,1,.091.091v.248S205.534,182.667,205.481,182.667Zm0-.732s-.091-.039-.091-.091V181.6s.039-.091.091-.091a.089.089,0,0,1,.091.091v.248S205.534,181.935,205.481,181.935Zm0-.732s-.091-.039-.091-.092v-.248s.039-.091.091-.091a.089.089,0,0,1,.091.091v.248S205.534,181.2,205.481,181.2Zm0-.732s-.091-.039-.091-.091v-.248s.039-.091.091-.091a.089.089,0,0,1,.091.091v.248S205.534,180.472,205.481,180.472Zm0-.732s-.091-.039-.091-.091V179.4s.039-.091.091-.091a.089.089,0,0,1,.091.091v.248S205.534,179.74,205.481,179.74Zm0-.732s-.091-.039-.091-.091v-.248s.039-.091.091-.091a.089.089,0,0,1,.091.091v.248S205.534,179.008,205.481,179.008Zm0-.732s-.091-.039-.091-.091v-.248s.039-.091.091-.091a.089.089,0,0,1,.091.091v.248S205.534,178.276,205.481,178.276Zm0-.732s-.091-.039-.091-.091V177.2s.039-.091.091-.091a.089.089,0,0,1,.091.091v.248S205.534,177.544,205.481,177.544Zm0-.732s-.091-.039-.091-.091v-.248s.039-.092.091-.092a.089.089,0,0,1,.091.092v.248S205.534,176.813,205.481,176.813Zm0-.732s-.091-.039-.091-.091v-.248s.039-.091.091-.091a.089.089,0,0,1,.091.091v.248S205.534,176.081,205.481,176.081Zm0-.732s-.091-.039-.091-.091v-.248s.039-.091.091-.091a.089.089,0,0,1,.091.091v.248S205.534,175.349,205.481,175.349Zm0-.732s-.091-.039-.091-.091v-.248s.039-.091.091-.091a.089.089,0,0,1,.091.091v.248S205.534,174.617,205.481,174.617Zm0-.732s-.091-.039-.091-.091v-.248s.039-.091.091-.091a.089.089,0,0,1,.091.091v.248S205.534,173.885,205.481,173.885Zm0-.732s-.091-.039-.091-.091v-.248s.039-.091.091-.091a.089.089,0,0,1,.091.091v.248S205.534,173.154,205.481,173.154Zm0-.732s-.091-.039-.091-.091v-.248s.039-.092.091-.092a.089.089,0,0,1,.091.092v.248S205.534,172.422,205.481,172.422Zm0-.732s-.091-.039-.091-.091v-.248s.039-.091.091-.091a.089.089,0,0,1,.091.091v.248S205.534,171.69,205.481,171.69Zm0-.732s-.091-.039-.091-.091v-.235s.039-.091.091-.091h.013s.091.039.091.091a.079.079,0,0,1-.013.052v.183S205.534,170.958,205.481,170.958Zm2.208-.235h-.248s-.092-.039-.092-.091a.089.089,0,0,1,.092-.091h.248s.091.039.091.091A.089.089,0,0,1,207.69,170.723Zm-.732,0h-.248s-.091-.039-.091-.091a.089.089,0,0,1,.091-.091h.248s.091.039.091.091A.089.089,0,0,1,206.958,170.723Zm-.732,0h-.248s-.091-.039-.091-.091a.089.089,0,0,1,.091-.091h.248s.091.039.091.091A.089.089,0,0,1,206.226,170.723Z" transform="translate(-197.928 -166.776)" fill="#046eab"/>
            <circle id="Ellipse_34-2" data-name="Ellipse 34" cx="0.575" cy="0.575" r="0.575" transform="translate(10.285)" fill="#046eab"/>
            <path id="Tracé_4467-2" data-name="Tracé 4467" d="M199.771,185.178s-.092-.039-.092-.091v-.248s.039-.092.092-.092a.089.089,0,0,1,.091.092v.248S199.824,185.178,199.771,185.178Zm0-.732s-.092-.039-.092-.092v-.248s.039-.092.092-.092a.089.089,0,0,1,.091.092v.248S199.824,184.447,199.771,184.447Zm0-.732s-.092-.039-.092-.091v-.248s.039-.091.092-.091a.089.089,0,0,1,.091.091v.248S199.824,183.715,199.771,183.715Zm0-.732s-.092-.039-.092-.091v-.248s.039-.091.092-.091a.089.089,0,0,1,.091.091v.248S199.824,182.983,199.771,182.983Zm0-.732s-.092-.039-.092-.092v-.248s.039-.091.092-.091a.089.089,0,0,1,.091.091v.248S199.824,182.251,199.771,182.251Zm0-.732s-.092-.039-.092-.092v-.248s.039-.092.092-.092a.089.089,0,0,1,.091.092v.248S199.824,181.519,199.771,181.519Zm0-.732s-.092-.039-.092-.091v-.248s.039-.092.092-.092a.089.089,0,0,1,.091.092v.248S199.824,180.787,199.771,180.787Zm0-.732s-.092-.039-.092-.091v-.248s.039-.091.092-.091a.089.089,0,0,1,.091.091v.248S199.824,180.056,199.771,180.056Zm0-.732s-.092-.039-.092-.092v-.248s.039-.091.092-.091a.089.089,0,0,1,.091.091v.248S199.824,179.324,199.771,179.324Zm0-.732s-.092-.039-.092-.091v-.248s.039-.092.092-.092a.089.089,0,0,1,.091.092v.248S199.824,178.592,199.771,178.592Zm0-.732s-.092-.039-.092-.091v-.248s.039-.091.092-.091a.089.089,0,0,1,.091.091v.248S199.824,177.86,199.771,177.86Zm0-.732s-.092-.039-.092-.091v-.248s.039-.091.092-.091a.089.089,0,0,1,.091.091v.248S199.824,177.128,199.771,177.128Zm0-.732s-.092-.039-.092-.092v-.248s.039-.091.092-.091a.089.089,0,0,1,.091.091v.248S199.824,176.4,199.771,176.4Zm0-.732s-.092-.039-.092-.092v-.248s.039-.091.092-.091a.089.089,0,0,1,.091.091v.248S199.824,175.665,199.771,175.665Zm0-.732s-.092-.039-.092-.092v-.248s.039-.091.092-.091a.089.089,0,0,1,.091.091v.248S199.824,174.933,199.771,174.933Zm0-.732s-.092-.039-.092-.092v-.248s.039-.091.092-.091a.089.089,0,0,1,.091.091v.248S199.824,174.2,199.771,174.2Zm0-.732s-.092-.039-.092-.092v-.248s.039-.091.092-.091a.089.089,0,0,1,.091.091v.248S199.824,173.469,199.771,173.469Zm0-.732s-.092-.039-.092-.091V172.4s.039-.091.092-.091a.089.089,0,0,1,.091.091v.248S199.824,172.738,199.771,172.738Zm0-.732s-.092-.039-.092-.091v-.248s.039-.091.092-.091a.089.089,0,0,1,.091.091v.248S199.824,172.006,199.771,172.006Zm0-.732s-.092-.039-.092-.091v-.248s.039-.091.092-.091a.089.089,0,0,1,.091.091v.248S199.824,171.274,199.771,171.274Zm0-.732s-.092-.039-.092-.092V170.2s.039-.092.092-.092a.089.089,0,0,1,.091.092v.248S199.824,170.542,199.771,170.542Zm0-.732s-.092-.039-.092-.091v-.248s.039-.091.092-.091a.089.089,0,0,1,.091.091v.248S199.824,169.81,199.771,169.81Zm0-.732s-.092-.039-.092-.091v-.248s.039-.091.092-.091a.089.089,0,0,1,.091.091v.248S199.824,169.079,199.771,169.079Zm0-.732s-.092-.039-.092-.091v-.144s.039-.091.092-.091h.091s.091.039.091.091a.089.089,0,0,1-.091.091h0v.065s-.039.092-.091.092Zm10.337-.144h-.248s-.092-.039-.092-.091a.089.089,0,0,1,.092-.091h.248s.091.039.091.091A.089.089,0,0,1,210.108,168.2Zm-.732,0h-.248s-.092-.039-.092-.091a.089.089,0,0,1,.092-.091h.248s.091.039.091.091A.089.089,0,0,1,209.377,168.2Zm-.732,0H208.4s-.091-.039-.091-.091a.089.089,0,0,1,.091-.091h.248s.091.039.091.091A.089.089,0,0,1,208.645,168.2Zm-.732,0h-.248s-.092-.039-.092-.091a.089.089,0,0,1,.092-.091h.248s.091.039.091.091A.089.089,0,0,1,207.913,168.2Zm-.732,0h-.248s-.092-.039-.092-.091a.089.089,0,0,1,.092-.091h.248s.091.039.091.091A.089.089,0,0,1,207.181,168.2Zm-.732,0H206.2s-.091-.039-.091-.091a.089.089,0,0,1,.091-.091h.248s.091.039.091.091A.089.089,0,0,1,206.449,168.2Zm-.732,0h-.248s-.091-.039-.091-.091a.089.089,0,0,1,.091-.091h.248s.092.039.092.091A.089.089,0,0,1,205.717,168.2Zm-.732,0h-.248s-.091-.039-.091-.091a.089.089,0,0,1,.091-.091h.248s.092.039.092.091A.089.089,0,0,1,204.986,168.2Zm-.732,0h-.248s-.091-.039-.091-.091a.089.089,0,0,1,.091-.091h.248s.091.039.091.091A.089.089,0,0,1,204.254,168.2Zm-.732,0h-.248s-.091-.039-.091-.091a.089.089,0,0,1,.091-.091h.248s.091.039.091.091A.089.089,0,0,1,203.522,168.2Zm-.732,0h-.248s-.091-.039-.091-.091a.089.089,0,0,1,.091-.091h.248s.091.039.091.091A.089.089,0,0,1,202.79,168.2Zm-.732,0h-.248s-.091-.039-.091-.091a.089.089,0,0,1,.091-.091h.248s.092.039.092.091A.089.089,0,0,1,202.058,168.2Zm-.732,0h-.248s-.092-.039-.092-.091a.089.089,0,0,1,.092-.091h.248s.091.039.091.091A.089.089,0,0,1,201.327,168.2Zm-.732,0h-.248s-.091-.039-.091-.091a.089.089,0,0,1,.091-.091h.248s.091.039.091.091A.089.089,0,0,1,200.595,168.2Z" transform="translate(-199.68 -167.55)" fill="#046eab"/>
            <g id="Groupe_624-2" data-name="Groupe 624" transform="translate(25.522 1.555)">
              <circle id="Ellipse_35-2" data-name="Ellipse 35" cx="0.575" cy="0.575" r="0.575" fill="#046eab"/>
              <path id="Tracé_4468-2" data-name="Tracé 4468" d="M234.572,185.767s-.091-.039-.091-.091v-.248s.039-.092.091-.092a.089.089,0,0,1,.091.092v.248S234.624,185.767,234.572,185.767Zm0-.732s-.091-.039-.091-.091V184.7s.039-.091.091-.091a.089.089,0,0,1,.091.091v.248S234.624,185.035,234.572,185.035Zm0-.732s-.091-.039-.091-.091v-.248s.039-.091.091-.091a.089.089,0,0,1,.091.091v.248S234.624,184.3,234.572,184.3Zm0-.732s-.091-.039-.091-.091v-.248s.039-.091.091-.091a.089.089,0,0,1,.091.091v.248S234.624,183.572,234.572,183.572Zm0-.732s-.091-.039-.091-.091V182.5s.039-.091.091-.091a.089.089,0,0,1,.091.091v.248S234.624,182.84,234.572,182.84Zm0-.732s-.091-.039-.091-.091v-.248s.039-.091.091-.091a.089.089,0,0,1,.091.091v.248S234.624,182.108,234.572,182.108Zm0-.732s-.091-.039-.091-.091v-.248s.039-.091.091-.091a.089.089,0,0,1,.091.091v.248S234.624,181.376,234.572,181.376Zm0-.732s-.091-.039-.091-.091V180.3s.039-.091.091-.091a.089.089,0,0,1,.091.091v.248S234.624,180.645,234.572,180.645Zm0-.732s-.091-.039-.091-.092v-.248s.039-.092.091-.092a.089.089,0,0,1,.091.092v.248S234.624,179.913,234.572,179.913Zm0-.732s-.091-.039-.091-.091v-.248s.039-.091.091-.091a.089.089,0,0,1,.091.091v.248S234.624,179.181,234.572,179.181Zm0-.732s-.091-.039-.091-.091v-.248s.039-.091.091-.091a.089.089,0,0,1,.091.091v.248S234.624,178.449,234.572,178.449Zm0-.732s-.091-.039-.091-.091v-.248s.039-.092.091-.092a.089.089,0,0,1,.091.092v.248S234.624,177.717,234.572,177.717Zm0-.732s-.091-.039-.091-.091v-.248s.039-.092.091-.092a.089.089,0,0,1,.091.092v.248S234.624,176.986,234.572,176.986Zm0-.732s-.091-.039-.091-.091v-.248s.039-.091.091-.091a.089.089,0,0,1,.091.091v.248S234.624,176.254,234.572,176.254Zm0-.732s-.091-.039-.091-.091v-.248s.039-.091.091-.091a.089.089,0,0,1,.091.091v.248S234.624,175.522,234.572,175.522Zm0-.732s-.091-.039-.091-.092v-.248s.039-.091.091-.091a.089.089,0,0,1,.091.091v.248S234.624,174.79,234.572,174.79Zm0-.732s-.091-.039-.091-.091v-.248s.039-.091.091-.091a.089.089,0,0,1,.091.091v.248S234.624,174.058,234.572,174.058Zm0-.732s-.091-.039-.091-.091v-.248s.039-.091.091-.091a.089.089,0,0,1,.091.091v.248S234.624,173.327,234.572,173.327Zm0-.732s-.091-.039-.091-.091v-.248s.039-.091.091-.091a.089.089,0,0,1,.091.091v.248S234.624,172.595,234.572,172.595Zm0-.732s-.091-.039-.091-.092v-.248s.039-.092.091-.092a.089.089,0,0,1,.091.092v.248S234.624,171.863,234.572,171.863Zm0-.732s-.091-.039-.091-.091v-.248s.039-.091.091-.091a.089.089,0,0,1,.091.091v.248S234.624,171.131,234.572,171.131Zm0-.732s-.091-.039-.091-.091v-.248s.039-.091.091-.091a.089.089,0,0,1,.091.091v.248S234.624,170.4,234.572,170.4Zm0-.732s-.091-.039-.091-.091v-.248s.039-.091.091-.091a.089.089,0,0,1,.091.091v.248S234.624,169.667,234.572,169.667Zm-.457-.274h-.248s-.091-.039-.091-.091a.089.089,0,0,1,.091-.091h.248s.091.039.091.091A.089.089,0,0,1,234.114,169.393Zm-.732,0h-.248s-.092-.039-.092-.091a.089.089,0,0,1,.092-.091h.248s.091.039.091.091A.089.089,0,0,1,233.382,169.393Zm-.732,0H232.4s-.091-.039-.091-.091a.089.089,0,0,1,.091-.091h.248s.091.039.091.091A.089.089,0,0,1,232.651,169.393Zm-.732,0h-.248s-.091-.039-.091-.091a.089.089,0,0,1,.091-.091h.248s.091.039.091.091A.089.089,0,0,1,231.919,169.393Zm-.732,0h-.248s-.091-.039-.091-.091a.089.089,0,0,1,.091-.091h.248s.091.039.091.091A.089.089,0,0,1,231.187,169.393Zm-.732,0h-.248s-.091-.039-.091-.091a.089.089,0,0,1,.091-.091h.248s.091.039.091.091A.089.089,0,0,1,230.455,169.393Zm-.732,0h-.248s-.091-.039-.091-.091a.089.089,0,0,1,.091-.091h.248s.091.039.091.091A.089.089,0,0,1,229.723,169.393Zm-.732,0h-.248s-.091-.039-.091-.091a.089.089,0,0,1,.091-.091h.248s.091.039.091.091A.089.089,0,0,1,228.992,169.393Zm-.732,0h-.248s-.091-.039-.091-.091a.089.089,0,0,1,.091-.091h.248s.091.039.091.091A.089.089,0,0,1,228.26,169.393Zm-.732,0h-.248s-.092-.039-.092-.091a.089.089,0,0,1,.092-.091h.248s.091.039.091.091A.089.089,0,0,1,227.528,169.393Zm-.732,0h-.248s-.091-.039-.091-.091a.089.089,0,0,1,.091-.091h.248s.091.039.091.091A.089.089,0,0,1,226.8,169.393Zm-.732,0h-.248s-.091-.039-.091-.091a.089.089,0,0,1,.091-.091h.248s.091.039.091.091A.089.089,0,0,1,226.064,169.393Zm-.732,0h-.248s-.092-.039-.092-.091a.089.089,0,0,1,.092-.091h.248s.091.039.091.091A.089.089,0,0,1,225.332,169.393Zm-.732,0h-.248s-.091-.039-.091-.091a.089.089,0,0,1,.091-.091h.248s.091.039.091.091A.089.089,0,0,1,224.6,169.393Zm-.732,0h-.248s-.091-.039-.091-.091a.089.089,0,0,1,.091-.091h.248s.091.039.091.091A.089.089,0,0,1,223.869,169.393Zm-.732,0h-.248s-.091-.039-.091-.091a.089.089,0,0,1,.091-.091h.248s.091.039.091.091A.089.089,0,0,1,223.137,169.393Zm-.732,0h-.248s-.091-.039-.091-.091a.089.089,0,0,1,.091-.091h.248s.091.039.091.091A.089.089,0,0,1,222.405,169.393Zm-.732,0h-.248s-.091-.039-.091-.091a.089.089,0,0,1,.091-.091h.248s.091.039.091.091A.089.089,0,0,1,221.673,169.393Zm-.732,0h-.248s-.092-.039-.092-.091a.089.089,0,0,1,.092-.091h.248s.091.039.091.091A.089.089,0,0,1,220.942,169.393Zm-.732,0h-.248s-.091-.039-.091-.091a.089.089,0,0,1,.091-.091h.248s.091.039.091.091A.089.089,0,0,1,220.21,169.393Z" transform="translate(-219.008 -168.74)" fill="#046eab"/>
            </g>
          </g>
          <g id="Groupe_626-2" data-name="Groupe 626" transform="translate(26.098 8.006)">
            <path id="Tracé_4469-2" data-name="Tracé 4469" d="M219.728,167.97a.327.327,0,0,1,.1-.235,2,2,0,0,0,.653-1.594,1.946,1.946,0,0,0-.719-1.555.3.3,0,1,1,.366-.47,2.741,2.741,0,0,1,.078,4.064.293.293,0,0,1-.418-.039.312.312,0,0,1-.065-.183Z" transform="translate(-219.651 -161.862)" fill="#046eab"/>
            <path id="Tracé_4470-2" data-name="Tracé 4470" d="M220.912,169.5a.286.286,0,0,1,.091-.222,4.123,4.123,0,0,0-.118-5.672.3.3,0,1,1,.379-.457,4.7,4.7,0,0,1,.131,6.56.293.293,0,0,1-.418-.026.266.266,0,0,1-.078-.2Z" transform="translate(-219.305 -162.161)" fill="#046eab"/>
            <path id="Tracé_4471-2" data-name="Tracé 4471" d="M222.4,170.549a.266.266,0,0,1,.078-.2,6.44,6.44,0,0,0-.144-7.475.3.3,0,1,1,.418-.418,7.022,7.022,0,0,1,.17,8.285.3.3,0,0,1-.418.026.323.323,0,0,1-.1-.209Z" transform="translate(-218.851 -162.376)" fill="#046eab"/>
          </g>
          <g id="Groupe_627-2" data-name="Groupe 627" transform="translate(5.576 2.218)">
            <path id="Tracé_4472-2" data-name="Tracé 4472" d="M208.723,164.866a.329.329,0,0,0-.078-.287,2.315,2.315,0,0,1-.47-1.934,2.341,2.341,0,0,1,1.085-1.673.345.345,0,0,0-.34-.6,3.184,3.184,0,0,0-.8,4.665.336.336,0,0,0,.484.026.292.292,0,0,0,.1-.2Z" transform="translate(-202.877 -157.217)" fill="#046eab"/>
            <path id="Tracé_4473-2" data-name="Tracé 4473" d="M207.28,166.4a.314.314,0,0,0-.078-.274,4.792,4.792,0,0,1,1.111-6.482.343.343,0,1,0-.353-.588,5.062,5.062,0,0,0-2.169,3.489,5,5,0,0,0,.889,4.012.349.349,0,0,0,.483.052A.34.34,0,0,0,207.28,166.4Z" transform="translate(-203.408 -157.619)" fill="#046eab"/>
            <path id="Tracé_4474-2" data-name="Tracé 4474" d="M205.441,167.36a.347.347,0,0,0-.052-.248,7.447,7.447,0,0,1,1.464-8.546.345.345,0,1,0-.418-.549,8.131,8.131,0,0,0-1.607,9.474.334.334,0,0,0,.614-.118Z" transform="translate(-203.947 -157.947)" fill="#046eab"/>
          </g>
        </g>
      </g>
    </g>
    <g id="UX-Perception-10" data-name="UX-Perception" transform="translate(11922.389 4407.914)">
      <text id="Service_Signaling_Performance_Auth_Discov_Registr_" data-name="Service Signaling Performance (Auth, Discov, Registr, …)" transform="translate(72.518 38.597)" font-size="24" font-family="SegoeUI, Segoe UI"><tspan x="0" y="0">Service Signaling Performance (Auth, Discov, Registr, …)</tspan></text>
      <path id="Icon_ion-speedometer-sharp" data-name="Icon ion-speedometer-sharp" d="M24.585,2.25A24.148,24.148,0,0,0,6.741,42.316c.117.129.223.258.341.376.939.872,1.224.872,1.968.872a2.068,2.068,0,0,0,1.979-.882c3.228-3.822,8.193-5.474,13.556-5.474s10.336,1.66,13.556,5.474a2.06,2.06,0,0,0,1.979.882,2.133,2.133,0,0,0,1.968-.872c.121-.124.223-.247.341-.376A24.148,24.148,0,0,0,24.585,2.25ZM23,8.606h3.178v6.356H23ZM13.462,27.674H7.106V24.5h6.356Zm2.134-8.33L11.1,14.849,13.349,12.6,17.844,17.1ZM26.83,28.012a3.079,3.079,0,0,1-.7.7,2.99,2.99,0,1,1-3.476-4.867l8.283-4.111Zm4.5-10.916L35.822,12.6l2.246,2.246-4.494,4.495ZM42.065,27.674H35.709V24.5h6.356Z" transform="translate(-0.639 6.689)" fill="#1e6eab"/>
    </g>
    <g id="UX-Perception-11" data-name="UX-Perception" transform="translate(11335.543 4514.762)">
      <text id="Service_Quality_Assurance" data-name="Service Quality Assurance" transform="translate(58.974 28.439)" font-size="24" font-family="SegoeUI, Segoe UI"><tspan x="0" y="0">Service Quality Assurance</tspan></text>
      <path id="Icon_material-high-quality" data-name="Icon material-high-quality" d="M46.464,6H9.746A5.244,5.244,0,0,0,4.5,11.246V42.719a5.244,5.244,0,0,0,5.246,5.246H46.464a5.261,5.261,0,0,0,5.246-5.246V11.246A5.261,5.261,0,0,0,46.464,6ZM25.482,34.85H21.548V29.6H16.3V34.85H12.368V19.114H16.3v6.557h5.246V19.114h3.934Zm18.359-2.623a2.63,2.63,0,0,1-2.623,2.623H39.251v3.934H35.317V34.85H33.35a2.63,2.63,0,0,1-2.623-2.623V21.737a2.63,2.63,0,0,1,2.623-2.623h7.868a2.63,2.63,0,0,1,2.623,2.623Zm-9.18-1.311h5.246V23.048H34.662Z" transform="translate(-4.5 -6)" fill="#046eab"/>
    </g>
    <g id="UX-Perception-12" data-name="UX-Perception" transform="translate(11903.126 4494.602)">
      <text id="Service_Configuration_and_Performance_SLA" data-name="Service Configuration and Performance SLA" transform="translate(84.226 45.577)" font-size="24" font-family="SegoeUI, Segoe UI"><tspan x="0" y="0">Service Configuration and Performance SLA</tspan></text>
      <path id="Icon_material-perm-data-setting" data-name="Icon material-perm-data-setting" d="M56.884,34.448a24.735,24.735,0,0,1,3,.21L59.909,0,0,59.909H34.627a24.736,24.736,0,0,1-.21-3A22.474,22.474,0,0,1,56.884,34.448ZM68,58.381a11.642,11.642,0,0,0,.12-1.468A7.873,7.873,0,0,0,68,55.446l3.175-2.486a.778.778,0,0,0,.18-.959l-3-5.182a.76.76,0,0,0-.929-.33l-3.714,1.5a10.247,10.247,0,0,0-2.546-1.468L60.6,42.565a.715.715,0,0,0-.719-.629H53.888a.769.769,0,0,0-.749.629l-.569,3.954a11.967,11.967,0,0,0-2.546,1.468l-3.714-1.5a.785.785,0,0,0-.929.33l-3,5.182a.742.742,0,0,0,.18.959l3.175,2.486a12.032,12.032,0,0,0,0,2.936l-3.175,2.486a.778.778,0,0,0-.18.959l3,5.182a.76.76,0,0,0,.929.329l3.714-1.5a10.247,10.247,0,0,0,2.546,1.468l.569,3.954a.746.746,0,0,0,.749.629h5.991a.769.769,0,0,0,.749-.629l.569-3.954a11.072,11.072,0,0,0,2.516-1.468l3.744,1.5a.785.785,0,0,0,.929-.329l3-5.182a.778.778,0,0,0-.18-.959ZM56.884,61.407a4.493,4.493,0,1,1,4.493-4.493A4.487,4.487,0,0,1,56.884,61.407Z" transform="translate(0 0)" fill="#046eab"/>
    </g>
    <g id="Groupe_755" data-name="Groupe 755" transform="translate(11329.554 3918.043)">
      <text id="Network_OSS_Performance_250_" data-name="Network OSS Performance (250)" transform="translate(24.928 51.262)" fill="#04333f" font-size="31" font-family="SegoeUI, Segoe UI"><tspan x="0" y="0">Network OSS Performance (250)</tspan></text>
      <line id="Ligne_62" data-name="Ligne 62" x1="1213.132" transform="translate(0 80.449)" fill="none" stroke="#c3e1e5" stroke-width="2"/>
      <line id="Line_62" data-name="Line 62" x1="1213.2" fill="none" stroke="#c3e1e5" stroke-width="2"/>
    </g>
    <path id="Icon_material-filter-list" data-name="Icon material-filter-list" d="M16.891,30.242h7.081V26.7H16.891ZM4.5,9v3.54H36.363V9ZM9.81,21.391H31.052v-3.54H9.81Z" transform="translate(12478.959 3943.078)" fill="#165f6e"/>
  </g>
</svg>
