<svg xmlns="http://www.w3.org/2000/svg" xmlns:xlink="http://www.w3.org/1999/xlink" width="1031" height="1092" viewBox="0 0 1031 1092">
  <defs>
    <filter id="Icon_corebrands-hockeyapp" x="666" y="0" width="142.288" height="115.5" filterUnits="userSpaceOnUse">
      <feOffset dy="3" input="SourceAlpha"/>
      <feGaussianBlur stdDeviation="13" result="blur"/>
      <feFlood flood-opacity="0.161"/>
      <feComposite operator="in" in2="blur"/>
      <feComposite in="SourceGraphic"/>
    </filter>
    <filter id="Rectangle_1" x="0" y="422" width="1031" height="670" filterUnits="userSpaceOnUse">
      <feOffset dy="23" input="SourceAlpha"/>
      <feGaussianBlur stdDeviation="28" result="blur-2"/>
      <feFlood flood-opacity="0.11"/>
      <feComposite operator="in" in2="blur-2"/>
      <feComposite in="SourceGraphic"/>
    </filter>
    <filter id="Rectangle_1626" x="45" y="260.683" width="212.393" height="219.317" filterUnits="userSpaceOnUse">
      <feOffset dy="3" input="SourceAlpha"/>
      <feGaussianBlur stdDeviation="13" result="blur-3"/>
      <feFlood flood-opacity="0.161"/>
      <feComposite operator="in" in2="blur-3"/>
      <feComposite in="SourceGraphic"/>
    </filter>
    <filter id="Rectangle_1626-2" x="198.989" y="260.683" width="212.393" height="219.317" filterUnits="userSpaceOnUse">
      <feOffset dy="3" input="SourceAlpha"/>
      <feGaussianBlur stdDeviation="13" result="blur-4"/>
      <feFlood flood-opacity="0.161"/>
      <feComposite operator="in" in2="blur-4"/>
      <feComposite in="SourceGraphic"/>
    </filter>
    <filter id="Rectangle_1626-3" x="353.402" y="260.683" width="212.393" height="219.317" filterUnits="userSpaceOnUse">
      <feOffset dy="3" input="SourceAlpha"/>
      <feGaussianBlur stdDeviation="13" result="blur-5"/>
      <feFlood flood-opacity="0.161"/>
      <feComposite operator="in" in2="blur-5"/>
      <feComposite in="SourceGraphic"/>
    </filter>
    <filter id="Rectangle_1626-4" x="507.39" y="260.683" width="212.393" height="219.317" filterUnits="userSpaceOnUse">
      <feOffset dy="3" input="SourceAlpha"/>
      <feGaussianBlur stdDeviation="13" result="blur-6"/>
      <feFlood flood-opacity="0.161"/>
      <feComposite operator="in" in2="blur-6"/>
      <feComposite in="SourceGraphic"/>
    </filter>
    <filter id="Rectangle_1626-5" x="661.803" y="260.683" width="212.393" height="219.317" filterUnits="userSpaceOnUse">
      <feOffset dy="3" input="SourceAlpha"/>
      <feGaussianBlur stdDeviation="13" result="blur-7"/>
      <feFlood flood-opacity="0.161"/>
      <feComposite operator="in" in2="blur-7"/>
      <feComposite in="SourceGraphic"/>
    </filter>
  </defs>
  <g id="Groupe_3882" data-name="Groupe 3882" transform="translate(-1895 -1168)">
    <text id="Autonomous_Problem_Analysis" data-name="Autonomous Problem Analysis" transform="translate(1990 1237)" fill="#575454" font-size="40" font-family="ArialMT, Arial"><tspan x="0" y="0">Autonomous Problem Analysis</tspan></text>
    <text id="Intelligent_Network_Troubleshooting_based_on_an_Automated_service_analysis_methodology._Run_Automated_Troubleshooting_using_a_Workflow_of_Pre-built_actions_and_custom_analysis_process_execution_" data-name="Intelligent Network Troubleshooting based on an Automated service analysis methodology.
Run Automated Troubleshooting using a Workflow of Pre-built actions and custom analysis process execution  " transform="translate(1990 1278)" fill="#575454" font-size="20" font-family="ArialMT, Arial"><tspan x="0" y="18">Intelligent Network Troubleshooting based on an Automated service analysis </tspan><tspan x="0" y="46">methodology.</tspan><tspan x="0" y="74">Run Automated Troubleshooting using a Workflow of Pre-built actions and </tspan><tspan x="0" y="102" xml:space="preserve">custom analysis process execution  </tspan></text>
    <g transform="matrix(1, 0, 0, 1, 1895, 1168)" filter="url(#Icon_corebrands-hockeyapp)">
      <path id="Icon_corebrands-hockeyapp-2" data-name="Icon corebrands-hockeyapp" d="M58.376,31.8a.329.329,0,0,1,.522.219c.01.147.032.3.032.46C58.93,36.724,50,42.5,32.144,42.5S5.358,36.724,5.358,32.487c0-.147.02-.3.032-.44a.325.325,0,0,1,.522-.219c4.436,3.18,13.173,5.912,26.232,5.912,13.079,0,21.816-2.73,26.232-5.943ZM32.144,29.558c-14.481,0-24.076-3.3-28.765-7.094a.327.327,0,0,0-.5.1,3.163,3.163,0,0,0-.366,1.5c0,4.687,9.878,10.945,29.633,10.945s29.633-6.236,29.633-10.945a3.14,3.14,0,0,0-.366-1.5.327.327,0,0,0-.5-.1c-4.687,3.8-14.282,7.094-28.765,7.094ZM64.288,14.207c0,5.41-10.714,12.619-32.144,12.619S0,19.616,0,14.207,10.714,5,32.144,5,64.288,8.809,64.288,14.207Zm-9.376-.848c0-2.72-7.586-4.269-22.768-4.269S9.376,10.65,9.376,13.36,16.962,20,32.144,20,54.912,16.07,54.912,13.36Z" transform="translate(705 31)" fill="#82b8f8"/>
    </g>
    <g id="Groupe_3879" data-name="Groupe 3879">
      <g id="Groupe_3877" data-name="Groupe 3877">
        <g transform="matrix(1, 0, 0, 1, 1895, 1168)" filter="url(#Rectangle_1)">
          <rect id="Rectangle_1-2" data-name="Rectangle 1" width="863" height="502" rx="20" transform="translate(84 483)" fill="#fff"/>
        </g>
        <path id="Icon_awesome-cubes" data-name="Icon awesome-cubes" d="M21.748,11.962l-4.3-1.611V5.521a1.6,1.6,0,0,0-1.042-1.5L11.956,2.352a1.584,1.584,0,0,0-1.126,0L6.379,4.021a1.6,1.6,0,0,0-1.042,1.5v4.83l-4.3,1.611A1.6,1.6,0,0,0,0,13.462v4.9A1.6,1.6,0,0,0,.886,19.8l4.451,2.226a1.593,1.593,0,0,0,1.433,0l4.625-2.315,4.625,2.315a1.593,1.593,0,0,0,1.433,0L21.9,19.8a1.6,1.6,0,0,0,.886-1.433v-4.9a1.6,1.6,0,0,0-1.042-1.5Zm-5.813-1.576-3.783,1.42V8.77l3.783-1.647ZM6.855,5.459l4.54-1.7,4.54,1.7v.027l-4.54,1.843L6.855,5.485Zm3.739,12.957L6.81,20.308V16.787l3.783-1.727Zm0-4.985-4.54,1.843-4.54-1.843V13.4l4.54-1.7,4.54,1.7Zm10.683,4.985-3.783,1.892V16.787l3.783-1.727Zm0-4.985-4.54,1.843L12.2,13.431V13.4l4.54-1.7,4.54,1.7Z" transform="translate(2010.367 1761.474)" fill="#046eab"/>
        <path id="TopBackgroung" d="M0,0H305.951V30.609H0Z" transform="translate(2006.285 1727.733)" fill="#d6ecef"/>
        <path id="Icon_material-slow-motion-video" data-name="Icon material-slow-motion-video" d="M15.8,12.031l-3.529-2.65V19.795l3.529-2.65,3.413-2.557Zm0,0-3.529-2.65V19.795l3.529-2.65,3.413-2.557Zm0,0-3.529-2.65V19.795l3.529-2.65,3.413-2.557ZM13.431,5.412V3.075A11.511,11.511,0,0,0,7.275,5.632L8.918,7.287A9.188,9.188,0,0,1,13.431,5.412ZM7.287,8.918,5.632,7.275a11.512,11.512,0,0,0-2.557,6.156H5.412A9.189,9.189,0,0,1,7.287,8.918ZM5.412,15.745H3.075A11.512,11.512,0,0,0,5.632,21.9l1.655-1.655A9.1,9.1,0,0,1,5.412,15.745Zm1.863,7.8A11.549,11.549,0,0,0,13.431,26.1V23.764a9.188,9.188,0,0,1-4.513-1.874L7.275,23.544Zm18.883-8.956A11.588,11.588,0,0,1,15.8,26.1V23.764a9.256,9.256,0,0,0,0-18.351V3.075A11.588,11.588,0,0,1,26.159,14.588Z" transform="translate(2006.109 1727.925)" fill="#046eab"/>
        <path id="Icon_ionic-ios-globe" data-name="Icon ionic-ios-globe" d="M13.141,3.375h-.033a9.766,9.766,0,0,0,0,19.532h.033a9.766,9.766,0,1,0,0-19.532ZM21.6,12.483H17.958a18.49,18.49,0,0,0-.46-3.578,14.3,14.3,0,0,0,2.333-.986A8.412,8.412,0,0,1,21.6,12.483Zm-9.118,0h-2.9A16.689,16.689,0,0,1,10,9.239a14.284,14.284,0,0,0,2.488.333Zm0,1.315V16.7A14.345,14.345,0,0,0,10,17.038a16.686,16.686,0,0,1-.413-3.24Zm1.315,0h2.878a16.591,16.591,0,0,1-.413,3.235A14.014,14.014,0,0,0,13.8,16.7Zm0-1.315V9.573a14.345,14.345,0,0,0,2.465-.329,16.64,16.64,0,0,1,.413,3.24Zm5.136-5.536a13.043,13.043,0,0,1-1.784.728,9.694,9.694,0,0,0-1.244-2.559A8.5,8.5,0,0,1,18.934,6.948ZM15.911,8.014A13.214,13.214,0,0,1,13.8,8.3V4.849A5.689,5.689,0,0,1,15.911,8.014ZM12.483,4.83v3.46A12.986,12.986,0,0,1,10.347,8,5.686,5.686,0,0,1,12.483,4.83Zm-2.141.3a9.771,9.771,0,0,0-1.235,2.54,13.336,13.336,0,0,1-1.761-.723A8.369,8.369,0,0,1,10.342,5.131ZM6.45,7.925A14.019,14.019,0,0,0,8.76,8.9a17.744,17.744,0,0,0-.46,3.578H4.685A8.368,8.368,0,0,1,6.45,7.925ZM4.68,13.8H8.3a18.442,18.442,0,0,0,.46,3.578,14.875,14.875,0,0,0-2.31.977A8.413,8.413,0,0,1,4.68,13.8Zm2.662,5.536a13.14,13.14,0,0,1,1.765-.723,9.805,9.805,0,0,0,1.235,2.545A8.577,8.577,0,0,1,7.342,19.334Zm3-1.061a13.053,13.053,0,0,1,2.136-.286v3.465A5.678,5.678,0,0,1,10.347,18.273Zm3.451,3.16V17.981a13.213,13.213,0,0,1,2.113.282A5.686,5.686,0,0,1,13.8,21.432Zm2.113-.268a9.694,9.694,0,0,0,1.244-2.559,12.829,12.829,0,0,1,1.784.732A8.593,8.593,0,0,1,15.911,21.165Zm3.92-2.808a14.3,14.3,0,0,0-2.333-.986,18.393,18.393,0,0,0,.46-3.573H21.6A8.375,8.375,0,0,1,19.831,18.357Z" transform="translate(2008.175 1791.122)" fill="#046eab"/>
        <g id="Groupe_805" data-name="Groupe 805" transform="translate(2011.55 1827.314)">
          <path id="Tracé_3249" data-name="Tracé 3249" d="M48.722,58.665a1.243,1.243,0,0,1-.6.792,2.366,2.366,0,0,1-.4.231c-.107.058-.206.116-.305.182a.255.255,0,0,0,0,.157,2.675,2.675,0,0,0,.14.264c.132.231.438.759,0,1.139a2.409,2.409,0,0,1-.19.157.961.961,0,0,1,.058.454.681.681,0,0,1-.3.487l-.264.157a.7.7,0,0,0-.206.14,1.239,1.239,0,0,0,.041.305c.025.1.041.19.058.289a2.2,2.2,0,0,1-.124,1.032,1.538,1.538,0,0,1-1.453,1.106,1.421,1.421,0,0,1-.322-.033,28.646,28.646,0,0,1-2.873-.842A3.675,3.675,0,0,0,40.847,66.5a1.137,1.137,0,0,1-1.057.768H32.435a1.136,1.136,0,0,1-.933-.5,1.109,1.109,0,0,1-.116-1.073c.033-.083.066-.165.107-.248a6.7,6.7,0,0,0,.38-.949,11.81,11.81,0,0,0,.4-1.989,5.517,5.517,0,0,0-.438-2.889,7.833,7.833,0,0,0-.925-1.428c-.206-.289-.429-.57-.636-.892a5.419,5.419,0,0,1-.892-2.947,10.084,10.084,0,0,1,.38-2.98A5.92,5.92,0,0,1,31.94,48.3c.083-.066.173-.132.256-.19h0a11.917,11.917,0,0,1,1.131-.735,1.94,1.94,0,0,0-.644,1.445,1.206,1.206,0,0,0,.025.3c-.033.025-.058.05-.091.074a4.191,4.191,0,0,0-.471.388,4.709,4.709,0,0,0-1.3,2.105,9.3,9.3,0,0,0-.314,2.658,4.3,4.3,0,0,0,.71,2.344c.173.281.38.57.57.817a8.7,8.7,0,0,1,1.057,1.659,6.516,6.516,0,0,1,.528,3.492,12.239,12.239,0,0,1-.446,2.188,8.6,8.6,0,0,1-.446,1.106l-.074.173H39.8a5.861,5.861,0,0,1,.982-1.866L40.3,64.1c-1.6-.5-2.41-1.238-2.386-2.212a.57.57,0,1,1,1.139,0c0,.182.14.652,1.585,1.09l.57.2.892.305a27.343,27.343,0,0,0,3,.933c.223.041.38-.066.471-.314a1.043,1.043,0,0,0,.074-.5.707.707,0,0,0-.041-.19,1.618,1.618,0,0,1-.025-.842,1.227,1.227,0,0,1,.619-.768.6.6,0,0,1-.116-.421.576.576,0,0,1,.231-.38l.264-.2c-.041-.083-.091-.165-.132-.264a1.436,1.436,0,0,1-.116-.908,1.452,1.452,0,0,1,.908-.941,1.619,1.619,0,0,0,.264-.14l.066-.05a2.454,2.454,0,0,0-.223-.289,14.005,14.005,0,0,1-1.626-2.617,1.263,1.263,0,0,1-.165-.57,1.426,1.426,0,0,1,.57-1.032,1.606,1.606,0,0,0,.215-.2.4.4,0,0,0-.041-.14c-.058-.14-.116-.281-.182-.429a5,5,0,0,1-.355-.941V52.16c-.033-.165-.074-.338-.124-.5h0c-.05-.173-.1-.347-.157-.52a.569.569,0,0,1,.33-.726.657.657,0,0,1,.281-.033.552.552,0,0,1,.157.041.568.568,0,0,1,.3.322,8.964,8.964,0,0,1,.322,1.139l.025.116a3.752,3.752,0,0,0,.281.735c.074.165.149.322.215.5a1.428,1.428,0,0,1,.107.693,1.547,1.547,0,0,1-.57.9,2.06,2.06,0,0,0-.19.19v.041a12.571,12.571,0,0,0,1.511,2.41,1.613,1.613,0,0,1,.52,1.18Z" transform="translate(-29.386 -43.583)" fill="#046eab"/>
          <g id="Groupe_565" data-name="Groupe 565" transform="translate(2.587)">
            <path id="Tracé_3250" data-name="Tracé 3250" d="M46.009,47.18a3.133,3.133,0,0,0-1.527-1,2.438,2.438,0,0,0-2.41-1.981,2.715,2.715,0,0,0-.446.041,4.225,4.225,0,0,0-7.248,1.568,2.38,2.38,0,0,0-1.692,1.436l-.017.041a2.354,2.354,0,0,0-.149.825,2.316,2.316,0,0,0,.1.677,2.38,2.38,0,0,0,2.262,1.684,2.224,2.224,0,0,0,.33-.025A2.032,2.032,0,0,0,36.2,51.53a2.163,2.163,0,0,0,.908.19,3.154,3.154,0,0,0,1.04-.19l.314-.132h-.429a1.952,1.952,0,0,1-2.179-1.428c-.479-1.5,1.057-2.741,1.073-2.757l-.074-.107a3.277,3.277,0,0,0-1.767,2.8A1.885,1.885,0,0,1,33.3,48.3a1.612,1.612,0,0,1-.025-.281,1.877,1.877,0,0,1,.619-1.4h.008a1.57,1.57,0,0,1,.33-.248,3.939,3.939,0,0,0-.05.627,4.533,4.533,0,0,0,.041.578c.008.083.025.157.033.223l.132-.017v-.223l.264-1.362A4.026,4.026,0,0,1,40.9,44.489,2.457,2.457,0,0,0,39.883,45.5a2.191,2.191,0,0,0-.149.347l-.157.471.272-.4A2.949,2.949,0,0,1,40.1,45.6a2.26,2.26,0,0,1,1.651-.726,2.4,2.4,0,0,1,1.758.735,2.363,2.363,0,0,1,.6,1.8,2.806,2.806,0,0,1-.05.38l-.074.38.2-.33a2.325,2.325,0,0,0,.322-1.04,2.716,2.716,0,0,1,1.379,2.361,2.813,2.813,0,0,1-2.765,2.732,2.512,2.512,0,0,1-1.568-.429l-.421-.289.338.388a3.44,3.44,0,0,0,1.486.71,4.246,4.246,0,0,0,.545.041,3.149,3.149,0,0,0,2.922-1.8A3.322,3.322,0,0,0,46,47.2Z" transform="translate(-32.52 -42.78)" fill="#046eab"/>
            <path id="Tracé_3251" data-name="Tracé 3251" d="M40.561,50.332l1.23-3.195-.124-.058-2.617,4.144h2L36.31,57.613l.107.091,6.777-7.438Z" transform="translate(-33.181 -43.53)" fill="#046eab"/>
          </g>
        </g>
        <text id="General_Performnce_Problems_10_" data-name="General Performnce Problems (10)" transform="translate(2015.631 1705.296)" fill="#04333f" font-size="12" font-family="SegoeUI, Segoe UI"><tspan x="0" y="0">General Performnce Problems (10)</tspan></text>
        <line id="Ligne_62" data-name="Ligne 62" x1="806.302" transform="translate(2004.577 1714.065)" fill="none" stroke="#c3e1e5" stroke-width="2"/>
        <line id="Line_62" data-name="Line 62" x1="806.324" transform="translate(2004.577 1688.073)" fill="none" stroke="#c3e1e5" stroke-width="2"/>
        <path id="Icon_material-filter-list" data-name="Icon material-filter-list" d="M8.5,15.863h2.288V14.719H8.5ZM4.5,9v1.144H14.795V9Zm1.716,4h6.863V11.86H6.216Z" transform="translate(2794.49 1688.117)" fill="#165f6e"/>
        <text id="Network_Configuration_Issue" data-name="Network Configuration Issue" transform="translate(2047.376 1782.295)" font-size="16" font-family="SegoeUI, Segoe UI"><tspan x="0" y="0">Network Configuration Issue</tspan></text>
        <text id="Backhaul_IP_Performance" data-name="Backhaul IP Performance" transform="translate(2046.156 1749)" font-size="16" font-family="SegoeUI, Segoe UI"><tspan x="0" y="0">Backhaul IP Performance</tspan></text>
        <text id="Traffic_Density_Issue" data-name="Traffic Density Issue" transform="translate(2046.888 1810.582)" font-size="16" font-family="SegoeUI, Segoe UI"><tspan x="0" y="0">Traffic Density Issue</tspan></text>
        <text id="User_Resource_Delivery" data-name="User Resource Delivery" transform="translate(2048.597 1845.114)" font-size="16" font-family="SegoeUI, Segoe UI"><tspan x="0" y="0">User Resource Delivery</tspan></text>
        <text id="QoE_Expectation_Segmentation" data-name="QoE Expectation Segmentation" transform="translate(2392.724 1775.118)" font-size="16" font-family="SegoeUI, Segoe UI"><tspan x="0" y="0">QoE Expectation Segmentation</tspan></text>
        <text id="Network_SLA_Monitoring" data-name="Network SLA Monitoring" transform="translate(2392.724 1804.893)" font-size="16" font-family="SegoeUI, Segoe UI"><tspan x="0" y="0">Network SLA Monitoring</tspan></text>
        <text id="Network_End-user_annoyance" data-name="Network End-user annoyance" transform="translate(2392.724 1745.567)" font-size="16" font-family="SegoeUI, Segoe UI"><tspan x="0" y="0">Network End-user annoyance</tspan></text>
        <g id="Groupe_1943" data-name="Groupe 1943" transform="translate(1902 1111)">
          <g id="Groupe_601" data-name="Groupe 601" transform="translate(107.183 847)">
            <rect id="Rectangle_1812" data-name="Rectangle 1812" width="1.57" height="0.785" transform="translate(4.093 9.644)" fill="#036eab"/>
            <rect id="Rectangle_1813" data-name="Rectangle 1813" width="1.57" height="0.785" transform="translate(20.546 9.644)" fill="#036eab"/>
            <rect id="Rectangle_1814" data-name="Rectangle 1814" width="1.57" height="0.785" transform="matrix(0.866, -0.5, 0.5, 0.866, 19.352, 5.998)" fill="#036eab"/>
            <rect id="Rectangle_1815" data-name="Rectangle 1815" width="0.785" height="1.57" transform="matrix(0.5, -0.866, 0.866, 0.5, 5.087, 5.858)" fill="#036eab"/>
            <rect id="Rectangle_1816" data-name="Rectangle 1816" width="0.785" height="1.57" transform="matrix(0.866, -0.5, 0.5, 0.866, 8.261, 2.448)" fill="#036eab"/>
            <rect id="Rectangle_1817" data-name="Rectangle 1817" width="0.785" height="1.57" transform="translate(12.712 1.025)" fill="#036eab"/>
            <rect id="Rectangle_1818" data-name="Rectangle 1818" width="1.57" height="0.785" transform="matrix(0.5, -0.866, 0.866, 0.5, 16.471, 3.379)" fill="#036eab"/>
            <rect id="Rectangle_1819" data-name="Rectangle 1819" width="0.785" height="1.177" transform="matrix(0.259, -0.966, 0.966, 0.259, 4.3, 8.083)" fill="#036eab"/>
            <rect id="Rectangle_1820" data-name="Rectangle 1820" width="0.785" height="1.177" transform="matrix(0.259, -0.966, 0.966, 0.259, 20.572, 12.447)" fill="#036eab"/>
            <rect id="Rectangle_1821" data-name="Rectangle 1821" width="0.785" height="1.177" transform="translate(6.454 3.943) rotate(-45)" fill="#036eab"/>
            <rect id="Rectangle_1822" data-name="Rectangle 1822" width="0.785" height="1.177" transform="matrix(0.966, -0.259, 0.259, 0.966, 10.393, 1.429)" fill="#036eab"/>
            <rect id="Rectangle_1823" data-name="Rectangle 1823" width="1.177" height="0.785" transform="matrix(0.259, -0.966, 0.966, 0.259, 14.754, 2.367)" fill="#036eab"/>
            <rect id="Rectangle_1824" data-name="Rectangle 1824" width="1.177" height="0.785" transform="translate(18.365 4.221) rotate(-45)" fill="#036eab"/>
            <rect id="Rectangle_1825" data-name="Rectangle 1825" width="1.177" height="0.785" transform="matrix(0.966, -0.259, 0.259, 0.966, 20.578, 7.625)" fill="#036eab"/>
            <rect id="Rectangle_1826" data-name="Rectangle 1826" width="1.177" height="0.785" transform="matrix(0.966, -0.259, 0.259, 0.966, 4.296, 11.988)" fill="#036eab"/>
            <path id="Tracé_3972" data-name="Tracé 3972" d="M565.729,174.463a9.869,9.869,0,0,1,3.1-10.443l.189.225A9.578,9.578,0,0,0,566,174.376l-.284.087Z" transform="translate(-562.064 -161.549)" fill="#036eab"/>
            <path id="Tracé_3973" data-name="Tracé 3973" d="M583.047,163.742a9.563,9.563,0,0,0-12.689-.363l-.189-.225a9.864,9.864,0,0,1,13.081.363l-.2.211Z" transform="translate(-563.395 -160.683)" fill="#036eab"/>
            <path id="Tracé_3974" data-name="Tracé 3974" d="M590.772,174.605l-.283-.087a9.573,9.573,0,0,0-2.609-9.767l.2-.211a9.848,9.848,0,0,1,2.275,3.2,9.738,9.738,0,0,1,.836,3.982,9.857,9.857,0,0,1-.429,2.878Z" transform="translate(-568.235 -161.691)" fill="#036eab"/>
            <path id="Tracé_3975" data-name="Tracé 3975" d="M569.824,176.724h-.363l-.036.247h.08a.385.385,0,0,1,.2.051.278.278,0,0,1,.138.247.329.329,0,0,1-.356.327.5.5,0,0,1-.24-.058l.029-.094a.434.434,0,0,0,.2.051.209.209,0,0,0,.225-.2c0-.124-.08-.211-.276-.211a.667.667,0,0,0-.131.007l.058-.458h.458v.109Z" transform="translate(-563.144 -164.995)" fill="#036eab"/>
            <g id="Groupe_592" data-name="Groupe 592" transform="translate(6.099 7.82)">
              <path id="Tracé_3976" data-name="Tracé 3976" d="M569.24,172.347v-.08l.1-.095c.24-.233.356-.356.356-.5a.171.171,0,0,0-.189-.189.327.327,0,0,0-.2.08l-.044-.087a.4.4,0,0,1,.269-.094.267.267,0,0,1,.291.276c0,.174-.131.32-.327.509l-.073.073h.429v.109Z" transform="translate(-569.24 -171.38)" fill="#036eab"/>
              <path id="Tracé_3977" data-name="Tracé 3977" d="M570.907,171.87c0,.327-.123.5-.334.5-.189,0-.312-.174-.312-.487s.138-.494.334-.494.313.182.313.48Zm-.516.015c0,.247.073.385.2.385s.2-.153.2-.4-.058-.385-.2-.385C570.471,171.484,570.391,171.623,570.391,171.884Z" transform="translate(-569.519 -171.383)" fill="#036eab"/>
            </g>
            <g id="Groupe_593" data-name="Groupe 593" transform="translate(8.09 4.629)">
              <path id="Tracé_3978" data-name="Tracé 3978" d="M572.024,167.8a.457.457,0,0,0,.211.058c.167,0,.218-.1.218-.182,0-.131-.123-.189-.247-.189h-.073V167.4h.073c.094,0,.211-.051.211-.16a.148.148,0,0,0-.167-.145.343.343,0,0,0-.189.065l-.036-.094a.454.454,0,0,1,.247-.073c.189,0,.269.109.269.225a.242.242,0,0,1-.174.225h0a.257.257,0,0,1,.211.247c0,.153-.116.283-.349.283a.481.481,0,0,1-.247-.065l.036-.1Z" transform="translate(-571.98 -166.99)" fill="#036eab"/>
              <path id="Tracé_3979" data-name="Tracé 3979" d="M573.594,167.114h-.363l-.036.247h.08a.386.386,0,0,1,.2.051.278.278,0,0,1,.138.247.329.329,0,0,1-.356.327.5.5,0,0,1-.24-.058l.029-.094a.433.433,0,0,0,.2.051.209.209,0,0,0,.225-.2c0-.124-.08-.211-.276-.211a.668.668,0,0,0-.131.007l.058-.458h.458v.109Z" transform="translate(-572.264 -166.998)" fill="#036eab"/>
            </g>
            <g id="Groupe_594" data-name="Groupe 594" transform="translate(12.356 3.125)">
              <path id="Tracé_3980" data-name="Tracé 3980" d="M578.424,165.054h-.363l-.036.247h.08a.386.386,0,0,1,.2.051.278.278,0,0,1,.138.247.329.329,0,0,1-.356.327.5.5,0,0,1-.24-.058l.029-.094a.434.434,0,0,0,.2.051.209.209,0,0,0,.225-.2c0-.124-.08-.211-.276-.211a.665.665,0,0,0-.131.007l.058-.458h.458v.109Z" transform="translate(-577.85 -164.931)" fill="#036eab"/>
              <path id="Tracé_3981" data-name="Tracé 3981" d="M579.517,165.4c0,.327-.124.5-.334.5-.189,0-.312-.174-.312-.487s.138-.494.334-.494S579.517,165.1,579.517,165.4Zm-.516.015c0,.247.073.385.2.385s.2-.153.2-.4-.058-.385-.2-.385C579.081,165.014,579,165.153,579,165.414Z" transform="translate(-578.129 -164.92)" fill="#036eab"/>
            </g>
            <g id="Groupe_595" data-name="Groupe 595" transform="translate(16.782 4.629)">
              <path id="Tracé_3982" data-name="Tracé 3982" d="M584.507,167.092h-.094a.4.4,0,0,0-.334.342h0a.286.286,0,0,1,.233-.109.281.281,0,0,1,.283.305.317.317,0,0,1-.32.334c-.2,0-.334-.16-.334-.407a.593.593,0,0,1,.16-.429.5.5,0,0,1,.305-.138h.094v.1Zm-.036.552a.194.194,0,0,0-.2-.218.2.2,0,0,0-.182.116.137.137,0,0,0-.014.058c0,.16.073.269.211.269a.2.2,0,0,0,.189-.225Z" transform="translate(-583.94 -166.99)" fill="#036eab"/>
              <path id="Tracé_3983" data-name="Tracé 3983" d="M585.584,167.114h-.363l-.036.247h.08a.385.385,0,0,1,.2.051.278.278,0,0,1,.138.247.329.329,0,0,1-.356.327.5.5,0,0,1-.24-.058l.029-.094a.434.434,0,0,0,.2.051.209.209,0,0,0,.225-.2c0-.124-.08-.211-.276-.211a.668.668,0,0,0-.131.007l.058-.458h.458v.109Z" transform="translate(-584.232 -166.998)" fill="#036eab"/>
            </g>
            <g id="Groupe_596" data-name="Groupe 596" transform="translate(18.729 7.82)">
              <path id="Tracé_3984" data-name="Tracé 3984" d="M586.627,172.107a.27.27,0,0,1,.189-.254h0a.253.253,0,0,1-.153-.218.263.263,0,0,1,.291-.254.247.247,0,0,1,.276.233.245.245,0,0,1-.153.225h0a.276.276,0,0,1,.189.247.3.3,0,0,1-.327.276c-.2,0-.32-.116-.32-.254Zm.516,0c0-.116-.08-.174-.211-.211a.213.213,0,0,0-.174.2.177.177,0,0,0,.189.182.167.167,0,0,0,.189-.167Zm-.356-.472c0,.095.073.145.182.174a.193.193,0,0,0,.145-.174.146.146,0,0,0-.16-.153.153.153,0,0,0-.167.153Z" transform="translate(-586.62 -171.38)" fill="#036eab"/>
              <path id="Tracé_3985" data-name="Tracé 3985" d="M588.307,171.87c0,.327-.123.5-.334.5-.189,0-.312-.174-.312-.487s.138-.494.334-.494.312.182.312.48Zm-.516.015c0,.247.073.385.2.385s.2-.153.2-.4-.058-.385-.2-.385C587.871,171.484,587.791,171.623,587.791,171.884Z" transform="translate(-586.904 -171.383)" fill="#036eab"/>
            </g>
            <g id="Groupe_597" data-name="Groupe 597" transform="translate(18.01 11.606)">
              <path id="Tracé_3986" data-name="Tracé 3986" d="M585.819,176.724h0l-.167.087-.022-.1.211-.109h.109v.952h-.124v-.828Z" transform="translate(-585.63 -176.593)" fill="#036eab"/>
              <path id="Tracé_3987" data-name="Tracé 3987" d="M587.167,177.07c0,.327-.123.5-.334.5-.189,0-.312-.174-.312-.487s.138-.494.334-.494S587.167,176.772,587.167,177.07Zm-.516.015c0,.247.073.385.2.385s.2-.153.2-.4-.058-.385-.2-.385C586.731,176.684,586.651,176.823,586.651,177.084Z" transform="translate(-585.873 -176.59)" fill="#036eab"/>
              <path id="Tracé_3988" data-name="Tracé 3988" d="M588.207,177.07c0,.327-.123.5-.334.5-.189,0-.312-.174-.312-.487s.138-.494.334-.494S588.207,176.772,588.207,177.07Zm-.516.015c0,.247.073.385.2.385s.2-.153.2-.4-.058-.385-.2-.385C587.771,176.684,587.691,176.823,587.691,177.084Z" transform="translate(-586.158 -176.59)" fill="#036eab"/>
            </g>
            <g id="Groupe_599" data-name="Groupe 599" transform="translate(11.06 6.206)">
              <g id="Groupe_598" data-name="Groupe 598">
                <path id="Tracé_3989" data-name="Tracé 3989" d="M577.893,180.452a1.839,1.839,0,0,1-1.715-1.206,1.841,1.841,0,0,1,.058-1.4,1.809,1.809,0,0,1,1.032-.945,1.841,1.841,0,0,1,1.4.058,2.22,2.22,0,0,1,.414.262,1.833,1.833,0,0,1,.48,2.166h0a1.808,1.808,0,0,1-1.032.945,1.9,1.9,0,0,1-.632.109Zm0-3.336a1.41,1.41,0,0,0-.516.094,1.515,1.515,0,0,0-.85.778,1.5,1.5,0,0,0-.051,1.148,1.5,1.5,0,0,0,2.776.124h0a1.508,1.508,0,0,0-.392-1.78,1.652,1.652,0,0,0-.334-.218,1.482,1.482,0,0,0-.632-.138Z" transform="translate(-576.066 -171.244)" fill="#036eab"/>
                <path id="Tracé_3990" data-name="Tracé 3990" d="M579.82,175.155l8.227-6-7.7,6.519Z" transform="translate(-577.092 -169.16)" fill="#036eab"/>
              </g>
              <ellipse id="Ellipse_27" data-name="Ellipse 27" cx="1.504" cy="1.504" rx="1.504" ry="1.504" transform="translate(0.322 5.872)" fill="#036eab"/>
            </g>
            <g id="Groupe_600" data-name="Groupe 600" transform="translate(0)">
              <path id="Tracé_3991" data-name="Tracé 3991" d="M563.687,164.677a.478.478,0,1,0,.676,0A.474.474,0,0,0,563.687,164.677Z" transform="translate(-561.585 -161.69)" fill="#036eab"/>
              <path id="Tracé_3992" data-name="Tracé 3992" d="M563.786,163.17a1.468,1.468,0,0,0-1.046.436.283.283,0,1,0,.4.4.912.912,0,0,1,1.294,0,.263.263,0,0,0,.2.08.281.281,0,0,0,.2-.08.285.285,0,0,0,0-.4,1.486,1.486,0,0,0-1.047-.436Z" transform="translate(-561.342 -161.317)" fill="#036eab"/>
              <path id="Tracé_3993" data-name="Tracé 3993" d="M563.54,161.89a2.386,2.386,0,0,0-1.7.7.283.283,0,0,0,.4.4,1.842,1.842,0,0,1,2.6,0,.263.263,0,0,0,.2.08.281.281,0,0,0,.2-.08.285.285,0,0,0,0-.4,2.391,2.391,0,0,0-1.7-.7Z" transform="translate(-561.096 -160.967)" fill="#036eab"/>
              <path id="Tracé_3994" data-name="Tracé 3994" d="M565.638,161.594a3.278,3.278,0,0,0-2.354-.974,3.321,3.321,0,0,0-2.355.974.285.285,0,0,0,0,.4.263.263,0,0,0,.2.08.281.281,0,0,0,.2-.08,2.755,2.755,0,0,1,3.91,0,.283.283,0,1,0,.4-.4Z" transform="translate(-560.847 -160.62)" fill="#036eab"/>
            </g>
          </g>
          <text id="Limited_Data_Rate_Low_Throughput_Cell_Delivery" data-name="Limited Data Rate (Low Throughput) Cell Delivery" transform="translate(144.888 861)" font-size="16" font-family="SegoeUI, Segoe UI"><tspan x="0" y="0">Limited Data Rate (Low Throughput) Cell Delivery</tspan></text>
        </g>
        <text id="Network_Congestion_and_Resource_Availability" data-name="Network Congestion and Resource Availability" transform="translate(2427.695 1972)" font-size="16" font-family="SegoeUI, Segoe UI"><tspan x="0" y="0">Network Congestion and Resource Availability</tspan></text>
        <g id="Groupe_1942" data-name="Groupe 1942" transform="translate(1902 1111)">
          <g id="Groupe_806" data-name="Groupe 806" transform="translate(106 885)">
            <path id="Icon_awesome-grip-lines" data-name="Icon awesome-grip-lines" d="M20.8,14.812H.671c-.369,0-.671.2-.671.445v.891c0,.245.3.445.671.445H20.8c.369,0,.671-.2.671-.445v-.891C21.469,15.013,21.167,14.812,20.8,14.812Zm0-3.562H.671C.3,11.25,0,11.45,0,11.7v.891c0,.245.3.445.671.445H20.8c.369,0,.671-.2.671-.445V11.7C21.469,11.45,21.167,11.25,20.8,11.25Z" transform="translate(0 -11.25)" fill="#036eab"/>
            <path id="Icon_awesome-grip-lines-2" data-name="Icon awesome-grip-lines" d="M20.8,14.812H.671c-.369,0-.671.2-.671.445v.891c0,.245.3.445.671.445H20.8c.369,0,.671-.2.671-.445v-.891C21.469,15.013,21.167,14.812,20.8,14.812Zm0-3.562H.671C.3,11.25,0,11.45,0,11.7v.891c0,.245.3.445.671.445H20.8c.369,0,.671-.2.671-.445V11.7C21.469,11.45,21.167,11.25,20.8,11.25Z" transform="translate(3.755 -3.741)" fill="#036eab"/>
          </g>
          <text id="Serving_Cell_UL_DL_Coverage" data-name="Serving Cell UL/DL Coverage" transform="translate(144.888 898)" font-size="16" font-family="SegoeUI, Segoe UI"><tspan x="0" y="0">Serving Cell UL/DL Coverage</tspan></text>
        </g>
        <text id="Network_Traffic_and_Availability" data-name="Network Traffic and Availability" transform="translate(2427.695 2008)" font-size="16" font-family="SegoeUI, Segoe UI"><tspan x="0" y="0">Network Traffic and Availability</tspan></text>
        <g id="Groupe_1939" data-name="Groupe 1939" transform="translate(1902 1114)">
          <path id="Icon_awesome-road" data-name="Icon awesome-road" d="M22.72,17.924,17.179,5.24a1.207,1.207,0,0,0-1.1-.74H12.212l.1.918a.317.317,0,0,1-.316.35H10.838a.317.317,0,0,1-.316-.35l.1-.918H6.751a1.207,1.207,0,0,0-1.1.74L.111,17.924a1.266,1.266,0,0,0,1.1,1.8h7.8l.409-3.872a.634.634,0,0,1,.631-.568h2.727a.634.634,0,0,1,.631.568l.409,3.872h7.8A1.265,1.265,0,0,0,22.72,17.924Zm-12.4-10.6a.317.317,0,0,1,.316-.284h1.557a.317.317,0,0,1,.316.284l.182,1.727a.476.476,0,0,1-.473.526H10.612a.475.475,0,0,1-.473-.526l.182-1.727Zm2.19,6.692H10.319a.634.634,0,0,1-.631-.7l.2-1.9a.634.634,0,0,1,.631-.568h1.79a.634.634,0,0,1,.631.568l.2,1.9a.634.634,0,0,1-.631.7Z" transform="translate(108.367 912.5)" fill="#036eab"/>
          <text id="Serving_Cell_UL_DL_Quality" data-name="Serving Cell UL/DL Quality" transform="translate(144.888 931)" font-size="16" font-family="SegoeUI, Segoe UI"><tspan x="0" y="0">Serving Cell UL/DL Quality</tspan></text>
        </g>
        <text id="Resource_Quality_and_Optimization" data-name="Resource Quality and Optimization" transform="translate(2427.695 2045)" font-size="16" font-family="SegoeUI, Segoe UI"><tspan x="0" y="0">Resource Quality and Optimization</tspan></text>
        <g id="Groupe_1945" data-name="Groupe 1945" transform="translate(1902 1111)">
          <text id="Limited_Radio_Network_Coverage" data-name="Limited Radio Network Coverage" transform="translate(144.204 807)" font-size="14" font-family="SegoeUI, Segoe UI"><tspan x="0" y="15">Limited Radio Network </tspan></text>
          <g id="_5GTowerMain" data-name="5GTowerMain" transform="translate(107.183 805)">
            <g id="Groupe_617" data-name="Groupe 617" transform="translate(6.516)">
              <path id="Tracé_4435" data-name="Tracé 4435" d="M214.4,159.445l.148,4.587,1.057-.117a.414.414,0,0,0,.365-.443l-.28-3.77a.405.405,0,0,0-.474-.373l-.816.124Z" transform="translate(-209.473 -156.934)" fill="#046eab"/>
              <path id="Tracé_4436" data-name="Tracé 4436" d="M215.709,179.722a.152.152,0,0,1-.148-.14l-.9-21.565a.144.144,0,1,1,.288-.008l.9,21.565a.146.146,0,0,1-.14.148Z" transform="translate(-209.53 -156.611)" fill="#046eab"/>
              <path id="Tracé_4437" data-name="Tracé 4437" d="M210.75,179.722h0a.146.146,0,0,1-.14-.148l.9-21.565a.144.144,0,1,1,.288.008l-.9,21.565A.146.146,0,0,1,210.75,179.722Z" transform="translate(-208.629 -156.611)" fill="#046eab"/>
              <path id="Tracé_4438" data-name="Tracé 4438" d="M211.715,162.254s-.062-.016-.078-.047a.1.1,0,0,1,.031-.124l2.387-1.36-2.231-1.29a.091.091,0,0,1,.093-.155l2.363,1.368s.047.047.047.078a.086.086,0,0,1-.047.078l-2.526,1.438a.276.276,0,0,1-.047.008Z" transform="translate(-208.855 -156.921)" fill="#046eab"/>
              <path id="Tracé_4439" data-name="Tracé 4439" d="M211.715,165.864s-.062-.016-.078-.047a.1.1,0,0,1,.031-.124l2.387-1.36-2.231-1.29a.091.091,0,0,1,.093-.155l2.363,1.368s.047.047.047.078a.086.086,0,0,1-.047.078l-2.526,1.438a.276.276,0,0,1-.047.008Z" transform="translate(-208.855 -157.725)" fill="#046eab"/>
              <path id="Tracé_4440" data-name="Tracé 4440" d="M211.465,169.471s-.062-.016-.078-.047a.086.086,0,0,1,.039-.117l2.783-1.353-2.6-1.283a.087.087,0,0,1,.078-.155l2.76,1.368s.047.047.047.078a.1.1,0,0,1-.047.078l-2.946,1.438a.158.158,0,0,1-.039.008Z" transform="translate(-208.8 -158.533)" fill="#046eab"/>
              <path id="Tracé_4441" data-name="Tracé 4441" d="M211.333,173.006s-.07-.023-.085-.054a.083.083,0,0,1,.047-.117l2.977-1.29-2.915-1.283a.092.092,0,0,1-.047-.117.089.089,0,0,1,.117-.047l3.1,1.368s.054.047.054.086a.077.077,0,0,1-.054.078L211.364,173h-.039Z" transform="translate(-208.769 -159.332)" fill="#046eab"/>
              <path id="Tracé_4442" data-name="Tracé 4442" d="M211.114,176.591s-.07-.023-.086-.054a.086.086,0,0,1,.054-.117l3.249-1.259-3.11-1.22a.089.089,0,0,1,.07-.163l3.319,1.306s.054.047.054.085a.1.1,0,0,1-.054.086l-3.459,1.337h-.031Z" transform="translate(-208.721 -160.15)" fill="#046eab"/>
              <path id="Tracé_4443" data-name="Tracé 4443" d="M211.034,180.237s-.07-.023-.086-.054a.086.086,0,0,1,.054-.117l3.42-1.314-3.3-1.283a.091.091,0,1,1,.062-.171l3.514,1.368s.054.047.054.086a.1.1,0,0,1-.054.086l-3.638,1.392h-.031Z" transform="translate(-208.703 -160.935)" fill="#046eab"/>
              <path id="Tracé_4444" data-name="Tracé 4444" d="M210.934,183.812s-.07-.023-.086-.062a.086.086,0,0,1,.054-.117l3.6-1.29-3.545-1.283a.091.091,0,0,1,.062-.171l3.778,1.368s.062.047.062.086a.091.091,0,0,1-.062.086l-3.832,1.368h-.031Z" transform="translate(-208.681 -161.734)" fill="#046eab"/>
              <g id="Groupe_612" data-name="Groupe 612" transform="translate(1.771)">
                <path id="Tracé_4445" data-name="Tracé 4445" d="M212.136,156.258h0v8.372h0a1.8,1.8,0,0,1-1.8-1.8v-4.789a1.8,1.8,0,0,1,1.8-1.8Z" transform="translate(-210.34 -156.25)" fill="#046eab"/>
                <rect id="Rectangle_1832" data-name="Rectangle 1832" width="0.894" height="8.372" transform="translate(0.894 0.008)" fill="#046eab"/>
              </g>
              <g id="Groupe_614" data-name="Groupe 614" transform="translate(5.285 5.003)">
                <path id="Tracé_4446" data-name="Tracé 4446" d="M214.86,166.143v.513a.161.161,0,0,0,.148.163l1.749.148v-.373l-1.679-.606a.161.161,0,0,0-.218.155Z" transform="translate(-214.86 -163.419)" fill="#046eab"/>
                <g id="Groupe_613" data-name="Groupe 613" transform="translate(0.55 0)">
                  <ellipse id="Ellipse_28" data-name="Ellipse 28" cx="1.003" cy="2.083" rx="1.003" ry="2.083" transform="matrix(0.967, -0.253, 0.253, 0.967, 0, 0.508)" fill="#046eab"/>
                  <path id="Tracé_4447" data-name="Tracé 4447" d="M218.314,164.791c-.28-1.081-.925-1.858-1.454-1.772a1.846,1.846,0,0,1,.482.84c.179.684.093,1.081.288,1.57a7.784,7.784,0,0,1,.233,1.633h.008C218.407,166.921,218.6,165.9,218.314,164.791Z" transform="translate(-215.855 -162.758)" fill="#046eab"/>
                </g>
              </g>
              <g id="Groupe_616" data-name="Groupe 616" transform="translate(0 9.009)">
                <path id="Tracé_4448" data-name="Tracé 4448" d="M211.477,170.762v.435a.142.142,0,0,1-.124.14l-1.493.132v-.319l1.43-.513a.138.138,0,0,1,.187.132Z" transform="translate(-208.462 -168.46)" fill="#046eab"/>
                <g id="Groupe_615" data-name="Groupe 615" transform="translate(0 0)">
                  <ellipse id="Ellipse_29" data-name="Ellipse 29" cx="1.78" cy="0.855" rx="1.78" ry="0.855" transform="matrix(0.253, -0.967, 0.967, 0.253, 0, 3.444)" fill="#046eab"/>
                  <path id="Tracé_4449" data-name="Tracé 4449" d="M210.406,170.046c-.241.925-.785,1.586-1.236,1.508a1.586,1.586,0,0,0,.412-.715c.155-.583.078-.925.241-1.337a6.651,6.651,0,0,0,.2-1.392h0c.459.117.622.987.373,1.936Z" transform="translate(-208.308 -167.899)" fill="#046eab"/>
                </g>
              </g>
            </g>
            <g id="Groupe_623" data-name="Groupe 623" transform="translate(5.311 15.742)">
              <path id="Tracé_4450" data-name="Tracé 4450" d="M208.81,177.654l.054,1.671.389-.047a.149.149,0,0,0,.132-.163l-.1-1.376a.152.152,0,0,0-.171-.14l-.3.047Z" transform="translate(-207.024 -176.745)" fill="#046eab"/>
              <path id="Tracé_4451" data-name="Tracé 4451" d="M209.291,185.056s-.054-.023-.054-.054l-.327-7.867s.023-.054.047-.054a.052.052,0,0,1,.054.047l.326,7.867s-.023.054-.047.054h0Z" transform="translate(-207.046 -176.629)" fill="#046eab"/>
              <path id="Tracé_4452" data-name="Tracé 4452" d="M207.476,185.058h0a.044.044,0,0,1-.047-.054l.326-7.867s.023-.054.054-.047a.044.044,0,0,1,.047.054l-.327,7.867s-.023.054-.054.054Z" transform="translate(-206.716 -176.631)" fill="#046eab"/>
              <path id="Tracé_4453" data-name="Tracé 4453" d="M207.83,178.687s-.023,0-.031-.016a.037.037,0,0,1,.016-.047l.871-.5-.816-.466s-.023-.031-.016-.047a.037.037,0,0,1,.047-.016l.863.5a.054.054,0,0,1,.016.031.031.031,0,0,1-.016.031l-.925.521h-.016Z" transform="translate(-206.798 -176.744)" fill="#046eab"/>
              <path id="Tracé_4454" data-name="Tracé 4454" d="M207.83,180s-.023,0-.031-.016a.037.037,0,0,1,.016-.047l.871-.5-.816-.466s-.023-.031-.016-.047a.037.037,0,0,1,.047-.016l.863.5a.054.054,0,0,1,.016.031.031.031,0,0,1-.016.031l-.925.521h-.016Z" transform="translate(-206.798 -177.036)" fill="#046eab"/>
              <path id="Tracé_4455" data-name="Tracé 4455" d="M207.74,181.317s-.023,0-.031-.016a.037.037,0,0,1,.016-.047l1.018-.5-.948-.466s-.023-.031-.016-.047a.037.037,0,0,1,.047-.016l1.011.5a.054.054,0,0,1,.016.031c0,.016,0,.023-.016.031l-1.073.521h-.016Z" transform="translate(-206.778 -177.329)" fill="#046eab"/>
              <path id="Tracé_4456" data-name="Tracé 4456" d="M207.691,182.6a.034.034,0,0,1-.031-.023c0-.016,0-.039.016-.039l1.088-.474L207.7,181.6s-.023-.023-.016-.047.023-.023.047-.016l1.135.5s.023.016.016.031,0,.023-.023.031l-1.158.5h-.016Z" transform="translate(-206.768 -177.621)" fill="#046eab"/>
              <path id="Tracé_4457" data-name="Tracé 4457" d="M207.611,183.927a.061.061,0,0,1-.031-.023c0-.016,0-.039.016-.039l1.182-.459-1.135-.443s-.023-.023-.016-.039.023-.023.039-.016l1.213.474s.023.016.023.031-.008.023-.023.031l-1.259.49H207.6Z" transform="translate(-206.75 -177.926)" fill="#046eab"/>
              <path id="Tracé_4458" data-name="Tracé 4458" d="M207.581,185.254a.061.061,0,0,1-.031-.023c0-.016,0-.039.016-.039l1.252-.482-1.2-.466s-.023-.023-.016-.039.023-.023.039-.016l1.283.5s.023.016.023.031-.008.023-.023.031l-1.329.505h-.008Z" transform="translate(-206.743 -178.211)" fill="#046eab"/>
              <path id="Tracé_4459" data-name="Tracé 4459" d="M207.541,186.557a.061.061,0,0,1-.031-.023c0-.016,0-.039.023-.039l1.314-.466-1.3-.466s-.023-.023-.023-.039.023-.023.039-.023l1.376.5s.023.016.023.031-.008.023-.023.031l-1.4.5h-.008Z" transform="translate(-206.734 -178.504)" fill="#046eab"/>
              <g id="Groupe_618" data-name="Groupe 618" transform="translate(0.636)">
                <path id="Tracé_4460" data-name="Tracé 4460" d="M207.983,176.5h0v3.055h0a.652.652,0,0,1-.653-.653v-1.749A.652.652,0,0,1,207.983,176.5Z" transform="translate(-207.33 -176.5)" fill="#046eab"/>
                <rect id="Rectangle_1833" data-name="Rectangle 1833" width="0.326" height="3.055" transform="translate(0.326)" fill="#046eab"/>
              </g>
              <g id="Groupe_620" data-name="Groupe 620" transform="translate(1.919 1.814)">
                <path id="Tracé_4461" data-name="Tracé 4461" d="M208.98,180.107v.187s.023.054.054.062l.637.054v-.132l-.614-.218s-.078.016-.078.054Z" transform="translate(-208.98 -179.106)" fill="#046eab"/>
                <g id="Groupe_619" data-name="Groupe 619" transform="translate(0.207 0)">
                  <ellipse id="Ellipse_30" data-name="Ellipse 30" cx="0.365" cy="0.762" rx="0.365" ry="0.762" transform="matrix(0.967, -0.253, 0.253, 0.967, 0, 0.185)" fill="#046eab"/>
                  <path id="Tracé_4462" data-name="Tracé 4462" d="M210.239,179.615c-.1-.4-.334-.676-.529-.645a.665.665,0,0,1,.179.311,5.724,5.724,0,0,0,.1.575,2.706,2.706,0,0,1,.086.6h0c.194-.054.264-.42.163-.832Z" transform="translate(-209.349 -178.863)" fill="#046eab"/>
                </g>
              </g>
              <g id="Groupe_622" data-name="Groupe 622" transform="translate(0 3.293)">
                <path id="Tracé_4463" data-name="Tracé 4463" d="M207.741,181.794v.155s-.023.047-.047.047l-.544.047v-.117l.521-.187s.07.016.07.047Z" transform="translate(-206.654 -180.959)" fill="#046eab"/>
                <g id="Groupe_621" data-name="Groupe 621" transform="translate(0 0)">
                  <ellipse id="Ellipse_31" data-name="Ellipse 31" cx="0.645" cy="0.311" rx="0.645" ry="0.311" transform="matrix(0.253, -0.967, 0.967, 0.253, 0, 1.248)" fill="#046eab"/>
                  <path id="Tracé_4464" data-name="Tracé 4464" d="M207.351,181.527c-.086.334-.288.575-.451.552a.549.549,0,0,0,.148-.264c.054-.21.031-.334.086-.49a2.476,2.476,0,0,0,.07-.505h0c.163.047.225.358.14.707Z" transform="translate(-206.598 -180.755)" fill="#046eab"/>
                </g>
              </g>
            </g>
            <g id="Groupe_625" data-name="Groupe 625" transform="translate(0 8.87)">
              <path id="Tracé_4465" data-name="Tracé 4465" d="M219.822,180.042s-.054-.023-.054-.054v-.148s.023-.054.054-.054a.053.053,0,0,1,.054.054v.148S219.853,180.042,219.822,180.042Zm0-.435s-.054-.023-.054-.054v-.148s.023-.054.054-.054a.053.053,0,0,1,.054.054v.148S219.853,179.607,219.822,179.607Zm0-.435s-.054-.023-.054-.054v-.148s.023-.054.054-.054a.053.053,0,0,1,.054.054v.148S219.853,179.172,219.822,179.172Zm0-.435s-.054-.023-.054-.054v-.148s.023-.054.054-.054a.053.053,0,0,1,.054.054v.148S219.853,178.737,219.822,178.737Zm0-.435s-.054-.023-.054-.054V178.1s.023-.054.054-.054a.053.053,0,0,1,.054.054v.148S219.853,178.3,219.822,178.3Zm0-.435s-.054-.023-.054-.054v-.148s.023-.054.054-.054a.053.053,0,0,1,.054.054v.148S219.853,177.866,219.822,177.866Zm0-.435s-.054-.023-.054-.054v-.148s.023-.054.054-.054a.053.053,0,0,1,.054.054v.148S219.853,177.43,219.822,177.43Zm0-.435s-.054-.023-.054-.054v-.148s.023-.054.054-.054a.053.053,0,0,1,.054.054v.148S219.853,177,219.822,177Zm0-.435s-.054-.023-.054-.054v-.148s.023-.054.054-.054a.053.053,0,0,1,.054.054v.148S219.853,176.56,219.822,176.56Zm0-.435s-.054-.023-.054-.054v-.148s.023-.054.054-.054a.053.053,0,0,1,.054.054v.148S219.853,176.125,219.822,176.125Zm0-.435s-.054-.023-.054-.054v-.148s.023-.054.054-.054a.053.053,0,0,1,.054.054v.148S219.853,175.689,219.822,175.689Zm0-.435s-.054-.023-.054-.054v-.148s.023-.054.054-.054a.053.053,0,0,1,.054.054v.148S219.853,175.254,219.822,175.254Zm0-.435s-.054-.023-.054-.054v-.148s.023-.054.054-.054a.053.053,0,0,1,.054.054v.148S219.853,174.819,219.822,174.819Zm0-.435s-.054-.023-.054-.054v-.148s.023-.054.054-.054a.053.053,0,0,1,.054.054v.148S219.853,174.383,219.822,174.383Zm0-.435s-.054-.023-.054-.054v-.148s.023-.054.054-.054a.053.053,0,0,1,.054.054v.148S219.853,173.948,219.822,173.948Zm0-.435s-.054-.023-.054-.054v-.148s.023-.054.054-.054a.053.053,0,0,1,.054.054v.148S219.853,173.513,219.822,173.513Zm0-.435s-.054-.023-.054-.054v-.148s.023-.054.054-.054a.053.053,0,0,1,.054.054v.148S219.853,173.077,219.822,173.077Zm0-.435s-.054-.023-.054-.054v-.148s.023-.054.054-.054a.053.053,0,0,1,.054.054v.148S219.853,172.642,219.822,172.642Zm0-.435s-.054-.023-.054-.054V172s.023-.054.054-.054a.053.053,0,0,1,.054.054v.148S219.853,172.207,219.822,172.207Zm-.218-.218h-.148s-.054-.023-.054-.054a.053.053,0,0,1,.054-.054h.148s.054.023.054.054A.053.053,0,0,1,219.6,171.989Zm-.435,0h-.148s-.054-.023-.054-.054a.053.053,0,0,1,.054-.054h.148s.054.023.054.054A.053.053,0,0,1,219.169,171.989Zm-.435,0h-.148s-.054-.023-.054-.054a.053.053,0,0,1,.054-.054h.148s.054.023.054.054A.053.053,0,0,1,218.733,171.989Zm-.435,0h-.148s-.054-.023-.054-.054a.053.053,0,0,1,.054-.054h.148s.054.023.054.054A.053.053,0,0,1,218.3,171.989Zm-.435,0h-.148s-.054-.023-.054-.054a.053.053,0,0,1,.054-.054h.148s.054.023.054.054A.053.053,0,0,1,217.863,171.989Zm-.435,0h-.148s-.054-.023-.054-.054a.053.053,0,0,1,.054-.054h.148s.054.023.054.054A.053.053,0,0,1,217.427,171.989Zm-.435,0h-.148s-.054-.023-.054-.054a.053.053,0,0,1,.054-.054h.148s.054.023.054.054A.053.053,0,0,1,216.992,171.989Z" transform="translate(-203.489 -168.599)" fill="#046eab"/>
              <ellipse id="Ellipse_32" data-name="Ellipse 32" cx="0.342" cy="0.342" rx="0.342" ry="0.342" transform="translate(13.013 3.008)" fill="#046eab"/>
              <ellipse id="Ellipse_33" data-name="Ellipse 33" cx="0.342" cy="0.342" rx="0.342" ry="0.342" transform="translate(5.504 1.967)" fill="#046eab"/>
              <path id="Tracé_4466" data-name="Tracé 4466" d="M205.444,182.978s-.054-.023-.054-.054v-.148s.023-.054.054-.054a.053.053,0,0,1,.054.054v.148S205.476,182.978,205.444,182.978Zm0-.435s-.054-.023-.054-.054v-.148s.023-.054.054-.054a.053.053,0,0,1,.054.054v.148S205.476,182.543,205.444,182.543Zm0-.435s-.054-.023-.054-.054v-.148s.023-.054.054-.054a.053.053,0,0,1,.054.054v.148S205.476,182.107,205.444,182.107Zm0-.435s-.054-.023-.054-.054v-.148s.023-.054.054-.054a.053.053,0,0,1,.054.054v.148S205.476,181.672,205.444,181.672Zm0-.435s-.054-.023-.054-.054v-.148s.023-.054.054-.054a.053.053,0,0,1,.054.054v.148S205.476,181.237,205.444,181.237Zm0-.435s-.054-.023-.054-.054V180.6s.023-.054.054-.054a.053.053,0,0,1,.054.054v.148S205.476,180.8,205.444,180.8Zm0-.435s-.054-.023-.054-.054v-.148s.023-.054.054-.054a.053.053,0,0,1,.054.054v.148S205.476,180.366,205.444,180.366Zm0-.435s-.054-.023-.054-.054v-.148s.023-.054.054-.054a.053.053,0,0,1,.054.054v.148S205.476,179.931,205.444,179.931Zm0-.435s-.054-.023-.054-.054v-.148s.023-.054.054-.054a.053.053,0,0,1,.054.054v.148S205.476,179.5,205.444,179.5Zm0-.435s-.054-.023-.054-.054v-.148s.023-.054.054-.054a.053.053,0,0,1,.054.054v.148S205.476,179.06,205.444,179.06Zm0-.435s-.054-.023-.054-.054v-.148s.023-.054.054-.054a.053.053,0,0,1,.054.054v.148S205.476,178.625,205.444,178.625Zm0-.435s-.054-.023-.054-.054v-.148s.023-.054.054-.054a.053.053,0,0,1,.054.054v.148S205.476,178.189,205.444,178.189Zm0-.435s-.054-.023-.054-.054v-.148s.023-.054.054-.054a.053.053,0,0,1,.054.054v.148S205.476,177.754,205.444,177.754Zm0-.435s-.054-.023-.054-.054v-.148s.023-.054.054-.054a.053.053,0,0,1,.054.054v.148S205.476,177.319,205.444,177.319Zm0-.435s-.054-.023-.054-.054v-.148s.023-.054.054-.054a.053.053,0,0,1,.054.054v.148S205.476,176.883,205.444,176.883Zm0-.435s-.054-.023-.054-.054v-.148s.023-.054.054-.054a.053.053,0,0,1,.054.054v.148S205.476,176.448,205.444,176.448Zm0-.435s-.054-.023-.054-.054v-.148s.023-.054.054-.054a.053.053,0,0,1,.054.054v.148S205.476,176.013,205.444,176.013Zm0-.435s-.054-.023-.054-.054v-.148s.023-.054.054-.054a.053.053,0,0,1,.054.054v.148S205.476,175.577,205.444,175.577Zm0-.435s-.054-.023-.054-.054v-.148s.023-.054.054-.054a.053.053,0,0,1,.054.054v.148S205.476,175.142,205.444,175.142Zm0-.435s-.054-.023-.054-.054V174.5s.023-.054.054-.054a.053.053,0,0,1,.054.054v.148S205.476,174.707,205.444,174.707Zm0-.435s-.054-.023-.054-.054v-.148s.023-.054.054-.054a.053.053,0,0,1,.054.054v.148S205.476,174.271,205.444,174.271Zm0-.435s-.054-.023-.054-.054v-.148s.023-.054.054-.054a.053.053,0,0,1,.054.054v.148S205.476,173.836,205.444,173.836Zm0-.435s-.054-.023-.054-.054V173.2s.023-.054.054-.054a.053.053,0,0,1,.054.054v.148S205.476,173.4,205.444,173.4Zm0-.435s-.054-.023-.054-.054v-.148s.023-.054.054-.054a.053.053,0,0,1,.054.054v.148S205.476,172.965,205.444,172.965Zm0-.435s-.054-.023-.054-.054v-.148s.023-.054.054-.054a.053.053,0,0,1,.054.054v.148S205.476,172.53,205.444,172.53Zm0-.435s-.054-.023-.054-.054v-.148s.023-.054.054-.054a.053.053,0,0,1,.054.054v.148S205.476,172.095,205.444,172.095Zm0-.435s-.054-.023-.054-.054v-.148s.023-.054.054-.054a.053.053,0,0,1,.054.054v.148S205.476,171.659,205.444,171.659Zm0-.435s-.054-.023-.054-.054v-.148s.023-.054.054-.054a.053.053,0,0,1,.054.054v.148S205.476,171.224,205.444,171.224Zm0-.435s-.054-.023-.054-.054v-.14s.023-.054.054-.054h.008s.054.023.054.054a.047.047,0,0,1-.008.031v.109S205.476,170.789,205.444,170.789Zm1.314-.14h-.148s-.054-.023-.054-.054a.053.053,0,0,1,.054-.054h.148s.054.023.054.054A.053.053,0,0,1,206.758,170.649Zm-.435,0h-.148s-.054-.023-.054-.054a.053.053,0,0,1,.054-.054h.148s.054.023.054.054A.053.053,0,0,1,206.323,170.649Zm-.435,0h-.148s-.054-.023-.054-.054a.053.053,0,0,1,.054-.054h.148s.054.023.054.054A.053.053,0,0,1,205.887,170.649Z" transform="translate(-200.951 -168.301)" fill="#046eab"/>
              <ellipse id="Ellipse_34" data-name="Ellipse 34" cx="0.342" cy="0.342" rx="0.342" ry="0.342" transform="translate(6.118)" fill="#046eab"/>
              <path id="Tracé_4467" data-name="Tracé 4467" d="M199.734,178.227s-.054-.023-.054-.054v-.148s.023-.054.054-.054a.053.053,0,0,1,.054.054v.148S199.765,178.227,199.734,178.227Zm0-.435s-.054-.023-.054-.054v-.148s.023-.054.054-.054a.053.053,0,0,1,.054.054v.148S199.765,177.792,199.734,177.792Zm0-.435s-.054-.023-.054-.054v-.148s.023-.054.054-.054a.053.053,0,0,1,.054.054v.148S199.765,177.356,199.734,177.356Zm0-.435s-.054-.023-.054-.054v-.148s.023-.054.054-.054a.053.053,0,0,1,.054.054v.148S199.765,176.921,199.734,176.921Zm0-.435s-.054-.023-.054-.054v-.148s.023-.054.054-.054a.053.053,0,0,1,.054.054v.148S199.765,176.486,199.734,176.486Zm0-.435s-.054-.023-.054-.054v-.148s.023-.054.054-.054a.053.053,0,0,1,.054.054V176S199.765,176.05,199.734,176.05Zm0-.435s-.054-.023-.054-.054v-.148s.023-.054.054-.054a.053.053,0,0,1,.054.054v.148S199.765,175.615,199.734,175.615Zm0-.435s-.054-.023-.054-.054v-.148s.023-.054.054-.054a.053.053,0,0,1,.054.054v.148S199.765,175.18,199.734,175.18Zm0-.435s-.054-.023-.054-.054v-.148s.023-.054.054-.054a.053.053,0,0,1,.054.054v.148S199.765,174.744,199.734,174.744Zm0-.435s-.054-.023-.054-.054v-.148s.023-.054.054-.054a.053.053,0,0,1,.054.054v.148S199.765,174.309,199.734,174.309Zm0-.435s-.054-.023-.054-.054v-.148s.023-.054.054-.054a.053.053,0,0,1,.054.054v.148S199.765,173.874,199.734,173.874Zm0-.435s-.054-.023-.054-.054v-.148s.023-.054.054-.054a.053.053,0,0,1,.054.054v.148S199.765,173.438,199.734,173.438Zm0-.435s-.054-.023-.054-.054V172.8s.023-.054.054-.054a.053.053,0,0,1,.054.054v.148S199.765,173,199.734,173Zm0-.435s-.054-.023-.054-.054v-.148s.023-.054.054-.054a.053.053,0,0,1,.054.054v.148S199.765,172.568,199.734,172.568Zm0-.435s-.054-.023-.054-.054v-.148s.023-.054.054-.054a.053.053,0,0,1,.054.054v.148S199.765,172.132,199.734,172.132Zm0-.435s-.054-.023-.054-.054v-.148s.023-.054.054-.054a.053.053,0,0,1,.054.054v.148S199.765,171.7,199.734,171.7Zm0-.435s-.054-.023-.054-.054v-.148s.023-.054.054-.054a.053.053,0,0,1,.054.054v.148S199.765,171.262,199.734,171.262Zm0-.435s-.054-.023-.054-.054v-.148s.023-.054.054-.054a.053.053,0,0,1,.054.054v.148S199.765,170.826,199.734,170.826Zm0-.435s-.054-.023-.054-.054v-.148s.023-.054.054-.054a.053.053,0,0,1,.054.054v.148S199.765,170.391,199.734,170.391Zm0-.435s-.054-.023-.054-.054v-.148s.023-.054.054-.054a.053.053,0,0,1,.054.054v.148S199.765,169.956,199.734,169.956Zm0-.435s-.054-.023-.054-.054v-.148s.023-.054.054-.054a.053.053,0,0,1,.054.054v.148S199.765,169.52,199.734,169.52Zm0-.435s-.054-.023-.054-.054v-.148s.023-.054.054-.054a.053.053,0,0,1,.054.054v.148S199.765,169.085,199.734,169.085Zm0-.435s-.054-.023-.054-.054v-.148s.023-.054.054-.054a.053.053,0,0,1,.054.054v.148S199.765,168.65,199.734,168.65Zm0-.435s-.054-.023-.054-.054v-.086s.023-.054.054-.054h.054s.054.023.054.054a.053.053,0,0,1-.054.054h0v.039s-.023.054-.054.054Zm6.149-.086h-.148s-.054-.023-.054-.054a.053.053,0,0,1,.054-.054h.148s.054.023.054.054A.053.053,0,0,1,205.883,168.129Zm-.435,0H205.3s-.054-.023-.054-.054a.053.053,0,0,1,.054-.054h.148s.054.023.054.054A.053.053,0,0,1,205.448,168.129Zm-.435,0h-.148s-.054-.023-.054-.054a.053.053,0,0,1,.054-.054h.148s.054.023.054.054A.053.053,0,0,1,205.013,168.129Zm-.435,0h-.148s-.054-.023-.054-.054a.053.053,0,0,1,.054-.054h.148s.054.023.054.054A.053.053,0,0,1,204.577,168.129Zm-.435,0h-.148s-.054-.023-.054-.054a.053.053,0,0,1,.054-.054h.148s.054.023.054.054A.053.053,0,0,1,204.142,168.129Zm-.435,0h-.148s-.054-.023-.054-.054a.053.053,0,0,1,.054-.054h.148s.054.023.054.054A.053.053,0,0,1,203.707,168.129Zm-.435,0h-.148s-.054-.023-.054-.054a.053.053,0,0,1,.054-.054h.148s.054.023.054.054A.053.053,0,0,1,203.271,168.129Zm-.435,0h-.148s-.054-.023-.054-.054a.053.053,0,0,1,.054-.054h.148s.054.023.054.054A.053.053,0,0,1,202.836,168.129Zm-.435,0h-.148s-.054-.023-.054-.054a.053.053,0,0,1,.054-.054h.148s.054.023.054.054A.053.053,0,0,1,202.4,168.129Zm-.435,0h-.148s-.054-.023-.054-.054a.053.053,0,0,1,.054-.054h.148s.054.023.054.054A.053.053,0,0,1,201.965,168.129Zm-.435,0h-.148s-.054-.023-.054-.054a.053.053,0,0,1,.054-.054h.148s.054.023.054.054A.053.053,0,0,1,201.53,168.129Zm-.435,0h-.148s-.054-.023-.054-.054a.053.053,0,0,1,.054-.054h.148s.054.023.054.054A.053.053,0,0,1,201.095,168.129Zm-.435,0h-.148s-.054-.023-.054-.054a.053.053,0,0,1,.054-.054h.148s.054.023.054.054A.053.053,0,0,1,200.66,168.129Zm-.435,0h-.148s-.054-.023-.054-.054a.053.053,0,0,1,.054-.054h.148s.054.023.054.054A.053.053,0,0,1,200.224,168.129Z" transform="translate(-199.68 -167.74)" fill="#046eab"/>
              <g id="Groupe_624" data-name="Groupe 624" transform="translate(15.182 0.925)">
                <ellipse id="Ellipse_35" data-name="Ellipse 35" cx="0.342" cy="0.342" rx="0.342" ry="0.342" fill="#046eab"/>
                <path id="Tracé_4468" data-name="Tracé 4468" d="M228.615,179.059s-.054-.023-.054-.054v-.148s.023-.054.054-.054a.053.053,0,0,1,.054.054v.148S228.647,179.059,228.615,179.059Zm0-.435s-.054-.023-.054-.054v-.148s.023-.054.054-.054a.053.053,0,0,1,.054.054v.148S228.647,178.624,228.615,178.624Zm0-.435s-.054-.023-.054-.054v-.148s.023-.054.054-.054a.053.053,0,0,1,.054.054v.148S228.647,178.189,228.615,178.189Zm0-.435s-.054-.023-.054-.054v-.148s.023-.054.054-.054a.053.053,0,0,1,.054.054v.148S228.647,177.753,228.615,177.753Zm0-.435s-.054-.023-.054-.054v-.148s.023-.054.054-.054a.053.053,0,0,1,.054.054v.148S228.647,177.318,228.615,177.318Zm0-.435s-.054-.023-.054-.054v-.148s.023-.054.054-.054a.053.053,0,0,1,.054.054v.148S228.647,176.883,228.615,176.883Zm0-.435s-.054-.023-.054-.054v-.148s.023-.054.054-.054a.053.053,0,0,1,.054.054v.148S228.647,176.447,228.615,176.447Zm0-.435s-.054-.023-.054-.054v-.148s.023-.054.054-.054a.053.053,0,0,1,.054.054v.148S228.647,176.012,228.615,176.012Zm0-.435s-.054-.023-.054-.054v-.148s.023-.054.054-.054a.053.053,0,0,1,.054.054v.148S228.647,175.577,228.615,175.577Zm0-.435s-.054-.023-.054-.054v-.148s.023-.054.054-.054a.053.053,0,0,1,.054.054v.148S228.647,175.141,228.615,175.141Zm0-.435s-.054-.023-.054-.054V174.5s.023-.054.054-.054a.053.053,0,0,1,.054.054v.148S228.647,174.706,228.615,174.706Zm0-.435s-.054-.023-.054-.054v-.148s.023-.054.054-.054a.053.053,0,0,1,.054.054v.148S228.647,174.271,228.615,174.271Zm0-.435s-.054-.023-.054-.054v-.148s.023-.054.054-.054a.053.053,0,0,1,.054.054v.148S228.647,173.835,228.615,173.835Zm0-.435s-.054-.023-.054-.054V173.2s.023-.054.054-.054a.053.053,0,0,1,.054.054v.148S228.647,173.4,228.615,173.4Zm0-.435s-.054-.023-.054-.054v-.148s.023-.054.054-.054a.053.053,0,0,1,.054.054v.148S228.647,172.965,228.615,172.965Zm0-.435s-.054-.023-.054-.054v-.148s.023-.054.054-.054a.053.053,0,0,1,.054.054v.148S228.647,172.529,228.615,172.529Zm0-.435s-.054-.023-.054-.054v-.148s.023-.054.054-.054a.053.053,0,0,1,.054.054v.148S228.647,172.094,228.615,172.094Zm0-.435s-.054-.023-.054-.054v-.148s.023-.054.054-.054a.053.053,0,0,1,.054.054v.148S228.647,171.659,228.615,171.659Zm0-.435s-.054-.023-.054-.054v-.148s.023-.054.054-.054a.053.053,0,0,1,.054.054v.148S228.647,171.223,228.615,171.223Zm0-.435s-.054-.023-.054-.054v-.148s.023-.054.054-.054a.053.053,0,0,1,.054.054v.148S228.647,170.788,228.615,170.788Zm0-.435s-.054-.023-.054-.054v-.148s.023-.054.054-.054a.053.053,0,0,1,.054.054v.148S228.647,170.353,228.615,170.353Zm0-.435s-.054-.023-.054-.054v-.148s.023-.054.054-.054a.053.053,0,0,1,.054.054v.148S228.647,169.917,228.615,169.917Zm0-.435s-.054-.023-.054-.054v-.148s.023-.054.054-.054a.053.053,0,0,1,.054.054v.148S228.647,169.482,228.615,169.482Zm-.272-.163H228.2s-.054-.023-.054-.054a.053.053,0,0,1,.054-.054h.148s.054.023.054.054A.053.053,0,0,1,228.343,169.319Zm-.435,0h-.148s-.054-.023-.054-.054a.053.053,0,0,1,.054-.054h.148s.054.023.054.054A.053.053,0,0,1,227.908,169.319Zm-.435,0h-.148s-.054-.023-.054-.054a.053.053,0,0,1,.054-.054h.148s.054.023.054.054A.053.053,0,0,1,227.473,169.319Zm-.435,0h-.148s-.054-.023-.054-.054a.053.053,0,0,1,.054-.054h.148s.054.023.054.054A.053.053,0,0,1,227.037,169.319Zm-.435,0h-.148s-.054-.023-.054-.054a.053.053,0,0,1,.054-.054h.148s.054.023.054.054A.053.053,0,0,1,226.6,169.319Zm-.435,0h-.148s-.054-.023-.054-.054a.053.053,0,0,1,.054-.054h.148s.054.023.054.054A.053.053,0,0,1,226.167,169.319Zm-.435,0h-.148s-.054-.023-.054-.054a.053.053,0,0,1,.054-.054h.148s.054.023.054.054A.053.053,0,0,1,225.731,169.319Zm-.435,0h-.148s-.054-.023-.054-.054a.053.053,0,0,1,.054-.054h.148s.054.023.054.054A.053.053,0,0,1,225.3,169.319Zm-.435,0h-.148s-.054-.023-.054-.054a.053.053,0,0,1,.054-.054h.148s.054.023.054.054A.053.053,0,0,1,224.861,169.319Zm-.435,0h-.148s-.054-.023-.054-.054a.053.053,0,0,1,.054-.054h.148s.054.023.054.054A.053.053,0,0,1,224.425,169.319Zm-.435,0h-.148s-.054-.023-.054-.054a.053.053,0,0,1,.054-.054h.148s.054.023.054.054A.053.053,0,0,1,223.99,169.319Zm-.435,0h-.148s-.054-.023-.054-.054a.053.053,0,0,1,.054-.054h.148s.054.023.054.054A.053.053,0,0,1,223.555,169.319Zm-.435,0h-.148s-.054-.023-.054-.054a.053.053,0,0,1,.054-.054h.148s.054.023.054.054A.053.053,0,0,1,223.119,169.319Zm-.435,0h-.148s-.054-.023-.054-.054a.053.053,0,0,1,.054-.054h.148s.054.023.054.054A.053.053,0,0,1,222.684,169.319Zm-.435,0H222.1s-.054-.023-.054-.054a.053.053,0,0,1,.054-.054h.148s.054.023.054.054A.053.053,0,0,1,222.249,169.319Zm-.435,0h-.148s-.054-.023-.054-.054a.053.053,0,0,1,.054-.054h.148s.054.023.054.054A.053.053,0,0,1,221.813,169.319Zm-.435,0h-.148s-.054-.023-.054-.054a.053.053,0,0,1,.054-.054h.148s.054.023.054.054A.053.053,0,0,1,221.378,169.319Zm-.435,0H220.8s-.054-.023-.054-.054a.053.053,0,0,1,.054-.054h.148s.054.023.054.054A.053.053,0,0,1,220.943,169.319Zm-.435,0h-.148s-.054-.023-.054-.054a.053.053,0,0,1,.054-.054h.148s.054.023.054.054A.053.053,0,0,1,220.507,169.319Zm-.435,0h-.148s-.054-.023-.054-.054a.053.053,0,0,1,.054-.054h.148s.054.023.054.054A.053.053,0,0,1,220.072,169.319Z" transform="translate(-219.357 -168.93)" fill="#046eab"/>
              </g>
            </g>
            <g id="Groupe_626" data-name="Groupe 626" transform="translate(15.525 4.762)">
              <path id="Tracé_4469" data-name="Tracé 4469" d="M219.7,166.382a.2.2,0,0,1,.062-.14,1.191,1.191,0,0,0,.389-.948,1.157,1.157,0,0,0-.428-.925.177.177,0,1,1,.218-.28,1.63,1.63,0,0,1,.047,2.418.174.174,0,0,1-.249-.023.186.186,0,0,1-.039-.109Z" transform="translate(-219.651 -162.749)" fill="#046eab"/>
              <path id="Tracé_4470" data-name="Tracé 4470" d="M220.857,166.9a.171.171,0,0,1,.054-.132,2.453,2.453,0,0,0-.07-3.374.177.177,0,0,1,.225-.272,2.8,2.8,0,0,1,.078,3.9.174.174,0,0,1-.249-.016.158.158,0,0,1-.047-.117Z" transform="translate(-219.901 -162.532)" fill="#046eab"/>
              <path id="Tracé_4471" data-name="Tracé 4471" d="M222.345,167.238a.158.158,0,0,1,.047-.117,3.831,3.831,0,0,0-.086-4.447.176.176,0,0,1,.249-.249,4.177,4.177,0,0,1,.1,4.929.181.181,0,0,1-.249.016.192.192,0,0,1-.062-.124Z" transform="translate(-220.231 -162.376)" fill="#046eab"/>
            </g>
            <g id="Groupe_627" data-name="Groupe 627" transform="translate(3.317 1.319)">
              <path id="Tracé_4472" data-name="Tracé 4472" d="M208.2,163.027a.2.2,0,0,0-.047-.171,1.377,1.377,0,0,1-.28-1.151,1.392,1.392,0,0,1,.645-1,.205.205,0,1,0-.2-.358,1.894,1.894,0,0,0-.474,2.775.2.2,0,0,0,.288.016.174.174,0,0,0,.062-.117Z" transform="translate(-204.723 -158.477)" fill="#046eab"/>
              <path id="Tracé_4473" data-name="Tracé 4473" d="M206.641,163.411a.187.187,0,0,0-.047-.163,2.85,2.85,0,0,1,.661-3.856.2.2,0,1,0-.21-.35,3.011,3.011,0,0,0-1.29,2.076,2.974,2.974,0,0,0,.529,2.387.208.208,0,0,0,.288.031A.2.2,0,0,0,206.641,163.411Z" transform="translate(-204.338 -158.185)" fill="#046eab"/>
              <path id="Tracé_4474" data-name="Tracé 4474" d="M204.836,163.546a.207.207,0,0,0-.031-.148,4.43,4.43,0,0,1,.871-5.084.205.205,0,0,0-.249-.327,4.837,4.837,0,0,0-.956,5.636.2.2,0,0,0,.365-.07Z" transform="translate(-203.947 -157.947)" fill="#046eab"/>
            </g>
          </g>
        </g>
        <text id="User_Connection_Resource_Performance" data-name="User Connection Resource Performance" transform="translate(2427.695 1933)" font-size="16" font-family="SegoeUI, Segoe UI"><tspan x="0" y="0">User Connection Resource Performance</tspan></text>
        <g id="Groupe_1938" data-name="Groupe 1938" transform="translate(1902 1112)">
          <path id="Icon_awesome-broadcast-tower" data-name="Icon awesome-broadcast-tower" d="M5.024,6.39H6.146a.524.524,0,0,0,.495-.7,4.167,4.167,0,0,1,0-2.85.524.524,0,0,0-.495-.7H5.024a.531.531,0,0,0-.513.374,6.274,6.274,0,0,0,0,3.512A.531.531,0,0,0,5.024,6.39ZM2.993.777A.527.527,0,0,0,2.528,0H1.352A.539.539,0,0,0,.862.31,9.508,9.508,0,0,0,0,4.26,9.275,9.275,0,0,0,.888,8.216a.536.536,0,0,0,.486.3h1.16A.527.527,0,0,0,3,7.742,7.423,7.423,0,0,1,2.993.777ZM20.437.309A.538.538,0,0,0,19.947,0H18.768A.526.526,0,0,0,18.3.774a7.464,7.464,0,0,1,.009,6.964.528.528,0,0,0,.463.783h1.173a.538.538,0,0,0,.49-.309,9.469,9.469,0,0,0,0-7.9ZM16.277,2.13H15.154a.524.524,0,0,0-.495.7,4.167,4.167,0,0,1,0,2.85.524.524,0,0,0,.495.7h1.123a.531.531,0,0,0,.513-.374,6.273,6.273,0,0,0,0-3.512A.53.53,0,0,0,16.277,2.13ZM12.406,5.462a2.129,2.129,0,1,0-3.512,0L4.551,15.893a.533.533,0,0,0,.287.7L5.82,17a.532.532,0,0,0,.7-.287L8.153,12.78h4.995l1.637,3.932a.532.532,0,0,0,.7.287l.982-.41a.533.533,0,0,0,.287-.7L12.406,5.462ZM9.04,10.65l1.61-3.867,1.61,3.867Z" transform="translate(108.367 954)" fill="#036eab"/>
          <text id="Neighbor_Cell_UL_DL_Coverage_vs_Quality" data-name="Neighbor Cell UL/DL Coverage vs Quality" transform="translate(144.888 969)" font-size="16" font-family="SegoeUI, Segoe UI"><tspan x="0" y="0">Neighbor Cell UL/DL Coverage vs Quality</tspan></text>
        </g>
        <text id="Service_Signaling_Performance_Auth_Discov_Registr_" data-name="Service Signaling Performance (Auth, Discov, Registr, …)" transform="translate(2427.695 2081)" font-size="16" font-family="SegoeUI, Segoe UI"><tspan x="0" y="0">Service Signaling Performance (Auth, Discov, Registr, …)</tspan></text>
        <g id="Groupe_1937" data-name="Groupe 1937" transform="translate(1902 1111.628)">
          <g id="Groupe_643" data-name="Groupe 643" transform="translate(110.734 990.807)">
            <path id="Tracé_4794" data-name="Tracé 4794" d="M572.574,58.954l-.694-.446,5.626-3.638,4.888,3.164,4.413-2.857.694.446-5.107,3.3-4.888-3.164-4.939,3.193Z" transform="translate(-571.376 -45.708)" fill="#036eab"/>
            <path id="Tracé_4795" data-name="Tracé 4795" d="M592.155,54.23a1,1,0,1,0,1.235.972A1.126,1.126,0,0,0,592.155,54.23Z" transform="translate(-576.505 -45.536)" fill="#036eab"/>
            <path id="Tracé_4796" data-name="Tracé 4796" d="M585.945,58.28a1,1,0,1,0,1.235.972A1.126,1.126,0,0,0,585.945,58.28Z" transform="translate(-574.832 -46.627)" fill="#036eab"/>
            <path id="Tracé_4797" data-name="Tracé 4797" d="M579.035,54a1,1,0,1,0,1.235.972A1.126,1.126,0,0,0,579.035,54Z" transform="translate(-572.971 -45.474)" fill="#036eab"/>
            <path id="Tracé_4798" data-name="Tracé 4798" d="M572.534,58.76a1,1,0,1,0,1.235.972A1.126,1.126,0,0,0,572.534,58.76Z" transform="translate(-571.22 -46.756)" fill="#036eab"/>
            <path id="Tracé_4799" data-name="Tracé 4799" d="M571.31,62.15h2.513v3.478H571.31Z" transform="translate(-571.222 -47.669)" fill="#036eab"/>
            <path id="Tracé_4800" data-name="Tracé 4800" d="M578.2,59.77h2.513v5.216H578.2Z" transform="translate(-573.078 -47.028)" fill="#036eab"/>
            <path id="Tracé_4801" data-name="Tracé 4801" d="M584.74,62.15h2.484v3.478H584.74Z" transform="translate(-574.84 -47.669)" fill="#036eab"/>
            <path id="Tracé_4802" data-name="Tracé 4802" d="M591.46,58.76h2.484v5.954H591.46Z" transform="translate(-576.651 -46.756)" fill="#036eab"/>
            <g id="Groupe_641" data-name="Groupe 641" transform="translate(0 1.288)">
              <path id="Tracé_4803" data-name="Tracé 4803" d="M571.8,45.676a1.491,1.491,0,0,1,.621-1.176.2.2,0,0,0,0-.336.362.362,0,0,0-.431,0,1.911,1.911,0,0,0-.8,1.512,1.932,1.932,0,0,0,.8,1.512.362.362,0,0,0,.431,0,.2.2,0,0,0,0-.336A1.491,1.491,0,0,1,571.8,45.676Zm5.143-1.512a.362.362,0,0,0-.431,0,.2.2,0,0,0,0,.336,1.424,1.424,0,0,1,0,2.353.2.2,0,0,0,0,.336.362.362,0,0,0,.431,0,1.91,1.91,0,0,0,.8-1.512A1.932,1.932,0,0,0,576.94,44.164Zm-3.982,1.512a.847.847,0,0,1,.358-.672.2.2,0,0,0,0-.336.362.362,0,0,0-.431,0,1.22,1.22,0,0,0,0,2.016.362.362,0,0,0,.431,0,.2.2,0,0,0,0-.336.868.868,0,0,1-.358-.672Zm3.083-1.008a.362.362,0,0,0-.431,0,.2.2,0,0,0,0,.336.868.868,0,0,1,.358.672.837.837,0,0,1-.358.672.2.2,0,0,0,0,.336.362.362,0,0,0,.431,0,1.22,1.22,0,0,0,0-2.016Zm1.118,5.173L574.9,46.3a.713.713,0,0,0,.475-.628.931.931,0,0,0-1.812,0,.713.713,0,0,0,.475.628l-2.258,3.536a.221.221,0,0,0,.132.321.37.37,0,0,0,.38-.066l2.184-3.412.57.884.307.475.095.153.387.606.307.475.336.519.161.248a.349.349,0,0,0,.409.11.216.216,0,0,0,.132-.321Zm-2.674-3.923h-.044a.267.267,0,0,1-.278-.234.285.285,0,0,1,.3-.241.279.279,0,0,1,.3.241.262.262,0,0,1-.278.234Z" transform="translate(-571.19 -44.092)" fill="#036eab"/>
              <path id="Tracé_4804" data-name="Tracé 4804" d="M576.916,51.638l-2.214-1.4-2.221,1.41-.431-.175,2.652-1.68,2.652,1.68Z" transform="translate(-571.422 -45.627)" fill="#036eab"/>
            </g>
            <g id="Groupe_642" data-name="Groupe 642" transform="translate(7.372)">
              <path id="Tracé_4805" data-name="Tracé 4805" d="M583.07,51.841h.65V50.27l-.65.475Z" transform="translate(-581.762 -44.469)" fill="#036eab"/>
              <path id="Tracé_4806" data-name="Tracé 4806" d="M581.28,52.045v.146h.65V51.57l-.606.438Z" transform="translate(-581.28 -44.819)" fill="#036eab"/>
              <path id="Tracé_4807" data-name="Tracé 4807" d="M584.89,51.485h.65V48.95l-.65.468Z" transform="translate(-582.253 -44.113)" fill="#036eab"/>
              <path id="Tracé_4808" data-name="Tracé 4808" d="M588.51,50.777h.65V46.32l-.65.468Z" transform="translate(-583.228 -43.405)" fill="#036eab"/>
              <path id="Tracé_4809" data-name="Tracé 4809" d="M586.72,51.124h.658V47.61l-.658.475Z" transform="translate(-582.746 -43.752)" fill="#036eab"/>
              <path id="Tracé_4810" data-name="Tracé 4810" d="M590.33,50.421h.65V45l-.65.468Z" transform="translate(-583.718 -43.049)" fill="#036eab"/>
              <path id="Tracé_4811" data-name="Tracé 4811" d="M592.18,50.057h.65V43.65l-.65.475Z" transform="translate(-584.216 -42.686)" fill="#036eab"/>
              <path id="Tracé_4812" data-name="Tracé 4812" d="M594,42.8v6.9h.65V42.33Z" transform="translate(-584.707 -42.33)" fill="#036eab"/>
            </g>
          </g>
          <text id="RAN_UE_Low_Throughput_Performance" data-name="RAN UE Low Throughput Performance" transform="translate(144.888 1007.372)" font-size="16" font-family="SegoeUI, Segoe UI"><tspan x="0" y="0">RAN UE Low Throughput Performance</tspan></text>
        </g>
        <text id="User_Resource_Allocation_Problems" data-name="User Resource Allocation Problems" transform="translate(2427.695 2118)" font-size="16" font-family="SegoeUI, Segoe UI"><tspan x="0" y="0">User Resource Allocation Problems</tspan></text>
        <g id="Groupe_605" data-name="Groupe 605" transform="translate(2388.58 2102.709)">
          <path id="Tracé_4159" data-name="Tracé 4159" d="M757.044,54.439v.022H755.71a.341.341,0,0,1-.239-.1l-.892-.892a.329.329,0,0,1-.1-.239v-.754a.927.927,0,1,0-1.226-.877.933.933,0,0,0,.631.877v.754a.916.916,0,0,0,.268.653l.892.892a.916.916,0,0,0,.653.268H757a5.662,5.662,0,0,1-.2.986h-2a.613.613,0,0,0-.609.609v2.727a5.5,5.5,0,0,1-.986.45v-3.88a.927.927,0,1,0-1.226-.877.933.933,0,0,0,.631.877v4.046a5.664,5.664,0,0,1-.986.138V56.9a.916.916,0,0,0-.268-.653l-.892-.892a.329.329,0,0,1-.1-.239V54.04a.927.927,0,1,0-1.226-.877.933.933,0,0,0,.631.877v1.073a.915.915,0,0,0,.268.653l.892.892a.329.329,0,0,1,.1.239v3.22a5.571,5.571,0,0,1-.986-.138V57.528a.916.916,0,0,0-.268-.653l-1.842-1.842a.916.916,0,0,0-.653-.268h-1.639v-.051a5.658,5.658,0,0,1,.138-1.566h1.508a.916.916,0,0,0,.653-.268l1.523-1.523a.329.329,0,0,1,.239-.1h1.073a.927.927,0,1,0,.878-1.226.933.933,0,0,0-.878.631h-1.073a.916.916,0,0,0-.653.268l-1.523,1.523a.329.329,0,0,1-.239.1h-1.334l-.616-.022a5.936,5.936,0,0,0-.29,1.893c0,.1,0,.21.007.312a6.191,6.191,0,0,0,.065.631c.218,0,.442,0,.66-.022h1.508a.341.341,0,0,1,.239.1l1.842,1.842a.329.329,0,0,1,.1.239v2.284a.036.036,0,0,1-.022-.007,5.955,5.955,0,0,1,.007.624,6.4,6.4,0,0,0,1.574.283c.1,0,.2.007.3.007h0a6.263,6.263,0,0,0,3.952-1.4.294.294,0,1,0-.37-.457,1.582,1.582,0,0,1-.13.1V56.636s.007-.022.022-.022H756.6a5.543,5.543,0,0,1-.834,1.392.294.294,0,0,0,.457.37,6.278,6.278,0,0,0,1.4-3.952h-.587Zm-2.857-2.509a.333.333,0,0,1-.334-.334.334.334,0,1,1,.334.334Zm-4.1,1.581a.333.333,0,0,1-.334-.334.334.334,0,1,1,.334.334Zm1.581-2.879a.333.333,0,0,1,.334.334.334.334,0,1,1-.334-.334Zm1.262,4.772a.333.333,0,0,1-.334-.334.334.334,0,1,1,.334.334Z" transform="translate(-741.257 -44.359)" fill="#046eab"/>
          <path id="Tracé_4160" data-name="Tracé 4160" d="M751.089,62.3a.768.768,0,0,0,.682-.761v-.95a8.353,8.353,0,0,0,2.669-1.1l.674.674a.775.775,0,0,0,1.023.058,11.571,11.571,0,0,0,.892-.79,10.357,10.357,0,0,0,.79-.892.766.766,0,0,0-.058-1.022l-.674-.674a8.285,8.285,0,0,0,1.1-2.669h.95a.769.769,0,0,0,.761-.689,10.887,10.887,0,0,0,.073-1.189A9.438,9.438,0,0,0,759.9,51.1a.774.774,0,0,0-.761-.689h-.95a8.351,8.351,0,0,0-1.1-2.669l.674-.674a.775.775,0,0,0,.058-1.022,11.573,11.573,0,0,0-.79-.892,10.364,10.364,0,0,0-.892-.79.766.766,0,0,0-1.023.058l-.674.674a8.285,8.285,0,0,0-2.669-1.1v-.95a.769.769,0,0,0-.689-.761,10.905,10.905,0,0,0-1.189-.073,9.431,9.431,0,0,0-1.189.073.768.768,0,0,0-.682.761v.95a8.353,8.353,0,0,0-2.669,1.1l-.674-.674a.775.775,0,0,0-1.022-.058,11.562,11.562,0,0,0-.892.79,10.358,10.358,0,0,0-.79.892.766.766,0,0,0,.058,1.022l.674.674a8.285,8.285,0,0,0-1.1,2.669h-.95a.769.769,0,0,0-.761.689,10.918,10.918,0,0,0-.073,1.189,9.439,9.439,0,0,0,.073,1.189.774.774,0,0,0,.761.689h.95a8.351,8.351,0,0,0,1.1,2.669l-.674.674a.775.775,0,0,0-.058,1.022,11.573,11.573,0,0,0,.79.892,9.252,9.252,0,0,0,.892.79.766.766,0,0,0,1.022-.058l.674-.674a8.285,8.285,0,0,0,2.669,1.1v.95a.769.769,0,0,0,.689.761,10.9,10.9,0,0,0,1.189.073A9.43,9.43,0,0,0,751.089,62.3Zm-2.306-.587a.187.187,0,0,1-.167-.181V60.339a.3.3,0,0,0-.239-.29,7.931,7.931,0,0,1-2.893-1.2.3.3,0,0,0-.377.036l-.841.841a.178.178,0,0,1-.239.007,9.092,9.092,0,0,1-.841-.747,9.219,9.219,0,0,1-.747-.841.186.186,0,0,1,.007-.239l.841-.841a.3.3,0,0,0,.036-.377,7.757,7.757,0,0,1-1.2-2.893.3.3,0,0,0-.29-.239h-1.189a.193.193,0,0,1-.181-.167,9.59,9.59,0,0,1,0-2.234.187.187,0,0,1,.181-.167h1.189a.3.3,0,0,0,.29-.239,7.931,7.931,0,0,1,1.2-2.893.282.282,0,0,0,.051-.167.291.291,0,0,0-.087-.21l-.841-.841a.178.178,0,0,1-.007-.239,9.088,9.088,0,0,1,.747-.841,9.21,9.21,0,0,1,.841-.747.186.186,0,0,1,.239.007l.841.841a.3.3,0,0,0,.377.036,7.758,7.758,0,0,1,2.893-1.2.3.3,0,0,0,.239-.29V43.022a.193.193,0,0,1,.167-.181,9.587,9.587,0,0,1,2.233,0,.187.187,0,0,1,.167.181v1.189a.3.3,0,0,0,.239.29,7.88,7.88,0,0,1,2.893,1.2.3.3,0,0,0,.377-.036l.841-.841a.178.178,0,0,1,.239-.007,9.108,9.108,0,0,1,.841.747,9.218,9.218,0,0,1,.747.841.186.186,0,0,1-.007.239l-.841.841a.3.3,0,0,0-.036.377,7.759,7.759,0,0,1,1.2,2.893.3.3,0,0,0,.29.239h1.189a.193.193,0,0,1,.181.167,9.59,9.59,0,0,1,0,2.234.187.187,0,0,1-.181.167h-1.189a.3.3,0,0,0-.29.239,7.931,7.931,0,0,1-1.2,2.893.3.3,0,0,0,.036.377l.841.841a.178.178,0,0,1,.007.239,9.088,9.088,0,0,1-.747.841,9.234,9.234,0,0,1-.841.747.186.186,0,0,1-.239-.007l-.841-.841a.3.3,0,0,0-.377-.036,7.759,7.759,0,0,1-2.893,1.2.3.3,0,0,0-.239.29v1.189a.193.193,0,0,1-.167.181,9.587,9.587,0,0,1-2.233,0Z" transform="translate(-739.82 -42.21)" fill="#046eab"/>
        </g>
        <text id="Network_Experience_Problems_8_" data-name="Network Experience Problems (8)" transform="translate(2018.072 1893.224)" fill="#04333f" font-size="12" font-family="SegoeUI, Segoe UI"><tspan x="0" y="0">Network Experience Problems (8)</tspan></text>
        <line id="Ligne_62-2" data-name="Ligne 62" x1="805.474" transform="translate(2007.018 1901.993)" fill="none" stroke="#c3e1e5" stroke-width="2"/>
        <line id="Line_62-2" data-name="Line 62" x1="805.496" transform="translate(2007.018 1876)" fill="none" stroke="#c3e1e5" stroke-width="2"/>
        <path id="Icon_material-filter-list-2" data-name="Icon material-filter-list" d="M8.5,15.863h2.288V14.719H8.5ZM4.5,9v1.144H14.795V9Zm1.716,4h6.863V11.86H6.216Z" transform="translate(2793.662 1877.997)" fill="#165f6e"/>
        <path id="Icon_material-sharp-network-wifi-2-bar" data-name="Icon material-sharp-network-wifi-2-bar" d="M12,4A16.88,16.88,0,0,0,0,8.98L12,21,24,8.98A16.88,16.88,0,0,0,12,4Zm4.78,9.38a8.968,8.968,0,0,0-9.56,0l-4.3-4.3a14.943,14.943,0,0,1,18.16-.01l-4.3,4.31Z" transform="translate(2351.218 1727.68)" fill="#1e6eab"/>
        <path id="Icon_material-outline-segment" data-name="Icon material-outline-segment" d="M9,18H21V16H9ZM3,6V8H21V6Zm6,7H21V11H9Z" transform="translate(2349.418 1756.618)" fill="#1e6eab"/>
        <g id="Icon_material-monitor-heart" data-name="Icon material-monitor-heart" transform="translate(2351.218 1788.232)">
          <path id="Tracé_8950" data-name="Tracé 8950" d="M15.11,12.45,14,10.24l-3.11,6.21a1,1,0,0,1-1.78,0L7.38,13H2v5a2.006,2.006,0,0,0,2,2H20a2.006,2.006,0,0,0,2-2V13H16A.977.977,0,0,1,15.11,12.45Z" fill="#1e6eab"/>
          <path id="Tracé_8951" data-name="Tracé 8951" d="M20,4H4A2.006,2.006,0,0,0,2,6v5H8a.977.977,0,0,1,.89.55L10,13.76l3.11-6.21a1.04,1.04,0,0,1,1.79,0L16.62,11H22V6A2.006,2.006,0,0,0,20,4Z" fill="#1e6eab"/>
        </g>
        <path id="Icon_material-connect-without-contact" data-name="Icon material-connect-without-contact" d="M11,14H9a9,9,0,0,1,9-9V7A7,7,0,0,0,11,14Zm7-3V9a5,5,0,0,0-5,5h2A3,3,0,0,1,18,11ZM7,4A2,2,0,1,0,5,6,1.993,1.993,0,0,0,7,4Zm4.45.5h-2A2.99,2.99,0,0,1,6.5,7h-3A1.5,1.5,0,0,0,2,8.5V11H8V8.74A4.97,4.97,0,0,0,11.45,4.5ZM19,17a2,2,0,1,0-2-2A1.993,1.993,0,0,0,19,17Zm1.5,1h-3a2.99,2.99,0,0,1-2.95-2.5h-2A4.97,4.97,0,0,0,16,19.74V22h6V19.5A1.5,1.5,0,0,0,20.5,18Z" transform="translate(2388.5 1916.088)" fill="#1e6eab"/>
        <path id="Icon_material-signal-cellular-connected-no-internet-4-bar" data-name="Icon material-signal-cellular-connected-no-internet-4-bar" d="M20,18h2V10H20Zm0,4h2V20H20ZM2,22H18V8h4V2Z" transform="translate(2388.5 1950.088)" fill="#1e6eab"/>
        <path id="Icon_fa-solid-traffic-light" data-name="Icon fa-solid-traffic-light" d="M3,0A3,3,0,0,0,0,3V16.5a7.5,7.5,0,0,0,15,0V3a3,3,0,0,0-3-3ZM7.5,19.5a2.25,2.25,0,1,1,2.25-2.25A2.25,2.25,0,0,1,7.5,19.5Zm2.25-8.25A2.25,2.25,0,1,1,7.5,9,2.25,2.25,0,0,1,9.75,11.25ZM7.5,7.5A2.25,2.25,0,1,1,9.75,5.25,2.25,2.25,0,0,1,7.5,7.5Z" transform="translate(2395.5 1988.183)" fill="#1e6eab"/>
        <path id="Icon_material-equalizer" data-name="Icon material-equalizer" d="M10,20h4V4H10ZM4,20H8V12H4ZM16,9V20h4V9Z" transform="translate(2388.732 2026.5)" fill="#1e6eab"/>
        <path id="Icon_ion-speedometer-sharp" data-name="Icon ion-speedometer-sharp" d="M12,2.25A11.4,11.4,0,0,0,3.578,21.161c.055.061.105.122.161.178.443.412.577.412.929.412a.976.976,0,0,0,.934-.416A8.122,8.122,0,0,1,12,18.75a8.128,8.128,0,0,1,6.4,2.584.972.972,0,0,0,.934.416,1.007,1.007,0,0,0,.929-.412c.057-.059.105-.117.161-.178A11.4,11.4,0,0,0,12,2.25Zm-.75,3h1.5v3h-1.5Zm-4.5,9h-3v-1.5h3Zm1.007-3.932L5.636,8.2,6.7,7.136,8.818,9.257Zm5.3,4.091a1.453,1.453,0,0,1-.328.328,1.411,1.411,0,1,1-1.641-2.3L15,10.5Zm2.123-5.152L17.3,7.136l1.06,1.06-2.121,2.122ZM20.25,14.25h-3v-1.5h3Z" transform="translate(2389.75 2062.567)" fill="#1e6eab"/>
      </g>
      <g id="Groupe_3878" data-name="Groupe 3878" transform="translate(-11)">
        <g id="App-Template" transform="translate(1990 1464.683)">
          <g transform="matrix(1, 0, 0, 1, -84, -296.68)" filter="url(#Rectangle_1626)">
            <rect id="Rectangle_1626-6" data-name="Rectangle 1626" width="134.393" height="141.317" rx="15" transform="translate(84 296.68)" fill="#fefefe"/>
          </g>
          <g id="NEW" transform="translate(21.508 9.598)">
            <rect id="Rectangle_1972" data-name="Rectangle 1972" width="16.962" height="6.857" rx="2" transform="translate(0)" fill="#f63b54"/>
            <text id="NEW-2" data-name="NEW" transform="translate(3.609 4.361)" fill="#fff" font-size="4" font-family="SegoeUI, Segoe UI"><tspan x="0" y="0">NEW</tspan></text>
          </g>
          <text id="Domain-Correlated_Monitoring" data-name="Domain-Correlated 
Monitoring" transform="translate(22.059 65.897)" fill="#1391ab" font-size="9" font-family="SegoeUI, Segoe UI"><tspan x="-19.854" y="10">DOMAIN-</tspan><tspan x="-26.336" y="22">CORRELATED </tspan><tspan x="-27.881" y="34">MONITORING</tspan></text>
          <text id="Neque_porro_quisquam_est_qui_dolorem_ipsum_quia_dolor_sit_amet_TAG:P_" data-name="Neque porro quisquam est, qui dolorem ipsum quia dolor sit amet [TAG:P]" transform="translate(4.584 97.257)" fill="#575454" font-size="10" font-family="SegoeUI, Segoe UI"><tspan x="6.412" y="11">IP Infrastructure, Network, </tspan><tspan x="9.505" y="23">Services, Customers, and </tspan><tspan x="41.573" y="35">Operation</tspan></text>
          <path id="Icon_simple-campaignmonitor" data-name="Icon simple-campaignmonitor" d="M43.805,4.6a1.682,1.682,0,0,0-2.339-.415L.3,33.012a1.679,1.679,0,0,0,1.373.717H42.434a1.676,1.676,0,0,0,1.672-1.68V5.537a1.748,1.748,0,0,0-.3-.937ZM2.639,4.184A1.672,1.672,0,0,0,0,5.537V32.093L19.6,16.038,2.641,4.184v0Z" transform="translate(43.006 22.809)" fill="#ec4a52"/>
        </g>
        <g id="App-Template-2" data-name="App-Template" transform="translate(2143.989 1464.683)">
          <g transform="matrix(1, 0, 0, 1, -237.99, -296.68)" filter="url(#Rectangle_1626-2)">
            <rect id="Rectangle_1626-7" data-name="Rectangle 1626" width="134.393" height="141.317" rx="15" transform="translate(237.99 296.68)" fill="#fefefe"/>
          </g>
          <g id="NEW-3" data-name="NEW" transform="translate(21.508 9.598)">
            <rect id="Rectangle_1972-2" data-name="Rectangle 1972" width="16.962" height="6.857" rx="2" transform="translate(0)" fill="#f63b54"/>
            <text id="NEW-4" data-name="NEW" transform="translate(3.609 4.361)" fill="#fff" font-size="4" font-family="SegoeUI, Segoe UI"><tspan x="0" y="0">NEW</tspan></text>
          </g>
          <text id="AGGREGATED_Network_Supervision" data-name="AGGREGATED Network Supervision" transform="translate(13.999 65.897)" fill="#1391ab" font-size="9" font-family="SegoeUI, Segoe UI"><tspan x="-49.638" y="10">AGGREGATED NETWORK </tspan><tspan x="-27.31" y="22">SUPERVISION</tspan></text>
          <text id="Neque_porro_quisquam_est_qui_dolorem_ipsum_quia_dolor_sit_amet_TAG:P_2" data-name="Neque porro quisquam est, qui dolorem ipsum quia dolor sit amet [TAG:P]" transform="translate(4.584 97.257)" fill="#575454" font-size="10" font-family="SegoeUI, Segoe UI"><tspan x="4.366" y="11">Create Alarm Management </tspan><tspan x="5.797" y="23">and Aggregation Rules for </tspan><tspan x="19.928" y="35">Automated Incident </tspan></text>
          <g id="Icon_material-sharp-monitor-heart" data-name="Icon material-sharp-monitor-heart" transform="translate(45.261 22.354)">
            <path id="Tracé_8948" data-name="Tracé 8948" d="M28.3,14.673,26.071,10.24,19.833,22.7a2,2,0,0,1-3.571,0l-3.47-6.92H2V29.818H42.119V15.776H30.083A1.96,1.96,0,0,1,28.3,14.673Z" transform="translate(0 6.277)" fill="#419cf1"/>
            <path id="Tracé_8949" data-name="Tracé 8949" d="M42.119,4H2V18.041H14.036a1.96,1.96,0,0,1,1.785,1.1l2.227,4.433,6.238-12.457a2.006,2.006,0,0,1,3.591,0l3.45,6.92H42.119Z" fill="#419cf1"/>
          </g>
        </g>
        <g id="App-Template-3" data-name="App-Template" transform="translate(2298.402 1464.683)">
          <g transform="matrix(1, 0, 0, 1, -392.4, -296.68)" filter="url(#Rectangle_1626-3)">
            <rect id="Rectangle_1626-8" data-name="Rectangle 1626" width="134.393" height="141.317" rx="15" transform="translate(392.4 296.68)" fill="#fefefe"/>
          </g>
          <g id="NEW-5" data-name="NEW" transform="translate(16.842 9.598)">
            <rect id="Rectangle_1972-3" data-name="Rectangle 1972" width="16.962" height="6.857" rx="2" transform="translate(0)" fill="#f63b54"/>
            <text id="NEW-6" data-name="NEW" transform="translate(3.609 4.361)" fill="#fff" font-size="4" font-family="SegoeUI, Segoe UI"><tspan x="0" y="0">NEW</tspan></text>
          </g>
          <text id="ADVANCED_User_Experience_Assurance_" data-name="ADVANCED User 
Experience Assurance " transform="translate(11.454 65.897)" fill="#1391ab" font-size="9" font-family="SegoeUI, Segoe UI"><tspan x="22.408" y="10">ADVANCED USER </tspan><tspan x="6.704" y="22">EXPERIENCE ASSURANCE </tspan></text>
          <text id="Neque_porro_quisquam_est_qui_dolorem_ipsum_quia_dolor_sit_amet_TAG:P_3" data-name="Neque porro quisquam est, qui dolorem ipsum quia dolor sit amet [TAG:P]" transform="translate(4.584 97.257)" fill="#575454" font-size="10" font-family="SegoeUI, Segoe UI"><tspan x="6.468" y="11">Automated Data Analytics </tspan><tspan x="8.968" y="23">Workflow and Combined </tspan><tspan x="14.784" y="35">Business Processes for </tspan></text>
          <path id="Icon_fa-solid-hospital-user" data-name="Icon fa-solid-hospital-user" d="M3.625,0A3.626,3.626,0,0,0,0,3.625V19.332H10.874a1.208,1.208,0,0,1,0,2.416H0v4.833H10.874a1.208,1.208,0,1,1,0,2.416H0v6.041a3.626,3.626,0,0,0,3.625,3.625H20.079a5.021,5.021,0,0,1-.748-2.651,9.442,9.442,0,0,1,4.833-8.246V3.625A3.626,3.626,0,0,0,20.54,0Zm7.853,4.833h1.208a1.212,1.212,0,0,1,1.208,1.208V7.853h1.812a1.212,1.212,0,0,1,1.208,1.208V10.27a1.212,1.212,0,0,1-1.208,1.208H13.895V13.29A1.212,1.212,0,0,1,12.686,14.5H11.478A1.212,1.212,0,0,1,10.27,13.29V11.478H8.458A1.212,1.212,0,0,1,7.249,10.27V9.062A1.212,1.212,0,0,1,8.458,7.853H10.27V6.041A1.212,1.212,0,0,1,11.478,4.833ZM38.663,20.54a6.041,6.041,0,1,0-6.041,6.041,6.041,6.041,0,0,0,6.041-6.041ZM21.748,36.028a2.633,2.633,0,0,0,2.635,2.635H40.861A2.633,2.633,0,0,0,43.5,36.028,7.032,7.032,0,0,0,36.466,29H28.778a7.032,7.032,0,0,0-7.03,7.03Z" transform="translate(44.448 21.454)" fill="#f9c937"/>
        </g>
        <g id="App-Template-4" data-name="App-Template" transform="translate(2452.39 1464.683)">
          <g transform="matrix(1, 0, 0, 1, -546.39, -296.68)" filter="url(#Rectangle_1626-4)">
            <rect id="Rectangle_1626-9" data-name="Rectangle 1626" width="134.393" height="141.317" rx="15" transform="translate(546.39 296.68)" fill="#fefefe"/>
          </g>
          <g id="NEW-7" data-name="NEW" transform="translate(21.508 9.598)">
            <rect id="Rectangle_1972-4" data-name="Rectangle 1972" width="16.962" height="6.857" rx="2" transform="translate(0)" fill="#f63b54"/>
            <text id="NEW-8" data-name="NEW" transform="translate(3.609 4.361)" fill="#fff" font-size="4" font-family="SegoeUI, Segoe UI"><tspan x="0" y="0">NEW</tspan></text>
          </g>
          <text id="Network_User_Satisfaction" data-name="Network User Satisfaction" transform="translate(14.847 65.897)" fill="#1391ab" font-size="9" font-family="SegoeUI, Segoe UI"><tspan x="-32.676" y="10">NETWORK USER </tspan><tspan x="-28.764" y="22">SATISFACTION</tspan></text>
          <text id="Neque_porro_quisquam_est_qui_dolorem_ipsum_quia_dolor_sit_amet_TAG:P_4" data-name="Neque porro quisquam est, qui dolorem ipsum quia dolor sit amet [TAG:P]" transform="translate(4.584 97.257)" fill="#575454" font-size="10" font-family="SegoeUI, Segoe UI"><tspan x="10.128" y="11">Correlating multi-source </tspan><tspan x="3.8" y="23">insights for predicting End-</tspan><tspan x="5.13" y="35">to-End Network Utilization </tspan></text>
          <g id="Icon_akar-planet" data-name="Icon akar-planet" transform="translate(43.936 22)">
            <path id="Tracé_8943" data-name="Tracé 8943" d="M35.061,19.53A15.53,15.53,0,1,1,19.53,4a15.53,15.53,0,0,1,15.53,15.53Z" transform="translate(1.883 1.883)" fill="none" stroke="#f18b33" stroke-linecap="round" stroke-linejoin="round" stroke-width="3"/>
            <path id="Tracé_8944" data-name="Tracé 8944" d="M14.423,7.531C8.547,3.13,3.888,1.008,2.447,2.447.168,4.726,6.811,15.065,17.285,25.539S38.1,42.655,40.376,40.376c.837-.835.472-2.759-.844-5.375" transform="translate(0 0)" fill="none" stroke="#f18b33" stroke-linecap="round" stroke-linejoin="round" stroke-width="3"/>
          </g>
          <g id="Icon_material-outline-sentiment-satisfied-alt" data-name="Icon material-outline-sentiment-satisfied-alt" transform="translate(53.348 31.412)">
            <path id="Tracé_8945" data-name="Tracé 8945" d="M17,9.5A1.5,1.5,0,1,1,15.5,8,1.5,1.5,0,0,1,17,9.5Z"/>
            <path id="Tracé_8946" data-name="Tracé 8946" d="M10,9.5A1.5,1.5,0,1,1,8.5,8,1.5,1.5,0,0,1,10,9.5Z"/>
            <path id="Tracé_8947" data-name="Tracé 8947" d="M12,16a4,4,0,0,1-3.45-2H6.88a5.5,5.5,0,0,0,10.24,0H15.45A3.984,3.984,0,0,1,12,16ZM11.99,2A10,10,0,1,0,22,12,10,10,0,0,0,11.99,2ZM12,20a8,8,0,1,1,8-8A8,8,0,0,1,12,20Z"/>
          </g>
        </g>
        <g id="App-Template-5" data-name="App-Template" transform="translate(2606.803 1464.683)">
          <g transform="matrix(1, 0, 0, 1, -700.8, -296.68)" filter="url(#Rectangle_1626-5)">
            <rect id="Rectangle_1626-10" data-name="Rectangle 1626" width="134.393" height="141.317" rx="15" transform="translate(700.8 296.68)" fill="#fefefe"/>
          </g>
          <g id="NEW-9" data-name="NEW" transform="translate(21.508 9.598)">
            <rect id="Rectangle_1972-5" data-name="Rectangle 1972" width="16.962" height="6.857" rx="2" transform="translate(0)" fill="#f63b54"/>
            <text id="NEW-10" data-name="NEW" transform="translate(3.609 4.361)" fill="#fff" font-size="4" font-family="SegoeUI, Segoe UI"><tspan x="0" y="0">NEW</tspan></text>
          </g>
          <text id="Automated_Network_Problems" data-name="Automated Network Problems" transform="translate(22.059 65.897)" fill="#1391ab" font-size="9" font-family="SegoeUI, Segoe UI"><tspan x="-25.857" y="10">AUTOMATED </tspan><tspan x="-20.993" y="22">NETWORK </tspan><tspan x="-21.966" y="34">PROBLEMS</tspan></text>
          <text id="Neque_porro_quisquam_est_qui_dolorem_ipsum_quia_dolor_sit_amet_TAG:P_5" data-name="Neque porro quisquam est, qui dolorem ipsum quia dolor sit amet [TAG:P]" transform="translate(4.584 97.257)" fill="#575454" font-size="10" font-family="SegoeUI, Segoe UI"><tspan x="0.284" y="11">Combining Network, Service, </tspan><tspan x="8.878" y="23">and End-User Experience </tspan><tspan x="13.7" y="35">Incidents to Accurately </tspan></text>
          <path id="Icon_ion-code-download-sharp" data-name="Icon ion-code-download-sharp" d="M16.255,32.571,1.5,19.66,16.255,6.75M38.387,32.571,53.142,19.66,38.387,6.75M19.943,23.361l7.377,7.366L34.7,23.361M27.321,8.594V28.886" transform="translate(36.97 19)" fill="none" stroke="#000" stroke-linecap="square" stroke-miterlimit="10" stroke-width="3.97"/>
        </g>
      </g>
    </g>
  </g>
</svg>
