<svg xmlns="http://www.w3.org/2000/svg" xmlns:xlink="http://www.w3.org/1999/xlink" width="1232" height="566" viewBox="0 0 1232 566">
  <defs>
    <filter id="Rectangle_1994" x="366" y="0" width="501" height="389" filterUnits="userSpaceOnUse">
      <feOffset dy="9" input="SourceAlpha"/>
      <feGaussianBlur stdDeviation="18" result="blur"/>
      <feFlood flood-opacity="0.161"/>
      <feComposite operator="in" in2="blur"/>
      <feComposite in="SourceGraphic"/>
    </filter>
    <filter id="Rectangle_1995" x="0" y="71" width="1232" height="495" filterUnits="userSpaceOnUse">
      <feOffset dy="13" input="SourceAlpha"/>
      <feGaussianBlur stdDeviation="28" result="blur-2"/>
      <feFlood flood-opacity="0.161"/>
      <feComposite operator="in" in2="blur-2"/>
      <feComposite in="SourceGraphic"/>
    </filter>
    <filter id="Rectangle_6" x="39" y="106" width="645" height="438" filterUnits="userSpaceOnUse">
      <feOffset dy="23" input="SourceAlpha"/>
      <feGaussianBlur stdDeviation="28" result="blur-3"/>
      <feFlood flood-opacity="0.11"/>
      <feComposite operator="in" in2="blur-3"/>
      <feComposite in="SourceGraphic"/>
    </filter>
    <filter id="Rectangle_1996" x="39" y="106" width="645" height="274" filterUnits="userSpaceOnUse">
      <feOffset dy="23" input="SourceAlpha"/>
      <feGaussianBlur stdDeviation="28" result="blur-4"/>
      <feFlood flood-opacity="0.11"/>
      <feComposite operator="in" in2="blur-4"/>
      <feComposite in="SourceGraphic"/>
    </filter>
    <filter id="Rectangle_6-2" x="549" y="106" width="645" height="438" filterUnits="userSpaceOnUse">
      <feOffset dy="23" input="SourceAlpha"/>
      <feGaussianBlur stdDeviation="28" result="blur-5"/>
      <feFlood flood-opacity="0.11"/>
      <feComposite operator="in" in2="blur-5"/>
      <feComposite in="SourceGraphic"/>
    </filter>
    <filter id="Rectangle_1997" x="549" y="106" width="645" height="274" filterUnits="userSpaceOnUse">
      <feOffset dy="23" input="SourceAlpha"/>
      <feGaussianBlur stdDeviation="28" result="blur-6"/>
      <feFlood flood-opacity="0.11"/>
      <feComposite operator="in" in2="blur-6"/>
      <feComposite in="SourceGraphic"/>
    </filter>
  </defs>
  <g id="Groupe_3895" data-name="Groupe 3895" transform="translate(-7375 -1314)">
    <g id="Groupe_3892" data-name="Groupe 3892" transform="translate(6474 1080)" opacity="0.234">
      <g transform="matrix(1, 0, 0, 1, 901, 234)" filter="url(#Rectangle_1994)">
        <rect id="Rectangle_1994-2" data-name="Rectangle 1994" width="393" height="281" rx="50" transform="translate(420 45)" fill="#2276b2"/>
      </g>
      <g transform="matrix(1, 0, 0, 1, 901, 234)" filter="url(#Rectangle_1995)">
        <rect id="Rectangle_1995-2" data-name="Rectangle 1995" width="1064" height="327" rx="50" transform="translate(84 142)" fill="#f7f3f2" opacity="0.679"/>
      </g>
    </g>
    <g id="Groupe_3893" data-name="Groupe 3893" transform="translate(6649 1427)">
      <g transform="matrix(1, 0, 0, 1, 726, -113)" filter="url(#Rectangle_6)">
        <rect id="Rectangle_6-3" data-name="Rectangle 6" width="477" height="270" rx="20" transform="translate(123 167)" fill="#fff"/>
      </g>
      <g transform="matrix(1, 0, 0, 1, 726, -113)" filter="url(#Rectangle_1996)">
        <path id="Rectangle_1996-2" data-name="Rectangle 1996" d="M20,0H457a20,20,0,0,1,20,20v86a0,0,0,0,1,0,0H0a0,0,0,0,1,0,0V20A20,20,0,0,1,20,0Z" transform="translate(123 167)" fill="#2478b4"/>
      </g>
      <text id="Are_you_still_struggling_to_correlate_your_data_with_any_other_additional_insights_for_a_complete_quality_understanding_This_process_must_be_automated_as_soon_as_possible_" data-name="Are you still struggling to correlate your data with any other additional insights for a complete quality understanding ? This process must be automated as soon as possible…" transform="translate(872 180)" fill="#717171" font-size="20" font-family="ArialMT, Arial"><tspan x="0" y="18">Are you still struggling to correlate your data </tspan><tspan x="0" y="43">with any other additional insights for a complete </tspan><tspan x="0" y="68">quality understanding ? This process must be </tspan><tspan x="0" y="93">automated as soon as possible…</tspan></text>
      <text id="Adjusting_network_quality_cannot_rely_solely_on_system_performance_factors_from_one_domain." data-name="Adjusting network quality cannot rely solely on system performance factors from one domain." transform="translate(874 71)" fill="#f2eaea" font-size="19" font-family="SegoeUI-Bold, Segoe UI" font-weight="700"><tspan x="0" y="21">ADJUSTING NETWORK QUALITY CANNOT RELY </tspan><tspan x="0" y="46">SOLELY ON SYSTEM PERFORMANCE FACTORS </tspan><tspan x="0" y="71">FROM ONE DOMAIN.</tspan></text>
    </g>
    <g id="Groupe_3894" data-name="Groupe 3894" transform="translate(6649 1427)">
      <g transform="matrix(1, 0, 0, 1, 726, -113)" filter="url(#Rectangle_6-2)">
        <rect id="Rectangle_6-4" data-name="Rectangle 6" width="477" height="270" rx="20" transform="translate(633 167)" fill="#fff"/>
      </g>
      <text id="Supporting_extremely_high_data_rates_low_latency_and_radically_new_applications_expected_by_industries_requires_that_you_develop_a_novel_framework_for_operating_managing_and_optimizing_networks._" data-name="Supporting extremely high data rates, low latency, and radically new applications expected by industries requires that you develop a novel framework for operating, managing, and optimizing networks. " transform="translate(1382 180)" fill="#717171" font-size="20" font-family="ArialMT, Arial"><tspan x="0" y="18">Supporting extremely high data rates, low </tspan><tspan x="0" y="43">latency, and radically new applications expected </tspan><tspan x="0" y="68">by industries requires that you develop a novel </tspan><tspan x="0" y="93">framework for operating, managing, and </tspan><tspan x="0" y="118">optimizing networks. </tspan></text>
      <g transform="matrix(1, 0, 0, 1, 726, -113)" filter="url(#Rectangle_1997)">
        <path id="Rectangle_1997-2" data-name="Rectangle 1997" d="M20,0H457a20,20,0,0,1,20,20v86a0,0,0,0,1,0,0H0a0,0,0,0,1,0,0V20A20,20,0,0,1,20,0Z" transform="translate(633 167)" fill="#2478b4"/>
      </g>
      <text id="Using_digital_processes_for_network_maintenance_enables_greater_flexibility_in_operations_management" data-name="Using digital processes for network maintenance enables greater flexibility in operations management" transform="translate(1382 74)" fill="#f2eaea" font-size="19" font-family="SegoeUI-Bold, Segoe UI" font-weight="700"><tspan x="0" y="21">USING DIGITAL PROCESSES FOR NETWORK </tspan><tspan x="0" y="46">MAINTENANCE ENABLES GREATER FLEXIBILITY </tspan><tspan x="0" y="71">IN OPERATIONS MANAGEMENT</tspan></text>
    </g>
  </g>
</svg>
