<svg xmlns="http://www.w3.org/2000/svg" xmlns:xlink="http://www.w3.org/1999/xlink" width="1983.018" height="962" viewBox="0 0 1983.018 962">
  <defs>
    <clipPath id="clip-path">
      <rect id="Rectangle_2748" data-name="Rectangle 2748" width="643.475" height="589.427" fill="none"/>
    </clipPath>
    <clipPath id="clip-path-2">
      <rect id="Rectangle_2703" data-name="Rectangle 2703" width="643.476" height="589.427" fill="none"/>
    </clipPath>
    <clipPath id="clip-path-3">
      <path id="Tracé_8834" data-name="Tracé 8834" d="M189.717,407.568c40.82,23.606,74.27,75.579,40.77,86.619s-21.3,36.7,1.4,54.59c15.051,11.862,54.342,34.3,25.328,76.853-14.22,20.854-3.452,50.51-3.452,50.51l57.738.2c28.97-29.427,27.083-53.71,8.13-75.427s6.057-44.6,19.286-76.045C354.4,488.047,309.523,485.4,307,455.207s6.2-87.9-48.169-113.017c-17.7-8.179-32.644-11.578-44.936-11.577-50.921,0-56.356,58.347-24.178,76.955" transform="translate(-169.649 -330.613)" fill="none"/>
    </clipPath>
    <clipPath id="clip-path-4">
      <rect id="Rectangle_2707" data-name="Rectangle 2707" width="181.859" height="349.105" fill="none"/>
    </clipPath>
    <clipPath id="clip-path-5">
      <path id="Tracé_8844" data-name="Tracé 8844" d="M1891.9,302.259c-5,6.139-10.316,5.9-16.285,5.651-6.507-.266-13.785-.531-22.256,7.471-14.256,13.467-8.632,45.719-8.648,62.627-.06,63.573-53.186,59.1-49.3,108.267,1.431,18.119,7.968,51.342-9.1,60.563s-5.177,43.817-5.177,43.817l46.183,11.9s24.772-24.054,13.719-47.927c-7.265-15.689,7.147-31.3,26-45.756s5.6-50.64,3.89-64.532c-2.449-19.833-1.963-27.977,29.155-55.182,47.067-32.589,66-73.136,50.419-93.5-6.595-8.621-15.055-12.385-23.863-12.385-12.277,0-25.23,7.317-34.734,18.994" transform="translate(-1777.094 -283.265)" fill="none"/>
    </clipPath>
    <clipPath id="clip-path-6">
      <rect id="Rectangle_2709" data-name="Rectangle 2709" width="186.394" height="316.786" fill="none"/>
    </clipPath>
    <clipPath id="clip-path-7">
      <path id="Tracé_8853" data-name="Tracé 8853" d="M1841.888,680.855c-59.422,7.5-68.552,65.15-80.084,93.165s-55.112,16.972-51.479,56.749c3.1,33.977,20.025,63.347-4.607,78.317s-33.772,37.547-15.055,74.355l55.1,17.269s19.23-25.012,11.98-49.19c-14.792-49.33,29.445-58.843,47.377-65.6,27.043-10.189,46.431-30.962,17.837-51.613s19-60.079,65.05-70.24c42-9.267,52.085-84.466-27.308-84.467a150.4,150.4,0,0,0-18.807,1.253" transform="translate(-1680.7 -679.602)" fill="none"/>
    </clipPath>
    <clipPath id="clip-path-8">
      <rect id="Rectangle_2711" data-name="Rectangle 2711" width="241.723" height="323.455" fill="none"/>
    </clipPath>
    <clipPath id="clip-path-9">
      <path id="Tracé_8860" data-name="Tracé 8860" d="M1835.412,1242.493c-9.306,6.235-19.095,12.471-29.942,12.091-23.469-.82-37.073,15.723-37.689,41.592s-14.856,26.3-34.721,33.257c-23.862,8.358-11.2,36.332-5.52,48.228,4.59,9.612,5.052,37.165-10.464,42.327-11.16,3.713-6.846,17.651-3.544,25.184l53.719-1.219c-2.1-7.449-3.975-19.665,3.832-28.8,9.957-11.65,49.154-6.677,46.7-35.483-1.8-21.1-26.818-35.769,15.47-53.565s72.426-75.683,36.656-93.73a17.964,17.964,0,0,0-8.221-1.993c-8.655,0-17.237,6.054-26.273,12.108" transform="translate(-1709.877 -1230.385)" fill="none"/>
    </clipPath>
    <clipPath id="clip-path-10">
      <rect id="Rectangle_2713" data-name="Rectangle 2713" width="173.266" height="199.597" fill="none"/>
    </clipPath>
    <clipPath id="clip-path-11">
      <path id="Tracé_8861" data-name="Tracé 8861" d="M558.094,559.875V991.148c0,9.8,10.013,11.775,17.727,10.988l331.852-33.891a12.6,12.6,0,0,0,10.956-12.392V575.95a11.791,11.791,0,0,0-10.956-11.808L572.752,544.766q-.251-.012-.5-.012c-7.511,0-14.157,8.207-14.157,15.121" transform="translate(-558.094 -544.754)" fill="none"/>
    </clipPath>
    <linearGradient id="linear-gradient" x1="-0.338" y1="1.027" x2="-0.337" y2="1.027" gradientUnits="objectBoundingBox">
      <stop offset="0" stop-color="#444b8c"/>
      <stop offset="0.996" stop-color="#26264f"/>
      <stop offset="1" stop-color="#26264f"/>
    </linearGradient>
    <clipPath id="clip-path-13">
      <rect id="Rectangle_2716" data-name="Rectangle 2716" width="349.074" height="446.571" fill="none"/>
    </clipPath>
    <clipPath id="clip-path-14">
      <path id="Tracé_8863" data-name="Tracé 8863" d="M620.458,1015.766c-4.161.42-7.554-2.36-7.554-6.2V575.85c0-3.839,3.393-6.8,7.554-6.6L956.041,585.1a6.413,6.413,0,0,1,5.937,6.437V975.127a6.854,6.854,0,0,1-5.937,6.757Z" transform="translate(-612.904 -569.237)" fill="none"/>
    </clipPath>
    <linearGradient id="linear-gradient-2" x1="-0.383" y1="1.041" x2="-0.382" y2="1.041" gradientUnits="objectBoundingBox">
      <stop offset="0" stop-color="#e38ddd"/>
      <stop offset="0.004" stop-color="#e38ddd"/>
      <stop offset="1" stop-color="#9571f6"/>
    </linearGradient>
    <clipPath id="clip-path-15">
      <rect id="Rectangle_2717" data-name="Rectangle 2717" width="114.711" height="44.076" fill="none"/>
    </clipPath>
    <clipPath id="clip-path-16">
      <path id="Tracé_8866" data-name="Tracé 8866" d="M1139.029,368.022a3.99,3.99,0,0,1-3.719-4.663,4.835,4.835,0,0,1,4.982-4.111A3.991,3.991,0,0,1,1144,363.91a4.851,4.851,0,0,1-4.7,4.12c-.09,0-.181,0-.272-.009m-14.575-3.187a9.22,9.22,0,0,1-1.274,3.533,9.428,9.428,0,0,1-8.453,4.511l-6.212-.371a8.236,8.236,0,0,0-8.294,6.134l-5.165,20.137a19.726,19.726,0,0,1-19.608,14.6l-20.107-.9a8.734,8.734,0,0,0-8.041,4.781L1035.183,441.3a2.781,2.781,0,0,0,2.392,4.168l174.368,5.792a3.238,3.238,0,0,0,3.176-3.73L1210.8,424.3a6.139,6.139,0,0,0-5.844-5.114l-18.33-.821c-8.319-.373-14.418-7.132-14.113-15.692l.708-19.838a6.438,6.438,0,0,0-6.09-6.824l-6.022-.36c-4.592-.274-7.65-4.322-7.006-9a13.6,13.6,0,0,0-12.6-15.794c-.34-.023-.68-.035-1.017-.035a16.555,16.555,0,0,0-16.03,14.017" transform="translate(-1034.833 -350.817)" fill="none"/>
    </clipPath>
    <linearGradient id="linear-gradient-3" x1="-1.241" y1="5.103" x2="-1.24" y2="5.103" xlink:href="#linear-gradient"/>
    <clipPath id="clip-path-18">
      <rect id="Rectangle_2720" data-name="Rectangle 2720" width="161.207" height="68.749" fill="none"/>
    </clipPath>
    <clipPath id="clip-path-19">
      <path id="Tracé_8889" data-name="Tracé 8889" d="M143.589,1456.662v94.578c0,24.953,21.64,43.908,47.756,42.372l470.985-27.7c15.612-.918,28.056-16.857,28.056-35.616v-71.1c0-18.759-12.445-34.279-28.056-34.672l-470.985-11.837c-.422-.01-.848-.016-1.268-.016-25.547,0-46.488,19.448-46.488,44" transform="translate(-143.589 -1412.665)" fill="none"/>
    </clipPath>
    <linearGradient id="linear-gradient-4" x1="-0.057" y1="1.542" x2="-0.057" y2="1.542" xlink:href="#linear-gradient"/>
    <clipPath id="clip-path-21">
      <path id="Tracé_8891" data-name="Tracé 8891" d="M196.963,1477.847v94.3c0,21.528,18.706,37.992,41.267,36.727l470.985-26.416c13.525-.759,24.369-14.6,24.369-30.87v-71.261c0-16.268-10.844-29.746-24.369-30.049L238.23,1439.73c-.326-.007-.65-.011-.974-.011-22.121,0-40.292,16.912-40.292,38.128" transform="translate(-196.963 -1439.719)" fill="none"/>
    </clipPath>
    <linearGradient id="linear-gradient-5" x1="-0.211" y1="0.851" x2="-0.211" y2="0.851" gradientUnits="objectBoundingBox">
      <stop offset="0" stop-color="#ebeff2"/>
      <stop offset="0.004" stop-color="#ebeff2"/>
      <stop offset="1" stop-color="#fff"/>
    </linearGradient>
    <clipPath id="clip-path-23">
      <path id="Tracé_8893" data-name="Tracé 8893" d="M977.022,1604.482l-12.3,25.462a3.189,3.189,0,0,1-2.373,1.772l-28.131,4.384a3.276,3.276,0,0,0-1.8,5.573l20.47,19.726a3.188,3.188,0,0,1,.916,2.832l-4.791,28.4a3.09,3.09,0,0,0,4.629,3.22l24.722-14.145a3.037,3.037,0,0,1,2.886-.1l24.053,12.179a3.153,3.153,0,0,0,4.375-3.477l-4.528-27.32a3.275,3.275,0,0,1,.869-2.8l19.023-19.708a3.133,3.133,0,0,0-1.643-5.285l-26.433-3.76a3.029,3.029,0,0,1-2.3-1.708l-12.084-25.214a3.076,3.076,0,0,0-2.8-1.788,3.039,3.039,0,0,0-2.764,1.758" transform="translate(-931.43 -1602.724)" fill="#ffbe31"/>
    </clipPath>
    <clipPath id="clip-path-24">
      <path id="Tracé_8894" data-name="Tracé 8894" d="M1439.5,1607.251l-11.124,24.212a2.9,2.9,0,0,1-2.145,1.684l-25.41,4.154a3.158,3.158,0,0,0-1.625,5.293l18.485,18.762a3.132,3.132,0,0,1,.828,2.692l-4.328,26.983a2.825,2.825,0,0,0,4.182,3.069l22.35-13.406a2.629,2.629,0,0,1,2.611-.087l21.775,11.628c2.006,1.071,4.345-.881,3.963-3.3l-4.1-26.01a3.218,3.218,0,0,1,.787-2.663l17.24-18.745c1.592-1.732.714-4.7-1.489-5.033l-23.949-3.59a2.761,2.761,0,0,1-2.08-1.626l-10.936-23.989a2.775,2.775,0,0,0-2.53-1.7,2.742,2.742,0,0,0-2.5,1.672" transform="translate(-1398.303 -1605.579)" fill="#ffbe31"/>
    </clipPath>
    <clipPath id="clip-path-25">
      <path id="Tracé_8895" data-name="Tracé 8895" d="M1858.123,1609.762l-10.108,23.079a2.658,2.658,0,0,1-1.948,1.6L1823,1638.394c-2.182.373-3.055,3.355-1.474,5.041l16.775,17.888a3.085,3.085,0,0,1,.751,2.566l-3.929,25.7c-.368,2.4,1.879,4.135,3.8,2.932l20.3-12.742a2.294,2.294,0,0,1,2.373-.079l19.805,11.125c1.825,1.025,3.954-.833,3.607-3.143l-3.734-24.819a3.169,3.169,0,0,1,.716-2.539l15.7-17.873c1.45-1.652.651-4.488-1.357-4.8l-21.8-3.434a2.535,2.535,0,0,1-1.892-1.552l-9.945-22.876a2.522,2.522,0,0,0-2.3-1.62,2.493,2.493,0,0,0-2.275,1.6" transform="translate(-1820.721 -1608.167)" fill="#ffbe31"/>
    </clipPath>
    <clipPath id="clip-path-27">
      <rect id="Rectangle_2729" data-name="Rectangle 2729" width="515.746" height="181.034" fill="none"/>
    </clipPath>
    <clipPath id="clip-path-28">
      <path id="Tracé_8898" data-name="Tracé 8898" d="M463.428,1601.412l-13.676,26.848a3.535,3.535,0,0,1-2.64,1.87l-31.314,4.64a3.413,3.413,0,0,0-2.005,5.883l22.793,20.794a3.25,3.25,0,0,1,1.019,2.985l-5.332,29.965a3.4,3.4,0,0,0,5.152,3.387l27.493-14.968a3.536,3.536,0,0,1,3.207-.107l26.709,12.784a3.46,3.46,0,0,0,4.854-3.672l-5.025-28.77a3.342,3.342,0,0,1,.964-2.95l21.1-20.773a3.252,3.252,0,0,0-1.821-5.563l-29.325-3.946a3.351,3.351,0,0,1-2.551-1.8l-13.421-26.573a3.439,3.439,0,0,0-3.11-1.886,3.4,3.4,0,0,0-3.071,1.852" transform="translate(-412.693 -1599.56)" fill="#ffbe31"/>
    </clipPath>
    <clipPath id="clip-path-29">
      <path id="Tracé_8899" data-name="Tracé 8899" d="M740.134,886.836c-19.709,24.553-31.375,54.073-31.375,87.347l80.893,1.2a73.612,73.612,0,0,1,15-45.056L743.3,886.836Z" transform="translate(-708.759 -886.836)" fill="none"/>
    </clipPath>
    <linearGradient id="linear-gradient-6" x1="-1.346" y1="3.56" x2="-1.344" y2="3.56" gradientUnits="objectBoundingBox">
      <stop offset="0" stop-color="#311944"/>
      <stop offset="1" stop-color="#893976"/>
    </linearGradient>
    <clipPath id="clip-path-30">
      <path id="Tracé_8900" data-name="Tracé 8900" d="M958.958,643.45a156.053,156.053,0,0,0-80.336,46.669l64.085,43.306.139.1a15.244,15.244,0,0,0,3.168.006c.114,0,.155-.223.235-.3,9.963-10.336,20.78-19.18,35.277-23.511l-19.4-66.263Z" transform="translate(-878.622 -643.45)" fill="none"/>
    </clipPath>
    <linearGradient id="linear-gradient-7" x1="-2.086" y1="4.304" x2="-2.083" y2="4.304" xlink:href="#linear-gradient-6"/>
    <clipPath id="clip-path-31">
      <path id="Tracé_8901" data-name="Tracé 8901" d="M1286.366,624.182l22.619,66.651c7.38-1.457,17.739-3.287,25.642-2.9,8.844.438,17.609,2.727,25.528,5.363l17.876-61.369a172.808,172.808,0,0,0-46.279-10.111q-6.975-.551-13.856-.548a171.312,171.312,0,0,0-31.531,2.91" transform="translate(-1286.366 -621.272)" fill="none"/>
    </clipPath>
    <linearGradient id="linear-gradient-8" x1="-3.707" y1="4.856" x2="-3.704" y2="4.856" xlink:href="#linear-gradient-6"/>
    <clipPath id="clip-path-32">
      <path id="Tracé_8902" data-name="Tracé 8902" d="M1667.443,684.239,1646.5,745.568a89.746,89.746,0,0,1,32.851,24.784h3.168l-.477-1.759,51.386-33.1c-15.843-21.127-36.946-39.7-62.658-51.19-.053-.024-.1-.068-.159-.068-1.3,0-1.324-.043-1.788-.043-.247,0-.62.012-1.38.05" transform="translate(-1646.501 -684.189)" fill="none"/>
    </clipPath>
    <linearGradient id="linear-gradient-9" x1="-2.815" y1="3.775" x2="-2.813" y2="3.775" xlink:href="#linear-gradient-6"/>
    <clipPath id="clip-path-33">
      <path id="Tracé_8903" data-name="Tracé 8903" d="M1872.76,948.883l-53.839,34.85a75.183,75.183,0,0,1,13.021,42.618l65.077.911a138.97,138.97,0,0,0-22.613-75.877c-.3-.465,2.059-2.37,1.522-2.5a1.067,1.067,0,0,0-.312-.048c-.234,0-.744.048-2.856.048" transform="translate(-1818.921 -948.835)" fill="none"/>
    </clipPath>
    <linearGradient id="linear-gradient-10" x1="-4.046" y1="4.092" x2="-4.044" y2="4.092" xlink:href="#linear-gradient-6"/>
    <clipPath id="clip-path-34">
      <path id="Tracé_8904" data-name="Tracé 8904" d="M1449.22,968.1l24.977,21.591,61.2-83.751Z" transform="translate(-1449.22 -905.941)" fill="none"/>
    </clipPath>
    <linearGradient id="linear-gradient-11" x1="-2.493" y1="3.414" x2="-2.491" y2="3.414" xlink:href="#linear-gradient-6"/>
    <clipPath id="clip-path-35">
      <path id="Tracé_8905" data-name="Tracé 8905" d="M1388.882,1184.726c0,11.745,10.371,21.354,23.035,21.46,12.524.105,22.576-9.142,22.576-20.653s-10.052-21.114-22.576-21.452q-.341-.009-.679-.009c-12.354,0-22.355,9.12-22.355,20.654" transform="translate(-1388.882 -1164.072)" fill="none"/>
    </clipPath>
    <linearGradient id="linear-gradient-12" x1="-6.639" y1="7.949" x2="-6.635" y2="7.949" xlink:href="#linear-gradient-6"/>
    <clipPath id="clip-path-36">
      <path id="Tracé_8906" data-name="Tracé 8906" d="M1444.531,1225.074c-6.166-.081-11.208-4.789-11.208-10.494s5.042-10.235,11.208-10.1c6.132.136,11.1,4.843,11.1,10.492,0,5.6-4.878,10.1-10.937,10.1h-.161m-13.941-10.543c0,7.1,6.275,12.946,13.941,13.039,7.614.092,13.772-5.538,13.772-12.549s-6.157-12.858-13.772-13.036c-.119,0-.237,0-.355,0-7.5,0-13.586,5.563-13.586,12.55" transform="translate(-1430.59 -1201.981)" fill="none"/>
    </clipPath>
    <linearGradient id="linear-gradient-13" x1="-11.256" y1="12.747" x2="-11.248" y2="12.747" xlink:href="#linear-gradient-6"/>
    <clipPath id="clip-path-37">
      <path id="Tracé_8907" data-name="Tracé 8907" d="M723.289,974.957l80.893,1.133a73.478,73.478,0,0,1,15-45.01l-64.514-43.4c-19.709,24.208-31.375,54-31.375,87.278" transform="translate(-723.289 -887.679)" fill="none"/>
    </clipPath>
    <linearGradient id="linear-gradient-14" x1="-1.377" y1="3.56" x2="-1.375" y2="3.56" gradientUnits="objectBoundingBox">
      <stop offset="0" stop-color="#ab316d"/>
      <stop offset="1" stop-color="#792d3d"/>
    </linearGradient>
    <clipPath id="clip-path-38">
      <path id="Tracé_8908" data-name="Tracé 8908" d="M893.153,689.72l64.224,43.447a86.032,86.032,0,0,1,38.68-23.852L973.489,643c-31.549,7.608-59.53,24.013-80.336,46.716" transform="translate(-893.153 -643.004)" fill="none"/>
    </clipPath>
    <linearGradient id="linear-gradient-15" x1="-2.121" y1="4.306" x2="-2.118" y2="4.306" gradientUnits="objectBoundingBox">
      <stop offset="0" stop-color="#ffc444"/>
      <stop offset="0.541" stop-color="#f8964e"/>
      <stop offset="0.996" stop-color="#f36f56"/>
      <stop offset="1" stop-color="#f36f56"/>
    </linearGradient>
    <clipPath id="clip-path-39">
      <path id="Tracé_8909" data-name="Tracé 8909" d="M1300.9,624.182l22.393,66.063a95.328,95.328,0,0,1,48.228,3.055l21.044-61.369a172.81,172.81,0,0,0-46.279-10.111q-6.975-.551-13.856-.548a171.307,171.307,0,0,0-31.531,2.91" transform="translate(-1300.897 -621.272)" fill="none"/>
    </clipPath>
    <linearGradient id="linear-gradient-16" x1="-3.748" y1="4.856" x2="-3.745" y2="4.856" gradientUnits="objectBoundingBox">
      <stop offset="0" stop-color="#ffc444"/>
      <stop offset="0.996" stop-color="#f36f56"/>
      <stop offset="1" stop-color="#f36f56"/>
    </linearGradient>
    <clipPath id="clip-path-40">
      <path id="Tracé_8910" data-name="Tracé 8910" d="M1661.032,745.672a87.921,87.921,0,0,1,32.851,24.757l54.077-34.808a161.569,161.569,0,0,0-65.986-51.264Z" transform="translate(-1661.032 -684.357)" fill="none"/>
    </clipPath>
    <linearGradient id="linear-gradient-17" x1="-2.843" y1="3.777" x2="-2.841" y2="3.777" xlink:href="#linear-gradient-2"/>
    <clipPath id="clip-path-41">
      <path id="Tracé_8911" data-name="Tracé 8911" d="M1833.451,983.9a75.182,75.182,0,0,1,13.021,42.618l65.077.911a139.278,139.278,0,0,0-24.259-78.379Z" transform="translate(-1833.451 -949.054)" fill="none"/>
    </clipPath>
    <linearGradient id="linear-gradient-18" x1="-4.082" y1="4.092" x2="-4.079" y2="4.092" xlink:href="#linear-gradient-2"/>
    <clipPath id="clip-path-42">
      <path id="Tracé_8912" data-name="Tracé 8912" d="M1463.751,968.1l24.977,21.591,61.2-83.751Z" transform="translate(-1463.751 -905.941)" fill="none"/>
    </clipPath>
    <linearGradient id="linear-gradient-19" x1="-2.52" y1="3.414" x2="-2.518" y2="3.414" xlink:href="#linear-gradient"/>
    <clipPath id="clip-path-43">
      <path id="Tracé_8913" data-name="Tracé 8913" d="M1403.412,1184.726c0,11.745,10.371,21.354,23.035,21.46,12.524.105,22.576-9.142,22.576-20.653s-10.052-21.114-22.576-21.452q-.341-.009-.68-.009c-12.354,0-22.355,9.12-22.355,20.654" transform="translate(-1403.412 -1164.072)" fill="none"/>
    </clipPath>
    <linearGradient id="linear-gradient-20" x1="-6.709" y1="7.949" x2="-6.704" y2="7.949" xlink:href="#linear-gradient"/>
  </defs>
  <g id="Groupe_3963" data-name="Groupe 3963" transform="translate(-16969 -5631)">
    <path id="Tracé_8942" data-name="Tracé 8942" d="M0,2735.106v2.542c100.613,22.4,223.3,21.808,372.885-15.347,237.536-59,475.073-69.973,683.243-35.5,163.777,27.121,309.375,82.373,422.474,164.487,44.112,32.027,83.284,68.142,116.664,108.272h3.119c-33.781-40.892-73.522-77.657-118.356-110.206-113.406-82.34-259.36-137.734-423.5-164.915-208.487-34.522-446.369-23.54-684.226,35.541-149.427,37.118-271.907,37.616-372.3,15.129m0-34.075v2.535c103.218,25.745,230.424,26.951,387.152-11.98,237.537-59,475.073-69.972,683.243-35.5,163.777,27.121,309.376,82.374,422.474,164.488,55.091,40,102.47,86.379,140.493,138.987h2.97c-38.34-53.394-86.249-100.418-142.036-140.921-113.405-82.338-259.359-137.734-423.5-164.915-208.486-34.521-446.369-23.54-684.226,35.542C230,2728.153,102.986,2726.869,0,2701.031m0-34.55v2.569c105.7,29.32,237.369,32.57,401.418-8.178,237.536-59,475.073-69.972,683.243-35.5,163.777,27.121,309.375,82.374,422.474,164.486,65.575,47.611,120.232,104.265,161.177,169.7h2.837c-41.192-66.237-96.336-123.537-162.588-171.635-113.406-82.34-259.359-137.734-423.5-164.916-208.488-34.521-446.37-23.54-684.226,35.543C236.928,2699.262,105.459,2695.9,0,2666.481m0-34.842v2.607c108.033,33.089,244.2,38.509,415.684-4.087,237.536-59,475.073-69.972,683.243-35.5,163.776,27.121,309.377,82.374,422.473,164.486,75.631,54.91,136.734,121.844,179.03,200.416h2.742c-42.49-79.382-104.059-146.963-180.345-202.349-113.406-82.34-259.36-137.734-423.5-164.915-208.487-34.522-446.369-23.54-684.225,35.542-171.359,42.565-307.313,37.012-415.1,3.8m0-35.323v2.6c110.239,37.107,250.82,45.021,429.95.525,237.537-59,475.073-69.972,683.243-35.5,163.777,27.121,309.376,82.375,422.474,164.488,85.3,61.932,152.122,139.16,194.319,231.13h2.65c-42.346-92.792-109.6-170.668-195.542-233.064-113.406-82.339-259.36-137.734-423.5-164.915-208.487-34.521-446.369-23.539-684.226,35.542-179.006,44.465-319.385,36.43-429.367-.8m0-35.822v2.649c112.305,41.353,257.249,52.028,444.217,5.587,237.536-59,475.073-69.972,683.243-35.5,163.777,27.121,309.375,82.375,422.473,164.487,94.635,68.706,166.522,156.242,207.277,261.844h2.583c-40.862-106.437-113.171-194.618-208.434-263.778-113.4-82.34-259.359-137.734-423.5-164.915-208.488-34.521-446.37-23.541-684.226,35.542C256.773,2612.822,112.039,2601.992,0,2560.495m0-36.2v2.7c114.2,45.817,263.518,59.454,458.483,11.025,237.538-59,475.074-69.972,683.244-35.5C1305.5,2529.633,1451.1,2584.886,1564.2,2667c103.662,75.263,180.03,173.113,218.081,292.559h2.532c-38.129-120.287-114.907-218.785-219.188-294.492-113.406-82.34-259.359-137.734-423.5-164.916-208.487-34.521-446.37-23.54-684.226,35.543-194.88,48.406-343.969,34.584-457.9-11.4m0-36.644v2.7c115.947,50.522,269.575,67.421,472.75,16.955,237.536-59,475.073-69.973,683.243-35.5,163.777,27.122,309.377,82.373,422.474,164.487,112.414,81.615,192.738,189.794,226.893,323.273h2.489c-34.219-134.326-114.933-243.15-227.955-325.207-113.406-82.339-259.36-137.734-423.5-164.914-208.487-34.522-446.369-23.541-684.225,35.541C269.078,2555.425,115.653,2538.343,0,2487.65m0-37.305v2.746c117.526,55.489,275.366,76.07,487.016,23.5,237.537-59,475.073-69.973,683.243-35.5,163.777,27.121,309.376,82.375,422.473,164.488,113.029,82.062,193.622,190.974,227.458,325.461q3.542,14.077,6.392,28.525h2.457q-2.9-14.743-6.51-29.105c-33.981-135.066-114.9-244.432-228.37-326.815-113.405-82.339-259.36-137.734-423.5-164.915-208.486-34.521-446.369-23.541-684.226,35.542C274.843,2526.821,117.222,2506.029,0,2450.345m0-37.781v2.8c118.924,60.691,280.942,85.236,501.283,30.506,237.536-59,475.073-69.972,683.243-35.5C1348.3,2437.49,1493.9,2492.743,1607,2574.855c113.028,82.063,193.622,190.976,227.457,325.462a574.408,574.408,0,0,1,11.6,59.24h2.437a576.146,576.146,0,0,0-11.7-59.819c-33.982-135.066-114.895-244.433-228.371-326.816-113.4-82.34-259.359-137.734-423.5-164.915-208.488-34.522-446.37-23.54-684.226,35.542-220.31,54.723-382.1,29.924-500.7-30.985m0-38.3v2.866c120.128,66.13,286.282,94.98,515.549,38.033,237.536-59,475.073-69.973,683.244-35.5,163.776,27.121,309.375,82.375,422.473,164.486,113.028,82.062,193.622,190.975,227.456,325.461a584.137,584.137,0,0,1,15.17,89.954h2.422a586.3,586.3,0,0,0-15.253-90.533c-33.981-135.068-114.9-244.433-228.37-326.816-113.406-82.34-259.359-137.734-423.5-164.915-208.488-34.522-446.37-23.54-684.226,35.542C285.7,2469.781,119.793,2440.629,0,2374.26m0-38.867v2.932c121.126,71.812,291.363,105.351,529.815,46.12,237.537-59,475.073-69.973,683.243-35.5,163.777,27.121,309.377,82.375,422.473,164.488,113.029,82.062,193.622,190.974,227.458,325.461a594.1,594.1,0,0,1,17.188,120.668h2.416a596.742,596.742,0,0,0-17.265-121.248c-33.981-135.066-114.9-244.432-228.37-326.816-113.405-82.339-259.359-137.734-423.5-164.915-208.487-34.521-446.369-23.541-684.225,35.542C290.751,2441.357,120.772,2407.468,0,2335.392m0-39.529v2.932c121.919,77.774,296.1,116.534,544.082,54.935,237.536-59,475.073-69.972,683.243-35.5C1391.1,2345.347,1536.7,2400.6,1649.8,2482.712c113.029,82.063,193.622,190.975,227.457,325.463,11.9,47.308,18.02,97.789,17.74,151.382h2.41c.281-53.794-5.86-104.469-17.81-151.962-33.981-135.067-114.895-244.433-228.37-326.816-113.406-82.34-259.36-137.734-423.5-164.915-208.487-34.522-446.369-23.541-684.226,35.542-248.018,61.6-421.96,22.5-543.5-55.543m0-40.256v3c122.474,83.989,300.5,128.453,558.349,64.408,237.537-59,475.073-69.972,683.243-35.5,163.777,27.121,309.376,82.375,422.474,164.486,113.027,82.062,193.622,190.975,227.457,325.461,14.151,56.246,20.127,116.981,16.89,182.1h2.413c3.236-65.315-2.764-126.24-16.964-182.676-33.982-135.067-114.895-244.433-228.371-326.816-113.4-82.34-259.359-137.734-423.5-164.916-208.488-34.522-446.37-23.54-684.226,35.542C299.854,2384.756,122.075,2339.9,0,2255.607m0-40.949v3.08c122.787,90.459,304.57,141.145,572.614,74.564,237.537-59,475.073-69.972,683.243-35.5,163.777,27.121,309.377,82.374,422.475,164.488,113.028,82.062,193.622,190.974,227.456,325.461,16.352,65,21.792,135.986,14.707,212.811h2.419c7.082-77.013,1.617-148.2-14.786-213.391-33.981-135.066-114.9-244.432-228.37-326.816-113.406-82.339-259.359-137.734-423.5-164.915-208.488-34.521-446.37-23.539-684.226,35.542C303.876,2356.587,122.36,2305.439,0,2214.657m0-41.692v3.166c122.828,97.172,308.251,154.664,586.881,85.457,237.536-59,475.073-69.973,683.243-35.5C1433.9,2253.2,1579.5,2308.457,1692.6,2390.57c113.029,82.063,193.622,190.974,227.458,325.462,18.51,73.575,23.036,154.824,11.245,243.525h2.432c11.781-88.89,7.223-170.334-11.339-244.1-33.981-135.066-114.895-244.433-228.37-326.816-113.406-82.34-259.36-137.734-423.5-164.915-208.487-34.521-446.369-23.541-684.225,35.542-278.787,69.248-463.926,11.227-586.3-86.3m0-42.5v3.253c122.581,104.131,311.512,169.1,601.147,97.153,237.537-59,475.073-69.972,683.243-35.5,163.777,27.121,309.376,82.375,422.474,164.486,113.029,82.062,193.622,190.975,227.457,325.462,20.39,81.046,23.814,171.4,7.147,270.773-.2,1.165-.361,2.308-.548,3.467h2.44c.169-1.026.311-2.038.485-3.07,16.723-99.71,13.284-190.4-7.185-271.749-33.981-135.067-114.9-244.433-228.37-326.816-113.405-82.34-259.359-137.734-423.5-164.915-208.486-34.522-446.369-23.541-684.226,35.542-289.841,71.994-478.47,6.43-600.564-98.083M0,2087.1v3.351c122.023,111.334,314.3,184.5,615.414,109.706,237.536-59,475.073-69.973,683.243-35.5,163.777,27.121,309.375,82.373,422.474,164.486,113.028,82.062,193.622,190.975,227.457,325.462,20.39,81.046,23.813,171.4,7.147,270.773q-2.943,17.558-4.688,34.181h2.429q1.729-16.434,4.637-33.784c16.722-99.711,13.284-190.4-7.185-271.749-33.982-135.067-114.895-244.433-228.371-326.817-113.4-82.339-259.359-137.734-423.5-164.914-208.488-34.522-446.37-23.54-684.226,35.541-301.378,74.861-493.336,1-614.83-110.732m0-44.3c120.553,119.179,315.652,202.18,629.1,124.321,237.856-59.083,475.738-70.063,684.226-35.542,164.142,27.181,310.095,82.576,423.5,164.915,113.475,82.384,194.389,191.75,228.37,326.816,20.47,81.354,23.909,172.039,7.186,271.75a517.561,517.561,0,0,0-6.89,64.5h-2.428a521.812,521.812,0,0,1,6.94-64.9c16.667-99.37,13.244-189.727-7.147-270.772-33.835-134.487-114.429-243.4-227.457-325.461-113.1-82.113-258.7-137.366-422.474-164.488-208.17-34.468-445.707-23.5-683.243,35.5C316.559,2247.22,121.12,2165.011,0,2046.251Z" transform="translate(16969 3588.201)" fill="#acbac9" fill-rule="evenodd" opacity="0.474"/>
    <g id="Groupe_3953" data-name="Groupe 3953" transform="translate(615.999 52)">
      <g id="Groupe_3952" data-name="Groupe 3952" transform="translate(16385 5872)">
        <g id="Groupe_3791" data-name="Groupe 3791" clip-path="url(#clip-path)">
          <g id="Groupe_3683" data-name="Groupe 3683" transform="translate(0 0)">
            <g id="Groupe_3682" data-name="Groupe 3682" clip-path="url(#clip-path-2)">
              <path id="Tracé_8818" data-name="Tracé 8818" d="M365.34.135C202.726-4.448,61.867,108.168,40.586,255.935,17.318,417.5,145.382,562.865,302.96,586.148c196,28.96,386.11-138.577,369.04-320.329C659.139,128.885,530.642,4.793,365.34.135" transform="translate(-29.593 0)" fill="#e6e9ec"/>
            </g>
          </g>
          <g id="Groupe_3697" data-name="Groupe 3697" transform="translate(36.99 72.085)">
            <g id="Groupe_3696" data-name="Groupe 3696" clip-path="url(#clip-path-3)">
              <g id="Groupe_3695" data-name="Groupe 3695" transform="translate(-10.032 1.892)" opacity="0.5" style="mix-blend-mode: soft-light;isolation: isolate">
                <g id="Groupe_3694" data-name="Groupe 3694">
                  <g id="Groupe_3693" data-name="Groupe 3693" clip-path="url(#clip-path-4)">
                    <path id="Tracé_8827" data-name="Tracé 8827" d="M250.514,743.312l-1.2-.224c.139-.742,13.751-75.093,5.021-152.868-8.042-71.652-37.245-160.957-130.7-179.506l.237-1.2c41.6,8.256,74.146,30.977,96.734,67.529,18.044,29.2,29.8,67.238,34.94,113.06,8.745,77.953-4.9,152.46-5.037,153.2" transform="translate(-123.64 -394.207)" fill="#beb8f2"/>
                    <path id="Tracé_8828" data-name="Tracé 8828" d="M567.924,437.811l-1.209-.155c5.149-40.241-9.995-97.48-10.148-98.053l1.177-.316c.154.576,15.359,58.047,10.18,98.524" transform="translate(-462.174 -339.288)" fill="#beb8f2"/>
                    <path id="Tracé_8829" data-name="Tracé 8829" d="M249.345,618.134c-40.945-25.7-79.324-13.568-79.706-13.442l-.38-1.158c.389-.128,39.287-12.452,80.734,13.567Z" transform="translate(-159.312 -543.552)" fill="#beb8f2"/>
                    <path id="Tracé_8830" data-name="Tracé 8830" d="M405.446,1210.51c-13.433-57.514-91.547-71.874-92.319-71.95l.04-1.217c.765,0,79.914,14.865,93.466,72.89Z" transform="translate(-271.812 -963.339)" fill="#beb8f2"/>
                    <path id="Tracé_8831" data-name="Tracé 8831" d="M734.367,1136.624l-1.193-.253c7.8-36.872,47.911-62.126,48.316-62.377l.643,1.036c-.4.248-40.075,25.236-47.765,61.594" transform="translate(-600.274 -913.803)" fill="#beb8f2"/>
                    <path id="Tracé_8832" data-name="Tracé 8832" d="M587.184,1736.913c-1.682-22.374-33.557-40.193-33.878-40.371l.588-1.067c1.337.736,32.774,18.313,34.505,41.347Z" transform="translate(-459.624 -1399.778)" fill="#beb8f2"/>
                    <path id="Tracé_8833" data-name="Tracé 8833" d="M720.247,1642.5l-1.2-.209c3.045-17.477,29.544-36.868,38.252-43.24,1.23-.9,2.293-1.678,2.455-1.854l.908.813a28.454,28.454,0,0,1-2.643,2.024c-8.609,6.3-34.81,25.473-37.771,42.465" transform="translate(-589.226 -1322.929)" fill="#beb8f2"/>
                  </g>
                </g>
              </g>
            </g>
          </g>
          <g id="Groupe_3704" data-name="Groupe 3704" transform="translate(387.47 61.762)">
            <g id="Groupe_3703" data-name="Groupe 3703" clip-path="url(#clip-path-5)">
              <g id="Groupe_3702" data-name="Groupe 3702" transform="translate(3.64 -4.97)" opacity="0.5" style="mix-blend-mode: soft-light;isolation: isolate">
                <g id="Groupe_3701" data-name="Groupe 3701">
                  <g id="Groupe_3700" data-name="Groupe 3700" clip-path="url(#clip-path-6)">
                    <path id="Tracé_8836" data-name="Tracé 8836" d="M1911.773,577.179l-.938-.117c.7-5.59,1.469-11.219,2.294-16.731a592.113,592.113,0,0,1,28.836-115.205,476.089,476.089,0,0,1,40.318-84.355,397.7,397.7,0,0,1,41.9-56.968,318.561,318.561,0,0,1,32.906-32.244c1.947-1.638,4.03-3.2,6.045-4.718,2.684-2.017,5.46-4.1,7.935-6.376l.639.7c-2.509,2.3-5.3,4.4-8.006,6.436-2,1.507-4.078,3.065-6,4.686a317.6,317.6,0,0,0-32.808,32.148,396.775,396.775,0,0,0-41.8,56.832,475.107,475.107,0,0,0-40.237,84.187,591.132,591.132,0,0,0-28.788,115.02c-.825,5.5-1.6,11.125-2.291,16.708" transform="translate(-1885.315 -260.467)" fill="#fcfdfe"/>
                    <path id="Tracé_8837" data-name="Tracé 8837" d="M2157.393,490.4l-.856-.4c17.237-36.738,2.1-104.611,1.946-105.292l.922-.21c.156.684,15.363,68.872-2.012,105.9" transform="translate(-2077.445 -357.453)" fill="#fcfdfe"/>
                    <path id="Tracé_8838" data-name="Tracé 8838" d="M1977.416,1191.778l-.9-.3c8.793-26.338,58.1-46.668,58.6-46.87l.356.876c-.493.2-49.4,20.367-58.057,46.293" transform="translate(-1936.678 -951.835)" fill="#fcfdfe"/>
                    <path id="Tracé_8839" data-name="Tracé 8839" d="M1897.086,1163.815l-.936-.136c2.609-17.937-3.417-43.792-16.967-72.8-.681-1.459-.681-1.459-.658-1.637l.937.125-.469-.062.456-.117c.034.1.292.653.59,1.292,13.627,29.175,19.681,55.22,17.046,73.337" transform="translate(-1860.045 -908.497)" fill="#fcfdfe"/>
                    <path id="Tracé_8840" data-name="Tracé 8840" d="M1918.556,1574.088l-.857-.4c8.407-18.108,37.142-25.254,37.431-25.324l.223.919c-.285.069-28.582,7.11-36.8,24.8" transform="translate(-1890.682 -1267.559)" fill="#fcfdfe"/>
                    <path id="Tracé_8841" data-name="Tracé 8841" d="M1818.818,1544.635c-3.563-15.7-11.75-30.889-25.029-46.437l.719-.614c13.381,15.667,21.634,30.99,25.231,46.842Z" transform="translate(-1793.789 -1227.849)" fill="#fcfdfe"/>
                    <path id="Tracé_8842" data-name="Tracé 8842" d="M2390.76,314.736l-.832-.449c10.722-19.892,17.375-43.274,19.562-50.958.529-1.86.718-2.514.823-2.731l.85.414c-.078.166-.381,1.23-.764,2.576-2.193,7.708-8.868,31.166-19.639,51.148" transform="translate(-2259.949 -260.57)" fill="#fcfdfe"/>
                    <path id="Tracé_8843" data-name="Tracé 8843" d="M2289.47,591.452l-.663-.674c15.1-14.865,57.479-14.39,59.275-14.362l-.015.945c-.436-.007-43.777-.5-58.6,14.091" transform="translate(-2180.876 -507.523)" fill="#fcfdfe"/>
                  </g>
                </g>
              </g>
            </g>
          </g>
          <g id="Groupe_3711" data-name="Groupe 3711" transform="translate(366.452 148.177)">
            <g id="Groupe_3710" data-name="Groupe 3710" clip-path="url(#clip-path-7)">
              <g id="Groupe_3709" data-name="Groupe 3709" transform="translate(12.11 -6.879)" opacity="0.5" style="mix-blend-mode: soft-light;isolation: isolate">
                <g id="Groupe_3708" data-name="Groupe 3708">
                  <g id="Groupe_3707" data-name="Groupe 3707" clip-path="url(#clip-path-8)">
                    <path id="Tracé_8846" data-name="Tracé 8846" d="M1828.408,1123.468l1.21.149c.092-.749,9.595-75.736,41.43-147.232,29.328-65.868,84.165-142.165,178.851-131.591l.135-1.211c-42.15-4.707-80.042,7.11-112.624,35.123-26.027,22.378-48.733,55.082-67.487,97.206-31.9,71.662-41.424,146.806-41.516,147.557" transform="translate(-1808.312 -800.162)" fill="#beb8f2"/>
                    <path id="Tracé_8847" data-name="Tracé 8847" d="M2268.215,738.891l1.2.218c7.259-39.915,39-89.9,39.318-90.4l-1.027-.657c-.321.5-32.189,50.687-39.49,90.836" transform="translate(-2152.226 -648.054)" fill="#beb8f2"/>
                    <path id="Tracé_8848" data-name="Tracé 8848" d="M2369.034,964.846c46.8-12.122,79.713,11.049,80.04,11.285l.712-.989c-.332-.24-33.684-23.747-81.058-11.476Z" transform="translate(-2230.823 -892.079)" fill="#beb8f2"/>
                    <path id="Tracé_8849" data-name="Tracé 8849" d="M1936.44,1522.606c30.193-50.761,108.992-40.833,109.752-40.672l.33-1.172c-.73-.229-80.668-9.991-111.129,41.222Z" transform="translate(-1891.97 -1298.507)" fill="#beb8f2"/>
                    <path id="Tracé_8850" data-name="Tracé 8850" d="M1875.449,1303.57l1.214.12c3.713-37.505-26.886-73.7-27.2-74.065l-.926.793c.307.358,30.571,36.171,26.908,73.152" transform="translate(-1824.055 -1102.821)" fill="#beb8f2"/>
                    <path id="Tracé_8851" data-name="Tracé 8851" d="M1837.95,1972.016c8.367-20.818,44.138-28.167,44.5-28.24l-.238-1.195c-1.5.3-36.777,7.547-45.391,28.98Z" transform="translate(-1814.889 -1660.327)" fill="#beb8f2"/>
                    <path id="Tracé_8852" data-name="Tracé 8852" d="M1761.315,1798.29l1.208.164c2.381-17.58-17.015-44.075-23.389-52.781-.9-1.231-1.678-2.293-1.779-2.509l-1.111.5a28.4,28.4,0,0,0,1.907,2.728c6.3,8.608,25.48,34.8,23.165,51.9" transform="translate(-1736.243 -1504.39)" fill="#beb8f2"/>
                  </g>
                </g>
              </g>
            </g>
          </g>
          <g id="Groupe_3718" data-name="Groupe 3718" transform="translate(372.814 268.268)">
            <g id="Groupe_3717" data-name="Groupe 3717" clip-path="url(#clip-path-9)">
              <g id="Groupe_3716" data-name="Groupe 3716" transform="translate(12.032 6.097)" opacity="0.5" style="mix-blend-mode: soft-light;isolation: isolate">
                <g id="Groupe_3715" data-name="Groupe 3715">
                  <g id="Groupe_3714" data-name="Groupe 3714" clip-path="url(#clip-path-10)">
                    <path id="Tracé_8855" data-name="Tracé 8855" d="M1852.014,1457.95l-1.147-.2c14.543-83.874,69.722-160.279,144-199.4l.543,1.03c-73.968,38.954-128.915,115.041-143.4,198.566" transform="translate(-1832.158 -1258.353)" fill="#fcfdfe"/>
                    <path id="Tracé_8856" data-name="Tracé 8856" d="M1796.765,1752.556l-1.164.032c-.906-33.442-30.241-58.734-30.538-58.985l.754-.887c.3.254,30.027,25.872,30.948,59.841" transform="translate(-1765.062 -1598.008)" fill="#fcfdfe"/>
                    <path id="Tracé_8857" data-name="Tracé 8857" d="M1866.6,1971.56l-1.039-.525c15.29-30.275,76.778-36.167,77.4-36.223l.1,1.16c-.613.055-61.464,5.889-76.463,35.588" transform="translate(-1843.649 -1787.319)" fill="#fcfdfe"/>
                    <path id="Tracé_8858" data-name="Tracé 8858" d="M2061.093,1400.99l-1.081-.434c10.035-24.965-7.1-62.5-7.273-62.873l1.056-.49c.176.381,17.518,38.371,7.3,63.8" transform="translate(-1990.016 -1320.002)" fill="#fcfdfe"/>
                    <path id="Tracé_8859" data-name="Tracé 8859" d="M2254.167,1402.929l-.636-.975c25.675-16.755,66.354-8.985,66.762-8.9l-.225,1.143c-.4-.08-40.626-7.757-65.9,8.737" transform="translate(-2147.027 -1362.219)" fill="#fcfdfe"/>
                  </g>
                </g>
              </g>
            </g>
          </g>
          <g id="Groupe_3720" data-name="Groupe 3720" transform="translate(121.684 118.776)">
            <g id="Groupe_3719" data-name="Groupe 3719" clip-path="url(#clip-path-11)">
              <rect id="Rectangle_2714" data-name="Rectangle 2714" width="360.535" height="458.17" transform="translate(0 0)" fill="url(#linear-gradient)"/>
            </g>
          </g>
          <g id="Groupe_3730" data-name="Groupe 3730" transform="translate(0 0)">
            <g id="Groupe_3729" data-name="Groupe 3729" clip-path="url(#clip-path-2)">
              <path id="Tracé_8862" data-name="Tracé 8862" d="M932.938,558.688,597.355,542.179c-7.714-.379-14,5.086-14,12.209V989.031c0,7.123,6.282,12.251,14,11.457l335.583-34.54a12.659,12.659,0,0,0,10.956-12.489V570.588a11.846,11.846,0,0,0-10.956-11.9" transform="translate(-456.166 -423.95)" fill="#d8dee8"/>
              <g id="Groupe_3725" data-name="Groupe 3725" transform="translate(133.635 124.115)" opacity="0.3" style="mix-blend-mode: multiply;isolation: isolate">
                <g id="Groupe_3724" data-name="Groupe 3724">
                  <g id="Groupe_3723" data-name="Groupe 3723" clip-path="url(#clip-path-13)">
                    <g id="Groupe_3722" data-name="Groupe 3722" transform="translate(0 -0.001)">
                      <g id="Groupe_3721" data-name="Groupe 3721" clip-path="url(#clip-path-14)">
                        <rect id="Rectangle_2715" data-name="Rectangle 2715" width="349.074" height="447.137" transform="translate(0 -0.187)" fill="url(#linear-gradient-2)"/>
                      </g>
                    </g>
                  </g>
                </g>
              </g>
              <path id="Tracé_8864" data-name="Tracé 8864" d="M1058.081,1078.732l-287.026,27.655V706.245l287.026,10.81Z" transform="translate(-602.938 -552.258)" fill="#fff"/>
              <g id="Groupe_3728" data-name="Groupe 3728" transform="translate(225.63 124.115)" opacity="0.3" style="mix-blend-mode: multiply;isolation: isolate">
                <g id="Groupe_3727" data-name="Groupe 3727">
                  <g id="Groupe_3726" data-name="Groupe 3726" clip-path="url(#clip-path-15)">
                    <path id="Tracé_8865" data-name="Tracé 8865" d="M1149.544,611.878l-114.711,1.435,2.573-25.87a7.011,7.011,0,0,1,5.823-6.612l19.427-2.985a6.988,6.988,0,0,0,5.257-4.034l2.106-4.575,50.813,3.138Z" transform="translate(-1034.832 -569.238)" fill="#97a6b7"/>
                  </g>
                </g>
              </g>
            </g>
          </g>
          <g id="Groupe_3732" data-name="Groupe 3732" transform="translate(225.63 76.491)">
            <g id="Groupe_3731" data-name="Groupe 3731" clip-path="url(#clip-path-16)">
              <rect id="Rectangle_2719" data-name="Rectangle 2719" width="181.281" height="100.508" transform="translate(-0.643 0)" fill="url(#linear-gradient-3)"/>
            </g>
          </g>
          <g id="Groupe_3737" data-name="Groupe 3737" transform="translate(0 0)">
            <g id="Groupe_3736" data-name="Groupe 3736" clip-path="url(#clip-path-2)">
              <path id="Tracé_8867" data-name="Tracé 8867" d="M1215.538,426.765a6.138,6.138,0,0,0-5.844-5.114l-18.33-.822c-8.319-.373-14.418-7.132-14.113-15.692l.707-19.838a6.438,6.438,0,0,0-6.09-6.824l-6.022-.36c-4.592-.275-7.65-4.323-7.006-9a13.6,13.6,0,0,0-12.6-15.794,16.505,16.505,0,0,0-17.047,13.982,9.22,9.22,0,0,1-1.273,3.533,9.427,9.427,0,0,1-8.453,4.511l-6.212-.371a8.236,8.236,0,0,0-8.294,6.134l-5.165,20.137a19.726,19.726,0,0,1-19.608,14.6l-20.107-.9a8.734,8.734,0,0,0-8.041,4.781l-12.117,24.042a2.782,2.782,0,0,0,2.392,4.168l174.368,5.792a3.238,3.238,0,0,0,3.176-3.731Zm-71.772-56.277a3.991,3.991,0,0,1-3.719-4.663,4.835,4.835,0,0,1,4.982-4.11,3.991,3.991,0,0,1,3.706,4.662,4.837,4.837,0,0,1-4.969,4.111" transform="translate(-812.907 -276.255)" fill="#97a6b7"/>
              <g id="Groupe_3735" data-name="Groupe 3735" transform="translate(226.663 108.196)" opacity="0.5" style="mix-blend-mode: soft-light;isolation: isolate">
                <g id="Groupe_3734" data-name="Groupe 3734">
                  <g id="Groupe_3733" data-name="Groupe 3733" clip-path="url(#clip-path-18)">
                    <path id="Tracé_8868" data-name="Tracé 8868" d="M1185.7,549.593c-15.554-9.6-27.488-2.794-37.182-13.623-10.377-11.593-3.378-26.856-14.115-34.058-6.874-4.611-13.006-.544-21-1.792a22.048,22.048,0,0,1-9.3-3.889l-4.308,16.794a19.727,19.727,0,0,1-19.608,14.6l-20.107-.9a8.736,8.736,0,0,0-8.041,4.781l-12.116,24.042a2.781,2.781,0,0,0,2.392,4.167l158.465,5.264a47.275,47.275,0,0,0-15.08-15.387" transform="translate(-1039.571 -496.231)" fill="#fff"/>
                  </g>
                </g>
              </g>
              <path id="Tracé_8869" data-name="Tracé 8869" d="M1161.855,940.632l-222.294-1.354v-13.2l222.294,1.838Z" transform="translate(-734.703 -724.16)" fill="#d8dee8"/>
              <path id="Tracé_8870" data-name="Tracé 8870" d="M1161.855,1045.772l-222.294-.505v-13.2l222.294.99Z" transform="translate(-734.703 -807.039)" fill="#d8dee8"/>
              <path id="Tracé_8871" data-name="Tracé 8871" d="M1161.855,1150.913l-222.294.343v-13.2l222.294.142Z" transform="translate(-734.703 -889.92)" fill="#d8dee8"/>
              <path id="Tracé_8872" data-name="Tracé 8872" d="M1161.855,1253.519l-222.294,1.191v-13.2l222.294-.707Z" transform="translate(-734.703 -970.265)" fill="#d8dee8"/>
              <path id="Tracé_8873" data-name="Tracé 8873" d="M1112.335,1421.062,924.3,1425.59v-13.746l188.03-3.669Z" transform="translate(-722.773 -1101.142)" fill="#d8dee8"/>
              <path id="Tracé_8874" data-name="Tracé 8874" d="M1112.335,1524.539l-188.03,6.033v-13.746l188.03-5.174Z" transform="translate(-722.773 -1182.058)" fill="#d8dee8"/>
              <path id="Tracé_8875" data-name="Tracé 8875" d="M1112.335,1628.016l-188.03,7.538v-13.746l188.03-6.678Z" transform="translate(-722.773 -1262.974)" fill="#d8dee8"/>
              <path id="Tracé_8876" data-name="Tracé 8876" d="M1112.335,1731.494l-188.03,9.042V1726.79l188.03-8.182Z" transform="translate(-722.773 -1343.889)" fill="#d8dee8"/>
              <path id="Tracé_8877" data-name="Tracé 8877" d="M1870.384,1417.525l-24.734.6v-12.828l24.734-.483Z" transform="translate(-1443.233 -1098.511)" fill="#d8dee8"/>
              <path id="Tracé_8878" data-name="Tracé 8878" d="M1870.384,1519.624l-24.734.794v-12.828l24.734-.681Z" transform="translate(-1443.233 -1178.349)" fill="#d8dee8"/>
              <path id="Tracé_8879" data-name="Tracé 8879" d="M1870.384,1621.721l-24.734.992v-12.828l24.734-.879Z" transform="translate(-1443.233 -1258.186)" fill="#d8dee8"/>
              <path id="Tracé_8880" data-name="Tracé 8880" d="M1870.384,1723.82l-24.734,1.189v-12.828l24.734-1.076Z" transform="translate(-1443.233 -1338.023)" fill="#d8dee8"/>
              <path id="Tracé_8881" data-name="Tracé 8881" d="M1112.335,1899.416,924.3,1910.9v-13.746l188.03-10.624Z" transform="translate(-722.773 -1475.198)" fill="#d8dee8"/>
              <path id="Tracé_8882" data-name="Tracé 8882" d="M1112.335,2002.893,924.3,2015.88v-13.746l188.03-12.128Z" transform="translate(-722.773 -1556.114)" fill="#d8dee8"/>
              <path id="Tracé_8883" data-name="Tracé 8883" d="M1112.335,2106.37,924.3,2120.862v-13.746l188.03-13.632Z" transform="translate(-722.773 -1637.03)" fill="#d8dee8"/>
              <path id="Tracé_8884" data-name="Tracé 8884" d="M1112.335,2209.848l-188.03,16V2212.1l188.03-15.136Z" transform="translate(-722.773 -1717.945)" fill="#d8dee8"/>
              <path id="Tracé_8885" data-name="Tracé 8885" d="M1870.384,1889.5l-24.734,1.51v-12.828l24.734-1.4Z" transform="translate(-1443.233 -1467.582)" fill="#d8dee8"/>
              <path id="Tracé_8886" data-name="Tracé 8886" d="M1870.384,1991.6l-24.734,1.708v-12.828l24.734-1.6Z" transform="translate(-1443.233 -1547.419)" fill="#d8dee8"/>
              <path id="Tracé_8887" data-name="Tracé 8887" d="M1870.384,2093.7l-24.734,1.906v-12.828l24.734-1.793Z" transform="translate(-1443.233 -1627.256)" fill="#d8dee8"/>
              <path id="Tracé_8888" data-name="Tracé 8888" d="M1870.384,2195.8l-24.734,2.1v-12.828l24.734-1.991Z" transform="translate(-1443.233 -1707.093)" fill="#d8dee8"/>
            </g>
          </g>
          <g id="Groupe_3739" data-name="Groupe 3739" transform="translate(31.308 308.011)">
            <g id="Groupe_3738" data-name="Groupe 3738" clip-path="url(#clip-path-19)">
              <rect id="Rectangle_2722" data-name="Rectangle 2722" width="546.797" height="182.486" transform="translate(0 -0.002)" fill="url(#linear-gradient-4)"/>
            </g>
          </g>
          <g id="Groupe_3741" data-name="Groupe 3741" transform="translate(0 0)">
            <g id="Groupe_3740" data-name="Groupe 3740" clip-path="url(#clip-path-2)">
              <path id="Tracé_8890" data-name="Tracé 8890" d="M685.941,1424.518l-470.985-11.836c-26.116-.656-47.756,19.028-47.756,43.981v94.579c0,24.953,21.64,43.908,47.756,42.372l470.985-27.7c15.612-.918,28.056-16.857,28.056-35.617v-71.1c0-18.76-12.445-34.279-28.056-34.672" transform="translate(-130.744 -1104.654)" fill="#97a6b7"/>
            </g>
          </g>
          <g id="Groupe_3743" data-name="Groupe 3743" transform="translate(42.945 313.91)">
            <g id="Groupe_3742" data-name="Groupe 3742" clip-path="url(#clip-path-21)">
              <rect id="Rectangle_2724" data-name="Rectangle 2724" width="437.582" height="541.85" transform="matrix(0.55, -0.835, 0.835, 0.55, -78.302, 118.819)" fill="url(#linear-gradient-5)"/>
            </g>
          </g>
          <g id="Groupe_3745" data-name="Groupe 3745" transform="translate(0 0)">
            <g id="Groupe_3744" data-name="Groupe 3744" clip-path="url(#clip-path-2)">
              <path id="Tracé_8892" data-name="Tracé 8892" d="M469.608,1601.447l13.421,26.573a3.349,3.349,0,0,0,2.551,1.8l29.325,3.947a3.251,3.251,0,0,1,1.821,5.563l-21.1,20.773a3.342,3.342,0,0,0-.964,2.95l5.025,28.77a3.46,3.46,0,0,1-4.854,3.672l-26.709-12.784a3.537,3.537,0,0,0-3.207.107l-27.493,14.968a3.4,3.4,0,0,1-5.152-3.387l5.332-29.965a3.251,3.251,0,0,0-1.019-2.985l-22.793-20.794a3.413,3.413,0,0,1,2.005-5.883l31.314-4.641a3.535,3.535,0,0,0,2.64-1.87l13.676-26.848a3.489,3.489,0,0,1,6.18.034" transform="translate(-322.712 -1250.8)" fill="#d8dee8"/>
            </g>
          </g>
          <g id="Groupe_3747" data-name="Groupe 3747" transform="translate(203.085 349.451)">
            <g id="Groupe_3746" data-name="Groupe 3746" clip-path="url(#clip-path-23)">
              <rect id="Rectangle_2726" data-name="Rectangle 2726" width="134.875" height="134.902" transform="matrix(0.7, -0.714, 0.714, 0.7, -48.165, 48.176)" fill="#ffbe31"/>
            </g>
          </g>
          <g id="Groupe_3749" data-name="Groupe 3749" transform="translate(304.88 350.073)">
            <g id="Groupe_3748" data-name="Groupe 3748" clip-path="url(#clip-path-24)">
              <rect id="Rectangle_2727" data-name="Rectangle 2727" width="125.11" height="125.072" transform="translate(-45.738 45.794) rotate(-45.574)" fill="#ffbe31"/>
            </g>
          </g>
          <g id="Groupe_3751" data-name="Groupe 3751" transform="translate(396.982 350.638)">
            <g id="Groupe_3750" data-name="Groupe 3750" clip-path="url(#clip-path-25)">
              <rect id="Rectangle_2728" data-name="Rectangle 2728" width="114.087" height="111.894" transform="translate(-38.479 62.988) rotate(-59.095)" fill="#ffbe31"/>
            </g>
          </g>
          <g id="Groupe_3756" data-name="Groupe 3756" transform="translate(0 0)">
            <g id="Groupe_3755" data-name="Groupe 3755" clip-path="url(#clip-path-2)">
              <path id="Tracé_8896" data-name="Tracé 8896" d="M2243.03,1612.073l9.083,21.861a2.344,2.344,0,0,0,1.729,1.484l19.927,3.292c1.835.3,2.567,3.017,1.241,4.6l-14.351,17.078a3.126,3.126,0,0,0-.655,2.427l3.412,23.732c.318,2.209-1.628,3.982-3.3,3l-18.091-10.663a2.015,2.015,0,0,0-2.167.072l-18.526,12.139c-1.749,1.146-3.8-.511-3.462-2.806l3.583-24.54a3.04,3.04,0,0,0-.685-2.451l-15.292-17.092c-1.441-1.61-.646-4.456,1.343-4.811l21.031-3.761a2.452,2.452,0,0,0,1.777-1.532l9.225-22.047a2.187,2.187,0,0,1,4.175.023" transform="translate(-1724.03 -1259.373)" fill="#d8dee8"/>
              <g id="Groupe_3754" data-name="Groupe 3754" transform="translate(36.456 308.013)" opacity="0.1" style="mix-blend-mode: multiply;isolation: isolate">
                <g id="Groupe_3753" data-name="Groupe 3753">
                  <g id="Groupe_3752" data-name="Groupe 3752" clip-path="url(#clip-path-27)">
                    <path id="Tracé_8897" data-name="Tracé 8897" d="M620.434,1503.008c-58.46-14.931-98.3,64.576-168.334,48.587-61.871-14.126-63.614-80.548-138.611-127.729q-7.8-4.9-15.894-9.108l-82.638-2.077c-26.116-.656-47.756,19.028-47.756,43.981v94.579c0,24.953,21.64,43.908,47.756,42.372l467.99-27.528c-21.117-43.036-43.6-58.248-62.513-63.077" transform="translate(-167.2 -1412.667)" fill="#97a6b7"/>
                  </g>
                </g>
              </g>
            </g>
          </g>
          <g id="Groupe_3758" data-name="Groupe 3758" transform="translate(89.982 348.761)">
            <g id="Groupe_3757" data-name="Groupe 3757" clip-path="url(#clip-path-28)">
              <rect id="Rectangle_2731" data-name="Rectangle 2731" width="128.642" height="133.281" transform="translate(-31.25 89.446) rotate(-71.345)" fill="#ffbe31"/>
            </g>
          </g>
          <g id="Groupe_3760" data-name="Groupe 3760" transform="translate(154.535 193.362)">
            <g id="Groupe_3759" data-name="Groupe 3759" clip-path="url(#clip-path-29)">
              <rect id="Rectangle_2732" data-name="Rectangle 2732" width="109.675" height="114.952" transform="matrix(0.25, -0.968, 0.968, 0.25, -21.397, 83.035)" fill="url(#linear-gradient-6)"/>
            </g>
          </g>
          <g id="Groupe_3762" data-name="Groupe 3762" transform="translate(191.571 140.295)">
            <g id="Groupe_3761" data-name="Groupe 3761" clip-path="url(#clip-path-30)">
              <rect id="Rectangle_2733" data-name="Rectangle 2733" width="93.99" height="106.199" transform="translate(-3.364 90.087) rotate(-87.861)" fill="url(#linear-gradient-7)"/>
            </g>
          </g>
          <g id="Groupe_3764" data-name="Groupe 3764" transform="translate(280.474 135.459)">
            <g id="Groupe_3763" data-name="Groupe 3763" clip-path="url(#clip-path-31)">
              <rect id="Rectangle_2734" data-name="Rectangle 2734" width="77.563" height="95.948" transform="translate(-4.45 71.752) rotate(-86.451)" fill="url(#linear-gradient-8)"/>
            </g>
          </g>
          <g id="Groupe_3766" data-name="Groupe 3766" transform="translate(358.996 149.178)">
            <g id="Groupe_3765" data-name="Groupe 3765" clip-path="url(#clip-path-32)">
              <rect id="Rectangle_2735" data-name="Rectangle 2735" width="121.403" height="121.261" transform="translate(-41.593 31.857) rotate(-37.449)" fill="url(#linear-gradient-9)"/>
            </g>
          </g>
          <g id="Groupe_3768" data-name="Groupe 3768" transform="translate(396.589 206.88)">
            <g id="Groupe_3767" data-name="Groupe 3767" clip-path="url(#clip-path-33)">
              <rect id="Rectangle_2736" data-name="Rectangle 2736" width="95.823" height="95.59" transform="matrix(0.256, -0.967, 0.967, 0.256, -19.429, 73.275)" fill="url(#linear-gradient-10)"/>
            </g>
          </g>
          <g id="Groupe_3770" data-name="Groupe 3770" transform="translate(315.982 197.527)">
            <g id="Groupe_3769" data-name="Groupe 3769" clip-path="url(#clip-path-34)">
              <rect id="Rectangle_2737" data-name="Rectangle 2737" width="119.962" height="120.116" transform="matrix(0.675, -0.738, 0.738, 0.675, -41.707, 45.633)" fill="url(#linear-gradient-11)"/>
            </g>
          </g>
          <g id="Groupe_3772" data-name="Groupe 3772" transform="translate(302.826 253.809)">
            <g id="Groupe_3771" data-name="Groupe 3771" clip-path="url(#clip-path-35)">
              <rect id="Rectangle_2738" data-name="Rectangle 2738" width="45.611" height="42.22" transform="translate(0 0)" fill="url(#linear-gradient-12)"/>
            </g>
          </g>
          <g id="Groupe_3774" data-name="Groupe 3774" transform="translate(311.92 262.075)">
            <g id="Groupe_3773" data-name="Groupe 3773" clip-path="url(#clip-path-36)">
              <rect id="Rectangle_2739" data-name="Rectangle 2739" width="27.713" height="25.68" transform="translate(0 0)" fill="url(#linear-gradient-13)"/>
            </g>
          </g>
          <g id="Groupe_3776" data-name="Groupe 3776" transform="translate(157.703 193.546)">
            <g id="Groupe_3775" data-name="Groupe 3775" clip-path="url(#clip-path-37)">
              <rect id="Rectangle_2740" data-name="Rectangle 2740" width="109.542" height="114.918" transform="translate(-21.364 82.905) rotate(-75.55)" fill="url(#linear-gradient-14)"/>
            </g>
          </g>
          <g id="Groupe_3778" data-name="Groupe 3778" transform="translate(194.739 140.198)">
            <g id="Groupe_3777" data-name="Groupe 3777" clip-path="url(#clip-path-38)">
              <rect id="Rectangle_2741" data-name="Rectangle 2741" width="93.941" height="106.197" transform="matrix(0.037, -0.999, 0.999, 0.037, -3.362, 90.038)" fill="url(#linear-gradient-15)"/>
            </g>
          </g>
          <g id="Groupe_3780" data-name="Groupe 3780" transform="translate(283.642 135.459)">
            <g id="Groupe_3779" data-name="Groupe 3779" clip-path="url(#clip-path-39)">
              <rect id="Rectangle_2742" data-name="Rectangle 2742" width="77.563" height="95.948" transform="matrix(0.062, -0.998, 0.998, 0.062, -4.45, 71.751)" fill="url(#linear-gradient-16)"/>
            </g>
          </g>
          <g id="Groupe_3782" data-name="Groupe 3782" transform="translate(362.164 149.214)">
            <g id="Groupe_3781" data-name="Groupe 3781" clip-path="url(#clip-path-40)">
              <rect id="Rectangle_2743" data-name="Rectangle 2743" width="121.348" height="121.189" transform="matrix(0.794, -0.608, 0.608, 0.794, -41.55, 31.823)" fill="url(#linear-gradient-17)"/>
            </g>
          </g>
          <g id="Groupe_3784" data-name="Groupe 3784" transform="translate(399.758 206.928)">
            <g id="Groupe_3783" data-name="Groupe 3783" clip-path="url(#clip-path-41)">
              <rect id="Rectangle_2744" data-name="Rectangle 2744" width="95.777" height="95.578" transform="matrix(0.256, -0.967, 0.967, 0.256, -19.417, 73.23)" fill="url(#linear-gradient-18)"/>
            </g>
          </g>
          <g id="Groupe_3786" data-name="Groupe 3786" transform="translate(319.15 197.527)">
            <g id="Groupe_3785" data-name="Groupe 3785" clip-path="url(#clip-path-42)">
              <rect id="Rectangle_2745" data-name="Rectangle 2745" width="119.962" height="120.116" transform="translate(-41.707 45.633) rotate(-47.574)" fill="url(#linear-gradient-19)"/>
            </g>
          </g>
          <g id="Groupe_3788" data-name="Groupe 3788" transform="translate(305.994 253.809)">
            <g id="Groupe_3787" data-name="Groupe 3787" clip-path="url(#clip-path-43)">
              <rect id="Rectangle_2746" data-name="Rectangle 2746" width="45.611" height="42.22" transform="translate(0 0)" fill="url(#linear-gradient-20)"/>
            </g>
          </g>
          <g id="Groupe_3790" data-name="Groupe 3790" transform="translate(0 0)">
            <g id="Groupe_3789" data-name="Groupe 3789" clip-path="url(#clip-path-2)">
              <path id="Tracé_8914" data-name="Tracé 8914" d="M1459.061,1227.57c-7.666-.092-13.941-5.942-13.941-13.039s6.275-12.725,13.941-12.546c7.614.178,13.771,6.025,13.771,13.036s-6.157,12.64-13.771,12.549m0-23.088c-6.166-.137-11.208,4.392-11.208,10.1s5.042,10.413,11.208,10.494c6.132.081,11.1-4.45,11.1-10.1s-4.965-10.356-11.1-10.492" transform="translate(-1130.032 -939.906)" fill="#d8dee8"/>
            </g>
          </g>
        </g>
      </g>
      <text id="Problem_Context_Overcome_the_Challenge_of_Multiple_Service_Assurance_involved_by_New_Generation_Wireless_Networks_Quality_of_Experience_is_not_only_Quality_of_Service_KQI_not_like_a_suite_of_loosely_connected_QoS_KPIs_So_many_NetOps_approaches_inco" data-name="Problem – Context 
Overcome the Challenge of Multiple Service Assurance 
involved by New Generation Wireless Networks 

Quality of Experience is not only Quality of Service KQI, 
not like a suite of loosely connected QoS KPIs
So many NetOps approaches inco" transform="translate(17140 5794)" fill="#100a26" font-size="34" font-family="Arial-BoldMT, Arial" font-weight="700"><tspan x="0" y="31">PROBLEM – CONTEXT </tspan><tspan font-family="ArialMT, Arial" font-weight="400"><tspan x="0" y="76">Overcome the Challenge of Multiple Service Assurance </tspan><tspan x="0" y="121">involved by New Generation Wireless Networks </tspan><tspan x="0" y="166"></tspan></tspan><tspan x="0" y="211">Quality of Experience is not only Quality of Service KQI, </tspan><tspan x="0" y="256">not like a suite of loosely connected QoS KPIs</tspan><tspan font-family="ArialMT, Arial" font-weight="400"><tspan x="0" y="301">So many NetOps approaches incorporate QoE measures by</tspan><tspan x="0" y="346">combining a collection of carefully selected QoS measurements</tspan><tspan x="0" y="391">in the hope of tackling the well-known challenge of understanding</tspan><tspan x="0" y="436">customer perception. </tspan><tspan x="0" y="481"></tspan></tspan><tspan x="0" y="526">Quantifying end-user perception of application quality is a huge</tspan><tspan x="0" y="571" xml:space="preserve">task of  engineering and AI </tspan><tspan y="571" font-family="ArialMT, Arial" font-weight="400"></tspan><tspan font-family="ArialMT, Arial" font-weight="400"><tspan x="0" y="616">How successfully can NetOps guarantee that their QoE KPI reflects</tspan><tspan x="0" y="661">the entire quality acceptability of network customers and end-user</tspan><tspan x="0" y="706">applications or services, as defined by the ITU standard? </tspan></tspan></text>
    </g>
  </g>
</svg>
