<svg xmlns="http://www.w3.org/2000/svg" xmlns:xlink="http://www.w3.org/1999/xlink" width="1232" height="1081.715" viewBox="0 0 1232 1081.715">
  <defs>
    <filter id="Rectangle_1994" x="366" y="0" width="501" height="389" filterUnits="userSpaceOnUse">
      <feOffset dy="9" input="SourceAlpha"/>
      <feGaussianBlur stdDeviation="18" result="blur"/>
      <feFlood flood-opacity="0.161"/>
      <feComposite operator="in" in2="blur"/>
      <feComposite in="SourceGraphic"/>
    </filter>
    <filter id="Rectangle_1995" x="0" y="71" width="1232" height="495" filterUnits="userSpaceOnUse">
      <feOffset dy="13" input="SourceAlpha"/>
      <feGaussianBlur stdDeviation="28" result="blur-2"/>
      <feFlood flood-opacity="0.161"/>
      <feComposite operator="in" in2="blur-2"/>
      <feComposite in="SourceGraphic"/>
    </filter>
    <filter id="Rectangle_6" x="39" y="106" width="645" height="438" filterUnits="userSpaceOnUse">
      <feOffset dy="23" input="SourceAlpha"/>
      <feGaussianBlur stdDeviation="28" result="blur-3"/>
      <feFlood flood-opacity="0.11"/>
      <feComposite operator="in" in2="blur-3"/>
      <feComposite in="SourceGraphic"/>
    </filter>
    <filter id="Rectangle_1996" x="39" y="106" width="645" height="274" filterUnits="userSpaceOnUse">
      <feOffset dy="23" input="SourceAlpha"/>
      <feGaussianBlur stdDeviation="28" result="blur-4"/>
      <feFlood flood-opacity="0.11"/>
      <feComposite operator="in" in2="blur-4"/>
      <feComposite in="SourceGraphic"/>
    </filter>
    <filter id="Rectangle_6-2" x="549" y="106" width="645" height="438" filterUnits="userSpaceOnUse">
      <feOffset dy="23" input="SourceAlpha"/>
      <feGaussianBlur stdDeviation="28" result="blur-5"/>
      <feFlood flood-opacity="0.11"/>
      <feComposite operator="in" in2="blur-5"/>
      <feComposite in="SourceGraphic"/>
    </filter>
    <filter id="Rectangle_1997" x="549" y="106" width="645" height="274" filterUnits="userSpaceOnUse">
      <feOffset dy="23" input="SourceAlpha"/>
      <feGaussianBlur stdDeviation="28" result="blur-6"/>
      <feFlood flood-opacity="0.11"/>
      <feComposite operator="in" in2="blur-6"/>
      <feComposite in="SourceGraphic"/>
    </filter>
    <filter id="Controls-Background" x="95" y="449" width="1064.021" height="632.715" filterUnits="userSpaceOnUse">
      <feOffset dy="23" input="SourceAlpha"/>
      <feGaussianBlur stdDeviation="28" result="blur-7"/>
      <feFlood flood-opacity="0.161"/>
      <feComposite operator="in" in2="blur-7"/>
      <feComposite in="SourceGraphic"/>
    </filter>
    <filter id="Handle" x="898.688" y="609.811" width="33.757" height="33.757" filterUnits="userSpaceOnUse">
      <feOffset dx="3" dy="3" input="SourceAlpha"/>
      <feGaussianBlur stdDeviation="3" result="blur-8"/>
      <feFlood flood-color="#262323" flood-opacity="0.161"/>
      <feComposite operator="in" in2="blur-8"/>
      <feComposite in="SourceGraphic"/>
    </filter>
    <filter id="Handle-2" x="899.563" y="661.458" width="33.757" height="33.757" filterUnits="userSpaceOnUse">
      <feOffset dx="3" dy="3" input="SourceAlpha"/>
      <feGaussianBlur stdDeviation="3" result="blur-9"/>
      <feFlood flood-color="#262323" flood-opacity="0.161"/>
      <feComposite operator="in" in2="blur-9"/>
      <feComposite in="SourceGraphic"/>
    </filter>
    <filter id="Handle-3" x="899.974" y="715.11" width="33.757" height="33.757" filterUnits="userSpaceOnUse">
      <feOffset dx="3" dy="3" input="SourceAlpha"/>
      <feGaussianBlur stdDeviation="3" result="blur-10"/>
      <feFlood flood-color="#262323" flood-opacity="0.161"/>
      <feComposite operator="in" in2="blur-10"/>
      <feComposite in="SourceGraphic"/>
    </filter>
    <filter id="Handle-4" x="899.974" y="769.678" width="33.757" height="33.757" filterUnits="userSpaceOnUse">
      <feOffset dx="3" dy="3" input="SourceAlpha"/>
      <feGaussianBlur stdDeviation="3" result="blur-11"/>
      <feFlood flood-color="#262323" flood-opacity="0.161"/>
      <feComposite operator="in" in2="blur-11"/>
      <feComposite in="SourceGraphic"/>
    </filter>
    <filter id="Handle-5" x="899.974" y="825.171" width="33.757" height="33.757" filterUnits="userSpaceOnUse">
      <feOffset dx="3" dy="3" input="SourceAlpha"/>
      <feGaussianBlur stdDeviation="3" result="blur-12"/>
      <feFlood flood-color="#262323" flood-opacity="0.161"/>
      <feComposite operator="in" in2="blur-12"/>
      <feComposite in="SourceGraphic"/>
    </filter>
    <filter id="Handle-6" x="899.563" y="880.302" width="33.757" height="33.757" filterUnits="userSpaceOnUse">
      <feOffset dx="3" dy="3" input="SourceAlpha"/>
      <feGaussianBlur stdDeviation="3" result="blur-13"/>
      <feFlood flood-color="#262323" flood-opacity="0.161"/>
      <feComposite operator="in" in2="blur-13"/>
      <feComposite in="SourceGraphic"/>
    </filter>
  </defs>
  <g id="Groupe_3996" data-name="Groupe 3996" transform="translate(-7375 -1314)">
    <g id="Groupe_3895" data-name="Groupe 3895">
      <g id="Groupe_3892" data-name="Groupe 3892" transform="translate(6474 1080)" opacity="0.234">
        <g transform="matrix(1, 0, 0, 1, 901, 234)" filter="url(#Rectangle_1994)">
          <rect id="Rectangle_1994-2" data-name="Rectangle 1994" width="393" height="281" rx="50" transform="translate(420 45)" fill="#2276b2"/>
        </g>
        <g transform="matrix(1, 0, 0, 1, 901, 234)" filter="url(#Rectangle_1995)">
          <rect id="Rectangle_1995-2" data-name="Rectangle 1995" width="1064" height="327" rx="50" transform="translate(84 142)" fill="#f7f3f2" opacity="0.679"/>
        </g>
      </g>
      <g id="Groupe_3893" data-name="Groupe 3893" transform="translate(6649 1427)">
        <g transform="matrix(1, 0, 0, 1, 726, -113)" filter="url(#Rectangle_6)">
          <rect id="Rectangle_6-3" data-name="Rectangle 6" width="477" height="270" rx="20" transform="translate(123 167)" fill="#fff"/>
        </g>
        <g transform="matrix(1, 0, 0, 1, 726, -113)" filter="url(#Rectangle_1996)">
          <path id="Rectangle_1996-2" data-name="Rectangle 1996" d="M20,0H457a20,20,0,0,1,20,20v86a0,0,0,0,1,0,0H0a0,0,0,0,1,0,0V20A20,20,0,0,1,20,0Z" transform="translate(123 167)" fill="#2478b4"/>
        </g>
        <text id="Are_you_still_struggling_to_correlate_your_data_with_any_other_additional_insights_for_a_complete_quality_understanding_This_process_must_be_automated_as_soon_as_possible_" data-name="Are you still struggling to correlate your data with any other additional insights for a complete quality understanding ? This process must be automated as soon as possible…" transform="translate(872 180)" fill="#717171" font-size="20" font-family="ArialMT, Arial"><tspan x="0" y="18">Are you still struggling to correlate your data </tspan><tspan x="0" y="43">with any other additional insights for a complete </tspan><tspan x="0" y="68">quality understanding ? This process must be </tspan><tspan x="0" y="93">automated as soon as possible…</tspan></text>
        <text id="Adjusting_network_quality_cannot_rely_solely_on_system_performance_factors_from_one_domain." data-name="Adjusting network quality cannot rely solely on system performance factors from one domain." transform="translate(874 71)" fill="#f2eaea" font-size="19" font-family="SegoeUI-Bold, Segoe UI" font-weight="700"><tspan x="0" y="21">ADJUSTING NETWORK QUALITY CANNOT RELY </tspan><tspan x="0" y="46">SOLELY ON SYSTEM PERFORMANCE FACTORS </tspan><tspan x="0" y="71">FROM ONE DOMAIN.</tspan></text>
      </g>
      <g id="Groupe_3894" data-name="Groupe 3894" transform="translate(6649 1427)">
        <g transform="matrix(1, 0, 0, 1, 726, -113)" filter="url(#Rectangle_6-2)">
          <rect id="Rectangle_6-4" data-name="Rectangle 6" width="477" height="270" rx="20" transform="translate(633 167)" fill="#fff"/>
        </g>
        <text id="Supporting_extremely_high_data_rates_low_latency_and_radically_new_applications_expected_by_industries_requires_that_you_develop_a_novel_framework_for_operating_managing_and_optimizing_networks._" data-name="Supporting extremely high data rates, low latency, and radically new applications expected by industries requires that you develop a novel framework for operating, managing, and optimizing networks. " transform="translate(1382 180)" fill="#717171" font-size="20" font-family="ArialMT, Arial"><tspan x="0" y="18">Supporting extremely high data rates, low </tspan><tspan x="0" y="43">latency, and radically new applications expected </tspan><tspan x="0" y="68">by industries requires that you develop a novel </tspan><tspan x="0" y="93">framework for operating, managing, and </tspan><tspan x="0" y="118">optimizing networks. </tspan></text>
        <g transform="matrix(1, 0, 0, 1, 726, -113)" filter="url(#Rectangle_1997)">
          <path id="Rectangle_1997-2" data-name="Rectangle 1997" d="M20,0H457a20,20,0,0,1,20,20v86a0,0,0,0,1,0,0H0a0,0,0,0,1,0,0V20A20,20,0,0,1,20,0Z" transform="translate(633 167)" fill="#2478b4"/>
        </g>
        <text id="Using_digital_processes_for_network_maintenance_enables_greater_flexibility_in_operations_management" data-name="Using digital processes for network maintenance enables greater flexibility in operations management" transform="translate(1382 74)" fill="#f2eaea" font-size="19" font-family="SegoeUI-Bold, Segoe UI" font-weight="700"><tspan x="0" y="21">USING DIGITAL PROCESSES FOR NETWORK </tspan><tspan x="0" y="46">MAINTENANCE ENABLES GREATER FLEXIBILITY </tspan><tspan x="0" y="71">IN OPERATIONS MANAGEMENT</tspan></text>
      </g>
    </g>
    <g id="Groupe_3896" data-name="Groupe 3896" transform="translate(7554 1824)">
      <g transform="matrix(1, 0, 0, 1, -179, -510)" filter="url(#Controls-Background)">
        <path id="Controls-Background-2" data-name="Controls-Background" d="M0,0H896.021V464.715H0Z" transform="translate(179 510)" fill="#fff"/>
      </g>
      <g id="Groupe_411" data-name="Groupe 411">
        <rect id="TopBackgroung" width="896.021" height="52.523" transform="translate(0)" fill="#f2f2f2"/>
      </g>
      <g id="Groupe_373" data-name="Groupe 373" transform="translate(492.81 80.862)">
        <g id="Groupe_352" data-name="Groupe 352" transform="translate(0 0)">
          <text id="_60_" data-name="60%" transform="translate(363.427 38.824)" fill="#17e640" font-size="13" font-family="SegoeUI-Bold, Segoe UI" font-weight="700"><tspan x="0" y="0">60%</tspan></text>
          <text id="_98_" data-name="98%" transform="translate(364.303 90.903)" fill="#17e640" font-size="13" font-family="SegoeUI-Bold, Segoe UI" font-weight="700"><tspan x="0" y="0">98%</tspan></text>
          <text id="_75_" data-name="75%" transform="translate(364.303 144.375)" fill="#070707" font-size="13" font-family="SegoeUI-Bold, Segoe UI" font-weight="700"><tspan x="0" y="0">75%</tspan></text>
          <text id="_75_2" data-name="75%" transform="translate(364.303 198.769)" fill="#070707" font-size="13" font-family="SegoeUI-Bold, Segoe UI" font-weight="700"><tspan x="0" y="0">75%</tspan></text>
          <text id="_73_" data-name="73%" transform="translate(364.303 254.085)" fill="#070707" font-size="13" font-family="SegoeUI-Bold, Segoe UI" font-weight="700"><tspan x="0" y="0">73%</tspan></text>
          <text id="_97_" data-name="97%" transform="translate(364.303 309.619)" fill="#25e20f" font-size="13" font-family="SegoeUI-Bold, Segoe UI" font-weight="700"><tspan x="0" y="0">97%</tspan></text>
          <line id="Ligne_12" data-name="Ligne 12" y2="334.698" fill="none" stroke="#a6a6a6" stroke-width="1"/>
          <line id="Ligne_13" data-name="Ligne 13" y2="334.698" transform="translate(66.529)" fill="none" stroke="#a6a6a6" stroke-width="1"/>
          <line id="Ligne_14" data-name="Ligne 14" y2="334.698" transform="translate(134.808)" fill="none" stroke="#a6a6a6" stroke-width="1"/>
          <line id="Ligne_15" data-name="Ligne 15" y2="334.698" transform="translate(205.713)" fill="none" stroke="#a6a6a6" stroke-width="1"/>
          <line id="Ligne_16" data-name="Ligne 16" y2="334.698" transform="translate(275.744)" fill="none" stroke="#a6a6a6" stroke-width="1"/>
          <line id="Ligne_17" data-name="Ligne 17" y2="334.698" transform="translate(345.774)" fill="none" stroke="#a6a6a6" stroke-width="1"/>
        </g>
        <g id="Groupe_353" data-name="Groupe 353" transform="translate(232.877 22.322)">
          <g transform="matrix(1, 0, 0, 1, -904.69, -613.18)" filter="url(#Handle)">
            <g id="Handle-7" data-name="Handle" transform="translate(904.69 615.81)" fill="#eb8a0b" stroke="#eb8a0b" stroke-width="2">
              <circle cx="7.878" cy="7.878" r="7.878" stroke="none"/>
              <circle cx="7.878" cy="7.878" r="6.878" fill="none"/>
            </g>
          </g>
          <g id="Groupe_350" data-name="Groupe 350" transform="translate(65.78 0)">
            <g id="Symbol_18_1" data-name="Symbol 18 – 1" transform="translate(0 12.502) rotate(-45)">
              <path id="Path_10" data-name="Path 10" d="M8.841,0,7.233,1.543l6.085,5.841H0v2.2H13.318L7.233,15.429l1.607,1.543,8.841-8.486Z" transform="translate(0 0)" fill="#17e640"/>
            </g>
          </g>
        </g>
        <g id="Groupe_354" data-name="Groupe 354" transform="translate(233.752 74.316)">
          <g transform="matrix(1, 0, 0, 1, -905.56, -665.18)" filter="url(#Handle-2)">
            <g id="Handle-8" data-name="Handle" transform="translate(905.56 667.46)" fill="#17e640" stroke="#06d529" stroke-width="2">
              <circle cx="7.878" cy="7.878" r="7.878" stroke="none"/>
              <circle cx="7.878" cy="7.878" r="6.878" fill="none"/>
            </g>
          </g>
          <g id="Groupe_350-2" data-name="Groupe 350" transform="translate(65.78 0)">
            <g id="Symbol_18_1-2" data-name="Symbol 18 – 1" transform="translate(0 12.502) rotate(-45)">
              <path id="Path_10-2" data-name="Path 10" d="M8.841,0,7.233,1.543l6.085,5.841H0v2.2H13.318L7.233,15.429l1.607,1.543,8.841-8.486Z" transform="translate(0 0)" fill="#17e640"/>
            </g>
          </g>
        </g>
        <g id="Groupe_355" data-name="Groupe 355" transform="translate(234.163 122.547)">
          <g transform="matrix(1, 0, 0, 1, -905.97, -713.41)" filter="url(#Handle-3)">
            <g id="Handle-9" data-name="Handle" transform="translate(905.97 721.11)" fill="#bababa" stroke="#bababa" stroke-width="2">
              <circle cx="7.878" cy="7.878" r="7.878" stroke="none"/>
              <circle cx="7.878" cy="7.878" r="6.878" fill="none"/>
            </g>
          </g>
          <g id="Groupe_350-3" data-name="Groupe 350" transform="translate(77.62 0) rotate(45)">
            <g id="Symbol_18_1-3" data-name="Symbol 18 – 1" transform="translate(0 12.502) rotate(-45)">
              <path id="Path_10-3" data-name="Path 10" d="M8.841,0,7.233,1.543l6.085,5.841H0v2.2H13.318L7.233,15.429l1.607,1.543,8.841-8.486Z" transform="translate(0 0)" fill="#bababa"/>
            </g>
          </g>
        </g>
        <g id="Groupe_356" data-name="Groupe 356" transform="translate(234.163 177.115)">
          <g transform="matrix(1, 0, 0, 1, -905.97, -767.98)" filter="url(#Handle-4)">
            <g id="Handle-10" data-name="Handle" transform="translate(905.97 775.68)" fill="#bababa" stroke="#bababa" stroke-width="2">
              <circle cx="7.878" cy="7.878" r="7.878" stroke="none"/>
              <circle cx="7.878" cy="7.878" r="6.878" fill="none"/>
            </g>
          </g>
          <g id="Groupe_350-4" data-name="Groupe 350" transform="translate(77.62 0) rotate(45)">
            <g id="Symbol_18_1-4" data-name="Symbol 18 – 1" transform="translate(0 12.502) rotate(-45)">
              <path id="Path_10-4" data-name="Path 10" d="M8.841,0,7.233,1.543l6.085,5.841H0v2.2H13.318L7.233,15.429l1.607,1.543,8.841-8.486Z" transform="translate(0 0)" fill="#bababa"/>
            </g>
          </g>
        </g>
        <g id="Groupe_357" data-name="Groupe 357" transform="translate(234.163 232.608)">
          <g transform="matrix(1, 0, 0, 1, -905.97, -823.47)" filter="url(#Handle-5)">
            <g id="Handle-11" data-name="Handle" transform="translate(905.97 831.17)" fill="#bababa" stroke="#bababa" stroke-width="2">
              <circle cx="7.878" cy="7.878" r="7.878" stroke="none"/>
              <circle cx="7.878" cy="7.878" r="6.878" fill="none"/>
            </g>
          </g>
          <g id="Groupe_350-5" data-name="Groupe 350" transform="translate(77.62 0) rotate(45)">
            <g id="Symbol_18_1-5" data-name="Symbol 18 – 1" transform="translate(0 12.502) rotate(-45)">
              <path id="Path_10-5" data-name="Path 10" d="M8.841,0,7.233,1.543l6.085,5.841H0v2.2H13.318L7.233,15.429l1.607,1.543,8.841-8.486Z" transform="translate(0 0)" fill="#bababa"/>
            </g>
          </g>
        </g>
        <g id="Groupe_358" data-name="Groupe 358" transform="translate(233.752 293.117)">
          <g transform="matrix(1, 0, 0, 1, -905.56, -883.98)" filter="url(#Handle-6)">
            <g id="Handle-12" data-name="Handle" transform="translate(905.56 886.3)" fill="#17e640" stroke="#06d529" stroke-width="2">
              <circle cx="7.878" cy="7.878" r="7.878" stroke="none"/>
              <circle cx="7.878" cy="7.878" r="6.878" fill="none"/>
            </g>
          </g>
          <g id="Groupe_350-6" data-name="Groupe 350" transform="translate(65.78 0)">
            <g id="Symbol_18_1-6" data-name="Symbol 18 – 1" transform="translate(0 12.502) rotate(-45)">
              <path id="Path_10-6" data-name="Path 10" d="M8.841,0,7.233,1.543l6.085,5.841H0v2.2H13.318L7.233,15.429l1.607,1.543,8.841-8.486Z" transform="translate(0 0)" fill="#17e640"/>
            </g>
          </g>
        </g>
      </g>
      <g id="Groupe_397" data-name="Groupe 397" transform="translate(5.95 14.771)">
        <text id="Full_Name" data-name="Full Name" transform="translate(16.81 16)" fill="#3ab0ce" font-size="17" font-family="SegoeUI-Bold, Segoe UI" font-weight="700"><tspan x="0" y="0">Service Expectation and Requirements</tspan></text>
        <g id="Groupe_375" data-name="Groupe 375" transform="translate(8.932 114.674)">
          <text id="Full_Name-2" data-name="Full Name" transform="translate(0 12)" fill="#393737" font-size="12" font-family="SegoeUI-Bold, Segoe UI" font-weight="700"><tspan x="0" y="0">Throughtput (Mbps)</tspan></text>
          <text id="Full_Name-3" data-name="Full Name" transform="translate(0 54.018)" fill="#393737" font-size="12" font-family="SegoeUI-Bold, Segoe UI" font-weight="700"><tspan x="0" y="0">Latency (ms)</tspan></text>
          <text id="Full_Name-4" data-name="Full Name" transform="translate(0 107.416)" fill="#393737" font-size="12" font-family="SegoeUI-Bold, Segoe UI" font-weight="700"><tspan x="0" y="0">QCI/5QI</tspan></text>
          <text id="Full_Name-5" data-name="Full Name" transform="translate(0 154.686)" fill="#393737" font-size="12" font-family="SegoeUI-Bold, Segoe UI" font-weight="700"><tspan x="0" y="0">UL Bit Rate</tspan></text>
          <text id="Full_Name-6" data-name="Full Name" transform="translate(0 207.209)" fill="#393737" font-size="12" font-family="SegoeUI-Bold, Segoe UI" font-weight="700"><tspan x="0" y="0">DL Bit Rate</tspan></text>
          <text id="Full_Name-7" data-name="Full Name" transform="translate(0 259.731)" fill="#393737" font-size="12" font-family="SegoeUI-Bold, Segoe UI" font-weight="700"><tspan x="0" y="0">Packet Loss (%)</tspan></text>
        </g>
        <g id="Groupe_374" data-name="Groupe 374" transform="translate(0 68.279)">
          <g id="Groupe_362" data-name="Groupe 362" transform="translate(271.544 29.763)">
            <text id="Full_Name-8" data-name="Full Name" transform="translate(10.505 11)" font-size="11" font-family="SegoeUI, Segoe UI"><tspan x="0" y="0">100</tspan></text>
            <text id="Full_Name-9" data-name="Full Name" transform="translate(3.502 55.644)" font-size="11" font-family="SegoeUI, Segoe UI"><tspan x="0" y="0">100</tspan></text>
            <text id="Full_Name-10" data-name="Full Name" transform="translate(10.505 112.544)" font-size="11" font-family="SegoeUI, Segoe UI"><tspan x="0" y="0">5</tspan></text>
            <text id="Full_Name-11" data-name="Full Name" transform="translate(0 163.315)" font-size="11" font-family="SegoeUI, Segoe UI"><tspan x="0" y="0">40000</tspan></text>
            <text id="Full_Name-12" data-name="Full Name" transform="translate(0 218.464)" font-size="11" font-family="SegoeUI, Segoe UI"><tspan x="0" y="0">40000</tspan></text>
            <text id="Full_Name-13" data-name="Full Name" transform="translate(3.502 274.488)" font-size="11" font-family="SegoeUI, Segoe UI"><tspan x="0" y="0">2</tspan></text>
          </g>
          <g id="Groupe_364" data-name="Groupe 364" transform="translate(369.587 29.763)">
            <text id="Full_Name-14" data-name="Full Name" transform="translate(11.38 11)" font-size="11" font-family="SegoeUI, Segoe UI"><tspan x="0" y="0">500</tspan></text>
            <text id="Full_Name-15" data-name="Full Name" transform="translate(18.383 55.644)" font-size="11" font-family="SegoeUI, Segoe UI"><tspan x="0" y="0">50</tspan></text>
            <text id="Full_Name-16" data-name="Full Name" transform="translate(21.884 112.544)" font-size="11" font-family="SegoeUI, Segoe UI"><tspan x="0" y="0">1</tspan></text>
            <text id="Full_Name-17" data-name="Full Name" transform="translate(0 163.315)" font-size="11" font-family="SegoeUI, Segoe UI"><tspan x="0" y="0">1000000</tspan></text>
            <text id="Full_Name-18" data-name="Full Name" transform="translate(0 218.464)" font-size="11" font-family="SegoeUI, Segoe UI"><tspan x="0" y="0">1000000</tspan></text>
            <text id="Full_Name-19" data-name="Full Name" transform="translate(16.632 274.488)" font-size="11" font-family="SegoeUI, Segoe UI"><tspan x="0" y="0">0.5</tspan></text>
          </g>
          <g id="Groupe_367" data-name="Groupe 367">
            <g id="Groupe_361" data-name="Groupe 361">
              <g id="Groupe_347" data-name="Groupe 347">
                <text id="Service_Attributes" data-name="Service Attributes" transform="translate(0 14)" fill="#021d24" font-size="14" font-family="SegoeUI-Bold, Segoe UI" font-weight="700"><tspan x="0" y="0">Service Attributes</tspan></text>
              </g>
            </g>
            <g id="Groupe_363" data-name="Groupe 363" transform="translate(255.773)">
              <g id="Groupe_347-2" data-name="Groupe 347">
                <text id="Level1" transform="translate(0 14)" fill="#021d24" font-size="14" font-family="SegoeUI-Bold, Segoe UI" font-weight="700"><tspan x="0" y="0">Level1</tspan></text>
              </g>
            </g>
            <g id="Groupe_365" data-name="Groupe 365" transform="translate(367.109)">
              <g id="Groupe_347-3" data-name="Groupe 347">
                <text id="Level5" transform="translate(0 14)" fill="#021d24" font-size="14" font-family="SegoeUI-Bold, Segoe UI" font-weight="700"><tspan x="0" y="0">Level5</tspan></text>
              </g>
            </g>
            <g id="Groupe_366" data-name="Groupe 366" transform="translate(505.75)">
              <g id="Groupe_347-4" data-name="Groupe 347">
                <text id="SLA" transform="translate(0 14)" fill="#021d24" font-size="14" font-family="SegoeUI-Bold, Segoe UI" font-weight="700"><tspan x="0" y="0">SLA</tspan></text>
              </g>
            </g>
            <g id="Groupe_368" data-name="Groupe 368" transform="translate(779.382)">
              <g id="Groupe_347-5" data-name="Groupe 347">
                <text id="Trend" transform="translate(0 14)" fill="#021d24" font-size="14" font-family="SegoeUI-Bold, Segoe UI" font-weight="700"><tspan x="0" y="0">Trend</tspan></text>
              </g>
            </g>
            <g id="Groupe_369" data-name="Groupe 369" transform="translate(706.472)">
              <g id="Groupe_347-6" data-name="Groupe 347">
                <text id="Status" transform="translate(0 14)" fill="#021d24" font-size="14" font-family="SegoeUI-Bold, Segoe UI" font-weight="700"><tspan x="0" y="0">Status</tspan></text>
              </g>
            </g>
            <g id="Groupe_370" data-name="Groupe 370" transform="translate(844.16)">
              <g id="Groupe_347-7" data-name="Groupe 347">
                <text id="Value" transform="translate(0 14)" fill="#021d24" font-size="14" font-family="SegoeUI-Bold, Segoe UI" font-weight="700"><tspan x="0" y="0">Value</tspan></text>
              </g>
            </g>
          </g>
        </g>
        <g id="Groupe_376" data-name="Groupe 376" transform="translate(499.448 108.782)">
          <g id="Ring_Chart11" data-name="Ring Chart11" transform="translate(0 49.896)">
            <path id="Tracé_317" data-name="Tracé 317" d="M-1.721-23.5A20.571,20.571,0,0,1,17.843-9.286a20.571,20.571,0,0,1-7.473,23,20.571,20.571,0,0,1-24.183,0L-9.7,8.048a13.568,13.568,0,0,0,15.951,0,13.568,13.568,0,0,0,4.929-15.17A13.568,13.568,0,0,0-1.721-16.5Z" transform="translate(22.293 23.5)" fill="#1f78b4"/>
            <path id="Tracé_318" data-name="Tracé 318" d="M-15.02,14.273A20.571,20.571,0,0,1-23.5-2.369a20.571,20.571,0,0,1,8.48-16.643l4.116,5.666A13.568,13.568,0,0,0-16.5-2.369,13.568,13.568,0,0,0-10.9,8.608Z" transform="translate(23.5 22.941)" fill="#a6cee3"/>
            <path id="Tracé_319" data-name="Tracé 319" d="M-13.813-19.571A20.571,20.571,0,0,1-1.721-23.5v7A13.568,13.568,0,0,0-9.7-13.906Z" transform="translate(22.293 23.5)" fill="#b2df8a"/>
            <text id="_80_" data-name="80%" transform="translate(20.942 23.503)" fill="#1f78b4" font-size="10" font-family="Arial-BoldMT, Arial" font-weight="700"><tspan x="-10.007" y="0">80%</tspan></text>
          </g>
          <g id="Ring_Chart11-2" data-name="Ring Chart11" transform="translate(0 150.565)">
            <path id="Tracé_317-2" data-name="Tracé 317" d="M-1.721-23.5A20.571,20.571,0,0,1,17.843-9.286a20.571,20.571,0,0,1-7.473,23,20.571,20.571,0,0,1-24.183,0L-9.7,8.048a13.568,13.568,0,0,0,15.951,0,13.568,13.568,0,0,0,4.929-15.17A13.568,13.568,0,0,0-1.721-16.5Z" transform="translate(22.293 23.5)" fill="#1f78b4"/>
            <path id="Tracé_318-2" data-name="Tracé 318" d="M-15.02,14.273A20.571,20.571,0,0,1-23.5-2.369a20.571,20.571,0,0,1,8.48-16.643l4.116,5.666A13.568,13.568,0,0,0-16.5-2.369,13.568,13.568,0,0,0-10.9,8.608Z" transform="translate(23.5 22.941)" fill="#a6cee3"/>
            <path id="Tracé_319-2" data-name="Tracé 319" d="M-13.813-19.571A20.571,20.571,0,0,1-1.721-23.5v7A13.568,13.568,0,0,0-9.7-13.906Z" transform="translate(22.293 23.5)" fill="#b2df8a"/>
            <text id="_80_2" data-name="80%" transform="translate(20.942 23.503)" fill="#1f78b4" font-size="10" font-family="Arial-BoldMT, Arial" font-weight="700"><tspan x="-10.007" y="0">80%</tspan></text>
          </g>
          <g id="Ring_Chart11-3" data-name="Ring Chart11" transform="translate(0 252.984)">
            <path id="Tracé_317-3" data-name="Tracé 317" d="M-1.721-23.5A20.571,20.571,0,0,1,17.843-9.286a20.571,20.571,0,0,1-7.473,23,20.571,20.571,0,0,1-24.183,0L-9.7,8.048a13.568,13.568,0,0,0,15.951,0,13.568,13.568,0,0,0,4.929-15.17A13.568,13.568,0,0,0-1.721-16.5Z" transform="translate(22.293 23.5)" fill="#1f78b4"/>
            <path id="Tracé_318-3" data-name="Tracé 318" d="M-15.02,14.273A20.571,20.571,0,0,1-23.5-2.369a20.571,20.571,0,0,1,8.48-16.643l4.116,5.666A13.568,13.568,0,0,0-16.5-2.369,13.568,13.568,0,0,0-10.9,8.608Z" transform="translate(23.5 22.941)" fill="#a6cee3"/>
            <path id="Tracé_319-3" data-name="Tracé 319" d="M-13.813-19.571A20.571,20.571,0,0,1-1.721-23.5v7A13.568,13.568,0,0,0-9.7-13.906Z" transform="translate(22.293 23.5)" fill="#b2df8a"/>
            <text id="_85_" data-name="85%" transform="translate(20.942 23.503)" fill="#1f78b4" font-size="10" font-family="Arial-BoldMT, Arial" font-weight="700"><tspan x="-10.007" y="0">85%</tspan></text>
          </g>
          <g id="Ring_Chart11-4" data-name="Ring Chart11" transform="translate(0 203.087)">
            <path id="Tracé_317-4" data-name="Tracé 317" d="M-1.721-23.5A20.571,20.571,0,0,1,17.843-9.286a20.571,20.571,0,0,1-7.473,23,20.571,20.571,0,0,1-24.183,0L-9.7,8.048a13.568,13.568,0,0,0,15.951,0,13.568,13.568,0,0,0,4.929-15.17A13.568,13.568,0,0,0-1.721-16.5Z" transform="translate(22.293 23.5)" fill="#1f78b4"/>
            <path id="Tracé_318-4" data-name="Tracé 318" d="M-15.02,14.273A20.571,20.571,0,0,1-23.5-2.369a20.571,20.571,0,0,1,8.48-16.643l4.116,5.666A13.568,13.568,0,0,0-16.5-2.369,13.568,13.568,0,0,0-10.9,8.608Z" transform="translate(23.5 22.941)" fill="#a6cee3"/>
            <path id="Tracé_319-4" data-name="Tracé 319" d="M-13.813-19.571A20.571,20.571,0,0,1-1.721-23.5v7A13.568,13.568,0,0,0-9.7-13.906Z" transform="translate(22.293 23.5)" fill="#b2df8a"/>
            <text id="_61_" data-name="61%" transform="translate(20.942 23.503)" fill="#1f78b4" font-size="10" font-family="Arial-BoldMT, Arial" font-weight="700"><tspan x="-10.007" y="0">61%</tspan></text>
          </g>
          <g id="Ring_Chart11-5" data-name="Ring Chart11" transform="translate(0 100.668)">
            <path id="Tracé_317-5" data-name="Tracé 317" d="M-1.721-23.5A20.571,20.571,0,0,1,17.843-9.286a20.571,20.571,0,0,1-7.473,23,20.571,20.571,0,0,1-24.183,0L-9.7,8.048a13.568,13.568,0,0,0,15.951,0,13.568,13.568,0,0,0,4.929-15.17A13.568,13.568,0,0,0-1.721-16.5Z" transform="translate(22.293 23.5)" fill="#1f78b4"/>
            <path id="Tracé_318-5" data-name="Tracé 318" d="M-15.02,14.273A20.571,20.571,0,0,1-23.5-2.369a20.571,20.571,0,0,1,8.48-16.643l4.116,5.666A13.568,13.568,0,0,0-16.5-2.369,13.568,13.568,0,0,0-10.9,8.608Z" transform="translate(23.5 22.941)" fill="#a6cee3"/>
            <path id="Tracé_319-5" data-name="Tracé 319" d="M-13.813-19.571A20.571,20.571,0,0,1-1.721-23.5v7A13.568,13.568,0,0,0-9.7-13.906Z" transform="translate(22.293 23.5)" fill="#b2df8a"/>
            <text id="_63_" data-name="63%" transform="translate(20.942 23.503)" fill="#1f78b4" font-size="10" font-family="Arial-BoldMT, Arial" font-weight="700"><tspan x="-10.007" y="0">63%</tspan></text>
          </g>
          <g id="Ring_Chart11-6" data-name="Ring Chart11">
            <path id="Tracé_317-6" data-name="Tracé 317" d="M-1.721-23.5A20.571,20.571,0,0,1,17.843-9.286a20.571,20.571,0,0,1-7.473,23,20.571,20.571,0,0,1-24.183,0L-9.7,8.048a13.568,13.568,0,0,0,15.951,0,13.568,13.568,0,0,0,4.929-15.17A13.568,13.568,0,0,0-1.721-16.5Z" transform="translate(22.293 23.5)" fill="#1f78b4"/>
            <path id="Tracé_318-6" data-name="Tracé 318" d="M-15.02,14.273A20.571,20.571,0,0,1-23.5-2.369a20.571,20.571,0,0,1,8.48-16.643l4.116,5.666A13.568,13.568,0,0,0-16.5-2.369,13.568,13.568,0,0,0-10.9,8.608Z" transform="translate(23.5 22.941)" fill="#a6cee3"/>
            <path id="Tracé_319-6" data-name="Tracé 319" d="M-13.813-19.571A20.571,20.571,0,0,1-1.721-23.5v7A13.568,13.568,0,0,0-9.7-13.906Z" transform="translate(22.293 23.5)" fill="#b2df8a"/>
            <text id="_57_" data-name="57%" transform="translate(20.942 23.503)" fill="#1f78b4" font-size="10" font-family="Arial-BoldMT, Arial" font-weight="700"><tspan x="-10.007" y="0">57%</tspan></text>
          </g>
        </g>
      </g>
      <g id="Pagers" transform="translate(177.701 436.703)">
        <g id="Pagination" transform="translate(227.598 2.626)">
          <ellipse id="Ellipse_8" data-name="Ellipse 8" cx="3.939" cy="4.377" rx="3.939" ry="4.377" transform="translate(0 0)" fill="rgba(16,159,164,0.88)"/>
          <circle id="Ellipse_9" data-name="Ellipse 9" cx="4.377" cy="4.377" r="4.377" transform="translate(22.76 0)" fill="#c2eeee"/>
          <circle id="Ellipse_10" data-name="Ellipse 10" cx="4.377" cy="4.377" r="4.377" transform="translate(46.395 0)" fill="#c2eeee"/>
          <circle id="Ellipse_11" data-name="Ellipse 11" cx="4.377" cy="4.377" r="4.377" transform="translate(69.155 0)" fill="#c2eeee"/>
        </g>
        <g id="Forward" transform="translate(491.086)">
          <path id="Path_36" data-name="Path 36" d="M6.824,8.857,0,2.033,2.033,0,6.824,4.791,11.615,0l2.033,2.033Z" transform="translate(3.266 13.649) rotate(-90)" fill="#0fadb2"/>
          <rect id="Rectangle_1465" data-name="Rectangle 1465" width="14.881" height="14.881" transform="translate(0)" fill="none"/>
        </g>
        <g id="Backward" transform="translate(0 2.626)">
          <path id="Path_36-2" data-name="Path 36" d="M6.824,8.857,0,2.033,2.033,0,6.824,4.791,11.615,0l2.033,2.033Z" transform="translate(11.76 0) rotate(90)" fill="#0fadb2"/>
          <rect id="Rectangle_1464" data-name="Rectangle 1464" width="14.881" height="14.881" fill="none"/>
        </g>
      </g>
    </g>
  </g>
</svg>
