<svg xmlns="http://www.w3.org/2000/svg" width="1127" height="786" viewBox="0 0 1127 786">
  <g id="Groupe_3899" data-name="Groupe 3899" transform="translate(-6566 -3119)">
    <g id="Groupe_3888" data-name="Groupe 3888" transform="translate(6489 3042)">
      <text id="QoE-driven_Optimization" data-name="QoE-driven Optimization" transform="translate(77 113)" fill="#575454" font-size="40" font-family="ArialMT, Arial"><tspan x="0" y="0">QoE-driven Optimization</tspan></text>
      <text id="Improve_network_quality_by_focusing_on_end-user_functional_service_requirements_and_QoE._Quality_of_Experience_Can_Be_More_Profitable_Than_Knowing_Customer_Perception_" data-name="Improve network quality by focusing on end-user functional service requirements and QoE.
Quality of Experience Can Be More Profitable Than Knowing Customer Perception… " transform="translate(77 148)" fill="#575454" font-size="20" font-family="ArialMT, Arial"><tspan x="0" y="18">Improve network quality by focusing on end-user functional service </tspan><tspan x="0" y="46">requirements and QoE.</tspan><tspan x="0" y="74">Quality of Experience Can Be More Profitable Than Knowing Customer </tspan><tspan x="0" y="102">Perception… </tspan></text>
    </g>
    <g id="Groupe_3898" data-name="Groupe 3898" transform="translate(-117 249)">
      <rect id="Rectangle_2797" data-name="Rectangle 2797" width="1127" height="550" rx="37" transform="translate(6683 3106)" fill="#fff"/>
      <rect id="Rectangle_2796" data-name="Rectangle 2796" width="1127" height="65" transform="translate(6683 3106)" fill="#5d5a5a"/>
      <text id="ENGEEM_Features_" data-name="ENGEEM Features  " transform="translate(6707 3148)" fill="#f7f3f2" font-size="29" font-family="SegoeUI-Bold, Segoe UI" font-weight="700"><tspan x="0" y="0" xml:space="preserve">ENGEEM Features  </tspan></text>
      <text id="Identify_End-user_Service_functional_requirements_and_the_Related_QoS_characteristics_to_focus_on" data-name="Identify End-user Service functional requirements and the Related QoS characteristics to focus on" transform="translate(6809 3340)" fill="#717171" font-size="20" font-family="ArialMT, Arial"><tspan x="0" y="18">Identify End-user Service functional </tspan><tspan x="0" y="43">requirements and the Related QoS </tspan><tspan x="0" y="68">characteristics to focus on</tspan></text>
      <text id="ENGEEM_ensures_network_communication_reliability_by_aligning_end-user_service_functional_requirements_with_network_QoS_and_dynamic_network_characteristics._" data-name="ENGEEM ensures network communication reliability by aligning end-user service functional requirements with network QoS and dynamic network characteristics. " transform="translate(6809 3206)" fill="#5d5a5a" font-size="19" font-family="SegoeUI-Bold, Segoe UI" font-weight="700"><tspan x="0" y="21">ENGEEM ENSURES NETWORK </tspan><tspan x="0" y="46">COMMUNICATION RELIABILITY BY ALIGNING </tspan><tspan x="0" y="71">END-USER SERVICE FUNCTIONAL </tspan><tspan x="0" y="96">REQUIREMENTS WITH NETWORK QOS AND </tspan><tspan x="0" y="121">DYNAMIC NETWORK CHARACTERISTICS. </tspan></text>
      <text id="Handle_in_Real-time_what_each_service_need_in_terms_of_Quality_:_Throughput_PRB_Resources_Coverage_SINR_Latency_BLER_" data-name="Handle in Real-time what each service need in terms of Quality : Throughput, PRB Resources, Coverage, SINR, Latency, BLER, …" transform="translate(7401 3270)" fill="#717171" font-size="20" font-family="ArialMT, Arial"><tspan x="0" y="18">Handle in Real-time what each service need </tspan><tspan x="0" y="43">in terms of Quality : Throughput, PRB </tspan><tspan x="0" y="68">Resources, Coverage, SINR, Latency, </tspan><tspan x="0" y="93">BLER, …</tspan></text>
      <text id="MANAGE_SERVICES_AND_THE_DIFFERENTIAL_QUALITY_REQUIREMENTS" data-name="MANAGE SERVICES AND THE DIFFERENTIAL QUALITY REQUIREMENTS" transform="translate(7401 3206)" fill="#5d5a5a" font-size="19" font-family="SegoeUI-Bold, Segoe UI" font-weight="700"><tspan x="0" y="21">MANAGE SERVICES AND THE DIFFERENTIAL </tspan><tspan x="0" y="46">QUALITY REQUIREMENTS</tspan></text>
      <text id="No_more_communication_signaling_analysis_to_understand_customer_issues_:_directly_point_out_what_applications_services_or_network_cluster_is_sick_and_the_cause_" data-name="No more communication signaling analysis to understand customer issues : directly point out what applications, services, or network cluster is sick and the cause " transform="translate(6809 3536)" fill="#717171" font-size="20" font-family="ArialMT, Arial"><tspan x="0" y="18">No more communication signaling analysis </tspan><tspan x="0" y="43">to understand customer issues : directly </tspan><tspan x="0" y="68">point out what applications, services, or </tspan><tspan x="0" y="93">network cluster is sick and the cause </tspan></text>
      <text id="EASILY_RELATE_CUSTOMER_COMPLAINTS_TO_SERVICE_QOE_REQUIREMENTS_THAN_SYSTEM_QOS_" data-name="EASILY RELATE CUSTOMER COMPLAINTS TO SERVICE QOE REQUIREMENTS THAN SYSTEM QOS " transform="translate(6809 3450)" fill="#5d5a5a" font-size="19" font-family="SegoeUI-Bold, Segoe UI" font-weight="700"><tspan x="0" y="21">EASILY RELATE CUSTOMER COMPLAINTS TO </tspan><tspan x="0" y="46">SERVICE QOE REQUIREMENTS THAN </tspan><tspan x="0" y="71">SYSTEM QOS </tspan></text>
      <text id="Automate_Network_Problem_Impact_Analysis:_Draw_or_Edit_Network_Segment_Focus_onto_Affected_problems_per_Cluster" data-name="Automate Network Problem Impact Analysis: Draw or Edit Network Segment, Focus onto Affected problems per Cluster" transform="translate(7401 3510)" fill="#717171" font-size="20" font-family="ArialMT, Arial"><tspan x="0" y="18">Automate Network Problem Impact Analysis: </tspan><tspan x="0" y="43">Draw or Edit Network Segment, Focus onto </tspan><tspan x="0" y="68">Affected problems per Cluster</tspan></text>
      <text id="CLUSTERIZE_NETWORK_QUALITY_MANAGEMENT_:_BY_USER_VIP_SLA_APP" data-name="CLUSTERIZE NETWORK QUALITY MANAGEMENT : BY USER, VIP, SLA, APP" transform="translate(7401 3450)" fill="#5d5a5a" font-size="19" font-family="SegoeUI-Bold, Segoe UI" font-weight="700"><tspan x="0" y="21">CLUSTERIZE NETWORK QUALITY </tspan><tspan x="0" y="46">MANAGEMENT : BY USER, VIP, SLA, APP</tspan></text>
      <g id="Icon_akar-network" data-name="Icon akar-network" transform="translate(6707 3204)">
        <path id="Tracé_8024" data-name="Tracé 8024" d="M31.2,10.1A8.1,8.1,0,1,1,23.1,2a8.1,8.1,0,0,1,8.1,8.1Z" transform="translate(20.4 0)" fill="none" stroke="#5d5a5a" stroke-width="5"/>
        <path id="Tracé_8025" data-name="Tracé 8025" d="M31.2,24.1A8.1,8.1,0,1,1,23.1,16,8.1,8.1,0,0,1,31.2,24.1Z" transform="translate(20.4 23.8)" fill="none" stroke="#5d5a5a" stroke-width="5"/>
        <path id="Tracé_8026" data-name="Tracé 8026" d="M19.2,17.1A8.1,8.1,0,1,1,11.1,9,8.1,8.1,0,0,1,19.2,17.1Z" transform="translate(0 11.9)" fill="none" stroke="#5d5a5a" stroke-width="5"/>
        <path id="Tracé_8027" data-name="Tracé 8027" d="M26.992,6.512,8.594,17.244m18.4,18.9L8.594,25.415" transform="translate(9.51 7.67)" fill="none" stroke="#5d5a5a" stroke-linecap="round" stroke-linejoin="round" stroke-width="5"/>
      </g>
      <path id="Icon_material-twotone-system-update-alt" data-name="Icon material-twotone-system-update-alt" d="M27.583,34.417,37.25,24.75H30V3H25.167V24.75h-7.25ZM49.333,3h-14.5V7.809h14.5V41.715H5.833V7.809h14.5V3H5.833A4.848,4.848,0,0,0,1,7.833V41.667A4.848,4.848,0,0,0,5.833,46.5h43.5a4.848,4.848,0,0,0,4.833-4.833V7.833A4.848,4.848,0,0,0,49.333,3Z" transform="translate(6707 3447)" fill="#5d5a5a"/>
      <path id="Icon_material-high-quality" data-name="Icon material-high-quality" d="M53,4H9.25A6.25,6.25,0,0,0,3,10.25v37.5A6.25,6.25,0,0,0,9.25,54H53a6.268,6.268,0,0,0,6.25-6.25V10.25A6.268,6.268,0,0,0,53,4ZM28,38.375H23.313v-6.25h-6.25v6.25H12.375V19.625h4.688v7.813h6.25V19.625H28ZM49.875,35.25a3.134,3.134,0,0,1-3.125,3.125H44.406v4.688H39.719V38.375H37.375A3.134,3.134,0,0,1,34.25,35.25V22.75a3.134,3.134,0,0,1,3.125-3.125H46.75a3.134,3.134,0,0,1,3.125,3.125ZM38.938,33.688h6.25V24.313h-6.25Z" transform="translate(7303.3 3202)" fill="#5d5a5a"/>
      <path id="Icon_material-multiline-chart" data-name="Icon material-multiline-chart" d="M60.468,10.613,56.346,6.491l-8.332,9.384A31.468,31.468,0,0,0,24.247,5,33.5,33.5,0,0,0,2,13.77l4.151,4.151a27.446,27.446,0,0,1,18.1-7.075,25.694,25.694,0,0,1,19.791,9.472L35.619,29.79,23.925,18.1,2,40.051l4.385,4.385,17.54-17.57L35.619,38.56l11.84-13.3a35.875,35.875,0,0,1,4.21,13.3h5.876a41.346,41.346,0,0,0-5.964-17.95Z" transform="translate(7302.55 3445)" fill="#5d5a5a"/>
    </g>
  </g>
</svg>
