<svg xmlns="http://www.w3.org/2000/svg" xmlns:xlink="http://www.w3.org/1999/xlink" width="1548.555" height="1731" viewBox="0 0 1548.555 1731">
  <defs>
    <filter id="Tracé_8534" x="0" y="802" width="832.354" height="530.663" filterUnits="userSpaceOnUse">
      <feOffset dy="23" input="SourceAlpha"/>
      <feGaussianBlur stdDeviation="28" result="blur"/>
      <feFlood flood-opacity="0.11"/>
      <feComposite operator="in" in2="blur"/>
      <feComposite in="SourceGraphic"/>
    </filter>
    <filter id="Tracé_8534-2" x="349.047" y="1200.337" width="832.354" height="530.663" filterUnits="userSpaceOnUse">
      <feOffset dy="23" input="SourceAlpha"/>
      <feGaussianBlur stdDeviation="28" result="blur-2"/>
      <feFlood flood-opacity="0.11"/>
      <feComposite operator="in" in2="blur-2"/>
      <feComposite in="SourceGraphic"/>
    </filter>
    <filter id="Tracé_8534-3" x="716.201" y="802" width="832.354" height="530.663" filterUnits="userSpaceOnUse">
      <feOffset dy="23" input="SourceAlpha"/>
      <feGaussianBlur stdDeviation="28" result="blur-3"/>
      <feFlood flood-opacity="0.11"/>
      <feComposite operator="in" in2="blur-3"/>
      <feComposite in="SourceGraphic"/>
    </filter>
    <filter id="Icon_fa-brands-uncharted" x="175" y="379.165" width="332.32" height="350.192" filterUnits="userSpaceOnUse">
      <feOffset dy="3" input="SourceAlpha"/>
      <feGaussianBlur stdDeviation="3" result="blur-4"/>
      <feFlood flood-opacity="0.161"/>
      <feComposite operator="in" in2="blur-4"/>
      <feComposite in="SourceGraphic"/>
    </filter>
  </defs>
  <g id="Groupe_3943" data-name="Groupe 3943" transform="translate(-19292 2070)">
    <g id="Groupe_3935" data-name="Groupe 3935" transform="translate(19269.5 -1634)">
      <g id="Tracé_8536" data-name="Tracé 8536" transform="translate(541.049 553.743)" fill="none">
        <path d="M246.949,0C383.335,0,493.9,110.563,493.9,246.949S383.335,493.9,246.949,493.9,0,383.335,0,246.949,110.563,0,246.949,0Z" stroke="none"/>
        <path d="M 246.9486389160156 39.99993896484375 C 132.8367309570312 39.99993896484375 39.99993896484375 132.8367309570312 39.99993896484375 246.9486389160156 C 39.99993896484375 361.0604248046875 132.8367309570312 453.8972473144531 246.9486389160156 453.8972473144531 C 361.0604248046875 453.8972473144531 453.8972473144531 361.0604248046875 453.8972473144531 246.9486389160156 C 453.8972473144531 132.8367309570312 361.0604248046875 39.99993896484375 246.9486389160156 39.99993896484375 M 246.9486389160156 -6.103515625e-05 C 383.3345336914062 -6.103515625e-05 493.8972473144531 110.5626525878906 493.8972473144531 246.9486389160156 C 493.8972473144531 383.3345336914062 383.3345336914062 493.8972473144531 246.9486389160156 493.8972473144531 C 110.5626525878906 493.8972473144531 -6.103515625e-05 383.3345336914062 -6.103515625e-05 246.9486389160156 C -6.103515625e-05 110.5626525878906 110.5626525878906 -6.103515625e-05 246.9486389160156 -6.103515625e-05 Z" stroke="none" fill="#1d6493"/>
      </g>
      <g id="Groupe_3028" data-name="Groupe 3028" transform="translate(106.5 427)">
        <g transform="matrix(1, 0, 0, 1, -84, -863)" filter="url(#Tracé_8534)">
          <g id="Tracé_8534-4" data-name="Tracé 8534" transform="translate(84 863)" fill="#100a26">
            <path d="M27.856,0H636.5c15.384,0,27.856,10.342,27.856,23.1V339.564c0,12.758-12.471,23.1-27.856,23.1H27.856C12.471,362.663,0,352.321,0,339.564V23.1C0,10.342,12.471,0,27.856,0Z" stroke="none"/>
            <path d="M 27.85552978515625 1.000030517578125 C 24.2080078125 1.000030517578125 20.67144775390625 1.591766357421875 17.3438720703125 2.758941650390625 C 14.13916015625 3.8829345703125 11.26361083984375 5.490020751953125 8.7969970703125 7.535430908203125 C 6.34417724609375 9.56951904296875 4.420654296875 11.93377685546875 3.079833984375 14.56253051757812 C 1.69976806640625 17.26837158203125 1 20.140625 1 23.099609375 L 1 339.5637817382812 C 1 342.5227661132812 1.69976806640625 345.39501953125 3.079833984375 348.1007690429688 C 4.420654296875 350.7295227050781 6.34417724609375 353.0937805175781 8.7969970703125 355.1278686523438 C 11.26361083984375 357.1733703613281 14.13916015625 358.7803649902344 17.3438720703125 359.9044494628906 C 20.67144775390625 361.0716247558594 24.2080078125 361.6633605957031 27.85552978515625 361.6633605957031 L 636.4986572265625 361.6633605957031 C 640.1461791992188 361.6633605957031 643.6827392578125 361.0716247558594 647.0103149414062 359.9044494628906 C 650.2150268554688 358.7803649902344 653.090576171875 357.1733703613281 655.5571899414062 355.1278686523438 C 658.010009765625 353.0937805175781 659.9335327148438 350.7295227050781 661.2743530273438 348.1007690429688 C 662.6544189453125 345.39501953125 663.3541870117188 342.5227661132812 663.3541870117188 339.5637817382812 L 663.3541870117188 23.099609375 C 663.3541870117188 20.140625 662.6544189453125 17.26837158203125 661.2743530273438 14.56253051757812 C 659.9335327148438 11.93377685546875 658.010009765625 9.56951904296875 655.5571899414062 7.535430908203125 C 653.090576171875 5.490020751953125 650.2150268554688 3.8829345703125 647.0103149414062 2.758941650390625 C 643.6827392578125 1.591766357421875 640.1461791992188 1.000030517578125 636.4986572265625 1.000030517578125 L 27.85552978515625 1.000030517578125 M 27.85552978515625 3.0517578125e-05 L 636.4986572265625 3.0517578125e-05 C 651.8828735351562 3.0517578125e-05 664.3541870117188 10.342041015625 664.3541870117188 23.099609375 L 664.3541870117188 339.5637817382812 C 664.3541870117188 352.3212890625 651.8828735351562 362.6633605957031 636.4986572265625 362.6633605957031 L 27.85552978515625 362.6633605957031 C 12.4713134765625 362.6633605957031 0 352.3212890625 0 339.5637817382812 L 0 23.099609375 C 0 10.342041015625 12.4713134765625 3.0517578125e-05 27.85552978515625 3.0517578125e-05 Z" stroke="none" fill="rgba(112,112,112,0.71)"/>
          </g>
        </g>
        <g id="Icon_material-round-bubble-chart" data-name="Icon material-round-bubble-chart" transform="translate(359.263 43.328)" opacity="0.144">
          <path id="Tracé_8029" data-name="Tracé 8029" d="M124.335,71.368A60.168,60.168,0,1,1,64.168,11.2a60.168,60.168,0,0,1,60.168,60.168Z" transform="translate(-4 124.177)" fill="#ededed"/>
          <path id="Tracé_8030" data-name="Tracé 8030" d="M88.01,53.6A37.6,37.6,0,1,1,50.4,16,37.6,37.6,0,0,1,88.01,53.6Z" transform="translate(152.661 209.629)" fill="#ededed"/>
          <path id="Tracé_8031" data-name="Tracé 8031" d="M190.9,94.252A90.252,90.252,0,1,1,100.652,4,90.252,90.252,0,0,1,190.9,94.252Z" transform="translate(109.935 -4)" fill="#ededed"/>
        </g>
        <g id="Groupe_2" data-name="Groupe 2" transform="translate(32.189 34.201)">
          <text id="SDN_NFV_Cloud_architecture_and_5G_are_leaving_out_the_system_management_approach_to_user_experience-centric_service_assurance_Multi-vendor_service-based_architecture_industrial_applications_and_5G_IoT_services_require_novel_network_analysis_and_monit" data-name="SDN/NFV, Cloud architecture, and 5G are leaving out the system management approach to user experience-centric service assurance 

Multi-vendor service-based architecture, industrial applications, and 5G/IoT services require novel network analysis and monit" transform="translate(0 0)" fill="#ded7d7" font-size="26" font-family="Arial-BoldMT, Arial" font-weight="700"><tspan x="0" y="24">SDN/NFV, CLOUD ARCHITECTURE, AND 5G </tspan><tspan x="0" y="55">ARE LEAVING OUT THE SYSTEM </tspan><tspan x="0" y="86">MANAGEMENT APPROACH TO USER </tspan><tspan x="0" y="117">EXPERIENCE-CENTRIC SERVICE ASSURANCE </tspan><tspan font-size="20" font-family="ArialMT, Arial" font-weight="400"><tspan x="0" y="148"></tspan></tspan><tspan font-size="24" font-family="ArialMT, Arial" font-weight="400"><tspan x="0" y="179">Multi-vendor service-based architecture, industrial </tspan><tspan x="0" y="210">applications, and 5G/IoT services require novel network </tspan><tspan x="0" y="241">analysis and monitoring practices: Use End-User </tspan><tspan x="0" y="272">Experience SLA to drive QoS Performance Strategy.</tspan></tspan></text>
        </g>
      </g>
      <g id="Groupe_3029" data-name="Groupe 3029" transform="translate(455.548 825.337)">
        <g transform="matrix(1, 0, 0, 1, -433.05, -1261.34)" filter="url(#Tracé_8534-2)">
          <g id="Tracé_8534-5" data-name="Tracé 8534" transform="translate(433.05 1261.34)" fill="#100a26">
            <path d="M27.856,0H636.5c15.384,0,27.856,10.342,27.856,23.1V339.564c0,12.758-12.471,23.1-27.856,23.1H27.856C12.471,362.663,0,352.321,0,339.564V23.1C0,10.342,12.471,0,27.856,0Z" stroke="none"/>
            <path d="M 27.85552978515625 1.000030517578125 C 24.2080078125 1.000030517578125 20.67144775390625 1.591766357421875 17.3438720703125 2.758941650390625 C 14.13916015625 3.8829345703125 11.26361083984375 5.490020751953125 8.7969970703125 7.535430908203125 C 6.34417724609375 9.56951904296875 4.420654296875 11.93377685546875 3.079833984375 14.56253051757812 C 1.69976806640625 17.26837158203125 1 20.140625 1 23.099609375 L 1 339.5637817382812 C 1 342.5227661132812 1.69976806640625 345.39501953125 3.079833984375 348.1007690429688 C 4.420654296875 350.7295227050781 6.34417724609375 353.0937805175781 8.7969970703125 355.1278686523438 C 11.26361083984375 357.1733703613281 14.13916015625 358.7803649902344 17.3438720703125 359.9044494628906 C 20.67144775390625 361.0716247558594 24.2080078125 361.6633605957031 27.85552978515625 361.6633605957031 L 636.4986572265625 361.6633605957031 C 640.1461791992188 361.6633605957031 643.6827392578125 361.0716247558594 647.0103149414062 359.9044494628906 C 650.2150268554688 358.7803649902344 653.090576171875 357.1733703613281 655.5571899414062 355.1278686523438 C 658.010009765625 353.0937805175781 659.9335327148438 350.7295227050781 661.2743530273438 348.1007690429688 C 662.6544189453125 345.39501953125 663.3541870117188 342.5227661132812 663.3541870117188 339.5637817382812 L 663.3541870117188 23.099609375 C 663.3541870117188 20.140625 662.6544189453125 17.26837158203125 661.2743530273438 14.56253051757812 C 659.9335327148438 11.93377685546875 658.010009765625 9.56951904296875 655.5571899414062 7.535430908203125 C 653.090576171875 5.490020751953125 650.2150268554688 3.8829345703125 647.0103149414062 2.758941650390625 C 643.6827392578125 1.591766357421875 640.1461791992188 1.000030517578125 636.4986572265625 1.000030517578125 L 27.85552978515625 1.000030517578125 M 27.85552978515625 3.0517578125e-05 L 636.4986572265625 3.0517578125e-05 C 651.8828735351562 3.0517578125e-05 664.3541870117188 10.342041015625 664.3541870117188 23.099609375 L 664.3541870117188 339.5637817382812 C 664.3541870117188 352.3212890625 651.8828735351562 362.6633605957031 636.4986572265625 362.6633605957031 L 27.85552978515625 362.6633605957031 C 12.4713134765625 362.6633605957031 0 352.3212890625 0 339.5637817382812 L 0 23.099609375 C 0 10.342041015625 12.4713134765625 3.0517578125e-05 27.85552978515625 3.0517578125e-05 Z" stroke="none" fill="rgba(112,112,112,0.71)"/>
          </g>
        </g>
        <g id="Icon_material-round-bubble-chart-2" data-name="Icon material-round-bubble-chart" transform="translate(359.263 43.328)" opacity="0.144">
          <path id="Tracé_8029-2" data-name="Tracé 8029" d="M124.335,71.368A60.168,60.168,0,1,1,64.168,11.2a60.168,60.168,0,0,1,60.168,60.168Z" transform="translate(-4 124.177)" fill="#ededed"/>
          <path id="Tracé_8030-2" data-name="Tracé 8030" d="M88.01,53.6A37.6,37.6,0,1,1,50.4,16,37.6,37.6,0,0,1,88.01,53.6Z" transform="translate(152.661 209.629)" fill="#ededed"/>
          <path id="Tracé_8031-2" data-name="Tracé 8031" d="M190.9,94.252A90.252,90.252,0,1,1,100.652,4,90.252,90.252,0,0,1,190.9,94.252Z" transform="translate(109.935 -4)" fill="#ededed"/>
        </g>
        <g id="Groupe_2-2" data-name="Groupe 2" transform="translate(32.189 34.201)">
          <text id="NetOps_Engineers_are_looking_for_an_efficient_solution_to_run_effective_user-experience_KPI_that_traditional_monitoring_fails_to_deliver._Conventional_monitoring_focuses_on_System_QoS_and_application_counters:_Video_Freeze_WEB_Latency_or_Page_Load_Time" data-name="NetOps Engineers are looking for an efficient solution to run effective user-experience KPI that traditional monitoring fails to deliver. 

Conventional monitoring focuses on System QoS and application counters: Video Freeze, WEB Latency, or Page Load Time" transform="translate(0 0)" fill="#ded7d7" font-size="26" font-family="Arial-BoldMT, Arial" font-weight="700"><tspan x="0" y="24">NETOPS ENGINEERS ARE LOOKING FOR AN </tspan><tspan x="0" y="55">EFFICIENT SOLUTION TO RUN EFFECTIVE </tspan><tspan x="0" y="86">USER-EXPERIENCE KPI THAT TRADITIONAL </tspan><tspan x="0" y="117">MONITORING FAILS TO DELIVER. </tspan><tspan font-size="20" font-family="ArialMT, Arial" font-weight="400"><tspan x="0" y="148"></tspan></tspan><tspan font-size="24" font-family="ArialMT, Arial" font-weight="400"><tspan x="0" y="179">Conventional monitoring focuses on System QoS and </tspan><tspan x="0" y="210">application counters: Video Freeze, WEB Latency, or </tspan><tspan x="0" y="241">Page Load Time are merely a starting point, not enough </tspan><tspan x="0" y="272">to deliver a consistent user experience strategy from </tspan></tspan></text>
        </g>
      </g>
      <g id="Groupe_3030" data-name="Groupe 3030" transform="translate(822.701 427)">
        <g transform="matrix(1, 0, 0, 1, -800.2, -863)" filter="url(#Tracé_8534-3)">
          <g id="Tracé_8534-6" data-name="Tracé 8534" transform="translate(800.2 863)" fill="#100a26">
            <path d="M27.856,0H636.5c15.384,0,27.856,10.342,27.856,23.1V339.564c0,12.758-12.471,23.1-27.856,23.1H27.856C12.471,362.663,0,352.321,0,339.564V23.1C0,10.342,12.471,0,27.856,0Z" stroke="none"/>
            <path d="M 27.85552978515625 1.000030517578125 C 24.2080078125 1.000030517578125 20.67144775390625 1.591766357421875 17.3438720703125 2.758941650390625 C 14.13916015625 3.8829345703125 11.26361083984375 5.490020751953125 8.7969970703125 7.535430908203125 C 6.34417724609375 9.56951904296875 4.420654296875 11.93377685546875 3.079833984375 14.56253051757812 C 1.69976806640625 17.26837158203125 1 20.140625 1 23.099609375 L 1 339.5637817382812 C 1 342.5227661132812 1.69976806640625 345.39501953125 3.079833984375 348.1007690429688 C 4.420654296875 350.7295227050781 6.34417724609375 353.0937805175781 8.7969970703125 355.1278686523438 C 11.26361083984375 357.1733703613281 14.13916015625 358.7803649902344 17.3438720703125 359.9044494628906 C 20.67144775390625 361.0716247558594 24.2080078125 361.6633605957031 27.85552978515625 361.6633605957031 L 636.4986572265625 361.6633605957031 C 640.1461791992188 361.6633605957031 643.6827392578125 361.0716247558594 647.0103149414062 359.9044494628906 C 650.2150268554688 358.7803649902344 653.090576171875 357.1733703613281 655.5571899414062 355.1278686523438 C 658.010009765625 353.0937805175781 659.9335327148438 350.7295227050781 661.2743530273438 348.1007690429688 C 662.6544189453125 345.39501953125 663.3541870117188 342.5227661132812 663.3541870117188 339.5637817382812 L 663.3541870117188 23.099609375 C 663.3541870117188 20.140625 662.6544189453125 17.26837158203125 661.2743530273438 14.56253051757812 C 659.9335327148438 11.93377685546875 658.010009765625 9.56951904296875 655.5571899414062 7.535430908203125 C 653.090576171875 5.490020751953125 650.2150268554688 3.8829345703125 647.0103149414062 2.758941650390625 C 643.6827392578125 1.591766357421875 640.1461791992188 1.000030517578125 636.4986572265625 1.000030517578125 L 27.85552978515625 1.000030517578125 M 27.85552978515625 3.0517578125e-05 L 636.4986572265625 3.0517578125e-05 C 651.8828735351562 3.0517578125e-05 664.3541870117188 10.342041015625 664.3541870117188 23.099609375 L 664.3541870117188 339.5637817382812 C 664.3541870117188 352.3212890625 651.8828735351562 362.6633605957031 636.4986572265625 362.6633605957031 L 27.85552978515625 362.6633605957031 C 12.4713134765625 362.6633605957031 0 352.3212890625 0 339.5637817382812 L 0 23.099609375 C 0 10.342041015625 12.4713134765625 3.0517578125e-05 27.85552978515625 3.0517578125e-05 Z" stroke="none" fill="rgba(112,112,112,0.71)"/>
          </g>
        </g>
        <g id="Icon_material-round-bubble-chart-3" data-name="Icon material-round-bubble-chart" transform="translate(359.263 43.328)" opacity="0.144">
          <path id="Tracé_8029-3" data-name="Tracé 8029" d="M124.335,71.368A60.168,60.168,0,1,1,64.168,11.2a60.168,60.168,0,0,1,60.168,60.168Z" transform="translate(-4 124.177)" fill="#ededed"/>
          <path id="Tracé_8030-3" data-name="Tracé 8030" d="M88.01,53.6A37.6,37.6,0,1,1,50.4,16,37.6,37.6,0,0,1,88.01,53.6Z" transform="translate(152.661 209.629)" fill="#ededed"/>
          <path id="Tracé_8031-3" data-name="Tracé 8031" d="M190.9,94.252A90.252,90.252,0,1,1,100.652,4,90.252,90.252,0,0,1,190.9,94.252Z" transform="translate(109.935 -4)" fill="#ededed"/>
        </g>
        <g id="Groupe_2-3" data-name="Groupe 2" transform="translate(32.189 34.201)">
          <text id="NetOps_experts_are_rarely_aware_of_what_is_going_on_with_network_end_users_due_to_a_wide_performance_perspective_Subscribers_usually_complain_to_network_engineers_before_they_are_aware_of_service_degradations._Few_solutions_can_detect_and_fully_depict_E2" data-name="NetOps experts are rarely aware of what is going on with network end users due to a wide performance perspective 

Subscribers usually complain to network engineers before they are aware of service degradations. Few solutions can detect and fully depict E2" transform="translate(0 0)" fill="#ded7d7" font-size="26" font-family="Arial-BoldMT, Arial" font-weight="700"><tspan x="0" y="24">NETOPS EXPERTS ARE RARELY AWARE OF </tspan><tspan x="0" y="55">WHAT IS GOING ON WITH NETWORK END </tspan><tspan x="0" y="86">USERS DUE TO A WIDE PERFORMANCE </tspan><tspan x="0" y="117">PERSPECTIVE </tspan><tspan font-size="20" font-family="ArialMT, Arial" font-weight="400"><tspan x="0" y="148"></tspan></tspan><tspan font-size="24" font-family="ArialMT, Arial" font-weight="400"><tspan x="0" y="179">Subscribers usually complain to network engineers </tspan><tspan x="0" y="210">before they are aware of service degradations. Few </tspan><tspan x="0" y="241">solutions can detect and fully depict E2E network faults </tspan><tspan x="0" y="272">and their impact on user application and service </tspan></tspan></text>
        </g>
      </g>
    </g>
    <g id="Groupe_3938" data-name="Groupe 3938" transform="translate(17877 -3313)">
      <text id="COGNITIVE_API_TO_INNOVATIVE_MARKETING_ANALYSIS_COMBINING_SENTIMENT_ANALYSIS_AND_NETWORK_QUALITY_Get_digital_experience:_How_users_access_network_services_what_interests_them_and_how_the_given_QoS_engages_or_helps_to_their_cognitive_satisfaction._" data-name="COGNITIVE API TO INNOVATIVE MARKETING ANALYSIS, COMBINING SENTIMENT ANALYSIS AND NETWORK QUALITY 

Get digital experience: How users access network services, what interests them, and how the given QoS engages or helps to their cognitive satisfaction.
" transform="translate(2008 1608)" fill="#100a26" font-size="34" font-family="Arial-BoldMT, Arial" font-weight="700"><tspan x="0" y="31">COGNITIVE API TO INNOVATIVE MARKETING </tspan><tspan x="0" y="76">ANALYSIS, COMBINING SENTIMENT ANALYSIS </tspan><tspan x="0" y="121">AND NETWORK QUALITY </tspan><tspan font-family="ArialMT, Arial" font-weight="400"><tspan x="0" y="166"></tspan><tspan x="0" y="211">Get digital experience: How users access network </tspan><tspan x="0" y="256">services, what interests them, and how the given </tspan><tspan x="0" y="301">QoS engages or helps to their cognitive </tspan><tspan x="0" y="346">satisfaction.</tspan></tspan></text>
      <g transform="matrix(1, 0, 0, 1, 1415, 1243)" filter="url(#Icon_fa-brands-uncharted)">
        <path id="Icon_fa-brands-uncharted-2" data-name="Icon fa-brands-uncharted" d="M119.064,150.4a3.99,3.99,0,0,0,3.685-2.457A35.651,35.651,0,0,1,133.8,129.216a3.558,3.558,0,0,0,1.229-3.07,3.129,3.129,0,0,0-1.536-2.456L46.917,73.033,102.179,40.8a7.371,7.371,0,0,0,3.684-6.14,6.753,6.753,0,0,0-3.684-6.14L85.6,19a7.228,7.228,0,0,0-7.061,0L4.244,61.98A7.373,7.373,0,0,0,.559,68.12v85.35a6.754,6.754,0,0,0,3.684,6.14l16.578,9.517a6.547,6.547,0,0,0,3.684.921,6.97,6.97,0,0,0,4.912-1.842,8.008,8.008,0,0,0,2.15-5.219V99.746l85.961,50.347a3.336,3.336,0,0,0,1.535.306ZM231.43,257.852a9.253,9.253,0,0,0-3.684.921L172.484,290.7V191.232a3.5,3.5,0,0,0-4.605-3.377,39.325,39.325,0,0,1-21.491.307,3.6,3.6,0,0,0-4.6,3.377V290.4L86.521,258.466a6.547,6.547,0,0,0-3.684-.921,7.141,7.141,0,0,0-7.061,7.061v19.342a6.753,6.753,0,0,0,3.684,6.14l74.3,42.674a6.547,6.547,0,0,0,3.684.921,8.176,8.176,0,0,0,3.684-.921l74.3-42.674a7.371,7.371,0,0,0,3.684-6.14V264.606C238.495,261.23,235.113,257.852,231.43,257.852ZM203.8,35.608a17.054,17.054,0,1,0-17.054-17.054A17.054,17.054,0,0,0,203.8,35.608Zm47.178-7.479a17.054,17.054,0,1,0,17.054,17.054A17.054,17.054,0,0,0,250.977,28.13Zm46.848,62.052a17.054,17.054,0,1,0-17.054-17.054A17.054,17.054,0,0,0,297.825,90.181ZM250.977,83.36a17.054,17.054,0,1,0,17.054,17.054A17.054,17.054,0,0,0,250.977,83.36ZM203.8,145.083a17.054,17.054,0,1,0-17.054-17.054A17.054,17.054,0,0,0,203.8,145.083Zm-46.027,26.959a17.054,17.054,0,1,0-17.054-17.054,17.054,17.054,0,0,0,17.054,17.054Zm140.053-61.067a17.054,17.054,0,1,0,17.054,17.054,17.054,17.054,0,0,0-17.054-17.054Zm0,53.588a17.054,17.054,0,1,0,17.054,17.054,17.054,17.054,0,0,0-17.054-17.054Z" transform="translate(183.44 383.66)" fill="#0f0925"/>
      </g>
    </g>
    <text id="Proactive_Comprehension_of_the_Cognitive_Factors_that_Stimulate_or_Affect_the_User_Satisfaction_Get_KPI_for_User_Interest_User_Satisfaction_Interest_and_Engagement_while_Identifying_Network_Quality_Frustration_Events" data-name="Proactive Comprehension of the Cognitive Factors that
Stimulate or Affect the User Satisfaction  

Get KPI for User Interest, User Satisfaction, Interest, and Engagement while Identifying
Network Quality Frustration Events" transform="translate(19370 -2070)" fill="#100a26" font-size="43" font-family="SegoeUI-Bold, Segoe UI" font-weight="700"><tspan x="0" y="46">PROACTIVE COMPREHENSION OF THE COGNITIVE FACTORS THAT</tspan><tspan x="0" y="95" xml:space="preserve">STIMULATE OR AFFECT THE USER SATISFACTION  </tspan><tspan fill="#4f4c52" font-size="31" font-family="ArialMT, Arial" font-weight="400"><tspan x="0" y="144"></tspan><tspan x="0" y="193">Get KPI for User Interest, User Satisfaction, Interest, and Engagement while Identifying</tspan><tspan x="0" y="242">Network Quality Frustration Events</tspan></tspan></text>
  </g>
</svg>
