<svg width="93" height="105" viewBox="0 0 93 105" fill="none" xmlns="http://www.w3.org/2000/svg">
  <g clip-path="url(#clip0_25_1365)">
    <path d="M87.7471 80.391L50.0471 102.157C48.9456 102.792 47.6962 103.127 46.4246 103.127C45.1529 103.127 43.9036 102.792 42.8021 102.157L5.11107 80.391C4.0106 79.7547 3.0969 78.8401 2.46167 77.739C1.82644 76.6379 1.49205 75.3891 1.49207 74.118V30.591C1.4917 29.3195 1.82592 28.0702 2.46117 26.9688C3.09641 25.8673 4.01031 24.9524 5.11107 24.316L42.8061 2.56097C43.9076 1.92548 45.1569 1.59094 46.4286 1.59094C47.7002 1.59094 48.9496 1.92548 50.0511 2.56097L87.7511 24.327C88.8518 24.9634 89.7657 25.8783 90.401 26.9798C91.0362 28.0812 91.3704 29.3305 91.3701 30.602V74.126C91.3704 75.3975 91.0362 76.6467 90.401 77.7482C89.7657 78.8496 88.8518 79.7645 87.7511 80.401L87.7471 80.391Z" stroke="#1B4476" stroke-width="3" stroke-miterlimit="10"/>
    <path d="M41.7246 49.6108C40.9519 49.6108 40.1792 49.6108 39.4066 49.6108C37.564 49.6108 35.7215 49.6108 33.8723 49.6108C31.6335 49.6108 29.4013 49.6108 27.1626 49.6108C25.2342 49.6108 23.3124 49.6108 21.384 49.6108C20.4726 49.6108 19.5546 49.6306 18.6433 49.6108C18.5706 49.6108 18.5046 49.6041 18.4319 49.5975C18.6102 49.624 18.7819 49.6438 18.9603 49.6702C18.815 49.6504 18.6763 49.6174 18.5376 49.5645C18.6961 49.6306 18.8546 49.6966 19.0131 49.7626C18.9338 49.7296 18.8612 49.6834 18.7819 49.6438C18.4848 49.4985 19.1716 50.0004 18.881 49.7164C18.6102 49.4456 19.0461 50.0268 18.9735 49.8551C18.9338 49.7626 18.8744 49.6768 18.8348 49.5909C18.9008 49.7494 18.9669 49.9079 19.0329 50.0664C18.9801 49.9277 18.9471 49.7891 18.9272 49.6438C18.9537 49.8221 18.9735 49.9938 18.9999 50.1721C18.9669 49.756 18.9867 49.3334 18.9867 48.9173C18.9867 48.0126 18.9867 47.1012 18.9867 46.1964C18.9867 44.1293 18.9867 42.0557 18.9867 39.9886C18.9867 39.4801 18.9537 38.9649 18.9999 38.4564C18.9735 38.6347 18.9537 38.8064 18.9272 38.9847C18.9471 38.8395 18.9801 38.7008 19.0329 38.5621C18.9669 38.7206 18.9008 38.8791 18.8348 39.0376C18.8678 38.9583 18.914 38.8857 18.9537 38.8064C19.0989 38.5093 18.597 39.1961 18.881 38.9055C19.1518 38.6347 18.5706 39.0706 18.7423 38.998C18.8348 38.9649 18.9206 38.8989 19.0065 38.8593C18.848 38.9253 18.6895 38.9914 18.531 39.0574C18.6697 39.0046 18.8084 38.9715 18.9537 38.9517C18.7753 38.9781 18.6036 38.998 18.4253 39.0244C19.165 38.9649 19.9311 39.0112 20.6707 39.0112C22.3482 39.0112 24.0256 39.0112 25.7097 39.0112C29.5136 39.0112 33.3176 39.0112 37.1215 39.0112C37.9999 39.0112 38.8716 39.0112 39.75 39.0112C40.7868 39.0112 41.7774 38.0998 41.7312 37.0299C41.685 35.9535 40.8595 35.0487 39.75 35.0487C38.4754 35.0487 37.2008 35.0487 35.9262 35.0487C33.2383 35.0487 30.5505 35.0487 27.8626 35.0487C25.4257 35.0487 22.9888 35.0487 20.5518 35.0487C19.9575 35.0487 19.3631 35.0487 18.7753 35.0487C18.3527 35.0487 17.9168 35.0883 17.514 35.2204C16.0214 35.7223 15.044 37.0762 15.0176 38.6479C14.978 40.6688 15.0176 42.6897 15.0176 44.7105C15.0176 45.9851 15.0176 47.2531 15.0176 48.5277C15.0176 49.3466 14.9252 50.2976 15.1893 51.0835C15.6912 52.576 17.0451 53.5468 18.6168 53.5798C18.7291 53.5798 18.8348 53.5798 18.9471 53.5798C19.6009 53.5798 20.2547 53.5798 20.9085 53.5798C23.3454 53.5798 25.7889 53.5798 28.2258 53.5798C30.9731 53.5798 33.727 53.5798 36.4743 53.5798C38.1386 53.5798 39.8028 53.5798 41.4736 53.5798C41.5529 53.5798 41.6387 53.5798 41.718 53.5798C42.7548 53.5798 43.7455 52.6684 43.6992 51.5986C43.6596 50.5155 42.8341 49.6108 41.7246 49.6108Z" fill="#1B4476"/>
    <path d="M23.352 44.301C23.352 44.3604 23.3454 44.4198 23.3388 44.4793C23.3652 44.301 23.385 44.1292 23.4114 43.9509C23.3916 44.0698 23.3652 44.1755 23.319 44.2877C23.385 44.1292 23.4511 43.9707 23.5171 43.8122C23.4907 43.8717 23.4379 43.9377 23.418 44.0038C23.3652 44.1557 23.7548 43.6273 23.5435 43.8321C23.352 44.0236 23.7416 43.667 23.7482 43.6868C23.7548 43.7 23.5303 43.8056 23.5237 43.8056C23.6822 43.7396 23.8407 43.6736 23.9992 43.6075C23.8869 43.6471 23.7813 43.6802 23.6624 43.7C23.8407 43.6736 24.0124 43.6538 24.1907 43.6273C24.0718 43.6405 23.953 43.6405 23.8341 43.6273C24.0124 43.6538 24.1841 43.6736 24.3624 43.7C24.2436 43.6802 24.1379 43.6538 24.0256 43.6075C24.1841 43.6736 24.3426 43.7396 24.5011 43.8056C24.4417 43.7792 24.3756 43.7264 24.3096 43.7066C24.1577 43.6538 24.686 44.0434 24.4813 43.8321C24.2898 43.6405 24.6464 44.0302 24.6266 44.0368C24.6134 44.0434 24.5077 43.8189 24.5077 43.8122C24.5738 43.9707 24.6398 44.1292 24.7058 44.2877C24.6662 44.1755 24.6332 44.0698 24.6134 43.9509C24.6398 44.1292 24.6596 44.301 24.686 44.4793C24.6728 44.3604 24.6728 44.2415 24.686 44.1226C24.6596 44.301 24.6398 44.4727 24.6134 44.651C24.6332 44.5321 24.6596 44.4264 24.7058 44.3142C24.6398 44.4727 24.5738 44.6312 24.5077 44.7897C24.5341 44.7302 24.587 44.6642 24.6068 44.5981C24.6596 44.4462 24.27 44.9746 24.4813 44.7698C24.6728 44.5783 24.2832 44.9349 24.2766 44.9151C24.27 44.9019 24.4945 44.7963 24.5011 44.7963C24.3426 44.8623 24.1841 44.9283 24.0256 44.9944C24.1379 44.9548 24.2436 44.9217 24.3624 44.9019C24.1841 44.9283 24.0124 44.9482 23.8341 44.9746C23.953 44.9614 24.0718 44.9614 24.1907 44.9746C24.0124 44.9482 23.8407 44.9283 23.6624 44.9019C23.7813 44.9217 23.8869 44.9482 23.9992 44.9944C23.8407 44.9283 23.6822 44.8623 23.5237 44.7963C23.5831 44.8227 23.6492 44.8755 23.7152 44.8953C23.8671 44.9482 23.3388 44.5585 23.5435 44.7698C23.735 44.9614 23.3784 44.5717 23.3982 44.5651C23.4114 44.5585 23.5171 44.7831 23.5171 44.7897C23.4511 44.6312 23.385 44.4727 23.319 44.3142C23.3586 44.4264 23.3916 44.5321 23.4114 44.651C23.385 44.4727 23.3652 44.301 23.3388 44.1226C23.3454 44.1821 23.352 44.2415 23.352 44.301C23.385 45.3378 24.2369 46.3284 25.3332 46.2822C26.3767 46.236 27.3541 45.4104 27.3145 44.301C27.255 42.5112 25.8483 40.9989 24.0124 40.9989C22.2161 40.9989 20.7104 42.5046 20.7104 44.301C20.7104 46.0973 22.2161 47.603 24.0124 47.603C25.855 47.603 27.255 46.0973 27.3145 44.301C27.3475 43.2641 26.3767 42.2735 25.3332 42.3197C24.2303 42.3726 23.3916 43.1915 23.352 44.301Z" fill="#1B4476"/>
    <path d="M64.6541 62.7C64.6541 64.9388 64.6541 67.1842 64.6541 69.423C64.6541 69.773 64.6739 70.1296 64.6408 70.473C64.6673 70.2947 64.6871 70.123 64.7135 69.9447C64.6937 70.09 64.6607 70.2287 64.6078 70.3674C64.6739 70.2089 64.7399 70.0504 64.806 69.8919C64.7729 69.9711 64.7267 70.0438 64.6871 70.123C64.5418 70.4202 65.0437 69.7334 64.7597 70.024C64.489 70.2947 65.0701 69.8589 64.8984 69.9315C64.8059 69.9645 64.7201 70.0306 64.6342 70.0702C64.7927 70.0042 64.9512 69.9381 65.1097 69.8721C64.9711 69.9249 64.8324 69.9579 64.6871 69.9777C64.8654 69.9513 65.0371 69.9315 65.2154 69.9051C64.7597 69.9447 64.2842 69.9183 63.8285 69.9183C62.7058 69.9183 61.5831 69.9183 60.4605 69.9183C58.8028 69.9183 57.1386 69.9183 55.481 69.9183C53.4403 69.9183 51.3996 69.9183 49.3656 69.9183C47.1268 69.9183 44.8946 69.9183 42.6558 69.9183C40.4104 69.9183 38.165 69.9183 35.9196 69.9183C33.8129 69.9183 31.7128 69.9183 29.6061 69.9183C27.8296 69.9183 26.0531 69.9183 24.2832 69.9183C23.0086 69.9183 21.7406 69.9183 20.466 69.9183C19.8716 69.9183 19.2839 69.9249 18.6895 69.9183C18.6037 69.9183 18.5244 69.9183 18.4386 69.9051C18.6169 69.9315 18.7886 69.9513 18.9669 69.9777C18.8216 69.9579 18.6829 69.9249 18.5442 69.8721C18.7027 69.9381 18.8612 70.0042 19.0197 70.0702C18.9405 70.0372 18.8678 69.991 18.7886 69.9513C18.4914 69.806 19.1782 70.3079 18.8876 70.024C18.6169 69.7532 19.0527 70.3344 18.9801 70.1627C18.9471 70.0702 18.881 69.9843 18.8414 69.8985C18.9074 70.057 18.9735 70.2155 19.0395 70.374C18.9867 70.2353 18.9537 70.0966 18.9339 69.9513C18.9603 70.1296 18.9801 70.3013 19.0065 70.4797C18.9735 70.0636 18.9933 69.6409 18.9933 69.2249C18.9933 68.3201 18.9933 67.4087 18.9933 66.504C18.9933 64.4369 18.9933 62.3632 18.9933 60.2961C18.9933 59.7876 18.9603 59.2725 19.0065 58.764C18.9801 58.9423 18.9603 59.114 18.9339 59.2923C18.9537 59.147 18.9867 59.0083 19.0395 58.8696C18.9735 59.0281 18.9074 59.1866 18.8414 59.3451C18.8744 59.2659 18.9207 59.1932 18.9603 59.114C19.1056 58.8168 18.6037 59.5036 18.8876 59.2131C19.1584 58.9423 18.5772 59.3782 18.7489 59.3055C18.8414 59.2725 18.9273 59.2065 19.0131 59.1668C18.8546 59.2329 18.6961 59.2989 18.5376 59.365C18.6763 59.3121 18.815 59.2791 18.9603 59.2593C18.782 59.2857 18.6103 59.3055 18.4319 59.3319C19.3565 59.2527 20.3141 59.3187 21.2453 59.3187C23.4114 59.3187 25.5842 59.3187 27.7503 59.3187C30.3722 59.3187 33.0006 59.3187 35.6224 59.3187C37.9074 59.3187 40.1859 59.3187 42.4709 59.3187C43.5738 59.3187 44.6833 59.3385 45.7861 59.3187C45.7993 59.3187 45.8192 59.3187 45.8324 59.3187C46.8692 59.3187 47.8598 58.4074 47.8136 57.3375C47.7674 56.261 46.9419 55.3563 45.8324 55.3563C45.0993 55.3563 44.3663 55.3563 43.6332 55.3563C41.8237 55.3563 40.0075 55.3563 38.198 55.3563C35.8998 55.3563 33.595 55.3563 31.2967 55.3563C29.0579 55.3563 26.8258 55.3563 24.587 55.3563C23.002 55.3563 21.4236 55.3563 19.8386 55.3563C19.4754 55.3563 19.1056 55.3563 18.7423 55.3563C17.1111 55.3563 15.6384 56.3469 15.1629 57.9385C14.9714 58.5857 15.0176 59.2923 15.0176 59.9593C15.0176 60.9103 15.0176 61.8547 15.0176 62.8057C15.0176 64.9454 15.0176 67.0851 15.0176 69.2315C15.0176 69.8853 14.9846 70.5457 15.1299 71.1863C15.4931 72.8175 17.0715 73.8808 18.6829 73.894C19.3235 73.9006 19.9707 73.894 20.6113 73.894C21.985 73.894 23.352 73.894 24.7257 73.894C26.621 73.894 28.5098 73.894 30.4052 73.894C32.6374 73.894 34.8696 73.894 37.1017 73.894C39.466 73.894 41.8303 73.894 44.1945 73.894C46.4928 73.894 48.791 73.894 51.0892 73.894C53.1101 73.894 55.1375 73.894 57.1584 73.894C58.7302 73.894 60.302 73.894 61.8671 73.894C62.7719 73.894 63.6833 73.894 64.588 73.894C64.7333 73.894 64.872 73.894 65.0173 73.894C67.0712 73.8477 68.6099 72.2099 68.6099 70.1825C68.6165 68.2475 68.6099 66.3191 68.6099 64.3841C68.6099 63.8293 68.6099 63.268 68.6099 62.7132C68.6099 61.6764 67.6985 60.6858 66.6287 60.732C65.5654 60.765 64.6541 61.5905 64.6541 62.7Z" fill="#1B4476"/>
    <path d="M23.352 64.6284C23.352 64.6878 23.3454 64.7473 23.3388 64.8067C23.3652 64.6284 23.385 64.4567 23.4114 64.2784C23.3916 64.3973 23.3652 64.5029 23.319 64.6152C23.385 64.4567 23.4511 64.2982 23.5171 64.1397C23.4907 64.1991 23.4379 64.2652 23.418 64.3312C23.3652 64.4831 23.7548 63.9548 23.5435 64.1595C23.352 64.351 23.7416 63.9944 23.7482 64.0142C23.7548 64.0274 23.5303 64.1331 23.5237 64.1331C23.6822 64.0671 23.8407 64.001 23.9992 63.935C23.8869 63.9746 23.7813 64.0076 23.6624 64.0274C23.8407 64.001 24.0124 63.9812 24.1907 63.9548C24.0718 63.968 23.953 63.968 23.8341 63.9548C24.0124 63.9812 24.1841 64.001 24.3624 64.0274C24.2436 64.0076 24.1379 63.9812 24.0256 63.935C24.1841 64.001 24.3426 64.0671 24.5011 64.1331C24.4417 64.1067 24.3756 64.0538 24.3096 64.034C24.1577 63.9812 24.686 64.3708 24.4813 64.1595C24.2898 63.968 24.6464 64.3576 24.6266 64.3642C24.6134 64.3708 24.5077 64.1463 24.5077 64.1397C24.5738 64.2982 24.6398 64.4567 24.7058 64.6152C24.6662 64.5029 24.6332 64.3973 24.6134 64.2784C24.6398 64.4567 24.6596 64.6284 24.686 64.8067C24.6728 64.6878 24.6728 64.569 24.686 64.4501C24.6596 64.6284 24.6398 64.8001 24.6134 64.9784C24.6332 64.8596 24.6596 64.7539 24.7058 64.6416C24.6398 64.8001 24.5738 64.9586 24.5077 65.1171C24.5341 65.0577 24.587 64.9916 24.6068 64.9256C24.6596 64.7737 24.27 65.302 24.4813 65.0973C24.6728 64.9058 24.2832 65.2624 24.2766 65.2426C24.27 65.2294 24.4945 65.1237 24.5011 65.1237C24.3426 65.1898 24.1841 65.2558 24.0256 65.3218C24.1379 65.2822 24.2436 65.2492 24.3624 65.2294C24.1841 65.2558 24.0124 65.2756 23.8341 65.302C23.953 65.2888 24.0718 65.2888 24.1907 65.302C24.0124 65.2756 23.8407 65.2558 23.6624 65.2294C23.7813 65.2492 23.8869 65.2756 23.9992 65.3218C23.8407 65.2558 23.6822 65.1898 23.5237 65.1237C23.5831 65.1501 23.6492 65.203 23.7152 65.2228C23.8671 65.2756 23.3388 64.886 23.5435 65.0973C23.735 65.2888 23.3784 64.8992 23.3982 64.8926C23.4114 64.886 23.5171 65.1105 23.5171 65.1171C23.4511 64.9586 23.385 64.8001 23.319 64.6416C23.3586 64.7539 23.3916 64.8596 23.4114 64.9784C23.385 64.8001 23.3652 64.6284 23.3388 64.4501C23.3454 64.5095 23.352 64.569 23.352 64.6284C23.385 65.6652 24.2369 66.6559 25.3332 66.6096C26.3767 66.5634 27.3541 65.7379 27.3145 64.6284C27.255 62.8387 25.8483 61.3264 24.0124 61.3264C22.2161 61.3264 20.7104 62.8321 20.7104 64.6284C20.7104 66.4247 22.2161 67.9305 24.0124 67.9305C25.855 67.9305 27.255 66.4247 27.3145 64.6284C27.3475 63.5916 26.3767 62.6009 25.3332 62.6472C24.2303 62.7 23.3916 63.5189 23.352 64.6284Z" fill="#1B4476"/>
    <path d="M39.816 71.9061C39.816 74.4883 39.816 77.0771 39.816 79.6593C39.816 80.0292 39.816 80.3924 39.816 80.7622C39.816 81.7991 40.7274 82.7897 41.7973 82.7435C42.8737 82.6972 43.7785 81.8717 43.7785 80.7622C43.7785 78.18 43.7785 75.5912 43.7785 73.009C43.7785 72.6392 43.7785 72.276 43.7785 71.9061C43.7785 70.8693 42.8671 69.8787 41.7973 69.9249C40.7274 69.9711 39.816 70.79 39.816 71.9061Z" fill="#1B4476"/>
    <path d="M64.7795 78.781C64.3701 78.781 63.9606 78.781 63.5512 78.781C62.4351 78.781 61.3256 78.781 60.2095 78.781C58.5585 78.781 56.914 78.781 55.263 78.781C53.2488 78.781 51.2411 78.781 49.2269 78.781C47.0211 78.781 44.8219 78.781 42.6162 78.781C40.3906 78.781 38.165 78.781 35.946 78.781C33.8723 78.781 31.7986 78.781 29.725 78.781C27.9749 78.781 26.2182 78.781 24.4681 78.781C23.2067 78.781 21.9453 78.781 20.6839 78.781C20.083 78.781 19.4886 78.7744 18.8876 78.781C18.8612 78.781 18.8348 78.781 18.8084 78.781C17.7715 78.781 16.7809 79.6924 16.8271 80.7622C16.8734 81.8387 17.6989 82.7435 18.8084 82.7435C19.2178 82.7435 19.6273 82.7435 20.0367 82.7435C21.1528 82.7435 22.2623 82.7435 23.3784 82.7435C25.0294 82.7435 26.6739 82.7435 28.3249 82.7435C30.3391 82.7435 32.3468 82.7435 34.361 82.7435C36.5668 82.7435 38.766 82.7435 40.9717 82.7435C43.1973 82.7435 45.4229 82.7435 47.6419 82.7435C49.7156 82.7435 51.7893 82.7435 53.863 82.7435C55.613 82.7435 57.3697 82.7435 59.1198 82.7435C60.3812 82.7435 61.6426 82.7435 62.904 82.7435C63.5049 82.7435 64.0993 82.7501 64.7003 82.7435C64.7267 82.7435 64.7531 82.7435 64.7795 82.7435C65.8164 82.7435 66.807 81.8321 66.7608 80.7622C66.7145 79.6858 65.8956 78.781 64.7795 78.781Z" fill="#1B4476"/>
    <path d="M67.3287 53.1703C64.9711 54.5109 62.6068 55.8516 60.2491 57.1922C59.9123 57.3837 59.5689 57.5752 59.2321 57.7733C59.8991 57.7733 60.5661 57.7733 61.2331 57.7733C59.7142 56.8884 58.1952 56.0034 56.6763 55.1185C55.7715 54.5902 54.8734 54.0684 53.9686 53.5401C53.7771 53.4278 53.5856 53.3156 53.3941 53.2033C53.1563 53.0646 52.9252 52.9193 52.694 52.7674C52.5025 52.642 52.311 52.5099 52.1261 52.3712C52.0865 52.3448 52.0468 52.3118 52.0072 52.2853C51.8157 52.1401 52.3638 52.5627 52.1789 52.4174C52.0798 52.3382 51.9742 52.2523 51.8751 52.1731C51.4789 51.8363 51.1024 51.4796 50.7458 51.1032C50.5675 50.9183 50.3958 50.7202 50.2307 50.522C50.1448 50.423 50.0656 50.3239 49.9863 50.2249C49.8543 50.0598 50.1779 50.4626 50.1515 50.4362C50.0986 50.3768 50.0524 50.3041 50.0062 50.2447C49.3854 49.3993 48.8703 48.488 48.4608 47.5304C48.5268 47.6889 48.5929 47.8474 48.6589 48.0059C48.1966 46.8964 47.8796 45.7407 47.7145 44.5519C47.741 44.7302 47.7608 44.902 47.7872 45.0803C47.6749 44.1887 47.6683 43.3038 47.6683 42.4122C47.6683 41.3027 47.6683 40.1932 47.6683 39.0837C47.6683 36.31 47.6683 33.5429 47.6683 30.7692C47.6683 30.1022 47.6683 29.4418 47.6683 28.7747C47.0079 29.4351 46.3475 30.0956 45.6871 30.756C48.3419 30.756 51.0364 30.3003 53.5328 29.3889C54.847 28.9068 56.1348 28.3257 57.3499 27.6256C58.4 27.018 59.3774 26.3048 60.335 25.5585C60.8237 25.1755 61.3124 24.7925 61.8077 24.4028C60.8765 24.4028 59.9387 24.4028 59.0076 24.4028C60.3218 25.4331 61.6096 26.4963 63.0294 27.3681C65.3145 28.7615 67.8835 29.7786 70.5119 30.2871C72.0242 30.5843 73.5762 30.7494 75.1216 30.7494C74.4611 30.089 73.8007 29.4285 73.1403 28.7681C73.1403 30.5446 73.1403 32.3211 73.1403 34.091C73.1403 36.7327 73.1403 39.3677 73.1403 42.0094C73.1403 43 73.1535 43.984 73.0215 44.9746C73.0479 44.7963 73.0677 44.6246 73.0941 44.4463C72.9356 45.635 72.6186 46.7841 72.1563 47.8936C72.2224 47.7351 72.2884 47.5766 72.3544 47.4181C72.0771 48.0653 71.7601 48.6927 71.3836 49.2937C71.1987 49.5909 71.0006 49.8814 70.7893 50.1654C70.7496 50.2183 70.71 50.2711 70.677 50.3173C70.743 50.2315 70.8025 50.1522 70.8685 50.0664C70.8025 50.1324 70.743 50.2183 70.6902 50.2909C70.5779 50.4296 70.4657 50.5617 70.3468 50.6938C69.8779 51.2287 69.3628 51.7174 68.8146 52.1731C68.7552 52.2259 68.6892 52.2721 68.6231 52.325C68.3325 52.5627 69.0194 52.0344 68.7156 52.2523C68.5703 52.358 68.425 52.4637 68.2797 52.5627C67.9759 52.7873 67.6523 52.9854 67.3287 53.1703C66.4306 53.6854 66.0409 54.9864 66.6155 55.878C67.2032 56.7893 68.3656 57.1394 69.3232 56.5912C72.3544 54.8543 74.6461 52.1533 75.9801 48.9371C76.8056 46.9492 77.1028 44.8293 77.1028 42.6896C77.1028 39.2092 77.1028 35.7289 77.1028 32.2485C77.1028 31.0862 77.1028 29.9238 77.1028 28.7549C77.1028 27.6851 76.198 26.7737 75.1216 26.7737C74.1574 26.7737 73.1932 26.7077 72.2422 26.5756C72.4205 26.602 72.5922 26.6218 72.7705 26.6482C70.9081 26.3907 69.092 25.8887 67.3617 25.1623C67.5202 25.2283 67.6787 25.2944 67.8372 25.3604C66.1994 24.667 64.6673 23.7688 63.2474 22.7056C62.9766 22.5008 63.5115 22.9169 63.3464 22.7848C63.2936 22.7452 63.2408 22.7056 63.1879 22.6593C63.0096 22.5207 62.8247 22.3754 62.6464 22.2367C62.369 22.0187 62.0917 21.8008 61.8143 21.5829C61.4048 21.2593 60.969 20.9753 60.4142 21.0017C59.8529 21.0281 59.45 21.2395 59.0142 21.5829C58.7368 21.8008 58.4594 22.0187 58.182 22.2367C58.0037 22.3754 57.8188 22.5207 57.6405 22.6593C57.5877 22.699 57.5348 22.7386 57.482 22.7848C57.3235 22.9103 57.9047 22.4678 57.5811 22.7056C56.1546 23.7688 54.629 24.667 52.9912 25.3604C53.1497 25.2944 53.3082 25.2283 53.4667 25.1623C51.7364 25.8887 49.9137 26.3907 48.058 26.6482C48.2363 26.6218 48.408 26.602 48.5863 26.5756C47.6287 26.701 46.6711 26.7737 45.7069 26.7737C44.637 26.7737 43.7257 27.6785 43.7257 28.7549C43.7257 31.4098 43.7257 34.058 43.7257 36.7129C43.7257 38.3903 43.7257 40.0678 43.7257 41.7452C43.7257 43.1056 43.7389 44.4265 43.9436 45.7869C44.3993 48.8578 45.9182 51.7768 48.0646 54.009C49.359 55.3562 50.9043 56.3337 52.5025 57.2648C54.0545 58.1696 55.6064 59.0744 57.165 59.9791C57.7462 60.3159 58.3273 60.6593 58.9151 60.9962C59.0274 61.0622 59.133 61.1282 59.2453 61.1877C59.9453 61.5707 60.685 61.5113 61.352 61.1348C63.9474 59.6885 66.523 58.196 69.1052 56.7299C69.1845 56.6837 69.2703 56.6374 69.3496 56.5912C70.2543 56.0761 70.6374 54.7751 70.0628 53.8835C69.4486 52.9722 68.2929 52.6221 67.3287 53.1703Z" fill="#1B4476"/>
    <path d="M60.685 39.2818C60.685 39.3742 60.6784 39.4601 60.6718 39.5526C60.6982 39.3742 60.718 39.2025 60.7444 39.0242C60.718 39.229 60.6652 39.4205 60.5925 39.612C60.6586 39.4535 60.7246 39.295 60.7906 39.1365C60.7378 39.2554 60.6784 39.3676 60.6123 39.4799C60.434 39.7969 60.7246 39.295 60.751 39.3214C60.751 39.3214 60.6189 39.4667 60.6057 39.4799C60.5661 39.5195 60.5199 39.5526 60.4803 39.5922C60.3284 39.7507 60.9029 39.3148 60.6454 39.4601C60.5199 39.5327 60.401 39.5988 60.2689 39.6582C60.4274 39.5922 60.5859 39.5261 60.7444 39.4601C60.5529 39.5327 60.3614 39.5856 60.1567 39.612C60.335 39.5856 60.5067 39.5658 60.685 39.5394C60.5067 39.5592 60.3284 39.5592 60.1434 39.5394C60.3218 39.5658 60.4935 39.5856 60.6718 39.612C60.467 39.5856 60.2755 39.5327 60.084 39.4601C60.2425 39.5261 60.401 39.5922 60.5595 39.6582C60.4406 39.6054 60.3284 39.546 60.2161 39.4799C59.8991 39.3016 60.401 39.5922 60.3746 39.6186C60.3746 39.6186 60.2293 39.4865 60.2161 39.4733C60.1765 39.4337 60.1434 39.3875 60.1038 39.3478C59.9453 39.1959 60.3812 39.7705 60.2359 39.5129C60.1633 39.3875 60.0972 39.2686 60.0378 39.1365C60.1038 39.295 60.1699 39.4535 60.2359 39.612C60.1633 39.4205 60.1104 39.229 60.084 39.0242C60.1104 39.2025 60.1302 39.3742 60.1567 39.5526C60.1368 39.3742 60.1368 39.1959 60.1567 39.011C60.1302 39.1893 60.1104 39.361 60.084 39.5394C60.1104 39.3346 60.1633 39.1431 60.2359 38.9516C60.1699 39.1101 60.1038 39.2686 60.0378 39.4271C60.0906 39.3082 60.1501 39.1959 60.2161 39.0837C60.3944 38.7667 60.1038 39.2686 60.0774 39.2422C60.0774 39.2422 60.2095 39.0969 60.2227 39.0837C60.2623 39.044 60.3085 39.011 60.3482 38.9714C60.5001 38.8129 59.9255 39.2488 60.1831 39.1035C60.3085 39.0308 60.4274 38.9648 60.5595 38.9054C60.401 38.9714 60.2425 39.0374 60.084 39.1035C60.2755 39.0308 60.467 38.978 60.6718 38.9516C60.4935 38.978 60.3218 38.9978 60.1434 39.0242C60.3218 39.0044 60.5001 39.0044 60.685 39.0242C60.5067 38.9978 60.335 38.978 60.1567 38.9516C60.3614 38.978 60.5529 39.0308 60.7444 39.1035C60.5859 39.0374 60.4274 38.9714 60.2689 38.9054C60.3878 38.9582 60.5001 39.0176 60.6123 39.0837C60.9293 39.262 60.4274 38.9714 60.4538 38.945C60.4538 38.945 60.5991 39.0771 60.6123 39.0903C60.652 39.1299 60.685 39.1761 60.7246 39.2157C60.8831 39.3676 60.4472 38.7931 60.5925 39.0506C60.6652 39.1761 60.7312 39.295 60.7906 39.4271C60.7246 39.2686 60.6586 39.1101 60.5925 38.9516C60.6652 39.1431 60.718 39.3346 60.7444 39.5394C60.718 39.361 60.6982 39.1893 60.6718 39.011C60.6784 39.1035 60.685 39.1893 60.685 39.2818C60.7048 40.3186 61.5831 41.3092 62.6662 41.263C63.7229 41.2168 64.6673 40.3913 64.6474 39.2818C64.6078 37.4326 63.4587 35.8609 61.7152 35.2533C60.1765 34.7184 58.2943 35.2335 57.2442 36.475C56.0753 37.8619 55.8112 39.863 56.7621 41.4479C57.7263 43.0527 59.5293 43.7396 61.3322 43.416C63.2738 43.0659 64.6078 41.1838 64.6408 39.2818C64.6607 38.2449 63.7163 37.2543 62.6596 37.3006C61.5765 37.3468 60.7048 38.1723 60.685 39.2818Z" fill="#1B4476"/>
    <path d="M58.4264 41.5405C58.4264 43.3104 58.4264 45.0869 58.4264 46.8568C58.4264 47.8936 59.3378 48.8842 60.4076 48.838C61.4841 48.7918 62.3889 47.9663 62.3889 46.8568C62.3889 45.0869 62.3889 43.3104 62.3889 41.5405C62.3889 40.5036 61.4775 39.513 60.4076 39.5592C59.3312 39.6055 58.4264 40.431 58.4264 41.5405Z" fill="#1B4476"/>
  </g>
  <defs>
    <clipPath id="clip0_25_1365">
      <rect width="92.874" height="104.72" fill="white" transform="translate(-0.00793457)"/>
    </clipPath>
  </defs>
</svg>
