<svg width="94" height="105" viewBox="0 0 94 105" fill="none" xmlns="http://www.w3.org/2000/svg">
  <g clip-path="url(#clip0_7_291)">
    <path d="M88.251 80.391L50.551 102.157C49.4495 102.792 48.2002 103.127 46.9285 103.127C45.6568 103.127 44.4075 102.792 43.306 102.157L5.61497 80.391C4.51451 79.7547 3.6008 78.8401 2.96557 77.739C2.33035 76.6379 1.99596 75.3891 1.99597 74.118V30.591C1.99561 29.3195 2.32983 28.0702 2.96507 26.9688C3.60032 25.8673 4.51422 24.9524 5.61497 24.316L43.31 2.56097C44.4115 1.92548 45.6608 1.59094 46.9325 1.59094C48.2042 1.59094 49.4535 1.92548 50.555 2.56097L88.255 24.327C89.3557 24.9634 90.2696 25.8783 90.9049 26.9798C91.5401 28.0812 91.8743 29.3305 91.874 30.602V74.126C91.8743 75.3975 91.5401 76.6467 90.9049 77.7482C90.2696 78.8496 89.3557 79.7645 88.255 80.401L88.251 80.391Z" stroke="#1B4476" stroke-width="3" stroke-miterlimit="10"/>
    <path d="M72.057 40.6483C68.2281 40.6483 65.1135 43.7376 65.1135 47.5335C65.1135 47.7285 65.1269 47.9203 65.143 48.1113L60.7718 49.1405C59.5697 43.5568 54.923 39.2366 49.1525 38.4537L49.4624 32.7407C53.0153 32.4419 55.8153 29.4835 55.8153 25.8852C55.8153 22.0892 52.7007 19 48.8717 19C45.0433 19 41.9287 22.0892 41.9287 25.8852C41.9287 29.0854 44.1457 31.7754 47.1345 32.5434L46.8203 38.3352C41.8648 38.4971 37.5656 41.2518 35.2644 45.2825L27.7703 42.4887C27.8426 42.091 27.8865 41.6837 27.8865 41.2657C27.8865 37.4686 24.7719 34.3794 20.943 34.3794C17.1146 34.3794 14 37.4686 14 41.2657C14 45.0617 17.1146 48.1509 20.943 48.1509C23.524 48.1509 25.7759 46.7442 26.9726 44.6666L34.2948 47.3963C33.7734 48.8376 33.4743 50.3829 33.4743 52C33.4743 55.436 34.767 58.5717 36.8832 60.9779L25.1288 72.6344C23.9634 71.7569 22.5159 71.2296 20.943 71.2296C17.1146 71.2296 14 74.3189 14 78.1148C14 81.9108 17.1146 85 20.943 85C24.7719 85 27.8865 81.9108 27.8865 78.1148C27.8865 76.713 27.4595 75.4093 26.731 74.3202L38.5534 62.5962C40.9331 64.5264 43.9703 65.6878 47.2771 65.6878C49.8233 65.6878 52.2027 64.9884 54.2526 63.7911L59.0457 71.8668C57.4309 73.1288 56.3888 75.0805 56.3888 77.2724C56.3888 81.0684 59.5034 84.1576 63.3318 84.1576C67.1602 84.1576 70.2748 81.0684 70.2748 77.2724C70.2748 73.4765 67.1602 70.3872 63.3318 70.3872C62.5496 70.3872 61.8 70.5221 61.0978 70.7597L56.1679 62.4536C59.1674 59.9409 61.0798 56.1897 61.0798 52C61.0798 51.8157 61.0593 51.6366 61.052 51.4541L65.729 50.3527C66.8178 52.7458 69.2417 54.4187 72.057 54.4187C75.8854 54.4187 79 51.3295 79 47.5335C79 43.7376 75.8854 40.6483 72.057 40.6483ZM20.943 45.8351C18.4025 45.8351 16.3352 43.7851 16.3352 41.2657C16.3352 38.7453 18.4025 36.6952 20.943 36.6952C23.484 36.6952 25.5513 38.7453 25.5513 41.2657C25.5513 43.7851 23.484 45.8351 20.943 45.8351ZM67.9396 77.2724C67.9396 79.7917 65.8723 81.8418 63.3318 81.8418C60.7913 81.8418 58.7241 79.7917 58.7241 77.2724C58.7241 74.7531 60.7913 72.703 63.3318 72.703C65.8723 72.703 67.9396 74.7531 67.9396 77.2724ZM44.264 25.8852C44.264 23.3659 46.3312 21.3158 48.8717 21.3158C51.4128 21.3158 53.48 23.3659 53.48 25.8852C53.48 28.4045 51.4128 30.4546 48.8717 30.4546C46.3312 30.4546 44.264 28.4045 44.264 25.8852ZM20.943 82.6842C18.4025 82.6842 16.3352 80.6341 16.3352 78.1148C16.3352 75.5955 18.4025 73.5454 20.943 73.5454C23.484 73.5454 25.5513 75.5955 25.5513 78.1148C25.5513 80.6341 23.484 82.6842 20.943 82.6842ZM47.2771 63.372C40.9538 63.372 35.8096 58.27 35.8096 52C35.8096 45.73 40.9538 40.628 47.2771 40.628C53.6003 40.628 58.7446 45.73 58.7446 52C58.7446 58.27 53.6003 63.372 47.2771 63.372ZM72.057 52.1029C69.516 52.1029 67.4487 50.0528 67.4487 47.5335C67.4487 45.0142 69.516 42.9641 72.057 42.9641C74.5975 42.9641 76.6648 45.0142 76.6648 47.5335C76.6648 50.0528 74.5975 52.1029 72.057 52.1029Z" fill="#1B4476"/>
  </g>
  <defs>
    <clipPath id="clip0_7_291">
      <rect width="92.874" height="104.72" fill="white" transform="translate(0.495972)"/>
    </clipPath>
  </defs>
</svg>
