<svg xmlns="http://www.w3.org/2000/svg" width="95.356" height="107.529" viewBox="0 0 95.356 107.529">
  <g id="Location-Telemetry" transform="translate(0 0.093)">
    <path id="b" d="M90.137,82.478,51.4,104.845a7.449,7.449,0,0,1-7.445,0L5.219,82.478A7.446,7.446,0,0,1,1.5,76.03V31.3a7.446,7.446,0,0,1,3.719-6.448L43.955,2.5a7.449,7.449,0,0,1,7.445,0L90.137,24.864a7.446,7.446,0,0,1,3.719,6.448V76.038a7.446,7.446,0,0,1-3.719,6.448Z" transform="translate(0)" fill="none" stroke="#1b4476" stroke-miterlimit="10" stroke-width="3"/>
    <g id="Groupe_58" data-name="Groupe 58" transform="translate(14.238 21.992)">
      <line id="Ligne_1" data-name="Ligne 1" y1="6.599" x2="22.074" transform="translate(44.141 9.027)" fill="none" stroke="#1b4476" stroke-miterlimit="10" stroke-width="1.25"/>
      <line id="Ligne_2" data-name="Ligne 2" x1="22.066" y1="6.599" transform="translate(22.074 9.027)" fill="none" stroke="#1b4476" stroke-miterlimit="10" stroke-width="1.25"/>
      <line id="Ligne_3" data-name="Ligne 3" x2="22.066" y2="6.599" transform="translate(22.074 54.165)" fill="none" stroke="#1b4476" stroke-miterlimit="10" stroke-width="1.25"/>
      <path id="Tracé_275" data-name="Tracé 275" d="M39.674,83.947,17.6,90.546V45.409l22.074-6.6" transform="translate(-17.6 -29.783)" fill="none" stroke="#1b4476" stroke-miterlimit="10" stroke-width="1.25"/>
      <line id="Ligne_4" data-name="Ligne 4" x1="22.074" y2="6.599" transform="translate(44.141 54.165)" fill="none" stroke="#1b4476" stroke-miterlimit="10" stroke-width="1.25"/>
      <path id="Tracé_276" data-name="Tracé 276" d="M31.866,61.587a72.511,72.511,0,0,0,6.2-9.526c3.062-5.546,4.613-9.914,4.613-12.976a11.686,11.686,0,0,0-23.372,0c0,3.07,1.551,7.437,4.613,12.976a72.511,72.511,0,0,0,6.2,9.526L31,62.624l.87-1.036Z" transform="translate(-17.957 -27.4)" fill="#fff" stroke="#1b4476" stroke-miterlimit="10" stroke-width="1.25"/>
      <g id="Groupe_56" data-name="Groupe 56" transform="translate(2.484 1.131)">
        <path id="Tracé_277" data-name="Tracé 277" d="M31.951,60.319a.823.823,0,0,1-1.321,0c-2.832-3.774-9.89-14.827-9.89-20.935A10.379,10.379,0,0,1,31.294,28.83,10.552,10.552,0,0,1,41.849,39.384c0,5.831-7.065,17.161-9.89,20.935Z" transform="translate(-20.74 -28.83)" fill="#939598" stroke="#1b4476" stroke-miterlimit="10" stroke-width="1.5"/>
        <circle id="Ellipse_5" data-name="Ellipse 5" cx="6.345" cy="6.345" r="6.345" transform="translate(4.209 4.526)" fill="#fff" stroke="#1b4476" stroke-miterlimit="10" stroke-width="1.5"/>
      </g>
      <g id="Groupe_57" data-name="Groupe 57" transform="translate(51.459 34.899)">
        <path id="Tracé_278" data-name="Tracé 278" d="M86.477,82.278a.282.282,0,0,1-.451,0c-.965-1.29-3.386-5.072-3.386-7.16a3.547,3.547,0,0,1,3.608-3.608,3.606,3.606,0,0,1,3.608,3.608c0,1.994-2.413,5.871-3.386,7.16Z" transform="translate(-82.64 -71.51)" fill="#939598" stroke="#1b4476" stroke-miterlimit="10" stroke-width="1.25"/>
        <circle id="Ellipse_6" data-name="Ellipse 6" cx="2.168" cy="2.168" r="2.168" transform="translate(1.448 1.551)" fill="#fff" stroke="#1b4476" stroke-miterlimit="10" stroke-width="1.25"/>
      </g>
      <line id="Ligne_5" data-name="Ligne 5" y2="45.137" transform="translate(66.871 9.027)" fill="none" stroke="#1b4476" stroke-miterlimit="10" stroke-width="1.25"/>
      <path id="Tracé_279" data-name="Tracé 279" d="M76.289,85.093s-9.281,3.046-14.93-2.342-9.676-6.519-15.484-4.257c-6.14,2.389-11.686-.364-11.686-6.575" transform="translate(-21.064 -36.696)" fill="none" stroke="#1b4476" stroke-miterlimit="10" stroke-width="1.25"/>
      <path id="Tracé_280" data-name="Tracé 280" d="M73.237,72.016h0a.3.3,0,0,1-.293-.285L72.43,47.56h1.527L73.53,71.731a.29.29,0,0,1-.293.285Z" transform="translate(-29.049 -31.61)" fill="#a7a9ac" stroke="#1b4476" stroke-miterlimit="10" stroke-width="1.25"/>
      <path id="Tracé_281" data-name="Tracé 281" d="M45.36,88.15h0a.3.3,0,0,1,.3.285l.332,6.393H44.64l.419-6.4A.3.3,0,0,1,45.36,88.15Z" transform="translate(-23.246 -40.085)" fill="#303030" stroke="#1b4476" stroke-miterlimit="10" stroke-width="1.25"/>
      <path id="Tracé_282" data-name="Tracé 282" d="M73.285,94.81h0a.3.3,0,0,1,.3.285l.253,6.393H72.66l.332-6.393a.3.3,0,0,1,.3-.285Z" transform="translate(-29.097 -41.476)" fill="#303030" stroke="#1b4476" stroke-miterlimit="10" stroke-width="1.25"/>
      <path id="Tracé_283" data-name="Tracé 283" d="M44.75,54.751,45,67.513a.29.29,0,0,0,.293.285.3.3,0,0,0,.293-.285l.34-14.526a.162.162,0,0,0-.309-.071C45.351,53.509,45.059,54.118,44.75,54.751Z" transform="translate(-23.269 -32.708)" fill="#303030" stroke="#1b4476" stroke-miterlimit="10" stroke-width="1.25"/>
    </g>
    <g id="Groupe_59" data-name="Groupe 59" transform="translate(64.471 37.191)">
      <path id="Tracé_284" data-name="Tracé 284" d="M91.383,46.61h-9a1.29,1.29,0,0,0-1.29,1.29V62.719a1.29,1.29,0,0,0,1.29,1.29h9a1.29,1.29,0,0,0,1.29-1.29V47.9A1.29,1.29,0,0,0,91.383,46.61ZM82.111,62.086V48.525h9.542V62.086Z" transform="translate(-81.09 -46.61)" fill="#1b4476"/>
      <path id="Tracé_285" data-name="Tracé 285" d="M87.293,52.26a4.233,4.233,0,1,0,4.233,4.233A4.233,4.233,0,0,0,87.293,52.26Zm3.616,4.47a3.609,3.609,0,0,1-.886,2.144l-.522-.522-.34.34.522.522a3.63,3.63,0,0,1-2.144.886v-.736h-.483V60.1a3.609,3.609,0,0,1-2.144-.886l.522-.522-.34-.34-.522.522a3.63,3.63,0,0,1-.886-2.144h.736v-.483h-.736a3.609,3.609,0,0,1,.886-2.144l.522.522.34-.34-.522-.522a3.63,3.63,0,0,1,2.144-.886v.736h.483v-.736a3.609,3.609,0,0,1,2.144.886l-.522.522.34.34.522-.522a3.63,3.63,0,0,1,.886,2.144h-.736v.483Z" transform="translate(-81.501 -47.79)" fill="#1b4476"/>
      <path id="Tracé_286" data-name="Tracé 286" d="M89.932,58.869l-1.108-1.226a.594.594,0,0,0,.04-.206.617.617,0,1,0-.617.617.594.594,0,0,0,.206-.04l1.511,1.345.222-.222-.253-.277Z" transform="translate(-82.456 -48.742)" fill="#1b4476"/>
      <path id="Tracé_287" data-name="Tracé 287" d="M87.729,54.34a2.579,2.579,0,0,0-1.82,4.407l.261-.261a2.22,2.22,0,1,1,3.426-.372l.253.285a2.57,2.57,0,0,0-2.1-4.059Z" transform="translate(-81.938 -48.224)" fill="#1b4476"/>
    </g>
  </g>
</svg>
