<svg width="94" height="105" viewBox="0 0 94 105" fill="none" xmlns="http://www.w3.org/2000/svg">
  <g clip-path="url(#clip0_1_278)">
    <path d="M88.3769 80.391L50.6769 102.157C49.5754 102.792 48.3261 103.127 47.0544 103.127C45.7828 103.127 44.5335 102.792 43.4319 102.157L5.74095 80.391C4.64049 79.7547 3.72678 78.8401 3.09155 77.739C2.45632 76.6379 2.12193 75.3891 2.12195 74.118V30.591C2.12158 29.3195 2.45581 28.0702 3.09105 26.9688C3.7263 25.8673 4.64019 24.9524 5.74095 24.316L43.4359 2.56097C44.5375 1.92548 45.7868 1.59094 47.0584 1.59094C48.3301 1.59094 49.5794 1.92548 50.6809 2.56097L88.381 24.327C89.4817 24.9634 90.3956 25.8783 91.0308 26.9798C91.6661 28.0812 92.0003 29.3305 91.9999 30.602V74.126C92.0003 75.3975 91.6661 76.6467 91.0308 77.7482C90.3956 78.8496 89.4817 79.7645 88.381 80.401L88.3769 80.391Z" stroke="#1B4476" stroke-width="3" stroke-miterlimit="10"/>
    <path d="M18.3719 28.8871C18.3719 29.8954 18.9902 30.7652 19.9735 31.491C20.9586 32.2181 22.3469 32.8301 23.9811 33.324C27.2525 34.3127 31.5724 34.8468 35.7994 34.8468C40.0258 34.8468 44.3457 34.3249 47.6173 33.3423C49.2515 32.8514 50.6402 32.2408 51.6256 31.5111C52.6097 30.7824 53.2268 29.9065 53.2268 28.8871C53.2268 27.868 52.6101 26.9892 51.6262 26.2559C50.6409 25.5217 49.2524 24.905 47.6181 24.408C44.3464 23.4131 40.0263 22.879 35.7994 22.879C31.5719 22.879 27.2518 23.4253 23.9803 24.4263C22.346 24.9263 20.9578 25.5445 19.9729 26.2761C18.9899 27.0063 18.3719 27.8791 18.3719 28.8871ZM19.8397 28.8871C19.8397 28.4437 20.1707 27.9252 20.9277 27.3823C21.6734 26.8476 22.779 26.3296 24.196 25.8773C27.027 24.9735 31.0529 24.3468 35.7994 24.3468C40.5459 24.3468 44.5717 24.9735 47.4028 25.8773C48.8198 26.3296 49.9253 26.8476 50.6711 27.3823C51.4281 27.9252 51.759 28.4437 51.759 28.8871C51.759 29.3305 51.4281 29.849 50.6711 30.3918C49.9253 30.9266 48.8198 31.4446 47.4028 31.8969C44.5717 32.8007 40.5459 33.4274 35.7994 33.4274C31.0529 33.4274 27.027 32.8007 24.196 31.8969C22.779 31.4446 21.6734 30.9266 20.9277 30.3918C20.1707 29.849 19.8397 29.3305 19.8397 28.8871Z" fill="#1B4476" stroke="#1B4476" stroke-width="0.5"/>
    <path d="M18.3719 38.2258C18.3719 39.2449 18.9887 40.1237 19.9726 40.8569C20.9578 41.5912 22.3463 42.2079 23.9807 42.7049C27.2523 43.6998 31.5724 44.2338 35.7994 44.2338C40.0264 44.2338 44.3463 43.6998 47.6177 42.7111C49.2519 42.2171 50.6402 41.6051 51.6253 40.878C52.6085 40.1523 53.2268 39.2825 53.2268 38.2742V28.8871C53.2268 28.4427 52.8564 28.1532 52.4929 28.1532C52.0486 28.1532 51.759 28.5236 51.759 28.8871V38.2258C51.759 38.6696 51.4275 39.1912 50.6703 39.7387C49.9244 40.2779 48.8187 40.8018 47.4019 41.2601C44.571 42.1758 40.5454 42.8145 35.7994 42.8145C31.0529 42.8145 27.027 42.1878 24.196 41.284C22.779 40.8316 21.6734 40.3137 20.9277 39.7789C20.1707 39.2361 19.8397 38.7175 19.8397 38.2742V28.8871C19.8397 28.6851 19.7713 28.4974 19.6334 28.3595C19.4955 28.2216 19.3078 28.1532 19.1058 28.1532C18.6615 28.1532 18.3719 28.5236 18.3719 28.8871V38.2258Z" fill="#1B4476" stroke="#1B4476" stroke-width="0.5"/>
    <path d="M18.3719 38.2258C18.3719 39.2449 18.9887 40.1237 19.9726 40.8569C20.9578 41.5912 22.3463 42.2079 23.9807 42.7049C27.2523 43.6998 31.5724 44.2338 35.7994 44.2338C40.0264 44.2338 44.3463 43.6998 47.6177 42.7111C49.2519 42.2171 50.6402 41.6051 51.6253 40.878C52.6085 40.1523 53.2268 39.2825 53.2268 38.2742V28.8871C53.2268 28.4427 52.8564 28.1532 52.4929 28.1532C52.0486 28.1532 51.759 28.5236 51.759 28.8871V38.2258C51.759 38.6696 51.4275 39.1912 50.6703 39.7387C49.9244 40.2779 48.8187 40.8018 47.4019 41.2601C44.571 42.1758 40.5454 42.8145 35.7994 42.8145C31.0529 42.8145 27.027 42.1878 24.196 41.284C22.779 40.8316 21.6734 40.3137 20.9277 39.7789C20.1707 39.2361 19.8397 38.7175 19.8397 38.2742V28.8871C19.8397 28.6851 19.7713 28.4974 19.6334 28.3595C19.4955 28.2216 19.3078 28.1532 19.1058 28.1532C18.6615 28.1532 18.3719 28.5236 18.3719 28.8871V38.2258Z" fill="#1B4476" stroke="#1B4476" stroke-width="0.5"/>
    <path d="M18.3719 47.7097C18.3719 48.718 18.9902 49.5878 19.9735 50.3135C20.9586 51.0406 22.3469 51.6526 23.9811 52.1465C27.2525 53.1353 31.5724 53.6693 35.7994 53.6693C40.0264 53.6693 44.3463 53.1353 47.6177 52.1465C49.2519 51.6526 50.6402 51.0406 51.6253 50.3135C52.6085 49.5878 53.2268 48.718 53.2268 47.7097V38.3226C53.2268 37.8782 52.8564 37.5887 52.4929 37.5887C52.0486 37.5887 51.759 37.9591 51.759 38.3226V47.7097C51.759 48.1395 51.43 48.652 50.6715 49.1937C49.9253 49.7266 48.8194 50.2461 47.4023 50.7015C44.5711 51.6113 40.5454 52.25 35.7994 52.25C31.0529 52.25 27.027 51.6233 24.196 50.7195C22.779 50.2671 21.6734 49.7492 20.9277 49.2144C20.1707 48.6716 19.8397 48.153 19.8397 47.7097V38.3226C19.8397 38.1206 19.7713 37.9328 19.6334 37.795C19.4955 37.6571 19.3078 37.5887 19.1058 37.5887C18.6615 37.5887 18.3719 37.9591 18.3719 38.3226V47.7097Z" fill="#1B4476" stroke="#1B4476" stroke-width="0.5"/>
    <path d="M18.3719 47.7097C18.3719 48.718 18.9902 49.5878 19.9735 50.3135C20.9586 51.0406 22.3469 51.6526 23.9811 52.1465C27.2525 53.1353 31.5724 53.6693 35.7994 53.6693C40.0264 53.6693 44.3463 53.1353 47.6177 52.1465C49.2519 51.6526 50.6402 51.0406 51.6253 50.3135C52.6085 49.5878 53.2268 48.718 53.2268 47.7097V38.3226C53.2268 37.8782 52.8564 37.5887 52.4929 37.5887C52.0486 37.5887 51.759 37.9591 51.759 38.3226V47.7097C51.759 48.1395 51.43 48.652 50.6715 49.1937C49.9253 49.7266 48.8194 50.2461 47.4023 50.7015C44.5711 51.6113 40.5454 52.25 35.7994 52.25C31.0529 52.25 27.027 51.6233 24.196 50.7195C22.779 50.2671 21.6734 49.7492 20.9277 49.2144C20.1707 48.6716 19.8397 48.153 19.8397 47.7097V38.3226C19.8397 38.1206 19.7713 37.9328 19.6334 37.795C19.4955 37.6571 19.3078 37.5887 19.1058 37.5887C18.6615 37.5887 18.3719 37.9591 18.3719 38.3226V47.7097Z" fill="#1B4476" stroke="#1B4476" stroke-width="0.5"/>
    <path d="M43.2871 62.6183L43.2871 62.6187L43.3 62.6161C43.651 62.5459 43.9637 62.1919 43.8832 61.7897C43.8134 61.4407 43.463 61.1295 43.0636 61.2051C40.803 61.5415 38.3495 61.7339 35.7994 61.7339C31.0529 61.7339 27.027 61.1071 24.196 60.2034C22.779 59.751 21.6734 59.233 20.9277 58.6983C20.1707 58.1555 19.8397 57.6369 19.8397 57.1935V47.8064C19.8397 47.6045 19.7713 47.4167 19.6334 47.2789C19.4955 47.141 19.3078 47.0726 19.1058 47.0726C18.6615 47.0726 18.3719 47.443 18.3719 47.8064V57.1452C18.3719 58.1642 18.9887 59.0431 19.9726 59.7763C20.9578 60.5105 22.3463 61.1272 23.9807 61.6243C27.2523 62.6192 31.5724 63.1532 35.7994 63.1532C38.4244 63.1532 40.9526 62.9588 43.2871 62.6183Z" fill="#1B4476" stroke="#1B4476" stroke-width="0.5"/>
    <path d="M51.759 50.8064C51.759 51.2508 52.1294 51.5403 52.4929 51.5403C52.6952 51.5403 52.8765 51.4417 53.0023 51.3159C53.1282 51.1901 53.2268 51.0087 53.2268 50.8064V47.8064C53.2268 47.3621 52.8564 47.0726 52.4929 47.0726C52.0485 47.0726 51.759 47.443 51.759 47.8064V50.8064Z" fill="#1B4476" stroke="#1B4476" stroke-width="0.5"/>
    <path d="M43.2871 62.6183L43.2871 62.6187L43.3 62.6161C43.651 62.5459 43.9637 62.1919 43.8832 61.7897C43.8134 61.4407 43.463 61.1295 43.0636 61.2051C40.803 61.5415 38.3495 61.7339 35.7994 61.7339C31.0529 61.7339 27.027 61.1071 24.196 60.2034C22.779 59.751 21.6734 59.233 20.9277 58.6983C20.1707 58.1555 19.8397 57.6369 19.8397 57.1935V47.8064C19.8397 47.6045 19.7713 47.4167 19.6334 47.2789C19.4955 47.141 19.3078 47.0726 19.1058 47.0726C18.6615 47.0726 18.3719 47.443 18.3719 47.8064V57.1452C18.3719 58.1642 18.9887 59.0431 19.9726 59.7763C20.9578 60.5105 22.3463 61.1272 23.9807 61.6243C27.2523 62.6192 31.5724 63.1532 35.7994 63.1532C38.4244 63.1532 40.9526 62.9588 43.2871 62.6183Z" fill="#1B4476" stroke="#1B4476" stroke-width="0.5"/>
    <path d="M51.759 50.8064C51.759 51.2508 52.1294 51.5403 52.4929 51.5403C52.6952 51.5403 52.8765 51.4417 53.0023 51.3159C53.1282 51.1901 53.2268 51.0087 53.2268 50.8064V47.8064C53.2268 47.3621 52.8564 47.0726 52.4929 47.0726C52.0485 47.0726 51.759 47.443 51.759 47.8064V50.8064Z" fill="#1B4476" stroke="#1B4476" stroke-width="0.5"/>
    <path d="M30.7254 38.2927C30.7242 38.2858 30.7236 38.279 30.7235 38.2723C30.7329 38.254 30.7452 38.241 30.7562 38.2326C30.7599 38.2298 30.7634 38.2275 30.7667 38.2256C30.7805 38.2178 30.7898 38.2178 30.7912 38.2178H30.7913H30.7913C30.7927 38.2178 30.8019 38.2178 30.8155 38.2254C30.8188 38.2273 30.8225 38.2297 30.8264 38.2326C30.8372 38.2409 30.8494 38.2537 30.8587 38.2717C30.8589 38.2719 30.859 38.2722 30.8592 38.2725C30.8687 38.2913 30.8719 38.3093 30.8719 38.3226C30.8719 38.34 30.8677 38.3518 30.8651 38.3573C30.8626 38.3627 30.8602 38.3653 30.8592 38.3663C30.8581 38.3674 30.8556 38.3697 30.8501 38.3723C30.8447 38.3748 30.8329 38.3791 30.8155 38.3791C30.7854 38.3791 30.7649 38.367 30.7504 38.3496C30.7452 38.3434 30.7392 38.3344 30.7341 38.3226C30.7304 38.3141 30.7273 38.3041 30.7254 38.2927ZM29.4526 38.3226C29.4526 39.0897 30.0484 39.6855 30.8155 39.6855C31.5826 39.6855 32.1784 39.0897 32.1784 38.3226C32.1784 37.5555 31.5826 36.9597 30.8155 36.9597C30.0484 36.9597 29.4526 37.5555 29.4526 38.3226Z" fill="#1B4476" stroke="#1B4476" stroke-width="0.5"/>
    <path d="M35.7093 38.2927C35.7081 38.2858 35.7075 38.279 35.7074 38.2723C35.7168 38.254 35.7291 38.241 35.7401 38.2326C35.7438 38.2298 35.7473 38.2275 35.7506 38.2256C35.7644 38.2178 35.7737 38.2178 35.7751 38.2178H35.7752H35.7752C35.7766 38.2178 35.7857 38.2178 35.7994 38.2254C35.8027 38.2273 35.8064 38.2297 35.8103 38.2326C35.8211 38.2409 35.8333 38.2537 35.8426 38.2717C35.8428 38.2719 35.8429 38.2722 35.843 38.2725C35.8526 38.2913 35.8558 38.3093 35.8558 38.3226C35.8558 38.34 35.8516 38.3518 35.849 38.3573C35.8464 38.3627 35.8441 38.3653 35.8431 38.3663C35.842 38.3674 35.8395 38.3697 35.834 38.3723C35.8285 38.3748 35.8168 38.3791 35.7994 38.3791C35.7693 38.3791 35.7488 38.367 35.7343 38.3496C35.7291 38.3434 35.7231 38.3344 35.718 38.3226C35.7143 38.3141 35.7112 38.3041 35.7093 38.2927ZM34.4365 38.3226C34.4365 39.0897 35.0323 39.6855 35.7994 39.6855C36.5665 39.6855 37.1623 39.0897 37.1623 38.3226C37.1623 37.5555 36.5665 36.9597 35.7994 36.9597C35.0323 36.9597 34.4365 37.5555 34.4365 38.3226Z" fill="#1B4476" stroke="#1B4476" stroke-width="0.5"/>
    <path d="M39.4203 38.3226C39.4203 39.0897 40.0161 39.6855 40.7833 39.6855C41.5504 39.6855 42.1462 39.0897 42.1462 38.3226C42.1462 37.5555 41.5504 36.9597 40.7833 36.9597C40.0161 36.9597 39.4203 37.5555 39.4203 38.3226ZM40.8397 38.3226C40.8397 38.34 40.8354 38.3518 40.8329 38.3573C40.8303 38.3627 40.828 38.3653 40.827 38.3663C40.8259 38.3674 40.8234 38.3697 40.8179 38.3723C40.8124 38.3748 40.8007 38.3791 40.7833 38.3791C40.764 38.3791 40.7416 38.3738 40.7208 38.3616C40.7011 38.3502 40.6897 38.3366 40.6841 38.3282C40.6827 38.3261 40.6816 38.3242 40.6807 38.3226C40.6797 38.3208 40.679 38.3193 40.6785 38.3181C40.6792 38.3054 40.6826 38.2892 40.6912 38.2725C40.7006 38.2541 40.713 38.241 40.724 38.2326C40.7435 38.2178 40.7573 38.2178 40.759 38.2178H40.7591H40.7591C40.7605 38.2178 40.7696 38.2178 40.7833 38.2254C40.7866 38.2273 40.7903 38.2297 40.7941 38.2326C40.8052 38.241 40.8176 38.2541 40.8269 38.2725C40.8365 38.2913 40.8397 38.3093 40.8397 38.3226Z" fill="#1B4476" stroke="#1B4476" stroke-width="0.5"/>
    <path d="M30.7254 47.7765C30.7242 47.7696 30.7236 47.7628 30.7235 47.7561C30.7329 47.7378 30.7452 47.7248 30.7562 47.7165C30.7599 47.7136 30.7634 47.7113 30.7667 47.7095C30.7805 47.7016 30.7898 47.7016 30.7912 47.7016H30.7913H30.7913C30.7927 47.7016 30.8019 47.7016 30.8155 47.7093C30.8188 47.7111 30.8225 47.7135 30.8264 47.7165C30.8372 47.7247 30.8494 47.7376 30.8587 47.7555C30.8589 47.7558 30.859 47.756 30.8592 47.7563C30.8687 47.7751 30.8719 47.7931 30.8719 47.8064C30.8719 47.8239 30.8677 47.8356 30.8651 47.8411C30.8626 47.8466 30.8602 47.8491 30.8592 47.8502C30.8581 47.8512 30.8556 47.8535 30.8501 47.8561C30.8447 47.8586 30.8329 47.8629 30.8155 47.8629C30.7854 47.8629 30.7649 47.8508 30.7504 47.8334C30.7452 47.8272 30.7392 47.8182 30.7341 47.8064C30.7304 47.7979 30.7273 47.788 30.7254 47.7765ZM29.4526 47.8064C29.4526 48.5735 30.0484 49.1693 30.8155 49.1693C31.5826 49.1693 32.1784 48.5735 32.1784 47.8064C32.1784 47.0393 31.5826 46.4435 30.8155 46.4435C30.0484 46.4435 29.4526 47.0393 29.4526 47.8064Z" fill="#1B4476" stroke="#1B4476" stroke-width="0.5"/>
    <path d="M35.7093 47.7765C35.7081 47.7696 35.7075 47.7628 35.7074 47.7561C35.7168 47.7378 35.7291 47.7248 35.7401 47.7165C35.7438 47.7136 35.7473 47.7113 35.7506 47.7095C35.7644 47.7016 35.7737 47.7016 35.7751 47.7016H35.7752H35.7752C35.7766 47.7016 35.7857 47.7016 35.7994 47.7093C35.8027 47.7111 35.8064 47.7135 35.8103 47.7165C35.8211 47.7247 35.8333 47.7376 35.8426 47.7555C35.8428 47.7558 35.8429 47.756 35.843 47.7563C35.8526 47.7751 35.8558 47.7931 35.8558 47.8064C35.8558 47.8239 35.8516 47.8356 35.849 47.8411C35.8464 47.8466 35.8441 47.8491 35.8431 47.8502C35.842 47.8512 35.8395 47.8535 35.834 47.8561C35.8285 47.8586 35.8168 47.8629 35.7994 47.8629C35.7693 47.8629 35.7488 47.8508 35.7343 47.8334C35.7291 47.8272 35.7231 47.8182 35.718 47.8064C35.7143 47.7979 35.7112 47.788 35.7093 47.7765ZM34.4365 47.8064C34.4365 48.5735 35.0323 49.1693 35.7994 49.1693C36.5665 49.1693 37.1623 48.5735 37.1623 47.8064C37.1623 47.0393 36.5665 46.4435 35.7994 46.4435C35.0323 46.4435 34.4365 47.0393 34.4365 47.8064Z" fill="#1B4476" stroke="#1B4476" stroke-width="0.5"/>
    <path d="M39.4203 47.8064C39.4203 48.5735 40.0161 49.1693 40.7833 49.1693C41.5504 49.1693 42.1462 48.5735 42.1462 47.8064C42.1462 47.0393 41.5504 46.4435 40.7833 46.4435C40.0161 46.4435 39.4203 47.0393 39.4203 47.8064ZM40.8397 47.8064C40.8397 47.8239 40.8354 47.8356 40.8329 47.8411C40.8303 47.8466 40.828 47.8491 40.827 47.8502C40.8259 47.8512 40.8234 47.8535 40.8179 47.8561C40.8124 47.8586 40.8007 47.8629 40.7833 47.8629C40.764 47.8629 40.7416 47.8576 40.7208 47.8455C40.7011 47.834 40.6897 47.8205 40.6841 47.8121C40.6827 47.8099 40.6816 47.8081 40.6807 47.8064C40.6797 47.8046 40.679 47.8031 40.6785 47.802C40.6792 47.7892 40.6826 47.773 40.6912 47.7563C40.7006 47.738 40.713 47.7249 40.724 47.7165C40.7435 47.7016 40.7573 47.7016 40.759 47.7016H40.7591H40.7591C40.7605 47.7016 40.7696 47.7016 40.7833 47.7093C40.7866 47.7111 40.7903 47.7135 40.7941 47.7165C40.8052 47.7249 40.8176 47.738 40.8269 47.7563C40.8365 47.7751 40.8397 47.7931 40.8397 47.8064Z" fill="#1B4476" stroke="#1B4476" stroke-width="0.5"/>
    <path d="M30.7254 57.2604C30.7242 57.2535 30.7236 57.2467 30.7235 57.24C30.7329 57.2217 30.7452 57.2087 30.7562 57.2003C30.7599 57.1975 30.7634 57.1952 30.7667 57.1934C30.7805 57.1855 30.7898 57.1855 30.7912 57.1855H30.7913H30.7913C30.7927 57.1855 30.8019 57.1855 30.8155 57.1931C30.8188 57.195 30.8225 57.1974 30.8264 57.2003C30.8372 57.2086 30.8494 57.2215 30.8587 57.2394C30.8589 57.2396 30.859 57.2399 30.8592 57.2402C30.8687 57.259 30.8719 57.277 30.8719 57.2903C30.8719 57.3078 30.8677 57.3195 30.8651 57.325C30.8626 57.3305 30.8602 57.333 30.8592 57.334C30.8581 57.3351 30.8556 57.3374 30.8501 57.34C30.8447 57.3425 30.8329 57.3468 30.8155 57.3468C30.7854 57.3468 30.7649 57.3347 30.7504 57.3173C30.7452 57.3111 30.7392 57.3021 30.7341 57.2903C30.7304 57.2818 30.7273 57.2718 30.7254 57.2604ZM29.4526 57.2903C29.4526 58.0574 30.0484 58.6532 30.8155 58.6532C31.5826 58.6532 32.1784 58.0574 32.1784 57.2903C32.1784 56.5232 31.5826 55.9274 30.8155 55.9274C30.0484 55.9274 29.4526 56.5232 29.4526 57.2903Z" fill="#1B4476" stroke="#1B4476" stroke-width="0.5"/>
    <path d="M35.7093 57.2604C35.7081 57.2535 35.7075 57.2467 35.7074 57.24C35.7168 57.2217 35.7291 57.2087 35.7401 57.2003C35.7438 57.1975 35.7473 57.1952 35.7506 57.1934C35.7644 57.1855 35.7737 57.1855 35.7751 57.1855H35.7752H35.7752C35.7766 57.1855 35.7857 57.1855 35.7994 57.1931C35.8027 57.195 35.8064 57.1974 35.8103 57.2003C35.8211 57.2086 35.8333 57.2215 35.8426 57.2394C35.8428 57.2396 35.8429 57.2399 35.843 57.2402C35.8526 57.259 35.8558 57.277 35.8558 57.2903C35.8558 57.3078 35.8516 57.3195 35.849 57.325C35.8464 57.3305 35.8441 57.333 35.8431 57.334C35.842 57.3351 35.8395 57.3374 35.834 57.34C35.8285 57.3425 35.8168 57.3468 35.7994 57.3468C35.7693 57.3468 35.7488 57.3347 35.7343 57.3173C35.7291 57.3111 35.7231 57.3021 35.718 57.2903C35.7143 57.2818 35.7112 57.2718 35.7093 57.2604ZM34.4365 57.2903C34.4365 58.0574 35.0323 58.6532 35.7994 58.6532C36.5665 58.6532 37.1623 58.0574 37.1623 57.2903C37.1623 56.5232 36.5665 55.9274 35.7994 55.9274C35.0323 55.9274 34.4365 56.5232 34.4365 57.2903Z" fill="#1B4476" stroke="#1B4476" stroke-width="0.5"/>
    <path d="M39.4203 57.2903C39.4203 58.0574 40.0161 58.6532 40.7833 58.6532C41.5504 58.6532 42.1462 58.0574 42.1462 57.2903C42.1462 56.5232 41.5504 55.9274 40.7833 55.9274C40.0161 55.9274 39.4203 56.5232 39.4203 57.2903ZM40.8397 57.2903C40.8397 57.3078 40.8354 57.3195 40.8329 57.325C40.8303 57.3305 40.828 57.333 40.827 57.334C40.8259 57.3351 40.8234 57.3374 40.8179 57.34C40.8124 57.3425 40.8007 57.3468 40.7833 57.3468C40.764 57.3468 40.7416 57.3415 40.7208 57.3294C40.7011 57.3179 40.6897 57.3043 40.6841 57.2959C40.6827 57.2938 40.6816 57.2919 40.6807 57.2903C40.6797 57.2885 40.679 57.287 40.6785 57.2858C40.6792 57.2731 40.6826 57.2569 40.6912 57.2402C40.7006 57.2218 40.713 57.2087 40.724 57.2003C40.7435 57.1855 40.7573 57.1855 40.759 57.1855H40.7591H40.7591C40.7605 57.1855 40.7696 57.1855 40.7833 57.1931C40.7866 57.195 40.7903 57.1974 40.7941 57.2003C40.8052 57.2087 40.8176 57.2218 40.8269 57.2402C40.8365 57.259 40.8397 57.277 40.8397 57.2903Z" fill="#1B4476" stroke="#1B4476" stroke-width="0.5"/>
    <path d="M41.7913 66.7742C41.7913 77.0256 50.1295 85.3145 60.3316 85.3145C70.5342 85.3145 78.872 76.9768 78.872 66.7742C78.872 56.5721 70.583 48.2339 60.3316 48.2339C50.0807 48.2339 41.7913 56.5232 41.7913 66.7742ZM43.2591 66.7742C43.2591 57.38 50.9375 49.7016 60.3316 49.7016C69.7263 49.7016 77.4042 57.3321 77.4042 66.7742C77.4042 76.2168 69.7742 83.8468 60.3316 83.8468C50.8895 83.8468 43.2591 76.1688 43.2591 66.7742Z" fill="#1B4476" stroke="#1B4476" stroke-width="0.5"/>
    <path d="M44.8397 69.2903V69.3111L44.8432 69.3317C46.1214 76.9517 52.6124 82.4597 60.3317 82.4597C68.0452 82.4597 74.5323 76.9598 75.8173 69.3486C75.8884 69.1085 75.8032 68.8761 75.6536 68.7264L75.6536 68.7264C75.4993 68.5722 75.2845 68.5081 75.0897 68.5081H65.0252C64.7347 68.5081 64.5169 68.6585 64.3817 68.8613L64.3739 68.873L64.3675 68.8855C63.5871 70.4003 62.0269 71.3629 60.3317 71.3629C58.6364 71.3629 57.0762 70.4003 56.2958 68.8855L56.2894 68.873L56.2816 68.8613C56.1464 68.6585 55.9286 68.5081 55.6381 68.5081H45.5736C45.3788 68.5081 45.164 68.5722 45.0097 68.7264C44.914 68.8222 44.8737 68.936 44.8559 69.0339C44.8397 69.123 44.8397 69.2151 44.8397 69.2821C44.8397 69.2849 44.8397 69.2876 44.8397 69.2903ZM60.3317 81.0403C53.634 81.0403 47.9067 76.4282 46.463 69.9758H55.2074C56.3264 71.7668 58.2091 72.8306 60.3317 72.8306C62.4495 72.8306 64.3809 71.7707 65.459 69.9758H74.2004C72.7566 76.4282 67.0293 81.0403 60.3317 81.0403Z" fill="#1B4476" stroke="#1B4476" stroke-width="0.5"/>
    <path d="M44.8435 69.3821L44.8434 69.3822L44.8445 69.3877C44.918 69.7552 45.2215 69.9758 45.5735 69.9758H55.2074C56.3264 71.7668 58.209 72.8306 60.3316 72.8306C62.4086 72.8306 64.3341 71.7193 65.4538 69.9758H75.0897C75.4417 69.9758 75.7452 69.7552 75.8187 69.3877L75.8187 69.3877L75.8197 69.3821C75.9682 68.5407 76.0171 67.7027 76.0171 66.8226C76.0171 58.1684 68.9858 51.1371 60.3316 51.1371C51.6774 51.1371 44.6461 58.1684 44.6461 66.8226C44.6461 67.7027 44.695 68.5407 44.8435 69.3821ZM56.2474 68.8855L56.241 68.873L56.2332 68.8613C56.098 68.6585 55.8802 68.5081 55.5897 68.5081H46.1934C46.1511 67.9173 46.1139 67.3643 46.1139 66.7742C46.1139 58.9273 52.4385 52.5564 60.2832 52.5564C68.129 52.5564 74.501 58.9284 74.501 66.7742C74.501 67.3643 74.4636 67.9534 74.3892 68.5081H64.9768C64.6862 68.5081 64.4685 68.6585 64.3333 68.8613L64.3255 68.873L64.319 68.8855C63.5387 70.4003 61.9785 71.3629 60.2832 71.3629C58.5879 71.3629 57.0278 70.4003 56.2474 68.8855Z" fill="#1B4476" stroke="#1B4476" stroke-width="0.5"/>
    <path d="M57.1784 66.7742C57.1784 68.509 58.5968 69.9274 60.3316 69.9274C62.0665 69.9274 63.4849 68.509 63.4849 66.7742C63.4849 65.0394 62.0665 63.621 60.3316 63.621C58.5968 63.621 57.1784 65.0394 57.1784 66.7742ZM58.5978 66.8226C58.5978 65.8517 59.4012 65.0887 60.3316 65.0887C61.2507 65.0887 62.0199 65.8414 62.0655 66.828C62.0625 67.7963 61.2603 68.5565 60.3316 68.5565C59.3607 68.5565 58.5978 67.753 58.5978 66.8226Z" fill="#1B4476" stroke="#1B4476" stroke-width="0.5"/>
    <path d="M47.3155 67.5081H49.4445C49.808 67.5081 50.1784 67.2186 50.1784 66.7742C50.1784 66.3299 49.808 66.0403 49.4445 66.0403H47.3155C46.8711 66.0403 46.5816 66.4107 46.5816 66.7742C46.5816 67.2186 46.952 67.5081 47.3155 67.5081Z" fill="#1B4476" stroke="#1B4476" stroke-width="0.5"/>
    <path d="M47.8517 62.9901L47.8516 62.9903L47.8605 62.9935L49.8512 63.7044C49.9588 63.7826 50.0685 63.7823 50.1167 63.7822C50.1186 63.7822 50.1203 63.7822 50.122 63.7822C50.4349 63.7822 50.7026 63.5589 50.8294 63.3053L50.8341 63.296L50.8379 63.2864C50.9924 62.9001 50.7618 62.4737 50.4084 62.3323L50.4084 62.3322L50.3996 62.329L48.3713 61.6046C47.9863 61.454 47.5629 61.6842 47.4221 62.0361C47.2676 62.4224 47.4983 62.8488 47.8517 62.9901Z" fill="#1B4476" stroke="#1B4476" stroke-width="0.5"/>
    <path d="M49.8968 58.9187L49.9038 58.9257L49.9113 58.9322L51.5513 60.331C51.6177 60.3926 51.707 60.429 51.7667 60.4489C51.8376 60.4725 51.9257 60.492 52.0091 60.492C52.1341 60.492 52.245 60.4511 52.3242 60.4151C52.3721 60.3934 52.4402 60.3567 52.4795 60.3356C52.4932 60.3282 52.5034 60.3227 52.508 60.3204L52.5442 60.3023L52.5729 60.2736C52.8956 59.9509 52.7809 59.499 52.5245 59.2426L52.5175 59.2356L52.51 59.2292L50.8715 57.8316C50.7142 57.6795 50.507 57.6287 50.3221 57.6463C50.1423 57.6634 49.9581 57.7474 49.8364 57.9001C49.5286 58.2219 49.6437 58.6656 49.8968 58.9187Z" fill="#1B4476" stroke="#1B4476" stroke-width="0.5"/>
    <path d="M54.3074 57.6551L54.312 57.6632L54.3172 57.6709C54.3927 57.7842 54.4993 57.8702 54.6062 57.9278C54.7121 57.9848 54.8374 58.0242 54.9607 58.0242C54.9659 58.0242 54.9716 58.0243 54.9776 58.0243C55.05 58.025 55.1746 58.0262 55.2883 57.9399C55.6495 57.7676 55.7728 57.3232 55.564 56.9713L54.5083 55.0998C54.3468 54.7249 53.9002 54.5899 53.5427 54.7918C53.1642 54.9559 53.0313 55.4115 53.2444 55.7706L54.3074 57.6551Z" fill="#1B4476" stroke="#1B4476" stroke-width="0.5"/>
    <path d="M57.8105 56.1683L57.8103 56.1683L57.8123 56.178C57.8858 56.5455 58.1892 56.7661 58.5413 56.7661H58.5416H58.5419H58.5421H58.5424H58.5427H58.543H58.5432H58.5435H58.5438H58.5441H58.5443H58.5446H58.5449H58.5451H58.5454H58.5457H58.5459H58.5462H58.5465H58.5467H58.547H58.5473H58.5475H58.5478H58.548H58.5483H58.5485H58.5488H58.5491H58.5493H58.5496H58.5498H58.5501H58.5503H58.5505H58.5508H58.551H58.5513H58.5515H58.5518H58.552H58.5522H58.5525H58.5527H58.553H58.5532H58.5534H58.5537H58.5539H58.5541H58.5544H58.5546H58.5548H58.555H58.5553H58.5555H58.5557H58.5559H58.5562H58.5564H58.5566H58.5568H58.557H58.5573H58.5575H58.5577H58.5579H58.5581H58.5583H58.5585H58.5588H58.559H58.5592H58.5594H58.5596H58.5598H58.56H58.5602H58.5604H58.5606H58.5608H58.561H58.5612H58.5614H58.5616H58.5618H58.562H58.5622H58.5624H58.5626H58.5628H58.563H58.5632H58.5633H58.5635H58.5637H58.5639H58.5641H58.5643H58.5645H58.5646H58.5648H58.565H58.5652H58.5654H58.5655H58.5657H58.5659H58.5661H58.5663H58.5664H58.5666H58.5668H58.5669H58.5671H58.5673H58.5675H58.5676H58.5678H58.568H58.5681H58.5683H58.5685H58.5686H58.5688H58.5689H58.5691H58.5693H58.5694H58.5696H58.5697H58.5699H58.57H58.5702H58.5704H58.5705H58.5707H58.5708H58.571H58.5711H58.5713H58.5714H58.5716H58.5717H58.5719H58.572H58.5721H58.5723H58.5724H58.5726H58.5727H58.5729H58.573H58.5731H58.5733H58.5734H58.5735H58.5737H58.5738H58.5739H58.5741H58.5742H58.5743H58.5745H58.5746H58.5747H58.5749H58.575H58.5751H58.5753H58.5754H58.5755H58.5756H58.5758H58.5759H58.576H58.5761H58.5762H58.5764H58.5765H58.5766H58.5767H58.5768H58.577H58.5771H58.5772H58.5773H58.5774H58.5775H58.5776H58.5777H58.5779H58.578H58.5781H58.5782H58.5783H58.5784H58.5785H58.5786H58.5787H58.5788H58.5789H58.579H58.5791H58.5792H58.5793H58.5794H58.5795H58.5796H58.5797H58.5798H58.5799H58.58H58.5801H58.5802H58.5803H58.5804H58.5805H58.5806H58.5807H58.5808H58.5809H58.581H58.5811H58.5812H58.5812H58.5813H58.5814H58.5815H58.5816H58.5817H58.5818H58.5818H58.5819H58.582H58.5821H58.5822H58.5823H58.5823H58.5824H58.5825H58.5826H58.5827H58.5827H58.5828H58.5829H58.583H58.583H58.5831H58.5832H58.5833H58.5833H58.5834H58.5835H58.5836H58.5836H58.5837H58.5838H58.5838H58.5839H58.584H58.584H58.5841H58.5842H58.5842H58.5843H58.5844H58.5844H58.5845H58.5846H58.5846H58.5847H58.5848H58.5848H58.5849H58.5849H58.585H58.5851H58.5851H58.5852H58.5852H58.5853H58.5853H58.5854H58.5855H58.5855H58.5856H58.5856H58.5857H58.5857H58.5858H58.5858H58.5859H58.5859H58.586H58.586H58.5861H58.5861H58.5862H58.5862H58.5863H58.5863H58.5864H58.5864H58.5865H58.5865H58.5866H58.5866H58.5867H58.5867H58.5867H58.5868H58.5868H58.5869H58.5869H58.587H58.587H58.587H58.5871H58.5871H58.5872H58.5872H58.5872H58.5873H58.5873H58.5874H58.5874H58.5874H58.5875H58.5875H58.5875H58.5876H58.5876H58.5876H58.5877H58.5877H58.5877H58.5878H58.5878H58.5878H58.5879H58.5879H58.5879H58.588H58.588H58.588H58.5881H58.5881H58.5881H58.5881H58.5882H58.5882H58.5882H58.5883H58.5883H58.5883H58.5883H58.5884H58.5884H58.5884H58.5884H58.5885H58.5885H58.5885H58.5885H58.5886H58.5886H58.5886H58.5886H58.5886H58.5887H58.5887H58.5887H58.5887H58.5887H58.5888H58.5888H58.5888H58.5888H58.5888H58.5889H58.5889H58.5889H58.5889H58.5889H58.589H58.589H58.589H58.589H58.589H58.589H58.589H58.5891H58.5891H58.5891H58.5891H58.5891H58.5891H58.5892H58.5892H58.5892H58.5892H58.5892H58.5892H58.5892H58.5892H58.5893H58.5893H58.5893H58.5893H58.5893H58.5893H58.5893H58.5893H58.5893H58.5894H58.5894H58.5894H58.5894H58.5894H58.5894H58.5894H58.5894H58.5894H58.5894H58.5894H58.5895H58.5895H58.5895H58.5895H58.5895H58.5895H58.5895H58.5895H58.5895H58.5895H58.5895H58.5895H58.5895H58.5895H58.5895H58.5895H58.5896H58.5896H58.5896H58.5896H58.5896H58.5896H58.5896H58.5896H58.5896H58.5896H58.5896H58.5896H58.5896H58.5896H58.5896H58.5896H58.5896H58.5896H58.5896H58.5896H58.5896H58.5896H58.5896H58.5896H58.5896H58.5896H58.5896H58.5896H58.5896H58.5896H58.5897H58.5897H58.5897H58.5897H58.5897H58.5897H58.5897H58.5897H58.5897L58.5897 56.5161L58.6387 56.7613C58.9881 56.6914 59.2996 56.3403 59.223 55.9403L58.885 53.8155L58.8851 53.8155L58.8832 53.8058C58.813 53.4548 58.459 53.1421 58.0568 53.2226C57.7074 53.2925 57.3959 53.6436 57.4725 54.0436L57.8105 56.1683Z" fill="#1B4476" stroke="#1B4476" stroke-width="0.5"/>
    <path d="M62.2181 56.8097L62.2424 56.8145H62.2671H62.2674H62.2677H62.268H62.2682H62.2685H62.2688H62.2691H62.2694H62.2696H62.2699H62.2702H62.2704H62.2707H62.271H62.2712H62.2715H62.2718H62.272H62.2723H62.2726H62.2728H62.2731H62.2734H62.2736H62.2739H62.2741H62.2744H62.2746H62.2749H62.2751H62.2754H62.2756H62.2759H62.2761H62.2764H62.2766H62.2769H62.2771H62.2774H62.2776H62.2779H62.2781H62.2783H62.2786H62.2788H62.2791H62.2793H62.2795H62.2798H62.28H62.2802H62.2805H62.2807H62.2809H62.2812H62.2814H62.2816H62.2818H62.2821H62.2823H62.2825H62.2827H62.283H62.2832H62.2834H62.2836H62.2838H62.2841H62.2843H62.2845H62.2847H62.2849H62.2851H62.2854H62.2856H62.2858H62.286H62.2862H62.2864H62.2866H62.2868H62.287H62.2872H62.2875H62.2877H62.2879H62.2881H62.2883H62.2885H62.2887H62.2889H62.2891H62.2893H62.2895H62.2897H62.2899H62.2901H62.2903H62.2905H62.2907H62.2908H62.291H62.2912H62.2914H62.2916H62.2918H62.292H62.2922H62.2924H62.2926H62.2928H62.2929H62.2931H62.2933H62.2935H62.2937H62.2939H62.294H62.2942H62.2944H62.2946H62.2948H62.295H62.2951H62.2953H62.2955H62.2957H62.2958H62.296H62.2962H62.2964H62.2966H62.2967H62.2969H62.2971H62.2972H62.2974H62.2976H62.2978H62.2979H62.2981H62.2983H62.2984H62.2986H62.2988H62.299H62.2991H62.2993H62.2995H62.2996H62.2998H62.3H62.3001H62.3003H62.3004H62.3006H62.3008H62.3009H62.3011H62.3013H62.3014H62.3016H62.3017H62.3019H62.3021H62.3022H62.3024H62.3025H62.3027H62.3029H62.303H62.3032H62.3033H62.3035H62.3036H62.3038H62.304H62.3041H62.3043H62.3044H62.3046H62.3047H62.3049H62.305H62.3052H62.3053H62.3055H62.3056H62.3058H62.3059H62.3061H62.3062H62.3064H62.3065H62.3067H62.3068H62.307H62.3071H62.3073H62.3074H62.3076H62.3077H62.3079H62.308H62.3082H62.3083H62.3085H62.3086H62.3088H62.3089H62.3091H62.3092H62.3094H62.3095H62.3096H62.3098H62.3099H62.3101H62.3102H62.3104H62.3105H62.3107H62.3108H62.3109H62.3111H62.3112H62.3114H62.3115H62.3117H62.3118H62.312H62.3121H62.3122H62.3124H62.3125H62.3127H62.3128H62.3129H62.3131H62.3132H62.3134H62.3135H62.3137H62.3138H62.3139H62.3141H62.3142H62.3144H62.3145H62.3147H62.3148H62.3149H62.3151H62.3152H62.3154H62.3155H62.3156H62.3158H62.3159H62.3161H62.3162H62.3164H62.3165H62.3166H62.3168H62.3169H62.3171H62.3172H62.3174H62.3175H62.3176H62.3178H62.3179H62.3181H62.3182H62.3183H62.3185H62.3186H62.3188H62.3189H62.3191H62.3192H62.3193H62.3195H62.3196H62.3198H62.3199H62.3201H62.3202H62.3204H62.3205H62.3206H62.3208H62.3209H62.3211H62.3212H62.3214H62.3215H62.3217H62.3218H62.322H62.3221H62.3222H62.3224H62.3225H62.3227H62.3228H62.323H62.3231H62.3233H62.3234H62.3236H62.3237H62.3239H62.324H62.3242H62.3243H62.3245H62.3246H62.3248H62.3249H62.3251H62.3252H62.3254H62.3255H62.3257H62.3258H62.326H62.3261H62.3263H62.3264H62.3266H62.3268H62.3269H62.3271H62.3272H62.3274H62.3275H62.3277H62.3278H62.328H62.3282H62.3283H62.3285H62.3286H62.3288H62.3289H62.3291H62.3293H62.3294H62.3296H62.3298H62.3299H62.3301H62.3302H62.3304H62.3306H62.3307H62.3309H62.3311H62.3312H62.3314H62.3316H62.3317H62.3319H62.3321H62.3322H62.3324H62.3326H62.3327H62.3329H62.3331H62.3332H62.3334H62.3336H62.3338H62.3339H62.3341H62.3343H62.3345H62.3346H62.3348H62.335H62.3352H62.3353H62.3355H62.3357H62.3359H62.3361H62.3362H62.3364H62.3366H62.3368H62.337H62.3371H62.3373H62.3375H62.3377H62.3379H62.3381H62.3383H62.3384H62.3386H62.3388H62.339H62.3392H62.3394H62.3396H62.3398H62.34H62.3402H62.3404H62.3406H62.3407H62.3409H62.3411H62.3413H62.3415H62.3417H62.3419H62.3421H62.3423H62.3425H62.3427H62.3429H62.3431H62.3434H62.3436H62.3438H62.344H62.3442H62.3444H62.3446H62.3448H62.345H62.3452H62.3454H62.3457H62.3459H62.3461H62.3463H62.3465H62.3467H62.3469H62.3472H62.3474H62.3476H62.3478H62.348H62.3483H62.3485H62.3487H62.3489H62.3492H62.3494H62.3496H62.3499H62.3501H62.3503H62.3505H62.3508H62.351H62.3512H62.3515H62.3517H62.352H62.3522H62.3524H62.3527H62.3529H62.3532H62.3534H62.3536H62.3539H62.3541H62.3544H62.3546H62.3549H62.3551H62.3554H62.3556H62.3559H62.3561H62.3564H62.3566H62.3569H62.3571H62.3574H62.3577H62.3579H62.3582H62.3584H62.3587H62.359H62.3592H62.3595H62.3598H62.36H62.3603H62.3606H62.3608H62.3611H62.3614H62.3617H62.3619H62.3622H62.3625H62.3628H62.363H62.3633H62.3636H62.3639C62.6526 56.8145 63.0167 56.6073 63.0929 56.2264L63.0929 56.2264L63.0937 56.2221L63.4808 54.0931L63.4809 54.0931L63.4815 54.0895C63.5528 53.6613 63.2662 53.2965 62.8968 53.2226L62.8968 53.2225L62.8889 53.2211C62.4606 53.1498 62.0959 53.4364 62.022 53.8058L62.0219 53.8058L62.0211 53.8101L61.6341 55.9391L61.634 55.9391L61.6334 55.9428C61.5621 56.371 61.8487 56.7358 62.2181 56.8097Z" fill="#1B4476" stroke="#1B4476" stroke-width="0.5"/>
    <path d="M65.5256 58.0854L65.5338 58.0903L65.5424 58.0946C65.607 58.1269 65.6673 58.1488 65.7341 58.1599C65.7912 58.1695 65.8462 58.1694 65.8888 58.1694C65.8913 58.1694 65.8937 58.1694 65.8961 58.1694C66.1794 58.1694 66.3844 58.0266 66.5084 57.9026L66.5298 57.8812L66.5455 57.8553L67.6584 56.0166L67.6589 56.0157C67.8633 55.6751 67.8071 55.2228 67.428 54.9953C67.0875 54.791 66.6354 54.8471 66.4078 55.2258L65.2951 57.0641L65.2951 57.0641L65.2946 57.065C65.0903 57.4056 65.1465 57.8579 65.5256 58.0854Z" fill="#1B4476" stroke="#1B4476" stroke-width="0.5"/>
    <path d="M68.3017 59.3715L68.2924 59.3792L68.2839 59.3877C67.9977 59.6739 67.998 60.1008 68.2081 60.3864C68.364 60.6156 68.5982 60.6855 68.7993 60.6855C68.9812 60.6855 69.1347 60.5957 69.2573 60.4762L70.8938 59.1285L70.9031 59.1208L70.9116 59.1123C71.1996 58.8243 71.1974 58.3936 70.9832 58.1081L70.9726 58.0938L70.96 58.0813C70.672 57.7933 70.2414 57.7955 69.9558 58.0097L69.9556 58.0095L69.9469 58.0167L68.3017 59.3715Z" fill="#1B4476" stroke="#1B4476" stroke-width="0.5"/>
    <path d="M70.8316 63.9758H70.8722L70.9107 63.963L72.93 63.2899C73.3305 63.1982 73.5327 62.7407 73.3863 62.3749C73.2459 62.0238 72.8242 61.7938 72.4399 61.9423L70.4268 62.6133C70.0321 62.7037 69.83 63.1495 69.9644 63.5125C70.0476 63.8117 70.3384 64.0242 70.6381 64.0242C70.6911 64.0242 70.734 64.011 70.7583 64.0024C70.771 63.9979 70.7824 63.9933 70.7901 63.9901L70.8096 63.9821C70.8254 63.9758 70.8284 63.9758 70.8312 63.9758C70.8314 63.9758 70.8315 63.9758 70.8316 63.9758Z" fill="#1B4476" stroke="#1B4476" stroke-width="0.5"/>
    <path d="M71.2187 67.75H73.3478C73.7112 67.75 74.0816 67.4605 74.0816 67.0161C74.0816 66.5717 73.7112 66.2822 73.3478 66.2822H71.2187C70.7744 66.2822 70.4849 66.6526 70.4849 67.0161C70.4849 67.4605 70.8553 67.75 71.2187 67.75Z" fill="#1B4476" stroke="#1B4476" stroke-width="0.5"/>
    <path d="M58.0742 65.5477C58.1373 65.6109 58.2104 65.6682 58.3006 65.7083C58.392 65.7489 58.4879 65.7661 58.5897 65.7661C58.6914 65.7661 58.7874 65.7489 58.8787 65.7083C58.9689 65.6682 59.042 65.6109 59.1052 65.5477C59.3963 65.2566 59.3963 64.8079 59.1052 64.5168L54.5084 59.92C54.2172 59.6288 53.7686 59.6288 53.4774 59.92C53.1862 60.2112 53.1862 60.6598 53.4774 60.951L58.0742 65.5477Z" fill="#1B4476" stroke="#1B4476" stroke-width="0.5"/>
  </g>
  <defs>
    <clipPath id="clip0_1_278">
      <rect width="92.874" height="104.72" fill="white" transform="translate(0.621948)"/>
    </clipPath>
  </defs>
</svg>
