<svg width="94" height="105" viewBox="0 0 94 105" fill="none" xmlns="http://www.w3.org/2000/svg">
  <g clip-path="url(#clip0_7_409)">
    <path d="M87.999 80.391L50.299 102.157C49.1975 102.792 47.9482 103.127 46.6765 103.127C45.4048 103.127 44.1555 102.792 43.054 102.157L5.36302 80.391C4.26256 79.7547 3.34885 78.8401 2.71362 77.739C2.07839 76.6379 1.744 75.3891 1.74402 74.118V30.591C1.74365 29.3195 2.07788 28.0702 2.71312 26.9688C3.34837 25.8673 4.26226 24.9524 5.36302 24.316L43.058 2.56097C44.1595 1.92548 45.4088 1.59094 46.6805 1.59094C47.9522 1.59094 49.2015 1.92548 50.303 2.56097L88.003 24.327C89.1038 24.9634 90.0177 25.8783 90.6529 26.9798C91.2882 28.0812 91.6224 29.3305 91.622 30.602V74.126C91.6224 75.3975 91.2882 76.6467 90.6529 77.7482C90.0177 78.8496 89.1038 79.7645 88.003 80.401L87.999 80.391Z" stroke="#1B4476" stroke-width="3" stroke-miterlimit="10"/>
    <path d="M63 62H57V76H63V62Z" fill="#1B4476"/>
    <path d="M71 62H65V76H71V62Z" fill="#1B4476"/>
    <path d="M71 56H57V60H71V56Z" fill="#1B4476"/>
    <path d="M25 52L19 58H25V52Z" fill="#1B4476"/>
    <path d="M27 58C27 59.1046 26.1046 60 25 60H19V78C19 79.1045 19.8954 80 21 80H37C38.1046 80 39 79.1045 39 78V54C39 52.8954 38.1046 52 37 52H29H27V58ZM34 74H24C23.4473 74 23 73.5527 23 73C23 72.4473 23.4473 72 24 72H34C34.5527 72 35 72.4473 35 73C35 73.5527 34.5527 74 34 74ZM34 70H24C23.4473 70 23 69.5527 23 69C23 68.4473 23.4473 68 24 68H34C34.5527 68 35 68.4473 35 69C35 69.5527 34.5527 70 34 70ZM34 64C34.5527 64 35 64.4473 35 65C35 65.5527 34.5527 66 34 66H24C23.4473 66 23 65.5527 23 65C23 64.4473 23.4473 64 24 64H34Z" fill="#1B4476"/>
    <path d="M47 36C62.464 36 75 33.3137 75 30C75 26.6863 62.464 24 47 24C31.536 24 19 26.6863 19 30C19 33.3137 31.536 36 47 36Z" fill="#1B4476"/>
    <path d="M19 33.2737V38C19 39.6338 22.0566 41.1133 27 42.1953V45.1719L26.4141 44.5859C25.6328 43.8047 24.3672 43.8047 23.5859 44.5859C22.8047 45.3672 22.8047 46.6328 23.5859 47.4141L27.5859 51.4141C27.9766 51.8047 28.4883 52 29 52C29.5117 52 30.0234 51.8047 30.4141 51.4141L34.4141 47.4141C35.1953 46.6328 35.1953 45.3672 34.4141 44.5859C33.6328 43.8047 32.3672 43.8047 31.5859 44.5859L31 45.1719V42.92C35.5374 43.5989 41.0463 44 47 44C53.0881 44 58.7057 43.579 63.2999 42.8719L59.5859 46.5859C58.8047 47.3672 58.8047 48.6328 59.5859 49.4141C60.3672 50.1953 61.6328 50.1953 62.4141 49.4141L63 48.8281V52H55C53.8955 52 53 52.8945 53 54V78C53 79.1055 53.8955 80 55 80H73C74.1045 80 75 79.1055 75 78V54C75 52.8945 74.1045 52 73 52H67V48.8281L67.5859 49.4141C67.9766 49.8047 68.4883 50 69 50C69.5117 50 70.0234 49.8047 70.4141 49.4141C71.1953 48.6328 71.1953 47.3672 70.4141 46.5859L66.4141 42.5859C66.3219 42.4938 66.2058 42.4489 66.1017 42.3784C71.5652 41.2834 75 39.7295 75 38V33.2737C68.7163 37.8397 49.5614 38 47 38C44.4386 38 25.2837 37.8397 19 33.2737ZM72 54C72.5527 54 73 54.4473 73 55V77C73 77.5527 72.5527 78 72 78H56C55.4473 78 55 77.5527 55 77V55C55 54.4473 55.4473 54 56 54H72Z" fill="#1B4476"/>
    <path d="M46.4141 60.5859C45.6328 59.8047 44.3672 59.8047 43.5859 60.5859C42.8047 61.3672 42.8047 62.6328 43.5859 63.4141L44.1719 64H41V68H44.1719L43.5859 68.5859C42.8047 69.3672 42.8047 70.6328 43.5859 71.4141C43.9766 71.8047 44.4883 72 45 72C45.5117 72 46.0234 71.8047 46.4141 71.4141L50.4141 67.4141C51.1953 66.6328 51.1953 65.3672 50.4141 64.5859L46.4141 60.5859Z" fill="#1B4476"/>
  </g>
  <defs>
    <clipPath id="clip0_7_409">
      <rect width="92.874" height="104.72" fill="white" transform="translate(0.244019)"/>
    </clipPath>
  </defs>
</svg>
