<svg width="94" height="105" viewBox="0 0 94 105" fill="none" xmlns="http://www.w3.org/2000/svg">
  <g clip-path="url(#clip0_1_64)">
    <path d="M88.629 80.391L50.929 102.157C49.8275 102.792 48.5782 103.127 47.3065 103.127C46.0348 103.127 44.7855 102.792 43.684 102.157L5.99302 80.391C4.89256 79.7547 3.97885 78.8401 3.34363 77.739C2.7084 76.6379 2.37401 75.3891 2.37402 74.118V30.591C2.37366 29.3195 2.70788 28.0702 3.34313 26.9688C3.97837 25.8673 4.89227 24.9524 5.99302 24.316L43.688 2.56097C44.7895 1.92548 46.0388 1.59094 47.3105 1.59094C48.5822 1.59094 49.8315 1.92548 50.933 2.56097L88.633 24.327C89.7338 24.9634 90.6477 25.8783 91.2829 26.9798C91.9182 28.0812 92.2524 29.3305 92.252 30.602V74.126C92.2524 75.3975 91.9182 76.6467 91.2829 77.7482C90.6477 78.8496 89.7338 79.7645 88.633 80.401L88.629 80.391Z" stroke="#1B4476" stroke-width="3" stroke-miterlimit="10"/>
    <path d="M57.0897 49.1549C57.0897 47.1616 55.6937 45.365 53.6584 44.6962C53.6975 44.4995 53.7106 44.3028 53.7106 44.1061C53.7106 42.0603 51.9101 40.3949 49.7052 40.3949C48.6484 40.3949 47.6307 40.7883 46.8871 41.4702C46.1434 40.7883 45.1257 40.3949 44.069 40.3949C41.864 40.3949 40.0636 42.0603 40.0636 44.1061C40.0636 44.3028 40.0766 44.4995 40.1158 44.6962C38.0805 45.3519 36.6844 47.1616 36.6844 49.1549C36.6844 50.1253 36.9976 51.0564 37.6108 51.8432C37.0106 52.6956 36.6844 53.6791 36.6844 54.6889C36.6844 56.315 37.5194 57.8624 38.9416 58.8459C39.0198 61.1146 41.0421 62.9243 43.5079 62.9243C44.7996 62.9243 46.026 62.426 46.8871 61.5342C47.7482 62.4129 48.9746 62.9243 50.2662 62.9243C52.6277 62.9243 54.5977 61.2589 54.8195 59.1082C56.2286 58.2427 57.0897 56.7477 57.0897 55.1872C57.0897 54.0856 56.6591 53.0103 55.8894 52.171C56.6591 51.3186 57.0897 50.2564 57.0897 49.1549ZM50.2531 55.515C50.1618 55.8166 50.1879 56.1445 50.3314 56.4199C50.4749 56.7084 50.7228 56.9051 51.0229 57.01C51.871 57.2854 52.445 57.9673 52.445 58.7148C52.445 59.7245 51.4665 60.5376 50.2531 60.5376C49.0398 60.5376 48.0613 59.7114 48.0613 58.7148V52.6694C48.0613 51.6596 49.0398 50.8465 50.2531 50.8465C50.9055 50.8465 51.4404 50.3089 51.4404 49.6532C51.4404 48.9975 50.9055 48.4598 50.2531 48.4598C49.4834 48.4598 48.7267 48.6434 48.0613 48.9844V48.2107C48.0613 47.555 47.5264 47.0173 46.874 47.0173C46.2217 47.0173 45.6868 47.555 45.6868 48.2107V53.0103C45.4519 52.8923 45.2171 52.8005 44.9822 52.7218C44.356 52.5251 43.6906 52.8792 43.4949 53.5086C43.4036 53.8102 43.4297 54.1381 43.5732 54.4135C43.7167 54.702 43.9646 54.8987 44.2647 55.0036C45.1127 55.279 45.6868 55.9609 45.6868 56.7084V58.7279C45.6868 59.7377 44.7082 60.5507 43.4949 60.5507C42.2815 60.5507 41.303 59.7245 41.303 58.7279C41.303 58.3083 41.4857 57.8886 41.8119 57.5608C42.0336 57.3378 42.1641 57.0362 42.1641 56.7215C42.1641 56.4068 42.0467 56.1052 41.8249 55.8822C41.6031 55.6593 41.303 55.5281 40.9899 55.5281C40.6768 55.5281 40.3767 55.6462 40.1549 55.8691C39.9983 56.0265 39.8548 56.1969 39.7244 56.3805C39.3069 55.8953 39.072 55.3052 39.072 54.702C39.072 53.43 40.0766 52.3022 41.5248 51.9612C41.8379 51.8956 42.0989 51.6989 42.2685 51.4367C42.4381 51.1613 42.4903 50.8465 42.4251 50.5318C42.3598 50.2171 42.1641 49.9548 41.9032 49.7843C41.6292 49.6139 41.3161 49.5614 41.0029 49.627C40.4419 49.7581 39.907 49.9679 39.4112 50.2433C39.1894 49.9024 39.0851 49.5352 39.0851 49.1549C39.0851 47.8828 40.3115 46.8337 41.8119 46.8206C41.8249 46.8206 41.8379 46.8206 41.851 46.8206C42.125 46.8206 42.399 46.7157 42.6208 46.5321C43.0643 46.1518 43.1687 45.4961 42.8556 44.9847C42.8426 44.9716 42.8426 44.9585 42.8295 44.9454C42.8295 44.9322 42.8165 44.9323 42.8165 44.9191C42.8034 44.8929 42.7773 44.8798 42.7643 44.8536L42.7382 44.8273C42.6077 44.67 42.4642 44.4208 42.4642 44.093C42.4642 43.3586 43.1948 42.7685 44.095 42.7685C44.9953 42.7685 45.7259 43.3586 45.7259 44.093C45.7259 44.7487 46.2608 45.2863 46.9132 45.2863C47.5655 45.2863 48.1004 44.7487 48.1004 44.093C48.1004 43.3586 48.831 42.7685 49.7313 42.7685C50.6315 42.7685 51.3621 43.3586 51.3621 44.093C51.3621 44.211 51.336 44.329 51.2969 44.447C50.7881 44.5126 50.2923 44.6437 49.8357 44.8405C49.5486 44.9585 49.3138 45.1945 49.1964 45.4961C49.0789 45.7978 49.0789 46.1125 49.1964 46.4141C49.3138 46.7026 49.5486 46.9387 49.8487 47.0567C50.1488 47.1747 50.4619 47.1747 50.762 47.0567C51.1403 46.8993 51.5448 46.8206 51.9623 46.8075C51.9884 46.8075 52.0145 46.8075 52.0145 46.8075C53.5279 46.8206 54.7543 47.8697 54.7543 49.1418C54.7543 49.9417 54.2585 50.6761 53.4496 51.1088C53.0582 51.3186 52.8103 51.7252 52.8103 52.171C52.8103 52.6169 53.0582 53.0234 53.4496 53.2332C54.2716 53.666 54.7543 54.4004 54.7543 55.2003C54.7543 55.6855 54.5716 56.1576 54.2324 56.5641C53.6845 55.7117 52.8234 55.0692 51.7927 54.7413C51.1142 54.5315 50.4489 54.8856 50.2531 55.515Z" fill="#1B4476"/>
    <path d="M64.9439 76.1692C64.2133 76.1692 63.5349 76.3266 62.9086 76.6019L57.9639 71.6318C57.6768 71.3433 57.5203 70.963 57.5203 70.5565V68.2747H57.8986C58.3683 68.2747 58.825 68.2223 59.2686 68.1042C60.0644 67.8944 60.5471 67.0683 60.3514 66.2683C60.1427 65.4684 59.3207 64.9832 58.5249 65.1799C58.3161 65.2323 58.1074 65.2586 57.8986 65.2586H35.8495C34.4665 65.2586 33.3445 64.1308 33.3445 62.7407V40.5916C33.3445 40.3818 33.3706 40.1589 33.4228 39.9622C33.5272 39.5688 33.4619 39.1622 33.2662 38.8213C33.0575 38.4803 32.7313 38.2312 32.3529 38.1262C31.9615 38.0213 31.5571 38.0869 31.2179 38.2836C30.8786 38.4934 30.6308 38.8213 30.5264 39.2016C30.409 39.6474 30.3568 40.1195 30.3568 40.5785V41.0899H24.838C24.2509 38.9262 22.2808 37.3394 19.9585 37.3394C17.1664 37.3394 14.8963 39.6212 14.8963 42.4275C14.8963 45.2339 17.1664 47.5157 19.9585 47.5157C22.1634 47.5157 24.0421 46.0863 24.7336 44.1061H30.3698V45.6273H26.8602C26.0383 45.6273 25.3598 46.3092 25.3598 47.1354C25.3598 47.9615 26.0383 48.6435 26.8602 48.6435H30.3698V50.1647H15.8096C14.9876 50.1647 14.3092 50.8466 14.3092 51.6727C14.3092 52.4989 14.9876 53.1808 15.8096 53.1808H30.3437V54.702H26.8341C26.0122 54.702 25.3337 55.3839 25.3337 56.2101C25.3337 57.0363 26.0122 57.7182 26.8341 57.7182H30.3437V59.2394H28.0736C26.8733 59.2394 25.7382 59.7115 24.8902 60.5638L20.4412 65.0356C19.6975 64.616 18.8495 64.3668 17.9362 64.3668C15.1442 64.3668 12.874 66.6486 12.874 69.455C12.874 72.2613 15.1442 74.5431 17.9362 74.5431C20.7282 74.5431 22.9984 72.2613 22.9984 69.455C22.9984 68.655 22.8157 67.9075 22.4895 67.2387L27.0168 62.6883C27.3038 62.3998 27.6822 62.2424 28.0866 62.2424H30.3568V62.7538C30.3568 65.8093 32.8226 68.2878 35.8625 68.2878H36.3714V74.5037C34.2839 75.1332 32.7574 77.074 32.7574 79.3821C32.7574 82.1884 35.0275 84.4702 37.8196 84.4702C40.6116 84.4702 42.8817 82.1884 42.8817 79.3821C42.8817 77.1134 41.4074 75.1988 39.3591 74.5431V68.3009H40.8725V71.8285C40.8725 72.6547 41.551 73.3366 42.3729 73.3366C43.1949 73.3366 43.8733 72.6547 43.8733 71.8285V68.3009H45.3867V82.9097C45.3867 83.7358 46.0652 84.4177 46.8871 84.4177C47.7091 84.4177 48.3875 83.7358 48.3875 82.9097V68.2878H50.0183V71.8154C50.0183 72.6416 50.6968 73.3235 51.5187 73.3235C52.3407 73.3235 53.0191 72.6416 53.0191 71.8154V68.2878H54.5195V70.5696C54.5195 71.7761 54.9892 72.917 55.8372 73.7694L60.6385 78.5952C60.1557 79.3689 59.8818 80.2869 59.8818 81.2704C59.8818 84.0768 62.1519 86.3586 64.9439 86.3586C67.7359 86.3586 70.0061 84.0768 70.0061 81.2704C70.0061 78.4641 67.7359 76.1692 64.9439 76.1692ZM19.9324 44.4995C18.7973 44.4995 17.871 43.5684 17.871 42.4275C17.871 41.2867 18.7973 40.3556 19.9324 40.3556C21.0674 40.3556 21.9938 41.2867 21.9938 42.4275C21.9938 43.5816 21.0674 44.4995 19.9324 44.4995ZM17.9362 71.5269C16.8011 71.5269 15.8748 70.5959 15.8748 69.455C15.8748 68.3141 16.8011 67.383 17.9362 67.383C19.0713 67.383 19.9976 68.3141 19.9976 69.455C19.9976 70.5959 19.0713 71.5269 17.9362 71.5269ZM37.8196 81.454C36.6845 81.454 35.7582 80.5229 35.7582 79.3821C35.7582 78.2412 36.6845 77.3101 37.8196 77.3101C38.9546 77.3101 39.881 78.2412 39.881 79.3821C39.881 80.5229 38.9546 81.454 37.8196 81.454ZM64.9439 83.3293C63.8088 83.3293 62.8825 82.3982 62.8825 81.2573C62.8825 80.1164 63.8088 79.1853 64.9439 79.1853C66.079 79.1853 67.0053 80.1164 67.0053 81.2573C67.0053 82.3982 66.079 83.3293 64.9439 83.3293Z" fill="#1B4476"/>
    <path d="M77.9385 53.1152C78.7344 53.1152 79.3737 52.4727 79.3737 51.6727C79.3737 50.8728 78.7344 50.2302 77.9385 50.2302H63.3522V48.591H66.914C67.7098 48.591 68.3491 47.9484 68.3491 47.1485C68.3491 46.3485 67.7098 45.706 66.914 45.706H63.3391V44.0667H65.6615C66.8487 44.0667 67.9708 43.6078 68.8057 42.7554L73.32 38.218C73.9984 38.559 74.7551 38.7426 75.551 38.7426C78.343 38.7426 80.6131 36.4608 80.6131 33.6544C80.6131 30.8481 78.343 28.5663 75.551 28.5663C72.7589 28.5663 70.4888 30.8481 70.4888 33.6544C70.4888 34.5986 70.7497 35.4904 71.2064 36.251L66.7704 40.7096C66.4704 41.0112 66.079 41.1686 65.6615 41.1686H63.3391V40.5916C63.3391 37.5755 60.8994 35.1232 57.8986 35.1232H57.3245V29.1171C59.4381 28.5139 60.9907 26.5468 60.9907 24.2257C60.9907 21.4193 58.7206 19.1375 55.9285 19.1375C53.1365 19.1375 50.8664 21.4193 50.8664 24.2257C50.8664 26.5075 52.3798 28.4483 54.4412 29.0909V35.1232H52.8234V31.53C52.8234 30.7301 52.1841 30.0875 51.3882 30.0875C50.5924 30.0875 49.9531 30.7301 49.9531 31.53V35.1232H48.3222V20.4489C48.3222 19.649 47.6829 19.0064 46.8871 19.0064C46.0912 19.0064 45.4519 19.649 45.4519 20.4489V35.1232H43.8211V31.53C43.8211 30.7301 43.1818 30.0875 42.3859 30.0875C41.5901 30.0875 40.9508 30.7301 40.9508 31.53V35.1232H39.4373V32.7889C39.4373 31.5956 38.9807 30.4678 38.1327 29.6285L33.3445 24.8158C33.8403 24.029 34.1403 23.0848 34.1403 22.0881C34.1403 19.2818 31.8702 17 29.0782 17C26.2861 17 24.016 19.2818 24.016 22.0881C24.016 24.8945 26.2861 27.1763 29.0782 27.1763C29.8218 27.1763 30.5394 27.0058 31.1787 26.7173L36.1104 31.6743C36.4105 31.9759 36.567 32.3693 36.567 32.7889V35.1232H35.8756C35.4189 35.1232 34.9623 35.1756 34.5187 35.2937C34.1534 35.3855 33.8403 35.6215 33.6446 35.9625C33.4488 36.2903 33.3967 36.6837 33.488 37.0509C33.5793 37.4312 33.8142 37.7328 34.1534 37.9295C34.4795 38.1262 34.871 38.1787 35.2493 38.0869C35.4581 38.0344 35.6799 38.0082 35.8886 38.0082H57.9377C59.3598 38.0082 60.508 39.1622 60.508 40.5916V62.7538C60.508 62.9768 60.4819 63.1866 60.4297 63.3964C60.234 64.1701 60.6906 64.9569 61.4604 65.1536C61.5778 65.1799 61.6952 65.193 61.8127 65.193C62.465 65.193 63.0391 64.7471 63.2087 64.1045C63.3261 63.6587 63.3783 63.1997 63.3783 62.7407V62.1637H69.5233C70.28 64.0259 72.0936 65.3503 74.2202 65.3503C77.0122 65.3503 79.2824 63.0686 79.2824 60.2622C79.2824 57.4559 77.0122 55.1741 74.2202 55.1741C71.7674 55.1741 69.719 56.9444 69.2493 59.2787H63.3652V57.6395H66.914C67.7098 57.6395 68.3491 56.9969 68.3491 56.197C68.3491 55.397 67.7098 54.7544 66.914 54.7544H63.3391V53.1152H77.9385ZM75.564 31.5694C76.6991 31.5694 77.6254 32.5004 77.6254 33.6413C77.6254 34.7822 76.6991 35.7133 75.564 35.7133C74.4289 35.7133 73.5026 34.7822 73.5026 33.6413C73.5026 32.4873 74.4289 31.5694 75.564 31.5694ZM27.0037 22.075C27.0037 20.9341 27.93 20.003 29.0651 20.003C30.2002 20.003 31.1265 20.9341 31.1265 22.075C31.1265 23.2159 30.2002 24.147 29.0651 24.147C27.93 24.147 27.0037 23.2159 27.0037 22.075ZM55.9416 22.1406C57.0767 22.1406 58.003 23.0717 58.003 24.2126C58.003 25.3534 57.0767 26.2845 55.9416 26.2845C54.8065 26.2845 53.8802 25.3534 53.8802 24.2126C53.8802 23.0717 54.8065 22.1406 55.9416 22.1406ZM74.1941 58.2034C75.3292 58.2034 76.2555 59.1344 76.2555 60.2753C76.2555 61.4162 75.3292 62.3473 74.1941 62.3473C73.059 62.3473 72.1327 61.4162 72.1327 60.2753C72.1327 59.1344 73.059 58.2034 74.1941 58.2034Z" fill="#1B4476"/>
  </g>
  <defs>
    <clipPath id="clip0_1_64">
      <rect width="92.874" height="104.72" fill="white" transform="translate(0.874023)"/>
    </clipPath>
  </defs>
</svg>
