<svg width="93" height="105" viewBox="0 0 93 105" fill="none" xmlns="http://www.w3.org/2000/svg">
  <g clip-path="url(#clip0_1_3)">
    <path d="M87.755 80.391L50.055 102.157C48.9535 102.792 47.7042 103.127 46.4325 103.127C45.1608 103.127 43.9115 102.792 42.81 102.157L5.119 80.391C4.01854 79.7547 3.10483 78.8401 2.4696 77.739C1.83438 76.6379 1.49998 75.3891 1.5 74.118V30.591C1.49963 29.3195 1.83386 28.0702 2.4691 26.9688C3.10435 25.8673 4.01825 24.9524 5.119 24.316L42.814 2.56097C43.9155 1.92548 45.1648 1.59094 46.4365 1.59094C47.7082 1.59094 48.9575 1.92548 50.059 2.56097L87.759 24.327C88.8598 24.9634 89.7737 25.8783 90.4089 26.9798C91.0441 28.0812 91.3784 29.3305 91.378 30.602V74.126C91.3784 75.3975 91.0441 76.6467 90.4089 77.7482C89.7737 78.8496 88.8598 79.7645 87.759 80.401L87.755 80.391Z" stroke="#1B4476" stroke-width="3" stroke-miterlimit="10"/>
    <path d="M31 62H14V79H31V62Z" fill="#1B4476"/>
    <path d="M56 62H39V79H56V62Z" fill="#1B4476"/>
    <path d="M81 62H64V79H81V62Z" fill="#1B4476"/>
    <path d="M23.4509 50.6927H46.2746V59H48.7254V50.6927H71.5491V59H74V49.4619C74 48.7817 73.4519 48.2312 72.7746 48.2312H48.7254V38C48.3049 38.0204 47.8917 38.034 47.5 38.034C47.1083 38.034 46.6951 38.0204 46.2746 38V48.2312H22.2254C21.5481 48.2312 21 48.7817 21 49.4619V59H23.4509V50.6927Z" fill="#1B4476"/>
    <path d="M47.5 22C52.7727 22 56 20.381 56 19.4997C56 18.6184 52.7727 17 47.5 17C42.2273 17 39 18.6184 39 19.4997C39 20.381 42.2273 22 47.5 22Z" fill="#1B4476"/>
    <path d="M47.5 37C52.7727 37 56 35.3662 56 34.4769V32C54.0414 33.1987 50.7608 33.8181 47.5 33.8181C44.2392 33.8181 40.9586 33.1987 39 32V34.4769C39 35.3662 42.2273 37 47.5 37Z" fill="#1B4476"/>
    <path d="M47.5 32C52.7727 32 56 30.3662 56 29.4769V27C54.0414 28.1987 50.7608 28.8181 47.5 28.8181C44.2392 28.8181 40.9586 28.1987 39 27V29.4769C39 30.3662 42.2273 32 47.5 32Z" fill="#1B4476"/>
    <path d="M47.5 27C52.7727 27 56 25.3662 56 24.4769V22C54.0414 23.1987 50.7608 23.8181 47.5 23.8181C44.2392 23.8181 40.9586 23.1987 39 22V24.4769C39 25.3662 42.2273 27 47.5 27Z" fill="#1B4476"/>
  </g>
  <defs>
    <clipPath id="clip0_1_3">
      <rect width="92.874" height="104.72" fill="white"/>
    </clipPath>
  </defs>
</svg>
