<svg width="94" height="105" viewBox="0 0 94 105" fill="none" xmlns="http://www.w3.org/2000/svg">
  <g clip-path="url(#clip0_1_271)">
    <path d="M88.125 80.391L50.425 102.157C49.3235 102.792 48.0742 103.127 46.8025 103.127C45.5308 103.127 44.2815 102.792 43.18 102.157L5.489 80.391C4.38853 79.7547 3.47483 78.8401 2.8396 77.739C2.20437 76.6379 1.86998 75.3891 1.87 74.118V30.591C1.86963 29.3195 2.20385 28.0702 2.8391 26.9688C3.47434 25.8673 4.38824 24.9524 5.489 24.316L43.184 2.56097C44.2855 1.92548 45.5348 1.59094 46.8065 1.59094C48.0782 1.59094 49.3275 1.92548 50.429 2.56097L88.129 24.327C89.2298 24.9634 90.1436 25.8783 90.7789 26.9798C91.4141 28.0812 91.7484 29.3305 91.748 30.602V74.126C91.7484 75.3975 91.4141 76.6467 90.7789 77.7482C90.1436 78.8496 89.2298 79.7645 88.129 80.401L88.125 80.391Z" stroke="#1B4476" stroke-width="3" stroke-miterlimit="10"/>
    <mask id="path-2-outside-1_1_271" maskUnits="userSpaceOnUse" x="16.37" y="18" width="60" height="68" fill="black">
      <rect fill="white" x="16.37" y="18" width="60" height="68"/>
      <path d="M30.6281 44.4849H33.9248C34.3048 45.8796 34.8601 47.2156 35.5821 48.471L33.2516 50.793C32.9419 51.1017 32.8984 51.587 33.1479 51.9457C34.5945 54.023 36.385 55.807 38.4699 57.2484C38.8299 57.4971 39.317 57.4537 39.6268 57.1451L41.9572 54.8224C43.2171 55.5417 44.558 56.095 45.9578 56.4737V59.7591C45.9578 60.1951 46.2709 60.5691 46.7018 60.6471C47.9329 60.8698 49.1995 60.9831 50.4655 60.9831C51.7354 60.9831 53.0013 60.8698 54.2291 60.6471C54.6593 60.5691 54.9725 60.1951 54.9725 59.7591V56.4744C56.3716 56.0964 57.7118 55.543 58.973 54.823L61.3035 57.1451C61.6133 57.4537 62.1004 57.4971 62.4603 57.2484C64.5452 55.807 66.3357 54.023 67.7823 51.9457C68.0319 51.587 67.9884 51.1017 67.6786 50.793L65.3482 48.471C66.0728 47.2123 66.6295 45.8763 67.0088 44.4849H70.3061C70.7451 44.4849 71.1204 44.1716 71.1981 43.7409C71.4189 42.5082 71.5313 41.2469 71.5313 39.9935C71.5313 38.7375 71.4189 37.4762 71.1981 36.2428C71.1211 35.8122 70.7451 35.4988 70.3061 35.4988H67.0088C66.6295 34.1068 66.0728 32.7715 65.3482 31.5128L67.6786 29.1908C67.9884 28.8821 68.0319 28.3961 67.7817 28.0374C66.3357 25.9641 64.5452 24.1807 62.461 22.736C62.101 22.4867 61.6133 22.53 61.3035 22.8387L58.9723 25.1614C57.7064 24.4401 56.3662 23.886 54.9725 23.5094V20.2247C54.9725 19.7873 54.658 19.4133 54.2264 19.336C52.9793 19.1133 51.714 19 50.4655 19C49.2203 19 47.955 19.1127 46.7045 19.3353C46.2722 19.412 45.9578 19.7867 45.9578 20.224V23.5094C44.5634 23.8867 43.2232 24.4407 41.9579 25.1614L39.6268 22.8387C39.3163 22.53 38.8292 22.4867 38.4692 22.736C36.385 24.1807 34.5945 25.9641 33.1486 28.0374C32.8984 28.3961 32.9419 28.8821 33.2516 29.1908L35.5821 31.5128C34.8601 32.7681 34.3048 34.1042 33.9248 35.4988H30.6281C30.1905 35.4988 29.8152 35.8108 29.7369 36.2402C29.5134 37.4662 29.3997 38.7295 29.3997 39.9935C29.3997 41.2556 29.5134 42.5169 29.7369 43.7436C29.8152 44.1729 30.1899 44.4849 30.6281 44.4849ZM31.3996 37.3042H34.6333C35.0569 37.3042 35.4235 37.0122 35.5165 36.6008C35.8993 34.9155 36.563 33.3188 37.4897 31.8555C37.7152 31.4988 37.663 31.0341 37.3639 30.7355L35.0789 28.4588C36.1676 27.0201 37.4455 25.7461 38.8921 24.6594L41.1771 26.9361C41.4762 27.2334 41.9419 27.2861 42.2998 27.0621C43.7785 26.1367 45.3817 25.4747 47.0638 25.0954C47.4766 25.0021 47.7697 24.6367 47.7697 24.2154V20.9954C49.5722 20.744 51.3667 20.7447 53.1606 20.9954V24.2161C53.1606 24.6381 53.4536 25.0034 53.8671 25.0967C55.5479 25.4747 57.1504 26.1367 58.6311 27.0634C58.9884 27.2874 59.4548 27.2354 59.7538 26.9374L62.0388 24.6607C63.4854 25.7474 64.7634 27.0214 65.852 28.4601L63.5663 30.7368C63.2673 31.0348 63.2151 31.5001 63.4406 31.8568C64.3706 33.3261 65.0357 34.9235 65.4171 36.6022C65.5107 37.0135 65.8774 37.3055 66.3003 37.3055H69.532C69.6558 38.1949 69.7187 39.0969 69.7187 39.9949C69.7187 40.8909 69.6565 41.7916 69.532 42.6809H66.3003C65.8767 42.6809 65.5101 42.9729 65.4171 43.3842C65.0357 45.0636 64.3706 46.6603 63.4406 48.1303C63.2151 48.487 63.2673 48.9516 63.5663 49.2503L65.852 51.5277C64.7634 52.9683 63.4854 54.2424 62.0388 55.327L59.7532 53.0497C59.4541 52.7517 58.9871 52.6997 58.6291 52.9243C57.1584 53.8484 55.5559 54.5104 53.8665 54.8904C53.4536 54.9837 53.1599 55.349 53.1599 55.771V58.9931C51.3901 59.2417 49.5475 59.2424 47.769 58.9931V55.771C47.769 55.349 47.4759 54.9837 47.0631 54.891C45.3716 54.5097 43.7692 53.8484 42.3005 52.925C41.9425 52.7003 41.4762 52.7523 41.1764 53.0503L38.8908 55.3277C37.4449 54.2437 36.1662 52.9697 35.0776 51.5283L37.3632 49.251C37.6623 48.953 37.7145 48.4876 37.489 48.131C36.5623 46.6676 35.8986 45.0709 35.5159 43.3849C35.4222 42.9736 35.0555 42.6816 34.6327 42.6816H31.3989C31.2738 41.7969 31.2109 40.8969 31.2109 39.9955C31.2109 39.0909 31.2745 38.1889 31.3996 37.3042ZM73.0969 64.3778C71.7025 63.4685 70.0439 63.4158 68.4273 64.2298L57.0821 69.9372C56.866 68.4785 55.9166 67.1858 54.4834 66.5651L39.59 60.1077C37.7272 59.3011 35.7688 59.3297 33.9261 60.1917L27.5195 63.1904V61.8524C27.5195 61.3538 27.114 60.9498 26.6135 60.9498H18.276C17.7755 60.9498 17.37 61.3538 17.37 61.8524V82.6886C17.37 83.1873 17.7755 83.5913 18.276 83.5913H26.6122C27.1127 83.5913 27.5182 83.1873 27.5182 82.6886V80.46L35.1024 78.2513L42.7468 83.704C43.9538 84.564 45.3342 85 46.7279 85C47.7817 85 48.8429 84.7507 49.8432 84.2467L72.735 72.7325C74.3114 71.9392 75.2695 70.5359 75.3625 68.8812C75.4615 67.1078 74.5723 65.3405 73.0969 64.3778ZM25.7063 81.786H19.1819V62.7551H25.7063V81.786ZM73.5533 68.7805C73.5131 69.4932 73.1966 70.4785 71.9187 71.1219L49.0256 82.636C47.2893 83.5107 45.3843 83.3646 43.7999 82.236L35.7982 76.5286C35.5721 76.3672 35.2837 76.3186 35.0167 76.3959L27.5182 78.5793V65.1845L34.6949 61.8258C36.0719 61.1818 37.4756 61.1611 38.8667 61.7631L53.7601 68.2198C54.9062 68.7172 55.5419 70.0045 55.2381 71.2145C55.2368 71.2199 55.2361 71.2259 55.2354 71.2319C55.0494 71.9512 54.5523 72.5559 53.8685 72.8925C53.182 73.2305 52.3904 73.2519 51.6959 72.9519L39.2595 67.5618L38.5368 69.2172L50.9733 74.6072C51.5293 74.8479 52.1215 74.9679 52.7143 74.9679C53.3827 74.9679 54.0525 74.8152 54.6701 74.5106C55.7051 74.0006 56.4887 73.1232 56.87 72.0652L69.2436 65.8405C70.5443 65.1858 71.5172 65.5051 72.1047 65.8878C73.034 66.4945 73.6162 67.6565 73.5533 68.7805ZM50.4648 51.369C56.7596 51.369 61.8816 46.2663 61.8816 39.9935C61.8816 33.7188 56.7603 28.6148 50.4648 28.6148C44.1693 28.6148 39.048 33.7195 39.048 39.9935C39.048 46.2656 44.1699 51.369 50.4648 51.369ZM50.4648 30.4201C55.7607 30.4201 60.0697 34.7148 60.0697 39.9942C60.0697 45.2709 55.7607 49.5643 50.4648 49.5643C45.1689 49.5643 40.8599 45.2709 40.8599 39.9942C40.8599 34.7148 45.1689 30.4201 50.4648 30.4201ZM50.4648 37.5455C49.1119 37.5455 48.0112 38.6442 48.0112 39.9942C48.0112 41.3422 49.1119 42.4389 50.4648 42.4389C51.8197 42.4389 52.9217 41.3422 52.9217 39.9942C52.9217 39.6495 52.8488 39.3215 52.719 39.0235L57.0032 34.7575L55.7199 33.4788L55.0816 34.1182L51.439 37.7475C51.1406 37.6175 50.8114 37.5455 50.4648 37.5455ZM50.4648 40.6329C50.1108 40.6329 49.8231 40.3462 49.8231 39.9935C49.8231 39.6389 50.1108 39.3502 50.4648 39.3502C50.8207 39.3502 51.1105 39.6389 51.1105 39.9935C51.1105 40.3462 50.8207 40.6329 50.4648 40.6329ZM44.5714 45.8656C43.0606 44.3636 42.1292 42.2842 42.1292 39.9935C42.1292 37.6989 43.0606 35.6195 44.5714 34.1175C46.0789 32.6121 48.1618 31.6841 50.4648 31.6841C51.7776 31.6841 53.0174 31.9835 54.1214 32.5208L52.7424 33.8948C52.0345 33.6315 51.2684 33.4895 50.4648 33.4895C48.6643 33.4895 47.0323 34.2168 45.8514 35.3935C44.6704 36.5702 43.9371 38.1962 43.9371 39.9942C43.9371 41.7882 44.6704 43.4142 45.8514 44.5909C47.0323 45.7676 48.6643 46.4949 50.4648 46.4949V48.3003C48.1618 48.2996 46.0789 47.3716 44.5714 45.8656Z"/>
    </mask>
    <path d="M30.6281 44.4849H33.9248C34.3048 45.8796 34.8601 47.2156 35.5821 48.471L33.2516 50.793C32.9419 51.1017 32.8984 51.587 33.1479 51.9457C34.5945 54.023 36.385 55.807 38.4699 57.2484C38.8299 57.4971 39.317 57.4537 39.6268 57.1451L41.9572 54.8224C43.2171 55.5417 44.558 56.095 45.9578 56.4737V59.7591C45.9578 60.1951 46.2709 60.5691 46.7018 60.6471C47.9329 60.8698 49.1995 60.9831 50.4655 60.9831C51.7354 60.9831 53.0013 60.8698 54.2291 60.6471C54.6593 60.5691 54.9725 60.1951 54.9725 59.7591V56.4744C56.3716 56.0964 57.7118 55.543 58.973 54.823L61.3035 57.1451C61.6133 57.4537 62.1004 57.4971 62.4603 57.2484C64.5452 55.807 66.3357 54.023 67.7823 51.9457C68.0319 51.587 67.9884 51.1017 67.6786 50.793L65.3482 48.471C66.0728 47.2123 66.6295 45.8763 67.0088 44.4849H70.3061C70.7451 44.4849 71.1204 44.1716 71.1981 43.7409C71.4189 42.5082 71.5313 41.2469 71.5313 39.9935C71.5313 38.7375 71.4189 37.4762 71.1981 36.2428C71.1211 35.8122 70.7451 35.4988 70.3061 35.4988H67.0088C66.6295 34.1068 66.0728 32.7715 65.3482 31.5128L67.6786 29.1908C67.9884 28.8821 68.0319 28.3961 67.7817 28.0374C66.3357 25.9641 64.5452 24.1807 62.461 22.736C62.101 22.4867 61.6133 22.53 61.3035 22.8387L58.9723 25.1614C57.7064 24.4401 56.3662 23.886 54.9725 23.5094V20.2247C54.9725 19.7873 54.658 19.4133 54.2264 19.336C52.9793 19.1133 51.714 19 50.4655 19C49.2203 19 47.955 19.1127 46.7045 19.3353C46.2722 19.412 45.9578 19.7867 45.9578 20.224V23.5094C44.5634 23.8867 43.2232 24.4407 41.9579 25.1614L39.6268 22.8387C39.3163 22.53 38.8292 22.4867 38.4692 22.736C36.385 24.1807 34.5945 25.9641 33.1486 28.0374C32.8984 28.3961 32.9419 28.8821 33.2516 29.1908L35.5821 31.5128C34.8601 32.7681 34.3048 34.1042 33.9248 35.4988H30.6281C30.1905 35.4988 29.8152 35.8108 29.7369 36.2402C29.5134 37.4662 29.3997 38.7295 29.3997 39.9935C29.3997 41.2556 29.5134 42.5169 29.7369 43.7436C29.8152 44.1729 30.1899 44.4849 30.6281 44.4849ZM31.3996 37.3042H34.6333C35.0569 37.3042 35.4235 37.0122 35.5165 36.6008C35.8993 34.9155 36.563 33.3188 37.4897 31.8555C37.7152 31.4988 37.663 31.0341 37.3639 30.7355L35.0789 28.4588C36.1676 27.0201 37.4455 25.7461 38.8921 24.6594L41.1771 26.9361C41.4762 27.2334 41.9419 27.2861 42.2998 27.0621C43.7785 26.1367 45.3817 25.4747 47.0638 25.0954C47.4766 25.0021 47.7697 24.6367 47.7697 24.2154V20.9954C49.5722 20.744 51.3667 20.7447 53.1606 20.9954V24.2161C53.1606 24.6381 53.4536 25.0034 53.8671 25.0967C55.5479 25.4747 57.1504 26.1367 58.6311 27.0634C58.9884 27.2874 59.4548 27.2354 59.7538 26.9374L62.0388 24.6607C63.4854 25.7474 64.7634 27.0214 65.852 28.4601L63.5663 30.7368C63.2673 31.0348 63.2151 31.5001 63.4406 31.8568C64.3706 33.3261 65.0357 34.9235 65.4171 36.6022C65.5107 37.0135 65.8774 37.3055 66.3003 37.3055H69.532C69.6558 38.1949 69.7187 39.0969 69.7187 39.9949C69.7187 40.8909 69.6565 41.7916 69.532 42.6809H66.3003C65.8767 42.6809 65.5101 42.9729 65.4171 43.3842C65.0357 45.0636 64.3706 46.6603 63.4406 48.1303C63.2151 48.487 63.2673 48.9516 63.5663 49.2503L65.852 51.5277C64.7634 52.9683 63.4854 54.2424 62.0388 55.327L59.7532 53.0497C59.4541 52.7517 58.9871 52.6997 58.6291 52.9243C57.1584 53.8484 55.5559 54.5104 53.8665 54.8904C53.4536 54.9837 53.1599 55.349 53.1599 55.771V58.9931C51.3901 59.2417 49.5475 59.2424 47.769 58.9931V55.771C47.769 55.349 47.4759 54.9837 47.0631 54.891C45.3716 54.5097 43.7692 53.8484 42.3005 52.925C41.9425 52.7003 41.4762 52.7523 41.1764 53.0503L38.8908 55.3277C37.4449 54.2437 36.1662 52.9697 35.0776 51.5283L37.3632 49.251C37.6623 48.953 37.7145 48.4876 37.489 48.131C36.5623 46.6676 35.8986 45.0709 35.5159 43.3849C35.4222 42.9736 35.0555 42.6816 34.6327 42.6816H31.3989C31.2738 41.7969 31.2109 40.8969 31.2109 39.9955C31.2109 39.0909 31.2745 38.1889 31.3996 37.3042ZM73.0969 64.3778C71.7025 63.4685 70.0439 63.4158 68.4273 64.2298L57.0821 69.9372C56.866 68.4785 55.9166 67.1858 54.4834 66.5651L39.59 60.1077C37.7272 59.3011 35.7688 59.3297 33.9261 60.1917L27.5195 63.1904V61.8524C27.5195 61.3538 27.114 60.9498 26.6135 60.9498H18.276C17.7755 60.9498 17.37 61.3538 17.37 61.8524V82.6886C17.37 83.1873 17.7755 83.5913 18.276 83.5913H26.6122C27.1127 83.5913 27.5182 83.1873 27.5182 82.6886V80.46L35.1024 78.2513L42.7468 83.704C43.9538 84.564 45.3342 85 46.7279 85C47.7817 85 48.8429 84.7507 49.8432 84.2467L72.735 72.7325C74.3114 71.9392 75.2695 70.5359 75.3625 68.8812C75.4615 67.1078 74.5723 65.3405 73.0969 64.3778ZM25.7063 81.786H19.1819V62.7551H25.7063V81.786ZM73.5533 68.7805C73.5131 69.4932 73.1966 70.4785 71.9187 71.1219L49.0256 82.636C47.2893 83.5107 45.3843 83.3646 43.7999 82.236L35.7982 76.5286C35.5721 76.3672 35.2837 76.3186 35.0167 76.3959L27.5182 78.5793V65.1845L34.6949 61.8258C36.0719 61.1818 37.4756 61.1611 38.8667 61.7631L53.7601 68.2198C54.9062 68.7172 55.5419 70.0045 55.2381 71.2145C55.2368 71.2199 55.2361 71.2259 55.2354 71.2319C55.0494 71.9512 54.5523 72.5559 53.8685 72.8925C53.182 73.2305 52.3904 73.2519 51.6959 72.9519L39.2595 67.5618L38.5368 69.2172L50.9733 74.6072C51.5293 74.8479 52.1215 74.9679 52.7143 74.9679C53.3827 74.9679 54.0525 74.8152 54.6701 74.5106C55.7051 74.0006 56.4887 73.1232 56.87 72.0652L69.2436 65.8405C70.5443 65.1858 71.5172 65.5051 72.1047 65.8878C73.034 66.4945 73.6162 67.6565 73.5533 68.7805ZM50.4648 51.369C56.7596 51.369 61.8816 46.2663 61.8816 39.9935C61.8816 33.7188 56.7603 28.6148 50.4648 28.6148C44.1693 28.6148 39.048 33.7195 39.048 39.9935C39.048 46.2656 44.1699 51.369 50.4648 51.369ZM50.4648 30.4201C55.7607 30.4201 60.0697 34.7148 60.0697 39.9942C60.0697 45.2709 55.7607 49.5643 50.4648 49.5643C45.1689 49.5643 40.8599 45.2709 40.8599 39.9942C40.8599 34.7148 45.1689 30.4201 50.4648 30.4201ZM50.4648 37.5455C49.1119 37.5455 48.0112 38.6442 48.0112 39.9942C48.0112 41.3422 49.1119 42.4389 50.4648 42.4389C51.8197 42.4389 52.9217 41.3422 52.9217 39.9942C52.9217 39.6495 52.8488 39.3215 52.719 39.0235L57.0032 34.7575L55.7199 33.4788L55.0816 34.1182L51.439 37.7475C51.1406 37.6175 50.8114 37.5455 50.4648 37.5455ZM50.4648 40.6329C50.1108 40.6329 49.8231 40.3462 49.8231 39.9935C49.8231 39.6389 50.1108 39.3502 50.4648 39.3502C50.8207 39.3502 51.1105 39.6389 51.1105 39.9935C51.1105 40.3462 50.8207 40.6329 50.4648 40.6329ZM44.5714 45.8656C43.0606 44.3636 42.1292 42.2842 42.1292 39.9935C42.1292 37.6989 43.0606 35.6195 44.5714 34.1175C46.0789 32.6121 48.1618 31.6841 50.4648 31.6841C51.7776 31.6841 53.0174 31.9835 54.1214 32.5208L52.7424 33.8948C52.0345 33.6315 51.2684 33.4895 50.4648 33.4895C48.6643 33.4895 47.0323 34.2168 45.8514 35.3935C44.6704 36.5702 43.9371 38.1962 43.9371 39.9942C43.9371 41.7882 44.6704 43.4142 45.8514 44.5909C47.0323 45.7676 48.6643 46.4949 50.4648 46.4949V48.3003C48.1618 48.2996 46.0789 47.3716 44.5714 45.8656Z" fill="#1B4476"/>
    <path d="M30.6281 44.4849H33.9248C34.3048 45.8796 34.8601 47.2156 35.5821 48.471L33.2516 50.793C32.9419 51.1017 32.8984 51.587 33.1479 51.9457C34.5945 54.023 36.385 55.807 38.4699 57.2484C38.8299 57.4971 39.317 57.4537 39.6268 57.1451L41.9572 54.8224C43.2171 55.5417 44.558 56.095 45.9578 56.4737V59.7591C45.9578 60.1951 46.2709 60.5691 46.7018 60.6471C47.9329 60.8698 49.1995 60.9831 50.4655 60.9831C51.7354 60.9831 53.0013 60.8698 54.2291 60.6471C54.6593 60.5691 54.9725 60.1951 54.9725 59.7591V56.4744C56.3716 56.0964 57.7118 55.543 58.973 54.823L61.3035 57.1451C61.6133 57.4537 62.1004 57.4971 62.4603 57.2484C64.5452 55.807 66.3357 54.023 67.7823 51.9457C68.0319 51.587 67.9884 51.1017 67.6786 50.793L65.3482 48.471C66.0728 47.2123 66.6295 45.8763 67.0088 44.4849H70.3061C70.7451 44.4849 71.1204 44.1716 71.1981 43.7409C71.4189 42.5082 71.5313 41.2469 71.5313 39.9935C71.5313 38.7375 71.4189 37.4762 71.1981 36.2428C71.1211 35.8122 70.7451 35.4988 70.3061 35.4988H67.0088C66.6295 34.1068 66.0728 32.7715 65.3482 31.5128L67.6786 29.1908C67.9884 28.8821 68.0319 28.3961 67.7817 28.0374C66.3357 25.9641 64.5452 24.1807 62.461 22.736C62.101 22.4867 61.6133 22.53 61.3035 22.8387L58.9723 25.1614C57.7064 24.4401 56.3662 23.886 54.9725 23.5094V20.2247C54.9725 19.7873 54.658 19.4133 54.2264 19.336C52.9793 19.1133 51.714 19 50.4655 19C49.2203 19 47.955 19.1127 46.7045 19.3353C46.2722 19.412 45.9578 19.7867 45.9578 20.224V23.5094C44.5634 23.8867 43.2232 24.4407 41.9579 25.1614L39.6268 22.8387C39.3163 22.53 38.8292 22.4867 38.4692 22.736C36.385 24.1807 34.5945 25.9641 33.1486 28.0374C32.8984 28.3961 32.9419 28.8821 33.2516 29.1908L35.5821 31.5128C34.8601 32.7681 34.3048 34.1042 33.9248 35.4988H30.6281C30.1905 35.4988 29.8152 35.8108 29.7369 36.2402C29.5134 37.4662 29.3997 38.7295 29.3997 39.9935C29.3997 41.2556 29.5134 42.5169 29.7369 43.7436C29.8152 44.1729 30.1899 44.4849 30.6281 44.4849ZM31.3996 37.3042H34.6333C35.0569 37.3042 35.4235 37.0122 35.5165 36.6008C35.8993 34.9155 36.563 33.3188 37.4897 31.8555C37.7152 31.4988 37.663 31.0341 37.3639 30.7355L35.0789 28.4588C36.1676 27.0201 37.4455 25.7461 38.8921 24.6594L41.1771 26.9361C41.4762 27.2334 41.9419 27.2861 42.2998 27.0621C43.7785 26.1367 45.3817 25.4747 47.0638 25.0954C47.4766 25.0021 47.7697 24.6367 47.7697 24.2154V20.9954C49.5722 20.744 51.3667 20.7447 53.1606 20.9954V24.2161C53.1606 24.6381 53.4536 25.0034 53.8671 25.0967C55.5479 25.4747 57.1504 26.1367 58.6311 27.0634C58.9884 27.2874 59.4548 27.2354 59.7538 26.9374L62.0388 24.6607C63.4854 25.7474 64.7634 27.0214 65.852 28.4601L63.5663 30.7368C63.2673 31.0348 63.2151 31.5001 63.4406 31.8568C64.3706 33.3261 65.0357 34.9235 65.4171 36.6022C65.5107 37.0135 65.8774 37.3055 66.3003 37.3055H69.532C69.6558 38.1949 69.7187 39.0969 69.7187 39.9949C69.7187 40.8909 69.6565 41.7916 69.532 42.6809H66.3003C65.8767 42.6809 65.5101 42.9729 65.4171 43.3842C65.0357 45.0636 64.3706 46.6603 63.4406 48.1303C63.2151 48.487 63.2673 48.9516 63.5663 49.2503L65.852 51.5277C64.7634 52.9683 63.4854 54.2424 62.0388 55.327L59.7532 53.0497C59.4541 52.7517 58.9871 52.6997 58.6291 52.9243C57.1584 53.8484 55.5559 54.5104 53.8665 54.8904C53.4536 54.9837 53.1599 55.349 53.1599 55.771V58.9931C51.3901 59.2417 49.5475 59.2424 47.769 58.9931V55.771C47.769 55.349 47.4759 54.9837 47.0631 54.891C45.3716 54.5097 43.7692 53.8484 42.3005 52.925C41.9425 52.7003 41.4762 52.7523 41.1764 53.0503L38.8908 55.3277C37.4449 54.2437 36.1662 52.9697 35.0776 51.5283L37.3632 49.251C37.6623 48.953 37.7145 48.4876 37.489 48.131C36.5623 46.6676 35.8986 45.0709 35.5159 43.3849C35.4222 42.9736 35.0555 42.6816 34.6327 42.6816H31.3989C31.2738 41.7969 31.2109 40.8969 31.2109 39.9955C31.2109 39.0909 31.2745 38.1889 31.3996 37.3042ZM73.0969 64.3778C71.7025 63.4685 70.0439 63.4158 68.4273 64.2298L57.0821 69.9372C56.866 68.4785 55.9166 67.1858 54.4834 66.5651L39.59 60.1077C37.7272 59.3011 35.7688 59.3297 33.9261 60.1917L27.5195 63.1904V61.8524C27.5195 61.3538 27.114 60.9498 26.6135 60.9498H18.276C17.7755 60.9498 17.37 61.3538 17.37 61.8524V82.6886C17.37 83.1873 17.7755 83.5913 18.276 83.5913H26.6122C27.1127 83.5913 27.5182 83.1873 27.5182 82.6886V80.46L35.1024 78.2513L42.7468 83.704C43.9538 84.564 45.3342 85 46.7279 85C47.7817 85 48.8429 84.7507 49.8432 84.2467L72.735 72.7325C74.3114 71.9392 75.2695 70.5359 75.3625 68.8812C75.4615 67.1078 74.5723 65.3405 73.0969 64.3778ZM25.7063 81.786H19.1819V62.7551H25.7063V81.786ZM73.5533 68.7805C73.5131 69.4932 73.1966 70.4785 71.9187 71.1219L49.0256 82.636C47.2893 83.5107 45.3843 83.3646 43.7999 82.236L35.7982 76.5286C35.5721 76.3672 35.2837 76.3186 35.0167 76.3959L27.5182 78.5793V65.1845L34.6949 61.8258C36.0719 61.1818 37.4756 61.1611 38.8667 61.7631L53.7601 68.2198C54.9062 68.7172 55.5419 70.0045 55.2381 71.2145C55.2368 71.2199 55.2361 71.2259 55.2354 71.2319C55.0494 71.9512 54.5523 72.5559 53.8685 72.8925C53.182 73.2305 52.3904 73.2519 51.6959 72.9519L39.2595 67.5618L38.5368 69.2172L50.9733 74.6072C51.5293 74.8479 52.1215 74.9679 52.7143 74.9679C53.3827 74.9679 54.0525 74.8152 54.6701 74.5106C55.7051 74.0006 56.4887 73.1232 56.87 72.0652L69.2436 65.8405C70.5443 65.1858 71.5172 65.5051 72.1047 65.8878C73.034 66.4945 73.6162 67.6565 73.5533 68.7805ZM50.4648 51.369C56.7596 51.369 61.8816 46.2663 61.8816 39.9935C61.8816 33.7188 56.7603 28.6148 50.4648 28.6148C44.1693 28.6148 39.048 33.7195 39.048 39.9935C39.048 46.2656 44.1699 51.369 50.4648 51.369ZM50.4648 30.4201C55.7607 30.4201 60.0697 34.7148 60.0697 39.9942C60.0697 45.2709 55.7607 49.5643 50.4648 49.5643C45.1689 49.5643 40.8599 45.2709 40.8599 39.9942C40.8599 34.7148 45.1689 30.4201 50.4648 30.4201ZM50.4648 37.5455C49.1119 37.5455 48.0112 38.6442 48.0112 39.9942C48.0112 41.3422 49.1119 42.4389 50.4648 42.4389C51.8197 42.4389 52.9217 41.3422 52.9217 39.9942C52.9217 39.6495 52.8488 39.3215 52.719 39.0235L57.0032 34.7575L55.7199 33.4788L55.0816 34.1182L51.439 37.7475C51.1406 37.6175 50.8114 37.5455 50.4648 37.5455ZM50.4648 40.6329C50.1108 40.6329 49.8231 40.3462 49.8231 39.9935C49.8231 39.6389 50.1108 39.3502 50.4648 39.3502C50.8207 39.3502 51.1105 39.6389 51.1105 39.9935C51.1105 40.3462 50.8207 40.6329 50.4648 40.6329ZM44.5714 45.8656C43.0606 44.3636 42.1292 42.2842 42.1292 39.9935C42.1292 37.6989 43.0606 35.6195 44.5714 34.1175C46.0789 32.6121 48.1618 31.6841 50.4648 31.6841C51.7776 31.6841 53.0174 31.9835 54.1214 32.5208L52.7424 33.8948C52.0345 33.6315 51.2684 33.4895 50.4648 33.4895C48.6643 33.4895 47.0323 34.2168 45.8514 35.3935C44.6704 36.5702 43.9371 38.1962 43.9371 39.9942C43.9371 41.7882 44.6704 43.4142 45.8514 44.5909C47.0323 45.7676 48.6643 46.4949 50.4648 46.4949V48.3003C48.1618 48.2996 46.0789 47.3716 44.5714 45.8656Z" stroke="#1B4476" stroke-width="2" mask="url(#path-2-outside-1_1_271)"/>
  </g>
  <defs>
    <clipPath id="clip0_1_271">
      <rect width="92.874" height="104.72" fill="white" transform="translate(0.369995)"/>
    </clipPath>
  </defs>
</svg>
