<svg width="93" height="105" viewBox="0 0 93 105" fill="none" xmlns="http://www.w3.org/2000/svg">
  <g clip-path="url(#clip0_7_431)">
    <path d="M87.873 80.391L50.173 102.157C49.0715 102.792 47.8222 103.127 46.5505 103.127C45.2789 103.127 44.0296 102.792 42.928 102.157L5.23704 80.391C4.13658 79.7547 3.22287 78.8401 2.58764 77.739C1.95242 76.6379 1.61803 75.3891 1.61804 74.118V30.591C1.61768 29.3195 1.9519 28.0702 2.58715 26.9688C3.22239 25.8673 4.13629 24.9524 5.23704 24.316L42.932 2.56097C44.0336 1.92548 45.2829 1.59094 46.5545 1.59094C47.8262 1.59094 49.0755 1.92548 50.177 2.56097L87.877 24.327C88.9778 24.9634 89.8917 25.8783 90.5269 26.9798C91.1622 28.0812 91.4964 29.3305 91.496 30.602V74.126C91.4964 75.3975 91.1622 76.6467 90.5269 77.7482C89.8917 78.8496 88.9778 79.7645 87.877 80.401L87.873 80.391Z" stroke="#1B4476" stroke-width="3" stroke-miterlimit="10"/>
    <path d="M46.5403 80.3748C45.7117 80.3685 44.9053 80.1073 44.2303 79.6268C42.5514 80.1212 40.8104 80.3731 39.0603 80.3748C38.7685 80.3748 38.4887 80.2589 38.2825 80.0527C38.0762 79.8464 37.9603 79.5666 37.9603 79.2748V64.5239C37.9603 64.2322 38.0762 63.9524 38.2825 63.7461C38.4887 63.5398 38.7685 63.4239 39.0603 63.4239C39.352 63.4239 39.6318 63.5398 39.8381 63.7461C40.0444 63.9524 40.1603 64.2322 40.1603 64.5239V78.1308C41.5042 78.0446 42.8314 77.7858 44.1093 77.3608C44.2974 77.2983 44.4989 77.2878 44.6926 77.3304C44.8862 77.373 45.0647 77.4671 45.2093 77.6028C45.5628 77.9576 46.0395 78.1625 46.5403 78.1748C47.2056 78.0692 47.8107 77.7277 48.2449 77.2126C48.6792 76.6976 48.9136 76.0435 48.9052 75.3699C48.9196 75.2161 48.9663 75.0671 49.0421 74.9325C49.1179 74.7979 49.2212 74.6809 49.3452 74.5889C49.7962 74.2589 50.2582 73.8739 50.8302 73.3679C50.977 73.2359 51.1565 73.1458 51.3501 73.1071C51.5436 73.0684 51.744 73.0825 51.9302 73.1479C52.1207 73.2163 52.3219 73.2498 52.5242 73.2469C53.8112 73.2469 54.9112 71.7839 54.9112 70.0569C54.9091 69.7276 54.8723 69.3994 54.8012 69.0779C54.7878 69.0178 54.7695 68.9589 54.7462 68.9019C54.14 68.5838 53.6107 68.137 53.1952 67.5929C52.889 67.1974 52.6271 66.7695 52.4142 66.3169C52.3211 66.1203 52.2883 65.9004 52.32 65.6852C52.3518 65.4699 52.4467 65.269 52.5927 65.1076C52.7387 64.9463 52.9293 64.8319 53.1403 64.7789C53.3513 64.7259 53.5733 64.7367 53.7782 64.8099C54.597 65.0996 55.3176 65.6143 55.8572 66.2949C56.0495 66.5376 56.2224 66.795 56.3742 67.0649H56.5172C57.8152 67.0649 58.9152 65.6019 58.9152 63.8639C58.925 63.0771 58.6863 62.3072 58.2332 61.6639C58.1368 61.5369 58.0692 61.3904 58.035 61.2347C58.0008 61.0789 58.0009 60.9176 58.0352 60.7619L58.1232 60.3329C58.2112 59.9699 58.2992 59.6069 58.3542 59.2329C58.386 59.0346 58.4715 58.8487 58.6014 58.6955C58.7313 58.5424 58.9007 58.4277 59.0912 58.3639C59.6725 58.0939 60.1583 57.6539 60.4843 57.102C60.8103 56.5502 60.9613 55.9124 60.9172 55.2729C60.9371 54.4283 60.6608 53.6033 60.1362 52.9409C59.9344 52.6853 59.6839 52.4722 59.3992 52.3139C59.2277 52.2175 59.0851 52.0768 58.9865 51.9066C58.8878 51.7363 58.8366 51.5427 58.8382 51.3459V51.2029C58.8382 51.1149 58.8382 51.0269 58.8382 50.9389C58.8359 50.6704 58.932 50.4102 59.1083 50.2076C59.2846 50.005 59.5289 49.8738 59.7952 49.8389C60.9942 49.6849 61.9292 48.2879 61.9292 46.6709C61.9405 45.826 61.6696 45.0014 61.1592 44.328C60.9623 44.0611 60.7054 43.8444 60.4092 43.6954C60.113 43.5463 59.7858 43.4691 59.4542 43.47C59.2882 43.6435 59.1038 43.7984 58.9042 43.932C58.4625 44.2516 57.9613 44.4797 57.4302 44.603C57.2079 44.6528 56.9757 44.6324 56.7655 44.5445C56.5553 44.4567 56.3775 44.3058 56.2568 44.1126C56.1361 43.9194 56.0783 43.6935 56.0914 43.4661C56.1046 43.2387 56.188 43.0209 56.3302 42.843C56.6911 42.3991 57.1312 42.0261 57.6282 41.743C57.8363 41.6222 58.0578 41.5262 58.2882 41.457C58.7349 40.8117 58.9659 40.0416 58.9482 39.257C58.9688 38.4088 58.6926 37.5801 58.1672 36.914C58.0075 36.6779 57.7975 36.4801 57.5525 36.3346C57.3074 36.189 57.0332 36.0994 56.7495 36.0721C56.4658 36.0448 56.1796 36.0804 55.9112 36.1765C55.6429 36.2726 55.3991 36.4268 55.1972 36.628C55.0823 36.7372 54.9452 36.8202 54.7952 36.8715C54.6452 36.9228 54.4859 36.941 54.3282 36.925C54.1698 36.9082 54.017 36.8572 53.8802 36.7755C53.7435 36.6938 53.6261 36.5835 53.5362 36.452C53.3932 36.232 53.2282 36.045 53.0632 35.836L52.8432 35.693C52.7186 35.5419 52.6366 35.3603 52.6057 35.1669C52.5747 34.9735 52.596 34.7754 52.6672 34.593C52.9074 33.9773 52.986 33.3104 52.8955 32.6557C52.805 32.0011 52.5484 31.3805 52.1502 30.853C51.9766 30.6028 51.747 30.3965 51.4797 30.2506C51.2123 30.1047 50.9147 30.0232 50.6103 30.0125C50.3059 30.0018 50.0033 30.0623 49.7264 30.1891C49.4495 30.3159 49.206 30.5056 49.0152 30.743C48.8499 31.5934 48.4925 32.3948 47.9702 33.086C47.8309 33.2896 47.6271 33.4404 47.3917 33.5142C47.1563 33.588 46.9029 33.5805 46.6723 33.493C46.4492 33.3984 46.2636 33.2329 46.1442 33.0221C46.0249 32.8112 45.9785 32.5669 46.0123 32.327C46.1327 31.4727 46.4448 30.6566 46.9253 29.94C46.9253 29.819 46.9253 29.698 46.9253 29.577C46.9366 28.7321 46.6656 27.9075 46.1553 27.234C45.9709 26.9774 45.7281 26.7683 45.4469 26.6241C45.1657 26.4799 44.8543 26.4046 44.5383 26.4046C44.2223 26.4046 43.9108 26.4799 43.6296 26.6241C43.3484 26.7683 43.1056 26.9774 42.9213 27.234C42.6789 27.5398 42.4927 27.8862 42.3713 28.257C42.2887 28.5027 42.1221 28.7114 41.9007 28.8462C41.6793 28.9811 41.4175 29.0334 41.1613 28.994C40.8313 28.994 40.4903 28.906 40.1493 28.873V39.972C40.1493 40.2637 40.0334 40.5435 39.8271 40.7498C39.6208 40.9561 39.341 41.072 39.0493 41.072C38.7575 41.072 38.4777 40.9561 38.2715 40.7498C38.0652 40.5435 37.9493 40.2637 37.9493 39.972V27.674C37.9493 27.3823 38.0652 27.1025 38.2715 26.8962C38.4777 26.6899 38.7575 26.574 39.0493 26.574C39.5819 26.5717 40.1143 26.5974 40.6443 26.651C40.8105 26.3443 41.0097 26.0566 41.2383 25.793C41.6271 25.2848 42.126 24.8714 42.6976 24.5837C43.2691 24.296 43.8985 24.1416 44.5383 24.132C45.1782 24.1469 45.8067 24.3047 46.3777 24.594C46.9488 24.8833 47.4478 25.2968 47.8382 25.804C48.3791 26.4824 48.7556 27.2768 48.9382 28.125C49.7886 27.7939 50.7235 27.7479 51.6023 27.9939C52.4811 28.2399 53.2563 28.7646 53.8112 29.489C54.6541 30.5432 55.1051 31.8573 55.0872 33.207C55.0862 33.5535 55.0567 33.8993 54.9992 34.241C55.8451 33.9345 56.7665 33.9047 57.6305 34.1558C58.4944 34.4068 59.2563 34.9259 59.8062 35.638C60.6444 36.6984 61.0911 38.0155 61.0712 39.367C61.08 40.1178 60.9495 40.8637 60.6862 41.567C61.5196 41.8461 62.2535 42.3622 62.7982 43.052C63.6317 44.0838 64.0928 45.3666 64.1072 46.6929C64.1336 47.6191 63.9292 48.5374 63.5126 49.365C63.0959 50.1925 62.4799 50.9035 61.7202 51.4339L61.8412 51.5769C62.6841 52.6312 63.1351 53.9452 63.1172 55.2949C63.1491 56.2819 62.9147 57.2594 62.4386 58.1245C61.9624 58.9897 61.2621 59.7108 60.4112 60.2119L60.2792 60.7949C60.833 61.7304 61.1219 62.7988 61.1152 63.8859C61.189 65.1158 60.822 66.3319 60.0802 67.3157C59.3383 68.2994 58.2701 68.9866 57.0672 69.2539C57.1012 69.5129 57.1196 69.7737 57.1222 70.0349C57.1222 73.0049 55.0652 75.4249 52.5352 75.4249C52.3085 75.4475 52.08 75.4475 51.8532 75.4249L51.0282 76.1068C50.9011 77.2323 50.3816 78.277 49.5609 79.0575C48.7401 79.838 47.6707 80.3044 46.5403 80.3748Z" fill="#1B4476"/>
    <path d="M39.0603 80.3748C37.31 80.3754 35.5687 80.1235 33.8903 79.6268C33.2137 80.1041 32.4083 80.3649 31.5803 80.3748C30.4429 80.3057 29.3668 79.8357 28.5431 79.0483C27.7194 78.2608 27.2015 77.207 27.0813 76.0738C26.8173 75.8648 26.5423 75.6448 26.2563 75.3918C26.033 75.4089 25.8087 75.4089 25.5854 75.3918C23.0554 75.3918 20.9874 72.9718 20.9874 70.0018C20.9845 69.7368 21.0029 69.4719 21.0424 69.2098C19.8404 68.9449 18.7724 68.2599 18.0304 67.2779C17.2884 66.2959 16.921 65.0815 16.9944 63.8528C16.9874 62.7692 17.2765 61.7043 17.8304 60.7729C17.8304 60.5749 17.7314 60.3769 17.6984 60.1679C16.8574 59.6722 16.1635 58.9616 15.688 58.1091C15.2124 57.2566 14.9724 56.2928 14.9924 55.3169C14.975 53.9621 15.4301 52.6436 16.2794 51.5879L16.3894 51.4559C15.6286 50.9213 15.0123 50.2064 14.5957 49.3752C14.1792 48.5439 13.9753 47.6223 14.0024 46.6929C13.9794 45.3357 14.4306 44.013 15.2784 42.9529C15.6678 42.4453 16.1668 42.0323 16.7383 41.7447C17.3097 41.4571 17.9387 41.3023 18.5784 41.2919C18.7871 41.185 19.0246 41.1476 19.2562 41.1852C19.4877 41.2228 19.7012 41.3334 19.8654 41.5009C20.1123 41.5728 20.349 41.6763 20.5694 41.8089C21.0576 42.0911 21.4871 42.4646 21.8344 42.9089C21.9793 43.0892 22.0637 43.3107 22.0756 43.5417C22.0874 43.7728 22.0261 44.0017 21.9004 44.1959C21.7757 44.3908 21.5927 44.5415 21.3774 44.6264C21.1621 44.7113 20.9256 44.7262 20.7014 44.6689C20.1796 44.5383 19.687 44.3106 19.2494 43.9979C19.0515 43.8621 18.8673 43.7074 18.6994 43.5359H18.5894C18.2747 43.5448 17.9663 43.6258 17.6879 43.7726C17.4094 43.9195 17.1684 44.1283 16.9834 44.3829C16.4738 45.0448 16.199 45.8576 16.2024 46.6929C16.1404 47.3962 16.3265 48.0991 16.7283 48.6797C17.1301 49.2603 17.7223 49.6821 18.4024 49.8719C18.6667 49.9093 18.9084 50.0414 19.0824 50.2438C19.2565 50.4462 19.351 50.705 19.3484 50.9719V51.3789C19.3489 51.5768 19.2961 51.7711 19.1954 51.9415C19.0947 52.1119 18.95 52.2519 18.7764 52.3469C18.4966 52.4984 18.2498 52.7041 18.0504 52.9519C17.5236 53.6221 17.2438 54.4535 17.2584 55.3059C17.2128 55.9456 17.363 56.584 17.6892 57.1362C18.0154 57.6884 18.5021 58.1281 19.0844 58.3969C19.2749 58.4606 19.4442 58.5753 19.5742 58.7285C19.7041 58.8817 19.7896 59.0675 19.8214 59.2659C19.8214 59.6509 19.9644 60.0139 20.0524 60.3659L20.1514 60.7729C20.1859 60.931 20.185 61.0949 20.1489 61.2527C20.1128 61.4105 20.0422 61.5584 19.9424 61.6859C19.4808 62.325 19.2412 63.0977 19.2604 63.8858C19.2604 65.6238 20.3604 67.0868 21.6584 67.0868H21.7024C21.8546 66.8329 22.0198 66.5869 22.1974 66.3498C22.7435 65.6663 23.4663 65.1451 24.2874 64.8428C24.4896 64.7738 24.7075 64.765 24.9146 64.8178C25.1216 64.8705 25.3088 64.9824 25.4534 65.1398C25.6001 65.296 25.6981 65.4916 25.7352 65.7026C25.7723 65.9137 25.747 66.131 25.6623 66.3278C25.461 66.7876 25.2023 67.22 24.8924 67.6148C24.4653 68.1478 23.9289 68.5829 23.3194 68.8908L23.2534 69.0998C23.19 69.4112 23.1568 69.728 23.1544 70.0458C23.1544 71.7728 24.2544 73.2358 25.5524 73.2358C25.7512 73.2397 25.949 73.2061 26.1353 73.1368C26.3216 73.0714 26.522 73.0573 26.7155 73.0961C26.909 73.1348 27.0886 73.2248 27.2353 73.3568C27.7022 73.7847 28.1905 74.1885 28.6983 74.5668C28.8278 74.6578 28.9361 74.7757 29.0158 74.9124C29.0955 75.0491 29.1448 75.2013 29.1603 75.3588C29.147 76.0471 29.3893 76.7159 29.8403 77.236C30.2913 77.7561 30.9191 78.0906 31.6023 78.1748C32.1009 78.1528 32.5743 77.9494 32.9333 77.6028C33.0778 77.4671 33.2564 77.3729 33.45 77.3303C33.6436 77.2877 33.8452 77.2983 34.0333 77.3608C35.3159 77.7842 36.6461 78.0465 37.9933 78.1418V64.5128C37.9933 64.2211 38.1092 63.9413 38.3155 63.735C38.5218 63.5287 38.8016 63.4128 39.0933 63.4128C39.385 63.4128 39.6648 63.5287 39.8711 63.735C40.0774 63.9413 40.1933 64.2211 40.1933 64.5128V79.2748C40.1934 79.4221 40.1639 79.5679 40.1065 79.7035C40.0492 79.8392 39.9652 79.9619 39.8595 80.0645C39.7539 80.1671 39.6287 80.2474 39.4914 80.3007C39.3541 80.354 39.2075 80.3792 39.0603 80.3748Z" fill="#1B4476"/>
    <path d="M39.0603 41.0719C38.7686 41.0719 38.4888 40.956 38.2825 40.7497C38.0762 40.5434 37.9603 40.2637 37.9603 39.9719V28.807C37.6083 28.807 37.2673 28.873 36.9483 28.928C36.6935 28.968 36.4328 28.9172 36.2116 28.7845C35.9904 28.6518 35.8229 28.4456 35.7383 28.202C35.6157 27.835 35.4296 27.4924 35.1883 27.19C35.0055 26.9312 34.7632 26.7201 34.4818 26.5744C34.2004 26.4287 33.8882 26.3526 33.5713 26.3526C33.2545 26.3526 32.9423 26.4287 32.6609 26.5744C32.3795 26.7201 32.1372 26.9312 31.9544 27.19C31.4339 27.8587 31.1582 28.6856 31.1734 29.533C31.1672 29.6539 31.1672 29.775 31.1734 29.896C31.6554 30.6077 31.9677 31.4206 32.0864 32.2719C32.1227 32.5136 32.0775 32.7604 31.958 32.9735C31.8385 33.1867 31.6515 33.3539 31.4264 33.4489C31.2027 33.5433 30.9541 33.561 30.7193 33.4993C30.4845 33.4376 30.2768 33.3 30.1284 33.1079C29.5846 32.4106 29.2083 31.5977 29.0284 30.7319C28.8424 30.5145 28.6135 30.3378 28.3561 30.2129C28.0987 30.0879 27.8183 30.0175 27.5324 30.006C27.2161 30.0201 26.9069 30.1044 26.6272 30.2528C26.3475 30.4012 26.1044 30.6099 25.9154 30.8639C25.3917 31.5317 25.1123 32.3584 25.1234 33.2069C25.1409 33.685 25.2491 34.1553 25.4424 34.5929C25.5121 34.7763 25.5316 34.975 25.4987 35.1684C25.4658 35.3618 25.3818 35.5429 25.2554 35.6929L24.9804 36.0229C24.8463 36.1767 24.7214 36.3384 24.6064 36.5069C24.5165 36.6384 24.3991 36.7488 24.2624 36.8305C24.1256 36.9121 23.9728 36.9631 23.8144 36.9799C23.6575 36.9974 23.4987 36.9809 23.3487 36.9316C23.1988 36.8822 23.0612 36.8012 22.9454 36.6939C22.6063 36.3736 22.1675 36.1794 21.7024 36.1439C21.4106 36.1323 21.1355 36.0052 20.9375 35.7906C20.7394 35.5761 20.6347 35.2917 20.6464 34.9999C20.6581 34.7082 20.7851 34.433 20.9997 34.235C21.2142 34.037 21.4986 33.9323 21.7904 33.9439C22.243 33.9669 22.6889 34.0635 23.1104 34.2299C23.0533 33.8882 23.0239 33.5424 23.0224 33.1959C23.0105 31.842 23.4649 30.5253 24.3094 29.467C24.8581 28.738 25.6319 28.2103 26.5109 27.9657C27.3899 27.7211 28.325 27.7732 29.1714 28.114C29.3547 27.2627 29.731 26.4648 30.2714 25.782C30.6596 25.2732 31.1585 24.8593 31.7301 24.5716C32.3018 24.2838 32.9314 24.1297 33.5713 24.121C34.2108 24.1381 34.8386 24.297 35.4092 24.5861C35.9799 24.8753 36.4793 25.2875 36.8713 25.793C37.0859 26.0561 37.2738 26.3398 37.4323 26.64C37.9273 26.64 38.4663 26.574 39.0383 26.574C39.3301 26.574 39.6099 26.6899 39.8161 26.8961C40.0224 27.1024 40.1383 27.3822 40.1383 27.674V39.9719C40.1384 40.2599 40.0255 40.5364 39.824 40.7421C39.6224 40.9477 39.3482 41.0662 39.0603 41.0719Z" fill="#1B4476"/>
    <path d="M18.3034 38.9929C18.205 39.0089 18.1047 39.0089 18.0064 38.9929C17.8679 38.9481 17.7398 38.8763 17.6293 38.7817C17.5188 38.687 17.4282 38.5713 17.3627 38.4414C17.2973 38.3115 17.2582 38.1698 17.2478 38.0247C17.2375 37.8796 17.256 37.7339 17.3024 37.5959C17.4344 37.1013 17.6422 36.63 17.9184 36.1989C17.9924 36.0692 18.092 35.9559 18.2112 35.8659C18.3305 35.776 18.4667 35.7112 18.6118 35.6756C18.7569 35.6401 18.9076 35.6344 19.055 35.659C19.2023 35.6836 19.343 35.7379 19.4687 35.8187C19.5943 35.8995 19.7022 36.005 19.7857 36.1288C19.8692 36.2526 19.9267 36.3921 19.9545 36.5388C19.9824 36.6856 19.9801 36.8364 19.9477 36.9823C19.9154 37.1281 19.8537 37.2658 19.7664 37.3869C19.6163 37.639 19.4981 37.9088 19.4144 38.1899C19.3474 38.4298 19.2011 38.6398 18.9992 38.7857C18.7974 38.9315 18.5521 39.0046 18.3034 38.9929Z" fill="#1B4476"/>
    <path d="M65.2952 43.954H49.7303C49.4385 43.954 49.1587 43.8381 48.9525 43.6318C48.7462 43.4255 48.6303 43.1457 48.6303 42.854C48.6303 42.5622 48.7462 42.2824 48.9525 42.0761C49.1587 41.8699 49.4385 41.754 49.7303 41.754H64.1952V33.9C64.1952 33.6082 64.3111 33.3285 64.5174 33.1222C64.7237 32.9159 65.0035 32.8 65.2952 32.8C65.587 32.8 65.8668 32.9159 66.073 33.1222C66.2793 33.3285 66.3952 33.6082 66.3952 33.9V42.854C66.3952 43.1457 66.2793 43.4255 66.073 43.6318C65.8668 43.8381 65.587 43.954 65.2952 43.954Z" fill="#1B4476"/>
    <path d="M65.2952 70.6508C65.0035 70.6508 64.7237 70.535 64.5174 70.3287C64.3111 70.1224 64.1952 69.8426 64.1952 69.5509V61.6969H49.6753C49.3835 61.6969 49.1038 61.581 48.8975 61.3747C48.6912 61.1684 48.5753 60.8886 48.5753 60.5969C48.5753 60.3051 48.6912 60.0254 48.8975 59.8191C49.1038 59.6128 49.3835 59.4969 49.6753 59.4969H65.2952C65.587 59.4969 65.8668 59.6128 66.073 59.8191C66.2793 60.0254 66.3952 60.3051 66.3952 60.5969V69.5509C66.3952 69.8426 66.2793 70.1224 66.073 70.3287C65.8668 70.535 65.587 70.6508 65.2952 70.6508Z" fill="#1B4476"/>
    <path d="M70.0362 52.8309H67.9022C67.6105 52.8309 67.3307 52.715 67.1244 52.5087C66.9181 52.3024 66.8022 52.0227 66.8022 51.7309C66.8022 51.4392 66.9181 51.1594 67.1244 50.9531C67.3307 50.7468 67.6105 50.6309 67.9022 50.6309H70.0362C70.328 50.6309 70.6078 50.7468 70.814 50.9531C71.0203 51.1594 71.1362 51.4392 71.1362 51.7309C71.1362 52.0227 71.0203 52.3024 70.814 52.5087C70.6078 52.715 70.328 52.8309 70.0362 52.8309Z" fill="#1B4476"/>
    <path d="M63.5023 52.8309H43.2843C42.9926 52.8309 42.7128 52.715 42.5065 52.5087C42.3002 52.3024 42.1843 52.0227 42.1843 51.7309C42.1843 51.4392 42.3002 51.1594 42.5065 50.9531C42.7128 50.7468 42.9926 50.6309 43.2843 50.6309H63.5023C63.794 50.6309 64.0738 50.7468 64.2801 50.9531C64.4864 51.1594 64.6023 51.4392 64.6023 51.7309C64.6023 52.0227 64.4864 52.3024 64.2801 52.5087C64.0738 52.715 63.794 52.8309 63.5023 52.8309Z" fill="#1B4476"/>
    <path d="M65.2952 34.494C64.257 34.494 63.2421 34.186 62.379 33.6089C61.5159 33.0319 60.8434 32.2118 60.4466 31.2524C60.0498 30.293 59.9465 29.2374 60.1499 28.2193C60.3532 27.2012 60.854 26.2663 61.5889 25.5329C62.3239 24.7996 63.2598 24.3007 64.2783 24.0995C65.2969 23.8983 66.3522 24.0038 67.3108 24.4026C68.2694 24.8014 69.0881 25.4756 69.6633 26.3399C70.2385 27.2042 70.5444 28.2198 70.5422 29.258C70.5393 30.6477 69.9852 31.9794 69.0015 32.9611C68.0178 33.9427 66.6849 34.494 65.2952 34.494ZM65.2952 26.211C64.6926 26.211 64.1035 26.3897 63.6024 26.7245C63.1013 27.0593 62.7108 27.5352 62.4802 28.092C62.2496 28.6487 62.1892 29.2614 62.3068 29.8524C62.4243 30.4435 62.7145 30.9864 63.1407 31.4125C63.5668 31.8387 64.1097 32.1289 64.7008 32.2464C65.2918 32.364 65.9045 32.3037 66.4613 32.073C67.018 31.8424 67.4939 31.4519 67.8287 30.9508C68.1635 30.4497 68.3422 29.8606 68.3422 29.258C68.3422 28.4499 68.0212 27.6749 67.4498 27.1034C66.8783 26.532 66.1033 26.211 65.2952 26.211Z" fill="#1B4476"/>
    <path d="M74.7662 56.9669C73.7275 56.9691 72.7115 56.6629 71.847 56.0872C70.9824 55.5115 70.3082 54.6922 69.9097 53.733C69.5112 52.7737 69.4064 51.7178 69.6085 50.699C69.8106 49.6802 70.3105 48.7442 71.045 48.0098C71.7795 47.2753 72.7154 46.7754 73.7342 46.5732C74.7531 46.3711 75.809 46.476 76.7682 46.8745C77.7274 47.273 78.5467 47.9472 79.1224 48.8117C79.6982 49.6763 80.0043 50.6922 80.0021 51.7309C79.9992 53.1187 79.4466 54.4488 78.4653 55.4301C77.484 56.4114 76.1539 56.964 74.7662 56.9669ZM74.7662 48.6839C74.1631 48.6818 73.5729 48.8586 73.0703 49.1921C72.5678 49.5256 72.1756 50.0007 71.9433 50.5573C71.711 51.1138 71.6491 51.7268 71.7654 52.3186C71.8817 52.9104 72.171 53.4543 72.5967 53.8816C73.0224 54.3088 73.5653 54.6001 74.1567 54.7185C74.748 54.837 75.3612 54.7773 75.9186 54.547C76.476 54.3167 76.9526 53.9262 77.2879 53.4249C77.6232 52.9236 77.8021 52.334 77.8021 51.7309C77.8021 50.9247 77.4826 50.1514 76.9136 49.5803C76.3445 49.0092 75.5724 48.6869 74.7662 48.6839Z" fill="#1B4476"/>
    <path d="M65.2953 79.4398C64.2606 79.4376 63.2498 79.129 62.3904 78.5528C61.5311 77.9766 60.8617 77.1588 60.4667 76.2025C60.0718 75.2462 59.969 74.1943 60.1714 73.1796C60.3738 72.165 60.8723 71.233 61.6039 70.5014C62.3355 69.7698 63.2674 69.2714 64.2821 69.069C65.2967 68.8666 66.3486 68.9694 67.3049 69.3643C68.2612 69.7592 69.0791 70.4286 69.6552 71.288C70.2314 72.1474 70.5401 73.1582 70.5422 74.1928C70.5437 74.8823 70.409 75.5652 70.1458 76.2025C69.8826 76.8397 69.4962 77.4187 69.0087 77.9062C68.5211 78.3937 67.9422 78.7802 67.3049 79.0433C66.6677 79.3065 65.9847 79.4412 65.2953 79.4398ZM65.2953 71.1678C64.6948 71.17 64.1085 71.3502 63.6104 71.6856C63.1124 72.021 62.725 72.4966 62.4972 73.0521C62.2694 73.6077 62.2115 74.2184 62.3308 74.8069C62.4501 75.3954 62.7412 75.9353 63.1673 76.3583C63.5934 76.7814 64.1354 77.0686 64.7248 77.1836C65.3141 77.2986 65.9243 77.2362 66.4782 77.0045C67.0322 76.7727 67.5049 76.3818 67.8367 75.8813C68.1685 75.3809 68.3444 74.7933 68.3422 74.1928C68.3364 73.3885 68.0129 72.6191 67.4421 72.0525C66.8713 71.4858 66.0996 71.1678 65.2953 71.1678Z" fill="#1B4476"/>
    <path d="M40.9963 54.6349C40.3958 54.6349 39.8088 54.4569 39.3096 54.1233C38.8103 53.7897 38.4212 53.3155 38.1914 52.7607C37.9616 52.206 37.9015 51.5956 38.0186 51.0066C38.1358 50.4177 38.4249 49.8767 38.8495 49.4521C39.2741 49.0276 39.8151 48.7384 40.404 48.6213C40.9929 48.5041 41.6034 48.5642 42.1581 48.794C42.7129 49.0238 43.187 49.4129 43.5206 49.9122C43.8542 50.4115 44.0323 50.9985 44.0323 51.5989C44.0323 52.4041 43.7124 53.1763 43.1431 53.7457C42.5737 54.315 41.8015 54.6349 40.9963 54.6349ZM40.9963 50.7629C40.8309 50.7629 40.6693 50.812 40.5318 50.9038C40.3944 50.9957 40.2872 51.1262 40.2239 51.279C40.1607 51.4318 40.1441 51.5998 40.1764 51.762C40.2086 51.9242 40.2882 52.0731 40.4051 52.1901C40.5221 52.307 40.671 52.3866 40.8332 52.4189C40.9954 52.4511 41.1635 52.4346 41.3162 52.3713C41.469 52.308 41.5995 52.2009 41.6914 52.0634C41.7833 51.9259 41.8323 51.7643 41.8323 51.5989C41.8323 51.3772 41.7442 51.1646 41.5874 51.0078C41.4306 50.851 41.218 50.7629 40.9963 50.7629Z" fill="#1B4476"/>
    <path d="M47.4533 63.6769C46.8528 63.6769 46.2658 63.4988 45.7666 63.1652C45.2673 62.8316 44.8782 62.3575 44.6484 61.8027C44.4186 61.248 44.3585 60.6375 44.4756 60.0486C44.5927 59.4597 44.8819 58.9187 45.3065 58.4941C45.7311 58.0696 46.272 57.7804 46.861 57.6633C47.4499 57.5461 48.0603 57.6062 48.6151 57.836C49.1698 58.0658 49.644 58.4549 49.9776 58.9542C50.3112 59.4535 50.4892 60.0404 50.4892 60.6409C50.4863 61.4452 50.1656 62.2157 49.5968 62.7845C49.0281 63.3532 48.2576 63.674 47.4533 63.6769ZM47.4533 59.8049C47.2879 59.8049 47.1263 59.8539 46.9888 59.9458C46.8513 60.0377 46.7442 60.1682 46.6809 60.321C46.6176 60.4737 46.6011 60.6418 46.6333 60.804C46.6656 60.9662 46.7452 61.1151 46.8621 61.232C46.979 61.349 47.128 61.4286 47.2902 61.4608C47.4523 61.4931 47.6204 61.4765 47.7732 61.4133C47.9259 61.35 48.0565 61.2428 48.1484 61.1054C48.2402 60.9679 48.2893 60.8063 48.2893 60.6409C48.2893 60.4192 48.2012 60.2065 48.0444 60.0498C47.8876 59.893 47.675 59.8049 47.4533 59.8049Z" fill="#1B4476"/>
    <path d="M47.4533 45.5929C46.8528 45.5929 46.2658 45.4149 45.7666 45.0813C45.2673 44.7477 44.8782 44.2735 44.6484 43.7187C44.4186 43.164 44.3585 42.5536 44.4756 41.9646C44.5927 41.3757 44.8819 40.8347 45.3065 40.4102C45.7311 39.9856 46.272 39.6964 46.861 39.5793C47.4499 39.4621 48.0603 39.5222 48.6151 39.752C49.1698 39.9818 49.644 40.371 49.9776 40.8702C50.3112 41.3695 50.4892 41.9565 50.4892 42.5569C50.4863 43.3612 50.1656 44.1318 49.5968 44.7005C49.0281 45.2692 48.2576 45.59 47.4533 45.5929ZM47.4533 41.7209C47.2879 41.7209 47.1263 41.77 46.9888 41.8618C46.8513 41.9537 46.7442 42.0842 46.6809 42.237C46.6176 42.3898 46.6011 42.5579 46.6333 42.72C46.6656 42.8822 46.7452 43.0311 46.8621 43.1481C46.979 43.265 47.128 43.3446 47.2902 43.3769C47.4523 43.4091 47.6204 43.3926 47.7732 43.3293C47.9259 43.266 48.0565 43.1589 48.1484 43.0214C48.2402 42.8839 48.2893 42.7223 48.2893 42.5569C48.2893 42.4471 48.2676 42.3384 48.2256 42.237C48.1836 42.1356 48.122 42.0434 48.0444 41.9658C47.9668 41.8882 47.8746 41.8266 47.7732 41.7846C47.6718 41.7426 47.563 41.7209 47.4533 41.7209Z" fill="#1B4476"/>
  </g>
  <defs>
    <clipPath id="clip0_7_431">
      <rect width="92.874" height="104.72" fill="white" transform="translate(0.118042)"/>
    </clipPath>
  </defs>
</svg>
