<svg width="94" height="105" viewBox="0 0 94 105" fill="none" xmlns="http://www.w3.org/2000/svg">
  <g clip-path="url(#clip0_1_113)">
    <path d="M88.503 80.391L50.803 102.157C49.7015 102.792 48.4522 103.127 47.1805 103.127C45.9088 103.127 44.6595 102.792 43.558 102.157L5.86699 80.391C4.76653 79.7547 3.85282 78.8401 3.21759 77.739C2.58236 76.6379 2.24797 75.3891 2.24799 74.118V30.591C2.24762 29.3195 2.58184 28.0702 3.21709 26.9688C3.85233 25.8673 4.76623 24.9524 5.86699 24.316L43.562 2.56097C44.6635 1.92548 45.9128 1.59094 47.1845 1.59094C48.4562 1.59094 49.7055 1.92548 50.807 2.56097L88.507 24.327C89.6077 24.9634 90.5216 25.8783 91.1569 26.9798C91.7921 28.0812 92.1264 29.3305 92.126 30.602V74.126C92.1264 75.3975 91.7921 76.6467 91.1569 77.7482C90.5216 78.8496 89.6077 79.7645 88.507 80.401L88.503 80.391Z" stroke="#1B4476" stroke-width="3" stroke-miterlimit="10"/>
    <path d="M24.011 61C21.805 61 20.011 62.794 20.011 65C20.011 67.206 21.805 69 24.011 69C26.217 69 28.011 67.206 28.011 65C28.011 62.794 26.217 61 24.011 61ZM24.011 67C22.908 67 22.011 66.103 22.011 65C22.011 63.897 22.908 63 24.011 63C25.114 63 26.011 63.897 26.011 65C26.011 66.103 25.114 67 24.011 67Z" fill="#1B4476"/>
    <path d="M24.011 40C26.217 40 28.011 38.206 28.011 36C28.011 33.794 26.217 32 24.011 32C21.805 32 20.011 33.794 20.011 36C20.011 38.206 21.805 40 24.011 40ZM24.011 34C25.114 34 26.011 34.897 26.011 36C26.011 37.103 25.114 38 24.011 38C22.908 38 22.011 37.103 22.011 36C22.011 34.897 22.908 34 24.011 34Z" fill="#1B4476"/>
    <path d="M75.011 21H39.011C37.357 21 36.011 22.346 36.011 24V31H30.246C28.779 29.174 26.531 28 24.011 28C19.6 28 16.011 31.589 16.011 36C16.011 38.583 17.247 40.877 19.152 42.341L17.437 60.453C16.54 61.745 16.011 63.311 16.011 65C16.011 67.324 17.013 69.413 18.601 70.876L15.748 83H32.273L29.421 70.876C29.716 70.604 29.994 70.313 30.246 70H36.011V80C36.011 81.654 37.357 83 39.011 83H75.011C76.665 83 78.011 81.654 78.011 80V24C78.011 22.346 76.665 21 75.011 21ZM42.011 33C42.562 33 43.011 33.449 43.011 34V38C43.011 38.551 42.562 39 42.011 39H31.422C31.799 38.073 32.011 37.061 32.011 36C32.011 34.939 31.799 33.927 31.422 33H42.011ZM30.542 60L28.87 42.341C29.38 41.949 29.844 41.501 30.246 41H36.011V60H30.542ZM18.011 36C18.011 32.691 20.702 30 24.011 30C27.32 30 30.011 32.691 30.011 36C30.011 39.309 27.32 42 24.011 42C20.702 42 18.011 39.309 18.011 36ZM24.011 44C25.054 44 26.049 43.793 26.964 43.428L28.373 58.302C27.116 57.482 25.62 57 24.011 57C22.402 57 20.906 57.482 19.65 58.302L21.059 43.428C21.973 43.793 22.968 44 24.011 44ZM29.748 81H18.274L20.365 72.112C21.46 72.676 22.697 73 24.011 73C25.325 73 26.562 72.676 27.657 72.112L29.748 81ZM24.011 71C20.702 71 18.011 68.309 18.011 65C18.011 61.691 20.702 59 24.011 59C27.32 59 30.011 61.691 30.011 65C30.011 68.309 27.32 71 24.011 71ZM31.422 62H42.011C42.562 62 43.011 62.449 43.011 63V67C43.011 67.551 42.562 68 42.011 68H31.422C31.799 67.073 32.011 66.061 32.011 65C32.011 63.939 31.799 62.927 31.422 62ZM76.011 80C76.011 80.551 75.562 81 75.011 81H39.011C38.46 81 38.011 80.551 38.011 80V70H42.011C43.313 70 44.413 69.161 44.827 68H47.011V74H49.011V76H51.011V74H53.011V76H55.011V74H57.011V76H59.011V74H61.011V76H63.011V74H65.011V72H67.011V70H65.011V68H67.011V66H65.011V64H67.011V62H65.011V60H67.011V58H65.011V56H63.011V54H61.011V56H59.011V54H57.011V56H55.011V54H53.011V56H51.011V54H49.011V56H47.011V62H44.827C44.413 60.839 43.313 60 42.011 60H38.011V41H42.011C43.313 41 44.413 40.161 44.827 39H47.011V45H49.011V47H51.011V45H53.011V47H55.011V45H57.011V47H59.011V45H61.011V47H63.011V45H65.011V43H67.011V41H65.011V39H67.011V37H65.011V35H67.011V33H65.011V31H67.011V29H65.011V27H63.011V25H61.011V27H59.011V25H57.011V27H55.011V25H53.011V27H51.011V25H49.011V27H47.011V33H44.827C44.413 31.839 43.313 31 42.011 31H38.011V24C38.011 23.449 38.46 23 39.011 23H75.011C75.562 23 76.011 23.449 76.011 24V80ZM45.011 64H49.182C50.364 64 51.493 64.35 52.45 65C51.493 65.65 50.365 66 49.182 66H45.011V64ZM63.011 58V72H49.011V68H49.182C49.807 68 50.418 67.919 51.011 67.777V70H61.011V60H51.011V62.223C50.418 62.081 49.807 62 49.182 62H49.011V58H63.011ZM53.011 66.997C53.628 66.65 54.204 66.222 54.718 65.707L55.425 65L54.718 64.293C54.204 63.779 53.628 63.351 53.011 63.003V62H59.011V68H53.011V66.997ZM45.011 35H49.182C50.364 35 51.493 35.35 52.45 36C51.493 36.65 50.365 37 49.182 37H45.011V35ZM63.011 29V43H49.011V39H49.182C49.807 39 50.418 38.919 51.011 38.777V41H61.011V31H51.011V33.223C50.418 33.081 49.807 33 49.182 33H49.011V29H63.011ZM53.011 37.997C53.628 37.65 54.204 37.222 54.718 36.707L55.425 36L54.718 35.293C54.204 34.779 53.628 34.351 53.011 34.003V33H59.011V39H53.011V37.997Z" fill="#1B4476"/>
  </g>
  <defs>
    <clipPath id="clip0_1_113">
      <rect width="92.874" height="104.72" fill="white" transform="translate(0.747986)"/>
    </clipPath>
  </defs>
</svg>
