<?xml version="1.0" encoding="UTF-8"?>
<svg id="a" viewBox="0 0 243.43 270.09" xmlns="http://www.w3.org/2000/svg">
  <defs>
    <style>.b {
      stroke-width: 2.18px;
    }

    .b, .c, .d, .e, .f, .g, .h, .i, .j, .k, .l, .m, .n, .o, .p, .q, .r, .s, .t, .u, .v, .w, .x, .y, .a`, .aa, .ab, .ac, .ad, .ae, .af, .ag, .ah, .ai, .aj, .ak, .al, .am, .an, .ao, .ap, .aq, .ar, .as, .at, .au, .av, .aw {
      fill-rule: evenodd;
    }

    .b, .d, .o, .p, .u, .x, .ab, .ac, .af, .ah, .am, .an, .ao {
      stroke-linecap: round;
      stroke-linejoin: round;
    }

    .b, .f, .p {
      fill: #262a25;
    }

    .b, .p {
      stroke: #262a25;
    }

    .c, .m, .v {
      fill: #1f66b0;
    }

    .d, .e, .ao {
      stroke: #014e92;
    }

    .d, .n, .o, .w, .y, .ab, .ac, .am, .au, .aw {
      fill: none;
    }

    .d, .ab {
      stroke-width: 3.22px;
    }

    .e {
      stroke-width: 2.08px;
    }

    .e, .x, .aq {
      fill: #014e92;
    }

    .f {
      stroke-width: 1.35px;
    }

    .f, .n, .aa, .af, .am, .an, .ar, .au, .aw {
      stroke: #68c8d2;
    }

    .g, .q, .ao {
      fill: #fff;
    }

    .h, .s, .a`, .ad, .ag, .ak, .at {
      fill: #cf3466;
    }

    .h, .u, .y, .ah {
      stroke: #1f66b0;
    }

    .h, .at {
      stroke-width: 3.47px;
    }

    .i, .al {
      fill: #638991;
    }

    .j, .m {
      stroke-width: 3px;
    }

    .j, .m, .r, .w, .x, .a`, .ab, .ad, .at {
      stroke: #c3d959;
    }

    .j, .r, .t, .aa, .av {
      fill: #f1813c;
    }

    .k, .ap, .ar {
      fill: #9fcfd7;
    }

    .l, .u, .af, .ah, .an {
      fill: #68c8d2;
    }

    .n, .r, .x, .aa {
      stroke-width: 4.83px;
    }

    .o {
      stroke-width: 11.8px;
    }

    .o, .q {
      stroke: #fff;
    }

    .p, .ad {
      stroke-width: 2.44px;
    }

    .q {
      stroke-width: 4.03px;
    }

    .u {
      stroke-width: 2.47px;
    }

    .v {
      stroke: #9dcd63;
      stroke-width: 2.78px;
    }

    .w {
      stroke-width: 4px;
    }

    .y {
      stroke-width: 6px;
    }

    .a`, .aj, .au, .av {
      stroke-width: 2.52px;
    }

    .ac {
      stroke: #73a540;
      stroke-width: 12px;
    }

    .ae {
      fill: #73a540;
    }

    .af, .am {
      stroke-width: 3.25px;
    }

    .ag {
      stroke-width: .69px;
    }

    .ag, .aj, .ak {
      stroke: #cf3466;
    }

    .ah {
      stroke-width: 2.77px;
    }

    .ai, .aj {
      fill: #00a8a8;
    }

    .ak {
      stroke-width: .84px;
    }

    .al {
      stroke: #638991;
    }

    .al, .ap {
      stroke-width: 1.71px;
    }

    .an {
      stroke-width: 3.02px;
    }

    .ao {
      stroke-width: 2.87px;
    }

    .ap {
      stroke: #00a8a8;
    }

    .ar {
      stroke-width: 5px;
    }

    .as {
      fill: #634c99;
    }

    .av {
      stroke: #634c99;
    }

    .aw {
      stroke-width: 7.09px;
    }</style>
  </defs>
  <path class="ae"
        d="M95.53,264.09l-.91-3.14-1.64-5.65-.04-.12-.03-.12c-1.53-6.86,2.44-17.3,2.9-18.47l.1-.26-11.78-36.06-1.66-5.08,1.35-.03c-1.98-10.2-3.21-22.97-4.15-34.7-.77-.64-1.48-1.36-2.14-2.16l-6.89,.99c-2,1.24-4.26,1.89-6.6,1.9h-.04c-1.5,0-2.97-.27-4.38-.79-1.77-.66-3.42-1.74-4.77-3.13-2.52-2.6-3.91-6.07-3.91-9.78,0-1.8,.33-3.57,.98-5.21l-12.33-20.58-.04-.07c-1.22-.48-2.36-1.19-3.36-2.1-1.44-1.3-2.52-2.93-3.17-4.74-1.95,.71-3.9,1.06-5.85,1.06-9.3,0-15.64-7.91-18.6-12.62l.03,.05c-.89-1.37-1.46-2.41-1.81-3.26l-.8-1.97,1.14-1.77,2.4-3.72,.42-.65,.63-.43,6.09-4.19,3.01-2.07,2.1,3.06,3.21,4.69-.06-.07c2.34,3.26,3.96,4.59,5.58,4.59,.39,0,.82-.07,1.28-.22,.52-1.78-.29-4.36-.72-5.5l-.06-.15-.06-.14c-.13-.4-.85-1.83-1.5-2.99l-1.19-2.11,1.28-2.05,.03-.05,1.54-2.45-.55-1.27,2.84-1.83,6.18-3.94,2.76-1.76,2.07,2.6c1.41,1.77,3.03,5.07,3.34,5.72l1.6,3.31-.37,.23c1.81,5.58,1.79,10.83-.03,15.38,.69,.39,1.34,.87,1.94,1.41,2.64,2.39,3.96,5.81,3.88,9.23l.39,.68,13.17,22.99c.08,.03,.16,.06,.24,.09l6.69-.81c.51-.99,1.09-1.92,1.74-2.78,.63-.84,1.33-1.62,2.09-2.32,.3-1.11,.66-2.18,1.08-3.21l-1.16-.17-.71-2.37c-1.14-3.81-2.08-7.63-2.78-11.39-3.08-.42-8.43-1.79-12.56-6.23-3.42-3.67-5.08-8.47-4.94-14.27,.27-11.27,8.61-16.49,17.29-17.85,1.49-9.67,9.45-14.56,13.39-16.99,.66-.41,1.4-.81,2.2-1.2-.57-1.05-.93-2.18-1.05-3.39-.27-2.61,.66-5.25,2.62-7.52-.02-.08-.04-.16-.05-.24v.05c-2.54-12.28-1.78-21.29,2.3-26.8,3.06-4.13,6.92-4.84,8.1-4.96,.75-.12,1.5-.18,2.22-.18,12.7,0,15.81,17.31,17.13,24.7,.17,.97,.35,1.97,.46,2.35,.15,.55,.27,1.08,.37,1.61,2.44,1.79,3.91,4.19,4.17,6.86,.08,.81,.05,1.63-.09,2.43,10.89,2.5,16.86,10.01,17.15,10.38l.44,.57c.27,.29,.52,.59,.77,.9,1.33-.23,3.1-.44,5.07-.44,9.32,0,15.69,4.6,17.93,12.97,1.59,5.93,.9,11.49-2,16.07-3.62,5.73-9.76,8.53-12.86,9.23,.39,4.37,.65,8.15,.81,10.57l4.81-3.13,.04-.03,.04-.02c.05-.03,.11-.07,.17-.1,.86-1.04,1.85-1.92,2.95-2.65l8.84-5.79-.89,2.82,16.22-17.38,.53-.57c.68-3.34,2.72-6.36,5.82-8.04,.7-.38,1.44-.68,2.19-.9-.76-4.86,.38-9.98,3.37-14.98l-.31-.31,2.28-2.82c.45-.55,2.76-3.37,4.51-4.75l2.59-2.02,2.3,2.38,5.15,5.33,2.42,2.5-.86,1.11,.94,2.7v.05l.82,2.31-1.63,1.78c-.89,.97-1.91,2.19-2.13,2.57l-.08,.14-.09,.09c-.66,1.01-2.02,3.32-1.91,5.17,.67,.41,1.31,.61,1.92,.61,1.8,0,4-1.71,5.72-3.2l-.07,.05,4.16-3.78,2.72-2.47,2.47,2.74,5,5.55,.52,.57,.27,.74,1.51,4.2,.73,2.01-1.22,1.72c-.52,.73-1.33,1.62-2.47,2.72l.04-.04c-3.12,3.08-9.47,8.26-16.98,8.26h0c-3.33,0-6.46-.98-9.37-2.93-1.04,1.6-2.44,2.92-4.13,3.83-1.17,.63-2.44,1.05-3.73,1.23l-.05,.05-17.18,17.7c.34,5.12-2.06,10.03-6.4,12.72l-1.14,.71-.53-.08c-.18,.08-.36,.15-.54,.22l-1.44,.91-9.12,5.76c3.24,11.06,6.99,42.73,8.51,56.39l1.68,.21-.74,4.14-5.5,30.65c4.72,2.39,9.37,6,9.74,11.03,.34,4.5-.27,7.14-1.07,8.7l-.84,4.23-.41,2.08-1.88,.78c-.62,.26-3.15,1.1-9.39,1.1-4.79,0-10.63-.49-17.38-1.47-6.89,3.03-20.56,7.14-47.24,10.39l-3.11,.38h0Zm33.12-55.41l3.65,9.83,2.35-10.91-6,1.08Z"/>
  <path class="ac"
        d="M95.53,264.09l-.91-3.14-1.64-5.65-.04-.12-.03-.12c-1.53-6.86,2.44-17.3,2.9-18.47l.1-.26-11.78-36.06-1.66-5.08,1.35-.03c-1.98-10.2-3.21-22.97-4.15-34.7-.77-.64-1.48-1.36-2.14-2.16l-6.89,.99c-2,1.24-4.26,1.89-6.6,1.9h-.04c-1.5,0-2.97-.27-4.38-.79-1.77-.66-3.42-1.74-4.77-3.13-2.52-2.6-3.91-6.07-3.91-9.78,0-1.8,.33-3.57,.98-5.21l-12.33-20.58-.04-.07c-1.22-.48-2.36-1.19-3.36-2.1-1.44-1.3-2.52-2.93-3.17-4.74-1.95,.71-3.9,1.06-5.85,1.06-9.3,0-15.64-7.91-18.6-12.62l.03,.05c-.89-1.37-1.46-2.41-1.81-3.26l-.8-1.97,1.14-1.77,2.4-3.72,.42-.65,.63-.43,6.09-4.19,3.01-2.07,2.1,3.06,3.21,4.69-.06-.07c2.34,3.26,3.96,4.59,5.58,4.59,.39,0,.82-.07,1.28-.22,.52-1.78-.29-4.36-.72-5.5l-.06-.15-.06-.14c-.13-.4-.85-1.83-1.5-2.99l-1.19-2.11,1.28-2.05,.03-.05,1.54-2.45-.55-1.27,2.84-1.83,6.18-3.94,2.76-1.76,2.07,2.6c1.41,1.77,3.03,5.07,3.34,5.72l1.6,3.31-.37,.23c1.81,5.58,1.79,10.83-.03,15.38,.69,.39,1.34,.87,1.94,1.41,2.64,2.39,3.96,5.81,3.88,9.23l.39,.68,13.17,22.99c.08,.03,.16,.06,.24,.09l6.69-.81c.51-.99,1.09-1.92,1.74-2.78,.63-.84,1.33-1.62,2.09-2.32,.3-1.11,.66-2.18,1.08-3.21l-1.16-.17-.71-2.37c-1.14-3.81-2.08-7.63-2.78-11.39-3.08-.42-8.43-1.79-12.56-6.23-3.42-3.67-5.08-8.47-4.94-14.27,.27-11.27,8.61-16.49,17.29-17.85,1.49-9.67,9.45-14.56,13.39-16.99,.66-.41,1.4-.81,2.2-1.2-.57-1.05-.93-2.18-1.05-3.39-.27-2.61,.66-5.25,2.62-7.52-.02-.08-.04-.16-.05-.24v.05c-2.54-12.28-1.78-21.29,2.3-26.8,3.06-4.13,6.92-4.84,8.1-4.96,.75-.12,1.5-.18,2.22-.18,12.7,0,15.81,17.31,17.13,24.7,.17,.97,.35,1.97,.46,2.35,.15,.55,.27,1.08,.37,1.61,2.44,1.79,3.91,4.19,4.17,6.86,.08,.81,.05,1.63-.09,2.43,10.89,2.5,16.86,10.01,17.15,10.38l.44,.57c.27,.29,.52,.59,.77,.9,1.33-.23,3.1-.44,5.07-.44,9.32,0,15.69,4.6,17.93,12.97,1.59,5.93,.9,11.49-2,16.07-3.62,5.73-9.76,8.53-12.86,9.23,.39,4.37,.65,8.15,.81,10.57l4.81-3.13,.04-.03,.04-.02c.05-.03,.11-.07,.17-.1,.86-1.04,1.85-1.92,2.95-2.65l8.84-5.79-.89,2.82,16.22-17.38,.53-.57c.68-3.34,2.72-6.36,5.82-8.04,.7-.38,1.44-.68,2.19-.9-.76-4.86,.38-9.98,3.37-14.98l-.31-.31,2.28-2.82c.45-.55,2.76-3.37,4.51-4.75l2.59-2.02,2.3,2.38,5.15,5.33,2.42,2.5-.86,1.11,.94,2.7v.05l.82,2.31-1.63,1.78c-.89,.97-1.91,2.19-2.13,2.57l-.08,.14-.09,.09c-.66,1.01-2.02,3.32-1.91,5.17,.67,.41,1.31,.61,1.92,.61,1.8,0,4-1.71,5.72-3.2l-.07,.05,4.16-3.78,2.72-2.47,2.47,2.74,5,5.55,.52,.57,.27,.74,1.51,4.2,.73,2.01-1.22,1.72c-.52,.73-1.33,1.62-2.47,2.72l.04-.04c-3.12,3.08-9.47,8.26-16.98,8.26h0c-3.33,0-6.46-.98-9.37-2.93-1.04,1.6-2.44,2.92-4.13,3.83-1.17,.63-2.44,1.05-3.73,1.23l-.05,.05-17.18,17.7c.34,5.12-2.06,10.03-6.4,12.72l-1.14,.71-.53-.08c-.18,.08-.36,.15-.54,.22l-1.44,.91-9.12,5.76c3.24,11.06,6.99,42.73,8.51,56.39l1.68,.21-.74,4.14-5.5,30.65c4.72,2.39,9.37,6,9.74,11.03,.34,4.5-.27,7.14-1.07,8.7l-.84,4.23-.41,2.08-1.88,.78c-.62,.26-3.15,1.1-9.39,1.1-4.79,0-10.63-.49-17.38-1.47-6.89,3.03-20.56,7.14-47.24,10.39l-3.11,.38h0Zm33.12-55.41l3.65,9.83,2.35-10.91-6,1.08Z"/>
  <path class="o"
        d="M95.37,111.1c.15-.07,.31-.14,.46-.21l.1-.05c-.24-1.6-.46-3.23-.65-4.88-.02,1.81,.02,3.54,.08,5.14Z"/>
  <path class="o" d="M131.61,225.65c.04-.05,.07-.08,.07-.08l2.4,.19,4.92-22.85-14.84,2.68,7.45,20.06Z"/>
  <path class="g"
        d="M233.05,80.39l-1.51-4.2-5-5.55-4.16,3.78h0c-4.18,3.63-8.4,6.09-13.3,1.96-1.35-3.39,.36-7.16,2.1-9.8v.02c.57-1.03,2.69-3.32,2.69-3.32l-.02-.06h0l-1.67-4.79s.06-.07,.06-.07l-5.15-5.33c-1.5,1.18-3.9,4.14-3.9,4.14l.1,.1c-3.3,4.38-6.98,11.62-3.15,19.32-1.8-.57-3.81-.43-5.61,.55-3.66,1.99-5.09,6.69-3.24,10.53l-2.15-2.66-18.52,19.85c-2.06-.34-4.24,.03-6.17,1.22-.08,.05-.16,.1-.23,.15-.06,.2-.12,.41-.17,.62,.07-.31,.14-.6,.23-.89-.93,.61-1.72,1.36-2.36,2.21-.07,.09-.13,.18-.19,.27-.23,.09-.44,.19-.65,.32l-10.57,6.88c-1.6-1.64-3.44-3.1-5.53-4.35,1.9,.03,3.82,.12,5.74,.29,0,0-.42-7.87-1.35-17.31,.99,.11,1.97,.05,2.89-.07,2.85-.38,16.38-5.92,12.47-20.47-3.81-14.2-20.8-9.27-20.8-9.27-.08,.03-.15,.06-.23,.1-.74-1.41-1.66-2.53-2.69-3.43,.08,.01,.15,.02,.23,.04,0,0-7.12-9.14-20.11-9.7-.04,0-.08,0-.12,0,1.65-1.56,2.54-3.36,2.35-5.18-.18-1.8-1.39-3.35-3.29-4.52-.28,.95-.71,1.86-1.26,2.71,.9-2.02,.63-4.2,.14-5.97-1.08-3.89-2.85-26.31-15.76-24.05,0,0-12.7,.48-7.18,27.01,0,0,2.02,10.26,13.02,8.53,2.49-.39,4.41-1,5.88-1.74-1.83,1.15-4.02,1.94-6.43,2.21-5.63,.62-10.72-1.8-12.94-5.73-1.45,1.49-2.22,3.18-2.05,4.88,.22,2.15,1.89,3.94,4.45,5.14-3.13,1.04-5.7,2.19-7.43,3.26-5.16,3.17-11.21,7.46-11.75,15.68-.03,.48-.07,.99-.12,1.52-3.75,.19-16.67,1.74-16.97,14.34-.36,15.11,14.06,16.98,16.91,16.61h0c.67,4.29,1.69,8.95,3.2,13.99l2.2,.32c-1.97,2.93-3.39,6.52-3.94,10.81-.12,.14-.24,.29-.35,.44-.73,.97-1.36,2.05-1.87,3.22-.05,.04-.1,.07-.14,.1l-10.83,1.32c-.39-.13-.79-.24-1.19-.32l-13.81-24.09-2.68,2.07c2.65-3.29,2.29-8.21-.83-11.03-1.54-1.39-3.46-2.01-5.34-1.89,5.43-6.56,3.44-14.5,1.2-19.56l.12-.07s-1.67-3.46-2.88-4.97l-6.18,3.94s.02,.03,.04,.09l-2.68,4.25h0l-.03,.06s1.55,2.75,1.87,3.88l.02-.02c1.11,2.99,1.94,7.08-.12,10.04-5.68,2.83-9.25-.58-12.51-5.12h0l-3.21-4.69-6.09,4.19-2.4,3.72c.28,.7,.88,1.7,1.46,2.59,3.29,5.25,11.95,15.98,24.02,7.99,.19-.13,.37-.25,.54-.38-.19,.79-.26,1.61-.21,2.41,.13,2.03,1,4.02,2.59,5.45,1.53,1.39,3.45,2.01,5.32,1.9,.36-.02,.71-.07,1.07-.15l-2.26,1.3,13.47,22.49c-.98,1.55-1.55,3.4-1.55,5.39,0,2.55,.93,4.86,2.45,6.6,.05,.15,.11,.3,.16,.44l.02,.04,.03,.03c.96,.99,2.12,1.77,3.42,2.26h0l.05,.02h0l.59,.22-.03-.04c.84,.25,1.71,.39,2.63,.39h.57l-.02-.02c1.27-.08,2.47-.41,3.56-.96l11.36-1.64c.11,.16,.21,.32,.33,.47,.44,.59,.92,1.13,1.44,1.63,.54,7.1,1.14,14.01,1.85,20.44,.33,2.94,.68,5.79,1.06,8.5l-5,1.97s-.69,.31-1.37,.86c-.66,.55-1.42,1.41-1.43,2.63,0,.32,.06,.67,.18,1.01,.35,.96,.78,1.74,1.35,2.3,.48,.46,1.07,.75,1.72,.83,.44,.3,.94,.46,1.51,.46h.01c.43,0,.88-.08,1.38-.25,.53-.18,1.65-.62,3.05-1.2,.84,4.39,1.82,8.26,2.99,11.47l.37,1.01,1.26,.28,9.92,30.39-.97,.26-.04,.09s-2.99,7.6-2.99,13.5c0,.88,.07,1.73,.23,2.51h-.02l.05,.19h0l.04,.18h.01l1.63,5.64,.16-.02c29.27-3.56,42.23-8.16,47.47-10.67,20.09,2.97,25.57,.7,25.57,.7l.98-4.95s1.27-1.29,.86-6.87c-.33-4.43-7.35-7.79-10.24-8.99l5.36-29.87,2.13-.38-.17-1.66s-1.31-12.54-3.13-26.56c-.91-7.01-1.94-14.39-3-20.78-1.07-6.4-2.13-11.76-3.21-14.94-.55-1.62-1.24-3.17-2.07-4.62l2.26,1.82,9.3-5.88-.05-.09c.32-.22,.6-.48,.85-.77,.88-.18,1.75-.5,2.58-.96,.1,.02,.21,.04,.31,.06,3.62-2.24,5.27-6.65,4.32-10.73l18.55-19.11-1.93-1.83c.33,.16,.67,.31,1.03,.42,1.8,.56,3.8,.42,5.6-.55,1.86-1.01,3.15-2.73,3.72-4.68,.23-.77,.34-1.58,.33-2.4,.15,.16,.29,.33,.45,.5,10,10.71,20.79,2.34,25.14-1.96,.76-.73,1.55-1.54,1.98-2.15h0Zm-98.97,145.37l-2.4-.19s-.02,.03-.07,.08l-7.45-20.06,14.84-2.68-4.92,22.85h0Zm-38.14-114.91s-.07,.03-.11,.05c-.15,.07-.31,.14-.46,.21-.07-1.6-.1-3.33-.08-5.14,.19,1.65,.41,3.28,.65,4.88Z"/>
  <path class="o"
        d="M233.05,80.39l-1.51-4.2-5-5.55-4.16,3.78h0c-4.18,3.63-8.4,6.09-13.3,1.96-1.35-3.39,.36-7.16,2.1-9.8v.02c.57-1.03,2.69-3.32,2.69-3.32l-.02-.06h0l-1.67-4.79s.06-.07,.06-.07l-5.15-5.33c-1.5,1.18-3.9,4.14-3.9,4.14l.1,.1c-3.3,4.38-6.98,11.62-3.15,19.32-1.8-.57-3.81-.43-5.61,.55-3.66,1.99-5.09,6.69-3.24,10.53l-2.15-2.66-18.52,19.85c-2.06-.34-4.24,.03-6.17,1.22-.08,.05-.16,.1-.23,.15-.06,.2-.12,.41-.17,.62,.07-.31,.14-.6,.23-.89-.93,.61-1.72,1.36-2.36,2.21-.07,.09-.13,.18-.19,.27-.23,.09-.44,.19-.65,.32l-10.57,6.88c-1.6-1.64-3.44-3.1-5.53-4.35,1.9,.03,3.82,.12,5.74,.29,0,0-.42-7.87-1.35-17.31,.99,.11,1.97,.05,2.89-.07,2.85-.38,16.38-5.92,12.47-20.47-3.81-14.2-20.8-9.27-20.8-9.27-.08,.03-.15,.06-.23,.1-.74-1.41-1.66-2.53-2.69-3.43,.08,.01,.15,.02,.23,.04,0,0-7.12-9.14-20.11-9.7h-.12c1.65-1.57,2.54-3.36,2.35-5.18-.18-1.8-1.39-3.35-3.29-4.52-.28,.95-.71,1.86-1.26,2.71,.9-2.02,.63-4.2,.14-5.97-1.08-3.89-2.85-26.31-15.76-24.05,0,0-12.7,.48-7.18,27.01,0,0,2.02,10.26,13.02,8.53,2.49-.39,4.41-1,5.88-1.74-1.83,1.15-4.02,1.94-6.43,2.21-5.63,.62-10.72-1.8-12.94-5.73-1.45,1.49-2.22,3.18-2.05,4.88,.22,2.15,1.89,3.94,4.45,5.14-3.13,1.04-5.7,2.19-7.43,3.26-5.16,3.17-11.21,7.46-11.75,15.68-.03,.48-.07,.99-.12,1.52-3.75,.19-16.67,1.74-16.97,14.34-.36,15.11,14.06,16.98,16.91,16.61h0c.67,4.29,1.69,8.95,3.2,13.99l2.2,.32c-1.97,2.93-3.39,6.52-3.94,10.81-.12,.14-.24,.29-.35,.44-.73,.97-1.36,2.05-1.87,3.22-.05,.04-.1,.07-.14,.1l-10.83,1.32c-.39-.13-.79-.24-1.19-.32l-13.81-24.09-2.68,2.07c2.65-3.29,2.29-8.21-.83-11.03-1.54-1.39-3.46-2.01-5.34-1.89,5.43-6.56,3.44-14.5,1.2-19.56l.12-.07s-1.67-3.46-2.88-4.97l-6.18,3.94s.02,.03,.04,.09l-2.68,4.25h0l-.03,.06s1.55,2.75,1.87,3.88l.02-.02c1.11,2.99,1.94,7.08-.12,10.04-5.68,2.83-9.25-.58-12.51-5.12h0l-3.21-4.69-6.09,4.19-2.4,3.72c.28,.7,.88,1.7,1.46,2.59,3.29,5.25,11.95,15.98,24.02,7.99,.19-.13,.37-.25,.54-.38-.19,.79-.26,1.61-.21,2.41,.13,2.03,1,4.02,2.59,5.45,1.53,1.39,3.45,2.01,5.32,1.9,.36-.02,.71-.07,1.07-.15l-2.26,1.3,13.47,22.49c-.98,1.55-1.55,3.4-1.55,5.39,0,2.55,.93,4.86,2.45,6.6,.05,.15,.11,.3,.16,.44l.02,.04,.03,.03c.96,.99,2.12,1.77,3.42,2.26h0l.05,.02h0l.59,.22-.03-.04c.84,.25,1.71,.39,2.63,.39h.57l-.02-.02c1.27-.08,2.47-.41,3.56-.96l11.36-1.64c.11,.16,.21,.32,.33,.47,.44,.59,.92,1.13,1.44,1.63,.54,7.1,1.14,14.01,1.85,20.44,.33,2.94,.68,5.79,1.06,8.5l-5,1.97s-.69,.31-1.37,.86c-.66,.55-1.43,1.41-1.43,2.63,0,.32,.06,.67,.18,1.01,.35,.96,.78,1.74,1.35,2.3,.48,.46,1.07,.75,1.72,.83,.44,.3,.94,.46,1.51,.46h.01c.43,0,.88-.08,1.38-.25,.53-.18,1.65-.62,3.05-1.2,.84,4.39,1.82,8.26,2.99,11.47l.37,1.01,1.26,.28,9.92,30.39-.97,.26-.04,.09s-2.99,7.6-2.99,13.5c0,.88,.07,1.73,.23,2.51h-.02l.05,.19h0l.04,.18h.01l1.63,5.64,.16-.02c29.27-3.56,42.23-8.16,47.47-10.67,20.09,2.97,25.57,.7,25.57,.7l.98-4.95s1.27-1.29,.86-6.87c-.33-4.43-7.35-7.79-10.24-8.99l5.36-29.87,2.13-.38-.17-1.66s-1.31-12.54-3.13-26.56c-.91-7.01-1.94-14.39-3-20.78-1.07-6.4-2.13-11.76-3.21-14.94-.55-1.62-1.24-3.17-2.07-4.62l2.26,1.82,9.3-5.88-.05-.09c.32-.22,.6-.48,.85-.77,.88-.18,1.75-.5,2.58-.96,.1,.02,.21,.04,.31,.06,3.62-2.24,5.27-6.65,4.32-10.73l18.55-19.11-1.93-1.83c.33,.16,.67,.31,1.03,.42,1.8,.56,3.8,.42,5.6-.55,1.86-1.01,3.15-2.73,3.72-4.68,.23-.77,.33-1.58,.33-2.4,.15,.16,.29,.33,.45,.5,10,10.71,20.79,2.34,25.14-1.96,.76-.73,1.55-1.54,1.98-2.15h0Zm-98.97,145.37l-2.4-.19s-.02,.03-.07,.08l-7.45-20.06,14.84-2.68-4.92,22.85h0Zm-38.14-114.91s-.07,.03-.11,.05c-.15,.07-.31,.14-.46,.21-.07-1.6-.1-3.33-.08-5.14,.19,1.65,.41,3.28,.65,4.88Z"/>
  <polygon class="l" points="169.14 194.14 162.18 232.93 147.36 229.91 154.96 192.38 169.14 194.14"/>
  <polygon class="c" points="155.28 193.53 143.12 185.84 133.95 228.42 147.36 229.91 155.28 193.53"/>
  <path class="as" d="M172.47,243.73l-.98,4.95s-9,3.73-46.32-4.65l.16-5.29,47.31,4.57-.17,.43Z"/>
  <path class="s"
        d="M146.66,227.07l-14.6-1.17s-6.23,7.5-6.72,12.84c0,0,24.07,3.64,26.67,4.12,2.59,.47,7.17-13.94-5.34-15.78Z"/>
  <path class="t"
        d="M161.85,227.38s11.06,3.9,11.48,9.48c.42,5.58-.86,6.87-.86,6.87l-20.47-.88s2.4-5.25,1.54-7.3c-.87-2.05-6.88-8.48-6.88-8.48l15.2,.31Z"/>
  <path class="g"
        d="M162.16,228.81s8.22,3.9,9.01,5.46q.79,1.56,.79,1.56l-15.53-.27s10.55-1.03,11.19-1.54c0,0-.82-2.51-5.47-5.21Z"/>
  <polygon class="l" points="118.36 189.83 132.06 226.71 115.63 232.61 103.24 196.42 118.36 189.83"/>
  <polygon class="c" points="104.18 197.21 87.92 197.63 101.43 238.99 115.63 232.61 104.18 197.21"/>
  <path class="as" d="M148.29,240.39l.65,5.59s-8.24,7.32-50.51,12.46l-1.64-5.65,51.52-12.92-.03,.52Z"/>
  <path class="s"
        d="M115.34,232.48l-15.83,4.24s-4.02,10.25-2.72,16.08c0,0,26.67-5.18,29.57-5.65,2.9-.47,2.82-17.41-11.03-14.67Z"/>
  <path class="t"
        d="M131.5,227.11s13.01-.03,15.36,5.71c2.34,5.74,1.44,7.58,1.44,7.58l-21.93,6.75s.75-6.45-.87-8.29c-1.62-1.84-10.16-6.38-10.16-6.38l16.16-5.37Z"/>
  <path class="g"
        d="M132.31,228.51s10.02,1.04,11.38,2.38q1.37,1.35,1.37,1.35l-16.49,5.54s10.8-5.05,11.29-5.82c0,0-1.72-2.34-7.55-3.45Z"/>
  <g>
    <polygon class="aq" points="52.19 112.24 49.02 115.38 43.94 118.91 49.53 115.94 52.19 112.24"/>
    <polygon class="c" points="52.19 112.24 48.53 115.06 64.32 141.18 66.58 137.33 52.19 112.24"/>
    <polygon class="aq" points="64.32 141.18 48.53 115.06 43.01 118.24 59.43 145.65 64.32 141.18"/>
    <path class="s"
          d="M44.2,117.09c-1.87,.11-3.79-.51-5.32-1.89-1.59-1.44-2.46-3.42-2.58-5.45,.8,1.67,1.95,3.24,3.43,4.59,1.38,1.25,2.91,2.17,4.48,2.76Z"/>
    <path class="s"
          d="M48.68,103.28c3.14,2.84,3.49,7.8,.78,11.09-.05,.06-.1,.12-.15,.17-.43,.06-.89,.09-1.36,.07-2.02-.09-4.29-.99-6.22-2.73-1.93-1.74-3.11-3.96-3.49-6.05-.11-.6-.15-1.19-.13-1.75,2.71-3.27,7.44-3.63,10.57-.8Z"/>
    <path class="t"
          d="M40.73,113.1c2,1.81,4.34,2.84,6.57,3.08-.97,.54-2.02,.84-3.1,.9-1.57-.59-3.1-1.51-4.48-2.76-1.48-1.34-2.63-2.91-3.43-4.59-.07-1.13,.09-2.27,.49-3.35,.5,2.39,1.84,4.81,3.95,6.71Z"/>
    <path class="t"
          d="M36.78,106.39c.3-.82,.74-1.59,1.31-2.29l.02-.02c-.02,.56,.02,1.15,.13,1.75,.38,2.09,1.56,4.3,3.49,6.05,1.93,1.75,4.19,2.65,6.22,2.73,.47,.02,.92,0,1.36-.07-.59,.68-1.28,1.23-2.01,1.64-2.23-.24-4.57-1.27-6.57-3.08-2.1-1.9-3.45-4.32-3.95-6.71Z"/>
    <path class="g"
          d="M49.44,107.33c-1.06-.96-2.66-.84-3.58,.28-.91,1.11-.8,2.79,.26,3.75,1.06,.96,2.66,.84,3.58-.28,.92-1.11,.8-2.79-.26-3.75Z"/>
    <path class="i"
          d="M32.95,85.07s7.21,11.71-.73,16.14c-7.94,4.42-14.56-1.57-19.01-8.01l-2.74,3.93s9.89,20.89,25.48,10.58c15.59-10.31,.11-26.22-.3-26.94l-2.71,4.3Z"/>
    <path class="k"
          d="M41.77,76.79c.4,.71,12.79,18.14-2.8,28.45-15.59,10.31-26.1-11.83-26.1-11.83l6.09-4.19c4.44,6.44,8.34,13.95,16.28,9.53,7.93-4.42,.35-18.02,.35-18.02l6.18-3.94Z"/>
    <path class="s" d="M16.13,98.71s-1.54,1.19-2.77,3.09c0,0-2.24-3.09-2.89-4.67l2.4-3.72s1.33,2.97,3.26,5.3Z"/>
    <path class="t" d="M22.17,93.9l-6.04,4.8s-2.6-3.46-3.26-5.3l6.09-4.19,3.21,4.69Z"/>
    <path class="t" d="M44.65,81.76s-1.67-3.46-2.88-4.97l-6.18,3.94s2.01,4.33,2.21,5.22l6.85-4.19Z"/>
    <path class="s" d="M34.79,89l3.01-3.06s-.8-2.85-2.14-5.18l-2.74,4.36s1.55,2.75,1.87,3.88Z"/>
  </g>
  <polygon class="aq" points="189.5 85.31 191.9 89.13 196.06 93.81 191.27 89.56 189.5 85.31"/>
  <polygon class="c" points="189.5 85.31 192.44 88.95 171.31 110.53 169.97 106.24 189.5 85.31"/>
  <polygon class="aq" points="171.31 110.53 192.44 88.95 197.11 93.38 175.09 116.07 171.31 110.53"/>
  <path class="s"
        d="M196.2,91.97c1.8,.56,3.8,.42,5.6-.55,1.86-1.01,3.15-2.73,3.72-4.68-1.14,1.43-2.61,2.68-4.35,3.63-1.62,.88-3.31,1.41-4.97,1.6Z"/>
  <path class="s"
        d="M194.89,77.45c-3.68,2-5.11,6.75-3.2,10.61,.03,.07,.07,.14,.11,.2,.41,.17,.84,.3,1.3,.39,1.99,.41,4.39,.08,6.65-1.15,2.26-1.23,3.9-3.1,4.73-5.04,.24-.56,.41-1.12,.51-1.67-1.91-3.84-6.43-5.33-10.1-3.34Z"/>
  <path class="t"
        d="M200.46,88.93c-2.35,1.28-4.85,1.71-7.07,1.4,.82,.76,1.78,1.31,2.81,1.63,1.66-.19,3.35-.72,4.97-1.6,1.74-.95,3.21-2.2,4.35-3.63,.32-1.08,.41-2.23,.26-3.38-1.01,2.21-2.85,4.23-5.32,5.57Z"/>
  <path class="t"
        d="M205.78,83.36c-.11-.87-.37-1.73-.77-2.55v-.02c-.12,.55-.29,1.11-.53,1.67-.83,1.94-2.47,3.81-4.73,5.04-2.26,1.23-4.66,1.56-6.65,1.15-.46-.1-.9-.23-1.3-.39,.43,.81,.97,1.5,1.6,2.08,2.22,.31,4.72-.13,7.07-1.4,2.47-1.34,4.31-3.36,5.32-5.57Z"/>
  <path class="g"
        d="M193.26,81.2c1.24-.68,2.77-.17,3.42,1.14,.64,1.3,.16,2.91-1.09,3.59-1.24,.68-2.77,.17-3.42-1.14-.64-1.3-.16-2.91,1.09-3.59Z"/>
  <path class="i"
        d="M214.22,63.54s-9.6,9.65-2.85,15.88c6.74,6.23,14.52,2,20.26-3.19l1.8,4.49s-14.23,17.93-27.13,4.12c-12.89-13.81,5.68-25.54,6.23-26.13l1.69,4.84Z"/>
  <path class="k"
        d="M207.45,53.34c-.55,.6-16.45,14.55-3.55,28.36,12.89,13.81,28.01-5.18,28.01-5.18l-5-5.55c-5.74,5.19-11.19,11.55-17.94,5.32-6.74-6.23,3.63-17.61,3.63-17.61l-5.15-5.33Z"/>
  <path class="s" d="M227.57,80.89s1.23,1.53,2.02,3.68c0,0,2.86-2.46,3.84-3.85l-1.51-4.2s-1.94,2.57-4.34,4.37Z"/>
  <path class="t" d="M222.75,74.75l4.82,6.14s3.29-2.74,4.34-4.37l-5-5.55-4.16,3.78Z"/>
  <path class="t" d="M203.56,57.48s2.39-2.96,3.9-4.14l5.15,5.33s-2.91,3.73-3.3,4.55l-5.75-5.74Z"/>
  <path class="s" d="M211.56,66.93l-2.26-3.7s1.4-2.58,3.22-4.52l1.71,4.9s-2.11,2.3-2.67,3.32Z"/>
  <path class="c"
        d="M164.39,117.57c-1.66-2.97-2.34-6.19-2.11-9.1-.84,1.12-1.43,2.4-1.75,3.76,.34,2.14,1.07,4.31,2.21,6.35,1.23,2.2,2.8,4.03,4.57,5.42,1.3,.34,2.67,.39,4.01,.13-2.68-1.18-5.19-3.44-6.93-6.56Z"/>
  <path class="c"
        d="M171.32,124.14c1.02-.2,2.02-.59,2.97-1.17l.03-.02c-.66-.1-1.33-.29-2.01-.56-2.34-.95-4.66-2.97-6.26-5.83-1.6-2.86-2.15-5.96-1.79-8.57,.08-.61,.21-1.18,.38-1.72-.93,.61-1.72,1.36-2.36,2.21-.22,2.91,.45,6.13,2.11,9.1,1.74,3.12,4.25,5.39,6.93,6.56Z"/>
  <path class="g"
        d="M173.01,107.99c.88,1.57,.37,3.6-1.13,4.52-1.5,.92-3.43,.39-4.31-1.18-.88-1.57-.38-3.6,1.13-4.52,1.5-.92,3.43-.39,4.31,1.18Z"/>
  <path class="v"
        d="M171.07,113.86c-2.46-4.4-6.77-6.55-9.64-4.79l-15.08,9.82,14.91,11.98,9.3-5.88-.05-.09c2.7-1.85,2.96-6.73,.55-11.04Z"/>
  <path class="aq"
        d="M165.98,191.83s-6.33-53.51-11.16-66.11c-4.82-12.61-18.92-20.17-42.98-16.04,0,0-31.67,.42-29.71,28.36,1.83,26.02,3.62,52.66,8.44,65.83l15.62,3.54,59.78-15.59Z"/>
  <path class="aw"
        d="M165.98,191.83s-6.33-53.51-11.16-66.11c-4.82-12.61-18.92-20.17-42.98-16.04,0,0-31.67,.42-29.71,28.36,1.83,26.02,3.62,52.66,8.44,65.83l15.62,3.54,59.78-15.59Z"/>
  <path class="ar"
        d="M123.84,119.25s-26.26,.39-24.64,26.55c1.51,24.36,3,49.3,7,61.62l62.53-11.28s-5.25-50.08-9.26-61.88c-4-11.8-15.7-18.88-35.64-15.01Z"/>
  <path class="ai"
        d="M144.82,178.74c.09-1.62-.02-3.2-.29-4.73l2.79-.15-.06-.99c-.18-2.55-1.7-6.41-1.71-6.47l-.34-.89-3.48,1.38c-.98-1.52-2.16-2.88-3.51-4.05l2.48-2.79-.7-.67c-.92-.87-2.27-1.68-3.42-2.32-1.15-.64-2.08-1.08-2.09-1.08l-.84-.4-1.67,3.71c-1.18-.38-2.41-.65-3.68-.77-.51-.05-1.02-.07-1.52-.08v-3.25l-.95,.02c-2.44,.06-6.2,1.44-6.25,1.45l-.87,.31,.89,2.91c-.98,.42-1.92,.93-2.81,1.52l-1.89-3.22-.8,.53c-1.05,.7-2.15,1.85-3.05,2.84-.89,.99-1.54,1.82-1.55,1.83l-.59,.74,2.69,2.42c-.72,1.06-1.33,2.19-1.84,3.4l-2.99-1.58-.42,.9c-.54,1.17-.91,2.75-1.18,4.09-.26,1.33-.4,2.39-.41,2.41l-.13,.95,3.58,.6c-.03,1.51,.11,3,.41,4.43l-3.64,.2,.06,1c.18,2.55,1.7,6.41,1.71,6.47l.34,.89,4.36-1.73c.74,1.12,1.6,2.16,2.55,3.1l-2.92,3.29,.7,.67c.93,.87,2.27,1.68,3.42,2.32,1.15,.64,2.08,1.08,2.09,1.08l.84,.39,1.74-3.87c1.5,.61,3.1,1.03,4.77,1.21l-.64,3.9,.95,.15c.14,.02,.29,.04,.44,.06,2.4,.23,5.9-.38,5.94-.38l.91-.15-.57-4.25c.87-.27,1.71-.6,2.52-.99l.83,2.74,.9-.32c2.31-.83,5.49-3.34,5.54-3.36l.74-.57-2.07-3.07c1.1-1.27,2.03-2.71,2.77-4.26l2.5,1.32,.42-.9c.54-1.17,.91-2.75,1.18-4.09,.26-1.33,.4-2.39,.41-2.41l.13-.96-2.72-.46h0Zm-25.19-15.02c.27,1.22,.64,3.3,.49,4.82-.08,.99-.38,1.55-.57,1.67-.15,.11-.27,.16-.64,.14-.68-.04-1.94-.71-2.87-1.45-.48-.36-.89-.73-1.18-.99-.01-.01-.02-.02-.04-.04,.65-.86,1.38-1.64,2.19-2.34,.81-.7,1.69-1.31,2.62-1.82h0Zm18.43,3.94c1.64,2.08,2.76,4.6,3.21,7.34-.01,0-.02,0-.03,0-.52,.1-2.99,.49-5.06,.28-.79-.08-1.52-.25-2.01-.48-.5-.24-.71-.47-.8-.69-.08-.18-.13-.42-.09-.8,.06-1.12,1.08-3.06,2.16-4.53,.53-.75,1.06-1.4,1.45-1.86,.1-.12,.19-.22,.27-.31,.32,.34,.62,.69,.91,1.05h0Zm-22.72,8.6c.67,.36,1.26,.77,1.57,1.09,.1,.1,.17,.19,.21,.25-.03,.04-.06,.09-.12,.15-.45,.57-2.06,1.41-3.46,1.89-.67,.24-1.3,.43-1.78,.57-.21-1.31-.26-2.68-.13-4.07,.04-.45,.11-.9,.18-1.34,.69,.22,2.25,.77,3.53,1.46h0Zm1.35,8.37c1.28-.81,2.78-1.33,3.35-1.22,.18,.02,.25,.06,.31,.09,0,0,0,0,0,0,.03,0,.16,.4,.09,1.09-.1,1.17-.68,2.91-1.26,4.26-.29,.68-.57,1.28-.78,1.7-.03,.07-.06,.12-.09,.18-1.26-.87-2.38-1.92-3.34-3.14-.3-.38-.58-.77-.84-1.17,.56-.45,1.51-1.18,2.55-1.8h0Zm8.42,8.61s0-.05,0-.08c-.04-.56-.1-1.92,.03-3.35,.1-1.12,.33-2.28,.69-3.06,.18-.39,.37-.68,.56-.87,.19-.19,.35-.28,.59-.34,.1-.02,.18-.03,.26-.02,.24,.01,.7,.25,1.24,.9,.8,.95,1.57,2.62,2.07,4,.25,.69,.45,1.32,.58,1.77,.04,.13,.07,.23,.09,.33-1.91,.67-3.98,.94-6.11,.73h0Zm11.91-4.46c-.57-.57-1.59-1.66-2.46-2.9-1.04-1.42-1.72-3.07-1.59-3.81,.02-.2,.06-.34,.14-.49,.17-.31,.44-.53,1.08-.71,.62-.17,1.51-.2,2.43-.1,1.13,.11,2.31,.4,3.18,.65,.44,.13,.8,.25,1.05,.34,.03,0,.06,.02,.09,.03-.71,2.71-2.08,5.1-3.91,7h0Zm-5.8-26.03c-.3,.9-.89,2.48-1.62,3.8-.43,.79-.92,1.48-1.34,1.86-.43,.4-.65,.42-.72,.41-.02,0-.05,0-.07-.01-.23-.08-.37-.19-.57-.48-.29-.43-.53-1.33-.6-2.3-.08-.97-.03-2.01,.03-2.74,.03-.33,.06-.6,.09-.78,.02-.18,.04-.26,.04-.26l.05-.29c.47,0,.95,.02,1.43,.07,1.14,.12,2.23,.37,3.28,.73Z"/>
  <path class="c"
        d="M143.54,155.15c1.14-.23,2.23-.6,3.24-1.09l.62,2.11,.68-.23c1.74-.61,4.15-2.47,4.19-2.49l.56-.43-1.6-2.41c.88-1.03,1.61-2.18,2.18-3.43l2.4,1.38,.34-.66c.44-.87,.76-2.05,.99-3.04,.23-.99,.37-1.79,.37-1.8l.12-.71-2.89-.6c.05-.97,0-1.96-.14-2.96-.06-.4-.13-.79-.22-1.18l2.27-.6-.19-.72c-.49-1.85-2.14-4.48-2.15-4.52l-.38-.61-1.86,1.21c-.48-.67-1-1.3-1.57-1.87l1.89-2.04-.52-.52c-.68-.67-1.68-1.31-2.54-1.81-.85-.5-1.55-.85-1.55-.85l-.62-.31-1.2,2.5c-.87-.35-1.77-.62-2.7-.78l.55-2.58-.7-.16c-.91-.2-2.08-.19-3.06-.15-.98,.04-1.74,.13-1.75,.13l-.69,.08,.24,2.85c-1.06,.26-2.07,.64-3.01,1.13l-.8-2.75-.68,.23c-1.74,.6-4.15,2.47-4.19,2.49l-.56,.43,2,3.02c-.65,.77-1.22,1.62-1.69,2.52l-2.83-1.63-.34,.66c-.44,.87-.76,2.04-.99,3.04-.23,.99-.37,1.79-.37,1.8l-.12,.71,3.02,.63c-.15,1.26-.15,2.56,.03,3.87l-2.83,.23,.07,.75c.01,.11,.02,.23,.04,.35,.28,1.88,1.35,4.45,1.35,4.48l.27,.67,2.86-1.21c.34,.61,.73,1.2,1.15,1.75l-1.76,1.14,.39,.63c1,1.61,3.33,3.59,3.35,3.63l.53,.46,1.76-2.15c1.09,.61,2.26,1.06,3.48,1.34l-.46,2.15,.7,.16c.92,.2,2.08,.19,3.07,.15,.98-.04,1.74-.13,1.75-.13l.69-.08-.18-2.16h0Zm5.85-22.03c-.8,.44-2.18,1.1-3.27,1.26-.7,.12-1.15,0-1.27-.13-.1-.09-.16-.17-.21-.46-.1-.53,.14-1.61,.48-2.47,.16-.43,.34-.82,.47-1.08,0-.01,.01-.02,.02-.03,.72,.34,1.4,.76,2.03,1.25,.63,.49,1.22,1.05,1.75,1.68h0Zm.63,14.83c-1.15,1.64-2.7,2.96-4.53,3.8v-.02c-.17-.38-.9-2.2-1.13-3.82-.09-.62-.11-1.21-.03-1.63,.08-.43,.2-.63,.33-.75,.11-.09,.27-.17,.54-.22,.79-.16,2.33,.26,3.55,.82,.62,.27,1.17,.56,1.56,.77,.1,.06,.19,.11,.27,.15-.18,.3-.37,.6-.57,.89h0Zm-10.15-15.81c-.13,.58-.3,1.11-.47,1.4-.05,.1-.1,.17-.14,.21-.03-.01-.07-.03-.12-.06-.48-.25-1.36-1.32-1.95-2.31-.29-.47-.54-.92-.72-1.25,.88-.4,1.82-.69,2.81-.85,.32-.05,.64-.08,.96-.11-.03,.57-.12,1.86-.37,2.97h0Zm-5.59,2.57c.8,.83,1.44,1.88,1.47,2.34,.02,.14,0,.2-.01,.25,0,0,0,0,0,0,0,.02-.25,.2-.74,.27-.84,.14-2.15,.01-3.2-.19-.53-.1-.99-.2-1.33-.29-.05-.01-.1-.02-.14-.04,.37-1.12,.91-2.18,1.57-3.13,.21-.3,.43-.58,.66-.86,.42,.35,1.09,.94,1.72,1.62h0Zm-4.45,8.02s.04-.01,.06-.02c.38-.13,1.32-.43,2.34-.59,.8-.13,1.65-.16,2.26-.03,.3,.06,.54,.16,.71,.27,.16,.11,.26,.22,.34,.39,.04,.07,.05,.13,.06,.2,.04,.19-.04,.58-.4,1.11-.52,.79-1.53,1.68-2.4,2.32-.44,.32-.84,.58-1.12,.77-.08,.05-.15,.09-.21,.13-.81-1.34-1.38-2.87-1.62-4.55h0Zm5.28,8.3c.29-.54,.87-1.52,1.57-2.42,.8-1.06,1.83-1.88,2.36-1.92,.14-.02,.25-.01,.37,.02,.25,.08,.45,.24,.69,.69,.23,.44,.42,1.12,.52,1.84,.13,.89,.15,1.84,.13,2.56,0,.36-.03,.66-.04,.87v.07c-2.02-.05-3.94-.66-5.59-1.71h0Zm17.07-9.21c-.69-.07-1.89-.23-2.94-.55-.63-.19-1.2-.44-1.54-.68-.36-.26-.41-.42-.42-.47,0-.02,0-.04,0-.06,.02-.19,.06-.32,.23-.52,.25-.3,.83-.65,1.49-.88,.66-.24,1.39-.39,1.92-.48,.23-.04,.43-.06,.56-.08,.13-.02,.19-.02,.19-.02l.21-.02c.09,.36,.16,.73,.21,1.11,.13,.89,.16,1.78,.1,2.64Z"/>
  <path class="h" d="M129.04,178.89c0,1.85-1.43,3.35-3.2,3.35s-3.2-1.5-3.2-3.35,1.43-3.35,3.2-3.35,3.2,1.5,3.2,3.35Z"/>
  <path class="at"
        d="M144.32,140.27c0,1.85-1.43,3.35-3.2,3.35-1.77,0-3.2-1.5-3.2-3.35s1.43-3.35,3.2-3.35c1.77,0,3.2,1.5,3.2,3.35Z"/>
  <path class="ad"
        d="M115.06,142.14c-1.1,.61-2.46,.17-3.05-.98-.58-1.15-.16-2.58,.94-3.19,1.1-.61,2.46-.17,3.05,.98,.58,1.15,.16,2.58-.94,3.19Z"/>
  <path class="a`"
        d="M156.63,161.35c0,1.93-1.49,3.49-3.33,3.49s-3.33-1.56-3.33-3.49,1.49-3.49,3.33-3.49c1.84,0,3.33,1.56,3.33,3.49Z"/>
  <path class="av"
        d="M158.11,171.13c0,1.93-1.49,3.49-3.33,3.49-1.84,0-3.33-1.56-3.33-3.49s1.49-3.49,3.33-3.49,3.33,1.56,3.33,3.49Z"/>
  <path class="au"
        d="M159.59,180.28c0,1.93-1.49,3.49-3.33,3.49-1.84,0-3.33-1.56-3.33-3.49s1.49-3.49,3.33-3.49c1.84,0,3.33,1.56,3.33,3.49Z"/>
  <path class="aj"
        d="M161.22,189.9c0,1.93-1.49,3.49-3.33,3.49s-3.33-1.56-3.33-3.49,1.49-3.49,3.33-3.49c1.84,0,3.33,1.56,3.33,3.49Z"/>
  <path class="c"
        d="M94.69,151.33c1.56-2.06,2.59-5.03,2.59-8.35,0-3.32-1.02-6.28-2.59-8.35-1.58-2.07-3.59-3.21-5.75-3.21-1.66,0-3.23,.68-4.59,1.93,.09,0,.18,0,.28,0,5.15,0,9.32,4.37,9.32,9.77s-4.16,9.75-9.29,9.77c1.29,1.08,2.75,1.66,4.28,1.66,2.16,0,4.17-1.14,5.75-3.21Z"/>
  <path class="v"
        d="M78.31,136.1s4.3-3.62,10.25-1.57c5.27,1.82,5.38,8.59,5.38,8.59,.19,4.59-3,7.54-5,8.59-2,1.05-4.75,1.84-7.88,.79l-13.63,1.97-1.87-16.81,12.75-1.55Z"/>
  <path class="c"
        d="M58.3,146c0-3.44,.97-6.58,2.56-8.97-1.27,.52-2.4,1.31-3.32,2.32-.75,2.03-1.16,4.28-1.16,6.65,0,2.55,.48,4.96,1.33,7.1,.96,.98,2.11,1.75,3.4,2.23-1.74-2.43-2.81-5.72-2.81-9.33Z"/>
  <path class="c"
        d="M61.12,155.33c.98,.36,2.03,.56,3.13,.56h.03c-.52-.44-1.01-.95-1.47-1.55-1.56-2.06-2.59-5.03-2.59-8.35,0-3.32,1.02-6.28,2.59-8.35,.36-.48,.75-.91,1.16-1.28-1.09,.03-2.13,.26-3.1,.66-1.6,2.39-2.56,5.53-2.56,8.97,0,3.62,1.07,6.9,2.81,9.33Z"/>
  <path class="g"
        d="M70.55,142.1c0,1.82-1.41,3.3-3.15,3.3-1.74,0-3.15-1.48-3.15-3.3s1.41-3.3,3.15-3.3,3.15,1.48,3.15,3.3Z"/>
  <path class="j"
        d="M144.28,64.77s17-4.93,20.8,9.27c3.91,14.55-9.63,20.09-12.47,20.47-4.27,.56-9.53-.38-13.22-11.3-3.28-9.72-1.49-15.97,4.88-18.44Z"/>
  <path class="g"
        d="M152.98,70.65c0,1.77-1.37,3.2-3.05,3.2s-3.05-1.43-3.05-3.2,1.37-3.2,3.05-3.2c1.69,0,3.05,1.43,3.05,3.2Z"/>
  <path class="g"
        d="M141.91,71.76c.41,1.71,2.08,2.75,3.71,2.31,1.63-.44,2.62-2.18,2.2-3.89-.42-1.71-2.08-2.75-3.71-2.31-1.63,.44-2.62,2.18-2.2,3.89Z"/>
  <path class="g"
        d="M156.65,71.96c.23,.96,1.17,1.55,2.09,1.3,.92-.25,1.47-1.23,1.24-2.19-.23-.96-1.17-1.55-2.09-1.3-.92,.25-1.47,1.23-1.24,2.19Z"/>
  <path class="x"
        d="M141.58,61.48s-7.12-9.14-20.11-9.7c-12.99-.56-25.45,3.36-30.62,6.53-5.16,3.17-11.21,7.46-11.75,15.68-.53,8.21-3.92,23.33,3.03,46.46l14.69,2.14s-12.55-70.63,44.76-61.11Z"/>
  <path class="ai"
        d="M151.07,111.9s-1.87-35.25-6.54-46.02c-4.67-10.77-17.93-7.25-25.4-5.68-7.47,1.57-24.84,2.35-24.84,17.43s.75,30.94,4.11,43.87c0,0,25.59-11.95,52.68-9.6Z"/>
  <path class="w"
        d="M151.07,111.9s-1.87-35.25-6.54-46.02c-4.67-10.77-17.93-7.25-25.4-5.68-7.47,1.57-24.84,2.35-24.84,17.43s.75,30.94,4.11,43.87c0,0,25.59-11.95,52.68-9.6Z"/>
  <path class="an"
        d="M116.74,79.76c0,5.76-4.46,10.44-9.96,10.44-5.5,0-9.96-4.67-9.96-10.44s4.46-10.44,9.96-10.44c5.5,0,9.96,4.67,9.96,10.44Z"/>
  <path class="an"
        d="M117.5,79.53c0,5.76-4.46,10.44-9.96,10.44-5.5,0-9.96-4.67-9.96-10.44s4.46-10.44,9.96-10.44c5.5,0,9.96,4.67,9.96,10.44Z"/>
  <path class="an"
        d="M118.48,79.18c0,5.76-4.46,10.44-9.96,10.44-5.5,0-9.96-4.67-9.96-10.44s4.46-10.44,9.96-10.44c5.5,0,9.96,4.67,9.96,10.44Z"/>
  <path class="l"
        d="M142.27,75.1c0,6.19-4.79,11.21-10.7,11.21s-10.7-5.02-10.7-11.21c0-6.19,4.79-11.21,10.7-11.21s10.7,5.02,10.7,11.21Z"/>
  <path class="am"
        d="M142.27,75.1c0,6.19-4.79,11.21-10.7,11.21s-10.7-5.02-10.7-11.21,4.79-11.21,10.7-11.21,10.7,5.02,10.7,11.21Z"/>
  <path class="af"
        d="M143.08,74.86c0,6.19-4.79,11.21-10.7,11.21s-10.7-5.02-10.7-11.21,4.79-11.22,10.7-11.22,10.7,5.02,10.7,11.22Z"/>
  <path class="af"
        d="M144.14,74.49c0,6.19-4.79,11.21-10.7,11.21-5.91,0-10.7-5.02-10.7-11.21s4.79-11.21,10.7-11.21,10.7,5.02,10.7,11.21Z"/>
  <path class="q"
        d="M103.03,97.15s8.6,5.02,20.67,3.31c12.08-1.71,17.95-10.38,17.95-10.38l.87,11.29s-4.24,8.33-18.28,9.92c-14.04,1.6-19.8-3.54-19.8-3.54l-1.41-10.61Z"/>
  <path class="s"
        d="M125.66,103.08c0,.76-.58,1.37-1.3,1.37-.72,0-1.31-.61-1.31-1.37s.59-1.37,1.31-1.37c.72,0,1.3,.61,1.3,1.37Z"/>
  <path class="y"
        d="M103.57,97.49s8.6,5.02,20.67,3.31c12.08-1.71,17.95-10.38,17.95-10.38l.87,11.29s-4.24,8.33-18.28,9.92c-14.04,1.6-19.8-3.54-19.8-3.54l-1.42-10.61Z"/>
  <polygon class="ag" points="123.81 103.43 114.56 108.67 114.23 109.24 115.11 109.36 124.14 103.88 123.81 103.43"/>
  <path class="s"
        d="M128.38,92.47c0,2.77-2.14,5.02-4.79,5.02-2.64,0-4.79-2.25-4.79-5.02s2.14-5.02,4.79-5.02,4.79,2.25,4.79,5.02Z"/>
  <path class="ab"
        d="M128.38,92.47c0,2.77-2.14,5.02-4.79,5.02-2.64,0-4.79-2.25-4.79-5.02s2.14-5.02,4.79-5.02,4.79,2.25,4.79,5.02Z"/>
  <path class="g"
        d="M145.35,74.39c0,6.14-4.75,11.12-10.61,11.12-5.86,0-10.61-4.98-10.61-11.12,0-6.14,4.75-11.12,10.61-11.12s10.61,4.98,10.61,11.12Z"/>
  <path class="d"
        d="M145.35,74.39c0,6.14-4.75,11.12-10.61,11.12-5.86,0-10.61-4.98-10.61-11.12s4.75-11.12,10.61-11.12,10.61,4.98,10.61,11.12Z"/>
  <path class="ah"
        d="M143.83,71.83c0,4.1-3.17,7.42-7.07,7.42s-7.07-3.32-7.07-7.42,3.17-7.41,7.07-7.41c3.91,0,7.07,3.32,7.07,7.41Z"/>
  <path class="p"
        d="M139.99,71.73c0,1.82-1.41,3.29-3.14,3.29s-3.14-1.47-3.14-3.29,1.4-3.29,3.14-3.29,3.14,1.47,3.14,3.29Z"/>
  <path class="ao"
        d="M118.59,78.67c0,5.48-4.24,9.92-9.47,9.92-5.23,0-9.47-4.44-9.47-9.92s4.24-9.92,9.47-9.92c5.23,0,9.47,4.44,9.47,9.92Z"/>
  <path class="u"
        d="M117.23,76.38c0,3.65-2.83,6.62-6.31,6.62-3.49,0-6.31-2.96-6.31-6.62s2.83-6.62,6.31-6.62c3.49,0,6.31,2.96,6.31,6.62Z"/>
  <path class="b" d="M113.8,76.29c0,1.62-1.25,2.94-2.8,2.94s-2.8-1.31-2.8-2.94,1.25-2.94,2.8-2.94,2.8,1.31,2.8,2.94Z"/>
  <path class="g"
        d="M140.78,68.69c0,.79-.61,1.43-1.36,1.43s-1.36-.64-1.36-1.43,.61-1.43,1.36-1.43c.75,0,1.36,.64,1.36,1.43Z"/>
  <path class="g" d="M135.78,74.85c0,.54-.41,.97-.93,.97-.51,0-.92-.43-.92-.97s.41-.97,.92-.97c.51,0,.93,.43,.93,.97Z"/>
  <path class="g"
        d="M114.13,73.14c0,.72-.56,1.31-1.25,1.31-.69,0-1.25-.59-1.25-1.31s.56-1.31,1.25-1.31,1.25,.59,1.25,1.31Z"/>
  <path class="g" d="M109.52,78.81c0,.49-.38,.89-.85,.89s-.85-.4-.85-.89,.38-.89,.85-.89c.47,0,.85,.4,.85,.89Z"/>
  <path class="m"
        d="M79.11,75.29s2.31-2.99,5.87-2.99,10.15,5.23,9.26,18.1c-.89,12.88-5.16,18.1-9.08,18.66-3.92,.56-4.27-1.87-4.63-2.99-.36-1.12,7.12,1.68,8.54-13.99,1.42-15.67-8.19-19.59-9.97-16.79Z"/>
  <path class="r"
        d="M80,75.48s-17.63-.38-17.98,14.37c-.36,15.12,14.06,16.98,16.91,16.61,4.27-.56,9.14-2.83,10.15-14.37,.89-10.26-2.31-15.86-9.08-16.61Z"/>
  <path class="g" d="M82.17,83.85c0,2.21-1.71,4-3.82,4s-3.81-1.79-3.81-4,1.71-4,3.81-4c2.11,0,3.82,1.79,3.82,4Z"/>
  <path class="g"
        d="M69.7,85.65c0,.99-.77,1.8-1.72,1.8-.95,0-1.72-.81-1.72-1.8s.77-1.8,1.72-1.8c.95,0,1.72,.81,1.72,1.8Z"/>
  <path class="aa"
        d="M123.7,46.6c-.18-1.8-1.4-3.35-3.3-4.51-1.3,4.44-5.84,8.05-11.57,8.68-5.63,.62-10.71-1.81-12.93-5.74-1.46,1.49-2.23,3.18-2.06,4.89,.46,4.57,7.52,7.54,15.77,6.63,8.25-.92,14.56-5.37,14.1-9.94Z"/>
  <path class="s"
        d="M103.53,14.76s-12.7,.48-7.18,27.01c0,0,2.02,10.26,13.02,8.53,11-1.73,11-7.59,9.92-11.48-1.08-3.89-2.85-26.31-15.76-24.05Z"/>
  <path class="n"
        d="M103.53,14.76s-12.7,.48-7.18,27.01c0,0,2.02,10.26,13.02,8.53,11-1.73,11-7.59,9.92-11.48-1.08-3.89-2.85-26.31-15.76-24.05Z"/>
  <path class="g"
        d="M109.83,21.78c.21,2.08-1.23,3.95-3.22,4.17-1.99,.22-3.77-1.29-3.98-3.37-.21-2.08,1.23-3.95,3.22-4.17,1.99-.22,3.77,1.29,3.98,3.37Z"/>
  <path class="g"
        d="M113.18,29.16c.12,1.19-.7,2.26-1.84,2.39-1.14,.13-2.16-.74-2.28-1.93-.12-1.19,.7-2.26,1.84-2.39,1.14-.13,2.16,.74,2.28,1.93Z"/>
  <polygon class="g" points="112.2 9.64 114.07 1.97 118.48 4.04 114.54 10.33 112.2 9.64"/>
  <polygon class="g" points="121.5 14.67 127.22 8.08 129.66 11.91 122.82 16.24 121.5 14.67"/>
  <polygon class="g" points="126.19 23.55 133.98 22.37 134.26 27.09 126.76 26.79 126.19 23.55"/>
  <path class="g" d="M104.56,8.55c-.28,0-2.06-8.55-2.06-8.55l-4.5,1.77,3.28,7.67,3.28-.88Z"/>
  <polygon class="g" points="91.97 14.75 83.62 8.36 82.02 12.29 90.46 16.91 91.97 14.75"/>
  <polygon class="g" points="87.24 26.15 80.11 24.77 79.64 28.8 86.96 29.39 87.24 26.15"/>
  <polygon class="g" points="88.32 38.15 80.68 40.56 81.87 44.71 88.98 41.32 88.32 38.15"/>
  <polygon class="g" points="129.22 34.14 136.48 34.1 135.74 37.98 128.85 37.07 129.22 34.14"/>
  <path class="al"
        d="M100.63,127.41c-.52,1.48-1.83,2.34-2.92,1.92-1.09-.42-1.55-1.97-1.02-3.45,.52-1.48,1.83-2.34,2.92-1.91,1.09,.42,1.55,1.96,1.02,3.45Z"/>
  <path class="ap"
        d="M99.98,127.04c-.46,1.3-1.54,2.07-2.42,1.73-.88-.34-1.22-1.67-.76-2.96,.46-1.3,1.54-2.07,2.42-1.73,.88,.34,1.22,1.67,.76,2.96Z"/>
  <path class="al"
        d="M152,205.11c-.37,1.53-1.58,2.53-2.71,2.23-1.12-.3-1.74-1.78-1.37-3.31,.37-1.53,1.58-2.53,2.71-2.23,1.13,.3,1.74,1.78,1.37,3.31Z"/>
  <path class="ap"
        d="M151.32,204.81c-.32,1.34-1.32,2.23-2.23,1.99-.91-.24-1.38-1.52-1.06-2.86,.32-1.34,1.32-2.23,2.23-1.99,.91,.24,1.38,1.52,1.06,2.86Z"/>
  <path class="al"
        d="M149.2,218c-.37,1.53-1.58,2.53-2.71,2.23-1.13-.3-1.74-1.78-1.37-3.31,.37-1.53,1.58-2.53,2.71-2.23,1.13,.3,1.74,1.78,1.37,3.31Z"/>
  <path class="ap"
        d="M148.52,217.7c-.32,1.34-1.32,2.23-2.23,1.99-.91-.24-1.38-1.52-1.06-2.86,.32-1.34,1.32-2.23,2.23-1.99,.91,.24,1.38,1.52,1.06,2.86Z"/>
  <path class="al"
        d="M109.31,212.42c.43,1.51-.11,3.02-1.23,3.37-1.11,.35-2.36-.59-2.8-2.1-.43-1.51,.11-3.02,1.23-3.37,1.11-.35,2.37,.59,2.8,2.1Z"/>
  <path class="ap"
        d="M108.58,212.53c.38,1.32-.04,2.63-.94,2.91-.9,.28-1.93-.56-2.31-1.88-.38-1.32,.04-2.62,.94-2.91,.9-.28,1.93,.56,2.31,1.88Z"/>
  <path class="al"
        d="M113.2,224.5c.43,1.51-.12,3.02-1.23,3.37-1.11,.35-2.37-.59-2.8-2.1-.44-1.51,.11-3.02,1.23-3.37,1.11-.35,2.37,.59,2.8,2.1Z"/>
  <path class="ap"
        d="M112.47,224.61c.38,1.32-.04,2.63-.94,2.91-.9,.28-1.93-.56-2.31-1.88-.38-1.32,.04-2.62,.94-2.91,.9-.28,1.93,.56,2.31,1.88Z"/>
  <path class="f"
        d="M98.42,190.46c.42,1.82-.54,3.7-2.24,4.22h0c-1.7,.52-3.52-.65-3.98-2.63-1.56-6.71-2.32-13.61-2.26-20.52,.02-2.04,1.54-3.61,3.31-3.51h0c1.76,.1,3.11,1.7,3.1,3.57-.06,7.63,.36,11.46,2.08,18.88Z"/>
  <path class="ak"
        d="M89.69,164.84c.04,.4-.01,.76-.17,1.07-.1,.21-.26,.36-.48,.47-.12,.06-.25,.09-.41,.11-.29,.03-.55-.03-.76-.18-.18-.12-.32-.3-.44-.53-.12-.23-.2-.5-.24-.81l.71-.14c.06,.34,.16,.57,.3,.71,.1,.11,.21,.15,.33,.13,.16-.02,.29-.13,.37-.32,.04-.1,.05-.23,.04-.39-.02-.24-.14-.47-.35-.69-.16-.15-.41-.37-.74-.67-.28-.26-.48-.49-.6-.7-.14-.24-.22-.5-.25-.8-.05-.53,.06-.95,.34-1.25,.17-.18,.4-.29,.68-.32,.27-.03,.5,.02,.71,.14,.16,.09,.29,.23,.4,.42,.11,.18,.19,.4,.23,.66l-.71,.23c-.04-.24-.12-.42-.23-.54-.08-.09-.18-.13-.31-.11-.14,.01-.23,.1-.29,.25-.05,.12-.06,.27-.05,.44,.03,.27,.15,.53,.37,.78,.08,.1,.21,.21,.37,.34,.19,.15,.32,.26,.38,.32,.21,.2,.37,.39,.49,.59,.06,.09,.11,.18,.14,.26,.09,.2,.15,.38,.16,.54Z"/>
  <polygon class="ak"
           points="90.73 161.21 89.93 161.3 89.84 160.42 92.19 160.17 92.28 161.05 91.48 161.14 91.95 166.07 91.2 166.14 90.73 161.21"/>
  <path class="ak"
        d="M93.95,159.91c.33-.03,.63,.07,.89,.32,.26,.25,.41,.56,.44,.95l.3,3.17c.04,.39-.05,.73-.26,1.02-.21,.3-.48,.46-.8,.49-.33,.04-.63-.07-.88-.32-.26-.25-.4-.56-.44-.95l-.3-3.17c-.04-.39,.05-.73,.26-1.02,.21-.29,.47-.46,.8-.49h0Zm.54,1.33c-.01-.14-.07-.25-.16-.34-.09-.09-.2-.13-.32-.11-.12,.01-.22,.07-.29,.18-.08,.11-.11,.23-.09,.37l.3,3.18c.01,.14,.07,.25,.16,.34,.09,.09,.2,.13,.32,.11,.12-.01,.22-.07,.29-.18,.07-.1,.1-.23,.09-.37l-.3-3.18Z"/>
  <path class="ak"
        d="M97.06,159.66c.37-.04,.67,.06,.91,.31,.23,.24,.36,.55,.4,.95l.08,.84c.04,.38-.05,.72-.25,1.02-.2,.29-.47,.46-.79,.5l-.43,.04,.21,2.19-.75,.08-.55-5.81,1.19-.12h0Zm.58,1.35c-.01-.15-.07-.27-.15-.35-.09-.08-.2-.12-.33-.11l-.45,.05,.18,1.86,.45-.05c.12-.01,.22-.07,.29-.18,.07-.11,.1-.23,.09-.37l-.08-.85Z"/>
  <path class="e"
        d="M95.76,180.68l-16.17,6.36s-3.14,1.39-2.29,3.74c.85,2.35,2.12,3.26,4.29,2.54,2.17-.72,15.11-6.34,15.11-6.34,0,0-.29-1.66-.95-6.3Z"/>
  <path class="k"
        d="M96.47,181.62l-15.77,6.25s-3.14,1.39-2.29,3.74c.85,2.35,2.13,3.26,4.29,2.54,2.17-.72,14.77-6.23,14.77-6.23,0,0-.49-1.5-1-6.3Z"/>
</svg>
