<?xml version="1.0" encoding="UTF-8"?>
<svg id="a" viewBox="0 0 1520 534.14" xmlns="http://www.w3.org/2000/svg">
  <defs>
    <style>.f, .g, .h, .i, .j {
      isolation: isolate;
    }

    .f, .h {
      opacity: .59;
    }

    .f, .k, .j {
      fill: #00a0c6;
    }

    .l, .i {
      opacity: .37;
    }

    .g, .i {
      fill: #008aff;
    }

    .g, .m {
      opacity: .1;
    }

    .n {
      fill: #a8cadb;
    }

    .o {
      opacity: .4;
    }

    .h, .p {
      fill: #00c85b;
    }

    .q {
      opacity: .06;
    }

    .j {
      opacity: .28;
    }

    .r {
      opacity: .2;
    }

    .s {
      fill: #f4f8f9;
    }</style>
  </defs>
  <g id="b">
    <g id="c">
      <path class="s"
            d="M1520,162C1361.34,108.1,1076.18,8.33,1063.97,5.88c-18.87-3.79-26.93,3.06-42.85,11.23,0,0-327.08,216.88-352.08,237.92-33.59,28.28-26.9,50.82,.3,90.88l141.67,188.22H1.62V0H1520V162Z"
            id="d"/>
    </g>
  </g>
  <g class="l" id="e">
    <path class="n"
          d="M270.35,338.99v-.69c1.26,0,2.53-.03,3.79-.09l.04,.69c-1.27,.06-2.56,.09-3.83,.09h0Zm-3.83-.08c-1.27-.06-2.56-.14-3.82-.25l.08-.68c1.25,.11,2.52,.2,3.78,.25l-.04,.69h0Zm11.47-.28l-.08-.68c1.26-.11,2.52-.26,3.76-.43l.11,.68c-1.25,.17-2.53,.32-3.8,.43h0Zm-19.08-.41c-1.26-.17-2.52-.37-3.77-.59l.15-.67c1.23,.22,2.49,.42,3.73,.59l-.11,.68h0Zm26.64-.63l-.15-.67c1.23-.23,2.48-.48,3.69-.76l.19,.67c-1.23,.28-2.48,.54-3.73,.77h0Zm-34.15-.74c-1.24-.28-2.48-.6-3.69-.93l.22-.66c1.2,.33,2.42,.64,3.65,.92l-.19,.67h.01Zm41.56-.98l-.23-.66c1.21-.34,2.41-.71,3.59-1.09l.26,.65c-1.19,.39-2.41,.76-3.63,1.1h.01Zm-48.87-1.05c-1.2-.39-2.4-.82-3.56-1.26l.3-.63c1.15,.44,2.34,.86,3.53,1.25l-.26,.65h-.01Zm56.06-1.33l-.3-.63c1.15-.44,2.31-.92,3.45-1.41l.33,.62c-1.15,.5-2.32,.98-3.49,1.43h0Zm-63.11-1.37c-1.15-.5-2.29-1.03-3.4-1.58l.36-.6c1.1,.54,2.24,1.07,3.37,1.56l-.33,.62Zm70-1.65l-.37-.6c1.1-.54,2.2-1.12,3.28-1.72l.4,.59c-1.09,.6-2.2,1.19-3.31,1.74h0Zm-76.71-1.67c-1.08-.6-2.16-1.23-3.21-1.88l.43-.57c1.04,.64,2.11,1.27,3.18,1.86l-.4,.59h0Zm83.23-1.96l-.43-.57c1.04-.64,2.07-1.32,3.07-2.01l.46,.55c-1.01,.69-2.05,1.38-3.1,2.03h0Zm-89.54-1.94c-1.01-.7-2.02-1.42-2.99-2.16l.49-.53c.96,.73,1.96,1.45,2.96,2.14l-.46,.55Zm95.62-2.25l-.49-.53c.95-.73,1.91-1.49,2.83-2.27l.52,.5c-.93,.79-1.9,1.56-2.86,2.3Zm-101.48-2.2c-.68-.57-1.35-1.16-2.02-1.76l-.72-.65,.54-.49,.72,.65c.66,.59,1.32,1.17,2,1.74l-.52,.5h0Zm107.07-2.5l-.54-.49,2.69-2.43,.54,.49-2.69,2.43Zm-112.5-2.33l-2.69-2.43,.54-.49,2.69,2.43-.54,.49Zm117.88-2.53l-.54-.49,2.69-2.43,.54,.49-2.69,2.43Zm-123.27-2.33l-2.69-2.43,.54-.49,2.69,2.43-.54,.49Zm128.66-2.53l-.54-.49,2.69-2.43,.54,.49-2.69,2.43Zm-134.04-2.33l-2.69-2.43,.54-.49,2.69,2.43-.54,.49Zm139.43-2.53l-.54-.49,2.69-2.43,.54,.49-2.69,2.43Zm-144.81-2.33l-2.69-2.43,.54-.49,2.69,2.43-.54,.49Zm150.2-2.53l-.54-.49,2.69-2.43,.54,.49-2.69,2.43Zm-155.58-2.33l-2.69-2.43,.54-.49,2.69,2.43-.54,.49Zm160.97-2.53l-.54-.49,2.69-2.43,.54,.49-2.69,2.43Zm-166.36-2.33l-2.69-2.43,.54-.49,2.69,2.43-.54,.49Zm171.74-2.53l-.54-.49,2.69-2.43,.54,.49-2.69,2.43Zm-177.13-2.33l-2.69-2.43,.54-.49,2.69,2.43-.54,.49Zm182.51-2.53l-.54-.49,2.69-2.43,.54,.49-2.69,2.43Zm-187.9-2.33l-2.69-2.43,.54-.49,2.69,2.43-.54,.49Zm193.28-2.53l-.54-.49,2.69-2.43,.54,.49-2.69,2.43Zm-198.67-2.33l-2.69-2.43,.54-.49,2.69,2.43-.54,.49Zm204.05-2.53l-.54-.49,2.69-2.43,.54,.49-2.69,2.43Zm-209.44-2.33l-2.69-2.43,.54-.49,2.69,2.43-.54,.49Zm214.83-2.53l-.54-.49,2.69-2.43,.54,.49-2.69,2.43Zm-220.21-2.33l-2.69-2.43,.54-.49,2.69,2.43-.54,.49Zm225.6-2.53l-.54-.49,2.69-2.43,.54,.49-2.69,2.43Zm-230.98-2.33l-2.69-2.43,.54-.49,2.69,2.43-.54,.49Zm236.37-2.53l-.54-.49,2.69-2.43,.54,.49-2.69,2.43Zm-241.75-2.33l-2.69-2.43,.54-.49,2.69,2.43-.54,.49Zm247.14-2.53l-.54-.49,2.69-2.43,.54,.49-2.69,2.43Zm-252.53-2.33l-2.69-2.43,.54-.49,2.69,2.43-.54,.49Zm257.91-2.53l-.54-.49,2.69-2.43,.54,.49-2.69,2.43Zm-263.3-2.33l-2.69-2.43,.54-.49,2.69,2.43-.54,.49Zm268.68-2.53l-.54-.49,2.69-2.43,.54,.49-2.69,2.43Zm-274.07-2.33l-2.69-2.43,.54-.49,2.69,2.43-.54,.49Zm279.45-2.53l-.54-.49,2.69-2.43,.54,.49-2.69,2.43Zm-284.84-2.33l-2.69-2.43,.54-.49,2.69,2.43-.54,.49Zm290.22-2.53l-.54-.49,2.69-2.43,.54,.49-2.69,2.43Zm-295.61-2.33l-2.69-2.43,.54-.49,2.69,2.43-.54,.49Zm301-2.53l-.54-.49,2.69-2.43,.54,.49-2.69,2.43Zm-306.38-2.33l-2.69-2.43,.54-.49,2.69,2.43-.54,.49Zm311.77-2.53l-.54-.49,2.69-2.43,.54,.49-2.69,2.43Zm-317.15-2.33l-2.69-2.43,.54-.49,2.69,2.43-.54,.49Zm322.54-2.53l-.54-.49,2.69-2.43,.54,.49-2.69,2.43Zm-327.92-2.33l-2.69-2.43,.54-.49,2.69,2.43-.54,.49Zm333.31-2.53l-.54-.49,2.69-2.43,.54,.49-2.69,2.43Zm-338.7-2.33l-2.69-2.43,.54-.49,2.69,2.43-.54,.49Zm344.08-2.53l-.54-.49,2.69-2.43,.54,.49-2.69,2.43Zm-349.47-2.33l-2.69-2.43,.54-.49,2.69,2.43-.54,.49Zm354.85-2.53l-.54-.49,2.69-2.43,.54,.49-2.69,2.43Zm-360.24-2.33l-2.69-2.43,.54-.49,2.69,2.43-.54,.49Zm365.62-2.53l-.54-.49,2.69-2.43,.54,.49-2.69,2.43Zm-371.01-2.33l-2.69-2.43,.54-.49,2.69,2.43-.54,.49Zm376.4-2.53l-.54-.49,2.69-2.43,.54,.49-2.69,2.43Zm-381.78-2.33l-2.69-2.43,.54-.49,2.69,2.43-.54,.49Zm387.17-2.53l-.54-.49,2.69-2.43,.54,.49-2.69,2.43Zm-392.55-2.33l-2.69-2.43,.54-.49,2.69,2.43-.54,.49Zm397.94-2.53l-.54-.49,2.69-2.43,.54,.49-2.69,2.43Zm-403.32-2.33l-2.69-2.43,.54-.49,2.69,2.43-.54,.49Zm408.71-2.53l-.54-.49,2.69-2.43,.54,.49-2.69,2.43Zm-414.09-2.33l-2.69-2.43,.54-.49,2.69,2.43-.54,.49Zm419.48-2.53l-.54-.49,2.69-2.43,.54,.49-2.69,2.43Zm-424.87-2.33l-2.69-2.43,.54-.49,2.69,2.43-.54,.49Zm430.25-2.53l-.54-.49,2.69-2.43,.54,.49-2.69,2.43Zm-435.64-2.33l-2.69-2.43,.54-.49,2.69,2.43-.54,.49Zm441.02-2.53l-.54-.49,2.69-2.43,.54,.49-2.69,2.43Zm-446.41-2.33l-2.69-2.43,.54-.49,2.69,2.43-.54,.49Zm451.79-2.53l-.54-.49,2.69-2.43,.54,.49-2.69,2.43Zm-457.18-2.33l-2.69-2.43,.54-.49,2.69,2.43-.54,.49Zm462.57-2.53l-.54-.49,2.69-2.43,.54,.49-2.69,2.43Zm-467.95-2.33l-2.69-2.43,.54-.49,2.69,2.43-.54,.49Zm473.34-2.53l-.54-.49,2.69-2.43,.54,.49-2.69,2.43Zm-478.72-2.33l-2.69-2.43,.54-.49,2.69,2.43-.54,.49Zm484.11-2.53l-.54-.49,2.69-2.43,.54,.49-2.69,2.43Zm-489.49-2.33l-2.69-2.43,.54-.49,2.69,2.43-.54,.49Zm494.88-2.53l-.54-.49,2.69-2.43,.54,.49-2.69,2.43Zm-500.26-2.33l-2.69-2.43,.54-.49,2.69,2.43-.54,.49Zm505.65-2.53l-.54-.49,2.69-2.43,.54,.49-2.69,2.43Zm-511.04-2.33l-2.69-2.43,.54-.49,2.69,2.43-.54,.49Zm516.42-2.53l-.54-.49,2.69-2.43,.54,.49-2.69,2.43ZM8.08,130.88l-2.69-2.43,.54-.49,2.69,2.43-.54,.49h0Zm527.19-2.53l-.54-.49,2.69-2.43,.54,.49-2.69,2.43ZM2.69,126.02l-2.69-2.43,.54-.49,2.69,2.43-.54,.49Zm537.96-2.53l-.54-.49,2.69-2.43,.54,.49-2.69,2.43Zm5.39-4.86l-.54-.49,2.69-2.43,.54,.49-2.69,2.43Zm5.39-4.86l-.54-.49,2.69-2.43,.54,.49-2.69,2.43Zm5.39-4.86l-.54-.49,2.69-2.43,.54,.49-2.69,2.43Zm5.39-4.86l-.54-.49,2.69-2.43,.54,.49-2.69,2.43Zm5.39-4.86l-.54-.49,2.69-2.43,.54,.49-2.69,2.43Zm5.39-4.86l-.54-.49,2.69-2.43,.54,.49-2.69,2.43Zm5.39-4.86l-.54-.49,2.69-2.43,.54,.49-2.69,2.43Zm5.39-4.86l-.54-.49,2.69-2.43,.54,.49-2.69,2.43Zm5.39-4.86l-.54-.49,2.69-2.43,.54,.49-2.69,2.43Zm5.39-4.86l-.54-.49,2.69-2.43,.54,.49-2.69,2.43Zm5.39-4.86l-.54-.49,2.69-2.43,.54,.49-2.69,2.43Zm5.39-4.86l-.54-.49,2.69-2.43,.54,.49-2.69,2.43Zm5.39-4.86l-.54-.49,2.69-2.43,.54,.49-2.69,2.43Zm5.39-4.86l-.54-.49,2.69-2.43,.54,.49-2.69,2.43Zm5.39-4.86l-.54-.49,2.69-2.43,.54,.49-2.69,2.43Zm5.39-4.86l-.54-.49,2.69-2.43,.54,.49-2.69,2.43Zm5.39-4.86l-.54-.49,2.69-2.43,.54,.49-2.69,2.43Zm5.39-4.86l-.54-.49,2.69-2.43,.54,.49-2.69,2.43Zm5.39-4.86l-.54-.49,2.69-2.43,.54,.49-2.69,2.43Zm5.39-4.86l-.54-.49,2.69-2.43,.54,.49-2.69,2.43Zm5.39-4.86l-.54-.49,2.69-2.43,.54,.49-2.69,2.43Zm5.39-4.86l-.54-.49,2.69-2.43,.54,.49-2.69,2.43Zm5.39-4.86l-.54-.49,2.69-2.43,.54,.49-2.69,2.43Zm5.39-4.86l-.54-.49,2.01-1.82,.54,.49-2.01,1.82Z"/>
    <path class="n"
          d="M706.8,534.14L377.94,237.2c-29.55-26.68-77.63-26.68-107.17,0l-141.73,127.97c-14.46,13.05-33.68,20.24-54.13,20.24s-39.67-7.19-54.13-20.24L0,346.4l.54-.49,20.78,18.77c14.31,12.92,33.34,20.04,53.59,20.04s39.27-7.12,53.59-20.04l141.73-127.97c29.84-26.95,78.41-26.95,108.25,0l328.87,296.94-.54,.49h-.01Z"/>
    <path class="n"
          d="M302.91,531.39l-.54-.49,258.8-233.67c14.31-12.92,22.2-30.11,22.2-48.38s-7.88-35.46-22.2-48.38L339.69,.49l.54-.49,221.48,199.98c14.46,13.05,22.42,30.41,22.42,48.87s-7.96,35.82-22.42,48.87l-258.8,233.67h0Z"/>
    <polygon class="n" points="101.84 531.39 101.3 530.91 198.03 443.57 198.57 444.05 101.84 531.39"/>
    <path class="n"
          d="M.54,233.6l-.54-.49L134.27,111.88c29.55-26.68,29.55-70.09,0-96.77L118.82,1.16l.54-.49,15.45,13.95c14.46,13.05,22.42,30.41,22.42,48.87s-7.96,35.82-22.42,48.87L.54,233.6Z"/>
    <path class="n"
          d="M787.62,532.16l-2.69-2.43,.54-.49,2.69,2.43-.54,.49Zm-574.59-1.45l-.54-.49,2.69-2.43,.54,.49-2.69,2.43Zm569.2-3.41l-2.69-2.43,.54-.49,2.69,2.43-.54,.49Zm-563.81-1.45l-.54-.49,2.69-2.43,.54,.49-2.69,2.43Zm558.43-3.41l-2.69-2.43,.54-.49,2.69,2.43-.54,.49Zm-553.04-1.45l-.54-.49,2.69-2.43,.54,.49-2.69,2.43Zm547.66-3.41l-2.69-2.43,.54-.49,2.69,2.43-.54,.49Zm-542.27-1.45l-.54-.49,2.69-2.43,.54,.49-2.69,2.43Zm536.89-3.41l-2.69-2.43,.54-.49,2.69,2.43-.54,.49Zm-531.5-1.45l-.54-.49,2.69-2.43,.54,.49-2.69,2.43Zm526.12-3.41l-2.69-2.43,.54-.49,2.69,2.43-.54,.49Zm-520.73-1.45l-.54-.49,2.69-2.43,.54,.49-2.69,2.43Zm515.34-3.41l-2.69-2.43,.54-.49,2.69,2.43-.54,.49Zm-509.96-1.45l-.54-.49,2.69-2.43,.54,.49-2.69,2.43Zm504.57-3.41l-2.69-2.43,.54-.49,2.69,2.43-.54,.49Zm-499.19-1.45l-.54-.49,2.69-2.43,.54,.49-2.69,2.43Zm493.8-3.41l-2.69-2.43,.54-.49,2.69,2.43-.54,.49Zm-488.42-1.45l-.54-.49,2.69-2.43,.54,.49-2.69,2.43Zm483.03-3.41l-2.69-2.43,.54-.49,2.69,2.43-.54,.49Zm-477.64-1.45l-.54-.49,2.69-2.43,.54,.49-2.69,2.43Zm472.26-3.41l-2.69-2.43,.54-.49,2.69,2.43-.54,.49Zm-466.87-1.45l-.54-.49,2.69-2.43,.54,.49-2.69,2.43Zm461.49-3.41l-2.69-2.43,.54-.49,2.69,2.43-.54,.49Zm-456.1-1.45l-.54-.49,2.69-2.43,.54,.49-2.69,2.43Zm450.72-3.41l-2.69-2.43,.54-.49,2.69,2.43-.54,.49Zm-445.33-1.45l-.54-.49,2.69-2.43,.54,.49-2.69,2.43Zm439.94-3.41l-2.69-2.43,.54-.49,2.69,2.43-.54,.49Zm-434.56-1.45l-.54-.49,2.69-2.43,.54,.49-2.69,2.43Zm429.17-3.41l-2.69-2.43,.54-.49,2.69,2.43-.54,.49Zm-423.79-1.45l-.54-.49,2.69-2.43,.54,.49-2.69,2.43Zm418.4-3.41l-2.69-2.43,.54-.49,2.69,2.43-.54,.49Zm-413.02-1.45l-.54-.49,2.69-2.43,.54,.49-2.69,2.43Zm407.63-3.41l-2.69-2.43,.54-.49,2.69,2.43-.54,.49Zm-402.25-1.45l-.54-.49,2.69-2.43,.54,.49-2.69,2.43Zm396.86-3.41l-2.69-2.43,.54-.49,2.69,2.43-.54,.49Zm-391.47-1.45l-.54-.49,2.69-2.43,.54,.49-2.69,2.43Zm386.09-3.41l-2.69-2.43,.54-.49,2.69,2.43-.54,.49Zm-380.7-1.45l-.54-.49,2.69-2.43,.54,.49-2.69,2.43Zm375.32-3.41l-2.69-2.43,.54-.49,2.69,2.43-.54,.49Zm-369.93-1.45l-.54-.49,2.69-2.43,.54,.49-2.69,2.43Zm364.55-3.41l-2.69-2.43,.54-.49,2.69,2.43-.54,.49Zm-359.16-1.45l-.54-.49,2.69-2.43,.54,.49-2.69,2.43Zm353.78-3.41l-2.69-2.43,.54-.49,2.69,2.43-.54,.49Zm-348.39-1.45l-.54-.49,2.69-2.43,.54,.49-2.69,2.43Zm343-3.41l-2.69-2.43,.54-.49,2.69,2.43-.54,.49Zm-337.62-1.45l-.54-.49,2.69-2.43,.54,.49-2.69,2.43Zm332.23-3.41l-2.69-2.43,.54-.49,2.69,2.43-.54,.49Zm-326.85-1.45l-.54-.49,2.69-2.43,.54,.49-2.69,2.43Zm321.46-3.41l-2.69-2.43,.54-.49,2.69,2.43-.54,.49Zm-316.08-1.45l-.54-.49,2.69-2.43,.54,.49-2.69,2.43Zm310.69-3.41l-2.69-2.43,.54-.49,2.69,2.43-.54,.49Zm-305.3-1.45l-.54-.49,2.69-2.43,.54,.49-2.69,2.43Zm299.92-3.41l-2.69-2.43,.54-.49,2.69,2.43-.54,.49Zm-294.53-1.45l-.54-.49,2.69-2.43,.54,.49-2.69,2.43Zm289.15-3.41l-2.69-2.43,.54-.49,2.69,2.43-.54,.49Zm-283.76-1.45l-.54-.49,2.69-2.43,.54,.49-2.69,2.43Zm278.38-3.41l-2.69-2.43,.54-.49,2.69,2.43-.54,.49Zm-272.99-1.45l-.54-.49,2.69-2.43,.54,.49-2.69,2.43Zm267.61-3.41l-2.69-2.43,.54-.49,2.69,2.43-.54,.49Zm-262.22-1.45l-.54-.49,2.69-2.43,.54,.49-2.69,2.43Zm256.83-3.41l-2.69-2.43,.54-.49,2.69,2.43-.54,.49Zm-251.45-1.45l-.54-.49,2.69-2.43,.54,.49-2.69,2.43Zm246.06-3.41l-2.69-2.43,.54-.49,2.69,2.43-.54,.49Zm-240.68-1.45l-.54-.49,2.69-2.43,.54,.49-2.69,2.43Zm235.29-3.41l-2.69-2.43,.54-.49,2.69,2.43-.54,.49Zm-229.91-1.45l-.54-.49,2.69-2.43,.54,.49-2.69,2.43Zm224.52-3.41l-2.69-2.43,.54-.49,2.69,2.43-.54,.49Zm-219.13-1.45l-.54-.49,2.69-2.43,.54,.49-2.69,2.43Zm213.75-3.41l-2.69-2.43,.54-.49,2.69,2.43-.54,.49Zm-208.36-1.45l-.54-.49,2.69-2.43,.54,.49-2.69,2.43Zm202.98-3.41l-2.69-2.43,.54-.49,2.69,2.43-.54,.49Zm-197.59-1.45l-.54-.49,2.69-2.43,.54,.49-2.69,2.43Zm192.21-3.41l-2.69-2.43,.54-.49,2.69,2.43-.54,.49Zm-186.82-1.45l-.54-.49,2.69-2.43,.54,.49-2.69,2.43Zm181.44-3.41l-2.69-2.43,.54-.49,2.69,2.43-.54,.49Zm-176.05-1.45l-.54-.49,2.69-2.43,.54,.49-2.69,2.43Zm170.66-3.41l-2.69-2.43,.54-.49,2.69,2.43-.54,.49Zm-165.28-1.45l-.54-.49,2.69-2.43,.54,.49-2.69,2.43Zm159.89-3.41l-2.69-2.43,.54-.49,2.69,2.43-.54,.49Zm-154.51-1.45l-.54-.49,2.69-2.43,.54,.49-2.69,2.43Zm149.12-3.41l-2.69-2.43,.54-.49,2.69,2.43-.54,.49Zm-143.74-1.45l-.54-.49,2.69-2.43,.54,.49-2.69,2.43Zm138.35-3.41l-2.69-2.43,.54-.49,2.69,2.43-.54,.49Zm-132.96-1.45l-.54-.49,2.69-2.43,.54,.49-2.69,2.43Zm127.58-3.41l-2.69-2.43,.54-.49,2.69,2.43-.54,.49Zm-122.19-1.45l-.54-.49,2.69-2.43,.54,.49-2.69,2.43Zm116.81-3.41l-2.69-2.43,.54-.49,2.69,2.43-.54,.49Zm-111.42-1.45l-.54-.49,1.32-1.19c.46-.42,.93-.83,1.4-1.23l.52,.5c-.46,.4-.93,.8-1.38,1.22l-1.32,1.19h0Zm106-3.35c-.93-.77-1.9-1.53-2.86-2.24l.48-.53c.97,.73,1.95,1.49,2.89,2.27l-.51,.51h0Zm-100.48-1.37l-.5-.52c.96-.75,1.96-1.48,2.96-2.19l.47,.54c-.99,.7-1.98,1.43-2.93,2.17h0Zm94.65-3c-1.01-.68-2.05-1.35-3.09-1.98l.42-.57c1.05,.64,2.1,1.31,3.12,2l-.46,.55h.01Zm-88.67-1.2l-.44-.56c1.05-.66,2.12-1.3,3.19-1.91l.4,.58c-1.06,.6-2.12,1.24-3.16,1.89h.01Zm82.38-2.61c-1.08-.58-2.19-1.15-3.3-1.69l.36-.61c1.12,.54,2.24,1.11,3.33,1.7l-.39,.59h0Zm-75.96-1.01l-.37-.6c1.11-.56,2.25-1.1,3.39-1.61l.34,.62c-1.13,.5-2.25,1.04-3.35,1.6h-.01Zm69.28-2.2c-1.13-.48-2.3-.94-3.47-1.38l.29-.64c1.18,.44,2.36,.91,3.5,1.39l-.32,.62h0Zm-62.49-.83l-.3-.63c1.16-.45,2.35-.89,3.55-1.3l.27,.64c-1.18,.4-2.36,.83-3.51,1.28h0Zm55.49-1.74c-1.18-.38-2.39-.73-3.6-1.06l.22-.66c1.22,.33,2.45,.69,3.64,1.07l-.25,.65h-.01Zm-48.4-.65l-.23-.66c1.21-.35,2.44-.67,3.67-.97l.2,.66c-1.22,.29-2.44,.61-3.64,.96h0Zm41.14-1.29c-1.22-.27-2.46-.51-3.7-.73l.14-.68c1.25,.22,2.51,.46,3.74,.73l-.18,.67h0Zm-33.81-.44l-.16-.67c1.23-.24,2.5-.45,3.76-.63l.12,.68c-1.25,.18-2.5,.39-3.72,.63h0Zm26.37-.84c-1.25-.16-2.52-.29-3.76-.39l.07-.68c1.26,.1,2.54,.23,3.8,.39l-.11,.68Zm-18.89-.25l-.08-.68c1.26-.12,2.55-.22,3.81-.29l.05,.69c-1.26,.07-2.53,.17-3.78,.29h0Zm11.35-.37c-1-.04-2.02-.05-3.03-.05h-.76v-.68h.76c1.01,0,2.04,.01,3.06,.05l-.03,.69h0Z"/>
    <ellipse class="n" cx="198.68" cy="444.15" rx="9.9" ry="8.94"/>
    <path class="n"
          d="M428.69,74.86c0,2.66-2.39,4.81-5.33,4.81s-5.33-2.16-5.33-4.81,2.39-4.81,5.33-4.81,5.33,2.16,5.33,4.81Z"/>
    <ellipse class="n" cx="442.78" cy="92.4" rx="5.33" ry="4.81"/>
    <ellipse class="n" cx="162.88" cy="334.12" rx="5.33" ry="4.81"/>
    <path class="n"
          d="M162.88,342.72c-5.25,0-9.52-3.86-9.52-8.6s4.27-8.6,9.52-8.6,9.52,3.86,9.52,8.6-4.27,8.6-9.52,8.6Zm0-16.5c-4.83,0-8.76,3.55-8.76,7.91s3.93,7.91,8.76,7.91,8.76-3.55,8.76-7.91-3.93-7.91-8.76-7.91Z"/>
    <path class="n"
          d="M588.64,255.04c0,2.66-2.39,4.81-5.33,4.81s-5.33-2.16-5.33-4.81,2.39-4.81,5.33-4.81,5.33,2.16,5.33,4.81h0Z"/>
    <path class="n"
          d="M583.31,263.63c-5.25,0-9.52-3.86-9.52-8.6s4.27-8.6,9.52-8.6,9.52,3.86,9.52,8.6-4.27,8.6-9.52,8.6Zm0-16.5c-4.83,0-8.76,3.55-8.76,7.91s3.93,7.91,8.76,7.91,8.76-3.55,8.76-7.91-3.93-7.91-8.76-7.91Z"/>
    <path class="n"
          d="M150.31,496.42c-5.25,0-9.52-3.86-9.52-8.6s4.27-8.6,9.52-8.6,9.52,3.86,9.52,8.6-4.27,8.6-9.52,8.6Zm0-16.5c-4.83,0-8.76,3.55-8.76,7.91s3.93,7.91,8.76,7.91,8.76-3.55,8.76-7.91-3.93-7.91-8.76-7.91Z"/>
    <path class="n"
          d="M88.89,157.09c.59,2.6-1.27,5.15-4.15,5.68-2.88,.54-5.7-1.14-6.3-3.75-.59-2.6,1.27-5.15,4.15-5.68s5.7,1.14,6.3,3.75Z"/>
    <ellipse class="n" cx="424.89" cy="421.46" rx="5.33" ry="4.81"/>
    <path class="n"
          d="M628.24,457.91c0,2.66-2.39,4.81-5.33,4.81s-5.33-2.16-5.33-4.81,2.39-4.81,5.33-4.81,5.33,2.16,5.33,4.81Z"/>
    <path class="n"
          d="M155.26,487.48c0,2.66-2.39,4.81-5.33,4.81s-5.33-2.16-5.33-4.81,2.39-4.81,5.33-4.81,5.33,2.16,5.33,4.81Z"/>
    <path class="n"
          d="M409.65,440.03c0,2.66-2.39,4.81-5.33,4.81s-5.33-2.16-5.33-4.81,2.39-4.81,5.33-4.81,5.33,2.16,5.33,4.81Z"/>
    <g>
      <path class="n"
            d="M180.29,174.43l-.54-.49,72.58-65.53c29.55-26.68,29.55-70.09,0-96.77l-11.65-10.51,.54-.49,11.65,10.51c29.84,26.95,29.84,70.79,0,97.74l-72.58,65.53h0Z"/>
      <ellipse class="n" cx="179.64" cy="178.01" rx="9.9" ry="8.94"/>
      <path class="n"
            d="M254.28,111.21c0,2.66-2.39,4.81-5.33,4.81s-5.33-2.16-5.33-4.81,2.39-4.81,5.33-4.81,5.33,2.16,5.33,4.81Z"/>
      <path class="n"
            d="M249.33,120.15c-5.25,0-9.52-3.86-9.52-8.6s4.27-8.6,9.52-8.6,9.52,3.86,9.52,8.6-4.27,8.6-9.52,8.6Zm0-16.5c-4.83,0-8.76,3.55-8.76,7.91s3.93,7.91,8.76,7.91,8.76-3.55,8.76-7.91-3.93-7.91-8.76-7.91Z"/>
    </g>
  </g>
  <g class="r">
    <path class="i"
          d="M664.2,133.9c1.81,7.39,6.39,13.64,12.9,17.58,13.44,8.15,30.99,3.85,39.14-9.59,8.14-13.43,3.84-30.99-9.6-39.14-6.51-3.95-14.17-5.12-21.56-3.31-7.39,1.81-13.63,6.39-17.58,12.9s-5.12,14.17-3.31,21.55h0Zm11.46-16.6c2.62-4.33,6.78-7.39,11.7-8.59s10.02-.42,14.35,2.2c8.94,5.42,11.81,17.11,6.39,26.04-5.42,8.94-17.11,11.81-26.05,6.38-4.33-2.62-7.38-6.78-8.59-11.7-1.2-4.92-.42-10.02,2.21-14.34h-.01Zm9.9,20.26c2.78,1.69,6.06,2.19,9.22,1.42,3.16-.78,5.83-2.74,7.52-5.52,3.49-5.74,1.64-13.25-4.1-16.74-2.79-1.68-6.06-2.19-9.22-1.41s-5.83,2.74-7.52,5.52c-3.49,5.74-1.64,13.25,4.1,16.74h0Zm-1.91-15.42c2.75-4.53,8.68-5.99,13.22-3.23,4.53,2.75,5.98,8.68,3.24,13.21-1.33,2.2-3.44,3.74-5.94,4.35-2.49,.61-5.08,.21-7.28-1.12-4.53-2.75-5.99-8.68-3.24-13.22h0Z"/>
    <path class="j"
          d="M602.04,151.19c4.89,19.97,17.27,36.83,34.85,47.49,36.28,22,83.71,10.38,105.71-25.91,22-36.29,10.37-83.71-25.91-105.71-17.59-10.66-38.26-13.83-58.23-8.93-19.96,4.89-36.83,17.27-47.49,34.84-10.66,17.58-13.83,38.25-8.94,58.22h0Zm30.95-44.87c7.09-11.7,18.31-19.93,31.59-23.18,13.29-3.26,27.05-1.15,38.75,5.95,24.15,14.65,31.89,46.21,17.24,70.35-14.64,24.15-46.2,31.88-70.35,17.24-11.7-7.09-19.94-18.32-23.19-31.6-3.26-13.29-1.14-27.05,5.95-38.75h0Zm26.73,54.69c7.52,4.56,16.36,5.92,24.9,3.83,8.54-2.09,15.75-7.39,20.31-14.91,9.41-15.52,4.44-35.79-11.08-45.21-7.52-4.55-16.36-5.91-24.89-3.82-8.54,2.09-15.75,7.39-20.31,14.9-9.41,15.51-4.44,35.79,11.07,45.2h0Zm-5.15-41.6c7.43-12.25,23.44-16.18,35.69-8.75s16.17,23.44,8.74,35.69c-3.6,5.94-9.29,10.12-16.03,11.77-6.74,1.65-13.72,.58-19.66-3.02-12.25-7.43-16.17-23.44-8.74-35.69Z"/>
  </g>
  <g class="q">
    <path class="p"
          d="M1457.89,54.8c-6.78,11.18-17.5,19.04-30.2,22.16-12.7,3.1-25.84,1.09-37.02-5.69-23.08-13.99-30.47-44.15-16.48-67.23,.75-1.23,1.54-2.41,2.38-3.55h-19.96c-14.8,30.34-4.26,67.62,25.16,85.46,31.17,18.89,71.9,8.91,90.8-22.26,12.06-19.89,12.35-43.68,2.89-63.2h-19.94c11.32,15.49,12.92,36.91,2.38,54.31h-.01Z"/>
    <path class="h"
          d="M1431.32,4.21c13.92,8.45,18.36,26.57,9.93,40.5-8.44,13.92-26.57,18.36-40.49,9.92-13.92-8.44-18.37-26.57-9.93-40.49,4.48-7.39,11.69-12.11,19.55-13.65h-34.11c-.8,1.1-1.56,2.25-2.28,3.43-14.09,23.22-6.67,53.47,16.56,67.55,23.23,14.09,53.47,6.67,67.55-16.55,10.59-17.46,9.02-38.89-2.27-54.43h-34.08c3.3,.65,6.54,1.88,9.58,3.72h-.01Z"/>
  </g>
  <g class="m">
    <path class="k"
          d="M1463.8,144.81c-11.18-6.78-19.04-17.5-22.16-30.2-3.1-12.7-1.09-25.84,5.69-37.02,13.99-23.08,44.15-30.47,67.23-16.48,1.23,.75,2.41,1.54,3.55,2.38v-19.96c-30.34-14.8-67.62-4.26-85.46,25.16-18.89,31.17-8.91,71.9,22.26,90.8,19.89,12.06,43.68,12.35,63.2,2.89v-19.94c-15.49,11.32-36.91,12.92-54.31,2.38h0Z"/>
    <path class="f"
          d="M1514.39,118.24c-8.45,13.92-26.57,18.36-40.5,9.93-13.92-8.44-18.36-26.57-9.92-40.49,8.44-13.92,26.57-18.37,40.49-9.93,7.39,4.48,12.11,11.69,13.65,19.55V63.19c-1.1-.8-2.25-1.56-3.43-2.28-23.22-14.09-53.47-6.67-67.55,16.56-14.09,23.23-6.67,53.47,16.55,67.55,17.46,10.59,38.89,9.02,54.43-2.27v-34.08c-.65,3.3-1.88,6.54-3.72,9.58h0Z"/>
  </g>
  <g>
    <path class="n"
          d="M335.59,141.11c0,2.66-2.39,4.81-5.33,4.81s-5.33-2.16-5.33-4.81,2.39-4.81,5.33-4.81,5.33,2.16,5.33,4.81Z"/>
    <path class="n"
          d="M330.26,149.71c-5.25,0-9.52-3.86-9.52-8.6s4.27-8.6,9.52-8.6,9.52,3.86,9.52,8.6-4.27,8.6-9.52,8.6Zm0-16.5c-4.83,0-8.76,3.55-8.76,7.91s3.93,7.91,8.76,7.91,8.76-3.55,8.76-7.91-3.93-7.91-8.76-7.91Z"/>
  </g>
  <path class="g"
        d="M274.4,278.25c1.7,6.92,5.98,12.77,12.07,16.45,12.57,7.62,29,3.6,36.63-8.97,7.62-12.57,3.59-29-8.98-36.62-6.09-3.69-13.26-4.8-20.17-3.1-6.92,1.7-12.76,5.98-16.45,12.07-3.7,6.09-4.79,13.26-3.1,20.17h0Zm10.73-15.54c2.45-4.06,6.34-6.91,10.94-8.04,4.61-1.13,9.37-.4,13.43,2.06,8.37,5.07,11.05,16.01,5.98,24.37-5.08,8.37-16.01,11.05-24.37,5.97-4.05-2.46-6.91-6.35-8.04-10.95-1.13-4.61-.39-9.37,2.06-13.42h0Zm9.26,18.96c2.6,1.58,5.67,2.05,8.62,1.33,2.96-.73,5.46-2.56,7.04-5.17,3.26-5.37,1.54-12.4-3.84-15.66-2.61-1.58-5.67-2.05-8.63-1.32-2.95,.73-5.45,2.56-7.04,5.16-3.26,5.38-1.54,12.4,3.84,15.66h.01Zm-1.79-14.42c2.58-4.24,8.12-5.6,12.37-3.03,4.24,2.57,5.6,8.12,3.03,12.36-1.25,2.06-3.22,3.5-5.56,4.08-2.33,.57-4.76,.2-6.81-1.04-4.24-2.58-5.6-8.12-3.03-12.37h0Z"/>
  <g class="o">
    <path class="n"
          d="M813.8,131.28l-.54-.37,72.97-49.31c29.71-20.07,29.71-52.74,0-72.81l-11.71-7.91,.54-.37,11.71,7.91c30.01,20.28,30.01,53.27,0,73.54l-72.97,49.31h0Z"/>
    <ellipse class="n" cx="813.15" cy="133.98" rx="9.96" ry="6.73"/>
    <path class="n"
          d="M888.19,83.71c0,2-2.4,3.62-5.36,3.62s-5.36-1.62-5.36-3.62,2.4-3.62,5.36-3.62,5.36,1.62,5.36,3.62Z"/>
    <path class="n"
          d="M883.22,90.44c-5.28,0-9.57-2.9-9.57-6.47s4.29-6.47,9.57-6.47,9.57,2.9,9.57,6.47-4.29,6.47-9.57,6.47Zm0-12.42c-4.86,0-8.81,2.67-8.81,5.95s3.95,5.95,8.81,5.95,8.81-2.67,8.81-5.95-3.95-5.95-8.81-5.95Z"/>
  </g>
  <g>
    <g>
      <path class="n"
            d="M1286.1,83.12l-.19-.17,47.53-43.26c10.46-9.52,10.46-25.01,0-34.53l-5.47-4.98,.19-.17,5.47,4.98c5.12,4.66,7.94,10.85,7.94,17.44s-2.82,12.78-7.94,17.44l-47.53,43.26h0Z"/>
      <ellipse class="n" cx="1333.62" cy="36.79" rx="6.27" ry="5.71"/>
    </g>
    <g>
      <path class="n"
            d="M1306.86,68.13c0,2.04-1.82,3.7-4.06,3.7s-4.06-1.65-4.06-3.7,1.82-3.7,4.06-3.7,4.06,1.65,4.06,3.7Z"/>
      <path class="n"
            d="M1302.8,74.73c-4,0-7.25-2.96-7.25-6.6s3.25-6.6,7.25-6.6,7.25,2.96,7.25,6.6-3.25,6.6-7.25,6.6Zm0-12.67c-3.68,0-6.67,2.72-6.67,6.07s2.99,6.07,6.67,6.07,6.67-2.72,6.67-6.07-2.99-6.07-6.67-6.07Z"/>
    </g>
  </g>
</svg>
