<?xml version="1.0" encoding="UTF-8"?>
<svg id="a" viewBox="0 0 119.73 134.88" xmlns="http://www.w3.org/2000/svg">
  <defs>
    <style>.c {
      stroke-width: 2px;
    }

    .c, .d, .e, .f, .g, .h, .i, .j {
      stroke: #fff;
    }

    .c, .d, .e, .f, .g, .h, .i, .j, .k {
      stroke-miterlimit: 10;
    }

    .c, .e, .k {
      fill: #173660;
    }

    .d {
      fill: #a7a9ac;
    }

    .d, .f, .g, .i {
      stroke-width: 1.25px;
    }

    .e, .j {
      stroke-width: 1.5px;
    }

    .f {
      fill: none;
    }

    .g, .h, .j {
      fill: #fff;
    }

    .h {
      stroke-width: .75px;
    }

    .i {
      fill: #303030;
    }

    .k {
      stroke: #173660;
      stroke-width: 3px;
    }</style>
  </defs>
  <path class="k"
        d="M113.53,103.85l-48.96,28.27c-2.91,1.68-6.5,1.68-9.41,0L6.2,103.85c-2.91-1.68-4.7-4.79-4.7-8.15V39.17c0-3.36,1.79-6.47,4.7-8.15L55.16,2.76c2.91-1.68,6.5-1.68,9.41,0l48.96,28.27c2.91,1.68,4.7,4.79,4.7,8.15v56.53c0,3.36-1.79,6.47-4.7,8.15Z"
        id="b"/>
  <g>
    <line class="f" x1="76.39" x2="104.29" y1="51.15" y2="42.81"/>
    <line class="f" x1="76.39" x2="48.5" y1="51.15" y2="42.81"/>
    <line class="f" x1="48.5" x2="76.39" y1="99.86" y2="108.2"/>
    <polyline class="f" points="48.5 99.86 20.6 108.2 20.6 51.15 48.5 42.81"/>
    <line class="f" x1="104.29" x2="76.39" y1="99.86" y2="108.2"/>
    <g>
      <path class="g"
            d="M29.75,74.21c1.45-1.73,4.84-6.61,7.83-12.03,3.87-7,5.83-12.52,5.83-16.39,0-8.14-6.62-14.76-14.76-14.76s-14.76,6.62-14.76,14.76c0,3.88,1.96,9.39,5.83,16.39,3,5.42,6.38,10.3,7.83,12.03l1.1,1.31,1.1-1.31Z"/>
      <g>
        <path class="e"
              d="M29.48,72.23c-.42,.56-1.25,.56-1.67,0-3.57-4.77-12.49-18.73-12.49-26.44s5.97-13.33,13.33-13.33,13.33,5.97,13.33,13.33-8.92,21.68-12.49,26.44Z"/>
        <circle class="j" cx="28.65" cy="46.19" r="8.01"/>
      </g>
    </g>
    <line class="f" x1="105.12" x2="105.12" y1="42.81" y2="99.86"/>
    <path class="f" d="M88.4,94.57s-11.73,3.85-18.87-2.96-12.23-8.24-19.57-5.38c-7.76,3.02-14.77-.46-14.77-8.31"/>
    <path class="d" d="M76.45,82.47h0c-.2,0-.36-.16-.37-.36l-.65-30.55h1.93l-.54,30.55c0,.2-.17,.36-.37,.36Z"/>
    <path class="i" d="M48.55,92.15h0c.2,0,.37,.16,.38,.36l.42,8.08h-1.71l.53-8.09c.01-.2,.18-.35,.38-.35Z"/>
    <path class="i" d="M76.45,98.81h0c.2,0,.37,.16,.38,.36l.32,8.08h-1.49l.42-8.08c.01-.2,.18-.36,.38-.36Z"/>
    <path class="i"
          d="M47.75,59.26l.32,16.13c0,.2,.17,.36,.37,.36s.36-.16,.37-.36l.43-18.36c0-.22-.29-.29-.39-.09-.34,.75-.71,1.52-1.1,2.32Z"/>
  </g>
  <g>
    <path class="h"
          d="M100.2,60.79m-1.28-.05l-2.07,2.03c-.25-.15-.53-.23-.84-.23-.92,0-1.66,.74-1.66,1.66,0,.29,.08,.57,.21,.81l-1.02,1c-.55-1.31-1.36-2.53-2.42-3.6-4.4-4.4-11.56-4.4-15.96,0-3.92,3.92-4.35,10.03-1.28,14.43l-.78,.81c-.23-.12-.49-.19-.77-.19-.92,0-1.66,.74-1.66,1.66s.74,1.66,1.66,1.66,1.66-.74,1.66-1.66c0-.3-.08-.58-.22-.82l.69-.71c.22,.27,.46,.53,.71,.78,2.2,2.2,5.09,3.3,7.98,3.3,2.22,0,4.44-.65,6.34-1.95l1.68,1.8-.7,.7,8.15,8.12,4.35-4.35-8.15-8.12-.68,.68-1.68-1.79c1.99-2.9,2.46-6.54,1.43-9.79l1.33-1.3c.23,.13,.5,.2,.79,.2,.92,0,1.66-.74,1.66-1.66,0-.27-.07-.53-.18-.75l2.16-2.12m-.73-.59,.65-.64l-.55,.54m-3.01,2.83c.4,0,.73,.33,.73,.73s-.33,.73-.73,.73-.73-.33-.73-.73,.33-.73,.73-.73Zm-23.69,16.38c-.4,0-.73-.33-.73-.73s.33-.73,.73-.73,.73,.33,.73,.73c0,.4-.33,.73-.73,.73Zm3.5-2.14c-4.04-4.04-4.04-10.61,0-14.64,2.02-2.02,4.67-3.03,7.32-3.03s5.3,1.01,7.32,3.03c4.04,4.04,4.04,10.61,0,14.64-4.04,4.04-10.61,4.04-14.64,0Zm14.42,1.45c.31-.25,.6-.51,.88-.8,.27-.27,.53-.56,.77-.85l1.59,1.69-1.65,1.65-1.59-1.7Zm8.38,9.86l-6.83-6.8,3.03-3.03,6.83,6.8-3.03,3.03Z"/>
    <circle class="c" cx="83.14" cy="70.37" r="9.41"/>
  </g>
</svg>
