<?xml version="1.0" encoding="UTF-8"?><svg id="a" viewBox="0 0 119.73 134.88" xmlns="http://www.w3.org/2000/svg"><defs><style>.c{fill:#fff;}.d{fill:#173660;stroke:#173660;stroke-miterlimit:10;stroke-width:3px;}</style></defs><path class="d" d="M113.53,103.85l-48.96,28.27c-2.91,1.68-6.5,1.68-9.41,0L6.2,103.85c-2.91-1.68-4.7-4.79-4.7-8.15V39.17c0-3.36,1.79-6.47,4.7-8.15L55.16,2.76c2.91-1.68,6.5-1.68,9.41,0l48.96,28.27c2.91,1.68,4.7,4.79,4.7,8.15v56.53c0,3.36-1.79,6.47-4.7,8.15Z" id="b"/><g><g><rect class="c" height="2.85" width="4.7" x="24.91" y="63.99"/><rect class="c" height="2.85" width="4.7" x="34.31" y="63.99"/><rect class="c" height="2.85" width="4.7" x="52.59" y="63.99"/><rect class="c" height="2.85" width="4.7" x="43.45" y="63.99"/><rect class="c" height="2.85" width="4.7" x="24.91" y="60.53"/><rect class="c" height="2.85" width="4.7" x="34.31" y="60.53"/><rect class="c" height="2.85" width="4.7" x="52.59" y="60.53"/><rect class="c" height="2.85" width="4.7" x="43.45" y="60.53"/><rect class="c" height="2.85" width="4.7" x="24.91" y="57.07"/><rect class="c" height="2.85" width="4.7" x="34.31" y="57.07"/><rect class="c" height="2.85" width="4.7" x="52.59" y="57.07"/><rect class="c" height="2.85" width="4.7" x="43.45" y="57.07"/></g><path class="c" d="M100.01,31.67H21.88c-2.96,0-5.36,2.41-5.36,5.36v53.94c0,2.96,2.41,5.36,5.36,5.36h26.77v3.9c0,3.58-2.91,6.49-6.49,6.49h-5.9c-1.13,0-2.05,.92-2.05,2.05s.92,2.05,2.05,2.05h49.36c1.13,0,2.05-.92,2.05-2.05s-.92-2.05-2.05-2.05h-5.9c-3.58,0-6.49-2.91-6.49-6.49v-3.9h26.77c2.96,0,5.36-2.41,5.36-5.36V37.04c0-2.96-2.41-5.36-5.36-5.36ZM50.52,106.73c1.4-1.79,2.23-4.04,2.23-6.49v-3.9h16.39v3.9c0,2.44,.83,4.7,2.23,6.49h-20.85Zm50.76-15.76c0,.7-.57,1.27-1.27,1.27H21.88c-.7,0-1.27-.57-1.27-1.27v-10.77H101.27v10.77Zm0-14.86H20.61V37.04c0-.7,.57-1.27,1.27-1.27H100.01c.7,0,1.27,.57,1.27,1.27v39.08h0Z"/><circle class="c" cx="60.94" cy="86.23" r="2.21"/><path class="c" d="M78.52,38.65c7.82,0,14.19,6.36,14.19,14.19,0,3.44-1.23,6.6-3.28,9.06l9.1,9.03c.53,.53,.53,1.38,0,1.91-.26,.27-.61,.4-.96,.4s-.69-.13-.95-.39l-9.11-9.05c-2.45,2.01-5.58,3.22-8.99,3.22-2.43,0-4.84-.63-6.95-1.81-.65-.37-.88-1.19-.52-1.84,.37-.65,1.19-.88,1.84-.52,1.71,.96,3.65,1.47,5.62,1.47,6.33,0,11.49-5.15,11.49-11.49,0-6.33-5.15-11.49-11.49-11.49s-11.49,5.15-11.49,11.49c0,2,.52,3.96,1.5,5.68,.37,.65,.14,1.47-.5,1.84-.65,.37-1.47,.14-1.84-.5-1.21-2.13-1.86-4.56-1.86-7.02,0-7.82,6.36-14.19,14.19-14.19Zm-8.77,13.19c.45-.57,1.51-1.9,2.99-3.08,1.89-1.51,3.83-2.27,5.78-2.27s3.89,.76,5.78,2.27c1.47,1.18,2.53,2.51,2.99,3.08,.1,.13,.26,.36,.31,.43,.33,.47,.33,1.09,0,1.55-.05,.07-.21,.3-.31,.43-.45,.57-1.51,1.9-2.99,3.08-1.89,1.51-3.83,2.27-5.78,2.27s-3.89-.76-5.78-2.27c-1.47-1.18-2.53-2.51-2.99-3.08-.1-.13-.26-.36-.31-.43-.33-.47-.33-1.09,0-1.55,.05-.07,.21-.3,.31-.43Zm8.77,5.05c2.01,0,4.11-1.3,6.26-3.85-2.15-2.56-4.25-3.85-6.26-3.85s-4.11,1.3-6.26,3.85c2.15,2.56,4.25,3.85,6.26,3.85Zm-2.63-3.85c0,1.42,1.15,2.57,2.57,2.57s2.57-1.15,2.57-2.57c0-1.42-1.15-2.57-2.57-2.57s-2.57,1.15-2.57,2.57Z"/></g><g><path class="c" d="M26.9,46.65l-1.31-.78,10.66-6.34,9.26,5.51,8.36-4.97,1.31,.78-9.67,5.75-9.26-5.51-9.35,5.56Z"/><path class="c" d="M54.25,37.49c-1.57,0-2.84,.98-2.84,2.18s1.27,2.18,2.84,2.18,2.84-.98,2.84-2.18-1.27-2.18-2.84-2.18Z"/><path class="c" d="M45.52,44.33c-1.57,0-2.84,.98-2.84,2.18s1.27,2.18,2.84,2.18,2.84-.98,2.84-2.18-1.27-2.18-2.84-2.18Z"/><path class="c" d="M36.15,37.49c-1.57,0-2.84,.98-2.84,2.18s1.27,2.18,2.84,2.18,2.84-.98,2.84-2.18-1.27-2.18-2.84-2.18Z"/><path class="c" d="M26.1,44.84c-1.57,0-2.84,.98-2.84,2.18s1.27,2.18,2.84,2.18,2.84-.98,2.84-2.18-1.27-2.18-2.84-2.18Z"/><path class="c" d="M25.1,50.2h2.39v3.53h-2.39v-3.53Z"/><path class="c" d="M35.42,48.43h2.37v5.3h-2.37v-5.3Z"/><path class="c" d="M44.4,50.2h2.37v3.53h-2.37v-3.53Z"/><path class="c" d="M53.27,47.67h2.37v6.05h-2.37v-6.05Z"/></g></svg>
