<?xml version="1.0" encoding="UTF-8"?><svg id="a" viewBox="0 0 119.73 134.88" xmlns="http://www.w3.org/2000/svg"><defs><style>.c{fill:#a7a9ac;}.c,.d,.e,.f,.g,.h,.i{stroke:#fff;}.c,.d,.e,.f,.g,.h,.i,.j{stroke-miterlimit:10;}.c,.e,.f,.g,.h{stroke-width:1.25px;}.k,.f,.i{fill:#fff;}.d,.g,.j{fill:#173660;}.d,.i{stroke-width:1.5px;}.e{fill:none;}.h{fill:#303030;}.j{stroke:#173660;stroke-width:3px;}</style></defs><path class="j" d="M113.53,103.85l-48.96,28.27c-2.91,1.68-6.5,1.68-9.41,0L6.2,103.85c-2.91-1.68-4.7-4.79-4.7-8.15V39.17c0-3.36,1.79-6.47,4.7-8.15L55.16,2.76c2.91-1.68,6.5-1.68,9.41,0l48.96,28.27c2.91,1.68,4.7,4.79,4.7,8.15v56.53c0,3.36-1.79,6.47-4.7,8.15Z" id="b"/><g><line class="e" x1="77.39" x2="105.29" y1="47.15" y2="38.81"/><line class="e" x1="77.39" x2="49.5" y1="47.15" y2="38.81"/><line class="e" x1="49.5" x2="77.39" y1="95.86" y2="104.2"/><polyline class="e" points="49.5 95.86 21.6 104.2 21.6 47.15 49.5 38.81"/><line class="e" x1="105.29" x2="77.39" y1="95.86" y2="104.2"/><path class="f" d="M39.18,70.61c1.45-1.73,4.84-6.61,7.84-12.04,3.87-7.01,5.83-12.53,5.83-16.4,0-8.14-6.62-14.77-14.77-14.77s-14.77,6.62-14.77,14.77c0,3.88,1.96,9.4,5.83,16.4,3,5.43,6.39,10.31,7.84,12.04l1.1,1.31,1.1-1.31Z"/><g><path class="d" d="M38.91,68.63c-.42,.56-1.25,.56-1.67,0-3.58-4.77-12.5-18.74-12.5-26.46s5.97-13.34,13.34-13.34,13.34,5.97,13.34,13.34-8.93,21.69-12.5,26.46Z"/><circle class="i" cx="38.08" cy="42.57" r="8.02"/></g><g><path class="g" d="M91.49,85.12c-.14,.19-.43,.19-.57,0-1.22-1.63-4.28-6.41-4.28-9.05s2.04-4.56,4.56-4.56,4.56,2.04,4.56,4.56-3.05,7.42-4.28,9.05Z"/><circle class="f" cx="91.21" cy="76.21" r="2.74"/></g><line class="e" x1="106.12" x2="106.12" y1="38.81" y2="95.86"/><path class="e" d="M91.4,88.57s-11.73,3.85-18.87-2.96-12.23-8.24-19.57-5.38c-7.76,3.02-14.77-.46-14.77-8.31"/><path class="c" d="M77.45,78.47h0c-.2,0-.36-.16-.37-.36l-.65-30.55h1.93l-.54,30.55c0,.2-.17,.36-.37,.36Z"/><path class="h" d="M49.55,88.15h0c.2,0,.37,.16,.38,.36l.42,8.08h-1.71l.53-8.09c.01-.2,.18-.35,.38-.35Z"/><path class="h" d="M77.45,94.81h0c.2,0,.37,.16,.38,.36l.32,8.08h-1.49l.42-8.08c.01-.2,.18-.36,.38-.36Z"/><path class="h" d="M48.75,55.26l.32,16.13c0,.2,.17,.36,.37,.36s.36-.16,.37-.36l.43-18.36c0-.22-.29-.29-.39-.09-.34,.75-.71,1.52-1.1,2.32Z"/></g><g><path class="k" d="M97.1,46.61h-11.38c-.9,0-1.63,.73-1.63,1.63v18.73c0,.9,.73,1.63,1.63,1.63h11.38c.9,0,1.63-.73,1.63-1.63v-18.73c0-.9-.73-1.63-1.63-1.63Zm-11.72,19.56v-17.14h12.06v17.14h-12.06Z"/><path class="k" d="M91.41,52.26c-2.95,0-5.35,2.39-5.35,5.35s2.39,5.35,5.35,5.35,5.35-2.39,5.35-5.35-2.39-5.35-5.35-5.35Zm4.57,5.65c-.07,1.04-.48,1.98-1.12,2.71l-.66-.66-.43,.43,.66,.66c-.73,.64-1.68,1.05-2.71,1.12v-.93h-.61v.93c-1.04-.07-1.98-.48-2.71-1.12l.66-.66-.43-.43-.66,.66c-.64-.73-1.05-1.68-1.12-2.71h.93v-.61h-.93c.07-1.04,.48-1.98,1.12-2.71l.66,.66,.43-.43-.66-.66c.73-.64,1.68-1.05,2.71-1.12v.93h.61v-.93c1.04,.07,1.98,.48,2.71,1.12l-.66,.66,.43,.43,.66-.66c.64,.73,1.05,1.68,1.12,2.71h-.93v.61h.93Z"/><path class="k" d="M93.54,59.41l-1.4-1.55c.03-.08,.05-.17,.05-.26,0-.43-.35-.78-.78-.78s-.78,.35-.78,.78,.35,.78,.78,.78c.09,0,.18-.02,.26-.05l1.91,1.7,.28-.28-.32-.35Z"/><path class="k" d="M91.41,54.34c-1.8,0-3.26,1.46-3.26,3.26,0,.9,.37,1.72,.96,2.31l.33-.33c-.51-.51-.82-1.21-.82-1.98,0-1.55,1.25-2.8,2.8-2.8s2.8,1.25,2.8,2.8c0,.56-.17,1.08-.45,1.51l.32,.36c.37-.53,.6-1.17,.6-1.87,0-1.8-1.46-3.26-3.26-3.26Z"/></g></svg>
