<?xml version="1.0" encoding="UTF-8"?><svg id="a" viewBox="0 0 119.73 134.88" xmlns="http://www.w3.org/2000/svg" xmlns:xlink="http://www.w3.org/1999/xlink"><defs><style>.e,.f{fill:#fff;}.f{fill-rule:evenodd;}.g{fill:url(#c);}.h{fill:url(#d);}.i{fill:#173660;stroke:#173660;stroke-miterlimit:10;stroke-width:3px;}.j{fill:#d8d9d8;}</style><linearGradient gradientTransform="matrix(1, 0, 0, 1, 0, 0)" gradientUnits="userSpaceOnUse" id="c" x1="30.58" x2="30.58" y1="47.6" y2="34.63"><stop offset="0" stop-color="#41c3d4"/><stop offset=".11" stop-color="#489da9"/><stop offset=".29" stop-color="#565759"/><stop offset=".36" stop-color="#556265"/><stop offset=".48" stop-color="#527f84"/><stop offset=".64" stop-color="#4eafb8"/><stop offset=".71" stop-color="#4dc4cf"/></linearGradient><linearGradient id="d" x1="36.35" x2="36.35" xlink:href="#c" y1="47.6" y2="34.62"/></defs><path class="i" d="M113.53,103.85l-48.96,28.27c-2.91,1.68-6.5,1.68-9.41,0L6.2,103.85c-2.91-1.68-4.7-4.79-4.7-8.15V39.17c0-3.36,1.79-6.47,4.7-8.15L55.16,2.76c2.91-1.68,6.5-1.68,9.41,0l48.96,28.27c2.91,1.68,4.7,4.79,4.7,8.15v56.53c0,3.36-1.79,6.47-4.7,8.15Z" id="b"/><g><path class="e" d="M111.3,54.34c-4.81-4.81-12.63-4.81-17.43,0l3.85,3.85c2.68-2.68,7.05-2.68,9.73,0,2.68,2.68,2.68,7.05,0,9.73l-11.21,11.21c-1.37,1.37-3.19,2.04-5,2.01-1.72-.03-3.43-.7-4.74-2.01-1.31-1.31-1.97-3.02-2.01-4.73-.03-1.81,.63-3.62,2.01-5l1.64-1.64c-.17-.92-.62-1.81-1.33-2.52-.71-.71-1.6-1.16-2.52-1.33l-1.64,1.64c-3.61,3.61-4.51,8.93-2.69,13.38,.6,1.47,1.5,2.85,2.69,4.05s2.58,2.09,4.05,2.69c4.46,1.82,9.77,.92,13.38-2.69l11.21-11.21c4.81-4.81,4.81-12.63,0-17.43Z"/><path class="e" d="M81.21,84.43c-.65-.65-1.23-1.36-1.74-2.11l-2.42,2.42c-2.68,2.68-7.05,2.68-9.73,0-2.68-2.68-2.68-7.05,0-9.73l11.21-11.21c2.68-2.68,7.05-2.68,9.73,0,2.68,2.68,2.68,7.05,0,9.73l-1.63,1.63c.18,.96,.63,1.83,1.32,2.53,.69,.69,1.57,1.15,2.53,1.32l1.63-1.63c4.81-4.81,4.81-12.63,0-17.43-4.81-4.81-12.63-4.81-17.43,0l-11.21,11.21c-4.81,4.81-4.81,12.63,0,17.43,4.81,4.81,12.63,4.81,17.43,0l2.42-2.42c-.75-.51-1.46-1.09-2.11-1.74Z"/></g><g><path class="j" d="M47.14,32.45l.6,18.62,4.3-.48c.89-.1,1.55-.89,1.48-1.79l-1.15-15.33c-.07-.97-.96-1.68-1.92-1.53l-3.32,.51Z"/><path class="e" d="M52.25,116.14c-.31,0-.57-.25-.59-.56l-3.66-87.6c-.01-.32,.24-.6,.56-.61,.33-.01,.6,.24,.61,.56l3.66,87.6c.01,.32-.24,.6-.56,.61h-.02Z"/><path class="e" d="M35.73,116.14h-.02c-.32-.01-.58-.29-.56-.61l3.66-87.6c.01-.32,.29-.58,.61-.56,.32,.01,.58,.29,.56,.61l-3.66,87.6c-.01,.32-.27,.56-.59,.56Z"/><path class="e" d="M38.74,43.92c-.13,0-.25-.07-.31-.18-.1-.17-.04-.39,.14-.49l9.71-5.52-9.06-5.24c-.17-.1-.23-.32-.13-.49,.1-.17,.32-.23,.49-.13l9.6,5.55c.11,.06,.18,.18,.18,.31,0,.13-.07,.25-.18,.31l-10.26,5.83c-.06,.03-.12,.05-.18,.05Z"/><path class="e" d="M38.74,55.3c-.13,0-.25-.07-.31-.18-.1-.17-.04-.39,.14-.49l9.71-5.52-9.06-5.24c-.17-.1-.23-.32-.13-.49,.1-.17,.32-.23,.49-.13l9.6,5.55c.11,.06,.18,.18,.18,.31,0,.13-.07,.25-.18,.31l-10.26,5.83c-.06,.03-.12,.05-.18,.05Z"/><path class="e" d="M37.97,66.68c-.13,0-.26-.07-.33-.2-.09-.18-.01-.4,.17-.48l11.32-5.51-10.56-5.22c-.18-.09-.25-.31-.16-.48,.09-.18,.31-.25,.48-.16l11.22,5.55c.12,.06,.2,.19,.2,.33,0,.14-.08,.26-.2,.32l-11.98,5.83c-.05,.02-.1,.04-.16,.04Z"/><path class="e" d="M37.56,77.8c-.14,0-.27-.08-.33-.22-.08-.18,0-.4,.19-.48l12.1-5.24-11.86-5.22c-.18-.08-.27-.29-.19-.48s.29-.27,.48-.19l12.62,5.55c.13,.06,.22,.19,.22,.33,0,.14-.09,.27-.22,.33l-12.86,5.56s-.1,.03-.14,.03Z"/><path class="e" d="M36.85,89.06c-.14,0-.28-.09-.34-.23-.07-.19,.02-.4,.21-.47l13.19-5.11-12.62-4.97c-.19-.07-.28-.28-.2-.47,.07-.19,.28-.28,.47-.2l13.48,5.31c.14,.05,.23,.19,.23,.34s-.09,.28-.23,.34l-14.05,5.44s-.09,.02-.13,.02Z"/><path class="e" d="M36.59,100.66c-.15,0-.28-.09-.34-.23-.07-.19,.02-.4,.21-.47l13.91-5.32-13.39-5.21c-.19-.07-.28-.28-.21-.47,.07-.19,.28-.28,.47-.21l14.27,5.55c.14,.05,.23,.19,.23,.34,0,.15-.09,.28-.23,.34l-14.79,5.66s-.09,.02-.13,.02Z"/><path class="e" d="M36.27,111.95c-.15,0-.29-.09-.34-.24-.07-.19,.03-.39,.22-.46l14.63-5.23-14.41-5.21c-.19-.07-.29-.28-.22-.46,.07-.19,.27-.29,.46-.22l15.36,5.55c.14,.05,.24,.19,.24,.34s-.1,.29-.24,.34l-15.58,5.57s-.08,.02-.12,.02Z"/><rect class="e" height="12.7" rx=".79" ry=".79" width="2.38" x="43.87" y="29.94"/><rect class="e" height="12.7" rx="1.06" ry="1.06" width="2.38" x="50.07" y="17.88"/><path class="e" d="M50.79,30.08h-2.01c-.27,0-.5-.22-.5-.5s.22-.5,.5-.5h2.01c.27,0,.5,.22,.5,.5s-.22,.5-.5,.5Z"/><g><path class="e" d="M40.42,22.28h-12.39c-.58,0-1.04,.47-1.04,1.04v31.95c0,.58,.47,1.04,1.04,1.04h12.39c.66,0,1.19-.53,1.19-1.19V23.47c0-.66-.53-1.19-1.19-1.19Z"/><path class="j" d="M40.42,22.28h-2.45V56.31h2.45c.66,0,1.19-.53,1.19-1.19V23.47c0-.66-.53-1.19-1.19-1.19Z"/></g><g><path class="g" d="M32.52,36.12h-2.33c-.03,.38-.1,1.02-.13,1.38,.24-.23,.63-.36,1.11-.36,1.31,0,1.83,1.05,1.83,2.48,0,1.79-.62,2.93-2.5,2.93-1.72,0-2.3-1.06-2.32-2.28h1.74c.02,.56,.16,.95,.61,.95,.54,0,.65-.48,.65-1.39s-.13-1.33-.66-1.33c-.4,0-.54,.28-.63,.72l-1.62-.17c.12-.89,.33-3.41,.4-4.42h4.06l-.2,1.48Z"/><path class="h" d="M39.02,42.43h-1.36c-.03-.21-.06-.41-.07-.63-.35,.62-.95,.78-1.58,.78-1.6,0-2.34-1.2-2.34-4.12,0-3.18,1.1-4.21,2.85-4.21,2.27,0,2.45,1.79,2.47,2.42h-1.85c-.02-.39-.07-.97-.68-.97-.69,0-.86,.9-.86,2.77s.16,2.65,.83,2.65c.56,0,.73-.47,.73-1.34v-.51h-.79v-1.45h2.64v4.6Z"/></g></g><g><path class="f" d="M72,24.23c0-5.62-2.71-10.61-6.89-13.74-.24-.18-.51-.24-.8-.19-.29,.05-.52,.2-.68,.45l-.13,.19c-.3,.46-.19,1.06,.25,1.39,3.62,2.71,5.96,7.03,5.96,11.9,0,4.87-2.34,9.19-5.96,11.9-.43,.33-.54,.93-.25,1.39l.13,.19c.16,.25,.39,.4,.68,.45,.29,.05,.56-.01,.8-.19,4.18-3.13,6.89-8.12,6.89-13.74Z"/><path class="f" d="M66.85,24.23c0-3.86-1.82-7.29-4.64-9.48-.21-.16-.45-.22-.71-.18-.26,.04-.47,.18-.62,.4l-.09,.14c-.26,.4-.17,.93,.2,1.22,2.35,1.83,3.86,4.69,3.86,7.9s-1.51,6.06-3.86,7.9c-.38,.29-.46,.82-.2,1.22l.09,.14c.14,.22,.35,.36,.62,.4,.26,.04,.5-.02,.71-.18,2.83-2.2,4.64-5.63,4.64-9.48Z"/><path class="f" d="M61.99,24.23c0-2.18-.98-4.14-2.52-5.45-.18-.15-.4-.22-.63-.18-.24,.03-.43,.16-.56,.36l-.06,.1c-.22,.34-.16,.78,.15,1.05,1.17,1,1.91,2.48,1.91,4.13s-.74,3.14-1.91,4.13c-.31,.26-.37,.71-.15,1.05l.06,.1c.13,.2,.32,.32,.56,.36,.24,.03,.45-.03,.63-.18,1.54-1.31,2.52-3.26,2.52-5.45Z"/></g></svg>
