<?xml version="1.0" encoding="UTF-8"?><svg viewBox="0 0 119.73 132.72" xmlns="http://www.w3.org/2000/svg"><defs><style>.d{fill:#fff;}.e{fill:#173660;stroke:#173660;stroke-miterlimit:10;stroke-width:3px;}</style></defs><g id="a"><path class="e" d="M110.04,104.78l-41.99,24.24c-5.07,2.92-11.31,2.92-16.37,0L9.69,104.78c-5.07-2.92-8.19-8.33-8.19-14.18V42.12c0-5.85,3.12-11.25,8.19-14.18L51.68,3.69c5.07-2.92,11.31-2.92,16.37,0l41.99,24.24c5.07,2.92,8.19,8.33,8.19,14.18v48.49c0,5.85-3.12,11.25-8.19,14.18Z" id="b"/><path class="d" d="M16.24,85.84s-3.45,0-1.76,5.66c1.69,5.66,4.62,11.06,5.92,11.91,1.3,.85,1.11,1.63,4.43,0s11.78-6.51,16.01-5.86c4.23,.65,14.12,2.99,19.46,4.88,5.34,1.89,10.8,1.04,14.58-1.3,3.77-2.34,13.54-7.22,15.29-8.01s6.38-2.54,9.7-9.24c0,0,3.45-5.34,5.08-7.16s.85-5.92-3.12-4.75c0,0-1.3-2.8-5.73,.65-4.43,3.45-9.76,8.4-13.08,10.15,0,0,5.47,5.53-4.3,8.79,0,0-1.37,.59-5.21-.2s-11.58-2.15-13.34-2.15-4.04,.07-6.12,.91c-1.24,.59-1.3,0-1.37-.85s3.45-2.01,8.27-1.66c4.82,.35,11.26,1.72,12.82,1.98s6.77,1.43,8.85-2.86c2.08-4.3-9.7-5.14-10.87-5.4s-10.15-2.08-17.96-5.92c-7.81-3.84-16.4-2.08-19.72-.07s-5.53,3.45-6.96,4.88c-1.43,1.43-10.87,5.6-10.87,5.6Z"/></g><g id="c"><g><rect class="d" height="2.51" width="5.01" x="31.41" y="51.62"/><rect class="d" height="2.51" width="5.01" x="84.05" y="51.62"/><rect class="d" height="2.51" transform="translate(-8.74 46.82) rotate(-29.99)" width="5.01" x="80.52" y="38.46"/><rect class="d" height="5.01" transform="translate(-15.67 52.29) rotate(-60.01)" width="2.51" x="36.19" y="37.21"/><rect class="d" height="5.01" transform="translate(-8.73 27.56) rotate(-29.99)" width="2.51" x="45.82" y="27.58"/><rect class="d" height="5.01" width="2.51" x="58.98" y="24.05"/><rect class="d" height="2.51" transform="translate(10.65 78.61) rotate(-60.01)" width="5.01" x="70.89" y="28.83"/><rect class="d" height="3.76" transform="translate(-18.99 67.06) rotate(-75)" width="2.51" x="32.95" y="44.02"/><rect class="d" height="3.76" transform="translate(6.12 127.68) rotate(-75)" width="2.51" x="85" y="57.97"/><rect class="d" height="3.76" transform="translate(-11.85 39.02) rotate(-45)" width="2.51" x="39.93" y="31.94"/><rect class="d" height="3.76" transform="translate(-5.13 14.7) rotate(-15)" width="2.51" x="52" y="24.97"/><rect class="d" height="2.51" transform="translate(23.87 84.82) rotate(-75)" width="3.76" x="65.33" y="25.6"/><rect class="d" height="2.51" transform="translate(-.7 65.97) rotate(-45)" width="3.76" x="77.41" y="32.57"/><rect class="d" height="2.51" transform="translate(-8.94 23.89) rotate(-15)" width="3.76" x="84.39" y="44.65"/><rect class="d" height="2.51" transform="translate(-14.32 10.89) rotate(-15)" width="3.76" x="32.32" y="58.6"/><path class="d" d="M30.04,62.08c-.91-2.97-1.36-6.07-1.36-9.2,0-9.36,4.12-18.18,11.3-24.2l.6,.72c-6.97,5.84-10.96,14.4-10.96,23.48,0,3.04,.45,6.04,1.32,8.93l-.9,.27Z"/><path class="d" d="M81.18,30.55c-5.69-5.35-13.14-8.29-20.95-8.29-7.18,0-14.16,2.54-19.65,7.14l-.6-.72c5.66-4.75,12.86-7.36,20.26-7.36,8.05,0,15.72,3.03,21.59,8.54l-.64,.69Z"/><path class="d" d="M90.43,62.08l-.9-.27c.88-2.89,1.32-5.89,1.32-8.93,0-8.55-3.43-16.48-9.67-22.33l.64-.69c3.11,2.92,5.56,6.37,7.28,10.26,1.78,4.03,2.68,8.32,2.68,12.75,0,3.13-.46,6.23-1.36,9.2Z"/><path class="d" d="M39.7,58.27h-1.17l-.12,.78c.07,0,.14-.02,.25-.02,.23,0,.47,.05,.66,.16,.24,.14,.44,.4,.44,.78,0,.6-.47,1.04-1.14,1.04-.33,0-.62-.09-.76-.19l.1-.31c.13,.08,.38,.17,.65,.17,.39,0,.72-.25,.72-.66,0-.39-.27-.68-.88-.68-.17,0-.31,.02-.42,.03l.2-1.47h1.46v.35Z"/><g><path class="d" d="M37.83,48.88v-.25l.32-.31c.78-.74,1.13-1.14,1.14-1.6,0-.31-.15-.6-.61-.6-.28,0-.51,.14-.65,.26l-.13-.29c.21-.18,.51-.31,.86-.31,.66,0,.94,.45,.94,.89,0,.56-.41,1.02-1.05,1.64l-.24,.23h1.37v.35h-1.95Z"/><path class="d" d="M42.27,47.32c0,1.04-.39,1.61-1.06,1.61-.6,0-1-.56-1.01-1.57,0-1.02,.44-1.59,1.06-1.59s1.01,.57,1.01,1.55Zm-1.66,.05c0,.79,.24,1.25,.62,1.25,.42,0,.62-.49,.62-1.27s-.19-1.25-.62-1.25c-.36,0-.63,.44-.63,1.27Z"/></g><g><path class="d" d="M44.33,38.17c.12,.08,.39,.19,.68,.19,.53,0,.7-.34,.69-.59,0-.43-.39-.61-.79-.61h-.23v-.31h.23c.3,0,.68-.15,.68-.52,0-.24-.16-.46-.54-.46-.24,0-.48,.11-.61,.2l-.11-.3c.16-.12,.47-.23,.8-.23,.6,0,.87,.36,.87,.73,0,.31-.19,.58-.56,.72h0c.38,.08,.68,.37,.68,.79,0,.49-.38,.92-1.11,.92-.34,0-.64-.11-.79-.21l.11-.32Z"/><path class="d" d="M48.47,35.94h-1.17l-.12,.78c.07,0,.14-.02,.25-.02,.23,0,.47,.05,.66,.16,.24,.14,.44,.4,.44,.78,0,.6-.47,1.04-1.14,1.04-.33,0-.62-.09-.76-.19l.1-.31c.13,.08,.38,.17,.65,.17,.39,0,.72-.25,.72-.66,0-.39-.27-.68-.88-.68-.17,0-.31,.02-.42,.03l.2-1.47h1.46v.35Z"/></g><g><path class="d" d="M59.68,31.14h-1.17l-.12,.78c.07,0,.14-.02,.25-.02,.24,0,.47,.05,.66,.16,.24,.14,.44,.4,.44,.78,0,.6-.47,1.04-1.14,1.04-.33,0-.62-.09-.76-.19l.1-.31c.13,.08,.38,.17,.65,.17,.39,0,.72-.25,.72-.66,0-.39-.27-.68-.88-.68-.17,0-.31,.02-.42,.03l.2-1.47h1.46v.35Z"/><path class="d" d="M62.3,32.29c0,1.04-.39,1.61-1.06,1.61-.6,0-1-.56-1.01-1.57,0-1.02,.44-1.59,1.06-1.59s1.01,.57,1.01,1.55Zm-1.66,.05c0,.79,.24,1.25,.62,1.25,.42,0,.62-.49,.62-1.27s-.19-1.25-.62-1.25c-.36,0-.62,.44-.62,1.27Z"/></g><g><path class="d" d="M73.84,35.88c-.08,0-.19,0-.31,.02-.65,.11-.99,.58-1.06,1.09h.01c.15-.19,.4-.35,.74-.35,.54,0,.92,.39,.92,.99,0,.56-.38,1.08-1.02,1.08s-1.08-.51-1.08-1.3c0-.6,.22-1.08,.52-1.38,.25-.25,.59-.4,.98-.45,.12-.02,.23-.02,.3-.02v.34Zm-.12,1.76c0-.44-.25-.7-.63-.7-.25,0-.48,.15-.59,.38-.03,.05-.05,.11-.05,.18,0,.5,.24,.87,.67,.87,.36,0,.6-.3,.6-.73Z"/><path class="d" d="M76.33,35.94h-1.17l-.12,.78c.07,0,.14-.02,.25-.02,.24,0,.47,.05,.66,.16,.24,.14,.44,.4,.44,.78,0,.6-.47,1.04-1.14,1.04-.33,0-.62-.09-.76-.19l.1-.31c.13,.08,.38,.17,.65,.17,.39,0,.72-.25,.72-.66,0-.39-.27-.68-.88-.68-.17,0-.31,.02-.42,.03l.2-1.47h1.46v.35Z"/></g><g><path class="d" d="M78.26,48.11c0-.39,.23-.66,.61-.82h0c-.34-.17-.48-.44-.48-.7,0-.48,.41-.81,.95-.81,.59,0,.89,.37,.89,.75,0,.26-.13,.54-.5,.71h0c.38,.16,.62,.43,.62,.8,0,.53-.46,.89-1.04,.89-.64,0-1.02-.38-1.02-.83Zm1.64-.02c0-.37-.26-.55-.67-.67-.36,.1-.55,.34-.55,.63-.01,.31,.22,.58,.61,.58s.61-.23,.61-.55Zm-1.14-1.53c0,.31,.23,.47,.58,.56,.26-.09,.46-.28,.46-.55,0-.24-.15-.5-.52-.5-.34,0-.53,.23-.53,.49Z"/><path class="d" d="M82.73,47.32c0,1.04-.39,1.61-1.06,1.61-.6,0-1-.56-1.01-1.57,0-1.02,.44-1.59,1.06-1.59s1.01,.57,1.01,1.55Zm-1.66,.05c0,.79,.24,1.25,.62,1.25,.42,0,.62-.49,.62-1.27s-.19-1.25-.62-1.25c-.36,0-.62,.44-.62,1.27Z"/></g><g><path class="d" d="M76.54,58.31h0l-.53,.29-.08-.31,.67-.36h.35v3.05h-.4v-2.67Z"/><path class="d" d="M80.08,59.42c0,1.04-.39,1.61-1.06,1.61-.6,0-1-.56-1.01-1.57,0-1.02,.44-1.59,1.06-1.59s1.01,.57,1.01,1.55Zm-1.66,.05c0,.79,.24,1.25,.62,1.25,.42,0,.62-.49,.62-1.27s-.19-1.25-.62-1.25c-.36,0-.62,.44-.62,1.27Z"/><path class="d" d="M82.49,59.42c0,1.04-.39,1.61-1.06,1.61-.6,0-1-.56-1.01-1.57,0-1.02,.44-1.59,1.06-1.59s1.01,.57,1.01,1.55Zm-1.66,.05c0,.79,.24,1.25,.62,1.25,.42,0,.62-.49,.62-1.27s-.19-1.25-.62-1.25c-.36,0-.62,.44-.62,1.27Z"/></g><g><g><path class="d" d="M59.54,70.09c-.84,0-1.68-.18-2.46-.55-1.42-.66-2.5-1.83-3.03-3.3s-.47-3.06,.19-4.48c.66-1.42,1.83-2.5,3.3-3.03,1.47-.54,3.06-.47,4.48,.19,.48,.22,.92,.5,1.32,.84,2.01,1.7,2.64,4.55,1.53,6.94h0c-.66,1.42-1.83,2.5-3.3,3.03-.66,.24-1.34,.36-2.02,.36Zm0-10.67c-.56,0-1.12,.1-1.65,.3-1.21,.44-2.17,1.33-2.71,2.49-.54,1.16-.6,2.47-.15,3.68s1.33,2.17,2.49,2.71c2.4,1.12,5.27,.07,6.39-2.34h0c.91-1.96,.39-4.3-1.26-5.7-.33-.28-.69-.51-1.08-.69-.64-.3-1.33-.45-2.02-.45Z"/><polygon class="d" points="62.43 59.8 88.74 40.61 64.1 61.48 62.43 59.8"/></g><circle class="d" cx="59.54" cy="64.23" r="4.81"/></g></g></g></svg>
