<svg xmlns="http://www.w3.org/2000/svg" width="71.393" height="76.152" viewBox="0 0 71.393 76.152">
  <path id="Icon_awesome-star-of-life" data-name="Icon awesome-star-of-life" d="M70.2,49.741,49.984,38.076,70.2,26.411a2.379,2.379,0,0,0,.872-3.251L66.31,14.915a2.382,2.382,0,0,0-3.253-.872L42.84,25.709V2.38A2.38,2.38,0,0,0,40.459,0H30.934a2.38,2.38,0,0,0-2.381,2.38V25.71L8.335,14.045a2.382,2.382,0,0,0-3.253.872L.32,23.159a2.38,2.38,0,0,0,.872,3.251L21.409,38.076,1.191,49.741A2.38,2.38,0,0,0,.32,52.993l4.762,8.244a2.384,2.384,0,0,0,3.253.872L28.552,50.443V73.772a2.38,2.38,0,0,0,2.381,2.38h9.525a2.38,2.38,0,0,0,2.381-2.38V50.442L63.057,62.107a2.381,2.381,0,0,0,3.253-.872l4.762-8.244A2.378,2.378,0,0,0,70.2,49.741Z" fill="#1ac2c2"/>
</svg>
