<svg xmlns="http://www.w3.org/2000/svg" width="87.276" height="87.295" viewBox="0 0 87.276 87.295">
  <path id="Icon_simple-googlepodcasts" data-name="Icon simple-googlepodcasts" d="M5.455,35.2A5.447,5.447,0,0,0,0,40.656v5.928a5.455,5.455,0,0,0,10.91,0V40.656A5.447,5.447,0,0,0,5.455,35.2Zm76.367,0a5.447,5.447,0,0,0-5.455,5.455v5.928a5.455,5.455,0,0,0,10.91,0V40.656A5.447,5.447,0,0,0,81.822,35.2ZM24.292,53.057a5.447,5.447,0,0,0-5.455,5.455v5.928a5.455,5.455,0,1,0,10.91,0V58.548a5.447,5.447,0,0,0-5.455-5.455Zm0-35.711A5.447,5.447,0,0,0,18.837,22.8V42.293a5.455,5.455,0,0,0,10.91,0V22.765a5.447,5.447,0,0,0-5.455-5.455Zm38.693,0A5.447,5.447,0,0,0,57.53,22.8v5.964a5.455,5.455,0,1,0,10.91,0V22.8A5.447,5.447,0,0,0,62.984,17.346ZM43.638,0a5.447,5.447,0,0,0-5.455,5.455v5.928a5.455,5.455,0,0,0,10.91,0V5.455A5.447,5.447,0,0,0,43.638,0Zm0,70.4a5.447,5.447,0,0,0-5.455,5.455v5.964a5.455,5.455,0,0,0,10.91.036V75.894a5.471,5.471,0,0,0-5.455-5.455ZM62.984,39.638a5.471,5.471,0,0,0-5.455,5.455V64.475a5.455,5.455,0,0,0,10.91,0V45.093A5.447,5.447,0,0,0,62.984,39.638ZM43.638,22.292a5.471,5.471,0,0,0-5.455,5.455V59.493a5.455,5.455,0,1,0,10.91,0V27.783a5.447,5.447,0,0,0-5.455-5.455Z" fill="#1391ab"/>
</svg>
