<svg xmlns="http://www.w3.org/2000/svg" width="72.393" height="72.393" viewBox="0 0 72.393 72.393">
  <path id="Icon_simple-hashnode" data-name="Icon simple-hashnode" d="M11.583,0H60.81A11.583,11.583,0,0,1,72.393,11.583V60.81A11.583,11.583,0,0,1,60.81,72.393H11.583A11.583,11.583,0,0,1,0,60.81V11.583A11.583,11.583,0,0,1,11.583,0ZM54.34,65.268l-.012,0a7.773,7.773,0,0,0,.63-15.5L40.127,23.576c-2.169-3.9-6.358-3.728-7.87,1.8-1.3,5.236-.962,10.171-1.339,16.131a.09.09,0,0,1-.069.081.092.092,0,0,1-.1-.039l-13.242-26.4a4.488,4.488,0,0,0,1.716-3.52,4.4,4.4,0,1,0-4.4,4.4c.208,0,.377-.042.543-.042,5.574,14.328,11.776,31.047,14,34.9,1.508,3.686,6.663,2.513,6.79-1.466l.543-20.909c0-.127.166-.127.211-.042l10.636,25.3a7.761,7.761,0,0,0,6.8,11.48Z" fill="#1ac2c2"/>
</svg>
