<svg xmlns="http://www.w3.org/2000/svg" width="72.393" height="67.223" viewBox="0 0 72.393 67.223">
  <g id="Icon_ionic-md-analytics" data-name="Icon ionic-md-analytics" transform="translate(-2.25 -3.375)">
    <path id="Tracé_2312" data-name="Tracé 2312" d="M58.374,13.3,44.286,34.855a7.674,7.674,0,0,1,1.745,4.9,7.755,7.755,0,0,1-15.509,0,8.5,8.5,0,0,1,.129-1.438L21.346,32.9a7.707,7.707,0,0,1-5.38,2.165,7.8,7.8,0,0,1-3.813-1l-9.9,9.273v9.241a6.916,6.916,0,0,0,6.9,6.9h58.6a6.916,6.916,0,0,0,6.9-6.9V18.231l-9.467-6.284a7.749,7.749,0,0,1-6.8,1.357Z" transform="translate(0 11.122)" fill="#a9d1d8"/>
    <path id="Tracé_2313" data-name="Tracé 2313" d="M15.982,30.678a7.757,7.757,0,0,1,7.755,7.755c0,.339-.032.679-.065,1l9.709,5.428a7.686,7.686,0,0,1,4.911-1.745,8.114,8.114,0,0,1,1.68.178l14.12-21.874a7.673,7.673,0,0,1-1.438-4.491,7.755,7.755,0,1,1,15.509,0,8.428,8.428,0,0,1-.21,1.826l6.672,4.459V10.273a6.916,6.916,0,0,0-6.9-6.9H9.148a6.916,6.916,0,0,0-6.9,6.9V47.318L8.712,41.13a7.754,7.754,0,0,1,7.27-10.453Z" fill="#1ac2c2"/>
  </g>
</svg>
