<svg xmlns="http://www.w3.org/2000/svg" width="81.051" height="80.848" viewBox="0 0 81.051 80.848">
  <g id="Groupe_240" data-name="Groupe 240" transform="translate(-15982 1787)">
    <path id="Icon_material-data-usage" data-name="Icon material-data-usage" d="M47.578,3.075V15.354A28.348,28.348,0,0,1,71.893,43.4a28.869,28.869,0,0,1-1.945,10.293l10.537,6.2A40.024,40.024,0,0,0,84.051,43.4,40.549,40.549,0,0,0,47.578,3.075ZM43.525,71.766a28.35,28.35,0,0,1-4.053-56.411V3.075A40.522,40.522,0,1,0,76.148,67.348l-10.537-6.2A28.168,28.168,0,0,1,43.525,71.766Z" transform="translate(15979 -1790.075)" fill="#1391ab"/>
    <circle id="Ellipse_33" data-name="Ellipse 33" cx="16" cy="16" r="16" transform="translate(16006 -1762)" fill="#1ac2c2"/>
  </g>
</svg>
