<svg xmlns="http://www.w3.org/2000/svg" width="83.249" height="56.934" viewBox="0 0 83.249 56.934">
  <path id="Icon_awesome-braille" data-name="Icon awesome-braille" d="M16.65,32.907a8.55,8.55,0,0,1-8.325,8.759A8.55,8.55,0,0,1,0,32.907a8.55,8.55,0,0,1,8.325-8.759A8.55,8.55,0,0,1,16.65,32.907ZM8.325,50.425a4.385,4.385,0,0,0,0,8.759,4.385,4.385,0,0,0,0-8.759Zm0-48.175A8.55,8.55,0,0,0,0,11.009a8.55,8.55,0,0,0,8.325,8.759,8.55,8.55,0,0,0,8.325-8.759A8.55,8.55,0,0,0,8.325,2.25ZM29.137,28.527a4.385,4.385,0,1,0,4.162,4.38A4.275,4.275,0,0,0,29.137,28.527Zm0,21.9A4.385,4.385,0,1,0,33.3,54.8,4.275,4.275,0,0,0,29.137,50.425Zm0-48.175a8.55,8.55,0,0,0-8.325,8.759,8.55,8.55,0,0,0,8.325,8.759,8.55,8.55,0,0,0,8.325-8.759A8.55,8.55,0,0,0,29.137,2.25ZM58.274,28.527a4.385,4.385,0,1,0,4.162,4.38A4.275,4.275,0,0,0,58.274,28.527Zm0,21.9a4.385,4.385,0,1,0,4.162,4.38A4.275,4.275,0,0,0,58.274,50.425Zm0-48.175a8.55,8.55,0,0,0-8.325,8.759,8.336,8.336,0,1,0,16.65,0A8.55,8.55,0,0,0,58.274,2.25ZM79.087,28.527a4.385,4.385,0,1,0,4.162,4.38A4.275,4.275,0,0,0,79.087,28.527Zm0,21.9a4.385,4.385,0,1,0,4.162,4.38A4.275,4.275,0,0,0,79.087,50.425Zm0-43.8a4.275,4.275,0,0,0-4.162,4.38,4.168,4.168,0,1,0,8.325,0A4.275,4.275,0,0,0,79.087,6.63Z" transform="translate(0 -2.25)" fill="#324b63"/>
</svg>
