<svg xmlns="http://www.w3.org/2000/svg" width="83.143" height="72.75" viewBox="0 0 83.143 72.75">
  <path id="Icon_awesome-stream" data-name="Icon awesome-stream" d="M2.6,17.839H70.152a2.6,2.6,0,0,0,2.6-2.6V4.848a2.6,2.6,0,0,0-2.6-2.6H2.6A2.6,2.6,0,0,0,0,4.848V15.241A2.6,2.6,0,0,0,2.6,17.839ZM80.545,30.83H12.991a2.6,2.6,0,0,0-2.6,2.6V43.821a2.6,2.6,0,0,0,2.6,2.6H80.545a2.6,2.6,0,0,0,2.6-2.6V33.429A2.6,2.6,0,0,0,80.545,30.83ZM70.152,59.411H2.6a2.6,2.6,0,0,0-2.6,2.6V72.4A2.6,2.6,0,0,0,2.6,75H70.152a2.6,2.6,0,0,0,2.6-2.6V62.009A2.6,2.6,0,0,0,70.152,59.411Z" transform="translate(0 -2.25)" fill="#324b63"/>
</svg>
